# https://github.com/mikedh/trimesh
v 0.05307420 0.00908213 0.00515158
v 0.05307420 0.00908213 0.00500000
v 0.05307398 0.00908213 0.01499053
v 0.05302635 0.00862025 0.01499053
v 0.05302635 0.00862025 0.01473725
v 0.05302612 0.00862066 0.00500000
v 0.05132728 0.00908213 0.00500000
v 0.05132684 0.00908213 0.01499053
v 0.05078970 0.00862025 0.01499053
v 0.05302590 0.00862025 0.00500000
v 0.05078970 0.00874947 0.00500000
v 0.05132684 0.00908213 0.00712602
v 0.05078970 0.00874947 0.01499053
v 0.05078970 0.00862025 0.00500000
f 1 2 7
f 1 7 12
f 1 12 8
f 1 8 3
f 1 3 4
f 1 4 5
f 1 5 2
f 2 5 6
f 2 6 10
f 2 10 14
f 2 14 11
f 2 11 7
f 3 8 13
f 3 13 9
f 3 9 4
f 4 9 14
f 4 14 10
f 4 10 5
f 5 10 6
f 7 11 12
f 8 12 11
f 8 11 13
f 9 13 11
f 9 11 14

