# https://github.com/mikedh/trimesh
v 0.05496798 -0.00766459 0.01511724
v 0.05505884 -0.00761519 0.01511724
v 0.05496798 -0.00766459 0.01590809
v 0.05496798 -0.00268614 0.01511724
v 0.05509853 -0.00759186 0.01511724
v 0.05505884 -0.00761519 0.01590809
v 0.05496798 -0.00268614 0.01590809
v 0.05570719 -0.00065523 0.01511724
v 0.05538698 -0.00742033 0.01511724
v 0.05538698 -0.00742033 0.01590809
v 0.05570719 -0.00065523 0.01590809
v 0.05947333 -0.00065523 0.01511724
v 0.05542580 -0.00739495 0.01511724
v 0.05570631 -0.00721107 0.01590809
v 0.05947333 -0.00065523 0.01590809
v 0.05945966 -0.00083911 0.01511724
v 0.05570631 -0.00721107 0.01511724
v 0.05575085 -0.00718019 0.01511724
v 0.05576496 -0.00716990 0.01590809
v 0.05945966 -0.00083911 0.01590809
v 0.05941467 -0.00121785 0.01511724
v 0.05601857 -0.00698602 0.01511724
v 0.05603489 -0.00697367 0.01590809
v 0.05941467 -0.00121785 0.01590809
v 0.05941423 -0.00122128 0.01511724
v 0.05603577 -0.00697299 0.01511724
v 0.05631584 -0.00675137 0.01590809
v 0.05935337 -0.00159521 0.01590809
v 0.05936087 -0.00154924 0.01511724
v 0.05631584 -0.00675137 0.01511724
v 0.05635112 -0.00672118 0.01511724
v 0.05660517 -0.00650231 0.01590809
v 0.05935337 -0.00159521 0.01511724
v 0.05927530 -0.00196846 0.01590809
v 0.05927486 -0.00197189 0.01511724
v 0.05660296 -0.00650437 0.01511724
v 0.05660517 -0.00650231 0.01511724
v 0.05688127 -0.00624296 0.01511724
v 0.05686627 -0.00625668 0.01590809
v 0.05927001 -0.00199110 0.01590809
v 0.05918180 -0.00233896 0.01511724
v 0.05688303 -0.00624090 0.01590809
v 0.05714943 -0.00596714 0.01511724
v 0.05713355 -0.00598361 0.01590809
v 0.05918180 -0.00233896 0.01590809
v 0.05912534 -0.00253313 0.01511724
v 0.05718030 -0.00593283 0.01511724
v 0.05714943 -0.00596714 0.01590809
v 0.05912799 -0.00252284 0.01590809
v 0.05907859 -0.00268202 0.01511724
v 0.05912137 -0.00254480 0.01590809
v 0.05907154 -0.00270397 0.01590809
v 0.05740348 -0.00568240 0.01511724
v 0.05740348 -0.00568240 0.01590809
v 0.05907154 -0.00270397 0.01511724
v 0.05901817 -0.00286247 0.01590809
v 0.05901552 -0.00287139 0.01511724
v 0.05743258 -0.00564672 0.01511724
v 0.05764473 -0.00538669 0.01590809
v 0.05901067 -0.00288442 0.01590809
v 0.05894584 -0.00306487 0.01511724
v 0.05894584 -0.00306487 0.01590809
v 0.05764473 -0.00538669 0.01511724
v 0.05765443 -0.00537434 0.01511724
v 0.05772236 -0.00528651 0.01511724
v 0.05771795 -0.00529132 0.01590809
v 0.05882146 -0.00337637 0.01511724
v 0.05880426 -0.00341891 0.01590809
v 0.05773206 -0.00527279 0.01590809
v 0.05787320 -0.00508068 0.01511724
v 0.05787320 -0.00508068 0.01590809
v 0.05880426 -0.00341891 0.01511724
v 0.05864724 -0.00376745 0.01590809
v 0.05788069 -0.00507039 0.01511724
v 0.05792789 -0.00500315 0.01590809
v 0.05864724 -0.00376745 0.01511724
v 0.05863710 -0.00378804 0.01590809
v 0.05864592 -0.00377020 0.01511724
v 0.05793274 -0.00499629 0.01511724
v 0.05794112 -0.00498394 0.01590809
v 0.05847567 -0.00410845 0.01590809
v 0.05847567 -0.00410845 0.01511724
v 0.05795170 -0.00496816 0.01511724
v 0.05808799 -0.00476507 0.01511724
v 0.05808799 -0.00476507 0.01590809
v 0.05828911 -0.00444053 0.01590809
v 0.05828911 -0.00444053 0.01511724
v 0.05811269 -0.00472596 0.01511724
f 1 2 6
f 1 6 3
f 1 3 7
f 1 7 4
f 1 4 8
f 1 8 12
f 1 12 16
f 1 16 21
f 1 21 25
f 1 25 29
f 1 29 33
f 1 33 35
f 1 35 41
f 1 41 46
f 1 46 50
f 1 50 55
f 1 55 57
f 1 57 61
f 1 61 67
f 1 67 72
f 1 72 76
f 1 76 78
f 1 78 82
f 1 82 87
f 1 87 88
f 1 88 84
f 1 84 83
f 1 83 79
f 1 79 74
f 1 74 70
f 1 70 65
f 1 65 64
f 1 64 63
f 1 63 58
f 1 58 53
f 1 53 47
f 1 47 43
f 1 43 38
f 1 38 37
f 1 37 36
f 1 36 31
f 1 31 30
f 1 30 26
f 1 26 22
f 1 22 18
f 1 18 17
f 1 17 13
f 1 13 9
f 1 9 5
f 1 5 2
f 2 5 6
f 3 6 10
f 3 10 14
f 3 14 19
f 3 19 23
f 3 23 27
f 3 27 32
f 3 32 39
f 3 39 42
f 3 42 44
f 3 44 48
f 3 48 54
f 3 54 59
f 3 59 66
f 3 66 69
f 3 69 71
f 3 71 75
f 3 75 80
f 3 80 85
f 3 85 86
f 3 86 81
f 3 81 77
f 3 77 73
f 3 73 68
f 3 68 62
f 3 62 60
f 3 60 56
f 3 56 52
f 3 52 51
f 3 51 49
f 3 49 45
f 3 45 40
f 3 40 34
f 3 34 28
f 3 28 24
f 3 24 20
f 3 20 15
f 3 15 11
f 3 11 7
f 4 7 11
f 4 11 8
f 5 9 10
f 5 10 6
f 8 11 15
f 8 15 12
f 9 13 10
f 10 13 14
f 12 15 20
f 12 20 16
f 13 17 14
f 14 17 18
f 14 18 19
f 16 20 24
f 16 24 21
f 18 22 19
f 19 22 23
f 21 24 25
f 22 26 23
f 23 26 27
f 24 28 25
f 25 28 29
f 26 30 27
f 27 30 31
f 27 31 32
f 28 33 29
f 28 34 35
f 28 35 33
f 31 36 32
f 32 36 37
f 32 37 38
f 32 38 39
f 34 40 35
f 35 40 41
f 38 42 39
f 38 43 44
f 38 44 42
f 40 45 41
f 41 45 46
f 43 47 48
f 43 48 44
f 45 49 46
f 46 49 51
f 46 51 52
f 46 52 50
f 47 53 54
f 47 54 48
f 50 52 55
f 52 56 57
f 52 57 55
f 53 58 54
f 54 58 59
f 56 60 57
f 57 60 62
f 57 62 61
f 58 63 59
f 59 63 64
f 59 64 65
f 59 65 66
f 61 62 67
f 62 68 67
f 65 69 66
f 65 70 71
f 65 71 69
f 67 68 72
f 68 73 76
f 68 76 72
f 70 74 71
f 71 74 75
f 73 77 78
f 73 78 76
f 74 79 75
f 75 79 80
f 77 81 82
f 77 82 78
f 79 83 80
f 80 83 84
f 80 84 85
f 81 86 87
f 81 87 82
f 84 88 85
f 85 88 86
f 86 88 87

