# https://github.com/mikedh/trimesh
v 0.04771210 0.00824476 0.01499053
v 0.04771210 0.00730441 0.01499053
v 0.04771210 0.00824476 0.00500000
v 0.04738724 0.00847540 0.01499053
v 0.04586586 0.00730441 0.01499053
v 0.04771210 0.00730441 0.00500000
v 0.04738724 0.00847540 0.00500000
v 0.04553611 0.00847540 0.01499053
v 0.04559384 0.00825209 0.01499053
v 0.04586586 0.00730441 0.00500000
v 0.04553611 0.00847540 0.00500000
v 0.04553739 0.00846875 0.01499053
v 0.04556551 0.00835263 0.01499053
v 0.04556551 0.00835263 0.00500000
v 0.04559384 0.00825221 0.00500000
v 0.04553739 0.00846887 0.00500000
f 1 2 6
f 1 6 3
f 1 3 7
f 1 7 4
f 1 4 8
f 1 8 12
f 1 12 13
f 1 13 9
f 1 9 5
f 1 5 2
f 2 5 10
f 2 10 6
f 3 6 10
f 3 10 15
f 3 15 14
f 3 14 16
f 3 16 11
f 3 11 7
f 4 7 11
f 4 11 8
f 5 9 10
f 8 11 12
f 9 13 14
f 9 14 15
f 9 15 10
f 11 16 12
f 12 16 14
f 12 14 13

