# https://github.com/mikedh/trimesh
v 0.05452611 0.00327602 0.01499053
v 0.05485098 0.00286063 0.01499053
v 0.05452611 0.00327602 0.01511715
v 0.05452611 0.00736989 0.01499053
v 0.05613940 0.00286063 0.01499053
v 0.05485098 0.00286063 0.01511715
v 0.05452611 0.00736989 0.01511715
v 0.05560306 0.00736989 0.01499053
v 0.05613940 0.00286063 0.01511715
v 0.05613940 0.00691654 0.01499053
v 0.05546455 0.00736989 0.01511715
v 0.05560306 0.00736989 0.01500000
v 0.05613940 0.00639829 0.01511715
v 0.05613940 0.00691654 0.01500000
v 0.05551557 0.00733811 0.01511715
v 0.05571835 0.00720170 0.01511715
v 0.05574646 0.00718272 0.01511715
v 0.05574899 0.00718096 0.01511715
v 0.05583112 0.00712313 0.01511715
v 0.05600737 0.00699379 0.01511715
v 0.05603643 0.00697216 0.01511715
v 0.05613924 0.00689314 0.01511715
v 0.05613940 0.00689270 0.01511712
f 1 2 6
f 1 6 3
f 1 3 7
f 1 7 4
f 1 4 8
f 1 8 10
f 1 10 5
f 1 5 2
f 2 5 9
f 2 9 6
f 3 6 9
f 3 9 13
f 3 13 22
f 3 22 21
f 3 21 20
f 3 20 19
f 3 19 18
f 3 18 17
f 3 17 16
f 3 16 15
f 3 15 11
f 3 11 7
f 4 7 11
f 4 11 12
f 4 12 8
f 5 10 14
f 5 14 23
f 5 23 13
f 5 13 9
f 8 12 14
f 8 14 10
f 11 15 12
f 12 15 16
f 12 16 17
f 12 17 18
f 12 18 19
f 12 19 20
f 12 20 21
f 12 21 22
f 12 22 14
f 13 23 22
f 14 22 23

