# https://github.com/mikedh/trimesh
v 0.05918830 0.00230845 0.02486451
v 0.05918830 0.00230845 0.01590809
v 0.05912438 0.00253591 0.01590809
v 0.05911738 0.00255826 0.03000000
v 0.05918786 0.00230845 0.03000000
v 0.05518561 0.00230845 0.01590809
v 0.05911738 0.00255826 0.01590809
v 0.05901406 0.00287512 0.01590809
v 0.05899786 0.00292076 0.03000000
v 0.05518561 0.00230845 0.03000000
v 0.05518517 0.00230874 0.01590809
v 0.05899786 0.00292076 0.01590809
v 0.05895102 0.00304498 0.03000000
v 0.05518517 0.00230874 0.03000000
v 0.05471586 0.00304498 0.01590809
v 0.05895102 0.00304498 0.01590809
v 0.05471586 0.00304498 0.03000000
f 1 2 3
f 1 3 4
f 1 4 5
f 1 5 10
f 1 10 6
f 1 6 2
f 2 6 11
f 2 11 15
f 2 15 16
f 2 16 12
f 2 12 8
f 2 8 7
f 2 7 3
f 3 7 4
f 4 7 8
f 4 8 9
f 4 9 13
f 4 13 17
f 4 17 14
f 4 14 10
f 4 10 5
f 6 10 14
f 6 14 11
f 8 12 9
f 9 12 16
f 9 16 13
f 11 14 17
f 11 17 15
f 13 16 15
f 13 15 17

