# https://github.com/mikedh/trimesh
v 0.05855272 0.00395910 0.03000000
v 0.05854583 0.00397246 0.03000000
v 0.05380370 0.00395910 0.03000000
v 0.05855272 0.00395910 0.01590809
v 0.05854583 0.00397246 0.01590809
v 0.05836554 0.00430870 0.03000000
v 0.05268692 0.00460899 0.03000000
v 0.05380370 0.00395910 0.01590809
v 0.05836554 0.00430870 0.01590809
v 0.05818640 0.00460899 0.03000000
v 0.05268692 0.00460899 0.01590809
v 0.05818640 0.00460899 0.01590809
f 1 2 6
f 1 6 10
f 1 10 7
f 1 7 3
f 1 3 8
f 1 8 4
f 1 4 5
f 1 5 2
f 2 5 9
f 2 9 6
f 3 7 11
f 3 11 8
f 4 8 11
f 4 11 12
f 4 12 9
f 4 9 5
f 6 9 12
f 6 12 10
f 7 10 12
f 7 12 11

