# https://github.com/mikedh/trimesh
v 0.04791441 -0.00560481 0.01511715
v 0.04791441 -0.00747050 0.01511715
v 0.04791441 -0.00560481 0.01499053
v 0.04533115 -0.00560481 0.01511715
v 0.04791441 -0.00747050 0.01499902
v 0.04619831 -0.00747050 0.01511715
v 0.04791441 -0.00746520 0.01499053
v 0.04533115 -0.00560481 0.01499053
v 0.04533115 -0.00686869 0.01511715
v 0.04791315 -0.00747050 0.01499053
v 0.04602381 -0.00736256 0.01511715
v 0.04591988 -0.00747050 0.01500000
v 0.04533115 -0.00690394 0.01499053
v 0.04533115 -0.00690595 0.01500000
v 0.04536074 -0.00689317 0.01511715
v 0.04591988 -0.00747050 0.01499053
v 0.04598462 -0.00733827 0.01511715
v 0.04575348 -0.00718302 0.01511715
v 0.04567963 -0.00713097 0.01511715
v 0.04566901 -0.00712348 0.01511715
v 0.04546366 -0.00697243 0.01511715
v 0.04536301 -0.00689499 0.01511715
v 0.04533115 -0.00690705 0.01499143
f 1 2 5
f 1 5 7
f 1 7 3
f 1 3 8
f 1 8 4
f 1 4 9
f 1 9 15
f 1 15 22
f 1 22 21
f 1 21 20
f 1 20 19
f 1 19 18
f 1 18 17
f 1 17 11
f 1 11 6
f 1 6 2
f 2 6 12
f 2 12 16
f 2 16 10
f 2 10 5
f 3 7 10
f 3 10 16
f 3 16 13
f 3 13 8
f 4 8 13
f 4 13 23
f 4 23 14
f 4 14 9
f 5 10 7
f 6 11 12
f 9 14 12
f 9 12 15
f 11 17 12
f 12 17 18
f 12 18 19
f 12 19 20
f 12 20 21
f 12 21 22
f 12 22 15
f 12 14 23
f 12 23 16
f 13 16 23

