# https://github.com/mikedh/trimesh
v 0.05950360 0.00025313 0.01500000
v 0.05950360 0.00025313 0.01499053
v 0.05949604 0.00025313 0.01511715
v 0.05960421 -0.00045539 0.01500000
v 0.05960421 -0.00045539 0.01499053
v 0.05574318 0.00025313 0.01499053
v 0.05949763 0.00019400 0.01511715
v 0.05574318 0.00025313 0.01511715
v 0.05960421 -0.00142470 0.01500000
v 0.05949803 0.00017856 0.01511715
v 0.05949962 -0.00007650 0.01511715
v 0.05960421 -0.00142470 0.01499053
v 0.05554156 -0.00142470 0.01499053
v 0.05554156 -0.00142470 0.01511715
v 0.05949803 -0.00017980 0.01511715
v 0.05948769 -0.00046097 0.01511715
v 0.05946304 -0.00079240 0.01511715
v 0.05945946 -0.00083855 0.01511715
v 0.05942009 -0.00117178 0.01511715
v 0.05941452 -0.00121760 0.01511715
v 0.05941412 -0.00122056 0.01511715
v 0.05938112 -0.00142470 0.01511715
f 1 2 6
f 1 6 8
f 1 8 3
f 1 3 4
f 1 4 5
f 1 5 2
f 2 5 12
f 2 12 13
f 2 13 6
f 3 7 4
f 3 8 14
f 3 14 22
f 3 22 21
f 3 21 20
f 3 20 19
f 3 19 18
f 3 18 17
f 3 17 16
f 3 16 15
f 3 15 11
f 3 11 10
f 3 10 7
f 4 9 12
f 4 12 5
f 4 7 10
f 4 10 11
f 4 11 9
f 6 13 14
f 6 14 8
f 9 11 15
f 9 15 16
f 9 16 17
f 9 17 18
f 9 18 19
f 9 19 20
f 9 20 21
f 9 21 22
f 9 22 14
f 9 14 13
f 9 13 12

