# https://github.com/mikedh/trimesh
v 0.04262807 -0.00511165 0.01499053
v 0.04265308 -0.00510265 0.01499053
v 0.04262807 -0.00511165 0.01500000
v 0.04262807 -0.00248620 0.01499053
v 0.04265302 -0.00510265 0.01500000
v 0.04271445 -0.00507721 0.01499053
v 0.04271445 -0.00507721 0.01500000
v 0.04325751 -0.00451562 0.01511715
v 0.04315801 -0.00434830 0.01511715
v 0.04313435 -0.00430847 0.01511715
v 0.04313293 -0.00430590 0.01511715
v 0.04297557 -0.00401315 0.01511715
v 0.04295370 -0.00397228 0.01511715
v 0.04295240 -0.00396971 0.01511715
v 0.04280792 -0.00367029 0.01511715
v 0.04278783 -0.00362865 0.01511715
v 0.04278666 -0.00362608 0.01511715
v 0.04265543 -0.00332048 0.01511715
v 0.04263713 -0.00327782 0.01511715
v 0.04263608 -0.00327525 0.01511715
v 0.04262807 -0.00325417 0.01511715
v 0.04262807 -0.00248620 0.01511715
v 0.04325751 -0.00248620 0.01499053
v 0.04275555 -0.00505845 0.01499053
v 0.04275555 -0.00505845 0.01500000
v 0.04325751 -0.00482867 0.01500000
v 0.04325751 -0.00248620 0.01511715
v 0.04325751 -0.00482867 0.01499053
f 1 2 3
f 1 3 21
f 1 21 22
f 1 22 4
f 1 4 23
f 1 23 28
f 1 28 24
f 1 24 6
f 1 6 2
f 2 5 3
f 2 6 7
f 2 7 5
f 3 5 8
f 3 8 9
f 3 9 10
f 3 10 11
f 3 11 12
f 3 12 13
f 3 13 14
f 3 14 15
f 3 15 16
f 3 16 17
f 3 17 18
f 3 18 19
f 3 19 20
f 3 20 21
f 4 22 27
f 4 27 23
f 5 7 8
f 6 24 25
f 6 25 7
f 7 25 8
f 8 25 26
f 8 26 28
f 8 28 23
f 8 23 27
f 8 27 22
f 8 22 21
f 8 21 20
f 8 20 19
f 8 19 18
f 8 18 17
f 8 17 16
f 8 16 15
f 8 15 14
f 8 14 13
f 8 13 12
f 8 12 11
f 8 11 10
f 8 10 9
f 24 28 26
f 24 26 25

