# https://github.com/mikedh/trimesh
v 0.05191190 -0.00908715 0.00500000
v 0.05307542 -0.00908715 0.00500000
v 0.05191190 -0.00908715 0.01499053
v 0.05191190 -0.00486228 0.00500000
v 0.05311003 -0.00848334 0.00500000
v 0.05307542 -0.00908715 0.01499053
v 0.05191190 -0.00486228 0.01499053
v 0.05311003 -0.00440736 0.00500000
v 0.05311003 -0.00848334 0.01499053
v 0.05311003 -0.00440736 0.01499053
f 1 2 6
f 1 6 3
f 1 3 7
f 1 7 4
f 1 4 8
f 1 8 5
f 1 5 2
f 2 5 9
f 2 9 6
f 3 6 9
f 3 9 10
f 3 10 7
f 4 7 10
f 4 10 8
f 5 8 10
f 5 10 9

