# https://github.com/mikedh/trimesh
v 0.05901679 0.00286705 0.01524839
v 0.05901679 0.00286705 0.01511724
v 0.05901634 0.00286705 0.01590809
v 0.05902128 0.00285308 0.01590809
v 0.05910433 0.00259888 0.01511724
v 0.05484680 0.00286705 0.01511724
v 0.05484680 0.00286705 0.01590809
v 0.05911735 0.00255818 0.01590809
v 0.05911735 0.00255818 0.01511724
v 0.05563151 0.00108229 0.01511724
v 0.05563151 0.00108229 0.01590739
v 0.05560233 0.00120179 0.01590809
v 0.05912363 0.00253756 0.01511724
v 0.05912408 0.00253582 0.01590809
v 0.05912543 0.00253162 0.01511724
v 0.05943249 0.00108229 0.01511724
v 0.05570109 0.00108229 0.01590809
v 0.05913037 0.00251345 0.01590809
v 0.05922105 0.00219078 0.01590809
v 0.05922195 0.00218781 0.01511724
v 0.05938042 0.00144131 0.01511724
v 0.05943249 0.00108229 0.01590809
v 0.05922644 0.00216824 0.01590809
v 0.05930859 0.00181936 0.01590809
v 0.05930859 0.00181936 0.01511724
v 0.05937997 0.00144428 0.01511724
v 0.05937997 0.00144428 0.01590809
v 0.05931308 0.00179665 0.01590809
f 1 2 6
f 1 6 7
f 1 7 3
f 1 3 4
f 1 4 5
f 1 5 2
f 2 5 9
f 2 9 13
f 2 13 15
f 2 15 20
f 2 20 25
f 2 25 26
f 2 26 21
f 2 21 16
f 2 16 10
f 2 10 6
f 3 7 12
f 3 12 17
f 3 17 22
f 3 22 27
f 3 27 28
f 3 28 24
f 3 24 23
f 3 23 19
f 3 19 18
f 3 18 14
f 3 14 8
f 3 8 4
f 4 8 5
f 5 8 9
f 6 10 11
f 6 11 7
f 7 11 12
f 8 13 9
f 8 14 15
f 8 15 13
f 10 16 22
f 10 22 17
f 10 17 11
f 11 17 12
f 14 18 15
f 15 18 19
f 15 19 20
f 16 21 22
f 19 23 20
f 20 23 24
f 20 24 25
f 21 26 27
f 21 27 22
f 24 28 25
f 25 28 26
f 26 28 27

