# https://github.com/mikedh/trimesh
v 0.04335847 -0.00324693 0.01499053
v 0.04242186 -0.00324693 0.01499053
v 0.04335847 -0.00484590 0.01499053
v 0.04335847 -0.00324693 0.00500000
v 0.04195856 -0.00349456 0.01499053
v 0.04242186 -0.00324693 0.00500000
v 0.04195856 -0.00349435 0.00500000
v 0.04258289 -0.00512838 0.01499053
v 0.04335847 -0.00484590 0.00500000
v 0.04191918 -0.00351672 0.01499053
v 0.04191918 -0.00351672 0.00500000
v 0.04249786 -0.00515598 0.01499053
v 0.04258289 -0.00512838 0.00500000
v 0.04186250 -0.00355137 0.01499053
v 0.04186275 -0.00355137 0.00500000
v 0.04239727 -0.00518459 0.01499053
v 0.04239727 -0.00518459 0.00500000
v 0.04249761 -0.00515598 0.00500000
v 0.04180054 -0.00359288 0.01499053
v 0.04180054 -0.00359288 0.00500000
v 0.04228114 -0.00521260 0.01499053
v 0.04228089 -0.00521260 0.00500000
v 0.04172805 -0.00364567 0.01499053
v 0.04172805 -0.00364547 0.00500000
v 0.04214895 -0.00523919 0.01499053
v 0.04214895 -0.00523919 0.00500000
v 0.04164603 -0.00371014 0.01499053
v 0.04164603 -0.00371014 0.00500000
v 0.04208223 -0.00525068 0.01499053
v 0.04208223 -0.00525068 0.00500000
v 0.04155497 -0.00378771 0.01499053
v 0.04155497 -0.00378751 0.00500000
v 0.04206492 -0.00525330 0.01499053
v 0.04200096 -0.00526297 0.00504401
v 0.04187052 -0.00488338 0.00500000
v 0.04145589 -0.00387898 0.01499053
v 0.04145589 -0.00387878 0.00500000
v 0.04185673 -0.00489264 0.01499053
v 0.04165681 -0.00529722 0.01477441
v 0.04183691 -0.00528271 0.01486829
v 0.04200096 -0.00526297 0.01495533
v 0.04183691 -0.00528271 0.00513202
v 0.04165681 -0.00529722 0.00522590
v 0.04146066 -0.00530508 0.00532565
v 0.04124871 -0.00530508 0.00543225
v 0.04111175 -0.00530065 0.00550070
v 0.04094896 -0.00499379 0.00550070
v 0.04172077 -0.00460070 0.00500000
v 0.04140748 -0.00392593 0.01499053
v 0.04140748 -0.00392593 0.00500000
v 0.04185597 -0.00489123 0.01499053
v 0.04111175 -0.00530065 0.01449961
v 0.04146066 -0.00530508 0.01467368
v 0.04124871 -0.00530508 0.01456709
v 0.04079620 -0.00468189 0.00550070
v 0.04157981 -0.00431318 0.00500000
v 0.04094896 -0.00499379 0.01449961
v 0.04134954 -0.00398476 0.01495533
v 0.04139519 -0.00393862 0.01499053
v 0.04134954 -0.00398476 0.00504401
v 0.04170623 -0.00460815 0.01499053
v 0.04079620 -0.00468189 0.01449961
v 0.04087321 -0.00456846 0.00543225
v 0.04099787 -0.00439700 0.00532565
v 0.04156501 -0.00432023 0.01499053
v 0.04123717 -0.00410585 0.01486829
v 0.04111953 -0.00424306 0.01477441
v 0.04156049 -0.00431036 0.01499053
v 0.04111953 -0.00424306 0.00522590
v 0.04123717 -0.00410585 0.00513202
v 0.04099787 -0.00439700 0.01467368
v 0.04087321 -0.00456846 0.01456709
f 1 2 5
f 1 5 10
f 1 10 14
f 1 14 19
f 1 19 23
f 1 23 27
f 1 27 31
f 1 31 36
f 1 36 49
f 1 49 59
f 1 59 68
f 1 68 65
f 1 65 61
f 1 61 51
f 1 51 38
f 1 38 33
f 1 33 29
f 1 29 25
f 1 25 21
f 1 21 16
f 1 16 12
f 1 12 8
f 1 8 3
f 1 3 9
f 1 9 4
f 1 4 6
f 1 6 2
f 2 6 7
f 2 7 5
f 3 8 13
f 3 13 9
f 4 9 13
f 4 13 18
f 4 18 17
f 4 17 22
f 4 22 26
f 4 26 30
f 4 30 35
f 4 35 48
f 4 48 56
f 4 56 50
f 4 50 37
f 4 37 32
f 4 32 28
f 4 28 24
f 4 24 20
f 4 20 15
f 4 15 11
f 4 11 7
f 4 7 6
f 5 7 10
f 7 11 10
f 8 12 13
f 10 11 14
f 11 15 14
f 12 16 17
f 12 17 18
f 12 18 13
f 14 15 20
f 14 20 19
f 16 21 17
f 17 21 22
f 19 20 24
f 19 24 23
f 21 25 26
f 21 26 22
f 23 24 27
f 24 28 27
f 25 29 30
f 25 30 26
f 27 28 32
f 27 32 31
f 29 33 30
f 30 33 34
f 30 34 35
f 31 32 37
f 31 37 36
f 33 38 39
f 33 39 40
f 33 40 41
f 33 41 34
f 34 42 43
f 34 43 44
f 34 44 35
f 34 41 40
f 34 40 42
f 35 44 45
f 35 45 46
f 35 46 47
f 35 47 48
f 36 37 49
f 37 50 49
f 38 51 52
f 38 52 53
f 38 53 39
f 39 53 44
f 39 44 43
f 39 43 42
f 39 42 40
f 44 53 54
f 44 54 45
f 45 54 52
f 45 52 46
f 46 52 57
f 46 57 47
f 47 55 56
f 47 56 48
f 47 57 62
f 47 62 55
f 49 58 59
f 49 50 60
f 49 60 58
f 50 56 60
f 51 61 57
f 51 57 52
f 52 54 53
f 55 62 72
f 55 72 63
f 55 63 56
f 56 63 64
f 56 64 60
f 57 61 65
f 57 65 62
f 58 66 59
f 58 60 70
f 58 70 66
f 59 66 67
f 59 67 68
f 60 64 69
f 60 69 70
f 62 65 68
f 62 68 71
f 62 71 72
f 63 72 71
f 63 71 64
f 64 71 67
f 64 67 69
f 66 70 69
f 66 69 67
f 67 71 68

