# https://github.com/mikedh/trimesh
v 0.04533090 -0.00560481 0.01511715
v 0.04533090 -0.00686877 0.01511715
v 0.04533090 -0.00560481 0.01499053
v 0.04403217 -0.00560481 0.01511715
v 0.04533090 -0.00690595 0.01500000
v 0.04506708 -0.00665344 0.01511715
v 0.04412933 -0.00767201 0.01500000
v 0.04418909 -0.00764072 0.01500000
v 0.04430639 -0.00757450 0.01500000
v 0.04440798 -0.00751193 0.01500000
v 0.04533090 -0.00690392 0.01499053
v 0.04385069 -0.00560481 0.01499053
v 0.04384936 -0.00560481 0.01500000
v 0.04343792 -0.00607346 0.01500000
v 0.04339499 -0.00612404 0.01500000
v 0.04334895 -0.00618255 0.01500000
v 0.04329628 -0.00625507 0.01500000
v 0.04323807 -0.00634181 0.01500000
v 0.04317543 -0.00644379 0.01500000
v 0.04310948 -0.00656101 0.01500000
v 0.04307783 -0.00662093 0.01500000
v 0.04424730 -0.00585508 0.01511715
v 0.04533090 -0.00690696 0.01499143
v 0.04478246 -0.00639951 0.01511715
v 0.04381417 -0.00738842 0.01500000
v 0.04381085 -0.00740771 0.01499053
v 0.04411340 -0.00767993 0.01499053
v 0.04412933 -0.00767221 0.01499053
v 0.04418931 -0.00764052 0.01499053
v 0.04430639 -0.00757450 0.01499053
v 0.04440820 -0.00751193 0.01499053
v 0.04532935 -0.00690656 0.01499053
v 0.04343792 -0.00607346 0.01499053
v 0.04384936 -0.00560481 0.01499118
v 0.04339499 -0.00612404 0.01499053
v 0.04334895 -0.00618275 0.01499053
v 0.04329605 -0.00625507 0.01499053
v 0.04323807 -0.00634202 0.01499053
v 0.04317543 -0.00644379 0.01499053
v 0.04310948 -0.00656121 0.01499053
v 0.04307783 -0.00662093 0.01499053
v 0.04307008 -0.00663678 0.01499053
v 0.04333346 -0.00692931 0.01499053
v 0.04336157 -0.00693581 0.01500000
v 0.04450691 -0.00613095 0.01511715
v 0.04450890 -0.00613298 0.01511715
v 0.04358422 -0.00716577 0.01500000
v 0.04380288 -0.00740040 0.01499053
v 0.04334629 -0.00694353 0.01499053
v 0.04334851 -0.00694597 0.01499053
v 0.04357271 -0.00717735 0.01499053
f 1 2 5
f 1 5 23
f 1 23 11
f 1 11 3
f 1 3 12
f 1 12 34
f 1 34 13
f 1 13 4
f 1 4 22
f 1 22 45
f 1 45 46
f 1 46 24
f 1 24 6
f 1 6 2
f 2 6 7
f 2 7 8
f 2 8 9
f 2 9 10
f 2 10 5
f 3 11 32
f 3 32 31
f 3 31 30
f 3 30 29
f 3 29 28
f 3 28 27
f 3 27 26
f 3 26 48
f 3 48 51
f 3 51 50
f 3 50 49
f 3 49 43
f 3 43 42
f 3 42 41
f 3 41 40
f 3 40 39
f 3 39 38
f 3 38 37
f 3 37 36
f 3 36 35
f 3 35 33
f 3 33 12
f 4 13 14
f 4 14 15
f 4 15 16
f 4 16 17
f 4 17 18
f 4 18 19
f 4 19 20
f 4 20 21
f 4 21 22
f 5 10 23
f 6 24 7
f 7 25 26
f 7 26 27
f 7 27 28
f 7 28 8
f 7 24 25
f 8 28 29
f 8 29 30
f 8 30 9
f 9 30 31
f 9 31 10
f 10 31 23
f 11 23 32
f 12 33 34
f 13 34 33
f 13 33 14
f 14 33 35
f 14 35 15
f 15 35 16
f 16 35 36
f 16 36 37
f 16 37 17
f 17 37 18
f 18 37 38
f 18 38 39
f 18 39 19
f 19 39 20
f 20 39 40
f 20 40 41
f 20 41 21
f 21 41 42
f 21 42 43
f 21 43 44
f 21 44 22
f 22 44 45
f 23 31 32
f 24 46 47
f 24 47 25
f 25 47 48
f 25 48 26
f 43 49 44
f 44 49 50
f 44 50 47
f 44 47 45
f 45 47 46
f 47 50 51
f 47 51 48

