# https://github.com/mikedh/trimesh
v 0.04641195 -0.00248651 0.01511715
v 0.04791396 -0.00411724 0.01511715
v 0.04641195 -0.00248651 0.01499053
v 0.04325751 -0.00248651 0.01511715
v 0.04791396 -0.00560481 0.01511715
v 0.04791396 -0.00411724 0.01499053
v 0.04325751 -0.00248651 0.01499053
v 0.04325751 -0.00451561 0.01511715
v 0.04791396 -0.00560481 0.01499053
v 0.04403245 -0.00560481 0.01511715
v 0.04325751 -0.00482882 0.01499053
v 0.04325751 -0.00482882 0.01500000
v 0.04332817 -0.00463406 0.01511715
v 0.04385102 -0.00560481 0.01499053
v 0.04399871 -0.00556543 0.01511715
v 0.04384965 -0.00560481 0.01500000
v 0.04384965 -0.00560358 0.01499053
v 0.04384965 -0.00560481 0.01499118
v 0.04376395 -0.00526840 0.01511715
v 0.04359529 -0.00503518 0.01511715
v 0.04356840 -0.00499794 0.01511715
v 0.04353740 -0.00495337 0.01511715
v 0.04335506 -0.00467527 0.01511715
v 0.04380589 -0.00532182 0.01511715
v 0.04377717 -0.00528550 0.01511715
f 1 2 6
f 1 6 3
f 1 3 7
f 1 7 4
f 1 4 8
f 1 8 13
f 1 13 23
f 1 23 22
f 1 22 21
f 1 21 20
f 1 20 19
f 1 19 25
f 1 25 24
f 1 24 15
f 1 15 10
f 1 10 5
f 1 5 2
f 2 5 9
f 2 9 6
f 3 6 9
f 3 9 14
f 3 14 17
f 3 17 11
f 3 11 7
f 4 7 11
f 4 11 12
f 4 12 8
f 5 10 16
f 5 16 18
f 5 18 14
f 5 14 9
f 8 12 13
f 10 15 16
f 11 17 18
f 11 18 16
f 11 16 12
f 12 16 19
f 12 19 20
f 12 20 21
f 12 21 22
f 12 22 23
f 12 23 13
f 14 18 17
f 15 24 16
f 16 24 25
f 16 25 19

