# https://github.com/mikedh/trimesh
v 0.05938615 -0.00035900 0.01499053
v 0.05573612 -0.00035900 0.01499053
v 0.05938615 -0.00227089 0.01499053
v 0.05938615 -0.00035900 0.00500000
v 0.05545768 -0.00168401 0.01499053
v 0.05573612 -0.00035900 0.00500000
v 0.05918155 -0.00241892 0.01499053
v 0.05938615 -0.00227089 0.01470987
v 0.05938615 -0.00227069 0.00500000
v 0.05545768 -0.00241892 0.01499053
v 0.05545768 -0.00168401 0.00500000
v 0.05918155 -0.00241892 0.00500000
v 0.05545768 -0.00241892 0.00500000
f 1 2 5
f 1 5 10
f 1 10 7
f 1 7 3
f 1 3 8
f 1 8 9
f 1 9 4
f 1 4 6
f 1 6 2
f 2 6 11
f 2 11 5
f 3 7 12
f 3 12 8
f 4 9 12
f 4 12 13
f 4 13 11
f 4 11 6
f 5 11 13
f 5 13 10
f 7 10 13
f 7 13 12
f 8 12 9

