# https://github.com/mikedh/trimesh
v 0.04791416 0.00746296 0.01511715
v 0.04791416 0.00525704 0.01511715
v 0.04791416 0.00746296 0.01499053
v 0.04618471 0.00746296 0.01511715
v 0.04791416 0.00525704 0.01499053
v 0.04529576 0.00525704 0.01511715
v 0.04591915 0.00746296 0.01499053
v 0.04591915 0.00746296 0.01500000
v 0.04611345 0.00742041 0.01511715
v 0.04529576 0.00525704 0.01499053
v 0.04529576 0.00683973 0.01511715
v 0.04529679 0.00689911 0.01499053
v 0.04529576 0.00689890 0.01499102
v 0.04529679 0.00689911 0.01500000
v 0.04546212 0.00697124 0.01511715
v 0.04548416 0.00698787 0.01511715
v 0.04575203 0.00718201 0.01511715
v 0.04578894 0.00720749 0.01511715
v 0.04579663 0.00721267 0.01511715
v 0.04529576 0.00688508 0.01499053
v 0.04529576 0.00689804 0.01500000
f 1 2 5
f 1 5 3
f 1 3 7
f 1 7 8
f 1 8 4
f 1 4 9
f 1 9 19
f 1 19 18
f 1 18 17
f 1 17 16
f 1 16 15
f 1 15 11
f 1 11 6
f 1 6 2
f 2 6 10
f 2 10 5
f 3 5 10
f 3 10 20
f 3 20 12
f 3 12 7
f 4 8 9
f 6 11 21
f 6 21 13
f 6 13 20
f 6 20 10
f 7 12 13
f 7 13 8
f 8 13 14
f 8 14 11
f 8 11 15
f 8 15 16
f 8 16 17
f 8 17 18
f 8 18 19
f 8 19 9
f 11 14 21
f 12 20 13
f 13 21 14

