# https://github.com/mikedh/trimesh
v 0.05902060 0.00314693 0.01499053
v 0.05963739 0.00355152 0.01499053
v 0.05902060 0.00314693 0.01500000
v 0.05902060 0.00516123 0.01499053
v 0.05963739 0.00355152 0.01500000
v 0.05969949 0.00359297 0.01499053
v 0.05902060 0.00516123 0.01500000
v 0.05910275 0.00518432 0.01499053
v 0.05969938 0.00359297 0.01500000
v 0.05977198 0.00364576 0.01499053
v 0.05977188 0.00364555 0.01500000
v 0.05910286 0.00518432 0.01500000
v 0.05921898 0.00521257 0.01499053
v 0.05985392 0.00371030 0.01499053
v 0.05985392 0.00371030 0.01500000
v 0.05921909 0.00521257 0.01500000
v 0.05935102 0.00523897 0.01499053
v 0.05994510 0.00378784 0.01499053
v 0.05994499 0.00378763 0.01500000
v 0.05935113 0.00523897 0.01500000
v 0.05941768 0.00525052 0.01500000
v 0.05941778 0.00525052 0.01499053
v 0.06004413 0.00387899 0.01499053
v 0.06004402 0.00387899 0.01500000
v 0.05943349 0.00525299 0.01499149
v 0.05943339 0.00525299 0.01499149
v 0.05962954 0.00488325 0.01500000
v 0.05943519 0.00525320 0.01499053
v 0.06009243 0.00392621 0.01499053
v 0.06009243 0.00392621 0.01500000
v 0.05943540 0.00525299 0.01499053
v 0.05963198 0.00491212 0.01499053
v 0.05977931 0.00460053 0.01500000
v 0.05964323 0.00489253 0.01499053
v 0.06010495 0.00393879 0.01499053
v 0.05992005 0.00431327 0.01500000
v 0.05993491 0.00432028 0.01499053
v 0.05979385 0.00460795 0.01499053
v 0.05979077 0.00461393 0.01499053
v 0.05996962 0.00424254 0.01499053
v 0.05994478 0.00429822 0.01499053
v 0.05993703 0.00431554 0.01499053
f 1 2 5
f 1 5 3
f 1 3 7
f 1 7 4
f 1 4 8
f 1 8 13
f 1 13 17
f 1 17 22
f 1 22 28
f 1 28 31
f 1 31 32
f 1 32 34
f 1 34 39
f 1 39 38
f 1 38 37
f 1 37 42
f 1 42 41
f 1 41 40
f 1 40 35
f 1 35 29
f 1 29 23
f 1 23 18
f 1 18 14
f 1 14 10
f 1 10 6
f 1 6 2
f 2 6 5
f 3 5 9
f 3 9 11
f 3 11 15
f 3 15 19
f 3 19 24
f 3 24 30
f 3 30 36
f 3 36 33
f 3 33 27
f 3 27 21
f 3 21 20
f 3 20 16
f 3 16 12
f 3 12 7
f 4 7 8
f 5 6 9
f 6 10 11
f 6 11 9
f 7 12 8
f 8 12 16
f 8 16 13
f 10 14 11
f 11 14 15
f 13 16 20
f 13 20 17
f 14 18 19
f 14 19 15
f 17 21 22
f 17 20 21
f 18 23 19
f 19 23 24
f 21 25 26
f 21 26 22
f 21 27 25
f 22 26 28
f 23 29 30
f 23 30 24
f 25 31 28
f 25 28 26
f 25 27 32
f 25 32 31
f 27 33 34
f 27 34 32
f 29 35 30
f 30 35 36
f 33 37 38
f 33 38 39
f 33 39 34
f 33 36 37
f 35 40 36
f 36 40 41
f 36 41 42
f 36 42 37

