# https://github.com/mikedh/trimesh
v 0.05379348 -0.00820166 0.01590809
v 0.05400622 -0.00812093 0.01590809
v 0.05379348 -0.00820166 0.03000000
v 0.05379348 -0.00396732 0.01590809
v 0.05402785 -0.00811271 0.01590809
v 0.05402785 -0.00811271 0.03000000
v 0.05379348 -0.00396732 0.03000000
v 0.05379384 -0.00396684 0.01590809
v 0.05435731 -0.00797107 0.01590809
v 0.05437857 -0.00796188 0.03000000
v 0.05379384 -0.00396684 0.03000000
v 0.05453721 -0.00326297 0.01590809
v 0.05437857 -0.00796188 0.01590809
v 0.05453721 -0.00788550 0.03000000
v 0.05453721 -0.00326297 0.03000000
v 0.05453721 -0.00788550 0.01590809
f 1 2 3
f 1 3 7
f 1 7 4
f 1 4 8
f 1 8 12
f 1 12 16
f 1 16 13
f 1 13 9
f 1 9 5
f 1 5 2
f 2 5 6
f 2 6 3
f 3 6 10
f 3 10 14
f 3 14 15
f 3 15 11
f 3 11 7
f 4 7 11
f 4 11 8
f 5 9 6
f 6 9 10
f 8 11 15
f 8 15 12
f 9 13 10
f 10 13 16
f 10 16 14
f 12 15 14
f 12 14 16

