# https://github.com/mikedh/trimesh
v 0.04606801 -0.00995384 0.00550070
v 0.04575613 -0.00980098 0.00550070
v 0.04614950 -0.00902921 0.00500000
v 0.04643682 -0.00916997 0.00500000
v 0.04618165 -0.00987683 0.00543225
v 0.04606801 -0.00995384 0.01449961
v 0.04544939 -0.00963834 0.00550070
v 0.04586664 -0.00887960 0.00500000
v 0.04575613 -0.00980098 0.01449961
v 0.04682394 -0.00934262 0.00500000
v 0.04676522 -0.00940032 0.00504401
v 0.04635310 -0.00975211 0.00532565
v 0.04618165 -0.00987683 0.01456709
v 0.04635310 -0.00975211 0.01467368
v 0.04643972 -0.00918952 0.01499053
v 0.04643102 -0.00918556 0.01499053
v 0.04614794 -0.00904689 0.01499053
v 0.04544470 -0.00950130 0.00543225
v 0.04544939 -0.00963834 0.01449961
v 0.04544492 -0.00928933 0.00532565
v 0.04548712 -0.00874907 0.00504401
v 0.04549940 -0.00866764 0.00500000
v 0.04614191 -0.00904387 0.01499053
v 0.04585861 -0.00889403 0.01499053
v 0.04687127 -0.00929422 0.00500000
v 0.04682394 -0.00934262 0.01499053
v 0.04681143 -0.00935495 0.01499053
v 0.04664400 -0.00951293 0.00513202
v 0.04650715 -0.00963043 0.00522590
v 0.04676522 -0.00940032 0.01495533
v 0.04650715 -0.00963043 0.01477441
v 0.04664400 -0.00951293 0.01486829
v 0.04544470 -0.00950130 0.01456709
v 0.04544492 -0.00928933 0.01467368
v 0.04545274 -0.00909319 0.00522590
v 0.04546725 -0.00891311 0.00513202
v 0.04548712 -0.00874907 0.01495533
v 0.04549672 -0.00868532 0.01499053
v 0.04549940 -0.00866764 0.01499053
v 0.04551078 -0.00860110 0.00500000
v 0.04545274 -0.00909319 0.01477441
v 0.04696235 -0.00919510 0.00500000
v 0.04687127 -0.00929399 0.01499053
v 0.04546725 -0.00891311 0.01486829
v 0.04551078 -0.00860110 0.01499053
v 0.04553735 -0.00846894 0.00500000
v 0.04703982 -0.00910390 0.00500000
v 0.04704004 -0.00910390 0.01499053
v 0.04696235 -0.00919487 0.01499053
v 0.04553735 -0.00846917 0.01499053
v 0.04556548 -0.00835284 0.00500000
v 0.04556548 -0.00835284 0.01499053
v 0.04772520 -0.00824395 0.00500000
v 0.04772520 -0.00824395 0.01499053
v 0.04559383 -0.00825232 0.00500000
v 0.04559383 -0.00825232 0.01499053
v 0.04772520 -0.00757688 0.00500000
v 0.04772520 -0.00757688 0.01499053
v 0.04562151 -0.00816717 0.00500000
v 0.04562151 -0.00816717 0.01499053
v 0.04591620 -0.00757688 0.00500000
v 0.04591531 -0.00757688 0.01499053
v 0.04564741 -0.00809713 0.00500000
v 0.04564719 -0.00809713 0.01499053
v 0.04591486 -0.00757898 0.00500000
v 0.04591531 -0.00757688 0.01374465
v 0.04570858 -0.00796102 0.01499053
v 0.04567264 -0.00803571 0.00500000
v 0.04567264 -0.00803571 0.01499053
v 0.04570858 -0.00796102 0.00500000
v 0.04569139 -0.00799476 0.01499053
v 0.04569161 -0.00799476 0.00500000
f 1 2 3
f 1 3 4
f 1 4 5
f 1 5 13
f 1 13 6
f 1 6 9
f 1 9 2
f 2 7 8
f 2 8 3
f 2 9 19
f 2 19 7
f 3 8 22
f 3 22 40
f 3 40 46
f 3 46 51
f 3 51 55
f 3 55 59
f 3 59 63
f 3 63 68
f 3 68 72
f 3 72 70
f 3 70 65
f 3 65 61
f 3 61 57
f 3 57 53
f 3 53 47
f 3 47 42
f 3 42 25
f 3 25 10
f 3 10 4
f 4 10 11
f 4 11 12
f 4 12 5
f 5 12 14
f 5 14 13
f 6 13 14
f 6 14 15
f 6 15 16
f 6 16 17
f 6 17 9
f 7 18 8
f 7 19 33
f 7 33 18
f 8 18 20
f 8 20 21
f 8 21 22
f 9 17 23
f 9 23 24
f 9 24 19
f 10 25 26
f 10 26 27
f 10 27 11
f 11 28 29
f 11 29 12
f 11 27 30
f 11 30 32
f 11 32 28
f 12 29 31
f 12 31 14
f 14 31 15
f 15 27 26
f 15 26 43
f 15 43 49
f 15 49 48
f 15 48 54
f 15 54 58
f 15 58 62
f 15 62 67
f 15 67 71
f 15 71 69
f 15 69 64
f 15 64 60
f 15 60 56
f 15 56 52
f 15 52 50
f 15 50 45
f 15 45 39
f 15 39 38
f 15 38 24
f 15 24 23
f 15 23 17
f 15 17 16
f 15 31 32
f 15 32 27
f 18 33 34
f 18 34 20
f 19 24 34
f 19 34 33
f 20 35 21
f 20 34 41
f 20 41 35
f 21 35 36
f 21 36 44
f 21 44 37
f 21 37 38
f 21 38 22
f 22 38 39
f 22 39 45
f 22 45 40
f 24 38 41
f 24 41 34
f 25 42 49
f 25 49 43
f 25 43 26
f 27 32 30
f 28 32 31
f 28 31 29
f 35 41 44
f 35 44 36
f 37 44 38
f 38 44 41
f 40 45 46
f 42 47 48
f 42 48 49
f 45 50 46
f 46 50 52
f 46 52 51
f 47 53 48
f 48 53 54
f 51 52 56
f 51 56 55
f 53 57 58
f 53 58 54
f 55 56 60
f 55 60 59
f 57 61 66
f 57 66 62
f 57 62 58
f 59 60 64
f 59 64 63
f 61 65 66
f 62 66 70
f 62 70 67
f 63 64 68
f 64 69 68
f 65 70 66
f 67 70 71
f 68 69 71
f 68 71 72
f 70 72 71

