# https://github.com/mikedh/trimesh
v 0.04757770 0.00828162 0.01500000
v 0.04791441 0.00827713 0.01511715
v 0.04757770 0.00828162 0.01499053
v 0.04558569 0.00828162 0.01500000
v 0.04787999 0.00826591 0.01511715
v 0.04791441 0.00746296 0.01511715
v 0.04791441 0.00827713 0.01499053
v 0.04558569 0.00828162 0.01499053
v 0.04559390 0.00825213 0.01499053
v 0.04559390 0.00825221 0.01500000
v 0.04618480 0.00746296 0.01511715
v 0.04640160 0.00759197 0.01511715
v 0.04644149 0.00761561 0.01511715
v 0.04644400 0.00761706 0.01511715
v 0.04677752 0.00779632 0.01511715
v 0.04678026 0.00779768 0.01511715
v 0.04707959 0.00794201 0.01511715
v 0.04712130 0.00796212 0.01511715
v 0.04712404 0.00796332 0.01511715
v 0.04742952 0.00809458 0.01511715
v 0.04747215 0.00811285 0.01511715
v 0.04747489 0.00811390 0.01511715
v 0.04778584 0.00823170 0.01511715
v 0.04782915 0.00824804 0.01511715
v 0.04787133 0.00826295 0.01511715
v 0.04791441 0.00746296 0.01499053
v 0.04562171 0.00816687 0.01499053
v 0.04562171 0.00816695 0.01500000
v 0.04564724 0.00809699 0.01500000
v 0.04567278 0.00803560 0.01500000
v 0.04591899 0.00746296 0.01500000
v 0.04591899 0.00746296 0.01499053
v 0.04564724 0.00809699 0.01499053
v 0.04567278 0.00803552 0.01499053
f 1 2 7
f 1 7 3
f 1 3 8
f 1 8 4
f 1 4 2
f 2 5 25
f 2 25 24
f 2 24 23
f 2 23 22
f 2 22 21
f 2 21 20
f 2 20 19
f 2 19 18
f 2 18 17
f 2 17 16
f 2 16 15
f 2 15 14
f 2 14 13
f 2 13 12
f 2 12 11
f 2 11 6
f 2 6 26
f 2 26 7
f 2 4 5
f 3 7 26
f 3 26 32
f 3 32 34
f 3 34 33
f 3 33 27
f 3 27 9
f 3 9 8
f 4 8 9
f 4 9 10
f 4 10 11
f 4 11 12
f 4 12 13
f 4 13 14
f 4 14 15
f 4 15 16
f 4 16 17
f 4 17 18
f 4 18 19
f 4 19 20
f 4 20 21
f 4 21 22
f 4 22 23
f 4 23 24
f 4 24 25
f 4 25 5
f 6 11 31
f 6 31 32
f 6 32 26
f 9 27 28
f 9 28 10
f 10 28 11
f 11 28 29
f 11 29 30
f 11 30 31
f 27 29 28
f 27 33 29
f 29 33 34
f 29 34 30
f 30 34 31
f 31 34 32

