# https://github.com/mikedh/trimesh
v 0.05827852 -0.00801986 0.00550070
v 0.05814694 -0.00798151 0.00543225
v 0.05768582 -0.00738823 0.00500000
v 0.05791568 -0.00716565 0.00500000
v 0.05852808 -0.00777798 0.00550070
v 0.05827852 -0.00801986 0.01449961
v 0.05794523 -0.00791609 0.00532565
v 0.05814694 -0.00798151 0.01456709
v 0.05737083 -0.00767196 0.00500000
v 0.05744471 -0.00770906 0.00504401
v 0.05813850 -0.00693581 0.00500000
v 0.05876990 -0.00752859 0.00550070
v 0.05852808 -0.00777798 0.01449961
v 0.05770177 -0.00739575 0.01499053
v 0.05768911 -0.00740778 0.01499053
v 0.05776135 -0.00784791 0.01477441
v 0.05794523 -0.00791609 0.01467368
v 0.05776135 -0.00784791 0.00522590
v 0.05731102 -0.00764063 0.00500000
v 0.05738678 -0.00767998 0.01499053
v 0.05737083 -0.00767196 0.01499053
v 0.05759435 -0.00777849 0.00513202
v 0.05744471 -0.00770906 0.01495533
v 0.05842207 -0.00662099 0.00500000
v 0.05845889 -0.00669468 0.00504401
v 0.05866600 -0.00719523 0.00532565
v 0.05873167 -0.00739700 0.00543225
v 0.05876990 -0.00752859 0.01449961
v 0.05793186 -0.00717267 0.01499053
v 0.05763399 -0.00745740 0.01499053
v 0.05759435 -0.00777849 0.01486829
v 0.05719374 -0.00757446 0.00500000
v 0.05731125 -0.00764063 0.01499053
v 0.05719374 -0.00757471 0.01499053
v 0.05839064 -0.00656109 0.00500000
v 0.05842207 -0.00662099 0.01499053
v 0.05843004 -0.00663678 0.01499053
v 0.05852855 -0.00684432 0.00513202
v 0.05859798 -0.00701125 0.00522590
v 0.05845889 -0.00669468 0.01495533
v 0.05866600 -0.00719523 0.01467368
v 0.05873167 -0.00739700 0.01456709
v 0.05859798 -0.00701125 0.01477441
v 0.05815773 -0.00693906 0.01499053
v 0.05815023 -0.00694708 0.01499053
v 0.05709195 -0.00751180 0.00500000
v 0.05709195 -0.00751205 0.01499053
v 0.05832450 -0.00644378 0.00500000
v 0.05839064 -0.00656109 0.01499053
v 0.05820746 -0.00688392 0.01499053
v 0.05852855 -0.00684432 0.01486829
v 0.05700517 -0.00745365 0.00500000
v 0.05700517 -0.00745390 0.01499053
v 0.05826187 -0.00634202 0.00500000
v 0.05826187 -0.00634177 0.01499053
v 0.05832450 -0.00644378 0.01499053
v 0.05693269 -0.00740101 0.00500000
v 0.05693269 -0.00740101 0.01499053
v 0.05820370 -0.00625504 0.00500000
v 0.05820370 -0.00625504 0.01499053
v 0.05687406 -0.00735489 0.00500000
v 0.05687406 -0.00735514 0.01499053
v 0.05764806 -0.00545948 0.00500000
v 0.05764806 -0.00545948 0.01499053
v 0.05682340 -0.00731203 0.00500000
v 0.05682340 -0.00731203 0.01499053
v 0.05637400 -0.00545948 0.00500000
v 0.05637400 -0.00545948 0.01499053
v 0.05637400 -0.00690498 0.00500000
v 0.05637400 -0.00690498 0.01499053
f 1 2 3
f 1 3 4
f 1 4 5
f 1 5 13
f 1 13 6
f 1 6 8
f 1 8 2
f 2 7 3
f 2 8 17
f 2 17 7
f 3 9 19
f 3 19 32
f 3 32 46
f 3 46 52
f 3 52 57
f 3 57 61
f 3 61 65
f 3 65 69
f 3 69 67
f 3 67 63
f 3 63 59
f 3 59 54
f 3 54 48
f 3 48 35
f 3 35 24
f 3 24 11
f 3 11 4
f 3 7 10
f 3 10 9
f 4 11 12
f 4 12 5
f 5 12 28
f 5 28 13
f 6 13 14
f 6 14 15
f 6 15 16
f 6 16 17
f 6 17 8
f 7 18 10
f 7 17 16
f 7 16 18
f 9 10 20
f 9 20 21
f 9 21 19
f 10 18 22
f 10 22 31
f 10 31 23
f 10 23 20
f 11 24 25
f 11 25 26
f 11 26 27
f 11 27 12
f 12 27 42
f 12 42 28
f 13 28 29
f 13 29 14
f 14 29 45
f 14 45 44
f 14 44 50
f 14 50 37
f 14 37 36
f 14 36 49
f 14 49 56
f 14 56 55
f 14 55 60
f 14 60 64
f 14 64 68
f 14 68 70
f 14 70 66
f 14 66 62
f 14 62 58
f 14 58 53
f 14 53 47
f 14 47 34
f 14 34 33
f 14 33 21
f 14 21 20
f 14 20 30
f 14 30 15
f 15 30 16
f 16 30 20
f 16 20 31
f 16 31 22
f 16 22 18
f 19 21 33
f 19 33 34
f 19 34 32
f 20 23 31
f 24 35 49
f 24 49 36
f 24 36 37
f 24 37 25
f 25 38 39
f 25 39 26
f 25 37 40
f 25 40 51
f 25 51 38
f 26 39 43
f 26 43 41
f 26 41 42
f 26 42 27
f 28 42 41
f 28 41 43
f 28 43 44
f 28 44 45
f 28 45 29
f 32 34 47
f 32 47 46
f 35 48 56
f 35 56 49
f 37 50 43
f 37 43 51
f 37 51 40
f 38 51 43
f 38 43 39
f 43 50 44
f 46 47 53
f 46 53 52
f 48 54 55
f 48 55 56
f 52 53 57
f 53 58 57
f 54 59 55
f 55 59 60
f 57 58 62
f 57 62 61
f 59 63 64
f 59 64 60
f 61 62 65
f 62 66 65
f 63 67 68
f 63 68 64
f 65 66 70
f 65 70 69
f 67 69 70
f 67 70 68

