# https://github.com/mikedh/trimesh
v 0.04166742 -0.00232432 0.00500000
v 0.04211950 -0.00227293 0.00500000
v 0.04166742 -0.00232432 0.01499053
v 0.04166742 -0.00057737 0.00500000
v 0.04211950 -0.00000111 0.00500000
v 0.04211950 -0.00227293 0.01499053
v 0.04166742 -0.00057691 0.01499053
v 0.04166742 -0.00057691 0.01311193
v 0.04200072 -0.00000111 0.00500000
v 0.04211950 -0.00000111 0.01499053
v 0.04200072 -0.00000111 0.01499053
f 1 2 6
f 1 6 3
f 1 3 7
f 1 7 8
f 1 8 4
f 1 4 9
f 1 9 5
f 1 5 2
f 2 5 10
f 2 10 6
f 3 6 10
f 3 10 11
f 3 11 7
f 4 8 9
f 5 9 11
f 5 11 10
f 7 11 9
f 7 9 8

