# https://github.com/mikedh/trimesh
v 0.05895108 0.00304498 0.03000000
v 0.05886290 0.00327789 0.03000000
v 0.05471589 0.00304498 0.03000000
v 0.05895108 0.00304498 0.01590809
v 0.05871173 0.00362856 0.03000000
v 0.05886290 0.00327789 0.01590809
v 0.05872130 0.00360727 0.01590809
v 0.05380335 0.00395901 0.03000000
v 0.05471589 0.00304498 0.01590809
v 0.05871173 0.00362856 0.01590809
v 0.05855250 0.00395901 0.03000000
v 0.05380335 0.00395901 0.01590809
v 0.05855250 0.00395901 0.01590809
f 1 2 5
f 1 5 11
f 1 11 8
f 1 8 3
f 1 3 9
f 1 9 4
f 1 4 6
f 1 6 2
f 2 6 7
f 2 7 5
f 3 8 12
f 3 12 9
f 4 9 12
f 4 12 13
f 4 13 10
f 4 10 7
f 4 7 6
f 5 7 10
f 5 10 13
f 5 13 11
f 8 11 13
f 8 13 12

