# https://github.com/mikedh/trimesh
v 0.05212692 -0.01091332 0.00550070
v 0.05204295 -0.01080516 0.00543225
v 0.05201860 -0.01005414 0.00500000
v 0.05247066 -0.01086452 0.00550070
v 0.05212692 -0.01091332 0.01449961
v 0.05191828 -0.01063354 0.00532565
v 0.05204295 -0.01080516 0.01456709
v 0.05159681 -0.01009847 0.00500000
v 0.05233521 -0.01000909 0.00500000
v 0.05163471 -0.01017159 0.00504401
v 0.05265043 -0.00995420 0.00500000
v 0.05281282 -0.01080463 0.00550070
v 0.05247066 -0.01086452 0.01449961
v 0.05202712 -0.01006951 0.01499053
v 0.05201565 -0.01007112 0.01499053
v 0.05191828 -0.01063354 0.01467368
v 0.05180944 -0.01047032 0.00522590
v 0.05159681 -0.01009847 0.01499053
v 0.05156690 -0.01003787 0.00500000
v 0.05171521 -0.01031604 0.00513202
v 0.05163471 -0.01017159 0.01495533
v 0.05306528 -0.00986607 0.00500000
v 0.05305189 -0.00994741 0.00504401
v 0.05292479 -0.01047408 0.00532565
v 0.05285942 -0.01067573 0.00543225
v 0.05281282 -0.01080463 0.01449961
v 0.05265495 -0.00997011 0.01499053
v 0.05233782 -0.01002535 0.01499053
v 0.05193602 -0.01007952 0.01499053
v 0.05180944 -0.01047032 0.01477441
v 0.05160498 -0.01011420 0.01499053
v 0.05156690 -0.01003787 0.01499053
v 0.05151074 -0.00991559 0.00500000
v 0.05171521 -0.01031604 0.01486829
v 0.05307484 -0.00979921 0.00500000
v 0.05307501 -0.00979903 0.01499053
v 0.05306528 -0.00986607 0.01499053
v 0.05301990 -0.01010938 0.00513202
v 0.05297800 -0.01028529 0.00522590
v 0.05305189 -0.00994741 0.01495533
v 0.05292479 -0.01047408 0.01467368
v 0.05285942 -0.01067573 0.01456709
v 0.05297800 -0.01028529 0.01477441
v 0.05265843 -0.00996940 0.01499053
v 0.05151092 -0.00991577 0.01499053
v 0.05146519 -0.00980510 0.00500000
v 0.05146519 -0.00980510 0.01499053
v 0.05309049 -0.00966530 0.00500000
v 0.05309049 -0.00966530 0.01499053
v 0.05306232 -0.00988359 0.01499053
v 0.05301990 -0.01010938 0.01486829
v 0.05273684 -0.00995277 0.01499053
v 0.05267703 -0.00996547 0.01499053
v 0.05142920 -0.00970696 0.00500000
v 0.05142920 -0.00970714 0.01499053
v 0.05309970 -0.00954624 0.00500000
v 0.05309970 -0.00954606 0.01499053
v 0.05140156 -0.00962168 0.00500000
v 0.05140156 -0.00962186 0.01499053
v 0.05310353 -0.00944184 0.00500000
v 0.05310353 -0.00944166 0.01499053
v 0.05138121 -0.00955000 0.00500000
v 0.05138121 -0.00955017 0.01499053
v 0.05310353 -0.00935209 0.00500000
v 0.05310353 -0.00935209 0.01499053
v 0.05136557 -0.00948546 0.00500000
v 0.05136557 -0.00948564 0.01499053
v 0.05310074 -0.00927772 0.00500000
v 0.05310074 -0.00927754 0.01499053
v 0.05135670 -0.00944112 0.00500000
v 0.05135670 -0.00944130 0.01499053
v 0.05309570 -0.00921140 0.00500000
v 0.05309570 -0.00921140 0.01499053
v 0.05135061 -0.00940394 0.00500000
v 0.05135061 -0.00940394 0.01499053
v 0.05309049 -0.00916653 0.00500000
v 0.05309049 -0.00916653 0.01499053
v 0.05134801 -0.00938356 0.00500000
v 0.05134801 -0.00938356 0.01499053
v 0.05308475 -0.00912934 0.00500000
v 0.05308475 -0.00912934 0.01499053
v 0.05132749 -0.00908715 0.00500000
v 0.05132749 -0.00908715 0.01499053
v 0.05308075 -0.00910896 0.00500000
v 0.05308075 -0.00910896 0.01499053
v 0.05307536 -0.00908715 0.00500000
v 0.05307536 -0.00908715 0.01499053
f 1 2 3
f 1 3 4
f 1 4 13
f 1 13 5
f 1 5 7
f 1 7 2
f 2 6 3
f 2 7 16
f 2 16 6
f 3 8 19
f 3 19 33
f 3 33 46
f 3 46 54
f 3 54 58
f 3 58 62
f 3 62 66
f 3 66 70
f 3 70 74
f 3 74 78
f 3 78 82
f 3 82 86
f 3 86 84
f 3 84 80
f 3 80 76
f 3 76 72
f 3 72 68
f 3 68 64
f 3 64 60
f 3 60 56
f 3 56 48
f 3 48 35
f 3 35 22
f 3 22 11
f 3 11 9
f 3 9 4
f 3 6 10
f 3 10 8
f 4 9 11
f 4 11 12
f 4 12 26
f 4 26 13
f 5 13 14
f 5 14 15
f 5 15 16
f 5 16 7
f 6 17 10
f 6 16 30
f 6 30 17
f 8 10 21
f 8 21 18
f 8 18 32
f 8 32 19
f 10 17 20
f 10 20 34
f 10 34 21
f 11 22 23
f 11 23 24
f 11 24 25
f 11 25 12
f 12 25 42
f 12 42 26
f 13 26 27
f 13 27 28
f 13 28 14
f 14 28 27
f 14 27 44
f 14 44 53
f 14 53 52
f 14 52 50
f 14 50 37
f 14 37 36
f 14 36 49
f 14 49 57
f 14 57 61
f 14 61 65
f 14 65 69
f 14 69 73
f 14 73 77
f 14 77 81
f 14 81 85
f 14 85 87
f 14 87 83
f 14 83 79
f 14 79 75
f 14 75 71
f 14 71 67
f 14 67 63
f 14 63 59
f 14 59 55
f 14 55 47
f 14 47 45
f 14 45 32
f 14 32 18
f 14 18 31
f 14 31 29
f 14 29 15
f 15 29 30
f 15 30 16
f 17 30 34
f 17 34 20
f 18 21 31
f 19 32 33
f 21 34 31
f 22 35 36
f 22 36 37
f 22 37 40
f 22 40 23
f 23 38 39
f 23 39 24
f 23 40 51
f 23 51 38
f 24 39 43
f 24 43 41
f 24 41 42
f 24 42 25
f 26 42 41
f 26 41 43
f 26 43 44
f 26 44 27
f 29 31 30
f 30 31 34
f 32 45 33
f 33 45 47
f 33 47 46
f 35 48 36
f 36 48 49
f 37 50 40
f 38 51 43
f 38 43 39
f 40 50 51
f 43 51 50
f 43 50 52
f 43 52 53
f 43 53 44
f 46 47 55
f 46 55 54
f 48 56 49
f 49 56 57
f 54 55 59
f 54 59 58
f 56 60 61
f 56 61 57
f 58 59 63
f 58 63 62
f 60 64 65
f 60 65 61
f 62 63 67
f 62 67 66
f 64 68 69
f 64 69 65
f 66 67 71
f 66 71 70
f 68 72 69
f 69 72 73
f 70 71 74
f 71 75 74
f 72 76 77
f 72 77 73
f 74 75 79
f 74 79 78
f 76 80 81
f 76 81 77
f 78 79 83
f 78 83 82
f 80 84 85
f 80 85 81
f 82 83 87
f 82 87 86
f 84 86 87
f 84 87 85

