# https://github.com/mikedh/trimesh
v 0.04791453 -0.00827709 0.01499053
v 0.04843661 -0.00854401 0.01499053
v 0.04791453 -0.00827709 0.01511715
v 0.04791453 -0.00411735 0.01499053
v 0.04908586 -0.00854401 0.01499053
v 0.04843661 -0.00854401 0.01500000
v 0.04804617 -0.00832172 0.01511715
v 0.04791453 -0.00411735 0.01511715
v 0.04908586 -0.00471445 0.01499053
v 0.04908586 -0.00854401 0.01511715
v 0.04886948 -0.00854401 0.01511715
v 0.04877878 -0.00852494 0.01511715
v 0.04845656 -0.00844305 0.01511715
v 0.04841173 -0.00843135 0.01511715
v 0.04824099 -0.00838195 0.01511715
v 0.04821714 -0.00837502 0.01511715
v 0.04908586 -0.00471445 0.01511715
f 1 2 6
f 1 6 3
f 1 3 8
f 1 8 4
f 1 4 9
f 1 9 5
f 1 5 2
f 2 5 10
f 2 10 11
f 2 11 6
f 3 6 7
f 3 7 16
f 3 16 15
f 3 15 14
f 3 14 13
f 3 13 12
f 3 12 11
f 3 11 10
f 3 10 17
f 3 17 8
f 4 8 17
f 4 17 9
f 5 9 17
f 5 17 10
f 6 11 12
f 6 12 13
f 6 13 14
f 6 14 15
f 6 15 16
f 6 16 7

