# https://github.com/mikedh/trimesh
v 0.04602773 0.00164123 0.01511715
v 0.04574986 0.00000000 0.01511715
v 0.04574986 -0.00000064 0.01511654
v 0.04602773 0.00164123 0.01499053
v 0.04215649 0.00164123 0.01511715
v 0.04573598 -0.00000064 0.01511715
v 0.04574986 -0.00000064 0.01499053
v 0.04197851 0.00164123 0.01499053
v 0.04214658 0.00159447 0.01511715
v 0.04197851 0.00164123 0.01500000
v 0.04200111 -0.00000064 0.01511715
v 0.04200111 -0.00000064 0.01499053
v 0.04197851 0.00031951 0.01499053
v 0.04208593 0.00122064 0.01511715
v 0.04197851 0.00031951 0.01500000
v 0.04200031 0.00007650 0.01511715
v 0.04200190 0.00017984 0.01511715
v 0.04201220 0.00045804 0.01511715
v 0.04204035 0.00083862 0.01511715
v 0.04207999 0.00117178 0.01511715
v 0.04208554 0.00121775 0.01511715
f 1 2 3
f 1 3 7
f 1 7 4
f 1 4 8
f 1 8 10
f 1 10 5
f 1 5 9
f 1 9 14
f 1 14 21
f 1 21 20
f 1 20 19
f 1 19 18
f 1 18 17
f 1 17 16
f 1 16 11
f 1 11 6
f 1 6 2
f 2 6 3
f 3 6 11
f 3 11 12
f 3 12 7
f 4 7 12
f 4 12 13
f 4 13 8
f 5 10 9
f 8 13 15
f 8 15 10
f 9 10 14
f 10 15 16
f 10 16 17
f 10 17 18
f 10 18 19
f 10 19 20
f 10 20 21
f 10 21 14
f 11 16 15
f 11 15 13
f 11 13 12

