# https://github.com/mikedh/trimesh
v 0.05767902 0.00569059 0.01500000
v 0.05769444 0.00532187 0.01511715
v 0.05772309 0.00528560 0.01511715
v 0.05773804 0.00526590 0.01511715
v 0.05774733 0.00525314 0.01511715
v 0.05767902 0.00569059 0.01499053
v 0.05739398 0.00569059 0.01511715
v 0.05750164 0.00556567 0.01511715
v 0.05774733 0.00525314 0.01499053
v 0.05613956 0.00525314 0.01511715
v 0.05613956 0.00569059 0.01499053
v 0.05613956 0.00569059 0.01511715
v 0.05613956 0.00525314 0.01499053
f 1 2 3
f 1 3 4
f 1 4 5
f 1 5 9
f 1 9 6
f 1 6 11
f 1 11 12
f 1 12 7
f 1 7 8
f 1 8 2
f 2 8 7
f 2 7 12
f 2 12 10
f 2 10 5
f 2 5 4
f 2 4 3
f 5 10 13
f 5 13 9
f 6 9 13
f 6 13 11
f 10 12 11
f 10 11 13

