# https://github.com/mikedh/trimesh
v 0.05983915 0.00129413 0.01499053
v 0.05983915 0.00057792 0.01499053
v 0.05983915 0.00129413 0.00500000
v 0.05557959 0.00129413 0.01499053
v 0.05949888 -0.00000111 0.01499053
v 0.05983915 0.00057792 0.00500000
v 0.05558001 0.00129413 0.00500000
v 0.05557959 0.00129413 0.01498858
v 0.05575014 -0.00000111 0.01499053
v 0.05949888 -0.00000111 0.00500000
v 0.05558001 0.00129401 0.00500000
v 0.05575014 -0.00000111 0.00500000
f 1 2 6
f 1 6 3
f 1 3 7
f 1 7 8
f 1 8 4
f 1 4 9
f 1 9 5
f 1 5 2
f 2 5 10
f 2 10 6
f 3 6 10
f 3 10 12
f 3 12 11
f 3 11 7
f 4 8 12
f 4 12 9
f 5 9 12
f 5 12 10
f 7 11 8
f 8 11 12

