# https://github.com/mikedh/trimesh
v 0.05132723 0.00908213 0.00500000
v 0.05307413 0.00908213 0.00500000
v 0.05132670 0.00908213 0.00712602
v 0.05132740 0.00908571 0.00500000
v 0.05308074 0.00910902 0.00500000
v 0.05307413 0.00908213 0.01499053
v 0.05134636 0.00935963 0.00500000
v 0.05132670 0.00908213 0.01499053
v 0.05308474 0.00912927 0.00500000
v 0.05308074 0.00910902 0.01499053
v 0.05134636 0.00935927 0.01499053
v 0.05134810 0.00938347 0.01499053
v 0.05134810 0.00938347 0.00500000
v 0.05309048 0.00916656 0.00500000
v 0.05308474 0.00912927 0.01499053
v 0.05135053 0.00940391 0.01499053
v 0.05135053 0.00940391 0.00500000
v 0.05309570 0.00921138 0.00500000
v 0.05309048 0.00916656 0.01499053
v 0.05135662 0.00944119 0.01499053
v 0.05135662 0.00944119 0.00500000
v 0.05310074 0.00927771 0.00500000
v 0.05310074 0.00927771 0.01499053
v 0.05309570 0.00921156 0.01499053
v 0.05136549 0.00948547 0.01499053
v 0.05136567 0.00948547 0.00500000
v 0.05310370 0.00935210 0.00500000
v 0.05310370 0.00935228 0.01499053
v 0.05138115 0.00955001 0.01499053
v 0.05138115 0.00955001 0.00500000
v 0.05310370 0.00944173 0.00500000
v 0.05310353 0.00944191 0.01499053
v 0.05140150 0.00962171 0.01499053
v 0.05140150 0.00962171 0.00500000
v 0.05309970 0.00954624 0.00500000
v 0.05309970 0.00954624 0.01499053
v 0.05142916 0.00970687 0.01499053
v 0.05142916 0.00970705 0.00500000
v 0.05309048 0.00966528 0.00500000
v 0.05309048 0.00966546 0.01499053
v 0.05146516 0.00980492 0.01499053
v 0.05146516 0.00980510 0.00500000
v 0.05307500 0.00979919 0.00500000
v 0.05307483 0.00979919 0.01499053
v 0.05151074 0.00991553 0.01499053
v 0.05151074 0.00991553 0.00500000
v 0.05306526 0.00986605 0.00500000
v 0.05306526 0.00986605 0.01499053
v 0.05156692 0.01003761 0.01499053
v 0.05156692 0.01003779 0.00500000
v 0.05265041 0.00995425 0.00500000
v 0.05305187 0.00994726 0.00504401
v 0.05305187 0.00994726 0.01495533
v 0.05306230 0.00988344 0.01499053
v 0.05159684 0.01009856 0.01499053
v 0.05159684 0.01009838 0.00500000
v 0.05233522 0.01000911 0.00500000
v 0.05247072 0.01086456 0.00550070
v 0.05281287 0.01080469 0.00550070
v 0.05285948 0.01067579 0.00543225
v 0.05292489 0.01047412 0.00532565
v 0.05297794 0.01028518 0.00522590
v 0.05301986 0.01010950 0.00513202
v 0.05301986 0.01010950 0.01486829
v 0.05267702 0.00996555 0.01499053
v 0.05297794 0.01028518 0.01477441
v 0.05160501 0.01011416 0.01499053
v 0.05163476 0.01017152 0.01495533
v 0.05163476 0.01017152 0.00504401
v 0.05201865 0.01005428 0.00500000
v 0.05212701 0.01091350 0.00550070
v 0.05247072 0.01086456 0.01449961
v 0.05281287 0.01080469 0.01449961
v 0.05285948 0.01067579 0.01456709
v 0.05292489 0.01047412 0.01467368
v 0.05266415 0.00996823 0.01499053
v 0.05201569 0.01007113 0.01499053
v 0.05180957 0.01047036 0.01477441
v 0.05171529 0.01031601 0.01486829
v 0.05171529 0.01031601 0.00513202
v 0.05180957 0.01047036 0.00522590
v 0.05191828 0.01063367 0.00532565
v 0.05204283 0.01080505 0.00543225
v 0.05212701 0.01091350 0.01449961
v 0.05233122 0.01002632 0.01499053
v 0.05233783 0.01002524 0.01499053
v 0.05265354 0.00997039 0.01499053
v 0.05191828 0.01063367 0.01467368
v 0.05204283 0.01080505 0.01456709
f 1 2 6
f 1 6 8
f 1 8 3
f 1 3 4
f 1 4 7
f 1 7 13
f 1 13 17
f 1 17 21
f 1 21 26
f 1 26 30
f 1 30 34
f 1 34 38
f 1 38 42
f 1 42 46
f 1 46 50
f 1 50 56
f 1 56 70
f 1 70 57
f 1 57 51
f 1 51 47
f 1 47 43
f 1 43 39
f 1 39 35
f 1 35 31
f 1 31 27
f 1 27 22
f 1 22 18
f 1 18 14
f 1 14 9
f 1 9 5
f 1 5 2
f 2 5 10
f 2 10 6
f 3 7 4
f 3 8 7
f 5 9 15
f 5 15 10
f 6 10 15
f 6 15 19
f 6 19 24
f 6 24 23
f 6 23 28
f 6 28 32
f 6 32 36
f 6 36 40
f 6 40 44
f 6 44 48
f 6 48 54
f 6 54 65
f 6 65 76
f 6 76 87
f 6 87 86
f 6 86 85
f 6 85 77
f 6 77 67
f 6 67 55
f 6 55 49
f 6 49 45
f 6 45 41
f 6 41 37
f 6 37 33
f 6 33 29
f 6 29 25
f 6 25 20
f 6 20 16
f 6 16 12
f 6 12 11
f 6 11 8
f 7 8 11
f 7 11 12
f 7 12 13
f 9 14 19
f 9 19 15
f 12 16 17
f 12 17 13
f 14 18 19
f 16 20 21
f 16 21 17
f 18 22 23
f 18 23 24
f 18 24 19
f 20 25 21
f 21 25 26
f 22 27 23
f 23 27 28
f 25 29 30
f 25 30 26
f 27 31 28
f 28 31 32
f 29 33 34
f 29 34 30
f 31 35 36
f 31 36 32
f 33 37 38
f 33 38 34
f 35 39 40
f 35 40 36
f 37 41 42
f 37 42 38
f 39 43 40
f 40 43 44
f 41 45 42
f 42 45 46
f 43 47 48
f 43 48 44
f 45 49 50
f 45 50 46
f 47 51 52
f 47 52 53
f 47 53 48
f 48 53 54
f 49 55 50
f 50 55 56
f 51 57 58
f 51 58 59
f 51 59 60
f 51 60 61
f 51 61 52
f 52 61 62
f 52 62 63
f 52 63 64
f 52 64 53
f 53 64 54
f 54 64 66
f 54 66 65
f 55 67 68
f 55 68 69
f 55 69 56
f 56 69 70
f 57 70 58
f 58 71 84
f 58 84 72
f 58 72 73
f 58 73 59
f 58 70 71
f 59 73 74
f 59 74 60
f 60 74 75
f 60 75 61
f 61 75 66
f 61 66 62
f 62 66 64
f 62 64 63
f 65 66 76
f 66 75 76
f 67 77 78
f 67 78 79
f 67 79 68
f 68 79 80
f 68 80 69
f 69 80 81
f 69 81 82
f 69 82 70
f 70 82 83
f 70 83 71
f 71 83 89
f 71 89 84
f 72 84 85
f 72 85 86
f 72 86 87
f 72 87 73
f 73 87 76
f 73 76 75
f 73 75 74
f 77 88 78
f 77 85 84
f 77 84 88
f 78 88 82
f 78 82 81
f 78 81 80
f 78 80 79
f 82 88 89
f 82 89 83
f 84 89 88

