# https://github.com/mikedh/trimesh
v 0.05949925 -0.00000089 0.02554179
v 0.05949925 -0.00000089 0.01590809
v 0.05949809 0.00016223 0.01590809
v 0.05949458 0.00030545 0.03000000
v 0.05949847 -0.00000089 0.03000000
v 0.05575014 -0.00000089 0.01590809
v 0.05949770 0.00018536 0.01590809
v 0.05949458 0.00030545 0.01590809
v 0.05947276 0.00068666 0.03000000
v 0.05575014 -0.00000089 0.03000000
v 0.05551867 0.00150343 0.01590809
v 0.05947276 0.00068666 0.01590809
v 0.05943690 0.00104325 0.01590809
v 0.05943457 0.00106624 0.03000000
v 0.05551867 0.00150343 0.03000000
v 0.05551867 0.00150447 0.01590809
v 0.05943457 0.00106624 0.01590809
v 0.05937962 0.00144405 0.03000000
v 0.05938313 0.00142121 0.01590809
v 0.05551867 0.00150447 0.03000000
v 0.05936832 0.00150447 0.01590809
v 0.05937962 0.00144405 0.01590809
v 0.05936832 0.00150447 0.03000000
f 1 2 3
f 1 3 4
f 1 4 5
f 1 5 10
f 1 10 6
f 1 6 2
f 2 6 11
f 2 11 16
f 2 16 21
f 2 21 22
f 2 22 19
f 2 19 17
f 2 17 13
f 2 13 12
f 2 12 8
f 2 8 7
f 2 7 3
f 3 7 4
f 4 7 8
f 4 8 12
f 4 12 9
f 4 9 14
f 4 14 18
f 4 18 23
f 4 23 20
f 4 20 15
f 4 15 10
f 4 10 5
f 6 10 15
f 6 15 11
f 9 12 13
f 9 13 14
f 11 15 20
f 11 20 16
f 13 17 14
f 14 17 19
f 14 19 18
f 16 20 23
f 16 23 21
f 18 19 22
f 18 22 21
f 18 21 23

