# https://github.com/mikedh/trimesh
v 0.06166350 0.00137694 0.01449961
v 0.06161458 0.00172062 0.01449961
v 0.06081956 0.00127715 0.01499053
v 0.06082045 0.00127072 0.01499053
v 0.06082170 0.00125977 0.01499053
v 0.06122037 0.00105951 0.01477441
v 0.06138355 0.00116833 0.01467368
v 0.06155513 0.00129280 0.01456709
v 0.06166350 0.00137694 0.00550070
v 0.06161458 0.00172062 0.00550070
v 0.06155477 0.00206291 0.01449961
v 0.06072047 0.00190350 0.01499053
v 0.06077421 0.00159424 0.01499053
v 0.06077528 0.00158780 0.01499053
v 0.06082313 0.00124673 0.01499053
v 0.06082955 0.00118606 0.01499053
v 0.06086419 0.00085490 0.01499053
v 0.06106594 0.00096528 0.01486829
v 0.06122037 0.00105951 0.00522590
v 0.06138355 0.00116833 0.00532565
v 0.06155513 0.00129280 0.00543225
v 0.06080420 0.00126863 0.00500000
v 0.06075903 0.00158520 0.00500000
v 0.06070422 0.00190037 0.00500000
v 0.06155477 0.00206291 0.00550070
v 0.06142569 0.00210950 0.01456709
v 0.06122412 0.00217486 0.01467368
v 0.06103523 0.00222788 0.01477441
v 0.06071547 0.00192714 0.01499053
v 0.06084848 0.00084690 0.01499053
v 0.06084848 0.00084690 0.00500000
v 0.06092168 0.00088480 0.00504401
v 0.06092168 0.00088480 0.01495533
v 0.06106594 0.00096528 0.00513202
v 0.06061602 0.00231515 0.00500000
v 0.06069726 0.00230176 0.00504401
v 0.06122412 0.00217486 0.00532565
v 0.06142569 0.00210950 0.00543225
v 0.06085937 0.00226978 0.01486829
v 0.06063352 0.00231237 0.01499053
v 0.06070279 0.00198676 0.01499053
v 0.06103523 0.00222788 0.00522590
v 0.06078795 0.00081700 0.01499053
v 0.06078778 0.00081700 0.00500000
v 0.06054925 0.00232488 0.00500000
v 0.06061602 0.00231515 0.01499053
v 0.06085937 0.00226978 0.00513202
v 0.06069726 0.00230176 0.01495533
v 0.06066566 0.00076085 0.01499053
v 0.06066566 0.00076085 0.00500000
v 0.06041535 0.00234053 0.00500000
v 0.06041535 0.00234053 0.01499053
v 0.06054907 0.00232488 0.01499053
v 0.06055514 0.00071530 0.01499053
v 0.06055514 0.00071530 0.00500000
v 0.06029626 0.00234974 0.00500000
v 0.06029608 0.00234974 0.01499053
v 0.06045713 0.00067914 0.01499053
v 0.06045695 0.00067914 0.00500000
v 0.06019182 0.00235374 0.00500000
v 0.06019164 0.00235374 0.01499053
v 0.06037178 0.00065150 0.01499053
v 0.06037178 0.00065150 0.00500000
v 0.06010219 0.00235357 0.00500000
v 0.06010219 0.00235357 0.01499053
v 0.06030019 0.00063116 0.01499053
v 0.06030001 0.00063116 0.00500000
v 0.06002774 0.00235078 0.00500000
v 0.06002757 0.00235078 0.01499053
v 0.06023556 0.00061552 0.01499053
v 0.06023556 0.00061552 0.00500000
v 0.05996151 0.00234574 0.00500000
v 0.05996151 0.00234574 0.01499053
v 0.06019128 0.00060665 0.01499053
v 0.06019110 0.00060665 0.00500000
v 0.05991651 0.00234053 0.00500000
v 0.05991651 0.00234053 0.01499053
v 0.06015397 0.00060057 0.01499053
v 0.06015397 0.00060057 0.00500000
v 0.05987920 0.00233479 0.00500000
v 0.05987920 0.00233479 0.01499053
v 0.06013344 0.00059814 0.01499053
v 0.06013344 0.00059814 0.00500000
v 0.05985903 0.00233079 0.00500000
v 0.05985903 0.00233079 0.01499053
v 0.06010951 0.00059640 0.01499053
v 0.06010951 0.00059640 0.00500000
v 0.05983957 0.00232593 0.00500000
v 0.05983957 0.00232593 0.01499053
v 0.05983957 0.00057780 0.01499053
v 0.05983957 0.00057780 0.00500000
f 1 2 3
f 1 3 4
f 1 4 5
f 1 5 6
f 1 6 7
f 1 7 8
f 1 8 21
f 1 21 9
f 1 9 10
f 1 10 2
f 2 10 25
f 2 25 11
f 2 11 12
f 2 12 13
f 2 13 14
f 2 14 3
f 3 14 13
f 3 13 12
f 3 12 29
f 3 29 41
f 3 41 40
f 3 40 46
f 3 46 53
f 3 53 52
f 3 52 57
f 3 57 61
f 3 61 65
f 3 65 69
f 3 69 73
f 3 73 77
f 3 77 81
f 3 81 85
f 3 85 89
f 3 89 90
f 3 90 86
f 3 86 82
f 3 82 78
f 3 78 74
f 3 74 70
f 3 70 66
f 3 66 62
f 3 62 58
f 3 58 54
f 3 54 49
f 3 49 43
f 3 43 30
f 3 30 17
f 3 17 16
f 3 16 15
f 3 15 5
f 3 5 4
f 5 15 6
f 6 15 16
f 6 16 17
f 6 17 18
f 6 18 34
f 6 34 19
f 6 19 20
f 6 20 7
f 7 20 21
f 7 21 8
f 9 21 22
f 9 22 10
f 10 22 23
f 10 23 24
f 10 24 25
f 11 26 27
f 11 27 28
f 11 28 12
f 11 25 38
f 11 38 26
f 12 28 29
f 17 30 31
f 17 31 32
f 17 32 33
f 17 33 18
f 18 33 32
f 18 32 34
f 19 34 32
f 19 32 20
f 20 32 22
f 20 22 21
f 22 32 31
f 22 31 44
f 22 44 50
f 22 50 55
f 22 55 59
f 22 59 63
f 22 63 67
f 22 67 71
f 22 71 75
f 22 75 79
f 22 79 83
f 22 83 87
f 22 87 91
f 22 91 88
f 22 88 84
f 22 84 80
f 22 80 76
f 22 76 72
f 22 72 68
f 22 68 64
f 22 64 60
f 22 60 56
f 22 56 51
f 22 51 45
f 22 45 35
f 22 35 24
f 22 24 23
f 24 35 36
f 24 36 37
f 24 37 38
f 24 38 25
f 26 38 37
f 26 37 27
f 27 37 42
f 27 42 28
f 28 39 40
f 28 40 41
f 28 41 29
f 28 42 47
f 28 47 39
f 30 43 31
f 31 43 44
f 35 45 46
f 35 46 40
f 35 40 36
f 36 47 42
f 36 42 37
f 36 40 48
f 36 48 39
f 36 39 47
f 39 48 40
f 43 49 50
f 43 50 44
f 45 51 52
f 45 52 53
f 45 53 46
f 49 54 55
f 49 55 50
f 51 56 52
f 52 56 57
f 54 58 55
f 55 58 59
f 56 60 61
f 56 61 57
f 58 62 63
f 58 63 59
f 60 64 61
f 61 64 65
f 62 66 63
f 63 66 67
f 64 68 69
f 64 69 65
f 66 70 71
f 66 71 67
f 68 72 69
f 69 72 73
f 70 74 71
f 71 74 75
f 72 76 77
f 72 77 73
f 74 78 79
f 74 79 75
f 76 80 81
f 76 81 77
f 78 82 83
f 78 83 79
f 80 84 85
f 80 85 81
f 82 86 87
f 82 87 83
f 84 88 89
f 84 89 85
f 86 90 91
f 86 91 87
f 88 91 90
f 88 90 89

