# https://github.com/mikedh/trimesh
v 0.05067350 -0.00874929 0.01590809
v 0.05075677 -0.00874891 0.01590809
v 0.05067350 -0.00874929 0.03000000
v 0.05057852 -0.00874816 0.01590809
v 0.05075677 -0.00499986 0.01590809
v 0.05075677 -0.00874891 0.02508107
v 0.05075677 -0.00874853 0.03000000
v 0.05029209 -0.00873793 0.03000000
v 0.05055542 -0.00874740 0.01590809
v 0.04966907 -0.00488173 0.01590809
v 0.05075677 -0.00499986 0.03000000
v 0.04991131 -0.00870954 0.03000000
v 0.05029209 -0.00873793 0.01590809
v 0.04966907 -0.00868076 0.01590809
v 0.04966907 -0.00488173 0.03000000
v 0.04966907 -0.00868076 0.03000000
v 0.04988842 -0.00870689 0.01590809
v 0.04991131 -0.00870954 0.01590809
f 1 2 6
f 1 6 3
f 1 3 4
f 1 4 9
f 1 9 13
f 1 13 18
f 1 18 17
f 1 17 14
f 1 14 10
f 1 10 5
f 1 5 2
f 2 5 11
f 2 11 7
f 2 7 6
f 3 6 7
f 3 7 11
f 3 11 15
f 3 15 16
f 3 16 12
f 3 12 8
f 3 8 4
f 4 8 9
f 5 10 15
f 5 15 11
f 8 12 18
f 8 18 13
f 8 13 9
f 10 14 16
f 10 16 15
f 12 16 17
f 12 17 18
f 14 17 16

