# https://github.com/mikedh/trimesh
v 0.04877831 -0.00852443 0.01590809
v 0.04875925 -0.00851998 0.01590809
v 0.04877831 -0.00459407 0.01590809
v 0.04877831 -0.00852443 0.03000000
v 0.04841167 -0.00843175 0.03000000
v 0.04841167 -0.00843175 0.01590809
v 0.04771392 -0.00397243 0.01590809
v 0.04877831 -0.00459407 0.03000000
v 0.04804618 -0.00832168 0.03000000
v 0.04822757 -0.00837827 0.01590809
v 0.04771392 -0.00820582 0.01590809
v 0.04771392 -0.00397243 0.03000000
v 0.04771392 -0.00820537 0.03000000
v 0.04771392 -0.00820582 0.02779435
v 0.04786614 -0.00826063 0.01590809
v 0.04788802 -0.00826820 0.01590809
v 0.04804618 -0.00832168 0.01590809
v 0.04820538 -0.00837159 0.01590809
f 1 2 6
f 1 6 10
f 1 10 18
f 1 18 17
f 1 17 16
f 1 16 15
f 1 15 11
f 1 11 7
f 1 7 3
f 1 3 8
f 1 8 4
f 1 4 2
f 2 4 5
f 2 5 6
f 3 7 12
f 3 12 8
f 4 8 12
f 4 12 13
f 4 13 9
f 4 9 5
f 5 9 10
f 5 10 6
f 7 11 14
f 7 14 13
f 7 13 12
f 9 13 14
f 9 14 15
f 9 15 16
f 9 16 17
f 9 17 18
f 9 18 10
f 11 15 14

