# https://github.com/mikedh/trimesh
v 0.04325620 0.00271910 0.00500000
v 0.04521183 0.00271910 0.00500000
v 0.04325620 0.00271910 0.01499053
v 0.04325620 0.00482765 0.00500000
v 0.04521183 0.00550397 0.00500000
v 0.04521183 0.00271910 0.01499053
v 0.04325620 0.00482874 0.01499053
v 0.04325620 0.00482874 0.01410062
v 0.04385696 0.00550397 0.00500000
v 0.04521183 0.00550397 0.01499053
v 0.04385696 0.00550397 0.01499053
f 1 2 6
f 1 6 3
f 1 3 7
f 1 7 8
f 1 8 4
f 1 4 9
f 1 9 5
f 1 5 2
f 2 5 10
f 2 10 6
f 3 6 10
f 3 10 11
f 3 11 7
f 4 8 9
f 5 9 11
f 5 11 10
f 7 11 9
f 7 9 8

