# https://github.com/mikedh/trimesh
v 0.04419928 0.00642113 0.01500000
v 0.04419928 0.00581939 0.01500000
v 0.04419928 0.00642113 0.01499053
v 0.04318913 0.00642113 0.01500000
v 0.04419928 0.00581939 0.01499053
v 0.04372615 0.00581939 0.01500000
v 0.04318923 0.00642113 0.01499053
v 0.04318913 0.00642113 0.01499262
v 0.04323808 0.00634167 0.01499053
v 0.04323808 0.00634172 0.01500000
v 0.04372615 0.00581939 0.01499053
v 0.04352858 0.00598380 0.01500000
v 0.04352868 0.00598368 0.01499053
v 0.04329612 0.00625495 0.01500000
v 0.04329622 0.00625489 0.01499053
v 0.04351029 0.00599929 0.01500000
v 0.04351029 0.00599929 0.01499053
v 0.04334882 0.00618250 0.01500000
v 0.04334892 0.00618244 0.01499053
v 0.04349516 0.00601331 0.01500000
v 0.04349516 0.00601331 0.01499053
v 0.04339500 0.00612382 0.01499053
v 0.04339500 0.00612388 0.01500000
v 0.04346856 0.00604012 0.01500000
v 0.04346856 0.00604006 0.01499053
v 0.04343791 0.00607334 0.01500000
v 0.04343801 0.00607334 0.01499053
f 1 2 5
f 1 5 3
f 1 3 7
f 1 7 8
f 1 8 4
f 1 4 10
f 1 10 14
f 1 14 18
f 1 18 23
f 1 23 26
f 1 26 24
f 1 24 20
f 1 20 16
f 1 16 12
f 1 12 6
f 1 6 2
f 2 6 11
f 2 11 5
f 3 5 11
f 3 11 13
f 3 13 17
f 3 17 21
f 3 21 25
f 3 25 27
f 3 27 22
f 3 22 19
f 3 19 15
f 3 15 9
f 3 9 7
f 4 8 9
f 4 9 10
f 6 12 13
f 6 13 11
f 7 9 8
f 9 14 10
f 9 15 14
f 12 16 13
f 13 16 17
f 14 15 19
f 14 19 18
f 16 20 21
f 16 21 17
f 18 19 22
f 18 22 23
f 20 24 25
f 20 25 21
f 22 26 23
f 22 27 26
f 24 26 25
f 25 26 27

