# https://github.com/mikedh/trimesh
v 0.04609132 0.00181342 0.01499053
v 0.04577076 0.00045255 0.01499053
v 0.04609132 0.00181342 0.00500000
v 0.04167229 0.00181342 0.01499053
v 0.04189854 0.00045255 0.01499053
v 0.04577076 0.00045255 0.00500000
v 0.04167229 0.00181342 0.00500000
v 0.04167229 0.00057605 0.01499053
v 0.04189854 0.00045255 0.00500000
v 0.04167229 0.00057618 0.00500000
v 0.04167229 0.00057605 0.00980946
f 1 2 6
f 1 6 3
f 1 3 7
f 1 7 4
f 1 4 8
f 1 8 5
f 1 5 2
f 2 5 9
f 2 9 6
f 3 6 9
f 3 9 10
f 3 10 7
f 4 7 10
f 4 10 11
f 4 11 8
f 5 8 11
f 5 11 9
f 9 11 10

