# https://github.com/mikedh/trimesh
v 0.04325596 0.00482875 0.01499053
v 0.04325596 0.00320057 0.01499053
v 0.04325596 0.00482875 0.01410062
v 0.04271416 0.00507742 0.01499053
v 0.04245337 0.00320057 0.01499053
v 0.04325596 0.00320057 0.00500000
v 0.04325596 0.00482772 0.00500000
v 0.04325451 0.00482875 0.00500000
v 0.04271416 0.00507742 0.00500000
v 0.04265276 0.00510276 0.01499053
v 0.04191904 0.00351660 0.01499053
v 0.04245337 0.00320057 0.00500000
v 0.04265300 0.00510256 0.00500000
v 0.04258268 0.00512831 0.01499053
v 0.04258292 0.00512831 0.00500000
v 0.04186270 0.00355142 0.01499053
v 0.04191904 0.00351660 0.00500000
v 0.04249768 0.00515612 0.01499053
v 0.04249768 0.00515612 0.00500000
v 0.04180057 0.00359283 0.01499053
v 0.04186270 0.00355142 0.00500000
v 0.04239703 0.00518455 0.01499053
v 0.04239727 0.00518455 0.00500000
v 0.04172809 0.00364557 0.01499053
v 0.04180057 0.00359283 0.00500000
v 0.04228096 0.00521278 0.01499053
v 0.04228096 0.00521257 0.00500000
v 0.04164598 0.00371006 0.01499053
v 0.04172809 0.00364557 0.00500000
v 0.04214877 0.00523915 0.01499053
v 0.04214877 0.00523915 0.00500000
v 0.04155520 0.00378752 0.01499053
v 0.04155496 0.00378752 0.00500000
v 0.04164598 0.00371006 0.00500000
v 0.04208230 0.00525068 0.01499053
v 0.04208230 0.00525068 0.00500000
v 0.04145599 0.00387879 0.01499053
v 0.04145599 0.00387879 0.00500000
v 0.04206473 0.00525336 0.01499053
v 0.04187040 0.00488335 0.00500000
v 0.04200092 0.00526305 0.00504401
v 0.04140735 0.00392617 0.01499053
v 0.04140759 0.00392597 0.00500000
v 0.04200092 0.00526305 0.01495533
v 0.04183693 0.00528262 0.01486829
v 0.04165681 0.00529725 0.01477441
v 0.04185595 0.00489138 0.01499053
v 0.04172063 0.00460069 0.00500000
v 0.04111165 0.00530075 0.00550070
v 0.04124866 0.00530528 0.00543225
v 0.04146056 0.00530507 0.00532565
v 0.04165681 0.00529725 0.00522590
v 0.04183693 0.00528262 0.00513202
v 0.04139507 0.00393874 0.01499053
v 0.04134955 0.00398468 0.01495533
v 0.04134955 0.00398468 0.00504401
v 0.04158000 0.00431329 0.00500000
v 0.04146056 0.00530507 0.01467368
v 0.04111165 0.00530075 0.01449961
v 0.04094911 0.00499378 0.01449961
v 0.04170618 0.00460810 0.01499053
v 0.04079620 0.00468186 0.00550070
v 0.04094911 0.00499378 0.00550070
v 0.04124866 0.00530528 0.01456709
v 0.04153039 0.00424283 0.01499053
v 0.04111959 0.00424324 0.01477441
v 0.04123710 0.00410582 0.01486829
v 0.04123710 0.00410582 0.00513202
v 0.04111959 0.00424324 0.00522590
v 0.04099799 0.00439693 0.00532565
v 0.04087326 0.00456834 0.00543225
v 0.04079620 0.00468186 0.01449961
v 0.04156435 0.00431885 0.01499053
v 0.04156049 0.00431040 0.01499053
v 0.04156290 0.00431576 0.01499053
v 0.04099799 0.00439693 0.01467368
v 0.04087326 0.00456834 0.01456709
f 1 2 6
f 1 6 7
f 1 7 3
f 1 3 9
f 1 9 4
f 1 4 10
f 1 10 14
f 1 14 18
f 1 18 22
f 1 22 26
f 1 26 30
f 1 30 35
f 1 35 39
f 1 39 47
f 1 47 61
f 1 61 73
f 1 73 75
f 1 75 74
f 1 74 65
f 1 65 54
f 1 54 42
f 1 42 37
f 1 37 32
f 1 32 28
f 1 28 24
f 1 24 20
f 1 20 16
f 1 16 11
f 1 11 5
f 1 5 2
f 2 5 12
f 2 12 6
f 3 7 8
f 3 8 9
f 4 9 10
f 5 11 17
f 5 17 12
f 6 12 17
f 6 17 21
f 6 21 25
f 6 25 29
f 6 29 34
f 6 34 33
f 6 33 38
f 6 38 43
f 6 43 57
f 6 57 48
f 6 48 40
f 6 40 36
f 6 36 31
f 6 31 27
f 6 27 23
f 6 23 19
f 6 19 15
f 6 15 13
f 6 13 9
f 6 9 8
f 6 8 7
f 9 13 10
f 10 13 15
f 10 15 14
f 11 16 21
f 11 21 17
f 14 15 18
f 15 19 18
f 16 20 25
f 16 25 21
f 18 19 23
f 18 23 22
f 20 24 29
f 20 29 25
f 22 23 26
f 23 27 26
f 24 28 34
f 24 34 29
f 26 27 31
f 26 31 30
f 28 32 33
f 28 33 34
f 30 31 36
f 30 36 35
f 32 37 33
f 33 37 38
f 35 36 39
f 36 40 41
f 36 41 39
f 37 42 38
f 38 42 43
f 39 41 44
f 39 44 45
f 39 45 46
f 39 46 47
f 40 48 49
f 40 49 50
f 40 50 51
f 40 51 41
f 41 51 52
f 41 52 53
f 41 53 45
f 41 45 44
f 42 54 55
f 42 55 56
f 42 56 43
f 43 56 57
f 45 53 52
f 45 52 46
f 46 58 47
f 46 52 51
f 46 51 58
f 47 58 59
f 47 59 60
f 47 60 61
f 48 57 62
f 48 62 63
f 48 63 49
f 49 63 60
f 49 60 59
f 49 59 64
f 49 64 50
f 50 64 58
f 50 58 51
f 54 65 66
f 54 66 67
f 54 67 55
f 55 67 68
f 55 68 56
f 56 68 69
f 56 69 70
f 56 70 57
f 57 70 71
f 57 71 62
f 58 64 59
f 60 72 73
f 60 73 61
f 60 63 62
f 60 62 72
f 62 71 77
f 62 77 72
f 65 74 66
f 66 74 75
f 66 75 72
f 66 72 76
f 66 76 70
f 66 70 69
f 66 69 68
f 66 68 67
f 70 76 77
f 70 77 71
f 72 77 76
f 72 75 73

