# https://github.com/mikedh/trimesh
v 0.04235242 -0.00331582 0.01499053
v 0.04262807 -0.00331582 0.01499053
v 0.04235242 -0.00331582 0.01500000
v 0.04235703 -0.00248620 0.01499053
v 0.04262807 -0.00331582 0.01500000
v 0.04262807 -0.00248620 0.01499053
v 0.04262807 -0.00325393 0.01511715
v 0.04251827 -0.00296408 0.01511715
v 0.04250189 -0.00292079 0.01511715
v 0.04248505 -0.00287271 0.01511715
v 0.04248410 -0.00286987 0.01511715
v 0.04238232 -0.00255832 0.01511715
v 0.04237517 -0.00253469 0.01511715
v 0.04236159 -0.00248620 0.01511715
v 0.04235703 -0.00248620 0.01500000
v 0.04262807 -0.00248620 0.01511715
f 1 2 5
f 1 5 3
f 1 3 15
f 1 15 4
f 1 4 6
f 1 6 2
f 2 6 16
f 2 16 7
f 2 7 5
f 3 5 7
f 3 7 8
f 3 8 9
f 3 9 10
f 3 10 11
f 3 11 12
f 3 12 13
f 3 13 14
f 3 14 15
f 4 15 14
f 4 14 16
f 4 16 6
f 7 16 14
f 7 14 13
f 7 13 12
f 7 12 11
f 7 11 10
f 7 10 9
f 7 9 8

