# https://github.com/mikedh/trimesh
v 0.05160505 0.01011425 0.01499053
v 0.05201871 0.01005415 0.01500000
v 0.05200994 0.01007164 0.01499053
v 0.05159690 0.01009835 0.01499053
v 0.05159690 0.01009835 0.01500000
v 0.05201912 0.01007057 0.01499053
v 0.05233506 0.01000900 0.01500000
v 0.05233130 0.01002610 0.01499053
v 0.05156683 0.01003759 0.01499053
v 0.05156704 0.01003772 0.01500000
v 0.05233777 0.01002516 0.01499053
v 0.05265037 0.00995398 0.01500000
v 0.05265350 0.00997014 0.01499053
v 0.05097046 0.00874982 0.01499053
v 0.05097046 0.00874982 0.01500000
v 0.05306507 0.00986570 0.01500000
v 0.05306236 0.00988319 0.01499053
v 0.05267709 0.00996520 0.01499053
v 0.05140793 0.00874982 0.01499053
v 0.05140793 0.00874982 0.01500000
v 0.05307488 0.00979892 0.01500000
v 0.05306507 0.00986570 0.01499053
v 0.05300305 0.00874996 0.01499053
v 0.05300305 0.00874996 0.01500000
v 0.05307488 0.00979892 0.01499053
v 0.05309054 0.00966509 0.01500000
v 0.05308073 0.00910909 0.01499053
v 0.05308073 0.00910909 0.01500000
v 0.05309034 0.00966523 0.01499053
v 0.05309952 0.00954596 0.01500000
v 0.05309952 0.00954609 0.01499053
v 0.05308470 0.00912939 0.01499053
v 0.05308470 0.00912939 0.01500000
v 0.05310370 0.00944152 0.01500000
v 0.05310349 0.00944165 0.01499053
v 0.05309054 0.00916652 0.01499053
v 0.05309054 0.00916652 0.01500000
v 0.05310370 0.00935217 0.01500000
v 0.05310370 0.00935230 0.01499053
v 0.05309556 0.00921153 0.01499053
v 0.05309556 0.00921153 0.01500000
v 0.05310078 0.00927764 0.01500000
v 0.05310078 0.00927778 0.01499053
f 1 2 3
f 1 3 6
f 1 6 8
f 1 8 11
f 1 11 13
f 1 13 18
f 1 18 17
f 1 17 22
f 1 22 25
f 1 25 29
f 1 29 31
f 1 31 35
f 1 35 39
f 1 39 43
f 1 43 40
f 1 40 36
f 1 36 32
f 1 32 27
f 1 27 23
f 1 23 19
f 1 19 14
f 1 14 9
f 1 9 4
f 1 4 5
f 1 5 2
f 2 6 3
f 2 5 10
f 2 10 15
f 2 15 20
f 2 20 24
f 2 24 28
f 2 28 33
f 2 33 37
f 2 37 41
f 2 41 42
f 2 42 38
f 2 38 34
f 2 34 30
f 2 30 26
f 2 26 21
f 2 21 16
f 2 16 12
f 2 12 7
f 2 7 8
f 2 8 6
f 4 9 5
f 5 9 10
f 7 11 8
f 7 12 13
f 7 13 11
f 9 14 15
f 9 15 10
f 12 16 17
f 12 17 18
f 12 18 13
f 14 19 20
f 14 20 15
f 16 21 25
f 16 25 22
f 16 22 17
f 19 23 24
f 19 24 20
f 21 26 25
f 23 27 28
f 23 28 24
f 25 26 29
f 26 30 31
f 26 31 29
f 27 32 33
f 27 33 28
f 30 34 31
f 31 34 35
f 32 36 37
f 32 37 33
f 34 38 39
f 34 39 35
f 36 40 41
f 36 41 37
f 38 42 43
f 38 43 39
f 40 43 42
f 40 42 41

