# https://github.com/mikedh/trimesh
v 0.05075688 -0.00874919 0.01590809
v 0.05091233 -0.00874802 0.01590809
v 0.05075688 -0.00874919 0.02508107
v 0.05075688 -0.00499990 0.01590809
v 0.05093536 -0.00874763 0.01590809
v 0.05105547 -0.00874451 0.03000000
v 0.05075688 -0.00874841 0.03000000
v 0.05075688 -0.00499990 0.03000000
v 0.05225512 -0.00476842 0.01590809
v 0.05105547 -0.00874451 0.01590809
v 0.05141346 -0.00872425 0.01590809
v 0.05143663 -0.00872269 0.03000000
v 0.05225512 -0.00476842 0.03000000
v 0.05225512 -0.00861825 0.01590809
v 0.05143663 -0.00872269 0.01590809
v 0.05181633 -0.00868450 0.03000000
v 0.05179330 -0.00868684 0.01590809
v 0.05225512 -0.00861825 0.03000000
v 0.05219411 -0.00862994 0.01590809
v 0.05219411 -0.00862994 0.03000000
v 0.05181633 -0.00868450 0.01590809
f 1 2 3
f 1 3 7
f 1 7 8
f 1 8 4
f 1 4 9
f 1 9 14
f 1 14 19
f 1 19 21
f 1 21 17
f 1 17 15
f 1 15 11
f 1 11 10
f 1 10 5
f 1 5 2
f 2 5 6
f 2 6 3
f 3 6 7
f 4 8 13
f 4 13 9
f 5 10 6
f 6 10 11
f 6 11 12
f 6 12 16
f 6 16 20
f 6 20 18
f 6 18 13
f 6 13 8
f 6 8 7
f 9 13 18
f 9 18 14
f 11 15 12
f 12 15 17
f 12 17 16
f 14 18 20
f 14 20 19
f 16 17 21
f 16 21 19
f 16 19 20

