# https://github.com/mikedh/trimesh
v 0.05613940 0.00286019 0.01499053
v 0.05831463 0.00286019 0.01499053
v 0.05613940 0.00286019 0.01511715
v 0.05613940 0.00525290 0.01499053
v 0.05831463 0.00286019 0.01511715
v 0.05831463 0.00483268 0.01499053
v 0.05613940 0.00525290 0.01511715
v 0.05774713 0.00525290 0.01499053
v 0.05831463 0.00439396 0.01511715
v 0.05831463 0.00483268 0.01500000
v 0.05774713 0.00525290 0.01511715
v 0.05817025 0.00463663 0.01511715
v 0.05793005 0.00500063 0.01511715
v 0.05795752 0.00496104 0.01511715
v 0.05796263 0.00495355 0.01511715
f 1 2 5
f 1 5 3
f 1 3 7
f 1 7 4
f 1 4 8
f 1 8 6
f 1 6 2
f 2 6 10
f 2 10 9
f 2 9 5
f 3 5 9
f 3 9 12
f 3 12 15
f 3 15 14
f 3 14 13
f 3 13 11
f 3 11 7
f 4 7 11
f 4 11 8
f 6 8 11
f 6 11 10
f 9 10 12
f 10 11 13
f 10 13 14
f 10 14 15
f 10 15 12

