# https://github.com/mikedh/trimesh
v 0.04521202 0.00271955 0.00500000
v 0.04655478 0.00271955 0.00500000
v 0.04521202 0.00271955 0.01499053
v 0.04521202 0.00689272 0.00500000
v 0.04714735 0.00346550 0.00500000
v 0.04655478 0.00271955 0.01499053
v 0.04521202 0.00689272 0.01499053
v 0.04586578 0.00730430 0.00500000
v 0.04714735 0.00730430 0.00500000
v 0.04714735 0.00346550 0.01499053
v 0.04586578 0.00730430 0.01499053
v 0.04714735 0.00730430 0.01488883
v 0.04714735 0.00730385 0.01499053
f 1 2 6
f 1 6 3
f 1 3 7
f 1 7 4
f 1 4 8
f 1 8 9
f 1 9 5
f 1 5 2
f 2 5 10
f 2 10 6
f 3 6 10
f 3 10 13
f 3 13 11
f 3 11 7
f 4 7 11
f 4 11 8
f 5 9 12
f 5 12 13
f 5 13 10
f 8 11 12
f 8 12 9
f 11 13 12

