# https://github.com/mikedh/trimesh
v 0.04411352 0.00768013 0.01499053
v 0.04412921 0.00767212 0.01500000
v 0.04412921 0.00767212 0.01499053
v 0.04381088 0.00740778 0.01499053
v 0.04418891 0.00764069 0.01500000
v 0.04381415 0.00738843 0.01500000
v 0.04489725 0.00650457 0.01511715
v 0.04514912 0.00672159 0.01511715
v 0.04518420 0.00675178 0.01511715
v 0.04529576 0.00683990 0.01511715
v 0.04418891 0.00764069 0.01499053
v 0.04380391 0.00740137 0.01499053
v 0.04430635 0.00757464 0.01500000
v 0.04358428 0.00716574 0.01500000
v 0.04480857 0.00642113 0.01511715
v 0.04486130 0.00647092 0.01511715
v 0.04489507 0.00650259 0.01511715
v 0.04529576 0.00642113 0.01511715
v 0.04529576 0.00689806 0.01500000
v 0.04449482 0.00745387 0.01500000
v 0.04440810 0.00751203 0.01500000
v 0.04430613 0.00757464 0.01499053
v 0.04357274 0.00717732 0.01499053
v 0.04440810 0.00751203 0.01499053
v 0.04356816 0.00717264 0.01499053
v 0.04334962 0.00694724 0.01499053
v 0.04336161 0.00693602 0.01500000
v 0.04307792 0.00662090 0.01500000
v 0.04310952 0.00656101 0.01500000
v 0.04317532 0.00644369 0.01500000
v 0.04318926 0.00642113 0.01500000
v 0.04529576 0.00642113 0.01499053
v 0.04529576 0.00689905 0.01499102
v 0.04449482 0.00745387 0.01499053
v 0.04334222 0.00693922 0.01499053
v 0.04329254 0.00688414 0.01499053
v 0.04307008 0.00663668 0.01499053
v 0.04307792 0.00662090 0.01499053
v 0.04310952 0.00656101 0.01499053
v 0.04317553 0.00644356 0.01499053
v 0.04318926 0.00642113 0.01499053
v 0.04529576 0.00688525 0.01499053
v 0.04527985 0.00689658 0.01499053
f 1 2 3
f 1 3 11
f 1 11 22
f 1 22 24
f 1 24 34
f 1 34 43
f 1 43 42
f 1 42 32
f 1 32 41
f 1 41 40
f 1 40 39
f 1 39 38
f 1 38 37
f 1 37 36
f 1 36 35
f 1 35 26
f 1 26 25
f 1 25 23
f 1 23 12
f 1 12 4
f 1 4 2
f 2 5 11
f 2 11 3
f 2 4 6
f 2 6 7
f 2 7 8
f 2 8 9
f 2 9 10
f 2 10 5
f 4 12 6
f 5 10 13
f 5 13 11
f 6 12 14
f 6 14 15
f 6 15 16
f 6 16 17
f 6 17 7
f 7 17 16
f 7 16 15
f 7 15 18
f 7 18 10
f 7 10 9
f 7 9 8
f 10 18 32
f 10 32 42
f 10 42 33
f 10 33 19
f 10 19 20
f 10 20 21
f 10 21 13
f 11 13 22
f 12 23 14
f 13 21 24
f 13 24 22
f 14 23 25
f 14 25 26
f 14 26 27
f 14 27 15
f 15 27 28
f 15 28 29
f 15 29 30
f 15 30 31
f 15 31 41
f 15 41 32
f 15 32 18
f 19 33 20
f 20 34 24
f 20 24 21
f 20 33 34
f 26 35 27
f 27 35 36
f 27 36 28
f 28 37 38
f 28 38 39
f 28 39 29
f 28 36 37
f 29 39 30
f 30 39 40
f 30 40 41
f 30 41 31
f 33 42 43
f 33 43 34

