# https://github.com/mikedh/trimesh
v 0.05605797 0.00695713 0.01499053
v 0.05561161 0.00734857 0.01499053
v 0.05605797 0.00530643 0.01499053
v 0.05605797 0.00695713 0.00500000
v 0.05561161 0.00734857 0.01495728
v 0.05378725 0.00734857 0.01499053
v 0.05378725 0.00530643 0.01499053
v 0.05605797 0.00530643 0.00500000
v 0.05561139 0.00734857 0.00500000
v 0.05378725 0.00734857 0.00500000
v 0.05378725 0.00530643 0.00500000
f 1 2 6
f 1 6 7
f 1 7 3
f 1 3 8
f 1 8 4
f 1 4 5
f 1 5 2
f 2 5 9
f 2 9 10
f 2 10 6
f 3 7 11
f 3 11 8
f 4 8 11
f 4 11 10
f 4 10 9
f 4 9 5
f 6 10 11
f 6 11 7

