# https://github.com/mikedh/trimesh
v 0.05558508 -0.00743388 0.01500002
v 0.05558508 -0.00743388 0.01499053
v 0.05536411 -0.00743388 0.01511715
v 0.05585277 -0.00809699 0.01500002
v 0.05585277 -0.00809707 0.01499053
v 0.05361672 -0.00743388 0.01499053
v 0.05505846 -0.00761568 0.01511715
v 0.05591094 -0.00826890 0.01500002
v 0.05590600 -0.00825214 0.01500002
v 0.05587837 -0.00816696 0.01500002
v 0.05361672 -0.00743388 0.01511715
v 0.05587837 -0.00816696 0.01499053
v 0.05361672 -0.00826693 0.01499053
v 0.05472251 -0.00779633 0.01511715
v 0.05591094 -0.00826890 0.01499844
v 0.05590600 -0.00825206 0.01499053
v 0.05437891 -0.00796211 0.01511715
v 0.05402813 -0.00811285 0.01511715
v 0.05402544 -0.00811391 0.01511715
v 0.05371418 -0.00823170 0.01511715
v 0.05367084 -0.00824805 0.01511715
v 0.05362278 -0.00826497 0.01511715
v 0.05361672 -0.00826693 0.01511715
v 0.05389249 -0.00826890 0.01500002
v 0.05389249 -0.00826890 0.01499053
v 0.05591049 -0.00826890 0.01499053
f 1 2 6
f 1 6 11
f 1 11 3
f 1 3 4
f 1 4 2
f 2 4 5
f 2 5 12
f 2 12 16
f 2 16 26
f 2 26 25
f 2 25 13
f 2 13 6
f 3 7 8
f 3 8 9
f 3 9 10
f 3 10 4
f 3 11 23
f 3 23 22
f 3 22 21
f 3 21 20
f 3 20 19
f 3 19 18
f 3 18 17
f 3 17 14
f 3 14 7
f 4 10 12
f 4 12 5
f 6 13 23
f 6 23 11
f 7 14 8
f 8 15 16
f 8 16 9
f 8 14 17
f 8 17 18
f 8 18 19
f 8 19 20
f 8 20 21
f 8 21 22
f 8 22 23
f 8 23 24
f 8 24 25
f 8 25 26
f 8 26 15
f 9 16 10
f 10 16 12
f 13 25 24
f 13 24 23
f 15 26 16

