# https://github.com/mikedh/trimesh
v 0.05593177 0.00834240 0.01499904
v 0.05593177 0.00834240 0.01499053
v 0.05592516 0.00834240 0.01500000
v 0.05546459 0.00736999 0.01511715
v 0.05590617 0.00825216 0.01500000
v 0.05590617 0.00825216 0.01499053
v 0.05452609 0.00834240 0.01499053
v 0.05519102 0.00753934 0.01511715
v 0.05519364 0.00753772 0.01511715
v 0.05452609 0.00834240 0.01500000
v 0.05452609 0.00789308 0.01511715
v 0.05485801 0.00772583 0.01511715
v 0.05486062 0.00772440 0.01511715
v 0.05560302 0.00736999 0.01500000
v 0.05587838 0.00816696 0.01500000
v 0.05452609 0.00736999 0.01511715
v 0.05587838 0.00816696 0.01499053
v 0.05452609 0.00736999 0.01499053
v 0.05560302 0.00736999 0.01499053
f 1 2 7
f 1 7 10
f 1 10 3
f 1 3 4
f 1 4 5
f 1 5 6
f 1 6 2
f 2 6 17
f 2 17 19
f 2 19 18
f 2 18 7
f 3 8 9
f 3 9 4
f 3 10 11
f 3 11 12
f 3 12 13
f 3 13 8
f 4 14 15
f 4 15 5
f 4 9 8
f 4 8 13
f 4 13 12
f 4 12 11
f 4 11 16
f 4 16 18
f 4 18 19
f 4 19 14
f 5 15 17
f 5 17 6
f 7 18 16
f 7 16 11
f 7 11 10
f 14 19 17
f 14 17 15

