# https://github.com/mikedh/trimesh
v 0.04771392 -0.00397283 0.03000000
v 0.04771392 -0.00820562 0.03000000
v 0.04771392 -0.00397283 0.01590809
v 0.04737553 -0.00369035 0.03000000
v 0.04768564 -0.00819545 0.03000000
v 0.04771392 -0.00820606 0.02779435
v 0.04771392 -0.00820606 0.01590809
v 0.04737553 -0.00369035 0.01590809
v 0.04281739 -0.00369035 0.03000000
v 0.04733096 -0.00805399 0.03000000
v 0.04766407 -0.00818705 0.01590809
v 0.04768564 -0.00819545 0.01590809
v 0.04281739 -0.00369035 0.01590809
v 0.04295399 -0.00397283 0.03000000
v 0.04698299 -0.00789750 0.03000000
v 0.04730987 -0.00804471 0.01590809
v 0.04733096 -0.00805399 0.01590809
v 0.04295399 -0.00397283 0.01590809
v 0.04313469 -0.00430880 0.03000000
v 0.04312367 -0.00428847 0.01590809
v 0.04664173 -0.00772553 0.03000000
v 0.04696190 -0.00788689 0.01590809
v 0.04698299 -0.00789750 0.01590809
v 0.04332977 -0.00463681 0.03000000
v 0.04313469 -0.00430880 0.01590809
v 0.04630861 -0.00753898 0.03000000
v 0.04662160 -0.00771448 0.01590809
v 0.04664173 -0.00772553 0.01590809
v 0.04353922 -0.00495643 0.03000000
v 0.04332977 -0.00463681 0.01590809
v 0.04352628 -0.00493698 0.01590809
v 0.04598413 -0.00733828 0.03000000
v 0.04628896 -0.00752705 0.01590809
v 0.04630861 -0.00753898 0.01590809
v 0.04376209 -0.00526632 0.03000000
v 0.04353922 -0.00495643 0.01590809
v 0.04356654 -0.00499621 0.01590809
v 0.04566875 -0.00712344 0.03000000
v 0.04574639 -0.00717826 0.01590809
v 0.04598413 -0.00733828 0.01590809
v 0.04399839 -0.00556604 0.03000000
v 0.04376209 -0.00526632 0.01590809
v 0.04377647 -0.00528488 0.01590809
v 0.04536295 -0.00689489 0.03000000
v 0.04545786 -0.00696827 0.01590809
v 0.04566875 -0.00712344 0.01590809
v 0.04424762 -0.00585515 0.03000000
v 0.04399839 -0.00556604 0.01590809
v 0.04506771 -0.00665352 0.03000000
v 0.04534474 -0.00688030 0.01590809
v 0.04536295 -0.00689489 0.01590809
v 0.04450932 -0.00613277 0.03000000
v 0.04424762 -0.00585515 0.01590809
v 0.04478252 -0.00639933 0.03000000
v 0.04506771 -0.00665352 0.01590809
v 0.04450932 -0.00613277 0.01590809
v 0.04478252 -0.00639933 0.01590809
f 1 2 6
f 1 6 7
f 1 7 3
f 1 3 8
f 1 8 4
f 1 4 9
f 1 9 14
f 1 14 19
f 1 19 24
f 1 24 29
f 1 29 35
f 1 35 41
f 1 41 47
f 1 47 52
f 1 52 54
f 1 54 49
f 1 49 44
f 1 44 38
f 1 38 32
f 1 32 26
f 1 26 21
f 1 21 15
f 1 15 10
f 1 10 5
f 1 5 2
f 2 5 6
f 3 7 12
f 3 12 11
f 3 11 17
f 3 17 16
f 3 16 23
f 3 23 22
f 3 22 28
f 3 28 27
f 3 27 34
f 3 34 33
f 3 33 40
f 3 40 39
f 3 39 46
f 3 46 45
f 3 45 51
f 3 51 50
f 3 50 55
f 3 55 57
f 3 57 56
f 3 56 53
f 3 53 48
f 3 48 43
f 3 43 42
f 3 42 37
f 3 37 36
f 3 36 31
f 3 31 30
f 3 30 25
f 3 25 20
f 3 20 18
f 3 18 13
f 3 13 8
f 4 8 13
f 4 13 9
f 5 10 11
f 5 11 12
f 5 12 7
f 5 7 6
f 9 13 18
f 9 18 14
f 10 15 16
f 10 16 17
f 10 17 11
f 14 18 20
f 14 20 19
f 15 21 22
f 15 22 23
f 15 23 16
f 19 20 25
f 19 25 30
f 19 30 24
f 21 26 27
f 21 27 28
f 21 28 22
f 24 30 31
f 24 31 29
f 26 32 33
f 26 33 34
f 26 34 27
f 29 31 36
f 29 36 37
f 29 37 35
f 32 38 39
f 32 39 40
f 32 40 33
f 35 37 42
f 35 42 43
f 35 43 41
f 38 44 45
f 38 45 46
f 38 46 39
f 41 43 48
f 41 48 53
f 41 53 47
f 44 49 50
f 44 50 51
f 44 51 45
f 47 53 56
f 47 56 52
f 49 54 57
f 49 57 55
f 49 55 50
f 52 56 57
f 52 57 54

