# https://github.com/mikedh/trimesh
v 0.05245818 -0.00857987 0.01511724
v 0.05256925 -0.00855849 0.01511724
v 0.05245818 -0.00857987 0.01590809
v 0.05245818 -0.00469926 0.01511724
v 0.05294089 -0.00847110 0.01511724
v 0.05256925 -0.00855849 0.01590809
v 0.05245818 -0.00469926 0.01590809
v 0.05396303 -0.00383091 0.01511724
v 0.05298258 -0.00845947 0.01511724
v 0.05294089 -0.00847110 0.01590809
v 0.05396303 -0.00383091 0.01590809
v 0.05396303 -0.00813733 0.01511724
v 0.05328161 -0.00837534 0.01511724
v 0.05328573 -0.00837441 0.01590809
v 0.05396303 -0.00813733 0.01590809
v 0.05371394 -0.00823170 0.01511724
v 0.05330827 -0.00836743 0.01511724
v 0.05330827 -0.00836743 0.01590809
v 0.05367078 -0.00824797 0.01590809
v 0.05367078 -0.00824797 0.01511724
v 0.05362851 -0.00826284 0.01511724
v 0.05360317 -0.00827121 0.01590809
v 0.05362512 -0.00826377 0.01590809
f 1 2 6
f 1 6 3
f 1 3 7
f 1 7 4
f 1 4 8
f 1 8 12
f 1 12 16
f 1 16 20
f 1 20 21
f 1 21 17
f 1 17 13
f 1 13 9
f 1 9 5
f 1 5 2
f 2 5 10
f 2 10 6
f 3 6 10
f 3 10 14
f 3 14 18
f 3 18 22
f 3 22 23
f 3 23 19
f 3 19 15
f 3 15 11
f 3 11 7
f 4 7 11
f 4 11 8
f 5 9 10
f 8 11 15
f 8 15 12
f 9 13 14
f 9 14 10
f 12 15 16
f 13 17 14
f 14 17 18
f 15 19 16
f 16 19 20
f 17 21 22
f 17 22 18
f 19 23 21
f 19 21 20
f 21 23 22

