# https://github.com/mikedh/trimesh
v 0.05204223 0.00865273 0.01590809
v 0.05204223 0.00865273 0.01511724
v 0.05204223 0.00483048 0.01590809
v 0.05234485 0.00860319 0.01590809
v 0.05234797 0.00860276 0.01511724
v 0.05204223 0.00483048 0.01511724
v 0.05344113 0.00421437 0.01590809
v 0.05271860 0.00852542 0.01590809
v 0.05272172 0.00852498 0.01511724
v 0.05344113 0.00421437 0.01511724
v 0.05841653 0.00421437 0.01590809
v 0.05274106 0.00851977 0.01590809
v 0.05308860 0.00843157 0.01590809
v 0.05308860 0.00843157 0.01511724
v 0.05841653 0.00421437 0.01511724
v 0.05836536 0.00430909 0.01590809
v 0.05329513 0.00837161 0.01590809
v 0.05325956 0.00838204 0.01511724
v 0.05836536 0.00430909 0.01511724
v 0.05817006 0.00463713 0.01590809
v 0.05345424 0.00832164 0.01590809
v 0.05343240 0.00832859 0.01511724
v 0.05328327 0.00837508 0.01511724
v 0.05817006 0.00463713 0.01511724
v 0.05796104 0.00495605 0.01590809
v 0.05363393 0.00826081 0.01590809
v 0.05362146 0.00826559 0.01511724
v 0.05345424 0.00832164 0.01511724
v 0.05796104 0.00495605 0.01511724
v 0.05793171 0.00499820 0.01511724
v 0.05791986 0.00501514 0.01590809
v 0.05381488 0.00819564 0.01590809
v 0.05381738 0.00819477 0.01511724
v 0.05790488 0.00503556 0.01511724
v 0.05773579 0.00526889 0.01511724
v 0.05773767 0.00526628 0.01590809
v 0.05416929 0.00805399 0.01590809
v 0.05412623 0.00807137 0.01511724
v 0.05772269 0.00528583 0.01511724
v 0.05770959 0.00530278 0.01590809
v 0.05419050 0.00804487 0.01590809
v 0.05417178 0.00805312 0.01511724
v 0.05750119 0.00556608 0.01511724
v 0.05750119 0.00556608 0.01590809
v 0.05451745 0.00789758 0.01590809
v 0.05451745 0.00789758 0.01511724
v 0.05725223 0.00585502 0.01511724
v 0.05725223 0.00585502 0.01590809
v 0.05485813 0.00772552 0.01590809
v 0.05481695 0.00774637 0.01511724
v 0.05722041 0.00588891 0.01511724
v 0.05699080 0.00613310 0.01590809
v 0.05519132 0.00753912 0.01590809
v 0.05486062 0.00772421 0.01511724
v 0.05485813 0.00772552 0.01511724
v 0.05699080 0.00613310 0.01511724
v 0.05673373 0.00638336 0.01590809
v 0.05551515 0.00733795 0.01590809
v 0.05547584 0.00736271 0.01511724
v 0.05519132 0.00753912 0.01511724
v 0.05671938 0.00639727 0.01511724
v 0.05671688 0.00639944 0.01590809
v 0.05551515 0.00733795 0.01511724
v 0.05573416 0.00719109 0.01590809
v 0.05668256 0.00643029 0.01511724
v 0.05644983 0.00663798 0.01590809
v 0.05571793 0.00720195 0.01511724
v 0.05575288 0.00717805 0.01590809
v 0.05574601 0.00718283 0.01511724
v 0.05643485 0.00665145 0.01511724
v 0.05643236 0.00665319 0.01590809
v 0.05583087 0.00712331 0.01511724
v 0.05574851 0.00718110 0.01511724
v 0.05583087 0.00712331 0.01590809
v 0.05639679 0.00668273 0.01511724
v 0.05615470 0.00688043 0.01590809
v 0.05602305 0.00698210 0.01590809
v 0.05603365 0.00697428 0.01511724
v 0.05613910 0.00689303 0.01511724
v 0.05613661 0.00689476 0.01590809
v 0.05604176 0.00696819 0.01590809
f 1 2 6
f 1 6 3
f 1 3 7
f 1 7 11
f 1 11 16
f 1 16 20
f 1 20 25
f 1 25 31
f 1 31 36
f 1 36 40
f 1 40 44
f 1 44 48
f 1 48 52
f 1 52 57
f 1 57 62
f 1 62 66
f 1 66 71
f 1 71 76
f 1 76 80
f 1 80 81
f 1 81 77
f 1 77 74
f 1 74 68
f 1 68 64
f 1 64 58
f 1 58 53
f 1 53 49
f 1 49 45
f 1 45 41
f 1 41 37
f 1 37 32
f 1 32 26
f 1 26 21
f 1 21 17
f 1 17 13
f 1 13 12
f 1 12 8
f 1 8 4
f 1 4 5
f 1 5 2
f 2 5 9
f 2 9 14
f 2 14 18
f 2 18 23
f 2 23 22
f 2 22 28
f 2 28 27
f 2 27 33
f 2 33 38
f 2 38 42
f 2 42 46
f 2 46 50
f 2 50 55
f 2 55 54
f 2 54 60
f 2 60 59
f 2 59 63
f 2 63 67
f 2 67 69
f 2 69 73
f 2 73 72
f 2 72 78
f 2 78 79
f 2 79 75
f 2 75 70
f 2 70 65
f 2 65 61
f 2 61 56
f 2 56 51
f 2 51 47
f 2 47 43
f 2 43 39
f 2 39 35
f 2 35 34
f 2 34 30
f 2 30 29
f 2 29 24
f 2 24 19
f 2 19 15
f 2 15 10
f 2 10 6
f 3 6 10
f 3 10 7
f 4 8 9
f 4 9 5
f 7 10 15
f 7 15 11
f 8 12 9
f 9 12 13
f 9 13 14
f 11 15 19
f 11 19 16
f 13 17 18
f 13 18 14
f 16 19 24
f 16 24 20
f 17 21 22
f 17 22 23
f 17 23 18
f 20 24 29
f 20 29 25
f 21 26 27
f 21 27 28
f 21 28 22
f 25 29 30
f 25 30 31
f 26 32 27
f 27 32 33
f 30 34 31
f 31 34 35
f 31 35 36
f 32 37 38
f 32 38 33
f 35 39 40
f 35 40 36
f 37 41 42
f 37 42 38
f 39 43 40
f 40 43 44
f 41 45 46
f 41 46 42
f 43 47 48
f 43 48 44
f 45 49 50
f 45 50 46
f 47 51 48
f 48 51 52
f 49 53 54
f 49 54 55
f 49 55 50
f 51 56 52
f 52 56 57
f 53 58 59
f 53 59 60
f 53 60 54
f 56 61 57
f 57 61 62
f 58 63 59
f 58 64 63
f 61 65 62
f 62 65 66
f 63 64 67
f 64 68 73
f 64 73 69
f 64 69 67
f 65 70 66
f 66 70 71
f 68 72 73
f 68 74 72
f 70 75 71
f 71 75 76
f 72 74 77
f 72 77 78
f 75 79 76
f 76 79 80
f 77 81 78
f 78 81 79
f 79 81 80

