# https://github.com/mikedh/trimesh
v 0.04861158 0.00451895 0.01511724
v 0.04861158 0.00451895 0.01590809
v 0.04861158 0.00848339 0.01511724
v 0.05075068 0.00500011 0.01511724
v 0.05075068 0.00500011 0.01590809
v 0.04861158 0.00848339 0.01590809
v 0.04893096 0.00855875 0.01511724
v 0.05075068 0.00874923 0.01511724
v 0.05075068 0.00874923 0.01590809
v 0.04893096 0.00855875 0.01590809
v 0.04930584 0.00862998 0.01511724
v 0.05057120 0.00874799 0.01511724
v 0.05058775 0.00874799 0.01590809
v 0.04930584 0.00862998 0.01590809
v 0.04968344 0.00868464 0.01511724
v 0.05055571 0.00874758 0.01511724
v 0.05056450 0.00874758 0.01590809
v 0.04968344 0.00868464 0.01590809
v 0.04968637 0.00868505 0.01511724
v 0.05044450 0.00874426 0.01511724
v 0.05044450 0.00874426 0.01590809
v 0.05006334 0.00872273 0.01590809
v 0.05006627 0.00872315 0.01511724
v 0.05039822 0.00874178 0.01511724
f 1 2 6
f 1 6 3
f 1 3 7
f 1 7 11
f 1 11 15
f 1 15 19
f 1 19 23
f 1 23 24
f 1 24 20
f 1 20 16
f 1 16 12
f 1 12 8
f 1 8 4
f 1 4 5
f 1 5 2
f 2 5 9
f 2 9 13
f 2 13 17
f 2 17 21
f 2 21 22
f 2 22 18
f 2 18 14
f 2 14 10
f 2 10 6
f 3 6 10
f 3 10 7
f 4 8 9
f 4 9 5
f 7 10 14
f 7 14 11
f 8 12 9
f 9 12 13
f 11 14 18
f 11 18 15
f 12 16 17
f 12 17 13
f 15 18 19
f 16 20 21
f 16 21 17
f 18 22 23
f 18 23 19
f 20 24 21
f 21 24 23
f 21 23 22

