# https://github.com/mikedh/trimesh
v 0.05543193 -0.00995384 0.00550070
v 0.05531847 -0.00987677 0.00543225
v 0.05506320 -0.00917009 0.00500000
v 0.05535059 -0.00902919 0.00500000
v 0.05574372 -0.00980092 0.00550070
v 0.05543193 -0.00995384 0.01449961
v 0.05514683 -0.00975207 0.00532565
v 0.05531847 -0.00987677 0.01456709
v 0.05467591 -0.00934240 0.00500000
v 0.05473472 -0.00940033 0.00504401
v 0.05563339 -0.00887946 0.00500000
v 0.05605071 -0.00963842 0.00550070
v 0.05574372 -0.00980092 0.01449961
v 0.05535810 -0.00904392 0.01499053
v 0.05507613 -0.00918212 0.01499053
v 0.05506570 -0.00918702 0.01499053
v 0.05504839 -0.00919488 0.01499053
v 0.05514683 -0.00975207 0.01467368
v 0.05499292 -0.00963032 0.00522590
v 0.05462878 -0.00929404 0.00500000
v 0.05467591 -0.00934240 0.01499053
v 0.05485590 -0.00951275 0.00513202
v 0.05473472 -0.00940033 0.01495533
v 0.05600066 -0.00866763 0.00500000
v 0.05601296 -0.00874888 0.00504401
v 0.05605509 -0.00928938 0.00532565
v 0.05605509 -0.00950146 0.00543225
v 0.05605071 -0.00963842 0.01449961
v 0.05564132 -0.00889395 0.01499053
v 0.05468863 -0.00935492 0.01499053
v 0.05499292 -0.00963032 0.01477441
v 0.05453764 -0.00919488 0.00500000
v 0.05462878 -0.00929404 0.01499053
v 0.05485590 -0.00951275 0.01486829
v 0.05598919 -0.00860111 0.00500000
v 0.05598919 -0.00860111 0.01499053
v 0.05600066 -0.00866788 0.01499053
v 0.05601296 -0.00874888 0.01495533
v 0.05603278 -0.00891309 0.00513202
v 0.05604717 -0.00909326 0.00522590
v 0.05605509 -0.00928938 0.01467368
v 0.05605509 -0.00950146 0.01456709
v 0.05564570 -0.00889149 0.01499053
v 0.05446006 -0.00910406 0.00500000
v 0.05453764 -0.00919488 0.01499053
v 0.05596270 -0.00846906 0.00500000
v 0.05596270 -0.00846906 0.01499053
v 0.05600316 -0.00868531 0.01499053
v 0.05603278 -0.00891309 0.01486829
v 0.05604717 -0.00909326 0.01477441
v 0.05571515 -0.00885148 0.01499053
v 0.05439561 -0.00902183 0.00500000
v 0.05446026 -0.00910406 0.01499053
v 0.05439561 -0.00902183 0.01499053
v 0.05593455 -0.00835295 0.00500000
v 0.05593455 -0.00835295 0.01499053
v 0.05434285 -0.00894942 0.00500000
v 0.05434306 -0.00894942 0.01499053
v 0.05590618 -0.00825232 0.00500000
v 0.05590597 -0.00825232 0.01499053
v 0.05430134 -0.00888732 0.00500000
v 0.05430134 -0.00888757 0.01499053
v 0.05587844 -0.00816714 0.00500000
v 0.05587844 -0.00816714 0.01499053
v 0.05392469 -0.00828300 0.00500000
v 0.05392469 -0.00828300 0.01499053
v 0.05585279 -0.00809719 0.00500000
v 0.05585279 -0.00809719 0.01499053
v 0.05392469 -0.00744647 0.00500000
v 0.05392469 -0.00744647 0.01499053
v 0.05558313 -0.00744647 0.00500000
v 0.05558313 -0.00744647 0.01499053
f 1 2 3
f 1 3 4
f 1 4 5
f 1 5 13
f 1 13 6
f 1 6 8
f 1 8 2
f 2 7 3
f 2 8 18
f 2 18 7
f 3 9 20
f 3 20 32
f 3 32 44
f 3 44 52
f 3 52 57
f 3 57 61
f 3 61 65
f 3 65 69
f 3 69 71
f 3 71 67
f 3 67 63
f 3 63 59
f 3 59 55
f 3 55 46
f 3 46 35
f 3 35 24
f 3 24 11
f 3 11 4
f 3 7 10
f 3 10 9
f 4 11 12
f 4 12 5
f 5 12 28
f 5 28 13
f 6 13 14
f 6 14 15
f 6 15 16
f 6 16 17
f 6 17 18
f 6 18 8
f 7 19 10
f 7 18 31
f 7 31 19
f 9 10 23
f 9 23 21
f 9 21 33
f 9 33 20
f 10 19 22
f 10 22 34
f 10 34 23
f 11 24 25
f 11 25 26
f 11 26 27
f 11 27 12
f 12 27 42
f 12 42 28
f 13 28 14
f 14 28 29
f 14 29 43
f 14 43 51
f 14 51 48
f 14 48 37
f 14 37 36
f 14 36 47
f 14 47 56
f 14 56 60
f 14 60 64
f 14 64 68
f 14 68 72
f 14 72 70
f 14 70 66
f 14 66 62
f 14 62 58
f 14 58 54
f 14 54 53
f 14 53 45
f 14 45 33
f 14 33 21
f 14 21 30
f 14 30 17
f 14 17 16
f 14 16 15
f 17 30 31
f 17 31 18
f 19 31 34
f 19 34 22
f 20 33 45
f 20 45 32
f 21 23 30
f 23 34 30
f 24 35 36
f 24 36 37
f 24 37 38
f 24 38 25
f 25 39 40
f 25 40 26
f 25 38 49
f 25 49 39
f 26 40 50
f 26 50 41
f 26 41 42
f 26 42 27
f 28 42 41
f 28 41 43
f 28 43 29
f 30 34 31
f 32 45 44
f 35 46 47
f 35 47 36
f 37 48 38
f 38 48 49
f 39 49 50
f 39 50 40
f 41 50 43
f 43 50 51
f 44 45 53
f 44 53 54
f 44 54 52
f 46 55 56
f 46 56 47
f 48 51 50
f 48 50 49
f 52 54 57
f 54 58 57
f 55 59 56
f 56 59 60
f 57 58 62
f 57 62 61
f 59 63 64
f 59 64 60
f 61 62 65
f 62 66 65
f 63 67 68
f 63 68 64
f 65 66 70
f 65 70 69
f 67 71 72
f 67 72 68
f 69 70 72
f 69 72 71

