# https://github.com/mikedh/trimesh
v 0.04738731 0.00847540 0.01499053
v 0.04729052 0.00871723 0.01499053
v 0.04553597 0.00847540 0.01499053
v 0.04738731 0.00847540 0.00500000
v 0.04728158 0.00873937 0.01499053
v 0.04729052 0.00871723 0.00500000
v 0.04551087 0.00860087 0.01499053
v 0.04553597 0.00847540 0.00500000
v 0.04727283 0.00875818 0.01499053
v 0.04728158 0.00873937 0.00500000
v 0.04549946 0.00866773 0.01499053
v 0.04549946 0.00866773 0.00500000
v 0.04551087 0.00860102 0.00500000
v 0.04725553 0.00879176 0.01499053
v 0.04727283 0.00875818 0.00500000
v 0.04549680 0.00868524 0.01499053
v 0.04548691 0.00874921 0.01495533
v 0.04548691 0.00874921 0.00504401
v 0.04586665 0.00887975 0.00500000
v 0.04723328 0.00883112 0.01499053
v 0.04725553 0.00879161 0.00500000
v 0.04723347 0.00883097 0.00500000
v 0.04578488 0.00885167 0.01499053
v 0.04545288 0.00909349 0.01477441
v 0.04546733 0.00891332 0.01486829
v 0.04546733 0.00891332 0.00513202
v 0.04545288 0.00909349 0.00522590
v 0.04544489 0.00928944 0.00532565
v 0.04614941 0.00902953 0.00500000
v 0.04544470 0.00950145 0.00543225
v 0.04544926 0.00963850 0.00550070
v 0.04719848 0.00888770 0.01499053
v 0.04719867 0.00888756 0.00500000
v 0.04583775 0.00888221 0.01499053
v 0.04584916 0.00888872 0.01499053
v 0.04544926 0.00963850 0.01449961
v 0.04544489 0.00928944 0.01467368
v 0.04643654 0.00917019 0.00500000
v 0.04575617 0.00980102 0.00550070
v 0.04544470 0.00950145 0.01456709
v 0.04715703 0.00894950 0.01499053
v 0.04715703 0.00894950 0.00500000
v 0.04585733 0.00889335 0.01499053
v 0.04575617 0.00980102 0.01449961
v 0.04585866 0.00889407 0.01499053
v 0.04613610 0.00904111 0.01499053
v 0.04682407 0.00934255 0.00500000
v 0.04606802 0.00995370 0.00550070
v 0.04618154 0.00987685 0.00543225
v 0.04635306 0.00975210 0.00532565
v 0.04676531 0.00940044 0.00504401
v 0.04710436 0.00902215 0.01499053
v 0.04710436 0.00902200 0.00500000
v 0.04614199 0.00904414 0.01499053
v 0.04642950 0.00918510 0.01499053
v 0.04606802 0.00995370 0.01449961
v 0.04687123 0.00929422 0.00500000
v 0.04682407 0.00934255 0.01499053
v 0.04618154 0.00987685 0.01456709
v 0.04650690 0.00963054 0.00522590
v 0.04635306 0.00975210 0.01467368
v 0.04664419 0.00951288 0.00513202
v 0.04676531 0.00940044 0.01495533
v 0.04703990 0.00910420 0.01499053
v 0.04703990 0.00910420 0.00500000
v 0.04643939 0.00918959 0.01499053
v 0.04650690 0.00963054 0.01477441
v 0.04696231 0.00919523 0.00500000
v 0.04687123 0.00929422 0.01499053
v 0.04681133 0.00935500 0.01499053
v 0.04664419 0.00951288 0.01486829
v 0.04696231 0.00919523 0.01499053
f 1 2 5
f 1 5 9
f 1 9 14
f 1 14 20
f 1 20 32
f 1 32 41
f 1 41 52
f 1 52 64
f 1 64 72
f 1 72 69
f 1 69 58
f 1 58 70
f 1 70 66
f 1 66 55
f 1 55 54
f 1 54 46
f 1 46 45
f 1 45 43
f 1 43 35
f 1 35 34
f 1 34 23
f 1 23 16
f 1 16 11
f 1 11 7
f 1 7 3
f 1 3 8
f 1 8 4
f 1 4 6
f 1 6 2
f 2 6 10
f 2 10 5
f 3 7 8
f 4 8 13
f 4 13 12
f 4 12 19
f 4 19 29
f 4 29 38
f 4 38 47
f 4 47 57
f 4 57 68
f 4 68 65
f 4 65 53
f 4 53 42
f 4 42 33
f 4 33 22
f 4 22 21
f 4 21 15
f 4 15 10
f 4 10 6
f 5 10 15
f 5 15 9
f 7 11 12
f 7 12 13
f 7 13 8
f 9 15 14
f 11 16 17
f 11 17 18
f 11 18 12
f 12 18 19
f 14 15 21
f 14 21 22
f 14 22 20
f 16 23 24
f 16 24 25
f 16 25 17
f 17 25 26
f 17 26 18
f 18 26 27
f 18 27 28
f 18 28 19
f 19 28 30
f 19 30 31
f 19 31 29
f 20 22 33
f 20 33 32
f 23 34 24
f 24 34 35
f 24 35 36
f 24 36 37
f 24 37 28
f 24 28 27
f 24 27 26
f 24 26 25
f 28 37 40
f 28 40 30
f 29 31 39
f 29 39 38
f 30 40 36
f 30 36 31
f 31 36 44
f 31 44 39
f 32 33 41
f 33 42 41
f 35 43 36
f 36 40 37
f 36 43 45
f 36 45 46
f 36 46 44
f 38 39 48
f 38 48 49
f 38 49 50
f 38 50 51
f 38 51 47
f 39 44 56
f 39 56 48
f 41 42 52
f 42 53 52
f 44 46 54
f 44 54 55
f 44 55 56
f 47 51 63
f 47 63 58
f 47 58 69
f 47 69 57
f 48 56 59
f 48 59 49
f 49 59 61
f 49 61 50
f 50 60 51
f 50 61 67
f 50 67 60
f 51 60 62
f 51 62 71
f 51 71 63
f 52 53 65
f 52 65 64
f 55 66 56
f 56 66 67
f 56 67 61
f 56 61 59
f 57 69 72
f 57 72 68
f 58 63 70
f 60 67 71
f 60 71 62
f 63 71 70
f 64 65 68
f 64 68 72
f 66 70 67
f 67 70 71

