# https://github.com/mikedh/trimesh
v 0.05901869 0.00286008 0.01511715
v 0.05901869 0.00286008 0.01499053
v 0.05485137 0.00286008 0.01511715
v 0.05910419 0.00259890 0.01511715
v 0.05923995 0.00235396 0.01500002
v 0.05485137 0.00286008 0.01499053
v 0.05923995 0.00235396 0.01499155
v 0.05922878 0.00236419 0.01499053
v 0.05542921 0.00176068 0.01511715
v 0.05911751 0.00255811 0.01511715
v 0.05923995 0.00211161 0.01511715
v 0.05912481 0.00253454 0.01511715
v 0.05920945 0.00223257 0.01511715
v 0.05922105 0.00219093 0.01511715
v 0.05542921 0.00176068 0.01499053
v 0.05923995 0.00229660 0.01499053
v 0.05923995 0.00176068 0.01511715
v 0.05923995 0.00176068 0.01499053
f 1 2 6
f 1 6 3
f 1 3 9
f 1 9 17
f 1 17 11
f 1 11 14
f 1 14 13
f 1 13 12
f 1 12 10
f 1 10 4
f 1 4 5
f 1 5 7
f 1 7 2
f 2 7 8
f 2 8 16
f 2 16 18
f 2 18 15
f 2 15 6
f 3 6 15
f 3 15 9
f 4 10 5
f 5 11 17
f 5 17 18
f 5 18 16
f 5 16 7
f 5 10 12
f 5 12 13
f 5 13 14
f 5 14 11
f 7 16 8
f 9 15 18
f 9 18 17

