# https://github.com/mikedh/trimesh
v 0.04791394 0.00525658 0.01511715
v 0.04791394 0.00411721 0.01511715
v 0.04791394 0.00525658 0.01499053
v 0.04375615 0.00525658 0.01511715
v 0.04791394 0.00411721 0.01499053
v 0.04653491 0.00268961 0.01511715
v 0.04375615 0.00525658 0.01499053
v 0.04310943 0.00485174 0.01500000
v 0.04362681 0.00508092 0.01511715
v 0.04653491 0.00268961 0.01499053
v 0.04310943 0.00268961 0.01511715
v 0.04310943 0.00485174 0.01499053
v 0.04310943 0.00425995 0.01511715
v 0.04321244 0.00444339 0.01511715
v 0.04338740 0.00472610 0.01511715
v 0.04341186 0.00476555 0.01511715
v 0.04356707 0.00499649 0.01511715
v 0.04361928 0.00507037 0.01511715
v 0.04310943 0.00268961 0.01499053
f 1 2 5
f 1 5 3
f 1 3 7
f 1 7 4
f 1 4 9
f 1 9 18
f 1 18 17
f 1 17 16
f 1 16 15
f 1 15 14
f 1 14 13
f 1 13 11
f 1 11 6
f 1 6 2
f 2 6 10
f 2 10 5
f 3 5 10
f 3 10 19
f 3 19 12
f 3 12 7
f 4 7 12
f 4 12 8
f 4 8 9
f 6 11 19
f 6 19 10
f 8 12 19
f 8 19 11
f 8 11 13
f 8 13 14
f 8 14 15
f 8 15 16
f 8 16 17
f 8 17 18
f 8 18 9

