# https://github.com/mikedh/trimesh
v 0.04737508 -0.00368988 0.03000000
v 0.04665398 -0.00286796 0.03000000
v 0.04281769 -0.00368988 0.03000000
v 0.04737508 -0.00368988 0.01590809
v 0.04248491 -0.00286796 0.03000000
v 0.04665398 -0.00286796 0.01590809
v 0.04278800 -0.00362849 0.03000000
v 0.04281769 -0.00368988 0.01590809
v 0.04248443 -0.00286796 0.01894966
v 0.04248635 -0.00287520 0.01590809
v 0.04250215 -0.00292090 0.03000000
v 0.04248443 -0.00286796 0.01590809
v 0.04263765 -0.00327783 0.03000000
v 0.04278800 -0.00362849 0.01590809
v 0.04250215 -0.00292090 0.01590809
v 0.04263765 -0.00327783 0.01590809
f 1 2 5
f 1 5 11
f 1 11 13
f 1 13 7
f 1 7 3
f 1 3 8
f 1 8 4
f 1 4 6
f 1 6 2
f 2 6 12
f 2 12 9
f 2 9 5
f 3 7 14
f 3 14 8
f 4 8 14
f 4 14 16
f 4 16 15
f 4 15 10
f 4 10 12
f 4 12 6
f 5 9 10
f 5 10 11
f 7 13 16
f 7 16 14
f 9 12 10
f 10 15 11
f 11 15 16
f 11 16 13

