# https://github.com/mikedh/trimesh
v 0.04653508 0.00268961 0.01511715
v 0.04602795 0.00164123 0.01511715
v 0.04653508 0.00268961 0.01499053
v 0.04242409 0.00268961 0.01511715
v 0.04602795 0.00164123 0.01499053
v 0.04215647 0.00164123 0.01511715
v 0.04247092 0.00268961 0.01499053
v 0.04242409 0.00268961 0.01499134
v 0.04197851 0.00225347 0.01500000
v 0.04242141 0.00268191 0.01511715
v 0.04197851 0.00164123 0.01499053
v 0.04221490 0.00192303 0.01511715
v 0.04197851 0.00164123 0.01500000
v 0.04197851 0.00225347 0.01499053
v 0.04222516 0.00197126 0.01511715
v 0.04231838 0.00233834 0.01511715
v 0.04236789 0.00250910 0.01511715
v 0.04237502 0.00253281 0.01511715
v 0.04237592 0.00253568 0.01511715
f 1 2 5
f 1 5 3
f 1 3 7
f 1 7 8
f 1 8 4
f 1 4 10
f 1 10 19
f 1 19 18
f 1 18 17
f 1 17 16
f 1 16 15
f 1 15 12
f 1 12 6
f 1 6 2
f 2 6 13
f 2 13 11
f 2 11 5
f 3 5 11
f 3 11 14
f 3 14 7
f 4 8 14
f 4 14 9
f 4 9 10
f 6 12 9
f 6 9 13
f 7 14 8
f 9 14 11
f 9 11 13
f 9 12 15
f 9 15 16
f 9 16 17
f 9 17 18
f 9 18 19
f 9 19 10

