# https://github.com/mikedh/trimesh
v 0.05075102 0.00500005 0.01511724
v 0.05204223 0.00483047 0.01511724
v 0.05075102 0.00500005 0.01590809
v 0.05075102 0.00874890 0.01511724
v 0.05204223 0.00483047 0.01590809
v 0.05204223 0.00865260 0.01511724
v 0.05075102 0.00874890 0.01590809
v 0.05082648 0.00874967 0.01511724
v 0.05204223 0.00865260 0.01590809
v 0.05197069 0.00866411 0.01511724
v 0.05199053 0.00866104 0.01590809
v 0.05082648 0.00874967 0.01590809
v 0.05092685 0.00874813 0.01511724
v 0.05196778 0.00866449 0.01511724
v 0.05196778 0.00866449 0.01590809
v 0.05092154 0.00874813 0.01590809
v 0.05094467 0.00874737 0.01590809
v 0.05120797 0.00873778 0.01590809
v 0.05121088 0.00873778 0.01511724
v 0.05192177 0.00867025 0.01511724
v 0.05161158 0.00870670 0.01590809
v 0.05123097 0.00873624 0.01590809
v 0.05158870 0.00870938 0.01511724
v 0.05158870 0.00870938 0.01590809
f 1 2 5
f 1 5 3
f 1 3 7
f 1 7 4
f 1 4 8
f 1 8 13
f 1 13 19
f 1 19 23
f 1 23 20
f 1 20 14
f 1 14 10
f 1 10 6
f 1 6 2
f 2 6 9
f 2 9 5
f 3 5 9
f 3 9 11
f 3 11 15
f 3 15 21
f 3 21 24
f 3 24 22
f 3 22 18
f 3 18 17
f 3 17 16
f 3 16 12
f 3 12 7
f 4 7 12
f 4 12 8
f 6 10 11
f 6 11 9
f 8 12 13
f 10 14 15
f 10 15 11
f 12 16 13
f 13 16 17
f 13 17 18
f 13 18 19
f 14 20 15
f 15 20 21
f 18 22 19
f 19 22 24
f 19 24 23
f 20 23 21
f 21 23 24

