# https://github.com/mikedh/trimesh
v 0.05591059 -0.00826903 0.01500000
v 0.05593435 -0.00835291 0.01500000
v 0.05591059 -0.00826903 0.01499053
v 0.05389238 -0.00826903 0.01500000
v 0.05593435 -0.00835291 0.01499053
v 0.05596245 -0.00846910 0.01500000
v 0.05389238 -0.00826903 0.01499053
v 0.05430152 -0.00888742 0.01500000
v 0.05596245 -0.00846910 0.01499053
v 0.05598911 -0.00860114 0.01500000
v 0.05430152 -0.00888742 0.01499053
v 0.05434306 -0.00894940 0.01499053
v 0.05434306 -0.00894929 0.01500000
v 0.05598911 -0.00860114 0.01499053
v 0.05600047 -0.00866769 0.01500000
v 0.05600089 -0.00866960 0.01499897
v 0.05439575 -0.00902180 0.01500000
v 0.05439575 -0.00902180 0.01499053
v 0.05600089 -0.00866960 0.01499053
v 0.05563328 -0.00887956 0.01500000
v 0.05600316 -0.00868512 0.01499054
v 0.05566221 -0.00888200 0.01499053
v 0.05600089 -0.00868661 0.01499053
v 0.05446022 -0.00910408 0.01499053
v 0.05446022 -0.00910397 0.01500000
v 0.05564258 -0.00889316 0.01499053
v 0.05565064 -0.00888859 0.01499053
v 0.05535061 -0.00902934 0.01500000
v 0.05453771 -0.00919497 0.01499053
v 0.05453771 -0.00919497 0.01500000
v 0.05535805 -0.00904391 0.01499053
v 0.05506318 -0.00916999 0.01500000
v 0.05507020 -0.00918487 0.01499053
v 0.05462883 -0.00929405 0.01499053
v 0.05462883 -0.00929405 0.01500000
v 0.05506029 -0.00918944 0.01499053
v 0.05506566 -0.00918700 0.01499053
v 0.05467615 -0.00934242 0.01500000
v 0.05467615 -0.00934242 0.01499053
v 0.05468876 -0.00935497 0.01499053
f 1 2 5
f 1 5 3
f 1 3 7
f 1 7 4
f 1 4 8
f 1 8 13
f 1 13 17
f 1 17 25
f 1 25 30
f 1 30 35
f 1 35 38
f 1 38 32
f 1 32 28
f 1 28 20
f 1 20 15
f 1 15 10
f 1 10 6
f 1 6 2
f 2 6 9
f 2 9 5
f 3 5 9
f 3 9 14
f 3 14 19
f 3 19 23
f 3 23 22
f 3 22 27
f 3 27 26
f 3 26 31
f 3 31 33
f 3 33 37
f 3 37 36
f 3 36 40
f 3 40 39
f 3 39 34
f 3 34 29
f 3 29 24
f 3 24 18
f 3 18 12
f 3 12 11
f 3 11 7
f 4 7 11
f 4 11 8
f 6 10 14
f 6 14 9
f 8 12 13
f 8 11 12
f 10 15 16
f 10 16 19
f 10 19 14
f 12 17 13
f 12 18 17
f 15 20 16
f 16 21 19
f 16 20 22
f 16 22 23
f 16 23 21
f 17 18 24
f 17 24 25
f 19 21 23
f 20 26 27
f 20 27 22
f 20 28 26
f 24 29 30
f 24 30 25
f 26 28 31
f 28 32 33
f 28 33 31
f 29 34 35
f 29 35 30
f 32 36 37
f 32 37 33
f 32 38 36
f 34 39 38
f 34 38 35
f 36 38 40
f 38 39 40

