# https://github.com/mikedh/trimesh
v 0.04883396 -0.00853655 0.01511724
v 0.04915258 -0.00860287 0.01511724
v 0.04883396 -0.00853655 0.01590809
v 0.04883396 -0.00461824 0.01511724
v 0.04915558 -0.00860327 0.01590809
v 0.04952936 -0.00866434 0.01511724
v 0.04950947 -0.00866110 0.01590809
v 0.04883396 -0.00461824 0.01590809
v 0.05075089 -0.00500000 0.01511724
v 0.04953236 -0.00866474 0.01511724
v 0.04953236 -0.00866474 0.01590809
v 0.05075089 -0.00500000 0.01590809
v 0.05075089 -0.00874886 0.01511724
v 0.04991121 -0.00870963 0.01511724
v 0.04991121 -0.00870963 0.01590809
v 0.05075089 -0.00874886 0.01590809
v 0.05070642 -0.00874927 0.01511724
v 0.05029193 -0.00873794 0.01511724
v 0.05029193 -0.00873794 0.01590809
v 0.05067359 -0.00874927 0.01590809
v 0.05067359 -0.00874927 0.01511724
v 0.05057020 -0.00874805 0.01511724
v 0.05055537 -0.00874724 0.01590809
v 0.05057845 -0.00874805 0.01590809
f 1 2 3
f 1 3 8
f 1 8 4
f 1 4 9
f 1 9 13
f 1 13 17
f 1 17 21
f 1 21 22
f 1 22 18
f 1 18 14
f 1 14 10
f 1 10 6
f 1 6 2
f 2 5 3
f 2 6 7
f 2 7 5
f 3 5 7
f 3 7 11
f 3 11 15
f 3 15 19
f 3 19 23
f 3 23 24
f 3 24 20
f 3 20 16
f 3 16 12
f 3 12 8
f 4 8 12
f 4 12 9
f 6 10 11
f 6 11 7
f 9 12 16
f 9 16 13
f 10 14 15
f 10 15 11
f 13 16 17
f 14 18 19
f 14 19 15
f 16 20 17
f 17 20 21
f 18 22 19
f 19 22 23
f 20 24 22
f 20 22 21
f 22 24 23

