# https://github.com/mikedh/trimesh
v 0.05225520 -0.00861843 0.01590809
v 0.05256921 -0.00855864 0.01590809
v 0.05225520 -0.00861843 0.03000000
v 0.05225520 -0.00476817 0.01590809
v 0.05291824 -0.00847633 0.01590809
v 0.05256921 -0.00855864 0.03000000
v 0.05225520 -0.00476817 0.03000000
v 0.05305911 -0.00443482 0.01590809
v 0.05294075 -0.00847101 0.01590809
v 0.05294075 -0.00847101 0.03000000
v 0.05305911 -0.00443482 0.03000000
v 0.05305911 -0.00843783 0.01590809
v 0.05305911 -0.00843783 0.03000000
f 1 2 6
f 1 6 3
f 1 3 7
f 1 7 4
f 1 4 8
f 1 8 12
f 1 12 9
f 1 9 5
f 1 5 2
f 2 5 6
f 3 6 10
f 3 10 13
f 3 13 11
f 3 11 7
f 4 7 11
f 4 11 8
f 5 9 10
f 5 10 6
f 8 11 13
f 8 13 12
f 9 12 13
f 9 13 10

