# https://github.com/mikedh/trimesh
v 0.05453722 -0.00788564 0.01590809
v 0.05470201 -0.00780624 0.01590809
v 0.05453722 -0.00788564 0.03000000
v 0.05453722 -0.00326332 0.01590809
v 0.05472261 -0.00779624 0.01590809
v 0.05472261 -0.00779624 0.03000000
v 0.05453722 -0.00326332 0.03000000
v 0.05523255 -0.00221269 0.01590809
v 0.05503846 -0.00762632 0.01590809
v 0.05505906 -0.00761521 0.03000000
v 0.05523255 -0.00221269 0.03000000
v 0.05921323 -0.00221269 0.01590809
v 0.05505906 -0.00761521 0.01590809
v 0.05538682 -0.00742030 0.03000000
v 0.05921323 -0.00221269 0.03000000
v 0.05918164 -0.00233874 0.01590809
v 0.05538682 -0.00742030 0.01590809
v 0.05570633 -0.00721095 0.03000000
v 0.05568711 -0.00722372 0.01590809
v 0.05918164 -0.00233874 0.03000000
v 0.05912809 -0.00252310 0.01590809
v 0.05601624 -0.00698772 0.03000000
v 0.05570633 -0.00721095 0.01590809
v 0.05574616 -0.00718319 0.01590809
v 0.05576493 -0.00716986 0.01590809
v 0.05907132 -0.00270413 0.03000000
v 0.05912168 -0.00254476 0.01590809
v 0.05631607 -0.00675172 0.03000000
v 0.05601624 -0.00698772 0.01590809
v 0.05603455 -0.00697384 0.01590809
v 0.05894590 -0.00306452 0.03000000
v 0.05901090 -0.00288405 0.01590809
v 0.05901822 -0.00286239 0.01590809
v 0.05907132 -0.00270413 0.01590809
v 0.05660492 -0.00650239 0.03000000
v 0.05605286 -0.00695940 0.01590809
v 0.05631607 -0.00675172 0.01590809
v 0.05880399 -0.00341936 0.03000000
v 0.05894590 -0.00306452 0.01590809
v 0.05688278 -0.00624084 0.03000000
v 0.05660492 -0.00650239 0.01590809
v 0.05686630 -0.00625639 0.01590809
v 0.05864744 -0.00376697 0.03000000
v 0.05879484 -0.00344046 0.01590809
v 0.05880399 -0.00341936 0.01590809
v 0.05714919 -0.00596708 0.03000000
v 0.05688278 -0.00624084 0.01590809
v 0.05713317 -0.00598374 0.01590809
v 0.05847578 -0.00410793 0.03000000
v 0.05863691 -0.00378808 0.01590809
v 0.05864744 -0.00376697 0.01590809
v 0.05740325 -0.00568221 0.03000000
v 0.05714919 -0.00596708 0.01590809
v 0.05738814 -0.00569942 0.01590809
v 0.05828901 -0.00444111 0.03000000
v 0.05846433 -0.00412848 0.01590809
v 0.05847578 -0.00410793 0.01590809
v 0.05764494 -0.00538679 0.03000000
v 0.05740325 -0.00568221 0.01590809
v 0.05808806 -0.00476596 0.03000000
v 0.05827711 -0.00446110 0.01590809
v 0.05828901 -0.00444111 0.01590809
v 0.05787337 -0.00508082 0.03000000
v 0.05764494 -0.00538679 0.01590809
v 0.05771819 -0.00529183 0.01590809
v 0.05794112 -0.00498475 0.01590809
v 0.05808806 -0.00476596 0.01590809
v 0.05787337 -0.00508082 0.01590809
v 0.05792784 -0.00500363 0.01590809
f 1 2 3
f 1 3 7
f 1 7 4
f 1 4 8
f 1 8 12
f 1 12 16
f 1 16 21
f 1 21 27
f 1 27 34
f 1 34 33
f 1 33 32
f 1 32 39
f 1 39 45
f 1 45 44
f 1 44 51
f 1 51 50
f 1 50 57
f 1 57 56
f 1 56 62
f 1 62 61
f 1 61 67
f 1 67 66
f 1 66 69
f 1 69 68
f 1 68 65
f 1 65 64
f 1 64 59
f 1 59 54
f 1 54 53
f 1 53 48
f 1 48 47
f 1 47 42
f 1 42 41
f 1 41 37
f 1 37 36
f 1 36 30
f 1 30 29
f 1 29 25
f 1 25 24
f 1 24 23
f 1 23 19
f 1 19 17
f 1 17 13
f 1 13 9
f 1 9 5
f 1 5 2
f 2 5 6
f 2 6 3
f 3 6 10
f 3 10 14
f 3 14 18
f 3 18 22
f 3 22 28
f 3 28 35
f 3 35 40
f 3 40 46
f 3 46 52
f 3 52 58
f 3 58 63
f 3 63 60
f 3 60 55
f 3 55 49
f 3 49 43
f 3 43 38
f 3 38 31
f 3 31 26
f 3 26 20
f 3 20 15
f 3 15 11
f 3 11 7
f 4 7 11
f 4 11 8
f 5 9 6
f 6 9 10
f 8 11 15
f 8 15 12
f 9 13 10
f 10 13 17
f 10 17 14
f 12 15 20
f 12 20 16
f 14 17 19
f 14 19 18
f 16 20 21
f 18 19 23
f 18 23 24
f 18 24 25
f 18 25 22
f 20 26 27
f 20 27 21
f 22 25 29
f 22 29 30
f 22 30 28
f 26 31 32
f 26 32 33
f 26 33 34
f 26 34 27
f 28 30 36
f 28 36 37
f 28 37 41
f 28 41 35
f 31 38 45
f 31 45 39
f 31 39 32
f 35 41 42
f 35 42 40
f 38 43 44
f 38 44 45
f 40 42 47
f 40 47 48
f 40 48 46
f 43 49 50
f 43 50 51
f 43 51 44
f 46 48 53
f 46 53 54
f 46 54 52
f 49 55 56
f 49 56 57
f 49 57 50
f 52 54 59
f 52 59 64
f 52 64 58
f 55 60 61
f 55 61 62
f 55 62 56
f 58 64 65
f 58 65 63
f 60 63 66
f 60 66 67
f 60 67 61
f 63 65 68
f 63 68 69
f 63 69 66

