# https://github.com/mikedh/trimesh
v 0.05378725 0.00753824 0.00500000
v 0.05378725 0.00824499 0.00500000
v 0.05557976 0.00753824 0.00500000
v 0.05378725 0.00753824 0.01499053
v 0.05439556 0.00902174 0.00500000
v 0.05378725 0.00824499 0.01499053
v 0.05580843 0.00799459 0.00500000
v 0.05557976 0.00753824 0.01499053
v 0.05446016 0.00910403 0.00500000
v 0.05439556 0.00902174 0.01499053
v 0.05445994 0.00910379 0.01499053
v 0.05582730 0.00803573 0.00500000
v 0.05580843 0.00799459 0.01499053
v 0.05453764 0.00919506 0.00500000
v 0.05453764 0.00919483 0.01499053
v 0.05585261 0.00809721 0.00500000
v 0.05582730 0.00803573 0.01499053
v 0.05462889 0.00929414 0.00500000
v 0.05462867 0.00929390 0.01499053
v 0.05587836 0.00816720 0.00500000
v 0.05585261 0.00809721 0.01499053
v 0.05467596 0.00934261 0.00500000
v 0.05467596 0.00934261 0.01499053
v 0.05590611 0.00825232 0.00500000
v 0.05587836 0.00816720 0.01499053
v 0.05506336 0.00917000 0.00500000
v 0.05473479 0.00940030 0.00504401
v 0.05468861 0.00935491 0.01499053
v 0.05473479 0.00940030 0.01495533
v 0.05593453 0.00835282 0.00500000
v 0.05590611 0.00825232 0.01499053
v 0.05535064 0.00902931 0.00500000
v 0.05514684 0.00975215 0.00532565
v 0.05531845 0.00987676 0.00543225
v 0.05543190 0.00995384 0.00550070
v 0.05485601 0.00951286 0.00513202
v 0.05499299 0.00963037 0.00522590
v 0.05499254 0.00921965 0.01499053
v 0.05485601 0.00951286 0.01486829
v 0.05596272 0.00846915 0.00500000
v 0.05593453 0.00835282 0.01499053
v 0.05563348 0.00887963 0.00500000
v 0.05574382 0.00980086 0.00550070
v 0.05514684 0.00975215 0.01467368
v 0.05531845 0.00987676 0.01456709
v 0.05543190 0.00995384 0.01449961
v 0.05499299 0.00963037 0.01477441
v 0.05506580 0.00918702 0.01499053
v 0.05598914 0.00860109 0.00500000
v 0.05598914 0.00860086 0.01499053
v 0.05596272 0.00846915 0.01499053
v 0.05600069 0.00866777 0.00500000
v 0.05605064 0.00963841 0.00550070
v 0.05605508 0.00950127 0.00543225
v 0.05605508 0.00928941 0.00532565
v 0.05574382 0.00980086 0.01449961
v 0.05506891 0.00918560 0.01499053
v 0.05535220 0.00904681 0.01499053
v 0.05600069 0.00866777 0.01499053
v 0.05601290 0.00874888 0.00504401
v 0.05600335 0.00868527 0.01499053
v 0.05605064 0.00963841 0.01449961
v 0.05605508 0.00950127 0.01456709
v 0.05605508 0.00928941 0.01467368
v 0.05604709 0.00909339 0.00522590
v 0.05535797 0.00904397 0.01499053
v 0.05563548 0.00889713 0.01499053
v 0.05603265 0.00891321 0.00513202
v 0.05601290 0.00874888 0.01495533
v 0.05603265 0.00891321 0.01486829
v 0.05604709 0.00909339 0.01477441
v 0.05565080 0.00888862 0.01499053
f 1 2 5
f 1 5 9
f 1 9 14
f 1 14 18
f 1 18 22
f 1 22 26
f 1 26 32
f 1 32 42
f 1 42 52
f 1 52 49
f 1 49 40
f 1 40 30
f 1 30 24
f 1 24 20
f 1 20 16
f 1 16 12
f 1 12 7
f 1 7 3
f 1 3 8
f 1 8 4
f 1 4 6
f 1 6 2
f 2 6 10
f 2 10 5
f 3 7 13
f 3 13 8
f 4 8 13
f 4 13 17
f 4 17 21
f 4 21 25
f 4 25 31
f 4 31 41
f 4 41 51
f 4 51 50
f 4 50 59
f 4 59 61
f 4 61 72
f 4 72 67
f 4 67 66
f 4 66 58
f 4 58 57
f 4 57 48
f 4 48 38
f 4 38 28
f 4 28 23
f 4 23 19
f 4 19 15
f 4 15 11
f 4 11 10
f 4 10 6
f 5 10 11
f 5 11 9
f 7 12 17
f 7 17 13
f 9 11 14
f 11 15 14
f 12 16 21
f 12 21 17
f 14 15 19
f 14 19 18
f 16 20 25
f 16 25 21
f 18 19 23
f 18 23 22
f 20 24 31
f 20 31 25
f 22 23 29
f 22 29 27
f 22 27 26
f 23 28 29
f 24 30 41
f 24 41 31
f 26 27 33
f 26 33 34
f 26 34 35
f 26 35 32
f 27 29 39
f 27 39 36
f 27 36 37
f 27 37 33
f 28 38 39
f 28 39 29
f 30 40 51
f 30 51 41
f 32 35 43
f 32 43 42
f 33 37 47
f 33 47 44
f 33 44 45
f 33 45 34
f 34 45 46
f 34 46 35
f 35 46 56
f 35 56 43
f 36 39 47
f 36 47 37
f 38 48 47
f 38 47 39
f 40 49 50
f 40 50 51
f 42 43 53
f 42 53 54
f 42 54 55
f 42 55 52
f 43 56 62
f 43 62 53
f 44 47 48
f 44 48 46
f 44 46 45
f 46 48 57
f 46 57 58
f 46 58 56
f 49 52 50
f 50 52 59
f 52 55 60
f 52 60 61
f 52 61 59
f 53 62 63
f 53 63 54
f 54 63 64
f 54 64 55
f 55 64 71
f 55 71 65
f 55 65 60
f 56 58 66
f 56 66 67
f 56 67 62
f 60 65 68
f 60 68 70
f 60 70 69
f 60 69 61
f 61 69 70
f 61 70 71
f 61 71 72
f 62 64 63
f 62 67 72
f 62 72 64
f 64 72 71
f 65 71 70
f 65 70 68

