# https://github.com/mikedh/trimesh
v 0.04601440 0.00160192 0.03000000
v 0.04574993 -0.00000089 0.03000000
v 0.04601440 0.00160192 0.01590809
v 0.04214805 0.00160192 0.03000000
v 0.04200148 -0.00000089 0.03000000
v 0.04574993 -0.00000089 0.01590809
v 0.04214805 0.00160192 0.01590809
v 0.04208557 0.00121769 0.03000000
v 0.04208911 0.00124044 0.01590809
v 0.04200030 0.00007645 0.03000000
v 0.04200109 -0.00000089 0.02543696
v 0.04200109 -0.00000089 0.01590809
v 0.04204038 0.00083864 0.03000000
v 0.04208557 0.00121769 0.01590809
v 0.04201209 0.00045802 0.03000000
v 0.04200187 0.00017153 0.01590809
v 0.04200030 0.00007645 0.01590809
v 0.04204038 0.00083864 0.01590809
v 0.04201209 0.00045802 0.01590809
v 0.04200266 0.00019459 0.01590809
f 1 2 6
f 1 6 3
f 1 3 7
f 1 7 4
f 1 4 8
f 1 8 13
f 1 13 15
f 1 15 10
f 1 10 5
f 1 5 2
f 2 5 11
f 2 11 12
f 2 12 6
f 3 6 12
f 3 12 17
f 3 17 16
f 3 16 20
f 3 20 19
f 3 19 18
f 3 18 14
f 3 14 9
f 3 9 7
f 4 7 9
f 4 9 8
f 5 10 11
f 8 9 14
f 8 14 18
f 8 18 13
f 10 15 16
f 10 16 17
f 10 17 12
f 10 12 11
f 13 18 19
f 13 19 15
f 15 19 20
f 15 20 16

