# https://github.com/mikedh/trimesh
v 0.04770529 0.00396597 0.01590809
v 0.04853532 0.00448162 0.01590809
v 0.04770529 0.00396597 0.03000000
v 0.04770529 0.00820082 0.01590809
v 0.04853532 0.00846459 0.01590809
v 0.04853532 0.00448162 0.03000000
v 0.04770529 0.00820082 0.03000000
v 0.04782920 0.00824794 0.01590809
v 0.04821411 0.00837432 0.01590809
v 0.04853532 0.00846459 0.02895718
v 0.04853532 0.00846415 0.03000000
v 0.04782920 0.00824794 0.03000000
v 0.04787479 0.00826379 0.01590809
v 0.04819168 0.00836727 0.01590809
v 0.04819168 0.00836727 0.03000000
v 0.04789672 0.00827128 0.01590809
f 1 2 6
f 1 6 3
f 1 3 7
f 1 7 4
f 1 4 8
f 1 8 13
f 1 13 16
f 1 16 14
f 1 14 9
f 1 9 5
f 1 5 2
f 2 5 10
f 2 10 11
f 2 11 6
f 3 6 11
f 3 11 15
f 3 15 12
f 3 12 7
f 4 7 12
f 4 12 8
f 5 9 10
f 8 12 13
f 9 14 15
f 9 15 10
f 10 15 11
f 12 15 16
f 12 16 13
f 14 16 15

