# https://github.com/mikedh/trimesh
v 0.05657108 -0.00702573 0.01499053
v 0.05657108 -0.00702573 0.01500000
v 0.05688767 -0.00702573 0.01499053
v 0.05673380 -0.00722145 0.01499053
v 0.05688767 -0.00702573 0.01500000
v 0.05673380 -0.00722145 0.01500000
v 0.05688767 -0.00736592 0.01499053
v 0.05674920 -0.00723980 0.01499053
v 0.05688767 -0.00736596 0.01500000
v 0.05674920 -0.00723980 0.01500000
v 0.05688767 -0.00736596 0.01499275
v 0.05687394 -0.00735517 0.01499053
v 0.05676330 -0.00725492 0.01499053
v 0.05676327 -0.00725492 0.01500000
v 0.05687388 -0.00735510 0.01500000
v 0.05682327 -0.00731207 0.01500000
v 0.05682333 -0.00731211 0.01499053
v 0.05679011 -0.00728150 0.01499053
v 0.05679008 -0.00728147 0.01500000
f 1 2 5
f 1 5 3
f 1 3 7
f 1 7 12
f 1 12 17
f 1 17 18
f 1 18 13
f 1 13 8
f 1 8 4
f 1 4 6
f 1 6 2
f 2 6 10
f 2 10 14
f 2 14 19
f 2 19 16
f 2 16 15
f 2 15 9
f 2 9 5
f 3 5 9
f 3 9 11
f 3 11 7
f 4 8 10
f 4 10 6
f 7 11 12
f 8 13 14
f 8 14 10
f 9 15 12
f 9 12 11
f 12 15 16
f 12 16 17
f 13 18 14
f 14 18 19
f 16 19 18
f 16 18 17

