# https://github.com/mikedh/trimesh
v 0.04689044 0.00317737 0.01590809
v 0.04604415 0.00168847 0.01590809
v 0.04689044 0.00317737 0.01511724
v 0.04259936 0.00317737 0.01590809
v 0.04604415 0.00168847 0.01511724
v 0.04216605 0.00168847 0.01590809
v 0.04259936 0.00317737 0.01511724
v 0.04256283 0.00308570 0.01590809
v 0.04216605 0.00168847 0.01511724
v 0.04222432 0.00196844 0.01590809
v 0.04255543 0.00306704 0.01511724
v 0.04255451 0.00306428 0.01590809
v 0.04222432 0.00196844 0.01511724
v 0.04231866 0.00233848 0.01590809
v 0.04230709 0.00229359 0.01511724
v 0.04254572 0.00304096 0.01511724
v 0.04248930 0.00288385 0.01590809
v 0.04237184 0.00252255 0.01590809
v 0.04237554 0.00253567 0.01511724
v 0.04231866 0.00233848 0.01511724
v 0.04248560 0.00287364 0.01511724
v 0.04247728 0.00284901 0.01511724
v 0.04242872 0.00270386 0.01590809
v 0.04242872 0.00270386 0.01511724
f 1 2 5
f 1 5 3
f 1 3 7
f 1 7 4
f 1 4 8
f 1 8 12
f 1 12 17
f 1 17 23
f 1 23 18
f 1 18 14
f 1 14 10
f 1 10 6
f 1 6 2
f 2 6 9
f 2 9 5
f 3 5 9
f 3 9 13
f 3 13 15
f 3 15 20
f 3 20 19
f 3 19 24
f 3 24 22
f 3 22 21
f 3 21 16
f 3 16 11
f 3 11 7
f 4 7 8
f 6 10 13
f 6 13 9
f 7 11 8
f 8 11 12
f 10 14 15
f 10 15 13
f 11 16 12
f 12 16 17
f 14 18 19
f 14 19 20
f 14 20 15
f 16 21 17
f 17 21 22
f 17 22 23
f 18 23 19
f 19 23 24
f 22 24 23

