# https://github.com/mikedh/trimesh
v 0.05688782 -0.00736590 0.01499053
v 0.05693267 -0.00740115 0.01499053
v 0.05693252 -0.00740115 0.01500000
v 0.05688782 -0.00736590 0.01500000
v 0.05688782 -0.00561058 0.01499053
v 0.05700514 -0.00745383 0.01499053
v 0.05700514 -0.00745383 0.01500000
v 0.05688782 -0.00623621 0.01511715
v 0.05688782 -0.00561058 0.01511715
v 0.05765211 -0.00561058 0.01499053
v 0.05709196 -0.00751197 0.01499053
v 0.05709181 -0.00751197 0.01500000
v 0.05719372 -0.00757458 0.01500000
v 0.05731104 -0.00764062 0.01500000
v 0.05737083 -0.00767203 0.01500000
v 0.05768593 -0.00738839 0.01500000
v 0.05791573 -0.00716573 0.01500000
v 0.05714737 -0.00596979 0.01511715
v 0.05746278 -0.00561058 0.01511715
v 0.05806204 -0.00607352 0.01499053
v 0.05765211 -0.00561058 0.01500000
v 0.05719372 -0.00757458 0.01499053
v 0.05731119 -0.00764062 0.01499053
v 0.05737083 -0.00767203 0.01499053
v 0.05738668 -0.00768013 0.01499053
v 0.05763414 -0.00745727 0.01499053
v 0.05769348 -0.00740379 0.01499053
v 0.05769605 -0.00740135 0.01499053
v 0.05770194 -0.00739568 0.01499053
v 0.05792736 -0.00717728 0.01499053
v 0.05793189 -0.00717262 0.01499053
v 0.05813843 -0.00693599 0.01500000
v 0.05718013 -0.00593312 0.01511715
v 0.05842214 -0.00662094 0.01500000
v 0.05740374 -0.00568271 0.01511715
v 0.05839058 -0.00656118 0.01500000
v 0.05832460 -0.00644367 0.01500000
v 0.05826194 -0.00634197 0.01500000
v 0.05820381 -0.00625505 0.01500000
v 0.05815112 -0.00618252 0.01500000
v 0.05810507 -0.00612397 0.01500000
v 0.05806204 -0.00607352 0.01500000
v 0.05810507 -0.00612397 0.01499053
v 0.05815036 -0.00694713 0.01499053
v 0.05815383 -0.00694348 0.01499053
v 0.05843014 -0.00663675 0.01499053
v 0.05842214 -0.00662094 0.01499053
v 0.05839058 -0.00656118 0.01499053
v 0.05832460 -0.00644367 0.01499053
v 0.05826194 -0.00634176 0.01499053
v 0.05820381 -0.00625505 0.01499053
v 0.05815112 -0.00618252 0.01499053
f 1 2 3
f 1 3 4
f 1 4 8
f 1 8 9
f 1 9 5
f 1 5 10
f 1 10 20
f 1 20 43
f 1 43 52
f 1 52 51
f 1 51 50
f 1 50 49
f 1 49 48
f 1 48 47
f 1 47 46
f 1 46 45
f 1 45 44
f 1 44 31
f 1 31 30
f 1 30 29
f 1 29 28
f 1 28 27
f 1 27 26
f 1 26 25
f 1 25 24
f 1 24 23
f 1 23 22
f 1 22 11
f 1 11 6
f 1 6 2
f 2 6 3
f 3 6 7
f 3 7 8
f 3 8 4
f 5 9 19
f 5 19 21
f 5 21 10
f 6 11 12
f 6 12 7
f 7 12 8
f 8 12 13
f 8 13 14
f 8 14 15
f 8 15 16
f 8 16 17
f 8 17 18
f 8 18 33
f 8 33 35
f 8 35 19
f 8 19 9
f 10 21 42
f 10 42 20
f 11 22 12
f 12 22 13
f 13 22 14
f 14 23 24
f 14 24 15
f 14 22 23
f 15 24 25
f 15 25 16
f 16 25 26
f 16 26 27
f 16 27 28
f 16 28 29
f 16 29 30
f 16 30 17
f 17 30 31
f 17 31 32
f 17 32 18
f 18 32 34
f 18 34 33
f 19 35 34
f 19 34 36
f 19 36 37
f 19 37 38
f 19 38 39
f 19 39 40
f 19 40 41
f 19 41 42
f 19 42 21
f 20 42 41
f 20 41 43
f 31 44 32
f 32 44 45
f 32 45 46
f 32 46 34
f 33 34 35
f 34 46 47
f 34 47 48
f 34 48 36
f 36 48 49
f 36 49 37
f 37 49 50
f 37 50 38
f 38 50 39
f 39 50 51
f 39 51 52
f 39 52 40
f 40 52 43
f 40 43 41

