# https://github.com/mikedh/trimesh
v 0.05600099 -0.00561056 0.01511715
v 0.05600099 -0.00699883 0.01511715
v 0.05600099 -0.00561056 0.01499053
v 0.05361672 -0.00561056 0.01511715
v 0.05600099 -0.00699883 0.01499053
v 0.05575057 -0.00718017 0.01511715
v 0.05558533 -0.00743380 0.01500000
v 0.05361672 -0.00561056 0.01499053
v 0.05361672 -0.00743380 0.01511715
v 0.05558533 -0.00743380 0.01499053
v 0.05574800 -0.00718196 0.01511715
v 0.05570599 -0.00721105 0.01511715
v 0.05538672 -0.00742041 0.01511715
v 0.05536408 -0.00743380 0.01511715
v 0.05361672 -0.00743380 0.01499053
f 1 2 5
f 1 5 3
f 1 3 8
f 1 8 4
f 1 4 9
f 1 9 14
f 1 14 13
f 1 13 12
f 1 12 11
f 1 11 6
f 1 6 2
f 2 6 7
f 2 7 10
f 2 10 5
f 3 5 10
f 3 10 15
f 3 15 8
f 4 8 15
f 4 15 9
f 6 11 7
f 7 11 12
f 7 12 13
f 7 13 14
f 7 14 9
f 7 9 15
f 7 15 10

