# https://github.com/mikedh/trimesh
v 0.04221356 -0.00191421 0.01511724
v 0.04227813 -0.00218824 0.01511724
v 0.04221356 -0.00191421 0.01590809
v 0.04613053 -0.00191421 0.01511724
v 0.04227911 -0.00219122 0.01590809
v 0.04227373 -0.00216858 0.01590809
v 0.04237449 -0.00253197 0.01511724
v 0.04236960 -0.00251410 0.01590809
v 0.04613053 -0.00191421 0.01590809
v 0.04721053 -0.00353160 0.01511724
v 0.04238231 -0.00255878 0.01511724
v 0.04238231 -0.00255878 0.01590809
v 0.04721053 -0.00353160 0.01590809
v 0.04721053 -0.00800011 0.01511724
v 0.04248454 -0.00287034 0.01511724
v 0.04248601 -0.00287570 0.01590809
v 0.04721053 -0.00800011 0.01590809
v 0.04698260 -0.00789705 0.01511724
v 0.04250215 -0.00292098 0.01511724
v 0.04250215 -0.00292098 0.01590809
v 0.04698260 -0.00789705 0.01590809
v 0.04698015 -0.00789586 0.01511724
v 0.04251829 -0.00296447 0.01511724
v 0.04263715 -0.00327782 0.01590809
v 0.04696205 -0.00788692 0.01590809
v 0.04663923 -0.00772429 0.01511724
v 0.04263617 -0.00327543 0.01511724
v 0.04263715 -0.00327782 0.01511724
v 0.04278780 -0.00362870 0.01590809
v 0.04664167 -0.00772548 0.01590809
v 0.04630857 -0.00753902 0.01590809
v 0.04630857 -0.00753902 0.01511724
v 0.04278780 -0.00362870 0.01511724
v 0.04294384 -0.00395218 0.01590809
v 0.04598428 -0.00733826 0.01590809
v 0.04602341 -0.00736269 0.01511724
v 0.04295264 -0.00397005 0.01511724
v 0.04295411 -0.00397243 0.01590809
v 0.04576564 -0.00719112 0.01590809
v 0.04578129 -0.00720184 0.01511724
v 0.04598428 -0.00733826 0.01511724
v 0.04297563 -0.00401354 0.01511724
v 0.04313460 -0.00430901 0.01590809
v 0.04574656 -0.00717801 0.01590809
v 0.04575047 -0.00718099 0.01511724
v 0.04313313 -0.00430663 0.01511724
v 0.04315808 -0.00434893 0.01511724
v 0.04332976 -0.00463726 0.01590809
v 0.04566879 -0.00712321 0.01590809
v 0.04567906 -0.00713095 0.01511724
v 0.04332976 -0.00463726 0.01511724
v 0.04353911 -0.00495656 0.01590809
v 0.04547656 -0.00698202 0.01590809
v 0.04546580 -0.00697428 0.01511724
v 0.04353911 -0.00495656 0.01511724
v 0.04356650 -0.00499529 0.01590809
v 0.04545797 -0.00696832 0.01590809
v 0.04536259 -0.00689505 0.01511724
v 0.04356993 -0.00500005 0.01511724
v 0.04358020 -0.00501435 0.01590809
v 0.04536259 -0.00689505 0.01590809
v 0.04506471 -0.00665139 0.01511724
v 0.04376215 -0.00526574 0.01511724
v 0.04376215 -0.00526574 0.01590809
v 0.04506716 -0.00665318 0.01590809
v 0.04478004 -0.00639702 0.01511724
v 0.04377879 -0.00528779 0.01511724
v 0.04379052 -0.00530268 0.01590809
v 0.04478248 -0.00639881 0.01590809
v 0.04476585 -0.00638272 0.01590809
v 0.04450710 -0.00613073 0.01511724
v 0.04399841 -0.00556539 0.01511724
v 0.04399841 -0.00556539 0.01590809
v 0.04450955 -0.00613252 0.01590809
v 0.04449341 -0.00611584 0.01590809
v 0.04424786 -0.00585432 0.01590809
v 0.04424591 -0.00585253 0.01511724
v 0.04423270 -0.00583704 0.01590809
f 1 2 3
f 1 3 9
f 1 9 4
f 1 4 10
f 1 10 14
f 1 14 18
f 1 18 22
f 1 22 26
f 1 26 32
f 1 32 36
f 1 36 41
f 1 41 40
f 1 40 45
f 1 45 50
f 1 50 54
f 1 54 58
f 1 58 62
f 1 62 66
f 1 66 71
f 1 71 77
f 1 77 72
f 1 72 67
f 1 67 63
f 1 63 59
f 1 59 55
f 1 55 51
f 1 51 47
f 1 47 46
f 1 46 42
f 1 42 37
f 1 37 33
f 1 33 28
f 1 28 27
f 1 27 23
f 1 23 19
f 1 19 15
f 1 15 11
f 1 11 7
f 1 7 2
f 2 5 6
f 2 6 3
f 2 7 8
f 2 8 5
f 3 6 5
f 3 5 8
f 3 8 12
f 3 12 16
f 3 16 20
f 3 20 24
f 3 24 29
f 3 29 34
f 3 34 38
f 3 38 43
f 3 43 48
f 3 48 52
f 3 52 56
f 3 56 60
f 3 60 64
f 3 64 68
f 3 68 73
f 3 73 78
f 3 78 76
f 3 76 75
f 3 75 74
f 3 74 70
f 3 70 69
f 3 69 65
f 3 65 61
f 3 61 57
f 3 57 53
f 3 53 49
f 3 49 44
f 3 44 39
f 3 39 35
f 3 35 31
f 3 31 30
f 3 30 25
f 3 25 21
f 3 21 17
f 3 17 13
f 3 13 9
f 4 9 13
f 4 13 10
f 7 11 12
f 7 12 8
f 10 13 17
f 10 17 14
f 11 15 16
f 11 16 12
f 14 17 21
f 14 21 18
f 15 19 16
f 16 19 20
f 18 21 22
f 19 23 20
f 20 23 24
f 21 25 22
f 22 25 26
f 23 27 24
f 24 27 28
f 24 28 33
f 24 33 29
f 25 30 26
f 26 30 31
f 26 31 32
f 29 33 34
f 31 35 36
f 31 36 32
f 33 37 34
f 34 37 38
f 35 39 40
f 35 40 41
f 35 41 36
f 37 42 38
f 38 42 43
f 39 44 45
f 39 45 40
f 42 46 43
f 43 46 47
f 43 47 48
f 44 49 50
f 44 50 45
f 47 51 48
f 48 51 55
f 48 55 52
f 49 53 50
f 50 53 54
f 52 55 56
f 53 57 54
f 54 57 58
f 55 59 56
f 56 59 60
f 57 61 58
f 58 61 62
f 59 63 60
f 60 63 64
f 61 65 62
f 62 65 69
f 62 69 66
f 63 67 64
f 64 67 68
f 66 69 70
f 66 70 71
f 67 72 68
f 68 72 73
f 70 74 71
f 71 74 75
f 71 75 76
f 71 76 77
f 72 77 73
f 73 77 78
f 76 78 77

