# https://github.com/mikedh/trimesh
v 0.04167229 0.00232294 0.01499053
v 0.04166420 0.00232503 0.01499053
v 0.04167229 0.00057611 0.01499053
v 0.04167229 0.00232294 0.00500000
v 0.04164102 0.00233077 0.01499053
v 0.04166420 0.00232503 0.00500000
v 0.04136645 0.00059804 0.01499053
v 0.04167229 0.00057611 0.00980946
v 0.04167229 0.00057629 0.00500000
v 0.04162072 0.00233477 0.01499053
v 0.04164102 0.00233077 0.00500000
v 0.04134596 0.00060065 0.01499053
v 0.04136645 0.00059804 0.00500000
v 0.04158334 0.00234051 0.01499053
v 0.04162072 0.00233477 0.00500000
v 0.04130876 0.00060657 0.01499053
v 0.04134596 0.00060065 0.00500000
v 0.04153842 0.00234573 0.01499053
v 0.04158334 0.00234051 0.00500000
v 0.04153860 0.00234573 0.00500000
v 0.04126456 0.00061561 0.01499053
v 0.04130876 0.00060657 0.00500000
v 0.04147229 0.00235078 0.01499053
v 0.04147229 0.00235078 0.00500000
v 0.04120004 0.00063110 0.01499053
v 0.04126456 0.00061561 0.00500000
v 0.04139771 0.00235357 0.01499053
v 0.04139789 0.00235357 0.00500000
v 0.04112817 0.00065146 0.01499053
v 0.04112817 0.00065146 0.00500000
v 0.04119987 0.00063128 0.00500000
v 0.04130804 0.00235357 0.01499053
v 0.04130822 0.00235357 0.00500000
v 0.04104317 0.00067913 0.01499053
v 0.04104299 0.00067913 0.00500000
v 0.04120364 0.00234974 0.01499053
v 0.04120382 0.00234974 0.00500000
v 0.04094505 0.00071515 0.01499053
v 0.04094487 0.00071515 0.00500000
v 0.04108450 0.00234051 0.01499053
v 0.04108468 0.00234051 0.00500000
v 0.04083454 0.00076075 0.01499053
v 0.04083436 0.00076075 0.00500000
v 0.04095080 0.00232503 0.01499053
v 0.04095080 0.00232503 0.00500000
v 0.04071235 0.00081696 0.01499053
v 0.04071217 0.00081696 0.00500000
v 0.04088396 0.00231528 0.01499053
v 0.04088396 0.00231528 0.00500000
v 0.04065161 0.00084689 0.01499053
v 0.04065161 0.00084689 0.00500000
v 0.04080273 0.00230171 0.01495533
v 0.04086653 0.00231232 0.01499053
v 0.04079573 0.00190041 0.00500000
v 0.04080273 0.00230171 0.00504401
v 0.04063579 0.00085507 0.01499053
v 0.04057847 0.00088465 0.01495533
v 0.04057847 0.00088465 0.00504401
v 0.04069581 0.00126854 0.00500000
v 0.04064065 0.00226986 0.01486829
v 0.04046472 0.00222792 0.01477441
v 0.04079716 0.00198673 0.01499053
v 0.04074092 0.00158526 0.00500000
v 0.03988556 0.00172065 0.00550070
v 0.03994522 0.00206278 0.00550070
v 0.04007424 0.00210941 0.00543225
v 0.04027586 0.00217485 0.00532565
v 0.04046472 0.00222792 0.00522590
v 0.04064065 0.00226986 0.00513202
v 0.04067820 0.00125984 0.01499053
v 0.04027963 0.00105954 0.01477441
v 0.04043399 0.00096522 0.01486829
v 0.04043399 0.00096522 0.00513202
v 0.04027963 0.00105954 0.00522590
v 0.04011647 0.00116831 0.00532565
v 0.03994486 0.00129291 0.00543225
v 0.03983650 0.00137696 0.00550070
v 0.04027586 0.00217485 0.01467368
v 0.03994522 0.00206278 0.01449961
v 0.04078171 0.00191416 0.01499053
v 0.03988556 0.00172065 0.01449961
v 0.04007424 0.00210941 0.01456709
v 0.04067946 0.00127063 0.01499053
v 0.03983650 0.00137696 0.01449961
v 0.04011647 0.00116831 0.01467368
v 0.03994486 0.00129291 0.01456709
v 0.04077955 0.00190355 0.01499053
v 0.04072474 0.00158770 0.01499053
f 1 2 5
f 1 5 10
f 1 10 14
f 1 14 18
f 1 18 23
f 1 23 27
f 1 27 32
f 1 32 36
f 1 36 40
f 1 40 44
f 1 44 48
f 1 48 53
f 1 53 62
f 1 62 80
f 1 80 87
f 1 87 88
f 1 88 83
f 1 83 70
f 1 70 56
f 1 56 50
f 1 50 46
f 1 46 42
f 1 42 38
f 1 38 34
f 1 34 29
f 1 29 25
f 1 25 21
f 1 21 16
f 1 16 12
f 1 12 7
f 1 7 3
f 1 3 8
f 1 8 9
f 1 9 4
f 1 4 6
f 1 6 2
f 2 6 11
f 2 11 5
f 3 7 13
f 3 13 8
f 4 9 13
f 4 13 17
f 4 17 22
f 4 22 26
f 4 26 31
f 4 31 30
f 4 30 35
f 4 35 39
f 4 39 43
f 4 43 47
f 4 47 51
f 4 51 59
f 4 59 63
f 4 63 54
f 4 54 49
f 4 49 45
f 4 45 41
f 4 41 37
f 4 37 33
f 4 33 28
f 4 28 24
f 4 24 20
f 4 20 19
f 4 19 15
f 4 15 11
f 4 11 6
f 5 11 15
f 5 15 10
f 7 12 17
f 7 17 13
f 8 13 9
f 10 15 19
f 10 19 14
f 12 16 22
f 12 22 17
f 14 19 20
f 14 20 18
f 16 21 26
f 16 26 22
f 18 20 23
f 20 24 23
f 21 25 26
f 23 24 28
f 23 28 27
f 25 29 30
f 25 30 31
f 25 31 26
f 27 28 33
f 27 33 32
f 29 34 35
f 29 35 30
f 32 33 37
f 32 37 36
f 34 38 39
f 34 39 35
f 36 37 41
f 36 41 40
f 38 42 43
f 38 43 39
f 40 41 45
f 40 45 44
f 42 46 47
f 42 47 43
f 44 45 49
f 44 49 48
f 46 50 47
f 47 50 51
f 48 49 55
f 48 55 52
f 48 52 53
f 49 54 55
f 50 56 57
f 50 57 58
f 50 58 51
f 51 58 59
f 52 60 53
f 52 55 69
f 52 69 60
f 53 60 61
f 53 61 62
f 54 63 64
f 54 64 65
f 54 65 66
f 54 66 67
f 54 67 55
f 55 67 68
f 55 68 69
f 56 70 71
f 56 71 72
f 56 72 57
f 57 72 73
f 57 73 58
f 58 73 74
f 58 74 75
f 58 75 59
f 59 75 76
f 59 76 77
f 59 77 63
f 60 69 68
f 60 68 61
f 61 78 79
f 61 79 80
f 61 80 62
f 61 68 67
f 61 67 78
f 63 77 64
f 64 77 84
f 64 84 81
f 64 81 79
f 64 79 65
f 65 79 82
f 65 82 66
f 66 82 78
f 66 78 67
f 70 83 84
f 70 84 71
f 71 84 85
f 71 85 75
f 71 75 74
f 71 74 73
f 71 73 72
f 75 85 86
f 75 86 76
f 76 86 84
f 76 84 77
f 78 82 79
f 79 81 87
f 79 87 80
f 81 84 83
f 81 83 88
f 81 88 87
f 84 86 85

