# https://github.com/mikedh/trimesh
v 0.05600099 -0.00699885 0.01499053
v 0.05657105 -0.00702573 0.01499053
v 0.05600099 -0.00699885 0.01511715
v 0.05600099 -0.00561038 0.01499053
v 0.05688767 -0.00702573 0.01499053
v 0.05657105 -0.00702573 0.01500000
v 0.05688767 -0.00702573 0.01500000
v 0.05601592 -0.00698804 0.01511715
v 0.05600099 -0.00561038 0.01511715
v 0.05688767 -0.00561038 0.01499053
v 0.05635077 -0.00672149 0.01511715
v 0.05631570 -0.00675169 0.01511715
v 0.05603796 -0.00697128 0.01511715
v 0.05601852 -0.00698610 0.01511715
v 0.05688767 -0.00623618 0.01511715
v 0.05688299 -0.00624103 0.01511715
v 0.05688082 -0.00624310 0.01511715
v 0.05660490 -0.00650245 0.01511715
v 0.05688767 -0.00561038 0.01511715
f 1 2 6
f 1 6 3
f 1 3 9
f 1 9 4
f 1 4 10
f 1 10 5
f 1 5 2
f 2 5 7
f 2 7 6
f 3 6 7
f 3 7 8
f 3 8 14
f 3 14 13
f 3 13 12
f 3 12 11
f 3 11 18
f 3 18 17
f 3 17 16
f 3 16 15
f 3 15 19
f 3 19 9
f 4 9 19
f 4 19 10
f 5 10 19
f 5 19 15
f 5 15 7
f 7 11 12
f 7 12 13
f 7 13 14
f 7 14 8
f 7 15 16
f 7 16 17
f 7 17 18
f 7 18 11

