# https://github.com/mikedh/trimesh
v 0.05027319 -0.00887570 0.01500000
v 0.05013449 -0.00948552 0.01500000
v 0.05027319 -0.00887570 0.01499110
v 0.04847861 -0.00887570 0.01500000
v 0.05011887 -0.00954989 0.01500000
v 0.05011887 -0.00954989 0.01499053
v 0.05013449 -0.00948540 0.01499053
v 0.05027246 -0.00887643 0.01499053
v 0.05026805 -0.00887570 0.01499053
v 0.04847861 -0.00887570 0.01499148
v 0.04842496 -0.00908568 0.01500000
v 0.05009848 -0.00962167 0.01500000
v 0.05009848 -0.00962154 0.01499053
v 0.04849790 -0.00887570 0.01499053
v 0.04842496 -0.00908568 0.01499053
v 0.04841927 -0.00910896 0.01500000
v 0.05007073 -0.00970689 0.01500000
v 0.05007092 -0.00970677 0.01499053
v 0.04841927 -0.00910908 0.01499053
v 0.04841522 -0.00912933 0.01499053
v 0.04841522 -0.00912933 0.01500000
v 0.05003472 -0.00980497 0.01500000
v 0.05003491 -0.00980485 0.01499053
v 0.04840953 -0.00916655 0.01499053
v 0.04840953 -0.00916655 0.01500000
v 0.04998916 -0.00991542 0.01500000
v 0.04998916 -0.00991530 0.01499053
v 0.04840420 -0.00921152 0.01499053
v 0.04840420 -0.00921140 0.01500000
v 0.04993313 -0.01003787 0.01500000
v 0.04993313 -0.01003775 0.01499053
v 0.04839924 -0.00927772 0.01499053
v 0.04839924 -0.00927760 0.01500000
v 0.04990318 -0.01009849 0.01500000
v 0.04990318 -0.01009849 0.01499053
v 0.04839630 -0.00935216 0.01499053
v 0.04839630 -0.00935216 0.01500000
v 0.04948136 -0.01005424 0.01500000
v 0.04950322 -0.01007315 0.01499053
v 0.04989510 -0.01011413 0.01499053
v 0.04839630 -0.00944175 0.01500000
v 0.04839648 -0.00944187 0.01499053
v 0.04948081 -0.01007072 0.01499053
v 0.04916481 -0.01000914 0.01500000
v 0.04916223 -0.01002538 0.01499053
v 0.04840034 -0.00954614 0.01499053
v 0.04840034 -0.00954601 0.01500000
v 0.04884954 -0.00995409 0.01500000
v 0.04884495 -0.00996998 0.01499053
v 0.04840953 -0.00966531 0.01499053
v 0.04840953 -0.00966519 0.01500000
v 0.04843488 -0.00986584 0.01500000
v 0.04843764 -0.00988341 0.01499053
v 0.04882290 -0.00996537 0.01499053
v 0.04842514 -0.00979903 0.01500000
v 0.04842514 -0.00979903 0.01499053
v 0.04843488 -0.00986584 0.01499053
f 1 2 3
f 1 3 9
f 1 9 14
f 1 14 10
f 1 10 4
f 1 4 11
f 1 11 16
f 1 16 21
f 1 21 25
f 1 25 29
f 1 29 33
f 1 33 37
f 1 37 41
f 1 41 47
f 1 47 51
f 1 51 55
f 1 55 52
f 1 52 48
f 1 48 44
f 1 44 38
f 1 38 34
f 1 34 30
f 1 30 26
f 1 26 22
f 1 22 17
f 1 17 12
f 1 12 5
f 1 5 2
f 2 5 6
f 2 6 7
f 2 7 3
f 3 8 9
f 3 7 8
f 4 10 15
f 4 15 11
f 5 12 6
f 6 12 13
f 6 13 18
f 6 18 23
f 6 23 27
f 6 27 31
f 6 31 35
f 6 35 40
f 6 40 39
f 6 39 43
f 6 43 45
f 6 45 49
f 6 49 54
f 6 54 53
f 6 53 57
f 6 57 56
f 6 56 50
f 6 50 46
f 6 46 42
f 6 42 36
f 6 36 32
f 6 32 28
f 6 28 24
f 6 24 20
f 6 20 19
f 6 19 15
f 6 15 14
f 6 14 9
f 6 9 8
f 6 8 7
f 10 14 15
f 11 15 16
f 12 17 18
f 12 18 13
f 15 19 16
f 16 19 20
f 16 20 21
f 17 22 23
f 17 23 18
f 20 24 25
f 20 25 21
f 22 26 23
f 23 26 27
f 24 28 29
f 24 29 25
f 26 30 31
f 26 31 27
f 28 32 33
f 28 33 29
f 30 34 35
f 30 35 31
f 32 36 33
f 33 36 37
f 34 38 39
f 34 39 40
f 34 40 35
f 36 41 37
f 36 42 41
f 38 43 39
f 38 44 45
f 38 45 43
f 41 46 47
f 41 42 46
f 44 48 45
f 45 48 49
f 46 50 51
f 46 51 47
f 48 52 53
f 48 53 54
f 48 54 49
f 50 55 51
f 50 56 55
f 52 55 56
f 52 56 57
f 52 57 53

