# https://github.com/mikedh/trimesh
v 0.05831491 0.00286041 0.01499053
v 0.05901901 0.00286041 0.01499053
v 0.05831491 0.00286041 0.01511715
v 0.05831491 0.00483252 0.01499053
v 0.05902060 0.00314716 0.01499053
v 0.05901901 0.00286041 0.01511715
v 0.05831491 0.00439395 0.01511715
v 0.05831491 0.00483252 0.01500002
v 0.05870426 0.00503795 0.01499053
v 0.05902060 0.00314716 0.01500002
v 0.05902060 0.00516117 0.01499053
v 0.05901493 0.00287280 0.01511715
v 0.05902060 0.00516139 0.01500002
v 0.05900215 0.00515599 0.01500002
v 0.05891697 0.00512828 0.01500002
v 0.05884699 0.00510238 0.01500002
v 0.05878558 0.00507737 0.01500002
v 0.05874447 0.00505823 0.01500002
v 0.05871090 0.00504133 0.01500002
v 0.05870426 0.00503795 0.01500002
v 0.05836568 0.00430835 0.01511715
v 0.05871090 0.00504133 0.01499053
v 0.05900209 0.00515599 0.01499053
v 0.05902060 0.00516139 0.01499828
v 0.05899808 0.00292123 0.01511715
v 0.05836707 0.00430588 0.01511715
v 0.05854634 0.00397250 0.01511715
v 0.05871221 0.00362898 0.01511715
v 0.05886288 0.00327804 0.01511715
v 0.05886392 0.00327533 0.01511715
v 0.05891690 0.00512828 0.01499053
v 0.05884692 0.00510238 0.01499053
v 0.05878558 0.00507737 0.01499053
v 0.05874447 0.00505823 0.01499053
f 1 2 6
f 1 6 3
f 1 3 7
f 1 7 8
f 1 8 4
f 1 4 9
f 1 9 22
f 1 22 34
f 1 34 33
f 1 33 32
f 1 32 31
f 1 31 23
f 1 23 11
f 1 11 5
f 1 5 2
f 2 5 10
f 2 10 6
f 3 6 12
f 3 12 25
f 3 25 30
f 3 30 29
f 3 29 28
f 3 28 27
f 3 27 26
f 3 26 21
f 3 21 7
f 4 8 20
f 4 20 9
f 5 11 24
f 5 24 13
f 5 13 10
f 6 10 13
f 6 13 12
f 7 13 14
f 7 14 15
f 7 15 16
f 7 16 17
f 7 17 18
f 7 18 19
f 7 19 20
f 7 20 8
f 7 21 13
f 9 20 19
f 9 19 22
f 11 23 24
f 12 13 25
f 13 24 23
f 13 23 14
f 13 21 26
f 13 26 27
f 13 27 28
f 13 28 29
f 13 29 30
f 13 30 25
f 14 23 31
f 14 31 15
f 15 31 32
f 15 32 16
f 16 32 17
f 17 32 33
f 17 33 34
f 17 34 18
f 18 34 22
f 18 22 19

