# https://github.com/mikedh/trimesh
v 0.04691831 0.00321209 0.01590809
v 0.04770513 0.00396611 0.01590809
v 0.04691831 0.00321209 0.03000000
v 0.04691831 0.00786417 0.01590809
v 0.04770513 0.00820113 0.01590809
v 0.04770513 0.00396611 0.03000000
v 0.04691831 0.00786417 0.03000000
v 0.04712143 0.00796184 0.01590809
v 0.04749377 0.00812104 0.01590809
v 0.04770513 0.00820113 0.03000000
v 0.04712143 0.00796184 0.03000000
v 0.04714269 0.00797112 0.01590809
v 0.04747213 0.00811274 0.01590809
v 0.04747213 0.00811274 0.03000000
f 1 2 6
f 1 6 3
f 1 3 7
f 1 7 4
f 1 4 8
f 1 8 12
f 1 12 13
f 1 13 9
f 1 9 5
f 1 5 2
f 2 5 10
f 2 10 6
f 3 6 10
f 3 10 14
f 3 14 11
f 3 11 7
f 4 7 11
f 4 11 8
f 5 9 10
f 8 11 12
f 9 13 14
f 9 14 10
f 11 14 12
f 12 14 13

