# https://github.com/mikedh/trimesh
v 0.05300303 -0.00875048 0.01500000
v 0.05308082 -0.00910905 0.01500000
v 0.05300303 -0.00875048 0.01499164
v 0.05097871 -0.00875048 0.01500000
v 0.05308477 -0.00912934 0.01500000
v 0.05308477 -0.00912920 0.01499053
v 0.05308082 -0.00910905 0.01499053
v 0.05300303 -0.00875249 0.01499053
v 0.05290984 -0.00875048 0.01499053
v 0.05151079 -0.00991548 0.01500000
v 0.05097871 -0.00875048 0.01499099
v 0.05309060 -0.00916658 0.01500000
v 0.05309039 -0.00916645 0.01499053
v 0.05099472 -0.00875048 0.01499053
v 0.05151079 -0.00991548 0.01499053
v 0.05156695 -0.01003789 0.01500000
v 0.05099472 -0.00875262 0.01499053
v 0.05309580 -0.00921144 0.01500000
v 0.05309559 -0.00921144 0.01499053
v 0.05156695 -0.01003789 0.01499053
v 0.05159690 -0.01009850 0.01500000
v 0.05310079 -0.00927765 0.01500000
v 0.05310079 -0.00927765 0.01499053
v 0.05159690 -0.01009850 0.01499053
v 0.05160501 -0.01011425 0.01499053
v 0.05200980 -0.01007180 0.01499053
v 0.05201853 -0.01005418 0.01500000
v 0.05310370 -0.00935214 0.01500000
v 0.05310370 -0.00935214 0.01499053
v 0.05201916 -0.01007073 0.01499053
v 0.05233512 -0.01000919 0.01500000
v 0.05310370 -0.00944158 0.01500000
v 0.05310370 -0.00944158 0.01499053
v 0.05233782 -0.01002534 0.01499053
v 0.05265357 -0.00997021 0.01499053
v 0.05265045 -0.00995406 0.01500000
v 0.05309975 -0.00954597 0.01500000
v 0.05309975 -0.00954597 0.01499053
v 0.05265503 -0.00996994 0.01499053
v 0.05265836 -0.00996927 0.01499053
v 0.05266418 -0.00996807 0.01499053
v 0.05306522 -0.00986582 0.01500000
v 0.05309060 -0.00966518 0.01500000
v 0.05309060 -0.00966504 0.01499053
v 0.05306231 -0.00988330 0.01499053
v 0.05306522 -0.00986595 0.01499053
v 0.05307500 -0.00979894 0.01500000
v 0.05307500 -0.00979880 0.01499053
f 1 2 7
f 1 7 3
f 1 3 9
f 1 9 14
f 1 14 11
f 1 11 4
f 1 4 10
f 1 10 16
f 1 16 21
f 1 21 27
f 1 27 31
f 1 31 36
f 1 36 42
f 1 42 47
f 1 47 43
f 1 43 37
f 1 37 32
f 1 32 28
f 1 28 22
f 1 22 18
f 1 18 12
f 1 12 5
f 1 5 2
f 2 5 6
f 2 6 7
f 3 8 9
f 3 7 8
f 4 11 15
f 4 15 10
f 5 12 6
f 6 12 13
f 6 13 19
f 6 19 23
f 6 23 29
f 6 29 33
f 6 33 38
f 6 38 44
f 6 44 48
f 6 48 46
f 6 46 45
f 6 45 41
f 6 41 40
f 6 40 39
f 6 39 35
f 6 35 34
f 6 34 30
f 6 30 26
f 6 26 25
f 6 25 24
f 6 24 20
f 6 20 15
f 6 15 17
f 6 17 14
f 6 14 9
f 6 9 8
f 6 8 7
f 10 15 20
f 10 20 16
f 11 14 17
f 11 17 15
f 12 18 13
f 13 18 19
f 16 20 24
f 16 24 21
f 18 22 23
f 18 23 19
f 21 24 25
f 21 25 26
f 21 26 27
f 22 28 29
f 22 29 23
f 26 30 27
f 27 30 31
f 28 32 33
f 28 33 29
f 30 34 31
f 31 34 35
f 31 35 36
f 32 37 38
f 32 38 33
f 35 39 36
f 36 39 40
f 36 40 41
f 36 41 42
f 37 43 38
f 38 43 44
f 41 45 42
f 42 45 46
f 42 46 47
f 43 47 48
f 43 48 44
f 46 48 47

