# https://github.com/mikedh/trimesh
v 0.04574970 0.00000068 0.01590809
v 0.04574970 0.00000068 0.01511724
v 0.04200075 0.00000068 0.01590809
v 0.04613054 -0.00191327 0.01590809
v 0.04200075 0.00000068 0.01511724
v 0.04613054 -0.00191327 0.01511724
v 0.04200196 -0.00017870 0.01511724
v 0.04200196 -0.00016240 0.01590809
v 0.04613054 -0.00191421 0.01590809
v 0.04613054 -0.00191421 0.01511724
v 0.04200236 -0.00019426 0.01511724
v 0.04200236 -0.00018545 0.01590809
v 0.04221381 -0.00191421 0.01590809
v 0.04221381 -0.00191421 0.01511724
v 0.04200560 -0.00030541 0.01511724
v 0.04200560 -0.00030541 0.01590809
v 0.04219157 -0.00181918 0.01590809
v 0.04219076 -0.00181618 0.01511724
v 0.04200802 -0.00035171 0.01511724
v 0.04202703 -0.00068667 0.01590809
v 0.04218712 -0.00179650 0.01590809
v 0.04212001 -0.00144411 0.01590809
v 0.04212001 -0.00144411 0.01511724
v 0.04202703 -0.00068667 0.01511724
v 0.04206301 -0.00104336 0.01590809
v 0.04207190 -0.00111197 0.01511724
v 0.04206543 -0.00106623 0.01590809
v 0.04206503 -0.00106323 0.01511724
v 0.04206543 -0.00106623 0.01511724
f 1 2 5
f 1 5 3
f 1 3 8
f 1 8 12
f 1 12 16
f 1 16 20
f 1 20 25
f 1 25 27
f 1 27 22
f 1 22 21
f 1 21 17
f 1 17 13
f 1 13 9
f 1 9 4
f 1 4 6
f 1 6 2
f 2 6 10
f 2 10 14
f 2 14 18
f 2 18 23
f 2 23 26
f 2 26 29
f 2 29 28
f 2 28 24
f 2 24 19
f 2 19 15
f 2 15 11
f 2 11 7
f 2 7 5
f 3 5 7
f 3 7 8
f 4 9 10
f 4 10 6
f 7 11 12
f 7 12 8
f 9 13 14
f 9 14 10
f 11 15 16
f 11 16 12
f 13 17 18
f 13 18 14
f 15 19 16
f 16 19 20
f 17 21 18
f 18 21 22
f 18 22 23
f 19 24 20
f 20 24 25
f 22 26 23
f 22 27 26
f 24 28 25
f 25 28 27
f 26 27 29
f 27 28 29

