# https://github.com/mikedh/trimesh
v 0.04166742 -0.00057677 0.01499053
v 0.04139035 -0.00059642 0.01499053
v 0.04166742 -0.00232417 0.01499053
v 0.04166742 -0.00057677 0.01311193
v 0.04136651 -0.00059816 0.01499053
v 0.04139035 -0.00059642 0.00500000
v 0.04166437 -0.00232504 0.01499053
v 0.04166742 -0.00232417 0.00500000
v 0.04166742 -0.00057729 0.00500000
v 0.04166420 -0.00057746 0.00500000
v 0.04134590 -0.00060060 0.01499053
v 0.04136651 -0.00059816 0.00500000
v 0.04164108 -0.00233078 0.01499053
v 0.04164108 -0.00233078 0.00500000
v 0.04166420 -0.00232504 0.00500000
v 0.04130880 -0.00060669 0.01499053
v 0.04134608 -0.00060060 0.00500000
v 0.04130880 -0.00060669 0.00500000
v 0.04162064 -0.00233478 0.01499053
v 0.04162064 -0.00233478 0.00500000
v 0.04126453 -0.00061556 0.01499053
v 0.04126453 -0.00061556 0.00500000
v 0.04158337 -0.00234052 0.01499053
v 0.04158337 -0.00234052 0.00500000
v 0.04119983 -0.00063121 0.01499053
v 0.04119983 -0.00063121 0.00500000
v 0.04153856 -0.00234574 0.01499053
v 0.04153856 -0.00234574 0.00500000
v 0.04112815 -0.00065156 0.01499053
v 0.04112815 -0.00065156 0.00500000
v 0.04147243 -0.00235078 0.01499053
v 0.04147225 -0.00235078 0.00500000
v 0.04104284 -0.00067922 0.01499053
v 0.04104301 -0.00067922 0.00500000
v 0.04139787 -0.00235357 0.01499053
v 0.04139787 -0.00235357 0.00500000
v 0.04094480 -0.00071522 0.01499053
v 0.04094498 -0.00071522 0.00500000
v 0.04130826 -0.00235374 0.01499053
v 0.04130826 -0.00235374 0.00500000
v 0.04083422 -0.00076080 0.01499053
v 0.04083440 -0.00076080 0.00500000
v 0.04120396 -0.00234974 0.01499053
v 0.04120378 -0.00234974 0.00500000
v 0.04071217 -0.00081698 0.01499053
v 0.04071217 -0.00081698 0.00500000
v 0.04108477 -0.00234052 0.01499053
v 0.04108459 -0.00234052 0.00500000
v 0.04065160 -0.00084690 0.01499053
v 0.04065160 -0.00084690 0.00500000
v 0.04095090 -0.00232504 0.01499053
v 0.04095090 -0.00232504 0.00500000
v 0.04063582 -0.00085490 0.01499053
v 0.04069586 -0.00126853 0.00500000
v 0.04057847 -0.00088482 0.00504401
v 0.04088387 -0.00231530 0.01499053
v 0.04088405 -0.00231530 0.00500000
v 0.04057847 -0.00088482 0.01495533
v 0.04043402 -0.00096518 0.01486829
v 0.04027971 -0.00105945 0.01477441
v 0.04067687 -0.00124679 0.01499053
v 0.04074085 -0.00158527 0.00500000
v 0.03988543 -0.00172077 0.00550070
v 0.03983668 -0.00137707 0.00550070
v 0.03994493 -0.00129288 0.00543225
v 0.04011644 -0.00116834 0.00532565
v 0.04027971 -0.00105945 0.00522590
v 0.04043402 -0.00096518 0.00513202
v 0.04086648 -0.00231234 0.01499053
v 0.04080268 -0.00230173 0.01495533
v 0.04080268 -0.00230173 0.00504401
v 0.04079569 -0.00190045 0.00500000
v 0.04011644 -0.00116834 0.01467368
v 0.04067830 -0.00125983 0.01499053
v 0.03994529 -0.00206291 0.00550070
v 0.03988543 -0.00172077 0.01449961
v 0.03983668 -0.00137707 0.01449961
v 0.03994493 -0.00129288 0.01456709
v 0.04078171 -0.00191419 0.01499053
v 0.04046485 -0.00222798 0.01477441
v 0.04064066 -0.00226990 0.01486829
v 0.04064066 -0.00226990 0.00513202
v 0.04046485 -0.00222798 0.00522590
v 0.04027595 -0.00217476 0.00532565
v 0.04007433 -0.00210935 0.00543225
v 0.04067938 -0.00126922 0.01499053
v 0.03994529 -0.00206291 0.01449961
v 0.04077956 -0.00190358 0.01499053
v 0.04072579 -0.00159432 0.01499053
v 0.04072472 -0.00158771 0.01499053
v 0.04068045 -0.00127722 0.01499053
v 0.04067955 -0.00127061 0.01499053
v 0.04027595 -0.00217476 0.01467368
v 0.04007433 -0.00210935 0.01456709
f 1 2 5
f 1 5 11
f 1 11 16
f 1 16 21
f 1 21 25
f 1 25 29
f 1 29 33
f 1 33 37
f 1 37 41
f 1 41 45
f 1 45 49
f 1 49 53
f 1 53 61
f 1 61 74
f 1 74 86
f 1 86 92
f 1 92 91
f 1 91 90
f 1 90 89
f 1 89 88
f 1 88 79
f 1 79 69
f 1 69 56
f 1 56 51
f 1 51 47
f 1 47 43
f 1 43 39
f 1 39 35
f 1 35 31
f 1 31 27
f 1 27 23
f 1 23 19
f 1 19 13
f 1 13 7
f 1 7 3
f 1 3 8
f 1 8 9
f 1 9 4
f 1 4 6
f 1 6 2
f 2 6 12
f 2 12 5
f 3 7 8
f 4 9 10
f 4 10 6
f 5 12 11
f 6 10 9
f 6 9 8
f 6 8 15
f 6 15 14
f 6 14 20
f 6 20 24
f 6 24 28
f 6 28 32
f 6 32 36
f 6 36 40
f 6 40 44
f 6 44 48
f 6 48 52
f 6 52 57
f 6 57 72
f 6 72 62
f 6 62 54
f 6 54 50
f 6 50 46
f 6 46 42
f 6 42 38
f 6 38 34
f 6 34 30
f 6 30 26
f 6 26 22
f 6 22 18
f 6 18 17
f 6 17 12
f 7 13 14
f 7 14 15
f 7 15 8
f 11 12 17
f 11 17 18
f 11 18 16
f 13 19 20
f 13 20 14
f 16 18 22
f 16 22 21
f 19 23 24
f 19 24 20
f 21 22 26
f 21 26 25
f 23 27 28
f 23 28 24
f 25 26 30
f 25 30 29
f 27 31 28
f 28 31 32
f 29 30 33
f 30 34 33
f 31 35 36
f 31 36 32
f 33 34 38
f 33 38 37
f 35 39 40
f 35 40 36
f 37 38 42
f 37 42 41
f 39 43 44
f 39 44 40
f 41 42 46
f 41 46 45
f 43 47 48
f 43 48 44
f 45 46 50
f 45 50 49
f 47 51 48
f 48 51 52
f 49 50 53
f 50 54 55
f 50 55 53
f 51 56 52
f 52 56 57
f 53 55 58
f 53 58 59
f 53 59 60
f 53 60 61
f 54 62 63
f 54 63 64
f 54 64 65
f 54 65 66
f 54 66 55
f 55 66 67
f 55 67 68
f 55 68 59
f 55 59 58
f 56 69 70
f 56 70 71
f 56 71 57
f 57 71 72
f 59 68 67
f 59 67 60
f 60 73 74
f 60 74 61
f 60 67 66
f 60 66 73
f 62 72 63
f 63 75 87
f 63 87 76
f 63 76 77
f 63 77 64
f 63 72 75
f 64 77 78
f 64 78 65
f 65 78 73
f 65 73 66
f 69 79 80
f 69 80 81
f 69 81 70
f 70 81 82
f 70 82 71
f 71 82 83
f 71 83 84
f 71 84 72
f 72 84 85
f 72 85 75
f 73 78 77
f 73 77 74
f 74 77 86
f 75 85 94
f 75 94 87
f 76 87 88
f 76 88 89
f 76 89 90
f 76 90 91
f 76 91 77
f 77 91 92
f 77 92 86
f 79 88 87
f 79 87 80
f 80 87 93
f 80 93 84
f 80 84 83
f 80 83 82
f 80 82 81
f 84 93 94
f 84 94 85
f 87 94 93

