# https://github.com/mikedh/trimesh
v 0.04791441 0.00411735 0.01499053
v 0.04905374 0.00470356 0.01499053
v 0.04791441 0.00411735 0.01511715
v 0.04791441 0.00827672 0.01499053
v 0.04905374 0.00470356 0.01511715
v 0.04905374 0.00879968 0.01499053
v 0.04791441 0.00827672 0.01511715
v 0.04849406 0.00879968 0.01499053
v 0.04905374 0.00858198 0.01511715
v 0.04905374 0.00879968 0.01500000
v 0.04815109 0.00835418 0.01511715
v 0.04849406 0.00879968 0.01500000
v 0.04893072 0.00855860 0.01511715
v 0.04819180 0.00836748 0.01511715
v 0.04821232 0.00837389 0.01511715
v 0.04821545 0.00837481 0.01511715
v 0.04851748 0.00845960 0.01511715
v 0.04855920 0.00847106 0.01511715
v 0.04888566 0.00854806 0.01511715
f 1 2 5
f 1 5 3
f 1 3 7
f 1 7 4
f 1 4 8
f 1 8 6
f 1 6 2
f 2 6 10
f 2 10 9
f 2 9 5
f 3 5 9
f 3 9 13
f 3 13 19
f 3 19 18
f 3 18 17
f 3 17 16
f 3 16 15
f 3 15 14
f 3 14 11
f 3 11 7
f 4 7 12
f 4 12 8
f 6 8 12
f 6 12 10
f 7 11 12
f 9 10 12
f 9 12 13
f 11 14 12
f 12 14 15
f 12 15 16
f 12 16 17
f 12 17 18
f 12 18 19
f 12 19 13

