# https://github.com/mikedh/trimesh
v 0.04975272 -0.00900730 0.00500000
v 0.05019280 -0.00900730 0.00500000
v 0.04975272 -0.00900730 0.01473236
v 0.04975272 -0.00489877 0.00500000
v 0.05043806 -0.00876879 0.00500000
v 0.05019280 -0.00900730 0.01499053
v 0.04975883 -0.00900730 0.01499053
v 0.04975272 -0.00900609 0.01499053
v 0.05043806 -0.00498927 0.00500000
v 0.04975272 -0.00489877 0.01499053
v 0.05043806 -0.00876879 0.01499053
v 0.05043806 -0.00498927 0.01499053
f 1 2 6
f 1 6 7
f 1 7 3
f 1 3 8
f 1 8 10
f 1 10 4
f 1 4 9
f 1 9 5
f 1 5 2
f 2 5 11
f 2 11 6
f 3 7 8
f 4 10 12
f 4 12 9
f 5 9 12
f 5 12 11
f 6 11 12
f 6 12 10
f 6 10 8
f 6 8 7

