# https://github.com/mikedh/trimesh
v 0.04757907 -0.00828102 0.01500000
v 0.04757907 -0.00828102 0.01499053
v 0.04558571 -0.00828102 0.01500000
v 0.04719850 -0.00888743 0.01500000
v 0.04719870 -0.00888743 0.01499053
v 0.04558571 -0.00828102 0.01499053
v 0.04556533 -0.00835282 0.01500000
v 0.04715712 -0.00894936 0.01500000
v 0.04715712 -0.00894936 0.01499053
v 0.04556533 -0.00835282 0.01499053
v 0.04553720 -0.00846910 0.01499053
v 0.04553740 -0.00846900 0.01500000
v 0.04710433 -0.00902190 0.01500000
v 0.04710453 -0.00902190 0.01499053
v 0.04551070 -0.00860105 0.01499053
v 0.04551090 -0.00860105 0.01500000
v 0.04703991 -0.00910401 0.01500000
v 0.04703991 -0.00910401 0.01499053
v 0.04549949 -0.00866760 0.01499053
v 0.04549949 -0.00866760 0.01500000
v 0.04696245 -0.00919506 0.01500000
v 0.04696245 -0.00919495 0.01499053
v 0.04549663 -0.00868515 0.01499053
v 0.04586660 -0.00887965 0.01500000
v 0.04687113 -0.00929420 0.01500000
v 0.04687134 -0.00929409 0.01499053
v 0.04578486 -0.00885158 0.01499053
v 0.04583786 -0.00888207 0.01499053
v 0.04585437 -0.00889153 0.01499053
v 0.04585865 -0.00889395 0.01499053
v 0.04586457 -0.00889710 0.01499053
v 0.04614933 -0.00902936 0.01500000
v 0.04682405 -0.00934256 0.01500000
v 0.04682384 -0.00934267 0.01499053
v 0.04614199 -0.00904398 0.01499053
v 0.04614790 -0.00904692 0.01499053
v 0.04643675 -0.00917014 0.01500000
v 0.04681141 -0.00935507 0.01499053
v 0.04643104 -0.00918560 0.01499053
v 0.04643960 -0.00918949 0.01499053
v 0.04645163 -0.00919485 0.01499053
f 1 2 6
f 1 6 3
f 1 3 7
f 1 7 12
f 1 12 16
f 1 16 20
f 1 20 24
f 1 24 32
f 1 32 37
f 1 37 33
f 1 33 25
f 1 25 21
f 1 21 17
f 1 17 13
f 1 13 8
f 1 8 4
f 1 4 5
f 1 5 2
f 2 5 9
f 2 9 14
f 2 14 18
f 2 18 22
f 2 22 26
f 2 26 34
f 2 34 38
f 2 38 41
f 2 41 40
f 2 40 39
f 2 39 36
f 2 36 35
f 2 35 31
f 2 31 30
f 2 30 29
f 2 29 28
f 2 28 27
f 2 27 23
f 2 23 19
f 2 19 15
f 2 15 11
f 2 11 10
f 2 10 6
f 3 6 10
f 3 10 7
f 4 8 5
f 5 8 9
f 7 10 11
f 7 11 12
f 8 13 14
f 8 14 9
f 11 15 12
f 12 15 16
f 13 17 14
f 14 17 18
f 15 19 20
f 15 20 16
f 17 21 18
f 18 21 22
f 19 23 20
f 20 23 24
f 21 25 26
f 21 26 22
f 23 27 24
f 24 28 29
f 24 29 30
f 24 30 31
f 24 31 32
f 24 27 28
f 25 33 26
f 26 33 34
f 31 35 32
f 32 35 36
f 32 36 37
f 33 38 34
f 33 37 38
f 36 39 37
f 37 39 40
f 37 40 41
f 37 41 38

