# https://github.com/mikedh/trimesh
v 0.05960421 0.00176057 0.01500000
v 0.05942806 0.00111206 0.01511715
v 0.05943460 0.00106631 0.01511715
v 0.05943501 0.00106336 0.01511715
v 0.05946811 0.00073269 0.01511715
v 0.05947302 0.00068355 0.01511715
v 0.05949468 0.00030551 0.01511715
v 0.05949590 0.00025327 0.01511715
v 0.05960421 0.00045543 0.01500000
v 0.05960421 0.00176057 0.01499053
v 0.05931975 0.00176057 0.01511715
v 0.05937125 0.00148951 0.01511715
v 0.05937983 0.00144406 0.01511715
v 0.05950367 0.00025327 0.01500000
v 0.05574316 0.00025327 0.01511715
v 0.05960421 0.00045543 0.01499053
v 0.05542927 0.00176057 0.01499053
v 0.05542927 0.00176057 0.01511715
v 0.05950367 0.00025327 0.01499053
v 0.05574316 0.00025327 0.01499053
f 1 2 3
f 1 3 4
f 1 4 5
f 1 5 6
f 1 6 7
f 1 7 8
f 1 8 9
f 1 9 16
f 1 16 10
f 1 10 17
f 1 17 18
f 1 18 11
f 1 11 12
f 1 12 13
f 1 13 2
f 2 13 12
f 2 12 11
f 2 11 18
f 2 18 15
f 2 15 8
f 2 8 7
f 2 7 6
f 2 6 5
f 2 5 4
f 2 4 3
f 8 14 9
f 8 15 20
f 8 20 19
f 8 19 14
f 9 14 19
f 9 19 16
f 10 16 19
f 10 19 20
f 10 20 17
f 15 18 17
f 15 17 20

