# https://github.com/mikedh/trimesh
v 0.04937298 -0.01091350 0.00550070
v 0.04902937 -0.01086443 0.00550070
v 0.04916477 -0.01000910 0.00500000
v 0.04948148 -0.01005425 0.00500000
v 0.04945704 -0.01080509 0.00543225
v 0.04937298 -0.01091350 0.01449961
v 0.04902937 -0.01086443 0.01449961
v 0.04868716 -0.01080472 0.00550070
v 0.04884965 -0.00995424 0.00500000
v 0.04990318 -0.01009848 0.00500000
v 0.04986519 -0.01017162 0.00504401
v 0.04958172 -0.01063362 0.00532565
v 0.04945704 -0.01080509 0.01456709
v 0.04958172 -0.01063362 0.01467368
v 0.04969057 -0.01047035 0.01477441
v 0.04949028 -0.01007179 0.01499053
v 0.04947937 -0.01007049 0.01499053
v 0.04916214 -0.01002533 0.01499053
v 0.04868716 -0.01080472 0.01449961
v 0.04864056 -0.01067578 0.00543225
v 0.04857514 -0.01047408 0.00532565
v 0.04844818 -0.00994734 0.00504401
v 0.04843481 -0.00986598 0.00500000
v 0.04993307 -0.01003783 0.00500000
v 0.04993325 -0.01003765 0.01499053
v 0.04990318 -0.01009848 0.01499053
v 0.04989509 -0.01011415 0.01499053
v 0.04978465 -0.01031604 0.00513202
v 0.04969057 -0.01047035 0.00522590
v 0.04986519 -0.01017162 0.01495533
v 0.04978465 -0.01031604 0.01486829
v 0.04884507 -0.00996991 0.01499053
v 0.04883575 -0.00996805 0.01499053
v 0.04852203 -0.01028525 0.01477441
v 0.04857514 -0.01047408 0.01467368
v 0.04864056 -0.01067578 0.01456709
v 0.04852203 -0.01028525 0.00522590
v 0.04848018 -0.01010948 0.00513202
v 0.04844818 -0.00994734 0.01495533
v 0.04843763 -0.00988352 0.01499053
v 0.04842514 -0.00979919 0.00500000
v 0.04843481 -0.00986598 0.01499053
v 0.04998917 -0.00991562 0.00500000
v 0.04998934 -0.00991543 0.01499053
v 0.04876330 -0.00995275 0.01499053
v 0.04848018 -0.01010948 0.01486829
v 0.04840949 -0.00966540 0.00500000
v 0.04842514 -0.00979919 0.01499053
v 0.05003489 -0.00980516 0.00500000
v 0.05003489 -0.00980497 0.01499053
v 0.04840034 -0.00954617 0.00500000
v 0.04840949 -0.00966540 0.01499053
v 0.04840034 -0.00954636 0.01499053
v 0.05007076 -0.00970701 0.00500000
v 0.05007076 -0.00970701 0.01499053
v 0.04839648 -0.00944168 0.00500000
v 0.04839648 -0.00944187 0.01499053
v 0.05009855 -0.00962174 0.00500000
v 0.05009855 -0.00962174 0.01499053
v 0.04839648 -0.00935212 0.00500000
v 0.04839648 -0.00935230 0.01499053
v 0.05011877 -0.00955009 0.00500000
v 0.05011877 -0.00955009 0.01499053
v 0.04839911 -0.00927767 0.00500000
v 0.04839911 -0.00927767 0.01499053
v 0.05013442 -0.00948553 0.00500000
v 0.05013442 -0.00948553 0.01499053
v 0.04840421 -0.00921143 0.00500000
v 0.04840421 -0.00921143 0.01499053
v 0.05014339 -0.00944112 0.00500000
v 0.05014339 -0.00944112 0.01499053
v 0.04840949 -0.00916646 0.00500000
v 0.04840949 -0.00916665 0.01499053
v 0.05014937 -0.00940399 0.00500000
v 0.05014937 -0.00940399 0.01499053
v 0.04841529 -0.00912933 0.00500000
v 0.04841529 -0.00912933 0.01499053
v 0.05015183 -0.00938346 0.00500000
v 0.05015183 -0.00938346 0.01499053
v 0.04841916 -0.00910899 0.00500000
v 0.04841916 -0.00910899 0.01499053
v 0.05019263 -0.00900730 0.00500000
v 0.05019263 -0.00900730 0.01499053
v 0.04842496 -0.00908566 0.00500000
v 0.04842496 -0.00908585 0.01499053
v 0.04844501 -0.00900730 0.00500000
v 0.04844501 -0.00900730 0.01499053
f 1 2 3
f 1 3 4
f 1 4 5
f 1 5 13
f 1 13 6
f 1 6 7
f 1 7 2
f 2 7 19
f 2 19 8
f 2 8 9
f 2 9 3
f 3 9 23
f 3 23 41
f 3 41 47
f 3 47 51
f 3 51 56
f 3 56 60
f 3 60 64
f 3 64 68
f 3 68 72
f 3 72 76
f 3 76 80
f 3 80 84
f 3 84 86
f 3 86 82
f 3 82 78
f 3 78 74
f 3 74 70
f 3 70 66
f 3 66 62
f 3 62 58
f 3 58 54
f 3 54 49
f 3 49 43
f 3 43 24
f 3 24 10
f 3 10 4
f 4 10 11
f 4 11 12
f 4 12 5
f 5 12 14
f 5 14 13
f 6 13 14
f 6 14 15
f 6 15 16
f 6 16 17
f 6 17 18
f 6 18 7
f 7 18 19
f 8 19 36
f 8 36 20
f 8 20 9
f 9 20 21
f 9 21 22
f 9 22 23
f 10 24 25
f 10 25 26
f 10 26 27
f 10 27 11
f 11 28 29
f 11 29 12
f 11 27 30
f 11 30 31
f 11 31 28
f 12 29 15
f 12 15 14
f 15 31 27
f 15 27 16
f 15 29 28
f 15 28 31
f 16 27 26
f 16 26 25
f 16 25 44
f 16 44 50
f 16 50 55
f 16 55 59
f 16 59 63
f 16 63 67
f 16 67 71
f 16 71 75
f 16 75 79
f 16 79 83
f 16 83 87
f 16 87 85
f 16 85 81
f 16 81 77
f 16 77 73
f 16 73 69
f 16 69 65
f 16 65 61
f 16 61 57
f 16 57 53
f 16 53 52
f 16 52 48
f 16 48 42
f 16 42 40
f 16 40 45
f 16 45 33
f 16 33 32
f 16 32 18
f 16 18 17
f 18 32 19
f 19 32 33
f 19 33 34
f 19 34 35
f 19 35 36
f 20 36 35
f 20 35 21
f 21 37 22
f 21 35 34
f 21 34 37
f 22 37 38
f 22 38 46
f 22 46 39
f 22 39 40
f 22 40 23
f 23 40 42
f 23 42 48
f 23 48 41
f 24 43 44
f 24 44 25
f 27 31 30
f 33 45 34
f 34 45 40
f 34 40 46
f 34 46 38
f 34 38 37
f 39 46 40
f 41 48 52
f 41 52 47
f 43 49 44
f 44 49 50
f 47 52 53
f 47 53 51
f 49 54 55
f 49 55 50
f 51 53 57
f 51 57 56
f 54 58 59
f 54 59 55
f 56 57 61
f 56 61 60
f 58 62 63
f 58 63 59
f 60 61 65
f 60 65 64
f 62 66 67
f 62 67 63
f 64 65 69
f 64 69 68
f 66 70 71
f 66 71 67
f 68 69 72
f 69 73 72
f 70 74 75
f 70 75 71
f 72 73 77
f 72 77 76
f 74 78 79
f 74 79 75
f 76 77 81
f 76 81 80
f 78 82 83
f 78 83 79
f 80 81 84
f 81 85 84
f 82 86 87
f 82 87 83
f 84 85 87
f 84 87 86

