# https://github.com/mikedh/trimesh
v 0.05818690 0.00460945 0.03000000
v 0.05817031 0.00463684 0.03000000
v 0.05268709 0.00460945 0.03000000
v 0.05818690 0.00460945 0.01590809
v 0.05817031 0.00463684 0.01590809
v 0.05796054 0.00495621 0.03000000
v 0.05140524 0.00495701 0.03000000
v 0.05268709 0.00460945 0.01590809
v 0.05796054 0.00495621 0.01590809
v 0.05793332 0.00499608 0.01590809
v 0.05773749 0.00526591 0.03000000
v 0.05140524 0.00872335 0.03000000
v 0.05140524 0.00495701 0.01590809
v 0.05773749 0.00526591 0.01590809
v 0.05772355 0.00528483 0.01590809
v 0.05750117 0.00556594 0.03000000
v 0.05158912 0.00870966 0.03000000
v 0.05140524 0.00872335 0.01590809
v 0.05750117 0.00556594 0.01590809
v 0.05726750 0.00583778 0.01590809
v 0.05725223 0.00585510 0.03000000
v 0.05196816 0.00866455 0.03000000
v 0.05158912 0.00870966 0.01590809
v 0.05725223 0.00585510 0.01590809
v 0.05700662 0.00611647 0.01590809
v 0.05699069 0.00613298 0.03000000
v 0.05234522 0.00860334 0.03000000
v 0.05199073 0.00866093 0.01590809
v 0.05196816 0.00866455 0.01590809
v 0.05699069 0.00613298 0.01590809
v 0.05673378 0.00638348 0.01590809
v 0.05671719 0.00639959 0.03000000
v 0.05271895 0.00852561 0.03000000
v 0.05234522 0.00860334 0.01590809
v 0.05671719 0.00639959 0.01590809
v 0.05644967 0.00663841 0.01590809
v 0.05643241 0.00665372 0.03000000
v 0.05308870 0.00843137 0.03000000
v 0.05271895 0.00852561 0.01590809
v 0.05643241 0.00665372 0.01590809
v 0.05615426 0.00688045 0.01590809
v 0.05613634 0.00689495 0.03000000
v 0.05345447 0.00832142 0.03000000
v 0.05327258 0.00837821 0.01590809
v 0.05308870 0.00843137 0.01590809
v 0.05613634 0.00689495 0.01590809
v 0.05604141 0.00696825 0.01590809
v 0.05583098 0.00712330 0.03000000
v 0.05381493 0.00819577 0.03000000
v 0.05361247 0.00826826 0.01590809
v 0.05345447 0.00832142 0.01590809
v 0.05329516 0.00837136 0.01590809
v 0.05583098 0.00712330 0.01590809
v 0.05551500 0.00733836 0.03000000
v 0.05575331 0.00717807 0.01590809
v 0.05416942 0.00805441 0.03000000
v 0.05383618 0.00818731 0.01590809
v 0.05381493 0.00819577 0.01590809
v 0.05363437 0.00826061 0.01590809
v 0.05519038 0.00753892 0.03000000
v 0.05551500 0.00733836 0.01590809
v 0.05521030 0.00752684 0.01590809
v 0.05451726 0.00789735 0.03000000
v 0.05416942 0.00805441 0.01590809
v 0.05485781 0.00772579 0.03000000
v 0.05519038 0.00753892 0.01590809
v 0.05451726 0.00789735 0.01590809
v 0.05485781 0.00772579 0.01590809
f 1 2 6
f 1 6 11
f 1 11 16
f 1 16 21
f 1 21 26
f 1 26 32
f 1 32 37
f 1 37 42
f 1 42 48
f 1 48 54
f 1 54 60
f 1 60 65
f 1 65 63
f 1 63 56
f 1 56 49
f 1 49 43
f 1 43 38
f 1 38 33
f 1 33 27
f 1 27 22
f 1 22 17
f 1 17 12
f 1 12 7
f 1 7 3
f 1 3 8
f 1 8 4
f 1 4 5
f 1 5 2
f 2 5 9
f 2 9 6
f 3 7 13
f 3 13 8
f 4 8 13
f 4 13 18
f 4 18 23
f 4 23 29
f 4 29 28
f 4 28 34
f 4 34 39
f 4 39 45
f 4 45 44
f 4 44 52
f 4 52 51
f 4 51 50
f 4 50 59
f 4 59 58
f 4 58 57
f 4 57 64
f 4 64 67
f 4 67 68
f 4 68 66
f 4 66 62
f 4 62 61
f 4 61 55
f 4 55 53
f 4 53 47
f 4 47 46
f 4 46 41
f 4 41 40
f 4 40 36
f 4 36 35
f 4 35 31
f 4 31 30
f 4 30 25
f 4 25 24
f 4 24 20
f 4 20 19
f 4 19 15
f 4 15 14
f 4 14 10
f 4 10 9
f 4 9 5
f 6 9 10
f 6 10 11
f 7 12 18
f 7 18 13
f 10 14 11
f 11 14 15
f 11 15 16
f 12 17 23
f 12 23 18
f 15 19 16
f 16 19 20
f 16 20 21
f 17 22 29
f 17 29 23
f 20 24 21
f 21 24 25
f 21 25 26
f 22 27 28
f 22 28 29
f 25 30 26
f 26 30 31
f 26 31 32
f 27 33 39
f 27 39 34
f 27 34 28
f 31 35 32
f 32 35 36
f 32 36 37
f 33 38 45
f 33 45 39
f 36 40 37
f 37 40 41
f 37 41 42
f 38 43 44
f 38 44 45
f 41 46 42
f 42 46 47
f 42 47 48
f 43 49 50
f 43 50 51
f 43 51 52
f 43 52 44
f 47 53 48
f 48 53 55
f 48 55 54
f 49 56 57
f 49 57 58
f 49 58 59
f 49 59 50
f 54 55 61
f 54 61 62
f 54 62 60
f 56 63 67
f 56 67 64
f 56 64 57
f 60 62 66
f 60 66 68
f 60 68 65
f 63 65 68
f 63 68 67

