# https://github.com/mikedh/trimesh
v 0.05468859 0.00935497 0.01499053
v 0.05467613 0.00934258 0.01499053
v 0.05467594 0.00934258 0.01500000
v 0.05499271 0.00921967 0.01499053
v 0.05462863 0.00929411 0.01499053
v 0.05504839 0.00919489 0.01499053
v 0.05462882 0.00929421 0.01500000
v 0.05506338 0.00917010 0.01500000
v 0.05453751 0.00919498 0.01499053
v 0.05453751 0.00919508 0.01500000
v 0.05506027 0.00918953 0.01499053
v 0.05535056 0.00902935 0.01500000
v 0.05535211 0.00904689 0.01499053
v 0.05507020 0.00918497 0.01499053
v 0.05506572 0.00918705 0.01499053
v 0.05446002 0.00910399 0.01499053
v 0.05446002 0.00910409 0.01500000
v 0.05535795 0.00904402 0.01499053
v 0.05563345 0.00887967 0.01500000
v 0.05439558 0.00902181 0.01499053
v 0.05439558 0.00902191 0.01500000
v 0.05563559 0.00889711 0.01499053
v 0.05600064 0.00866764 0.01500000
v 0.05566226 0.00888204 0.01499053
v 0.05564571 0.00889156 0.01499053
v 0.05564124 0.00889404 0.01499053
v 0.05434282 0.00894935 0.01499053
v 0.05434282 0.00894945 0.01500000
v 0.05598916 0.00860102 0.01500000
v 0.05598916 0.00860092 0.01499053
v 0.05600064 0.00866764 0.01499053
v 0.05600317 0.00868518 0.01499053
v 0.05430135 0.00888740 0.01499053
v 0.05430135 0.00888750 0.01500000
v 0.05596268 0.00846899 0.01500000
v 0.05596268 0.00846899 0.01499053
v 0.05426669 0.00883099 0.01499053
v 0.05426669 0.00883099 0.01500000
v 0.05593464 0.00835281 0.01500000
v 0.05593464 0.00835281 0.01499053
v 0.05424430 0.00879164 0.01499053
v 0.05424430 0.00879164 0.01500000
v 0.05592510 0.00834250 0.01500000
v 0.05593172 0.00834250 0.01499903
v 0.05593172 0.00834250 0.01499053
v 0.05422717 0.00875814 0.01499053
v 0.05401437 0.00834250 0.01499123
v 0.05401437 0.00834250 0.01500000
v 0.05401690 0.00834250 0.01499053
v 0.05401534 0.00834330 0.01499053
f 1 2 3
f 1 3 4
f 1 4 6
f 1 6 11
f 1 11 15
f 1 15 14
f 1 14 13
f 1 13 18
f 1 18 22
f 1 22 26
f 1 26 25
f 1 25 24
f 1 24 32
f 1 32 31
f 1 31 30
f 1 30 36
f 1 36 40
f 1 40 45
f 1 45 49
f 1 49 50
f 1 50 46
f 1 46 41
f 1 41 37
f 1 37 33
f 1 33 27
f 1 27 20
f 1 20 16
f 1 16 9
f 1 9 5
f 1 5 2
f 2 5 3
f 3 6 4
f 3 5 7
f 3 7 10
f 3 10 17
f 3 17 21
f 3 21 28
f 3 28 34
f 3 34 38
f 3 38 42
f 3 42 48
f 3 48 43
f 3 43 39
f 3 39 35
f 3 35 29
f 3 29 23
f 3 23 19
f 3 19 12
f 3 12 8
f 3 8 6
f 5 9 10
f 5 10 7
f 6 8 11
f 8 12 13
f 8 13 14
f 8 14 15
f 8 15 11
f 9 16 17
f 9 17 10
f 12 18 13
f 12 19 18
f 16 20 21
f 16 21 17
f 18 19 22
f 19 23 24
f 19 24 25
f 19 25 26
f 19 26 22
f 20 27 28
f 20 28 21
f 23 29 30
f 23 30 31
f 23 31 32
f 23 32 24
f 27 33 34
f 27 34 28
f 29 35 30
f 30 35 36
f 33 37 34
f 34 37 38
f 35 39 40
f 35 40 36
f 37 41 42
f 37 42 38
f 39 43 44
f 39 44 45
f 39 45 40
f 41 46 47
f 41 47 48
f 41 48 42
f 43 48 47
f 43 47 49
f 43 49 45
f 43 45 44
f 46 50 47
f 47 50 49

