# https://github.com/mikedh/trimesh
v 0.05305911 -0.00843810 0.01590809
v 0.05328588 -0.00837421 0.01590809
v 0.05305911 -0.00843810 0.02483416
v 0.05305911 -0.00443491 0.01590809
v 0.05330831 -0.00836764 0.01590809
v 0.05330831 -0.00836764 0.03000000
v 0.05305911 -0.00843767 0.03000000
v 0.05305911 -0.00443491 0.03000000
v 0.05379333 -0.00396750 0.01590809
v 0.05362521 -0.00826392 0.01590809
v 0.05367078 -0.00824773 0.03000000
v 0.05379333 -0.00396750 0.03000000
v 0.05379333 -0.00820133 0.01590809
v 0.05367078 -0.00824773 0.01590809
v 0.05379333 -0.00820133 0.03000000
f 1 2 3
f 1 3 7
f 1 7 8
f 1 8 4
f 1 4 9
f 1 9 13
f 1 13 14
f 1 14 10
f 1 10 5
f 1 5 2
f 2 5 6
f 2 6 3
f 3 6 7
f 4 8 12
f 4 12 9
f 5 10 6
f 6 11 15
f 6 15 12
f 6 12 8
f 6 8 7
f 6 10 11
f 9 12 15
f 9 15 13
f 10 14 11
f 11 14 13
f 11 13 15

