# https://github.com/mikedh/trimesh
v 0.05074897 0.00500011 0.01499053
v 0.05338988 0.00424525 0.01499053
v 0.05074897 0.00500011 0.01511616
v 0.05074897 0.00874885 0.01499053
v 0.05338988 0.00424525 0.01511715
v 0.05338988 0.00834144 0.01499053
v 0.05075000 0.00500011 0.01511715
v 0.05074897 0.00502216 0.01511715
v 0.05074897 0.00874885 0.01511715
v 0.05079369 0.00874929 0.01511715
v 0.05082652 0.00874929 0.01499053
v 0.05338988 0.00834144 0.01511715
v 0.05300315 0.00874929 0.01499053
v 0.05082652 0.00874929 0.01511715
v 0.05328570 0.00837407 0.01511715
v 0.05300315 0.00874929 0.01500000
v 0.05092992 0.00874797 0.01511715
v 0.05328286 0.00837495 0.01511715
v 0.05117395 0.00873915 0.01511715
v 0.05120808 0.00873783 0.01511715
v 0.05154259 0.00871314 0.01511715
v 0.05158886 0.00870961 0.01511715
v 0.05196783 0.00866464 0.01511715
v 0.05197093 0.00866420 0.01511715
v 0.05229872 0.00861084 0.01511715
v 0.05234448 0.00860335 0.01511715
v 0.05267278 0.00853501 0.01511715
v 0.05272112 0.00852486 0.01511715
v 0.05304322 0.00844285 0.01511715
v 0.05308820 0.00843139 0.01511715
v 0.05325908 0.00838200 0.01511715
f 1 2 5
f 1 5 3
f 1 3 8
f 1 8 9
f 1 9 4
f 1 4 11
f 1 11 13
f 1 13 6
f 1 6 2
f 2 6 12
f 2 12 5
f 3 7 8
f 3 5 7
f 4 9 10
f 4 10 11
f 5 12 15
f 5 15 18
f 5 18 31
f 5 31 30
f 5 30 29
f 5 29 28
f 5 28 27
f 5 27 26
f 5 26 25
f 5 25 24
f 5 24 23
f 5 23 22
f 5 22 21
f 5 21 20
f 5 20 19
f 5 19 17
f 5 17 14
f 5 14 10
f 5 10 9
f 5 9 8
f 5 8 7
f 6 13 16
f 6 16 12
f 10 14 16
f 10 16 13
f 10 13 11
f 12 16 15
f 14 17 16
f 15 16 18
f 16 17 19
f 16 19 20
f 16 20 21
f 16 21 22
f 16 22 23
f 16 23 24
f 16 24 25
f 16 25 26
f 16 26 27
f 16 27 28
f 16 28 29
f 16 29 30
f 16 30 31
f 16 31 18

