# https://github.com/mikedh/trimesh
v 0.05561144 0.00734862 0.01499053
v 0.05561144 0.00734859 0.01499053
v 0.05561144 0.00734862 0.00500000
v 0.05557984 0.00753824 0.01499053
v 0.05378725 0.00734859 0.01499053
v 0.05561144 0.00734859 0.00500000
v 0.05557984 0.00753824 0.00500000
v 0.05378725 0.00753824 0.01499053
v 0.05378725 0.00734859 0.00500000
v 0.05378725 0.00753824 0.00500000
f 1 2 6
f 1 6 3
f 1 3 7
f 1 7 4
f 1 4 8
f 1 8 5
f 1 5 2
f 2 5 9
f 2 9 6
f 3 6 9
f 3 9 10
f 3 10 7
f 4 7 10
f 4 10 8
f 5 8 10
f 5 10 9

