# https://github.com/mikedh/trimesh
v 0.04063588 -0.00085514 0.01499053
v 0.04065166 -0.00084698 0.01499053
v 0.04067689 -0.00124682 0.01499053
v 0.04065166 -0.00084698 0.01500000
v 0.04071212 -0.00081711 0.01499053
v 0.04069582 -0.00126872 0.01500000
v 0.04067952 -0.00127091 0.01499053
v 0.04071225 -0.00081711 0.01500000
v 0.04083448 -0.00076096 0.01499053
v 0.04074090 -0.00158493 0.01500000
v 0.04072474 -0.00158771 0.01499053
v 0.04083462 -0.00076096 0.01500000
v 0.04094489 -0.00071536 0.01499053
v 0.04077981 -0.00190332 0.01499053
v 0.04079597 -0.00190014 0.01500000
v 0.04094502 -0.00071536 0.01500000
v 0.04197851 -0.00031950 0.01500000
v 0.04197851 -0.00031950 0.01499053
v 0.04078467 -0.00192682 0.01499053
v 0.04088417 -0.00231511 0.01500000
v 0.04197851 -0.00225338 0.01500000
v 0.04197851 -0.00225338 0.01499053
v 0.04079742 -0.00198676 0.01499053
v 0.04086669 -0.00231212 0.01499053
v 0.04088417 -0.00231511 0.01499053
v 0.04095107 -0.00232487 0.01499053
v 0.04095094 -0.00232467 0.01500000
v 0.04164098 -0.00233084 0.01500000
v 0.04164098 -0.00233084 0.01499053
v 0.04108487 -0.00234020 0.01499053
v 0.04107331 -0.00233900 0.01499919
v 0.04108474 -0.00234020 0.01500000
v 0.04162074 -0.00233482 0.01500000
v 0.04162074 -0.00233482 0.01499053
v 0.04120409 -0.00234936 0.01499053
v 0.04120395 -0.00234936 0.01500000
v 0.04158354 -0.00234040 0.01500000
v 0.04158354 -0.00234040 0.01499053
v 0.04130831 -0.00235374 0.01499053
v 0.04130818 -0.00235374 0.01500000
v 0.04153859 -0.00234578 0.01500000
v 0.04153859 -0.00234578 0.01499053
v 0.04139782 -0.00235354 0.01499053
v 0.04139782 -0.00235354 0.01500000
v 0.04147235 -0.00235075 0.01500000
v 0.04147248 -0.00235075 0.01499053
f 1 2 5
f 1 5 9
f 1 9 13
f 1 13 18
f 1 18 22
f 1 22 29
f 1 29 34
f 1 34 38
f 1 38 42
f 1 42 46
f 1 46 43
f 1 43 39
f 1 39 35
f 1 35 30
f 1 30 26
f 1 26 25
f 1 25 24
f 1 24 23
f 1 23 19
f 1 19 14
f 1 14 11
f 1 11 7
f 1 7 3
f 1 3 4
f 1 4 2
f 2 4 5
f 3 6 4
f 3 7 6
f 4 8 5
f 4 6 10
f 4 10 15
f 4 15 20
f 4 20 27
f 4 27 32
f 4 32 36
f 4 36 40
f 4 40 44
f 4 44 45
f 4 45 41
f 4 41 37
f 4 37 33
f 4 33 28
f 4 28 21
f 4 21 17
f 4 17 16
f 4 16 12
f 4 12 8
f 5 8 12
f 5 12 9
f 6 7 10
f 7 11 10
f 9 12 16
f 9 16 13
f 10 11 14
f 10 14 15
f 13 16 17
f 13 17 18
f 14 19 15
f 15 19 20
f 17 21 22
f 17 22 18
f 19 23 20
f 20 23 24
f 20 24 25
f 20 25 26
f 20 26 27
f 21 28 29
f 21 29 22
f 26 30 31
f 26 31 27
f 27 31 32
f 28 33 34
f 28 34 29
f 30 32 31
f 30 35 36
f 30 36 32
f 33 37 38
f 33 38 34
f 35 39 40
f 35 40 36
f 37 41 42
f 37 42 38
f 39 43 44
f 39 44 40
f 41 45 46
f 41 46 42
f 43 46 44
f 44 46 45

