# https://github.com/mikedh/trimesh
v 0.04586869 -0.00108286 0.03000000
v 0.04206777 -0.00108286 0.03000000
v 0.04586869 -0.00108286 0.01590809
v 0.04574980 -0.00000100 0.03000000
v 0.04206550 -0.00106634 0.03000000
v 0.04206777 -0.00108286 0.01590809
v 0.04574980 -0.00000100 0.01590809
v 0.04200151 -0.00000100 0.03000000
v 0.04202726 -0.00068651 0.03000000
v 0.04206550 -0.00106634 0.01590809
v 0.04200076 -0.00000100 0.01590809
v 0.04200076 -0.00000100 0.02543696
v 0.04200530 -0.00030541 0.03000000
v 0.04202574 -0.00066342 0.01590809
v 0.04202726 -0.00068651 0.01590809
v 0.04200189 -0.00016231 0.01590809
v 0.04200227 -0.00018541 0.01590809
v 0.04200530 -0.00030541 0.01590809
f 1 2 6
f 1 6 3
f 1 3 7
f 1 7 4
f 1 4 8
f 1 8 13
f 1 13 9
f 1 9 5
f 1 5 2
f 2 5 10
f 2 10 6
f 3 6 10
f 3 10 15
f 3 15 14
f 3 14 18
f 3 18 17
f 3 17 16
f 3 16 11
f 3 11 7
f 4 7 11
f 4 11 12
f 4 12 8
f 5 9 15
f 5 15 10
f 8 12 13
f 9 13 14
f 9 14 15
f 11 16 12
f 12 16 13
f 13 16 17
f 13 17 18
f 13 18 14

