# https://github.com/mikedh/trimesh
v 0.04242275 0.00324631 0.01499053
v 0.04242833 0.00270398 0.01499053
v 0.04242383 0.00268985 0.01499134
v 0.04242275 0.00324631 0.01500000
v 0.04242275 0.00517722 0.01499053
v 0.04247062 0.00268985 0.01499053
v 0.04242383 0.00268985 0.01511715
v 0.04242275 0.00517747 0.01500000
v 0.04242275 0.00517747 0.01499761
v 0.04249771 0.00515604 0.01499053
v 0.04310937 0.00268985 0.01499053
v 0.04310937 0.00268985 0.01511715
v 0.04242833 0.00270398 0.01511715
v 0.04285237 0.00376721 0.01511715
v 0.04300336 0.00406650 0.01511715
v 0.04302420 0.00410766 0.01511715
v 0.04302561 0.00411034 0.01511715
v 0.04310937 0.00425986 0.01511715
v 0.04249784 0.00515604 0.01500000
v 0.04248446 0.00287104 0.01511715
v 0.04248547 0.00287396 0.01511715
v 0.04255411 0.00306440 0.01511715
v 0.04255525 0.00306732 0.01511715
v 0.04267847 0.00337611 0.01511715
v 0.04269561 0.00341897 0.01511715
v 0.04258295 0.00512827 0.01499053
v 0.04310937 0.00485187 0.01499053
v 0.04310937 0.00485187 0.01500000
v 0.04280713 0.00503159 0.01500000
v 0.04278905 0.00504158 0.01500000
v 0.04275551 0.00505838 0.01500000
v 0.04271443 0.00507738 0.01500000
v 0.04265306 0.00510270 0.01500000
v 0.04258301 0.00512827 0.01500000
v 0.04265299 0.00510270 0.01499053
v 0.04280713 0.00503159 0.01499053
v 0.04275551 0.00505863 0.01499053
v 0.04278905 0.00504158 0.01499053
v 0.04271443 0.00507738 0.01499053
f 1 2 3
f 1 3 7
f 1 7 4
f 1 4 8
f 1 8 9
f 1 9 5
f 1 5 10
f 1 10 26
f 1 26 35
f 1 35 39
f 1 39 37
f 1 37 38
f 1 38 36
f 1 36 27
f 1 27 11
f 1 11 6
f 1 6 2
f 2 6 3
f 3 6 11
f 3 11 12
f 3 12 7
f 4 7 8
f 5 9 10
f 7 12 18
f 7 18 17
f 7 17 16
f 7 16 15
f 7 15 14
f 7 14 25
f 7 25 24
f 7 24 23
f 7 23 22
f 7 22 21
f 7 21 20
f 7 20 13
f 7 13 8
f 8 14 15
f 8 15 16
f 8 16 17
f 8 17 18
f 8 18 19
f 8 19 9
f 8 13 20
f 8 20 21
f 8 21 22
f 8 22 23
f 8 23 24
f 8 24 25
f 8 25 14
f 9 19 10
f 10 19 26
f 11 27 28
f 11 28 18
f 11 18 12
f 18 28 29
f 18 29 30
f 18 30 31
f 18 31 32
f 18 32 33
f 18 33 34
f 18 34 19
f 19 34 26
f 26 34 33
f 26 33 35
f 27 36 29
f 27 29 28
f 29 36 38
f 29 38 30
f 30 37 31
f 30 38 37
f 31 37 32
f 32 37 39
f 32 39 33
f 33 39 35

