# https://github.com/mikedh/trimesh
v 0.05322042 0.00530623 0.00500000
v 0.05322042 0.00840027 0.00500000
v 0.05378720 0.00530623 0.00500000
v 0.05322042 0.00530623 0.01449766
v 0.05378720 0.00824459 0.00500000
v 0.05322042 0.00840027 0.01499053
v 0.05378720 0.00530623 0.01499053
v 0.05322164 0.00530623 0.01499053
v 0.05322042 0.00575511 0.01499053
v 0.05378720 0.00824459 0.01499053
f 1 2 5
f 1 5 3
f 1 3 7
f 1 7 8
f 1 8 4
f 1 4 9
f 1 9 6
f 1 6 2
f 2 6 10
f 2 10 5
f 3 5 10
f 3 10 7
f 4 8 9
f 6 9 8
f 6 8 7
f 6 7 10

