# https://github.com/mikedh/trimesh
v 0.04861079 0.00848358 0.01590809
v 0.04861079 0.00848358 0.01511724
v 0.04855900 0.00847111 0.01590809
v 0.04861079 0.00451899 0.01590809
v 0.04861079 0.00451899 0.01511724
v 0.04855900 0.00847111 0.01511724
v 0.04823591 0.00838073 0.01590809
v 0.04689000 0.00317737 0.01590809
v 0.04689000 0.00317737 0.01511724
v 0.04821825 0.00837554 0.01511724
v 0.04819118 0.00836723 0.01590809
v 0.04259922 0.00317737 0.01590809
v 0.04259922 0.00317737 0.01511724
v 0.04819118 0.00836723 0.01511724
v 0.04815058 0.00835425 0.01511724
v 0.04789634 0.00827114 0.01590809
v 0.04269573 0.00341941 0.01590809
v 0.04269573 0.00341941 0.01511724
v 0.04787986 0.00826595 0.01511724
v 0.04787457 0.00826387 0.01590809
v 0.04285286 0.00376741 0.01590809
v 0.04283344 0.00372482 0.01511724
v 0.04787104 0.00826283 0.01511724
v 0.04782867 0.00824777 0.01590809
v 0.04286287 0.00378767 0.01590809
v 0.04285404 0.00377001 0.01511724
v 0.04782867 0.00824777 0.01511724
v 0.04778570 0.00823167 0.01511724
v 0.04749381 0.00812103 0.01590809
v 0.04302471 0.00410814 0.01590809
v 0.04300352 0.00406659 0.01511724
v 0.04747203 0.00811272 0.01511724
v 0.04747203 0.00811272 0.01590809
v 0.04302588 0.00411074 0.01511724
v 0.04303589 0.00412840 0.01590809
v 0.04742966 0.00809454 0.01511724
v 0.04712364 0.00796314 0.01511724
v 0.04712128 0.00796210 0.01590809
v 0.04318831 0.00440108 0.01511724
v 0.04321126 0.00444108 0.01590809
v 0.04712128 0.00796210 0.01511724
v 0.04679819 0.00780628 0.01590809
v 0.04321244 0.00444367 0.01511724
v 0.04322303 0.00446081 0.01590809
v 0.04677995 0.00779745 0.01511724
v 0.04677760 0.00779589 0.01590809
v 0.04341194 0.00476570 0.01511724
v 0.04341194 0.00476570 0.01590809
v 0.04673640 0.00777407 0.01511724
v 0.04644097 0.00761514 0.01590809
v 0.04356731 0.00499683 0.01511724
v 0.04355907 0.00498437 0.01590809
v 0.04644097 0.00761514 0.01511724
v 0.04640095 0.00759176 0.01511724
v 0.04611318 0.00742036 0.01590809
v 0.04357202 0.00500359 0.01590809
v 0.04356907 0.00499943 0.01511724
v 0.04611553 0.00742192 0.01511724
v 0.04579362 0.00721104 0.01590809
v 0.04362675 0.00508150 0.01590809
v 0.04362675 0.00508150 0.01511724
v 0.04579597 0.00721260 0.01511724
v 0.04579362 0.00721104 0.01511724
v 0.04578832 0.00720741 0.01511724
v 0.04575360 0.00718351 0.01590809
v 0.04376799 0.00527368 0.01590809
v 0.04377799 0.00528666 0.01511724
v 0.04575183 0.00718196 0.01511724
v 0.04574889 0.00717988 0.01511724
v 0.04571417 0.00715495 0.01511724
v 0.04548465 0.00698770 0.01590809
v 0.04378211 0.00529237 0.01590809
v 0.04385509 0.00538742 0.01511724
v 0.04548171 0.00698562 0.01511724
v 0.04546464 0.00697316 0.01511724
v 0.04546582 0.00697368 0.01590809
v 0.04385509 0.00538742 0.01590809
v 0.04406754 0.00564713 0.01511724
v 0.04518452 0.00675137 0.01511724
v 0.04518452 0.00675137 0.01590809
v 0.04409696 0.00568296 0.01590809
v 0.04409696 0.00568296 0.01511724
v 0.04489791 0.00650414 0.01511724
v 0.04491263 0.00651712 0.01590809
v 0.04411226 0.00570010 0.01590809
v 0.04409873 0.00568504 0.01511724
v 0.04489556 0.00650206 0.01511724
v 0.04489556 0.00650206 0.01590809
v 0.04435119 0.00596708 0.01590809
v 0.04432000 0.00593280 0.01511724
v 0.04486143 0.00647038 0.01511724
v 0.04461720 0.00624080 0.01590809
v 0.04436708 0.00598370 0.01590809
v 0.04435296 0.00596915 0.01511724
v 0.04461720 0.00624080 0.01511724
v 0.04458483 0.00620756 0.01511724
f 1 2 6
f 1 6 3
f 1 3 7
f 1 7 11
f 1 11 16
f 1 16 20
f 1 20 24
f 1 24 29
f 1 29 33
f 1 33 38
f 1 38 42
f 1 42 46
f 1 46 50
f 1 50 55
f 1 55 59
f 1 59 65
f 1 65 71
f 1 71 76
f 1 76 80
f 1 80 84
f 1 84 88
f 1 88 92
f 1 92 93
f 1 93 89
f 1 89 85
f 1 85 81
f 1 81 77
f 1 77 72
f 1 72 66
f 1 66 60
f 1 60 56
f 1 56 52
f 1 52 48
f 1 48 44
f 1 44 40
f 1 40 35
f 1 35 30
f 1 30 25
f 1 25 21
f 1 21 17
f 1 17 12
f 1 12 8
f 1 8 4
f 1 4 5
f 1 5 2
f 2 5 9
f 2 9 13
f 2 13 18
f 2 18 22
f 2 22 26
f 2 26 31
f 2 31 34
f 2 34 39
f 2 39 43
f 2 43 47
f 2 47 51
f 2 51 57
f 2 57 61
f 2 61 67
f 2 67 73
f 2 73 78
f 2 78 82
f 2 82 86
f 2 86 90
f 2 90 94
f 2 94 96
f 2 96 95
f 2 95 91
f 2 91 87
f 2 87 83
f 2 83 79
f 2 79 75
f 2 75 74
f 2 74 70
f 2 70 69
f 2 69 68
f 2 68 64
f 2 64 63
f 2 63 62
f 2 62 58
f 2 58 54
f 2 54 53
f 2 53 49
f 2 49 45
f 2 45 41
f 2 41 37
f 2 37 36
f 2 36 32
f 2 32 28
f 2 28 27
f 2 27 23
f 2 23 19
f 2 19 15
f 2 15 14
f 2 14 10
f 2 10 6
f 3 6 7
f 4 8 9
f 4 9 5
f 6 10 7
f 7 10 11
f 8 12 13
f 8 13 9
f 10 14 11
f 11 14 15
f 11 15 16
f 12 17 18
f 12 18 13
f 15 19 16
f 16 19 20
f 17 21 22
f 17 22 18
f 19 23 24
f 19 24 20
f 21 25 26
f 21 26 22
f 23 27 24
f 24 27 28
f 24 28 29
f 25 30 31
f 25 31 26
f 28 32 29
f 29 32 33
f 30 34 31
f 30 35 34
f 32 36 33
f 33 36 37
f 33 37 38
f 34 35 39
f 35 40 39
f 37 41 38
f 38 41 42
f 39 40 43
f 40 44 43
f 41 45 42
f 42 45 46
f 43 44 47
f 44 48 47
f 45 49 46
f 46 49 50
f 47 48 51
f 48 52 51
f 49 53 50
f 50 53 54
f 50 54 55
f 51 52 56
f 51 56 57
f 54 58 55
f 55 58 62
f 55 62 59
f 56 60 57
f 57 60 61
f 59 62 63
f 59 63 64
f 59 64 65
f 60 66 61
f 61 66 67
f 64 68 65
f 65 68 69
f 65 69 70
f 65 70 71
f 66 72 67
f 67 72 73
f 70 74 71
f 71 74 75
f 71 75 76
f 72 77 73
f 73 77 78
f 75 79 80
f 75 80 76
f 77 81 78
f 78 81 82
f 79 83 84
f 79 84 80
f 81 85 86
f 81 86 82
f 83 87 88
f 83 88 84
f 85 89 90
f 85 90 86
f 87 91 88
f 88 91 92
f 89 93 94
f 89 94 90
f 91 95 92
f 92 95 96
f 92 96 93
f 93 96 94

