# https://github.com/mikedh/trimesh
v 0.05322031 0.00434677 0.00500000
v 0.05207883 0.00481951 0.00500000
v 0.05322031 0.00840020 0.00500000
v 0.05322031 0.00434677 0.01499053
v 0.05207883 0.00481951 0.01499053
v 0.05207883 0.00861983 0.00500000
v 0.05302598 0.00862025 0.00500000
v 0.05302632 0.00862025 0.01473725
v 0.05322031 0.00840020 0.01499053
v 0.05207883 0.00862025 0.01499053
v 0.05207883 0.00862025 0.00502543
v 0.05207894 0.00862025 0.00500000
v 0.05302632 0.00862025 0.01499053
f 1 2 6
f 1 6 12
f 1 12 7
f 1 7 3
f 1 3 9
f 1 9 4
f 1 4 5
f 1 5 2
f 2 5 10
f 2 10 11
f 2 11 6
f 3 7 8
f 3 8 13
f 3 13 9
f 4 9 13
f 4 13 10
f 4 10 5
f 6 11 12
f 7 12 11
f 7 11 10
f 7 10 13
f 7 13 8

