# https://github.com/mikedh/trimesh
v 0.04721053 -0.00799964 0.01511724
v 0.04732844 -0.00805304 0.01511724
v 0.04721053 -0.00799964 0.01590809
v 0.04721053 -0.00353139 0.01511724
v 0.04731017 -0.00804471 0.01590809
v 0.04768297 -0.00819463 0.01511724
v 0.04766438 -0.00818729 0.01590809
v 0.04733115 -0.00805402 0.01590809
v 0.04721053 -0.00353139 0.01590809
v 0.04883396 -0.00461856 0.01511724
v 0.04768583 -0.00819561 0.01590809
v 0.04787621 -0.00826421 0.01511724
v 0.04786620 -0.00826078 0.01590809
v 0.04883396 -0.00461856 0.01590809
v 0.04883396 -0.00853661 0.01511724
v 0.04804609 -0.00832153 0.01511724
v 0.04804609 -0.00832153 0.01590809
v 0.04883396 -0.00853661 0.01590809
v 0.04882697 -0.00853514 0.01511724
v 0.04821421 -0.00837444 0.01511724
v 0.04820531 -0.00837150 0.01590809
v 0.04878168 -0.00852534 0.01590809
v 0.04877866 -0.00852485 0.01511724
v 0.04841158 -0.00843177 0.01511724
v 0.04841158 -0.00843177 0.01590809
v 0.04875928 -0.00851995 0.01590809
f 1 2 3
f 1 3 9
f 1 9 4
f 1 4 10
f 1 10 15
f 1 15 19
f 1 19 23
f 1 23 24
f 1 24 20
f 1 20 16
f 1 16 12
f 1 12 6
f 1 6 2
f 2 5 3
f 2 6 7
f 2 7 8
f 2 8 5
f 3 5 8
f 3 8 7
f 3 7 11
f 3 11 13
f 3 13 17
f 3 17 21
f 3 21 25
f 3 25 26
f 3 26 22
f 3 22 18
f 3 18 14
f 3 14 9
f 4 9 14
f 4 14 10
f 6 11 7
f 6 12 13
f 6 13 11
f 10 14 18
f 10 18 15
f 12 16 17
f 12 17 13
f 15 18 19
f 16 20 17
f 17 20 21
f 18 22 23
f 18 23 19
f 20 24 25
f 20 25 21
f 22 26 23
f 23 26 24
f 24 26 25

