# https://github.com/mikedh/trimesh
v 0.04989506 0.01011425 0.01499053
v 0.04990317 0.01009842 0.01500000
v 0.04990317 0.01009842 0.01499053
v 0.04949029 0.01007178 0.01499053
v 0.04948141 0.01005428 0.01500000
v 0.04993310 0.01003781 0.01500000
v 0.04993310 0.01003781 0.01499053
v 0.04948431 0.01007114 0.01499053
v 0.04947928 0.01007050 0.01499053
v 0.04947291 0.01006960 0.01499053
v 0.04916219 0.01002533 0.01499053
v 0.04916470 0.01000912 0.01500000
v 0.04998930 0.00991544 0.01500000
v 0.04998930 0.00991544 0.01499053
v 0.04884645 0.00997026 0.01499053
v 0.04884954 0.00995404 0.01500000
v 0.05003487 0.00980491 0.01500000
v 0.05003468 0.00980504 0.01499053
v 0.04883583 0.00996807 0.01499053
v 0.04882289 0.00996537 0.01499053
v 0.04843473 0.00986590 0.01500000
v 0.05007079 0.00970686 0.01500000
v 0.05007079 0.00970698 0.01499053
v 0.04843763 0.00988340 0.01499053
v 0.04843473 0.00986590 0.01499053
v 0.04842507 0.00979899 0.01500000
v 0.05036915 0.00879968 0.01500000
v 0.05036915 0.00879968 0.01499053
v 0.04842507 0.00979886 0.01499053
v 0.04840943 0.00966516 0.01499053
v 0.04840943 0.00966516 0.01500000
v 0.04849421 0.00879968 0.01500000
v 0.04849421 0.00879968 0.01499053
v 0.04840036 0.00954588 0.01499053
v 0.04840036 0.00954601 0.01500000
v 0.04841928 0.00910902 0.01500000
v 0.04841928 0.00910902 0.01499053
v 0.04839630 0.00944178 0.01499053
v 0.04839630 0.00944178 0.01500000
v 0.04841523 0.00912922 0.01500000
v 0.04841523 0.00912922 0.01499053
v 0.04839630 0.00935209 0.01500000
v 0.04839649 0.00935209 0.01499053
v 0.04840943 0.00916654 0.01500000
v 0.04840943 0.00916654 0.01499053
v 0.04839920 0.00927759 0.01499053
v 0.04839920 0.00927759 0.01500000
v 0.04840422 0.00921145 0.01500000
v 0.04840422 0.00921145 0.01499053
f 1 2 3
f 1 3 7
f 1 7 14
f 1 14 18
f 1 18 23
f 1 23 28
f 1 28 33
f 1 33 37
f 1 37 41
f 1 41 45
f 1 45 49
f 1 49 46
f 1 46 43
f 1 43 38
f 1 38 34
f 1 34 30
f 1 30 29
f 1 29 25
f 1 25 24
f 1 24 20
f 1 20 19
f 1 19 15
f 1 15 11
f 1 11 10
f 1 10 9
f 1 9 8
f 1 8 4
f 1 4 5
f 1 5 2
f 2 6 7
f 2 7 3
f 2 5 12
f 2 12 16
f 2 16 21
f 2 21 26
f 2 26 31
f 2 31 35
f 2 35 39
f 2 39 42
f 2 42 47
f 2 47 48
f 2 48 44
f 2 44 40
f 2 40 36
f 2 36 32
f 2 32 27
f 2 27 22
f 2 22 17
f 2 17 13
f 2 13 6
f 4 8 5
f 5 8 9
f 5 9 10
f 5 10 11
f 5 11 12
f 6 13 14
f 6 14 7
f 11 15 12
f 12 15 16
f 13 17 14
f 14 17 18
f 15 19 16
f 16 19 20
f 16 20 21
f 17 22 23
f 17 23 18
f 20 24 21
f 21 24 25
f 21 25 26
f 22 27 23
f 23 27 28
f 25 29 26
f 26 29 30
f 26 30 31
f 27 32 33
f 27 33 28
f 30 34 35
f 30 35 31
f 32 36 37
f 32 37 33
f 34 38 35
f 35 38 39
f 36 40 41
f 36 41 37
f 38 42 39
f 38 43 42
f 40 44 45
f 40 45 41
f 42 43 46
f 42 46 47
f 44 48 49
f 44 49 45
f 46 49 48
f 46 48 47

