# https://github.com/mikedh/trimesh
v 0.04853532 0.00448184 0.01590809
v 0.04945504 0.00482963 0.01590809
v 0.04853532 0.00448184 0.03000000
v 0.04853532 0.00846429 0.01590809
v 0.04945504 0.00865165 0.01590809
v 0.04945504 0.00482963 0.03000000
v 0.04853532 0.00846429 0.03000000
v 0.04855927 0.00847123 0.01590809
v 0.04932863 0.00863328 0.01590809
v 0.04945504 0.00865165 0.03000000
v 0.04855927 0.00847123 0.03000000
v 0.04858178 0.00847653 0.01590809
v 0.04930576 0.00862961 0.01590809
v 0.04930576 0.00862961 0.03000000
v 0.04893085 0.00855858 0.03000000
v 0.04893085 0.00855858 0.01590809
v 0.04895354 0.00856307 0.01590809
f 1 2 6
f 1 6 3
f 1 3 7
f 1 7 4
f 1 4 8
f 1 8 12
f 1 12 16
f 1 16 17
f 1 17 13
f 1 13 9
f 1 9 5
f 1 5 2
f 2 5 10
f 2 10 6
f 3 6 10
f 3 10 14
f 3 14 15
f 3 15 11
f 3 11 7
f 4 7 11
f 4 11 8
f 5 9 10
f 8 11 12
f 9 13 14
f 9 14 10
f 11 15 12
f 12 15 16
f 13 17 14
f 14 17 15
f 15 17 16

