# https://github.com/mikedh/trimesh
v 0.04063588 0.00085534 0.01499053
v 0.04067689 0.00124682 0.01499053
v 0.04065166 0.00084718 0.01499053
v 0.04065166 0.00084718 0.01500000
v 0.04069582 0.00126852 0.01500000
v 0.04067952 0.00127071 0.01499053
v 0.04071238 0.00081711 0.01499053
v 0.04071225 0.00081731 0.01500000
v 0.04074090 0.00158493 0.01500000
v 0.04072474 0.00158751 0.01499053
v 0.04083475 0.00076096 0.01499053
v 0.04083462 0.00076096 0.01500000
v 0.04078875 0.00185912 0.01500000
v 0.04078007 0.00190472 0.01499053
v 0.04094516 0.00071556 0.01499053
v 0.04094502 0.00071556 0.01500000
v 0.04079597 0.00190034 0.01500000
v 0.04078204 0.00191408 0.01499053
v 0.04197851 0.00031950 0.01499053
v 0.04197851 0.00031950 0.01500000
v 0.04088417 0.00231511 0.01500000
v 0.04086669 0.00231212 0.01499053
v 0.04197851 0.00225338 0.01499053
v 0.04197851 0.00225338 0.01500000
v 0.04095094 0.00232467 0.01500000
v 0.04088417 0.00231511 0.01499053
v 0.04164098 0.00233084 0.01499053
v 0.04164098 0.00233084 0.01500000
v 0.04095094 0.00232467 0.01499053
v 0.04107331 0.00233900 0.01500000
v 0.04162074 0.00233482 0.01499053
v 0.04162074 0.00233482 0.01500000
v 0.04107331 0.00233900 0.01499134
v 0.04108461 0.00234020 0.01499053
v 0.04108474 0.00234020 0.01500000
v 0.04158341 0.00234040 0.01499053
v 0.04158354 0.00234040 0.01500000
v 0.04120382 0.00234936 0.01499053
v 0.04120395 0.00234936 0.01500000
v 0.04153846 0.00234578 0.01499053
v 0.04153859 0.00234578 0.01500000
v 0.04130818 0.00235374 0.01500000
v 0.04129622 0.00235314 0.01499163
v 0.04130818 0.00235354 0.01499053
v 0.04147235 0.00235075 0.01499053
v 0.04147235 0.00235075 0.01500000
v 0.04139782 0.00235354 0.01500000
v 0.04139782 0.00235354 0.01499053
f 1 2 6
f 1 6 10
f 1 10 14
f 1 14 18
f 1 18 22
f 1 22 26
f 1 26 29
f 1 29 34
f 1 34 38
f 1 38 44
f 1 44 48
f 1 48 45
f 1 45 40
f 1 40 36
f 1 36 31
f 1 31 27
f 1 27 23
f 1 23 19
f 1 19 15
f 1 15 11
f 1 11 7
f 1 7 3
f 1 3 4
f 1 4 2
f 2 4 5
f 2 5 6
f 3 7 4
f 4 7 8
f 4 8 12
f 4 12 16
f 4 16 20
f 4 20 24
f 4 24 28
f 4 28 32
f 4 32 37
f 4 37 41
f 4 41 46
f 4 46 47
f 4 47 42
f 4 42 39
f 4 39 35
f 4 35 30
f 4 30 25
f 4 25 21
f 4 21 17
f 4 17 13
f 4 13 9
f 4 9 5
f 5 9 6
f 6 9 10
f 7 11 12
f 7 12 8
f 9 13 14
f 9 14 10
f 11 15 16
f 11 16 12
f 13 17 14
f 14 17 18
f 15 19 16
f 16 19 20
f 17 21 18
f 18 21 22
f 19 23 24
f 19 24 20
f 21 25 29
f 21 29 26
f 21 26 22
f 23 27 28
f 23 28 24
f 25 30 33
f 25 33 29
f 27 31 32
f 27 32 28
f 29 33 34
f 30 35 34
f 30 34 33
f 31 36 37
f 31 37 32
f 34 35 39
f 34 39 38
f 36 40 41
f 36 41 37
f 38 39 42
f 38 42 43
f 38 43 44
f 40 45 41
f 41 45 46
f 42 47 48
f 42 48 44
f 42 44 43
f 45 48 47
f 45 47 46

