# https://github.com/mikedh/trimesh
v 0.06070331 0.00468172 0.01449961
v 0.06070331 0.00468172 0.00550070
v 0.06055096 0.00499370 0.01449961
v 0.05993501 0.00432019 0.01498956
v 0.06062676 0.00456816 0.01456709
v 0.06055096 0.00499370 0.00550070
v 0.06062676 0.00456816 0.00543225
v 0.05991990 0.00431316 0.00500000
v 0.06038828 0.00530067 0.01449961
v 0.05964391 0.00489118 0.01498956
v 0.05979072 0.00461371 0.01498956
v 0.05979374 0.00460789 0.01498956
v 0.05996951 0.00424274 0.01498956
v 0.06026288 0.00410591 0.01486829
v 0.06038022 0.00424334 0.01477441
v 0.06050211 0.00439683 0.01467271
v 0.06038828 0.00530067 0.00550070
v 0.05977913 0.00460047 0.00500000
v 0.05962955 0.00488315 0.00500000
v 0.06050211 0.00439683 0.00532663
v 0.06038022 0.00424334 0.00522590
v 0.06009240 0.00392615 0.00500000
v 0.06025129 0.00530508 0.01456709
v 0.05984309 0.00529705 0.01477441
v 0.05964139 0.00489559 0.01498956
v 0.06010473 0.00393879 0.01498956
v 0.06015031 0.00398473 0.01495435
v 0.06026288 0.00410591 0.00513300
v 0.06025129 0.00530508 0.00543225
v 0.05941752 0.00525051 0.00500000
v 0.05984309 0.00529705 0.00522590
v 0.06004379 0.00387900 0.00500000
v 0.06015031 0.00398473 0.00504499
v 0.06009240 0.00392615 0.01498956
v 0.06004405 0.00387900 0.01498956
v 0.06003926 0.00530508 0.01467271
v 0.05966304 0.00528261 0.01486829
v 0.05943515 0.00525312 0.01498956
v 0.06003926 0.00530508 0.00532663
v 0.05949886 0.00526275 0.00504499
v 0.05966304 0.00528261 0.00513300
v 0.05935129 0.00523907 0.00500000
v 0.05935104 0.00523907 0.01498956
v 0.05941777 0.00525051 0.01498956
v 0.05949886 0.00526275 0.01495435
v 0.05994483 0.00378771 0.00500000
v 0.05994483 0.00378791 0.01498956
v 0.05921909 0.00521239 0.00500000
v 0.05921883 0.00521239 0.01498956
v 0.05985392 0.00371027 0.00500000
v 0.05985392 0.00371027 0.01498956
v 0.05910300 0.00518430 0.00500000
v 0.05910275 0.00518430 0.01498956
v 0.05977158 0.00364567 0.00500000
v 0.05977183 0.00364587 0.01498956
v 0.05900252 0.00515581 0.00500000
v 0.05900252 0.00515581 0.01498956
v 0.05969931 0.00359310 0.00500000
v 0.05969931 0.00359310 0.01498956
v 0.05891741 0.00512812 0.00500000
v 0.05891715 0.00512812 0.01498956
v 0.05963711 0.00355157 0.00500000
v 0.05963736 0.00355157 0.01498956
v 0.05813097 0.00484905 0.00500000
v 0.05813097 0.00484905 0.01498956
v 0.05958070 0.00351686 0.00500000
v 0.05958070 0.00351686 0.01498956
v 0.05813097 0.00325564 0.00500000
v 0.05813097 0.00325564 0.01498956
v 0.05954141 0.00349459 0.00500000
v 0.05954141 0.00349459 0.01498956
v 0.05908512 0.00325564 0.00500000
v 0.05908512 0.00325564 0.01498956
f 1 2 6
f 1 6 3
f 1 3 4
f 1 4 5
f 1 5 7
f 1 7 2
f 2 7 8
f 2 8 6
f 3 6 17
f 3 17 9
f 3 9 10
f 3 10 11
f 3 11 12
f 3 12 4
f 4 13 14
f 4 14 15
f 4 15 5
f 4 12 11
f 4 11 10
f 4 10 25
f 4 25 38
f 4 38 44
f 4 44 43
f 4 43 49
f 4 49 53
f 4 53 57
f 4 57 61
f 4 61 65
f 4 65 69
f 4 69 73
f 4 73 71
f 4 71 67
f 4 67 63
f 4 63 59
f 4 59 55
f 4 55 51
f 4 51 47
f 4 47 35
f 4 35 34
f 4 34 26
f 4 26 13
f 5 15 16
f 5 16 20
f 5 20 7
f 6 8 18
f 6 18 19
f 6 19 17
f 7 20 21
f 7 21 8
f 8 22 32
f 8 32 46
f 8 46 50
f 8 50 54
f 8 54 58
f 8 58 62
f 8 62 66
f 8 66 70
f 8 70 72
f 8 72 68
f 8 68 64
f 8 64 60
f 8 60 56
f 8 56 52
f 8 52 48
f 8 48 42
f 8 42 30
f 8 30 19
f 8 19 18
f 8 21 22
f 9 17 29
f 9 29 23
f 9 23 24
f 9 24 10
f 10 24 25
f 13 26 14
f 14 26 27
f 14 27 33
f 14 33 28
f 14 28 21
f 14 21 15
f 15 21 20
f 15 20 16
f 17 19 29
f 19 30 31
f 19 31 29
f 21 28 22
f 22 28 33
f 22 33 27
f 22 27 34
f 22 34 35
f 22 35 32
f 23 36 24
f 23 29 39
f 23 39 36
f 24 37 25
f 24 36 39
f 24 39 31
f 24 31 41
f 24 41 37
f 25 37 38
f 26 34 27
f 29 31 39
f 30 40 41
f 30 41 31
f 30 42 43
f 30 43 44
f 30 44 45
f 30 45 40
f 32 35 46
f 35 47 46
f 37 45 38
f 37 41 40
f 37 40 45
f 38 45 44
f 42 48 49
f 42 49 43
f 46 47 51
f 46 51 50
f 48 52 53
f 48 53 49
f 50 51 54
f 51 55 54
f 52 56 53
f 53 56 57
f 54 55 59
f 54 59 58
f 56 60 61
f 56 61 57
f 58 59 63
f 58 63 62
f 60 64 61
f 61 64 65
f 62 63 66
f 63 67 66
f 64 68 69
f 64 69 65
f 66 67 71
f 66 71 70
f 68 72 73
f 68 73 69
f 70 71 73
f 70 73 72

