# https://github.com/mikedh/trimesh
v 0.04908586 -0.00887570 0.01499053
v 0.05026807 -0.00887570 0.01499053
v 0.04908586 -0.00887570 0.01500000
v 0.04908586 -0.00471406 0.01499053
v 0.05027312 -0.00887570 0.01499110
v 0.05074880 -0.00874901 0.01499053
v 0.05027312 -0.00887570 0.01500000
v 0.05067359 -0.00874942 0.01511715
v 0.05057315 -0.00874819 0.01511715
v 0.05032603 -0.00873923 0.01511715
v 0.05028907 -0.00873760 0.01511715
v 0.04991139 -0.00870949 0.01511715
v 0.04953224 -0.00866468 0.01511715
v 0.04952931 -0.00866428 0.01511715
v 0.04920112 -0.00861091 0.01511715
v 0.04915260 -0.00860276 0.01511715
v 0.04908586 -0.00858891 0.01511715
v 0.04908586 -0.00471406 0.01511715
v 0.05074880 -0.00500003 0.01499053
v 0.05074880 -0.00874901 0.01511715
v 0.05070648 -0.00874942 0.01511715
v 0.05074880 -0.00500003 0.01511715
f 1 2 5
f 1 5 7
f 1 7 3
f 1 3 17
f 1 17 18
f 1 18 4
f 1 4 19
f 1 19 6
f 1 6 2
f 2 6 5
f 3 7 21
f 3 21 8
f 3 8 9
f 3 9 10
f 3 10 11
f 3 11 12
f 3 12 13
f 3 13 14
f 3 14 15
f 3 15 16
f 3 16 17
f 4 18 22
f 4 22 19
f 5 6 20
f 5 20 7
f 6 19 22
f 6 22 20
f 7 20 21
f 8 21 20
f 8 20 22
f 8 22 18
f 8 18 17
f 8 17 16
f 8 16 15
f 8 15 14
f 8 14 13
f 8 13 12
f 8 12 11
f 8 11 10
f 8 10 9

