# https://github.com/mikedh/trimesh
v 0.04772499 -0.00398104 0.01499053
v 0.04772499 -0.00530706 0.01499053
v 0.04772499 -0.00398104 0.00500000
v 0.04694834 -0.00324693 0.01499053
v 0.04379214 -0.00530706 0.01499053
v 0.04772499 -0.00530706 0.00500000
v 0.04694834 -0.00324693 0.00500000
v 0.04335872 -0.00324693 0.01499053
v 0.04335872 -0.00484583 0.01499053
v 0.04379214 -0.00530706 0.00500000
v 0.04335872 -0.00324693 0.00500000
v 0.04335872 -0.00484583 0.00500000
f 1 2 6
f 1 6 3
f 1 3 7
f 1 7 4
f 1 4 8
f 1 8 9
f 1 9 5
f 1 5 2
f 2 5 10
f 2 10 6
f 3 6 10
f 3 10 12
f 3 12 11
f 3 11 7
f 4 7 11
f 4 11 8
f 5 9 12
f 5 12 10
f 8 11 12
f 8 12 9

