# https://github.com/mikedh/trimesh
v 0.04613140 -0.00191517 0.03000000
v 0.04586847 -0.00108305 0.03000000
v 0.04221399 -0.00191517 0.03000000
v 0.04613140 -0.00191517 0.01590809
v 0.04206801 -0.00108305 0.03000000
v 0.04586847 -0.00108305 0.01590809
v 0.04219132 -0.00181920 0.03000000
v 0.04221399 -0.00191517 0.01590809
v 0.04212012 -0.00144420 0.03000000
v 0.04206801 -0.00108305 0.01590809
v 0.04218694 -0.00179647 0.01590809
v 0.04219132 -0.00181920 0.01590809
v 0.04212012 -0.00144420 0.01590809
f 1 2 5
f 1 5 9
f 1 9 7
f 1 7 3
f 1 3 8
f 1 8 4
f 1 4 6
f 1 6 2
f 2 6 10
f 2 10 5
f 3 7 12
f 3 12 8
f 4 8 12
f 4 12 11
f 4 11 13
f 4 13 10
f 4 10 6
f 5 10 13
f 5 13 9
f 7 9 11
f 7 11 12
f 9 13 11

