# https://github.com/mikedh/trimesh
v 0.04905402 0.00470360 0.01499053
v 0.05074880 0.00500033 0.01499053
v 0.04905402 0.00470360 0.01511715
v 0.04905402 0.00879968 0.01499053
v 0.05074880 0.00500033 0.01511616
v 0.05074880 0.00874916 0.01499053
v 0.05063697 0.00499792 0.01511715
v 0.04905402 0.00858195 0.01511715
v 0.04905402 0.00879968 0.01500000
v 0.05036899 0.00879968 0.01499053
v 0.05074880 0.00502238 0.01511715
v 0.05074880 0.00874916 0.01511715
v 0.04926043 0.00862124 0.01511715
v 0.04968371 0.00868460 0.01511715
v 0.04968670 0.00868500 0.01511715
v 0.05001739 0.00871828 0.01511715
v 0.05006634 0.00872309 0.01511715
v 0.05039836 0.00874194 0.01511715
v 0.05044449 0.00874435 0.01511715
v 0.05055583 0.00874755 0.01511715
v 0.05057126 0.00874796 0.01511715
v 0.05036899 0.00879968 0.01500000
v 0.04930589 0.00862966 0.01511715
f 1 2 5
f 1 5 3
f 1 3 8
f 1 8 9
f 1 9 4
f 1 4 10
f 1 10 6
f 1 6 2
f 2 6 12
f 2 12 11
f 2 11 5
f 3 5 7
f 3 7 11
f 3 11 12
f 3 12 21
f 3 21 20
f 3 20 19
f 3 19 18
f 3 18 17
f 3 17 16
f 3 16 15
f 3 15 14
f 3 14 23
f 3 23 13
f 3 13 8
f 4 9 22
f 4 22 10
f 5 11 7
f 6 10 22
f 6 22 12
f 8 13 9
f 9 14 15
f 9 15 16
f 9 16 17
f 9 17 18
f 9 18 19
f 9 19 20
f 9 20 21
f 9 21 12
f 9 12 22
f 9 13 23
f 9 23 14

