# https://github.com/mikedh/trimesh
v 0.05074897 -0.00874890 0.01499053
v 0.05097801 -0.00875009 0.01499053
v 0.05074897 -0.00874890 0.01511717
v 0.05074897 -0.00500045 0.01499053
v 0.05097801 -0.00875009 0.01500005
v 0.05231363 -0.00875009 0.01499053
v 0.05075097 -0.00874890 0.01590809
v 0.05074897 -0.00500045 0.01511717
v 0.05075097 -0.00500005 0.01511726
v 0.05245818 -0.00469990 0.01511726
v 0.05231363 -0.00474828 0.01499053
v 0.05231363 -0.00875009 0.01500005
v 0.05245818 -0.00857920 0.01511726
v 0.05091243 -0.00874771 0.01590809
v 0.05075097 -0.00500005 0.01590809
v 0.05245818 -0.00469990 0.01590809
v 0.05143660 -0.00872234 0.01590809
v 0.05141368 -0.00872392 0.01590809
v 0.05105564 -0.00874415 0.01590809
v 0.05093551 -0.00874732 0.01590809
v 0.05245818 -0.00857920 0.01590809
v 0.05219400 -0.00862956 0.01590809
v 0.05181622 -0.00868427 0.01590809
v 0.05179330 -0.00868665 0.01590809
f 1 2 5
f 1 5 3
f 1 3 8
f 1 8 4
f 1 4 11
f 1 11 6
f 1 6 2
f 2 6 12
f 2 12 5
f 3 5 7
f 3 7 15
f 3 15 8
f 4 8 15
f 4 15 9
f 4 9 10
f 4 10 11
f 5 12 7
f 6 11 10
f 6 10 13
f 6 13 21
f 6 21 12
f 7 12 14
f 7 14 20
f 7 20 19
f 7 19 18
f 7 18 17
f 7 17 24
f 7 24 23
f 7 23 22
f 7 22 21
f 7 21 16
f 7 16 15
f 9 15 16
f 9 16 10
f 10 16 21
f 10 21 13
f 12 17 18
f 12 18 19
f 12 19 20
f 12 20 14
f 12 21 22
f 12 22 23
f 12 23 24
f 12 24 17

