# https://github.com/mikedh/trimesh
v 0.05924002 0.00176057 0.01499053
v 0.05960421 0.00176057 0.01499053
v 0.05924002 0.00176057 0.01511715
v 0.05924002 0.00229650 0.01499053
v 0.05960421 0.00176057 0.01500000
v 0.05960421 0.00226600 0.01499053
v 0.05931995 0.00176057 0.01511715
v 0.05924002 0.00211148 0.01511715
v 0.05924002 0.00235395 0.01499155
v 0.05924134 0.00235278 0.01499053
v 0.05960421 0.00210283 0.01500000
v 0.05960421 0.00226600 0.01499993
v 0.05930883 0.00181924 0.01511715
v 0.05924002 0.00235395 0.01500000
f 1 2 5
f 1 5 7
f 1 7 3
f 1 3 8
f 1 8 14
f 1 14 9
f 1 9 4
f 1 4 10
f 1 10 6
f 1 6 2
f 2 6 12
f 2 12 11
f 2 11 5
f 3 7 13
f 3 13 8
f 4 9 10
f 5 11 7
f 6 10 9
f 6 9 14
f 6 14 12
f 7 11 12
f 7 12 13
f 8 12 14
f 8 13 12

