# https://github.com/mikedh/trimesh
v 0.04372620 0.00581933 0.01499053
v 0.04372620 0.00581933 0.01500000
v 0.04419924 0.00581933 0.01499053
v 0.04375574 0.00525683 0.01499053
v 0.04419924 0.00579785 0.01511715
v 0.04419924 0.00581933 0.01500000
v 0.04375574 0.00525683 0.01511715
v 0.04375625 0.00525754 0.01511715
v 0.04377575 0.00528403 0.01511715
v 0.04377765 0.00528656 0.01511715
v 0.04384549 0.00537477 0.01511715
v 0.04385494 0.00538705 0.01511715
v 0.04385679 0.00538936 0.01511715
v 0.04409639 0.00568267 0.01511715
v 0.04419924 0.00525683 0.01499053
v 0.04419924 0.00525683 0.01511715
f 1 2 6
f 1 6 3
f 1 3 15
f 1 15 4
f 1 4 7
f 1 7 2
f 2 5 6
f 2 7 8
f 2 8 9
f 2 9 10
f 2 10 11
f 2 11 12
f 2 12 13
f 2 13 14
f 2 14 5
f 3 6 5
f 3 5 16
f 3 16 15
f 4 15 16
f 4 16 7
f 5 14 13
f 5 13 12
f 5 12 11
f 5 11 10
f 5 10 9
f 5 9 8
f 5 8 7
f 5 7 16

