# https://github.com/mikedh/trimesh
v 0.04641527 0.00249150 0.01499053
v 0.04235941 0.00249150 0.01499053
v 0.04609168 0.00181355 0.01499053
v 0.04641527 0.00249150 0.00500000
v 0.04167229 0.00232306 0.01499053
v 0.04235941 0.00249150 0.00500000
v 0.04167229 0.00181355 0.01499053
v 0.04609168 0.00181355 0.00500000
v 0.04167229 0.00232306 0.00500000
v 0.04167229 0.00181355 0.00500000
f 1 2 5
f 1 5 7
f 1 7 3
f 1 3 8
f 1 8 4
f 1 4 6
f 1 6 2
f 2 6 9
f 2 9 5
f 3 7 10
f 3 10 8
f 4 8 10
f 4 10 9
f 4 9 6
f 5 9 10
f 5 10 7

