# https://github.com/mikedh/trimesh
v 0.04604376 0.00168847 0.01590809
v 0.04574966 0.00000068 0.01590809
v 0.04604376 0.00168847 0.01511724
v 0.04216616 0.00168847 0.01590809
v 0.04574966 0.00000068 0.01511724
v 0.04200109 0.00000068 0.01590809
v 0.04216616 0.00168847 0.01511724
v 0.04214716 0.00159744 0.01511724
v 0.04214676 0.00159446 0.01590809
v 0.04200109 0.00000068 0.01511724
v 0.04200030 0.00007651 0.01590809
v 0.04213924 0.00154887 0.01511724
v 0.04208897 0.00124042 0.01590809
v 0.04200030 0.00007651 0.01511724
v 0.04200188 0.00017150 0.01590809
v 0.04200188 0.00017993 0.01511724
v 0.04208580 0.00122059 0.01511724
v 0.04208540 0.00121762 0.01590809
v 0.04200267 0.00019463 0.01590809
v 0.04201218 0.00045798 0.01590809
v 0.04201218 0.00045798 0.01511724
v 0.04208540 0.00121762 0.01511724
v 0.04207986 0.00117169 0.01511724
v 0.04204305 0.00086159 0.01590809
v 0.04201376 0.00048111 0.01590809
v 0.04204068 0.00084176 0.01511724
v 0.04204068 0.00083879 0.01590809
f 1 2 5
f 1 5 3
f 1 3 7
f 1 7 4
f 1 4 9
f 1 9 13
f 1 13 18
f 1 18 24
f 1 24 27
f 1 27 25
f 1 25 20
f 1 20 19
f 1 19 15
f 1 15 11
f 1 11 6
f 1 6 2
f 2 6 10
f 2 10 5
f 3 5 10
f 3 10 14
f 3 14 16
f 3 16 21
f 3 21 26
f 3 26 23
f 3 23 22
f 3 22 17
f 3 17 12
f 3 12 8
f 3 8 7
f 4 7 8
f 4 8 9
f 6 11 14
f 6 14 10
f 8 12 13
f 8 13 9
f 11 15 16
f 11 16 14
f 12 17 13
f 13 17 18
f 15 19 16
f 16 19 20
f 16 20 21
f 17 22 18
f 18 22 23
f 18 23 24
f 20 25 21
f 21 25 26
f 23 26 24
f 24 26 27
f 25 27 26

