# https://github.com/mikedh/trimesh
v 0.05396303 -0.00813740 0.01511724
v 0.05402508 -0.00811392 0.01511724
v 0.05396303 -0.00813740 0.01590809
v 0.05396303 -0.00383136 0.01511724
v 0.05402783 -0.00811285 0.01511724
v 0.05402783 -0.00811285 0.01590809
v 0.05396303 -0.00383136 0.01590809
v 0.05396392 -0.00383029 0.01511724
v 0.05437866 -0.00796183 0.01511724
v 0.05437866 -0.00796183 0.01590809
v 0.05396392 -0.00383029 0.01590809
v 0.05496754 -0.00268561 0.01511724
v 0.05471966 -0.00779746 0.01511724
v 0.05470157 -0.00780600 0.01590809
v 0.05496754 -0.00268561 0.01590809
v 0.05496754 -0.00766458 0.01511724
v 0.05496754 -0.00766458 0.01590809
v 0.05472232 -0.00779586 0.01590809
f 1 2 3
f 1 3 7
f 1 7 4
f 1 4 8
f 1 8 12
f 1 12 16
f 1 16 13
f 1 13 9
f 1 9 5
f 1 5 2
f 2 5 6
f 2 6 3
f 3 6 10
f 3 10 14
f 3 14 18
f 3 18 17
f 3 17 15
f 3 15 11
f 3 11 7
f 4 7 11
f 4 11 8
f 5 9 10
f 5 10 6
f 8 11 15
f 8 15 12
f 9 13 10
f 10 13 14
f 12 15 17
f 12 17 16
f 13 16 17
f 13 17 18
f 13 18 14

