# https://github.com/mikedh/trimesh
v 0.05913857 -0.00249648 0.01499440
v 0.05913857 -0.00249648 0.01499053
v 0.05913584 -0.00249648 0.01511715
v 0.05903333 -0.00317609 0.01500002
v 0.05903333 -0.00317609 0.01499053
v 0.05833889 -0.00249648 0.01499053
v 0.05913222 -0.00250922 0.01511715
v 0.05833889 -0.00249648 0.01511715
v 0.05912496 -0.00253298 0.01511715
v 0.05907144 -0.00270398 0.01511715
v 0.05901428 -0.00287373 0.01511715
v 0.05894579 -0.00306423 0.01511715
v 0.05890089 -0.00317609 0.01511715
v 0.05833889 -0.00330005 0.01511715
v 0.05833889 -0.00330005 0.01499053
v 0.05508257 -0.00249656 0.01499053
v 0.05508257 -0.00249656 0.01511715
v 0.05450470 -0.00330005 0.01511715
v 0.05450470 -0.00330005 0.01499053
f 1 2 6
f 1 6 8
f 1 8 3
f 1 3 4
f 1 4 5
f 1 5 2
f 2 5 15
f 2 15 19
f 2 19 16
f 2 16 6
f 3 7 4
f 3 8 17
f 3 17 18
f 3 18 14
f 3 14 13
f 3 13 12
f 3 12 11
f 3 11 10
f 3 10 9
f 3 9 7
f 4 7 9
f 4 9 10
f 4 10 11
f 4 11 12
f 4 12 13
f 4 13 14
f 4 14 15
f 4 15 5
f 6 16 17
f 6 17 8
f 14 18 19
f 14 19 15
f 16 19 18
f 16 18 17

