# https://github.com/mikedh/trimesh
v 0.05338988 0.00424538 0.01499053
v 0.05452585 0.00327581 0.01499053
v 0.05338988 0.00424538 0.01511715
v 0.05338988 0.00834141 0.01499053
v 0.05452585 0.00327581 0.01511715
v 0.05452585 0.00834240 0.01499053
v 0.05338988 0.00834141 0.01511715
v 0.05401430 0.00834240 0.01499123
v 0.05401675 0.00834240 0.01499053
v 0.05452585 0.00789308 0.01511715
v 0.05452585 0.00834240 0.01500000
v 0.05343203 0.00832852 0.01511715
v 0.05401430 0.00834240 0.01500000
v 0.05451695 0.00789754 0.01511715
v 0.05345394 0.00832157 0.01511715
v 0.05362097 0.00826553 0.01511715
v 0.05362386 0.00826454 0.01511715
v 0.05379111 0.00820403 0.01511715
v 0.05381713 0.00819461 0.01511715
v 0.05416888 0.00805426 0.01511715
f 1 2 5
f 1 5 3
f 1 3 7
f 1 7 4
f 1 4 9
f 1 9 6
f 1 6 2
f 2 6 11
f 2 11 10
f 2 10 5
f 3 5 10
f 3 10 14
f 3 14 20
f 3 20 19
f 3 19 18
f 3 18 17
f 3 17 16
f 3 16 15
f 3 15 12
f 3 12 7
f 4 7 13
f 4 13 8
f 4 8 9
f 6 9 8
f 6 8 13
f 6 13 11
f 7 12 11
f 7 11 13
f 10 11 14
f 11 12 15
f 11 15 16
f 11 16 17
f 11 17 18
f 11 18 19
f 11 19 20
f 11 20 14

