# https://github.com/mikedh/trimesh
v 0.04139506 -0.00393872 0.01499053
v 0.04140750 -0.00392602 0.01500000
v 0.04140750 -0.00392602 0.01499053
v 0.04153037 -0.00424274 0.01499053
v 0.04145590 -0.00387879 0.01500000
v 0.04157986 -0.00431329 0.01500000
v 0.04145578 -0.00387898 0.01499053
v 0.04155512 -0.00429831 0.01499053
v 0.04155500 -0.00378757 0.01500000
v 0.04156296 -0.00431576 0.01499053
v 0.04156502 -0.00432031 0.01499053
v 0.04172061 -0.00460062 0.01500000
v 0.04155488 -0.00378776 0.01499053
v 0.04164601 -0.00371019 0.01500000
v 0.04164589 -0.00371019 0.01499053
v 0.04170600 -0.00460801 0.01499053
v 0.04185604 -0.00489135 0.01499053
v 0.04187040 -0.00488339 0.01500000
v 0.04172809 -0.00364552 0.01500000
v 0.04172797 -0.00364571 0.01499053
v 0.04185676 -0.00489268 0.01499053
v 0.04185845 -0.00489572 0.01499053
v 0.04186135 -0.00490084 0.01499053
v 0.04189841 -0.00496513 0.01499053
v 0.04208236 -0.00525075 0.01500000
v 0.04180051 -0.00359299 0.01500000
v 0.04180051 -0.00359299 0.01499053
v 0.04206486 -0.00525340 0.01499053
v 0.04208224 -0.00525075 0.01499053
v 0.04214911 -0.00523918 0.01499053
v 0.04214899 -0.00523918 0.01500000
v 0.04186256 -0.00355145 0.01500000
v 0.04186256 -0.00355145 0.01499053
v 0.04228116 -0.00521263 0.01499053
v 0.04228104 -0.00521263 0.01500000
v 0.04191905 -0.00351656 0.01500000
v 0.04191905 -0.00351675 0.01499053
v 0.04239728 -0.00518456 0.01499053
v 0.04239728 -0.00518456 0.01500000
v 0.04195852 -0.00349437 0.01500000
v 0.04195840 -0.00349437 0.01499053
v 0.04249783 -0.00515611 0.01499053
v 0.04249771 -0.00515611 0.01500000
v 0.04199195 -0.00347711 0.01500000
v 0.04199195 -0.00347730 0.01499053
v 0.04258305 -0.00512842 0.01499053
v 0.04258293 -0.00512842 0.01500000
v 0.04201078 -0.00346857 0.01500000
v 0.04201078 -0.00346857 0.01499053
v 0.04262807 -0.00511173 0.01499053
v 0.04262807 -0.00511173 0.01500000
v 0.04235238 -0.00331609 0.01500000
v 0.04235238 -0.00331609 0.01499053
v 0.04262807 -0.00331609 0.01499053
v 0.04262807 -0.00331609 0.01500000
f 1 2 3
f 1 3 7
f 1 7 13
f 1 13 15
f 1 15 20
f 1 20 27
f 1 27 33
f 1 33 37
f 1 37 41
f 1 41 45
f 1 45 49
f 1 49 53
f 1 53 54
f 1 54 50
f 1 50 46
f 1 46 42
f 1 42 38
f 1 38 34
f 1 34 30
f 1 30 29
f 1 29 28
f 1 28 24
f 1 24 23
f 1 23 22
f 1 22 21
f 1 21 17
f 1 17 16
f 1 16 11
f 1 11 10
f 1 10 8
f 1 8 4
f 1 4 2
f 2 5 3
f 2 4 6
f 2 6 12
f 2 12 18
f 2 18 25
f 2 25 31
f 2 31 35
f 2 35 39
f 2 39 43
f 2 43 47
f 2 47 51
f 2 51 55
f 2 55 52
f 2 52 48
f 2 48 44
f 2 44 40
f 2 40 36
f 2 36 32
f 2 32 26
f 2 26 19
f 2 19 14
f 2 14 9
f 2 9 5
f 3 5 7
f 4 8 6
f 5 9 13
f 5 13 7
f 6 8 10
f 6 10 11
f 6 11 12
f 9 14 15
f 9 15 13
f 11 16 12
f 12 16 17
f 12 17 18
f 14 19 15
f 15 19 20
f 17 21 18
f 18 21 22
f 18 22 23
f 18 23 24
f 18 24 25
f 19 26 27
f 19 27 20
f 24 28 25
f 25 28 29
f 25 29 30
f 25 30 31
f 26 32 33
f 26 33 27
f 30 34 35
f 30 35 31
f 32 36 33
f 33 36 37
f 34 38 39
f 34 39 35
f 36 40 41
f 36 41 37
f 38 42 39
f 39 42 43
f 40 44 41
f 41 44 45
f 42 46 47
f 42 47 43
f 44 48 49
f 44 49 45
f 46 50 51
f 46 51 47
f 48 52 53
f 48 53 49
f 50 54 55
f 50 55 51
f 52 55 54
f 52 54 53

