# https://github.com/mikedh/trimesh
v 0.05649570 0.00568388 0.00500000
v 0.05649570 0.00695980 0.00500000
v 0.05767576 0.00568388 0.00500000
v 0.05649570 0.00568388 0.01499053
v 0.05674925 0.00723967 0.00500000
v 0.05649570 0.00695980 0.01499053
v 0.05800478 0.00601337 0.00500000
v 0.05767576 0.00568388 0.01499053
v 0.05676350 0.00725477 0.00500000
v 0.05674925 0.00723967 0.01499053
v 0.05803150 0.00604013 0.00500000
v 0.05800478 0.00601337 0.01499053
v 0.05679021 0.00728129 0.00500000
v 0.05676350 0.00725477 0.01499053
v 0.05806199 0.00607351 0.00500000
v 0.05803150 0.00604013 0.01499053
v 0.05682338 0.00731193 0.00500000
v 0.05679021 0.00728129 0.01499053
v 0.05810496 0.00612404 0.00500000
v 0.05806199 0.00607351 0.01499053
v 0.05687391 0.00735492 0.00500000
v 0.05682338 0.00731193 0.01499053
v 0.05815104 0.00618258 0.00500000
v 0.05810496 0.00612404 0.01499053
v 0.05693268 0.00740111 0.00500000
v 0.05687391 0.00735492 0.01499053
v 0.05820380 0.00625507 0.00500000
v 0.05815104 0.00618258 0.01499053
v 0.05700503 0.00745370 0.00500000
v 0.05693268 0.00740111 0.01499053
v 0.05826190 0.00634196 0.00500000
v 0.05820380 0.00625507 0.01499053
v 0.05709185 0.00751201 0.00500000
v 0.05700503 0.00745370 0.01499053
v 0.05832468 0.00644371 0.00500000
v 0.05826190 0.00634196 0.01499053
v 0.05719381 0.00757466 0.00500000
v 0.05709185 0.00751178 0.01499053
v 0.05719358 0.00757443 0.01499053
v 0.05839057 0.00656101 0.00500000
v 0.05832468 0.00644371 0.01499053
v 0.05731112 0.00764051 0.00500000
v 0.05731090 0.00764051 0.01499053
v 0.05842218 0.00662092 0.00500000
v 0.05839057 0.00656101 0.01499053
v 0.05737101 0.00767207 0.00500000
v 0.05737101 0.00767207 0.01499053
v 0.05813835 0.00693579 0.00500000
v 0.05845891 0.00669455 0.00504401
v 0.05842218 0.00662092 0.01499053
v 0.05744469 0.00770888 0.00504401
v 0.05768578 0.00738830 0.00500000
v 0.05738681 0.00768007 0.01499053
v 0.05791574 0.00716559 0.00500000
v 0.05852814 0.00777817 0.00550070
v 0.05876968 0.00752870 0.00550070
v 0.05873161 0.00739699 0.00543225
v 0.05866594 0.00719531 0.00532565
v 0.05859782 0.00701124 0.00522590
v 0.05852859 0.00684455 0.00513202
v 0.05845891 0.00669455 0.01495533
v 0.05842997 0.00663670 0.01499053
v 0.05759451 0.00777840 0.00513202
v 0.05776125 0.00784791 0.00522590
v 0.05794535 0.00791605 0.00532565
v 0.05744469 0.00770888 0.01495533
v 0.05814681 0.00798167 0.00543225
v 0.05827860 0.00801986 0.00550070
v 0.05768912 0.00740774 0.01499053
v 0.05776125 0.00784791 0.01477441
v 0.05759451 0.00777840 0.01486829
v 0.05852814 0.00777817 0.01449961
v 0.05876968 0.00752870 0.01449961
v 0.05873161 0.00739699 0.01456709
v 0.05866594 0.00719531 0.01467368
v 0.05859782 0.00701124 0.01477441
v 0.05852859 0.00684455 0.01486829
v 0.05816662 0.00692938 0.01499053
v 0.05794535 0.00791605 0.01467368
v 0.05814681 0.00798167 0.01456709
v 0.05827860 0.00801986 0.01449961
v 0.05769713 0.00740019 0.01499053
v 0.05792264 0.00718182 0.01499053
v 0.05792731 0.00717725 0.01499053
v 0.05815148 0.00694607 0.01499053
f 1 2 5
f 1 5 9
f 1 9 13
f 1 13 17
f 1 17 21
f 1 21 25
f 1 25 29
f 1 29 33
f 1 33 37
f 1 37 42
f 1 42 46
f 1 46 52
f 1 52 54
f 1 54 48
f 1 48 44
f 1 44 40
f 1 40 35
f 1 35 31
f 1 31 27
f 1 27 23
f 1 23 19
f 1 19 15
f 1 15 11
f 1 11 7
f 1 7 3
f 1 3 8
f 1 8 4
f 1 4 6
f 1 6 2
f 2 6 10
f 2 10 5
f 3 7 12
f 3 12 8
f 4 8 12
f 4 12 16
f 4 16 20
f 4 20 24
f 4 24 28
f 4 28 32
f 4 32 36
f 4 36 41
f 4 41 45
f 4 45 50
f 4 50 62
f 4 62 78
f 4 78 85
f 4 85 84
f 4 84 83
f 4 83 82
f 4 82 69
f 4 69 53
f 4 53 47
f 4 47 43
f 4 43 39
f 4 39 38
f 4 38 34
f 4 34 30
f 4 30 26
f 4 26 22
f 4 22 18
f 4 18 14
f 4 14 10
f 4 10 6
f 5 10 14
f 5 14 9
f 7 11 16
f 7 16 12
f 9 14 18
f 9 18 13
f 11 15 20
f 11 20 16
f 13 18 22
f 13 22 17
f 15 19 24
f 15 24 20
f 17 22 26
f 17 26 21
f 19 23 28
f 19 28 24
f 21 26 30
f 21 30 25
f 23 27 32
f 23 32 28
f 25 30 34
f 25 34 29
f 27 31 36
f 27 36 32
f 29 34 33
f 31 35 41
f 31 41 36
f 33 34 38
f 33 38 39
f 33 39 37
f 35 40 45
f 35 45 41
f 37 39 43
f 37 43 42
f 40 44 50
f 40 50 45
f 42 43 46
f 43 47 46
f 44 48 49
f 44 49 61
f 44 61 50
f 46 51 52
f 46 47 53
f 46 53 51
f 48 54 55
f 48 55 56
f 48 56 57
f 48 57 58
f 48 58 49
f 49 58 59
f 49 59 60
f 49 60 77
f 49 77 61
f 50 61 62
f 51 63 64
f 51 64 65
f 51 65 52
f 51 53 66
f 51 66 71
f 51 71 63
f 52 65 67
f 52 67 68
f 52 68 54
f 53 69 70
f 53 70 71
f 53 71 66
f 54 68 55
f 55 68 81
f 55 81 72
f 55 72 73
f 55 73 56
f 56 73 74
f 56 74 57
f 57 74 75
f 57 75 58
f 58 75 76
f 58 76 59
f 59 76 77
f 59 77 60
f 61 77 62
f 62 77 78
f 63 71 70
f 63 70 64
f 64 70 79
f 64 79 65
f 65 79 80
f 65 80 67
f 67 80 81
f 67 81 68
f 69 82 81
f 69 81 79
f 69 79 70
f 72 81 83
f 72 83 84
f 72 84 85
f 72 85 73
f 73 85 75
f 73 75 74
f 75 85 76
f 76 85 78
f 76 78 77
f 79 81 80
f 81 82 83

