# https://github.com/mikedh/trimesh
v 0.05404969 -0.00744623 0.00500000
v 0.05404969 -0.00375520 0.00500000
v 0.05558311 -0.00744623 0.00500000
v 0.05404969 -0.00744623 0.01499053
v 0.05450661 -0.00329798 0.00500000
v 0.05404969 -0.00375520 0.01499053
v 0.05605910 -0.00695653 0.00500000
v 0.05558311 -0.00744623 0.01499053
v 0.05605910 -0.00329798 0.00500000
v 0.05450661 -0.00329798 0.01499053
v 0.05605910 -0.00695653 0.01499053
v 0.05605910 -0.00329798 0.01499053
f 1 2 5
f 1 5 9
f 1 9 7
f 1 7 3
f 1 3 8
f 1 8 4
f 1 4 6
f 1 6 2
f 2 6 10
f 2 10 5
f 3 7 11
f 3 11 8
f 4 8 11
f 4 11 12
f 4 12 10
f 4 10 6
f 5 10 12
f 5 12 9
f 7 9 12
f 7 12 11

