# https://github.com/mikedh/trimesh
v 0.05833885 -0.00330005 0.01511715
v 0.05833885 -0.00435232 0.01511715
v 0.05833885 -0.00330005 0.01499053
v 0.05766770 -0.00330005 0.01511715
v 0.05833885 -0.00483695 0.01500002
v 0.05828755 -0.00444368 0.01511715
v 0.05833885 -0.00483695 0.01499053
v 0.05766770 -0.00330005 0.01499053
v 0.05450512 -0.00330028 0.01511715
v 0.05808833 -0.00476527 0.01511715
v 0.05795197 -0.00496812 0.01511715
v 0.05793117 -0.00499865 0.01511715
v 0.05787339 -0.00508097 0.01511715
v 0.05772409 -0.00528382 0.01511715
v 0.05766770 -0.00535732 0.01511715
v 0.05765429 -0.00537451 0.01511715
v 0.05764459 -0.00538672 0.01511715
v 0.05746200 -0.00561038 0.01511715
v 0.05765152 -0.00561038 0.01500002
v 0.05765152 -0.00561038 0.01499053
v 0.05450512 -0.00330028 0.01499053
v 0.05361672 -0.00409677 0.01511715
v 0.05361672 -0.00561038 0.01511715
v 0.05361672 -0.00561038 0.01499053
v 0.05361672 -0.00409677 0.01499053
f 1 2 5
f 1 5 7
f 1 7 3
f 1 3 8
f 1 8 4
f 1 4 9
f 1 9 22
f 1 22 23
f 1 23 18
f 1 18 17
f 1 17 16
f 1 16 15
f 1 15 14
f 1 14 13
f 1 13 12
f 1 12 11
f 1 11 10
f 1 10 6
f 1 6 2
f 2 6 5
f 3 7 20
f 3 20 24
f 3 24 25
f 3 25 21
f 3 21 8
f 4 8 21
f 4 21 9
f 5 6 10
f 5 10 11
f 5 11 12
f 5 12 13
f 5 13 14
f 5 14 15
f 5 15 16
f 5 16 17
f 5 17 18
f 5 18 19
f 5 19 20
f 5 20 7
f 9 21 25
f 9 25 22
f 18 23 24
f 18 24 20
f 18 20 19
f 22 25 24
f 22 24 23

