# https://github.com/mikedh/trimesh
v 0.05140524 0.00495681 0.01590809
v 0.05042338 0.00498837 0.01590809
v 0.05140524 0.00872331 0.01590809
v 0.05140524 0.00495681 0.03000000
v 0.05042338 0.00498837 0.03000000
v 0.05042338 0.00874336 0.01590809
v 0.05120783 0.00873779 0.01590809
v 0.05140524 0.00872331 0.03000000
v 0.05042338 0.00874336 0.03000000
v 0.05044462 0.00874447 0.01590809
v 0.05094449 0.00874744 0.01590809
v 0.05120783 0.00873779 0.03000000
v 0.05044462 0.00874447 0.03000000
v 0.05056476 0.00874781 0.01590809
v 0.05092132 0.00874818 0.01590809
v 0.05082646 0.00874967 0.03000000
v 0.05058782 0.00874818 0.01590809
v 0.05082646 0.00874967 0.01590809
f 1 2 6
f 1 6 10
f 1 10 14
f 1 14 17
f 1 17 18
f 1 18 15
f 1 15 11
f 1 11 7
f 1 7 3
f 1 3 8
f 1 8 4
f 1 4 5
f 1 5 2
f 2 5 9
f 2 9 6
f 3 7 12
f 3 12 8
f 4 8 12
f 4 12 16
f 4 16 13
f 4 13 9
f 4 9 5
f 6 9 13
f 6 13 10
f 7 11 12
f 10 13 14
f 11 15 12
f 12 15 16
f 13 16 17
f 13 17 14
f 15 18 16
f 16 18 17

