# https://github.com/mikedh/trimesh
v 0.05949970 -0.00007645 0.03000000
v 0.05949856 -0.00000089 0.03000000
v 0.05948792 -0.00045802 0.03000000
v 0.05949818 -0.00017145 0.01590809
v 0.05949970 -0.00007645 0.01590809
v 0.05949894 -0.00000089 0.02554179
v 0.05575010 -0.00000089 0.03000000
v 0.05945941 -0.00083858 0.03000000
v 0.05948792 -0.00045802 0.01590809
v 0.05949742 -0.00019458 0.01590809
v 0.05949894 -0.00000089 0.01590809
v 0.05561706 -0.00114270 0.03000000
v 0.05575010 -0.00000089 0.01590809
v 0.05942368 -0.00114270 0.03000000
v 0.05945675 -0.00086149 0.01590809
v 0.05945941 -0.00083858 0.01590809
v 0.05561706 -0.00114270 0.01590809
v 0.05942368 -0.00114270 0.01590809
f 1 2 7
f 1 7 12
f 1 12 14
f 1 14 8
f 1 8 3
f 1 3 4
f 1 4 5
f 1 5 11
f 1 11 6
f 1 6 2
f 2 6 11
f 2 11 13
f 2 13 7
f 3 8 16
f 3 16 9
f 3 9 10
f 3 10 4
f 4 10 9
f 4 9 16
f 4 16 15
f 4 15 18
f 4 18 17
f 4 17 13
f 4 13 11
f 4 11 5
f 7 13 17
f 7 17 12
f 8 14 15
f 8 15 16
f 12 17 18
f 12 18 14
f 14 18 15

