# https://github.com/mikedh/trimesh
v 0.04945513 0.00482979 0.01590809
v 0.04945598 0.00482979 0.01590809
v 0.04945513 0.00482979 0.03000000
v 0.04945513 0.00865151 0.01590809
v 0.05042338 0.00498840 0.01590809
v 0.04945598 0.00482979 0.03000000
v 0.04945513 0.00865151 0.03000000
v 0.04968364 0.00868446 0.01590809
v 0.05042338 0.00874346 0.01590809
v 0.05042338 0.00498840 0.03000000
v 0.04968364 0.00868446 0.03000000
v 0.05006341 0.00872278 0.01590809
v 0.05008654 0.00872431 0.01590809
v 0.05042338 0.00874346 0.03000000
v 0.05006341 0.00872278 0.03000000
f 1 2 6
f 1 6 3
f 1 3 7
f 1 7 4
f 1 4 8
f 1 8 12
f 1 12 13
f 1 13 9
f 1 9 5
f 1 5 2
f 2 5 10
f 2 10 6
f 3 6 10
f 3 10 14
f 3 14 15
f 3 15 11
f 3 11 7
f 4 7 11
f 4 11 8
f 5 9 14
f 5 14 10
f 8 11 15
f 8 15 12
f 9 13 14
f 12 15 13
f 13 15 14

