# https://github.com/mikedh/trimesh
v 0.04849706 0.00875244 0.00500000
v 0.04841915 0.00910909 0.00500000
v 0.05030960 0.00875265 0.00500000
v 0.04849706 0.00875244 0.01499053
v 0.04841522 0.00912940 0.00500000
v 0.04841915 0.00910909 0.01499053
v 0.05030960 0.00884107 0.00500000
v 0.05030960 0.00875265 0.01499053
v 0.04840941 0.00916663 0.00500000
v 0.04841522 0.00912940 0.01499053
v 0.04840941 0.00916642 0.01499053
v 0.05011876 0.00955015 0.00500000
v 0.05030960 0.00884107 0.01499053
v 0.04840435 0.00921147 0.00500000
v 0.04840435 0.00921147 0.01499053
v 0.05009853 0.00962186 0.00500000
v 0.05011876 0.00955015 0.01499053
v 0.04839911 0.00927769 0.00500000
v 0.04839911 0.00927769 0.01499053
v 0.05007081 0.00970711 0.00500000
v 0.05009853 0.00962186 0.01499053
v 0.04839630 0.00935215 0.00500000
v 0.04839649 0.00935215 0.01499053
v 0.05003485 0.00980505 0.00500000
v 0.05003485 0.00980526 0.01499053
v 0.05007081 0.00970711 0.01499053
v 0.04839630 0.00944184 0.00500000
v 0.04839630 0.00944184 0.01499053
v 0.04998915 0.00991547 0.00500000
v 0.04998915 0.00991547 0.01499053
v 0.04840023 0.00954613 0.00500000
v 0.04840023 0.00954613 0.01499053
v 0.04993316 0.01003774 0.00500000
v 0.04993316 0.01003774 0.01499053
v 0.04840941 0.00966543 0.00500000
v 0.04840941 0.00966543 0.01499053
v 0.04990319 0.01009845 0.00500000
v 0.04990319 0.01009845 0.01499053
v 0.04842514 0.00979912 0.00500000
v 0.04842514 0.00979912 0.01499053
v 0.04948143 0.01005424 0.00500000
v 0.04986517 0.01017164 0.00504401
v 0.04989495 0.01011410 0.01499053
v 0.04986517 0.01017164 0.01495533
v 0.04843488 0.00986576 0.00500000
v 0.04843488 0.00986597 0.01499053
v 0.04916473 0.01000918 0.00500000
v 0.04937299 0.01091350 0.00550070
v 0.04945708 0.01080519 0.00543225
v 0.04958162 0.01063364 0.00532565
v 0.04969044 0.01047033 0.00522590
v 0.04978464 0.01031591 0.00513202
v 0.04949023 0.01007180 0.01499053
v 0.04978464 0.01031591 0.01486829
v 0.04969044 0.01047033 0.01477441
v 0.04844818 0.00994720 0.00504401
v 0.04884953 0.00995397 0.00500000
v 0.04843769 0.00988332 0.01499053
v 0.04868715 0.01080477 0.00550070
v 0.04902932 0.01086442 0.00550070
v 0.04937299 0.01091350 0.01449961
v 0.04945708 0.01080519 0.01456709
v 0.04958162 0.01063364 0.01467368
v 0.04948086 0.01007074 0.01499053
v 0.04848020 0.01010945 0.00513202
v 0.04852216 0.01028524 0.00522590
v 0.04857516 0.01047414 0.00532565
v 0.04844818 0.00994720 0.01495533
v 0.04864052 0.01067573 0.00543225
v 0.04884653 0.00997026 0.01499053
v 0.04852216 0.01028524 0.01477441
v 0.04848020 0.01010945 0.01486829
v 0.04868715 0.01080477 0.01449961
v 0.04902932 0.01086442 0.01449961
v 0.04916229 0.01002526 0.01499053
v 0.04947937 0.01007053 0.01499053
v 0.04857516 0.01047414 0.01467368
v 0.04864052 0.01067573 0.01456709
v 0.04915574 0.01002420 0.01499053
f 1 2 5
f 1 5 9
f 1 9 14
f 1 14 18
f 1 18 22
f 1 22 27
f 1 27 31
f 1 31 35
f 1 35 39
f 1 39 45
f 1 45 57
f 1 57 47
f 1 47 41
f 1 41 37
f 1 37 33
f 1 33 29
f 1 29 24
f 1 24 20
f 1 20 16
f 1 16 12
f 1 12 7
f 1 7 3
f 1 3 8
f 1 8 4
f 1 4 6
f 1 6 2
f 2 6 10
f 2 10 5
f 3 7 13
f 3 13 8
f 4 8 13
f 4 13 17
f 4 17 21
f 4 21 26
f 4 26 25
f 4 25 30
f 4 30 34
f 4 34 38
f 4 38 43
f 4 43 53
f 4 53 64
f 4 64 76
f 4 76 75
f 4 75 79
f 4 79 70
f 4 70 58
f 4 58 46
f 4 46 40
f 4 40 36
f 4 36 32
f 4 32 28
f 4 28 23
f 4 23 19
f 4 19 15
f 4 15 11
f 4 11 10
f 4 10 6
f 5 10 11
f 5 11 9
f 7 12 17
f 7 17 13
f 9 11 14
f 11 15 14
f 12 16 21
f 12 21 17
f 14 15 19
f 14 19 18
f 16 20 26
f 16 26 21
f 18 19 22
f 19 23 22
f 20 24 25
f 20 25 26
f 22 23 28
f 22 28 27
f 24 29 25
f 25 29 30
f 27 28 32
f 27 32 31
f 29 33 34
f 29 34 30
f 31 32 36
f 31 36 35
f 33 37 38
f 33 38 34
f 35 36 40
f 35 40 39
f 37 41 42
f 37 42 44
f 37 44 38
f 38 44 43
f 39 40 46
f 39 46 45
f 41 47 48
f 41 48 49
f 41 49 50
f 41 50 42
f 42 50 51
f 42 51 52
f 42 52 54
f 42 54 44
f 43 44 54
f 43 54 55
f 43 55 53
f 45 56 57
f 45 46 58
f 45 58 56
f 47 57 59
f 47 59 60
f 47 60 48
f 48 60 74
f 48 74 61
f 48 61 62
f 48 62 49
f 49 62 63
f 49 63 50
f 50 63 55
f 50 55 51
f 51 55 54
f 51 54 52
f 53 55 63
f 53 63 61
f 53 61 64
f 56 65 66
f 56 66 67
f 56 67 57
f 56 58 68
f 56 68 72
f 56 72 65
f 57 67 69
f 57 69 59
f 58 70 71
f 58 71 72
f 58 72 68
f 59 69 78
f 59 78 73
f 59 73 74
f 59 74 60
f 61 74 75
f 61 75 76
f 61 76 64
f 61 63 62
f 65 72 71
f 65 71 66
f 66 71 77
f 66 77 67
f 67 77 78
f 67 78 69
f 70 79 73
f 70 73 77
f 70 77 71
f 73 78 77
f 73 79 74
f 74 79 75

