# https://github.com/mikedh/trimesh
v 0.04665373 -0.00286782 0.03000000
v 0.04613128 -0.00191525 0.03000000
v 0.04248459 -0.00286782 0.03000000
v 0.04665373 -0.00286782 0.01590809
v 0.04221381 -0.00191525 0.03000000
v 0.04613128 -0.00191525 0.01590809
v 0.04238245 -0.00255816 0.03000000
v 0.04248373 -0.00286782 0.01894966
v 0.04248373 -0.00286782 0.01590809
v 0.04227901 -0.00219087 0.03000000
v 0.04221381 -0.00191525 0.01590809
v 0.04236941 -0.00251359 0.01590809
v 0.04238245 -0.00255816 0.01590809
v 0.04227901 -0.00219087 0.01590809
f 1 2 5
f 1 5 10
f 1 10 7
f 1 7 3
f 1 3 8
f 1 8 9
f 1 9 4
f 1 4 6
f 1 6 2
f 2 6 11
f 2 11 5
f 3 7 8
f 4 9 13
f 4 13 12
f 4 12 14
f 4 14 11
f 4 11 6
f 5 11 14
f 5 14 10
f 7 10 12
f 7 12 13
f 7 13 9
f 7 9 8
f 10 14 12

