# https://github.com/mikedh/trimesh
v 0.06070380 -0.00468162 0.01449919
v 0.06055105 -0.00499356 0.01449919
v 0.06070380 -0.00468162 0.00550110
v 0.06062643 -0.00456819 0.01456653
v 0.06050203 -0.00439670 0.01467348
v 0.05993555 -0.00431877 0.01499039
v 0.05979399 -0.00460794 0.01499039
v 0.06038834 -0.00530059 0.01449919
v 0.06055105 -0.00499356 0.00550110
v 0.05964322 -0.00489264 0.01499039
v 0.05977931 -0.00460057 0.00500000
v 0.05991987 -0.00431319 0.00500000
v 0.06062643 -0.00456819 0.00543277
v 0.06050203 -0.00439670 0.00532582
v 0.06038013 -0.00424286 0.01477351
v 0.06010497 -0.00393873 0.01499039
v 0.05996963 -0.00424241 0.01499039
v 0.05991987 -0.00431319 0.01499930
v 0.05977931 -0.00460057 0.01499930
v 0.06038834 -0.00530059 0.00550110
v 0.06003904 -0.00530483 0.01467348
v 0.06025101 -0.00530506 0.01456653
v 0.05962954 -0.00488326 0.01499930
v 0.05963203 -0.00491206 0.01499039
v 0.05962929 -0.00488326 0.00500000
v 0.06009228 -0.00392623 0.00500000
v 0.06015025 -0.00398473 0.00504456
v 0.06026245 -0.00410598 0.00513270
v 0.06038013 -0.00424286 0.00522678
v 0.06026245 -0.00410598 0.01486759
v 0.06009253 -0.00392623 0.01499039
v 0.06009228 -0.00392623 0.01499930
v 0.06015025 -0.00398473 0.01495473
v 0.05880457 -0.00341913 0.01511715
v 0.05864783 -0.00376702 0.01511715
v 0.05849682 -0.00406690 0.01511715
v 0.05847592 -0.00410821 0.01511715
v 0.05847468 -0.00411067 0.01511715
v 0.06025101 -0.00530506 0.00543277
v 0.05966313 -0.00528250 0.01486759
v 0.05984300 -0.00529702 0.01477351
v 0.06003904 -0.00530483 0.00532582
v 0.05943474 -0.00525325 0.01499039
v 0.05941757 -0.00525035 0.01499930
v 0.05833909 -0.00435205 0.01511715
v 0.05941782 -0.00525035 0.00500000
v 0.06004402 -0.00387911 0.00500000
v 0.06004402 -0.00387889 0.01499039
v 0.06004402 -0.00387889 0.01499930
v 0.05890134 -0.00317619 0.01511715
v 0.05949893 -0.00526285 0.01495473
v 0.05966313 -0.00528250 0.00513270
v 0.05984300 -0.00529702 0.00522678
v 0.05949893 -0.00526285 0.00504456
v 0.05941757 -0.00525035 0.01499039
v 0.05935115 -0.00523896 0.01499930
v 0.05878566 -0.00507730 0.01499930
v 0.05884711 -0.00510253 0.01499930
v 0.05891727 -0.00512821 0.01499930
v 0.05900235 -0.00515590 0.01499930
v 0.05910286 -0.00518426 0.01499930
v 0.05921929 -0.00521261 0.01499930
v 0.05833909 -0.00317619 0.01511715
v 0.05816220 -0.00483972 0.01499039
v 0.05935140 -0.00523896 0.00500000
v 0.05994475 -0.00378779 0.00500000
v 0.05994475 -0.00378756 0.01499039
v 0.05994475 -0.00378756 0.01499930
v 0.05985395 -0.00371008 0.01499930
v 0.05977185 -0.00364577 0.01499930
v 0.05899414 -0.00302435 0.01499039
v 0.05935115 -0.00523896 0.01499039
v 0.05816220 -0.00483972 0.00500000
v 0.05884736 -0.00510253 0.00500000
v 0.05891727 -0.00512821 0.00500000
v 0.05900260 -0.00515612 0.01499039
v 0.05910311 -0.00518448 0.01499039
v 0.05921929 -0.00521261 0.01499039
v 0.05816220 -0.00302435 0.01499039
v 0.05921929 -0.00521239 0.00500000
v 0.05985395 -0.00371030 0.00500000
v 0.05899414 -0.00302435 0.00500000
v 0.05816220 -0.00302435 0.00500000
v 0.05900260 -0.00515590 0.00500000
v 0.05910311 -0.00518426 0.00500000
f 1 2 9
f 1 9 3
f 1 3 13
f 1 13 4
f 1 4 5
f 1 5 6
f 1 6 7
f 1 7 2
f 2 8 20
f 2 20 9
f 2 7 10
f 2 10 8
f 3 9 11
f 3 11 12
f 3 12 13
f 4 13 14
f 4 14 5
f 5 14 29
f 5 29 15
f 5 15 16
f 5 16 17
f 5 17 6
f 6 17 18
f 6 18 19
f 6 19 7
f 7 19 10
f 8 10 21
f 8 21 22
f 8 22 39
f 8 39 20
f 9 20 11
f 10 19 23
f 10 23 24
f 10 24 21
f 11 25 46
f 11 46 65
f 11 65 80
f 11 80 85
f 11 85 84
f 11 84 75
f 11 75 74
f 11 74 73
f 11 73 83
f 11 83 82
f 11 82 81
f 11 81 66
f 11 66 47
f 11 47 26
f 11 26 12
f 11 20 25
f 12 26 14
f 12 14 13
f 14 26 27
f 14 27 28
f 14 28 29
f 15 30 16
f 15 29 28
f 15 28 30
f 16 31 32
f 16 32 18
f 16 18 17
f 16 30 33
f 16 33 27
f 16 27 26
f 16 26 31
f 18 32 34
f 18 34 35
f 18 35 19
f 19 35 36
f 19 36 37
f 19 37 38
f 19 38 23
f 20 39 25
f 21 40 41
f 21 41 53
f 21 53 42
f 21 42 39
f 21 39 22
f 21 24 43
f 21 43 40
f 23 44 24
f 23 38 45
f 23 45 44
f 24 44 43
f 25 39 42
f 25 42 46
f 26 47 31
f 27 33 30
f 27 30 28
f 31 47 48
f 31 48 49
f 31 49 32
f 32 49 50
f 32 50 34
f 34 50 63
f 34 63 45
f 34 45 38
f 34 38 37
f 34 37 36
f 34 36 35
f 40 51 54
f 40 54 52
f 40 52 53
f 40 53 41
f 40 43 51
f 42 53 52
f 42 52 54
f 42 54 46
f 43 44 55
f 43 55 46
f 43 46 54
f 43 54 51
f 44 45 56
f 44 56 72
f 44 72 55
f 45 57 58
f 45 58 59
f 45 59 60
f 45 60 61
f 45 61 62
f 45 62 56
f 45 63 79
f 45 79 64
f 45 64 57
f 46 55 72
f 46 72 65
f 47 66 67
f 47 67 48
f 48 67 68
f 48 68 49
f 49 68 50
f 50 68 69
f 50 69 70
f 50 70 71
f 50 71 79
f 50 79 63
f 56 62 78
f 56 78 72
f 57 64 58
f 58 64 73
f 58 73 74
f 58 74 75
f 58 75 59
f 59 75 76
f 59 76 60
f 60 76 77
f 60 77 61
f 61 77 62
f 62 77 78
f 64 79 83
f 64 83 73
f 65 72 78
f 65 78 80
f 66 81 67
f 67 69 68
f 67 81 69
f 69 81 82
f 69 82 71
f 69 71 70
f 71 82 83
f 71 83 79
f 75 84 76
f 76 84 85
f 76 85 77
f 77 85 80
f 77 80 78

