# https://github.com/mikedh/trimesh
v 0.04908586 -0.00854401 0.01511715
v 0.04908586 -0.00854401 0.01499053
v 0.04886946 -0.00854401 0.01511715
v 0.04908586 -0.00858904 0.01511715
v 0.04908586 -0.00887570 0.01499053
v 0.04843659 -0.00854401 0.01499053
v 0.04843659 -0.00854401 0.01500000
v 0.04847853 -0.00887570 0.01500000
v 0.04908586 -0.00887570 0.01500000
v 0.04849792 -0.00887570 0.01499053
v 0.04848444 -0.00885245 0.01499053
v 0.04847853 -0.00887570 0.01499149
f 1 2 6
f 1 6 7
f 1 7 3
f 1 3 4
f 1 4 9
f 1 9 5
f 1 5 2
f 2 5 10
f 2 10 11
f 2 11 6
f 3 7 8
f 3 8 4
f 4 8 9
f 5 9 8
f 5 8 12
f 5 12 10
f 6 11 12
f 6 12 8
f 6 8 7
f 10 12 11

