# https://github.com/mikedh/trimesh
v 0.05943230 0.00108212 0.01590809
v 0.05943457 0.00106631 0.01590809
v 0.05943230 0.00108212 0.01511724
v 0.05563186 0.00108212 0.01590809
v 0.05946827 0.00073244 0.01511724
v 0.05943495 0.00106324 0.01511724
v 0.05943457 0.00106631 0.01511724
v 0.05947282 0.00068652 0.01590809
v 0.05563186 0.00108212 0.01511724
v 0.05570683 -0.00065506 0.01590809
v 0.05947282 0.00068652 0.01511724
v 0.05949440 0.00030520 0.01590809
v 0.05570683 -0.00065506 0.01511724
v 0.05947319 -0.00065506 0.01590809
v 0.05949440 0.00030520 0.01511724
v 0.05949781 0.00018547 0.01590809
v 0.05949819 0.00017577 0.01511724
v 0.05947319 -0.00065506 0.01511724
v 0.05948796 -0.00045777 0.01590809
v 0.05949819 0.00016234 0.01590809
v 0.05949970 -0.00007629 0.01590809
v 0.05949970 -0.00007629 0.01511724
v 0.05948796 -0.00045777 0.01511724
v 0.05949819 -0.00017663 0.01511724
v 0.05949743 -0.00019449 0.01590809
v 0.05949819 -0.00017136 0.01590809
f 1 2 7
f 1 7 3
f 1 3 9
f 1 9 4
f 1 4 10
f 1 10 14
f 1 14 19
f 1 19 25
f 1 25 26
f 1 26 21
f 1 21 20
f 1 20 16
f 1 16 12
f 1 12 8
f 1 8 2
f 2 5 6
f 2 6 7
f 2 8 5
f 3 7 6
f 3 6 5
f 3 5 11
f 3 11 15
f 3 15 17
f 3 17 22
f 3 22 24
f 3 24 23
f 3 23 18
f 3 18 13
f 3 13 9
f 4 9 13
f 4 13 10
f 5 8 11
f 8 12 15
f 8 15 11
f 10 13 18
f 10 18 14
f 12 16 17
f 12 17 15
f 14 18 23
f 14 23 19
f 16 20 17
f 17 20 21
f 17 21 22
f 19 24 25
f 19 23 24
f 21 26 24
f 21 24 22
f 24 26 25

