# https://github.com/mikedh/trimesh
v 0.05813097 0.00484914 0.01499053
v 0.05813097 0.00325564 0.01499053
v 0.05813097 0.00484914 0.00500000
v 0.05770846 0.00530623 0.01499053
v 0.05454419 0.00325564 0.01499053
v 0.05813097 0.00325564 0.00500000
v 0.05770846 0.00530623 0.00500000
v 0.05322186 0.00530623 0.01499053
v 0.05322042 0.00434628 0.01499053
v 0.05454419 0.00325564 0.00500000
v 0.05322042 0.00530623 0.00500000
v 0.05322042 0.00530623 0.01449766
v 0.05322042 0.00529960 0.01499053
v 0.05322042 0.00434628 0.00500000
f 1 2 6
f 1 6 3
f 1 3 7
f 1 7 4
f 1 4 8
f 1 8 13
f 1 13 9
f 1 9 5
f 1 5 2
f 2 5 10
f 2 10 6
f 3 6 10
f 3 10 14
f 3 14 11
f 3 11 7
f 4 7 11
f 4 11 12
f 4 12 8
f 5 9 14
f 5 14 10
f 8 12 13
f 9 13 12
f 9 12 11
f 9 11 14

