# https://github.com/mikedh/trimesh
v 0.04574960 -0.00000064 0.01511654
v 0.04574960 -0.00000064 0.01499053
v 0.04573614 -0.00000064 0.01511715
v 0.04641232 -0.00248620 0.01511715
v 0.04641232 -0.00248620 0.01499053
v 0.04200108 -0.00000064 0.01499053
v 0.04200108 -0.00000064 0.01511715
v 0.04236174 -0.00248620 0.01511715
v 0.04235740 -0.00248620 0.01499053
v 0.04197851 -0.00031961 0.01499053
v 0.04197851 -0.00031961 0.01500000
v 0.04197851 -0.00225336 0.01500000
v 0.04200195 -0.00017874 0.01511715
v 0.04235740 -0.00248620 0.01500000
v 0.04229056 -0.00223244 0.01511715
v 0.04197851 -0.00225336 0.01499053
v 0.04227884 -0.00219059 0.01511715
v 0.04219074 -0.00181615 0.01511715
v 0.04212868 -0.00148940 0.01511715
v 0.04212043 -0.00144414 0.01511715
v 0.04206531 -0.00106654 0.01511715
v 0.04202712 -0.00068675 0.01511715
v 0.04200802 -0.00035172 0.01511715
v 0.04200542 -0.00030550 0.01511715
f 1 2 6
f 1 6 7
f 1 7 3
f 1 3 4
f 1 4 5
f 1 5 2
f 2 5 9
f 2 9 16
f 2 16 10
f 2 10 6
f 3 7 13
f 3 13 24
f 3 24 23
f 3 23 22
f 3 22 21
f 3 21 20
f 3 20 19
f 3 19 18
f 3 18 17
f 3 17 15
f 3 15 8
f 3 8 4
f 4 8 14
f 4 14 9
f 4 9 5
f 6 10 11
f 6 11 7
f 7 11 12
f 7 12 13
f 8 15 12
f 8 12 14
f 9 14 12
f 9 12 16
f 10 16 12
f 10 12 11
f 12 15 17
f 12 17 18
f 12 18 19
f 12 19 20
f 12 20 21
f 12 21 22
f 12 22 23
f 12 23 24
f 12 24 13

