# https://github.com/mikedh/trimesh
v 0.04844501 -0.00900730 0.00500000
v 0.04975260 -0.00900730 0.00500000
v 0.04844501 -0.00900730 0.01499053
v 0.04843819 -0.00854613 0.00500000
v 0.04975260 -0.00489846 0.00500000
v 0.04975260 -0.00900730 0.01473236
v 0.04967796 -0.00900730 0.01499053
v 0.04843819 -0.00854613 0.01499053
v 0.04843819 -0.00443327 0.00500000
v 0.04975260 -0.00489846 0.01499053
v 0.04975260 -0.00900595 0.01499053
v 0.04843819 -0.00443327 0.01499053
f 1 2 6
f 1 6 7
f 1 7 3
f 1 3 8
f 1 8 4
f 1 4 9
f 1 9 5
f 1 5 2
f 2 5 10
f 2 10 11
f 2 11 6
f 3 7 11
f 3 11 10
f 3 10 12
f 3 12 8
f 4 8 12
f 4 12 9
f 5 9 12
f 5 12 10
f 6 11 7

