# https://github.com/mikedh/trimesh
v 0.05960421 -0.00142481 0.01500000
v 0.05960421 -0.00226594 0.01500000
v 0.05960421 -0.00142481 0.01499053
v 0.05938111 -0.00142481 0.01511715
v 0.05960421 -0.00226594 0.01499061
v 0.05935278 -0.00159748 0.01511715
v 0.05928506 -0.00192311 0.01511715
v 0.05927488 -0.00197116 0.01511715
v 0.05919299 -0.00229342 0.01511715
v 0.05918148 -0.00233832 0.01511715
v 0.05913588 -0.00249642 0.01511715
v 0.05913854 -0.00249642 0.01499439
v 0.05960421 -0.00226447 0.01499053
v 0.05554198 -0.00142481 0.01499053
v 0.05554198 -0.00142481 0.01511715
v 0.05913854 -0.00249642 0.01499053
v 0.05508207 -0.00249642 0.01511715
v 0.05508207 -0.00249642 0.01499053
f 1 2 5
f 1 5 13
f 1 13 3
f 1 3 14
f 1 14 15
f 1 15 4
f 1 4 2
f 2 4 6
f 2 6 7
f 2 7 8
f 2 8 9
f 2 9 10
f 2 10 11
f 2 11 12
f 2 12 16
f 2 16 5
f 3 13 16
f 3 16 18
f 3 18 14
f 4 15 17
f 4 17 11
f 4 11 10
f 4 10 9
f 4 9 8
f 4 8 7
f 4 7 6
f 5 16 13
f 11 17 18
f 11 18 16
f 11 16 12
f 14 18 17
f 14 17 15

