# https://github.com/mikedh/trimesh
v 0.05960421 0.00045538 0.01499053
v 0.06029997 0.00063117 0.01499053
v 0.05960421 0.00045538 0.01500000
v 0.05960421 0.00226603 0.01499053
v 0.06037175 0.00065161 0.01499053
v 0.06029997 0.00063117 0.01500000
v 0.05960421 0.00210269 0.01500000
v 0.05960421 0.00226603 0.01499992
v 0.05983560 0.00232494 0.01499053
v 0.06045698 0.00067930 0.01499053
v 0.06045686 0.00067911 0.01500000
v 0.06037163 0.00065161 0.01500000
v 0.05983572 0.00232494 0.01500000
v 0.05985891 0.00233070 0.01500000
v 0.05985891 0.00233070 0.01499053
v 0.06055504 0.00071535 0.01499053
v 0.06055491 0.00071516 0.01500000
v 0.05987926 0.00233479 0.01500000
v 0.05987926 0.00233479 0.01499053
v 0.06066555 0.00076087 0.01499053
v 0.06066542 0.00076087 0.01500000
v 0.05991651 0.00234055 0.01500000
v 0.05991651 0.00234055 0.01499053
v 0.06078790 0.00081699 0.01499053
v 0.06078778 0.00081699 0.01500000
v 0.05996140 0.00234575 0.01500000
v 0.05996140 0.00234575 0.01499053
v 0.06084846 0.00084691 0.01499053
v 0.06084846 0.00084691 0.01500000
v 0.06002764 0.00235077 0.01500000
v 0.06002764 0.00235077 0.01499053
v 0.06086412 0.00085490 0.01499053
v 0.06082318 0.00124680 0.01499053
v 0.06080418 0.00126854 0.01500000
v 0.06010213 0.00235355 0.01500000
v 0.06010213 0.00235355 0.01499053
v 0.06082071 0.00126910 0.01499053
v 0.06081960 0.00127709 0.01499053
v 0.06075916 0.00158518 0.01500000
v 0.06019168 0.00235374 0.01499053
v 0.06019180 0.00235374 0.01500000
v 0.06077532 0.00158778 0.01499053
v 0.06077421 0.00159428 0.01499053
v 0.06070415 0.00190033 0.01500000
v 0.06029590 0.00234965 0.01499053
v 0.06029602 0.00234965 0.01500000
v 0.06071994 0.00190498 0.01499053
v 0.06071932 0.00190832 0.01499053
v 0.06071809 0.00191427 0.01499053
v 0.06071538 0.00192709 0.01499053
v 0.06061584 0.00231527 0.01500000
v 0.06041517 0.00234055 0.01499053
v 0.06041529 0.00234055 0.01500000
v 0.06063336 0.00231230 0.01499053
v 0.06061597 0.00231527 0.01499053
v 0.06054899 0.00232494 0.01500000
v 0.06054887 0.00232494 0.01499053
f 1 2 6
f 1 6 3
f 1 3 7
f 1 7 8
f 1 8 4
f 1 4 9
f 1 9 15
f 1 15 19
f 1 19 23
f 1 23 27
f 1 27 31
f 1 31 36
f 1 36 40
f 1 40 45
f 1 45 52
f 1 52 57
f 1 57 55
f 1 55 54
f 1 54 50
f 1 50 49
f 1 49 48
f 1 48 47
f 1 47 43
f 1 43 42
f 1 42 38
f 1 38 37
f 1 37 33
f 1 33 32
f 1 32 28
f 1 28 24
f 1 24 20
f 1 20 16
f 1 16 10
f 1 10 5
f 1 5 2
f 2 5 6
f 3 6 12
f 3 12 11
f 3 11 17
f 3 17 21
f 3 21 25
f 3 25 29
f 3 29 34
f 3 34 39
f 3 39 44
f 3 44 51
f 3 51 56
f 3 56 53
f 3 53 46
f 3 46 41
f 3 41 35
f 3 35 30
f 3 30 26
f 3 26 22
f 3 22 18
f 3 18 14
f 3 14 13
f 3 13 7
f 4 8 9
f 5 10 11
f 5 11 12
f 5 12 6
f 7 13 8
f 8 13 9
f 9 13 14
f 9 14 15
f 10 16 17
f 10 17 11
f 14 18 19
f 14 19 15
f 16 20 17
f 17 20 21
f 18 22 23
f 18 23 19
f 20 24 25
f 20 25 21
f 22 26 27
f 22 27 23
f 24 28 29
f 24 29 25
f 26 30 31
f 26 31 27
f 28 32 29
f 29 32 33
f 29 33 34
f 30 35 36
f 30 36 31
f 33 37 34
f 34 37 38
f 34 38 39
f 35 40 36
f 35 41 40
f 38 42 39
f 39 42 43
f 39 43 44
f 40 41 46
f 40 46 45
f 43 47 44
f 44 47 48
f 44 48 49
f 44 49 50
f 44 50 51
f 45 46 53
f 45 53 52
f 50 54 51
f 51 54 55
f 51 55 56
f 52 53 56
f 52 56 57
f 55 57 56

