# https://github.com/mikedh/trimesh
v 0.04596776 -0.00145644 0.01499053
v 0.04596776 -0.00266126 0.01499053
v 0.04596776 -0.00145644 0.00500000
v 0.04574965 -0.00000111 0.01499053
v 0.04241600 -0.00266126 0.01499053
v 0.04596776 -0.00266126 0.00500000
v 0.04574965 -0.00000111 0.00500000
v 0.04211954 -0.00000111 0.01499053
v 0.04211954 -0.00227276 0.01499053
v 0.04241600 -0.00266126 0.00500000
v 0.04211954 -0.00000111 0.00500000
v 0.04211954 -0.00227276 0.00500000
f 1 2 6
f 1 6 3
f 1 3 7
f 1 7 4
f 1 4 8
f 1 8 9
f 1 9 5
f 1 5 2
f 2 5 10
f 2 10 6
f 3 6 10
f 3 10 12
f 3 12 11
f 3 11 7
f 4 7 11
f 4 11 8
f 5 9 12
f 5 12 10
f 8 11 12
f 8 12 9

