# https://github.com/mikedh/trimesh
v 0.04505793 -0.00570032 0.01499053
v 0.04381642 -0.00570032 0.01499053
v 0.04505793 -0.00692957 0.01499053
v 0.04505793 -0.00570032 0.00500000
v 0.04349510 -0.00601342 0.01499053
v 0.04381642 -0.00570032 0.00500000
v 0.04473661 -0.00725493 0.01499053
v 0.04505793 -0.00692957 0.00500000
v 0.04346867 -0.00604021 0.01499053
v 0.04349510 -0.00601342 0.00500000
v 0.04470972 -0.00728127 0.01499053
v 0.04473661 -0.00725493 0.00500000
v 0.04343791 -0.00607336 0.01499053
v 0.04346867 -0.00604021 0.00500000
v 0.04467668 -0.00731192 0.01499053
v 0.04470972 -0.00728127 0.00500000
v 0.04339506 -0.00612399 0.01499053
v 0.04343791 -0.00607336 0.00500000
v 0.04462609 -0.00735506 0.01499053
v 0.04467668 -0.00731192 0.00500000
v 0.04334880 -0.00618257 0.01499053
v 0.04339506 -0.00612399 0.00500000
v 0.04456730 -0.00740115 0.01499053
v 0.04462609 -0.00735506 0.00500000
v 0.04329616 -0.00625523 0.01499053
v 0.04334880 -0.00618257 0.00500000
v 0.04329616 -0.00625500 0.00500000
v 0.04449483 -0.00745382 0.01499053
v 0.04456730 -0.00740115 0.00500000
v 0.04323805 -0.00634196 0.01499053
v 0.04323805 -0.00634196 0.00500000
v 0.04440823 -0.00751195 0.01499053
v 0.04449483 -0.00745382 0.00500000
v 0.04317538 -0.00644391 0.01499053
v 0.04317538 -0.00644368 0.00500000
v 0.04430637 -0.00757461 0.01499053
v 0.04430637 -0.00757461 0.00500000
v 0.04440801 -0.00751195 0.00500000
v 0.04310930 -0.00656106 0.01499053
v 0.04310953 -0.00656106 0.00500000
v 0.04418901 -0.00764046 0.01499053
v 0.04418878 -0.00764069 0.00500000
v 0.04307785 -0.00662100 0.01499053
v 0.04307785 -0.00662100 0.00500000
v 0.04412908 -0.00767202 0.01499053
v 0.04412908 -0.00767202 0.00500000
v 0.04306987 -0.00663667 0.01499053
v 0.04336156 -0.00693592 0.00500000
v 0.04304093 -0.00669457 0.00504401
v 0.04411312 -0.00767997 0.01499053
v 0.04405547 -0.00770903 0.01495533
v 0.04405547 -0.00770903 0.00504401
v 0.04381414 -0.00738843 0.00500000
v 0.04304093 -0.00669457 0.01495533
v 0.04297143 -0.00684465 0.01486829
v 0.04334219 -0.00693910 0.01499053
v 0.04358421 -0.00716570 0.00500000
v 0.04273010 -0.00752852 0.00550070
v 0.04276838 -0.00739683 0.00543225
v 0.04283401 -0.00719521 0.00532565
v 0.04290215 -0.00701130 0.00522590
v 0.04297143 -0.00684465 0.00513202
v 0.04382075 -0.00741659 0.01499053
v 0.04373871 -0.00784798 0.01477441
v 0.04390529 -0.00777851 0.01486829
v 0.04390529 -0.00777851 0.00513202
v 0.04373871 -0.00784798 0.00522590
v 0.04355481 -0.00791610 0.00532565
v 0.04335313 -0.00798172 0.00543225
v 0.04322142 -0.00801963 0.00550070
v 0.04297188 -0.00777805 0.00550070
v 0.04290215 -0.00701130 0.01477441
v 0.04273010 -0.00752852 0.01449961
v 0.04334858 -0.00694591 0.01499053
v 0.04276838 -0.00739683 0.01456709
v 0.04283401 -0.00719521 0.01467368
v 0.04381095 -0.00740773 0.01499053
v 0.04322142 -0.00801963 0.01449961
v 0.04355481 -0.00791610 0.01467368
v 0.04335313 -0.00798172 0.01456709
v 0.04297188 -0.00777805 0.01449961
v 0.04335427 -0.00695182 0.01499053
v 0.04380298 -0.00740024 0.01499053
v 0.04357737 -0.00718182 0.01499053
v 0.04357281 -0.00717728 0.01499053
f 1 2 5
f 1 5 9
f 1 9 13
f 1 13 17
f 1 17 21
f 1 21 25
f 1 25 30
f 1 30 34
f 1 34 39
f 1 39 43
f 1 43 47
f 1 47 56
f 1 56 74
f 1 74 82
f 1 82 85
f 1 85 84
f 1 84 83
f 1 83 77
f 1 77 63
f 1 63 50
f 1 50 45
f 1 45 41
f 1 41 36
f 1 36 32
f 1 32 28
f 1 28 23
f 1 23 19
f 1 19 15
f 1 15 11
f 1 11 7
f 1 7 3
f 1 3 8
f 1 8 4
f 1 4 6
f 1 6 2
f 2 6 10
f 2 10 5
f 3 7 12
f 3 12 8
f 4 8 12
f 4 12 16
f 4 16 20
f 4 20 24
f 4 24 29
f 4 29 33
f 4 33 38
f 4 38 37
f 4 37 42
f 4 42 46
f 4 46 53
f 4 53 57
f 4 57 48
f 4 48 44
f 4 44 40
f 4 40 35
f 4 35 31
f 4 31 27
f 4 27 26
f 4 26 22
f 4 22 18
f 4 18 14
f 4 14 10
f 4 10 6
f 5 10 14
f 5 14 9
f 7 11 16
f 7 16 12
f 9 14 18
f 9 18 13
f 11 15 20
f 11 20 16
f 13 18 22
f 13 22 17
f 15 19 24
f 15 24 20
f 17 22 26
f 17 26 21
f 19 23 29
f 19 29 24
f 21 26 27
f 21 27 25
f 23 28 33
f 23 33 29
f 25 27 30
f 27 31 30
f 28 32 33
f 30 31 35
f 30 35 34
f 32 36 37
f 32 37 38
f 32 38 33
f 34 35 39
f 35 40 39
f 36 41 42
f 36 42 37
f 39 40 44
f 39 44 43
f 41 45 42
f 42 45 46
f 43 44 47
f 44 48 49
f 44 49 47
f 45 50 51
f 45 51 52
f 45 52 46
f 46 52 53
f 47 49 54
f 47 54 55
f 47 55 56
f 48 57 58
f 48 58 59
f 48 59 60
f 48 60 49
f 49 60 61
f 49 61 62
f 49 62 55
f 49 55 54
f 50 63 64
f 50 64 65
f 50 65 51
f 51 65 66
f 51 66 52
f 52 66 67
f 52 67 68
f 52 68 53
f 53 68 69
f 53 69 70
f 53 70 71
f 53 71 57
f 55 72 56
f 55 62 61
f 55 61 72
f 56 72 73
f 56 73 74
f 57 71 58
f 58 73 75
f 58 75 59
f 58 71 81
f 58 81 73
f 59 75 76
f 59 76 60
f 60 76 72
f 60 72 61
f 63 77 64
f 64 77 78
f 64 78 79
f 64 79 68
f 64 68 67
f 64 67 66
f 64 66 65
f 68 79 80
f 68 80 69
f 69 80 78
f 69 78 70
f 70 78 81
f 70 81 71
f 72 76 73
f 73 81 82
f 73 82 74
f 73 76 75
f 77 83 78
f 78 80 79
f 78 83 81
f 81 83 84
f 81 84 85
f 81 85 82

