# https://github.com/mikedh/trimesh
v 0.04385688 0.00550397 0.00500000
v 0.04334888 0.00618269 0.00500000
v 0.04521202 0.00550397 0.00500000
v 0.04385688 0.00550397 0.01499053
v 0.04329616 0.00625509 0.00500000
v 0.04334888 0.00618269 0.01499053
v 0.04521202 0.00689268 0.00500000
v 0.04521202 0.00550397 0.01499053
v 0.04323810 0.00634178 0.00500000
v 0.04329616 0.00625509 0.01499053
v 0.04462604 0.00735493 0.00500000
v 0.04521202 0.00689268 0.01499053
v 0.04317542 0.00644374 0.00500000
v 0.04323810 0.00634178 0.01499053
v 0.04456749 0.00740099 0.00500000
v 0.04462604 0.00735493 0.01499053
v 0.04310934 0.00656121 0.00500000
v 0.04317542 0.00644374 0.01499053
v 0.04449485 0.00745369 0.00500000
v 0.04449485 0.00745393 0.01499053
v 0.04456749 0.00740099 0.01499053
v 0.04307800 0.00662080 0.00500000
v 0.04310934 0.00656121 0.01499053
v 0.04440812 0.00751181 0.00500000
v 0.04440787 0.00751205 0.01499053
v 0.04307800 0.00662105 0.01499053
v 0.04306998 0.00663681 0.01499053
v 0.04304107 0.00669468 0.00504401
v 0.04336151 0.00693578 0.00500000
v 0.04430632 0.00757461 0.00500000
v 0.04430608 0.00757461 0.01499053
v 0.04334621 0.00694342 0.01499053
v 0.04290210 0.00701114 0.01477441
v 0.04297159 0.00684442 0.01486829
v 0.04304107 0.00669468 0.01495533
v 0.04297159 0.00684442 0.00513202
v 0.04290210 0.00701114 0.00522590
v 0.04283408 0.00719535 0.00532565
v 0.04276849 0.00739680 0.00543225
v 0.04273034 0.00752855 0.00550070
v 0.04297183 0.00777802 0.00550070
v 0.04358429 0.00716580 0.00500000
v 0.04418898 0.00764061 0.00500000
v 0.04418874 0.00764061 0.01499053
v 0.04334961 0.00694711 0.01499053
v 0.04273034 0.00752855 0.01449961
v 0.04283408 0.00719535 0.01467368
v 0.04276849 0.00739680 0.01456709
v 0.04381412 0.00738843 0.00500000
v 0.04297183 0.00777802 0.01449961
v 0.04322133 0.00801961 0.00550070
v 0.04412897 0.00767213 0.00500000
v 0.04412897 0.00767213 0.01499053
v 0.04357263 0.00717737 0.01499053
v 0.04335301 0.00798169 0.00543225
v 0.04355465 0.00791593 0.00532565
v 0.04405536 0.00770907 0.00504401
v 0.04379808 0.00739581 0.01499053
v 0.04322133 0.00801961 0.01449961
v 0.04405536 0.00770907 0.01495533
v 0.04411318 0.00768001 0.01499053
v 0.04335301 0.00798169 0.01456709
v 0.04373881 0.00784796 0.00522590
v 0.04355465 0.00791593 0.01467368
v 0.04390571 0.00777852 0.00513202
v 0.04380391 0.00740123 0.01499053
v 0.04380659 0.00740369 0.01499053
v 0.04390571 0.00777852 0.01486829
v 0.04382068 0.00741650 0.01499053
v 0.04373881 0.00784796 0.01477441
f 1 2 5
f 1 5 9
f 1 9 13
f 1 13 17
f 1 17 22
f 1 22 29
f 1 29 42
f 1 42 49
f 1 49 52
f 1 52 43
f 1 43 30
f 1 30 24
f 1 24 19
f 1 19 15
f 1 15 11
f 1 11 7
f 1 7 3
f 1 3 8
f 1 8 4
f 1 4 6
f 1 6 2
f 2 6 10
f 2 10 5
f 3 7 12
f 3 12 8
f 4 8 12
f 4 12 16
f 4 16 21
f 4 21 20
f 4 20 25
f 4 25 31
f 4 31 44
f 4 44 53
f 4 53 61
f 4 61 69
f 4 69 67
f 4 67 66
f 4 66 58
f 4 58 54
f 4 54 45
f 4 45 32
f 4 32 27
f 4 27 26
f 4 26 23
f 4 23 18
f 4 18 14
f 4 14 10
f 4 10 6
f 5 10 14
f 5 14 9
f 7 11 16
f 7 16 12
f 9 14 18
f 9 18 13
f 11 15 21
f 11 21 16
f 13 18 23
f 13 23 17
f 15 19 20
f 15 20 21
f 17 23 22
f 19 24 20
f 20 24 25
f 22 23 26
f 22 26 27
f 22 27 28
f 22 28 29
f 24 30 25
f 25 30 31
f 27 32 33
f 27 33 34
f 27 34 35
f 27 35 28
f 28 36 37
f 28 37 38
f 28 38 29
f 28 35 34
f 28 34 36
f 29 38 39
f 29 39 40
f 29 40 41
f 29 41 42
f 30 43 44
f 30 44 31
f 32 45 46
f 32 46 47
f 32 47 33
f 33 47 38
f 33 38 37
f 33 37 36
f 33 36 34
f 38 47 48
f 38 48 39
f 39 48 46
f 39 46 40
f 40 46 50
f 40 50 41
f 41 49 42
f 41 50 59
f 41 59 51
f 41 51 49
f 43 52 53
f 43 53 44
f 45 54 50
f 45 50 46
f 46 48 47
f 49 51 55
f 49 55 56
f 49 56 57
f 49 57 52
f 50 54 58
f 50 58 59
f 51 59 62
f 51 62 55
f 52 57 60
f 52 60 53
f 53 60 61
f 55 62 64
f 55 64 56
f 56 63 57
f 56 64 70
f 56 70 63
f 57 63 65
f 57 65 68
f 57 68 60
f 58 66 59
f 59 66 67
f 59 67 62
f 60 68 61
f 61 68 70
f 61 70 69
f 62 67 64
f 63 70 68
f 63 68 65
f 64 67 70
f 67 69 70

