# https://github.com/mikedh/trimesh
v 0.04139504 0.00393870 0.01499053
v 0.04140742 0.00392613 0.01499053
v 0.04140742 0.00392593 0.01500000
v 0.04155510 0.00429827 0.01499053
v 0.04145591 0.00387877 0.01499053
v 0.04145581 0.00387877 0.01500000
v 0.04157985 0.00431321 0.01500000
v 0.04156436 0.00431890 0.01499053
v 0.04155500 0.00378760 0.01499053
v 0.04155500 0.00378760 0.01500000
v 0.04172069 0.00460067 0.01500000
v 0.04170600 0.00460814 0.01499053
v 0.04164604 0.00371018 0.01499053
v 0.04164594 0.00371018 0.01500000
v 0.04187039 0.00488342 0.01500000
v 0.04185288 0.00488558 0.01499053
v 0.04172814 0.00364554 0.01499053
v 0.04172803 0.00364554 0.01500000
v 0.04189845 0.00496515 0.01499053
v 0.04186797 0.00491230 0.01499053
v 0.04185670 0.00489265 0.01499053
v 0.04208235 0.00525065 0.01500000
v 0.04180057 0.00359288 0.01499053
v 0.04180057 0.00359288 0.01500000
v 0.04206485 0.00525340 0.01499053
v 0.04214895 0.00523926 0.01500000
v 0.04208235 0.00525065 0.01499053
v 0.04186264 0.00355142 0.01499053
v 0.04186254 0.00355142 0.01500000
v 0.04228104 0.00521273 0.01500000
v 0.04214885 0.00523926 0.01499053
v 0.04191898 0.00351664 0.01499053
v 0.04191898 0.00351664 0.01500000
v 0.04239723 0.00518463 0.01500000
v 0.04228094 0.00521273 0.01499053
v 0.04195841 0.00349444 0.01499053
v 0.04195831 0.00349444 0.01500000
v 0.04242269 0.00517736 0.01500000
v 0.04242269 0.00517736 0.01499053
v 0.04239713 0.00518463 0.01499053
v 0.04242269 0.00324608 0.01499053
v 0.04242269 0.00324608 0.01500000
f 1 2 3
f 1 3 4
f 1 4 8
f 1 8 12
f 1 12 16
f 1 16 21
f 1 21 20
f 1 20 19
f 1 19 25
f 1 25 27
f 1 27 31
f 1 31 35
f 1 35 40
f 1 40 39
f 1 39 41
f 1 41 36
f 1 36 32
f 1 32 28
f 1 28 23
f 1 23 17
f 1 17 13
f 1 13 9
f 1 9 5
f 1 5 2
f 2 5 3
f 3 5 6
f 3 6 10
f 3 10 14
f 3 14 18
f 3 18 24
f 3 24 29
f 3 29 33
f 3 33 37
f 3 37 42
f 3 42 38
f 3 38 34
f 3 34 30
f 3 30 26
f 3 26 22
f 3 22 15
f 3 15 11
f 3 11 7
f 3 7 4
f 4 7 8
f 5 9 6
f 6 9 10
f 7 11 12
f 7 12 8
f 9 13 14
f 9 14 10
f 11 15 16
f 11 16 12
f 13 17 18
f 13 18 14
f 15 19 20
f 15 20 21
f 15 21 16
f 15 22 19
f 17 23 18
f 18 23 24
f 19 22 25
f 22 26 27
f 22 27 25
f 23 28 29
f 23 29 24
f 26 30 35
f 26 35 31
f 26 31 27
f 28 32 29
f 29 32 33
f 30 34 40
f 30 40 35
f 32 36 37
f 32 37 33
f 34 38 39
f 34 39 40
f 36 41 37
f 37 41 42
f 38 42 41
f 38 41 39

