# https://github.com/mikedh/trimesh
v 0.05942369 -0.00114270 0.03000000
v 0.05941466 -0.00121779 0.03000000
v 0.05942369 -0.00114270 0.01590809
v 0.05561685 -0.00114270 0.03000000
v 0.05935313 -0.00159463 0.03000000
v 0.05941097 -0.00124062 0.01590809
v 0.05941466 -0.00121779 0.01590809
v 0.05561685 -0.00114270 0.01590809
v 0.05523243 -0.00221258 0.03000000
v 0.05927558 -0.00196823 0.03000000
v 0.05934861 -0.00161726 0.01590809
v 0.05935313 -0.00159463 0.01590809
v 0.05523243 -0.00221258 0.01590809
v 0.05921363 -0.00221258 0.03000000
v 0.05927558 -0.00196823 0.01590809
v 0.05921363 -0.00221258 0.01590809
f 1 2 7
f 1 7 3
f 1 3 8
f 1 8 4
f 1 4 9
f 1 9 14
f 1 14 10
f 1 10 5
f 1 5 2
f 2 5 6
f 2 6 7
f 3 7 6
f 3 6 12
f 3 12 11
f 3 11 15
f 3 15 16
f 3 16 13
f 3 13 8
f 4 8 13
f 4 13 9
f 5 10 11
f 5 11 12
f 5 12 6
f 9 13 16
f 9 16 14
f 10 14 16
f 10 16 15
f 10 15 11

