# https://github.com/mikedh/trimesh
v 0.05960421 -0.00226603 0.01499061
v 0.05960421 -0.00226603 0.01500000
v 0.05960421 -0.00226455 0.01499053
v 0.05983572 -0.00232494 0.01499053
v 0.05983572 -0.00232494 0.01500000
v 0.05960421 -0.00045538 0.01500000
v 0.05960421 -0.00045538 0.01499053
v 0.05985903 -0.00233070 0.01499053
v 0.05985891 -0.00233070 0.01500000
v 0.06029997 -0.00063117 0.01500000
v 0.06029985 -0.00063117 0.01499053
v 0.05987926 -0.00233479 0.01499053
v 0.05987926 -0.00233479 0.01500000
v 0.06037163 -0.00065161 0.01500000
v 0.06037163 -0.00065142 0.01499053
v 0.05991663 -0.00234055 0.01499053
v 0.05991651 -0.00234055 0.01500000
v 0.06045686 -0.00067911 0.01500000
v 0.06045686 -0.00067911 0.01499053
v 0.05996153 -0.00234575 0.01499053
v 0.05996140 -0.00234575 0.01500000
v 0.06055491 -0.00071516 0.01500000
v 0.06055479 -0.00071516 0.01499053
v 0.06002776 -0.00235077 0.01499053
v 0.06002764 -0.00235077 0.01500000
v 0.06066542 -0.00076087 0.01499053
v 0.06066542 -0.00076087 0.01500000
v 0.06010226 -0.00235355 0.01499053
v 0.06010213 -0.00235355 0.01500000
v 0.06078778 -0.00081680 0.01499053
v 0.06078778 -0.00081699 0.01500000
v 0.06019180 -0.00235355 0.01499053
v 0.06019180 -0.00235374 0.01500000
v 0.06084846 -0.00084691 0.01499053
v 0.06084846 -0.00084691 0.01500000
v 0.06029615 -0.00234965 0.01499053
v 0.06029602 -0.00234965 0.01500000
v 0.06086412 -0.00085490 0.01499053
v 0.06080418 -0.00126854 0.01500000
v 0.06082318 -0.00124680 0.01499053
v 0.06041529 -0.00234055 0.01499053
v 0.06041529 -0.00234055 0.01500000
v 0.06082071 -0.00126910 0.01499053
v 0.06075916 -0.00158518 0.01500000
v 0.06054899 -0.00232494 0.01499053
v 0.06054899 -0.00232494 0.01500000
v 0.06077631 -0.00158128 0.01499053
v 0.06070415 -0.00190033 0.01500000
v 0.06072142 -0.00189699 0.01499053
v 0.06077532 -0.00158778 0.01499053
v 0.06061584 -0.00231527 0.01499053
v 0.06061584 -0.00231527 0.01500000
v 0.06071538 -0.00192709 0.01499053
v 0.06071809 -0.00191427 0.01499053
v 0.06071932 -0.00190832 0.01499053
v 0.06063336 -0.00231230 0.01499053
f 1 2 6
f 1 6 7
f 1 7 3
f 1 3 4
f 1 4 5
f 1 5 2
f 2 5 9
f 2 9 13
f 2 13 17
f 2 17 21
f 2 21 25
f 2 25 29
f 2 29 33
f 2 33 37
f 2 37 42
f 2 42 46
f 2 46 52
f 2 52 48
f 2 48 44
f 2 44 39
f 2 39 35
f 2 35 31
f 2 31 27
f 2 27 22
f 2 22 18
f 2 18 14
f 2 14 10
f 2 10 6
f 3 7 11
f 3 11 15
f 3 15 19
f 3 19 23
f 3 23 26
f 3 26 30
f 3 30 34
f 3 34 38
f 3 38 40
f 3 40 43
f 3 43 47
f 3 47 50
f 3 50 49
f 3 49 55
f 3 55 54
f 3 54 53
f 3 53 56
f 3 56 51
f 3 51 45
f 3 45 41
f 3 41 36
f 3 36 32
f 3 32 28
f 3 28 24
f 3 24 20
f 3 20 16
f 3 16 12
f 3 12 8
f 3 8 4
f 4 8 9
f 4 9 5
f 6 10 7
f 7 10 11
f 8 12 9
f 9 12 13
f 10 14 15
f 10 15 11
f 12 16 17
f 12 17 13
f 14 18 15
f 15 18 19
f 16 20 21
f 16 21 17
f 18 22 19
f 19 22 23
f 20 24 25
f 20 25 21
f 22 26 23
f 22 27 26
f 24 28 29
f 24 29 25
f 26 27 30
f 27 31 30
f 28 32 33
f 28 33 29
f 30 31 35
f 30 35 34
f 32 36 33
f 33 36 37
f 34 35 38
f 35 39 40
f 35 40 38
f 36 41 42
f 36 42 37
f 39 43 40
f 39 44 43
f 41 45 46
f 41 46 42
f 43 44 47
f 44 48 49
f 44 49 50
f 44 50 47
f 45 51 52
f 45 52 46
f 48 53 54
f 48 54 55
f 48 55 49
f 48 52 53
f 51 56 52
f 52 56 53

