# https://github.com/mikedh/trimesh
v 0.05738635 0.00768013 0.01499053
v 0.05737043 0.00767215 0.01499053
v 0.05737043 0.00767215 0.01500002
v 0.05763390 0.00745734 0.01499053
v 0.05731078 0.00764060 0.01499053
v 0.05768592 0.00738821 0.01500002
v 0.05731078 0.00764060 0.01500002
v 0.05613963 0.00689298 0.01511712
v 0.05639704 0.00668305 0.01511715
v 0.05643292 0.00665383 0.01511715
v 0.05668316 0.00643046 0.01511715
v 0.05671769 0.00639950 0.01511715
v 0.05769354 0.00740360 0.01499053
v 0.05719373 0.00757458 0.01499053
v 0.05791575 0.00716562 0.01500002
v 0.05719396 0.00757458 0.01500002
v 0.05709193 0.00751187 0.01500002
v 0.05613963 0.00691654 0.01500002
v 0.05613963 0.00639892 0.01511715
v 0.05699103 0.00613309 0.01511715
v 0.05792248 0.00718178 0.01499053
v 0.05709193 0.00751168 0.01499053
v 0.05813841 0.00693582 0.01500002
v 0.05814581 0.00695179 0.01499053
v 0.05792719 0.00717711 0.01499053
v 0.05613963 0.00691654 0.01499053
v 0.05613963 0.00569064 0.01511715
v 0.05713072 0.00598489 0.01511715
v 0.05842184 0.00662092 0.01500002
v 0.05843014 0.00663689 0.01499053
v 0.05815747 0.00693913 0.01499053
v 0.05815142 0.00694575 0.01499053
v 0.05725248 0.00585500 0.01511715
v 0.05613963 0.00598489 0.01499053
v 0.05739375 0.00569064 0.01511715
v 0.05613963 0.00569064 0.01499055
v 0.05839045 0.00656114 0.01500002
v 0.05842184 0.00662092 0.01499053
v 0.05725450 0.00585266 0.01511715
v 0.05780229 0.00598489 0.01499053
v 0.05767874 0.00569064 0.01500002
v 0.05800477 0.00601352 0.01500002
v 0.05803146 0.00604020 0.01500002
v 0.05806195 0.00607350 0.01500002
v 0.05810500 0.00612413 0.01500002
v 0.05815120 0.00618256 0.01500002
v 0.05820389 0.00625520 0.01500002
v 0.05826197 0.00634186 0.01500002
v 0.05832453 0.00644390 0.01500002
v 0.05767874 0.00569064 0.01499055
v 0.05839045 0.00656114 0.01499053
v 0.05798975 0.00599950 0.01499053
v 0.05800477 0.00601352 0.01499053
v 0.05803146 0.00604020 0.01499053
v 0.05806195 0.00607350 0.01499053
v 0.05810500 0.00612413 0.01499053
v 0.05815120 0.00618256 0.01499053
v 0.05820389 0.00625520 0.01499053
v 0.05826197 0.00634186 0.01499053
v 0.05832453 0.00644390 0.01499053
f 1 2 3
f 1 3 4
f 1 4 13
f 1 13 21
f 1 21 25
f 1 25 24
f 1 24 32
f 1 32 31
f 1 31 30
f 1 30 38
f 1 38 51
f 1 51 60
f 1 60 59
f 1 59 58
f 1 58 57
f 1 57 56
f 1 56 55
f 1 55 54
f 1 54 53
f 1 53 52
f 1 52 40
f 1 40 34
f 1 34 26
f 1 26 22
f 1 22 14
f 1 14 5
f 1 5 2
f 2 5 7
f 2 7 3
f 3 6 4
f 3 7 8
f 3 8 9
f 3 9 10
f 3 10 11
f 3 11 12
f 3 12 6
f 4 6 13
f 5 14 7
f 6 12 15
f 6 15 13
f 7 14 16
f 7 16 8
f 8 17 18
f 8 18 26
f 8 26 34
f 8 34 36
f 8 36 27
f 8 27 19
f 8 19 9
f 8 16 17
f 9 19 27
f 9 27 35
f 9 35 39
f 9 39 33
f 9 33 28
f 9 28 20
f 9 20 12
f 9 12 11
f 9 11 10
f 12 20 15
f 13 15 21
f 14 22 17
f 14 17 16
f 15 23 24
f 15 24 25
f 15 25 21
f 15 20 23
f 17 22 26
f 17 26 18
f 20 28 23
f 23 29 30
f 23 30 31
f 23 31 32
f 23 32 24
f 23 28 33
f 23 33 29
f 27 36 50
f 27 50 41
f 27 41 35
f 29 37 51
f 29 51 38
f 29 38 30
f 29 33 39
f 29 39 35
f 29 35 37
f 34 40 50
f 34 50 36
f 35 41 42
f 35 42 43
f 35 43 44
f 35 44 45
f 35 45 46
f 35 46 47
f 35 47 48
f 35 48 49
f 35 49 37
f 37 49 60
f 37 60 51
f 40 52 50
f 41 50 53
f 41 53 42
f 42 53 54
f 42 54 43
f 43 54 55
f 43 55 44
f 44 55 56
f 44 56 45
f 45 56 57
f 45 57 46
f 46 57 58
f 46 58 47
f 47 58 59
f 47 59 48
f 48 59 60
f 48 60 49
f 50 52 53

