# https://github.com/mikedh/trimesh
v 0.04214803 0.00160250 0.01590809
v 0.04601444 0.00160250 0.01590809
v 0.04214803 0.00160250 0.03000000
v 0.04222435 0.00196847 0.01590809
v 0.04633982 0.00235424 0.01590809
v 0.04601444 0.00160250 0.03000000
v 0.04222435 0.00196847 0.03000000
v 0.04223010 0.00199120 0.01590809
v 0.04633982 0.00755524 0.01590809
v 0.04633982 0.00235424 0.03000000
v 0.04231831 0.00233851 0.03000000
v 0.04231831 0.00233851 0.01590809
v 0.04611291 0.00742004 0.01590809
v 0.04633982 0.00755524 0.03000000
v 0.04242869 0.00270447 0.03000000
v 0.04237863 0.00254480 0.01590809
v 0.04237207 0.00252266 0.01590809
v 0.04581297 0.00722366 0.01590809
v 0.04611291 0.00742004 0.03000000
v 0.04255425 0.00306461 0.03000000
v 0.04248162 0.00286240 0.01590809
v 0.04242869 0.00270447 0.01590809
v 0.04579369 0.00721084 0.01590809
v 0.04579369 0.00721084 0.03000000
v 0.04269580 0.00341892 0.03000000
v 0.04255425 0.00306461 0.01590809
v 0.04575389 0.00718345 0.01590809
v 0.04548390 0.00698764 0.03000000
v 0.04285254 0.00376740 0.03000000
v 0.04270524 0.00344048 0.01590809
v 0.04269580 0.00341892 0.01590809
v 0.04548390 0.00698764 0.01590809
v 0.04518396 0.00675163 0.03000000
v 0.04546544 0.00697366 0.01590809
v 0.04302447 0.00410831 0.03000000
v 0.04286280 0.00378780 0.01590809
v 0.04285254 0.00376740 0.01590809
v 0.04489510 0.00650222 0.03000000
v 0.04518396 0.00675163 0.01590809
v 0.04491233 0.00651737 0.01590809
v 0.04321075 0.00444105 0.03000000
v 0.04303555 0.00412812 0.01590809
v 0.04302447 0.00410831 0.01590809
v 0.04461690 0.00624057 0.03000000
v 0.04489510 0.00650222 0.01590809
v 0.04341181 0.00476506 0.03000000
v 0.04321075 0.00444105 0.01590809
v 0.04435061 0.00596726 0.03000000
v 0.04461690 0.00624057 0.01590809
v 0.04362681 0.00508091 0.03000000
v 0.04355911 0.00498417 0.01590809
v 0.04341181 0.00476506 0.01590809
v 0.04409662 0.00568230 0.03000000
v 0.04435061 0.00596726 0.01590809
v 0.04411180 0.00569978 0.01590809
v 0.04385495 0.00538685 0.03000000
v 0.04376796 0.00527321 0.01590809
v 0.04362681 0.00508091 0.01590809
v 0.04357183 0.00500282 0.01590809
v 0.04409662 0.00568230 0.01590809
v 0.04386972 0.00540491 0.01590809
v 0.04385495 0.00538685 0.01590809
v 0.04378191 0.00529186 0.01590809
f 1 2 6
f 1 6 3
f 1 3 7
f 1 7 4
f 1 4 8
f 1 8 12
f 1 12 17
f 1 17 16
f 1 16 22
f 1 22 21
f 1 21 26
f 1 26 31
f 1 31 30
f 1 30 37
f 1 37 36
f 1 36 43
f 1 43 42
f 1 42 47
f 1 47 52
f 1 52 51
f 1 51 59
f 1 59 58
f 1 58 57
f 1 57 63
f 1 63 62
f 1 62 61
f 1 61 60
f 1 60 55
f 1 55 54
f 1 54 49
f 1 49 45
f 1 45 40
f 1 40 39
f 1 39 34
f 1 34 32
f 1 32 27
f 1 27 23
f 1 23 18
f 1 18 13
f 1 13 9
f 1 9 5
f 1 5 2
f 2 5 10
f 2 10 6
f 3 6 10
f 3 10 14
f 3 14 19
f 3 19 24
f 3 24 28
f 3 28 33
f 3 33 38
f 3 38 44
f 3 44 48
f 3 48 53
f 3 53 56
f 3 56 50
f 3 50 46
f 3 46 41
f 3 41 35
f 3 35 29
f 3 29 25
f 3 25 20
f 3 20 15
f 3 15 11
f 3 11 7
f 4 7 8
f 5 9 14
f 5 14 10
f 7 11 8
f 8 11 12
f 9 13 19
f 9 19 14
f 11 15 16
f 11 16 17
f 11 17 12
f 13 18 19
f 15 20 21
f 15 21 22
f 15 22 16
f 18 23 24
f 18 24 19
f 20 25 31
f 20 31 26
f 20 26 21
f 23 27 24
f 24 27 28
f 25 29 30
f 25 30 31
f 27 32 28
f 28 32 34
f 28 34 33
f 29 35 36
f 29 36 37
f 29 37 30
f 33 34 39
f 33 39 40
f 33 40 38
f 35 41 42
f 35 42 43
f 35 43 36
f 38 40 45
f 38 45 49
f 38 49 44
f 41 46 52
f 41 52 47
f 41 47 42
f 44 49 54
f 44 54 48
f 46 50 51
f 46 51 52
f 48 54 55
f 48 55 53
f 50 56 57
f 50 57 58
f 50 58 59
f 50 59 51
f 53 55 60
f 53 60 61
f 53 61 56
f 56 61 62
f 56 62 63
f 56 63 57

