# https://github.com/mikedh/trimesh
v 0.04681144 0.00935497 0.01499053
v 0.04682407 0.00934257 0.01500000
v 0.04682407 0.00934257 0.01499053
v 0.04645167 0.00919483 0.01499053
v 0.04687112 0.00929413 0.01500000
v 0.04687112 0.00929423 0.01499053
v 0.04643680 0.00917014 0.01500000
v 0.04643965 0.00918947 0.01499053
v 0.04696239 0.00919504 0.01500000
v 0.04696239 0.00919515 0.01499053
v 0.04642967 0.00918496 0.01499053
v 0.04642376 0.00918212 0.01499053
v 0.04614935 0.00902934 0.01500000
v 0.04703980 0.00910405 0.01500000
v 0.04703980 0.00910415 0.01499053
v 0.04614201 0.00904394 0.01499053
v 0.04613611 0.00904090 0.01499053
v 0.04585864 0.00889400 0.01499053
v 0.04586659 0.00887961 0.01500000
v 0.04710438 0.00902188 0.01500000
v 0.04710438 0.00902198 0.01499053
v 0.04585436 0.00889158 0.01499053
v 0.04578490 0.00885155 0.01499053
v 0.04549663 0.00868522 0.01499053
v 0.04549948 0.00866767 0.01500000
v 0.04715715 0.00894938 0.01500000
v 0.04715715 0.00894938 0.01499053
v 0.04549948 0.00866767 0.01499053
v 0.04551089 0.00860095 0.01499053
v 0.04551089 0.00860105 0.01500000
v 0.04719850 0.00888749 0.01500000
v 0.04719850 0.00888749 0.01499053
v 0.04553738 0.00846886 0.01499053
v 0.04553738 0.00846897 0.01500000
v 0.04757783 0.00828162 0.01500000
v 0.04757783 0.00828162 0.01499053
v 0.04556549 0.00835265 0.01499053
v 0.04556549 0.00835276 0.01500000
v 0.04558566 0.00828162 0.01500000
v 0.04558566 0.00828162 0.01499053
f 1 2 3
f 1 3 6
f 1 6 10
f 1 10 15
f 1 15 21
f 1 21 27
f 1 27 32
f 1 32 36
f 1 36 40
f 1 40 37
f 1 37 33
f 1 33 29
f 1 29 28
f 1 28 24
f 1 24 23
f 1 23 22
f 1 22 18
f 1 18 17
f 1 17 16
f 1 16 12
f 1 12 11
f 1 11 8
f 1 8 4
f 1 4 2
f 2 5 6
f 2 6 3
f 2 4 7
f 2 7 13
f 2 13 19
f 2 19 25
f 2 25 30
f 2 30 34
f 2 34 38
f 2 38 39
f 2 39 35
f 2 35 31
f 2 31 26
f 2 26 20
f 2 20 14
f 2 14 9
f 2 9 5
f 4 8 7
f 5 9 10
f 5 10 6
f 7 8 11
f 7 11 12
f 7 12 13
f 9 14 15
f 9 15 10
f 12 16 13
f 13 16 17
f 13 17 18
f 13 18 19
f 14 20 21
f 14 21 15
f 18 22 19
f 19 22 23
f 19 23 24
f 19 24 25
f 20 26 21
f 21 26 27
f 24 28 25
f 25 28 29
f 25 29 30
f 26 31 32
f 26 32 27
f 29 33 34
f 29 34 30
f 31 35 36
f 31 36 32
f 33 37 38
f 33 38 34
f 35 39 40
f 35 40 36
f 37 39 38
f 37 40 39

