# https://github.com/mikedh/trimesh
v 0.04966898 -0.00868105 0.01590809
v 0.04953218 -0.00866465 0.01590809
v 0.04966898 -0.00488182 0.01590809
v 0.04966898 -0.00868105 0.03000000
v 0.04953218 -0.00866465 0.03000000
v 0.04950934 -0.00866105 0.01590809
v 0.04877831 -0.00459376 0.01590809
v 0.04966898 -0.00488182 0.03000000
v 0.04915542 -0.00860343 0.03000000
v 0.04915542 -0.00860343 0.01590809
v 0.04877831 -0.00852462 0.01590809
v 0.04877831 -0.00459376 0.03000000
v 0.04878171 -0.00852542 0.03000000
v 0.04878171 -0.00852542 0.01590809
v 0.04877831 -0.00852462 0.03000000
f 1 2 6
f 1 6 10
f 1 10 14
f 1 14 11
f 1 11 7
f 1 7 3
f 1 3 8
f 1 8 4
f 1 4 5
f 1 5 2
f 2 5 6
f 3 7 12
f 3 12 8
f 4 8 12
f 4 12 15
f 4 15 13
f 4 13 9
f 4 9 5
f 5 9 6
f 6 9 10
f 7 11 15
f 7 15 12
f 9 13 14
f 9 14 10
f 11 14 13
f 11 13 15

