# https://github.com/mikedh/trimesh
v 0.06166332 -0.00137698 0.01449961
v 0.06161453 -0.00172071 0.01449961
v 0.06166332 -0.00137698 0.00550070
v 0.06155520 -0.00129283 0.01456709
v 0.06138363 -0.00116834 0.01467368
v 0.06082174 -0.00125980 0.01499053
v 0.06082067 -0.00126918 0.01499053
v 0.06082049 -0.00127058 0.01499053
v 0.06155466 -0.00206287 0.01449961
v 0.06161453 -0.00172071 0.00550070
v 0.06077527 -0.00158770 0.01499053
v 0.06072041 -0.00190344 0.01499053
v 0.06080423 -0.00126866 0.00500000
v 0.06155520 -0.00129283 0.00543225
v 0.06122028 -0.00105951 0.01477441
v 0.06138363 -0.00116834 0.00532565
v 0.06082317 -0.00124676 0.01499053
v 0.06155466 -0.00206287 0.00550070
v 0.06071826 -0.00191422 0.01499053
v 0.06122403 -0.00217484 0.01467368
v 0.06142563 -0.00210946 0.01456709
v 0.06070432 -0.00190048 0.00500000
v 0.06075919 -0.00158527 0.00500000
v 0.06084837 -0.00084687 0.00500000
v 0.06092164 -0.00088477 0.00504401
v 0.06106605 -0.00096527 0.01486829
v 0.06086410 -0.00085504 0.01499053
v 0.06122028 -0.00105951 0.00522590
v 0.06142563 -0.00210946 0.00543225
v 0.06071558 -0.00192708 0.01499053
v 0.06103513 -0.00222786 0.01477441
v 0.06122403 -0.00217484 0.00532565
v 0.06069735 -0.00230175 0.00504401
v 0.06061604 -0.00231532 0.00500000
v 0.06078778 -0.00081697 0.00500000
v 0.06078778 -0.00081679 0.01499053
v 0.06084855 -0.00084687 0.01499053
v 0.06106605 -0.00096527 0.00513202
v 0.06092164 -0.00088477 0.01495533
v 0.06063355 -0.00231236 0.01499053
v 0.06085945 -0.00226976 0.01486829
v 0.06103513 -0.00222786 0.00522590
v 0.06085945 -0.00226976 0.00513202
v 0.06069735 -0.00230175 0.01495533
v 0.06054920 -0.00232488 0.00500000
v 0.06061604 -0.00231532 0.01499053
v 0.06066554 -0.00076081 0.00500000
v 0.06066554 -0.00076081 0.01499053
v 0.06041534 -0.00234053 0.00500000
v 0.06054920 -0.00232488 0.01499053
v 0.06055509 -0.00071526 0.00500000
v 0.06055491 -0.00071526 0.01499053
v 0.06029613 -0.00234974 0.00500000
v 0.06041534 -0.00234053 0.01499053
v 0.06029631 -0.00234974 0.01499053
v 0.06045698 -0.00067927 0.00500000
v 0.06045698 -0.00067927 0.01499053
v 0.06019176 -0.00235374 0.00500000
v 0.06019194 -0.00235357 0.01499053
v 0.06037173 -0.00065145 0.00500000
v 0.06037173 -0.00065145 0.01499053
v 0.06010222 -0.00235357 0.00500000
v 0.06010222 -0.00235357 0.01499053
v 0.06030006 -0.00063128 0.00500000
v 0.06030006 -0.00063111 0.01499053
v 0.06002770 -0.00235078 0.00500000
v 0.06002770 -0.00235078 0.01499053
v 0.06023555 -0.00061564 0.00500000
v 0.06023537 -0.00061564 0.01499053
v 0.05996157 -0.00234574 0.00500000
v 0.05996157 -0.00234574 0.01499053
v 0.06019122 -0.00060659 0.00500000
v 0.06019122 -0.00060659 0.01499053
v 0.05991653 -0.00234053 0.00500000
v 0.05991671 -0.00234053 0.01499053
v 0.06015405 -0.00060068 0.00500000
v 0.06015405 -0.00060068 0.01499053
v 0.05987936 -0.00233479 0.00500000
v 0.05987936 -0.00233479 0.01499053
v 0.06013350 -0.00059807 0.00500000
v 0.06013350 -0.00059807 0.01499053
v 0.05985899 -0.00233079 0.00500000
v 0.05985899 -0.00233079 0.01499053
v 0.06010955 -0.00059634 0.00500000
v 0.06010937 -0.00059634 0.01499053
v 0.05983772 -0.00232557 0.00586938
v 0.05983772 -0.00232505 0.00500000
v 0.05983772 -0.00232557 0.01499053
v 0.05983772 -0.00057791 0.00500000
v 0.05983772 -0.00057756 0.01377399
v 0.05983772 -0.00057756 0.01499053
f 1 2 10
f 1 10 3
f 1 3 14
f 1 14 4
f 1 4 5
f 1 5 6
f 1 6 7
f 1 7 8
f 1 8 2
f 2 9 18
f 2 18 10
f 2 8 11
f 2 11 12
f 2 12 9
f 3 10 13
f 3 13 14
f 4 14 16
f 4 16 5
f 5 15 6
f 5 16 28
f 5 28 15
f 6 15 17
f 6 17 27
f 6 27 37
f 6 37 36
f 6 36 48
f 6 48 52
f 6 52 57
f 6 57 61
f 6 61 65
f 6 65 69
f 6 69 73
f 6 73 77
f 6 77 81
f 6 81 85
f 6 85 91
f 6 91 88
f 6 88 83
f 6 83 79
f 6 79 75
f 6 75 71
f 6 71 67
f 6 67 63
f 6 63 59
f 6 59 55
f 6 55 54
f 6 54 50
f 6 50 46
f 6 46 40
f 6 40 30
f 6 30 19
f 6 19 12
f 6 12 11
f 6 11 8
f 6 8 7
f 9 12 19
f 9 19 20
f 9 20 21
f 9 21 29
f 9 29 18
f 10 18 22
f 10 22 23
f 10 23 13
f 13 23 22
f 13 22 34
f 13 34 45
f 13 45 49
f 13 49 53
f 13 53 58
f 13 58 62
f 13 62 66
f 13 66 70
f 13 70 74
f 13 74 78
f 13 78 82
f 13 82 87
f 13 87 89
f 13 89 84
f 13 84 80
f 13 80 76
f 13 76 72
f 13 72 68
f 13 68 64
f 13 64 60
f 13 60 56
f 13 56 51
f 13 51 47
f 13 47 35
f 13 35 24
f 13 24 25
f 13 25 16
f 13 16 14
f 15 26 27
f 15 27 17
f 15 28 38
f 15 38 26
f 16 25 28
f 18 29 22
f 19 30 31
f 19 31 20
f 20 31 42
f 20 42 32
f 20 32 29
f 20 29 21
f 22 33 34
f 22 29 32
f 22 32 33
f 24 35 36
f 24 36 37
f 24 37 25
f 25 38 28
f 25 37 39
f 25 39 26
f 25 26 38
f 26 39 27
f 27 39 37
f 30 40 31
f 31 40 41
f 31 41 43
f 31 43 42
f 32 42 33
f 33 42 43
f 33 43 41
f 33 41 44
f 33 44 46
f 33 46 34
f 34 46 50
f 34 50 45
f 35 47 36
f 36 47 48
f 40 46 44
f 40 44 41
f 45 50 54
f 45 54 49
f 47 51 48
f 48 51 52
f 49 54 55
f 49 55 53
f 51 56 57
f 51 57 52
f 53 55 58
f 55 59 58
f 56 60 61
f 56 61 57
f 58 59 63
f 58 63 62
f 60 64 65
f 60 65 61
f 62 63 67
f 62 67 66
f 64 68 65
f 65 68 69
f 66 67 71
f 66 71 70
f 68 72 73
f 68 73 69
f 70 71 74
f 71 75 74
f 72 76 77
f 72 77 73
f 74 75 79
f 74 79 78
f 76 80 81
f 76 81 77
f 78 79 83
f 78 83 82
f 80 84 81
f 81 84 85
f 82 83 88
f 82 88 86
f 82 86 87
f 84 89 90
f 84 90 91
f 84 91 85
f 86 88 91
f 86 91 90
f 86 90 89
f 86 89 87

