# https://github.com/mikedh/trimesh
v 0.05231363 -0.00875048 0.01499053
v 0.05290995 -0.00875048 0.01499053
v 0.05231363 -0.00875048 0.01500000
v 0.05231363 -0.00474845 0.01499053
v 0.05300357 -0.00873545 0.01499053
v 0.05300306 -0.00875048 0.01499164
v 0.05300306 -0.00875048 0.01500000
v 0.05231363 -0.00860698 0.01511715
v 0.05231363 -0.00474845 0.01511715
v 0.05361634 -0.00409700 0.01511715
v 0.05361672 -0.00409700 0.01499053
v 0.05361672 -0.00826669 0.01499053
v 0.05361672 -0.00826669 0.01511715
v 0.05334898 -0.00835415 0.01511715
v 0.05330829 -0.00836736 0.01511715
v 0.05328763 -0.00837374 0.01511715
v 0.05328164 -0.00837556 0.01511715
v 0.05294081 -0.00847123 0.01511715
v 0.05256925 -0.00855870 0.01511715
v 0.05361672 -0.00409700 0.01511715
f 1 2 6
f 1 6 7
f 1 7 3
f 1 3 8
f 1 8 9
f 1 9 4
f 1 4 11
f 1 11 12
f 1 12 5
f 1 5 2
f 2 5 6
f 3 7 8
f 4 9 10
f 4 10 11
f 5 12 6
f 6 12 13
f 6 13 7
f 7 13 14
f 7 14 15
f 7 15 16
f 7 16 17
f 7 17 18
f 7 18 19
f 7 19 8
f 8 19 18
f 8 18 17
f 8 17 16
f 8 16 15
f 8 15 14
f 8 14 13
f 8 13 20
f 8 20 10
f 8 10 9
f 10 20 11
f 11 20 13
f 11 13 12

