# https://github.com/mikedh/trimesh
v 0.05841643 0.00421380 0.01590809
v 0.05854578 0.00397240 0.01590809
v 0.05854742 0.00396964 0.01511724
v 0.05841643 0.00421380 0.01511724
v 0.05344157 0.00421380 0.01590809
v 0.05855615 0.00395157 0.01590809
v 0.05869205 0.00367023 0.01511724
v 0.05344157 0.00421380 0.01511724
v 0.05484643 0.00286705 0.01590809
v 0.05871170 0.00362856 0.01590809
v 0.05871334 0.00362580 0.01511724
v 0.05484643 0.00286705 0.01511724
v 0.05901625 0.00286705 0.01590809
v 0.05872098 0.00360721 0.01590809
v 0.05886289 0.00327787 0.01590809
v 0.05886289 0.00327787 0.01511724
v 0.05901680 0.00286705 0.01511724
v 0.05901680 0.00286705 0.01524839
v 0.05901407 0.00287523 0.01590809
v 0.05887107 0.00325625 0.01590809
v 0.05899770 0.00292084 0.01511724
v 0.05899770 0.00292084 0.01590809
f 1 2 3
f 1 3 4
f 1 4 8
f 1 8 5
f 1 5 9
f 1 9 13
f 1 13 19
f 1 19 22
f 1 22 20
f 1 20 15
f 1 15 14
f 1 14 10
f 1 10 6
f 1 6 2
f 2 6 3
f 3 6 7
f 3 7 11
f 3 11 16
f 3 16 21
f 3 21 17
f 3 17 12
f 3 12 8
f 3 8 4
f 5 8 12
f 5 12 9
f 6 10 7
f 7 10 11
f 9 12 17
f 9 17 18
f 9 18 13
f 10 14 11
f 11 14 15
f 11 15 16
f 13 18 19
f 15 20 16
f 16 20 21
f 17 21 19
f 17 19 18
f 19 21 22
f 20 22 21

