# https://github.com/mikedh/trimesh
v 0.05983772 -0.00232562 0.00586938
v 0.05983772 -0.00232562 0.01499053
v 0.05938615 -0.00227094 0.01470987
v 0.05938615 -0.00227075 0.00500000
v 0.05983569 -0.00232504 0.00500000
v 0.05983772 -0.00232504 0.00500000
v 0.05938615 -0.00227094 0.01499053
v 0.05983772 -0.00057769 0.01499053
v 0.05938615 -0.00035899 0.00500000
v 0.05983772 -0.00057789 0.00500000
v 0.05938615 -0.00035899 0.01499053
v 0.05953803 -0.00035899 0.01499053
v 0.05983772 -0.00057769 0.01377399
v 0.05953803 -0.00035899 0.00500000
f 1 2 7
f 1 7 3
f 1 3 4
f 1 4 5
f 1 5 6
f 1 6 10
f 1 10 13
f 1 13 8
f 1 8 2
f 2 8 12
f 2 12 11
f 2 11 7
f 3 7 11
f 3 11 9
f 3 9 4
f 4 9 14
f 4 14 10
f 4 10 6
f 4 6 5
f 8 13 14
f 8 14 12
f 9 11 12
f 9 12 14
f 10 14 13

