# https://github.com/mikedh/trimesh
v 0.04419928 0.00525683 0.01499053
v 0.04529576 0.00525683 0.01499053
v 0.04419928 0.00525683 0.01511715
v 0.04419928 0.00642102 0.01499053
v 0.04529576 0.00525683 0.01511715
v 0.04529576 0.00642102 0.01499053
v 0.04419928 0.00579795 0.01511715
v 0.04419928 0.00642102 0.01500000
v 0.04529576 0.00642102 0.01511715
v 0.04435073 0.00596742 0.01511715
v 0.04458481 0.00620778 0.01511715
v 0.04461701 0.00624083 0.01511715
v 0.04480849 0.00642102 0.01511715
f 1 2 5
f 1 5 3
f 1 3 7
f 1 7 8
f 1 8 4
f 1 4 6
f 1 6 2
f 2 6 9
f 2 9 5
f 3 5 9
f 3 9 13
f 3 13 12
f 3 12 11
f 3 11 10
f 3 10 7
f 4 8 13
f 4 13 9
f 4 9 6
f 7 10 8
f 8 11 12
f 8 12 13
f 8 10 11

