# https://github.com/mikedh/trimesh
v 0.04791441 -0.00747068 0.01511715
v 0.04791441 -0.00827745 0.01511715
v 0.04791441 -0.00747068 0.01499902
v 0.04619838 -0.00747068 0.01511715
v 0.04757887 -0.00828102 0.01500000
v 0.04791441 -0.00827745 0.01499053
v 0.04790074 -0.00827293 0.01511715
v 0.04558586 -0.00828102 0.01500000
v 0.04791441 -0.00754096 0.01499053
v 0.04791305 -0.00747068 0.01499053
v 0.04591982 -0.00747068 0.01500000
v 0.04567271 -0.00803560 0.01500000
v 0.04564741 -0.00809699 0.01500000
v 0.04562165 -0.00816695 0.01500000
v 0.04559384 -0.00825214 0.01500000
v 0.04630916 -0.00753929 0.01511715
v 0.04757887 -0.00828102 0.01499053
v 0.04787612 -0.00826460 0.01511715
v 0.04770880 -0.00820423 0.01511715
v 0.04768555 -0.00819583 0.01511715
v 0.04737394 -0.00807153 0.01511715
v 0.04733108 -0.00805440 0.01511715
v 0.04702517 -0.00791662 0.01511715
v 0.04698299 -0.00789758 0.01511715
v 0.04698026 -0.00789623 0.01511715
v 0.04664220 -0.00772585 0.01511715
v 0.04634951 -0.00756190 0.01511715
v 0.04558586 -0.00828102 0.01499053
v 0.04591982 -0.00747068 0.01499053
v 0.04567271 -0.00803568 0.01499053
v 0.04564718 -0.00809707 0.01499053
v 0.04562165 -0.00816703 0.01499053
v 0.04559384 -0.00825230 0.01499053
f 1 2 6
f 1 6 9
f 1 9 3
f 1 3 10
f 1 10 29
f 1 29 11
f 1 11 4
f 1 4 16
f 1 16 27
f 1 27 26
f 1 26 25
f 1 25 24
f 1 24 23
f 1 23 22
f 1 22 21
f 1 21 20
f 1 20 19
f 1 19 18
f 1 18 7
f 1 7 2
f 2 5 17
f 2 17 6
f 2 7 8
f 2 8 5
f 3 9 10
f 4 11 12
f 4 12 13
f 4 13 14
f 4 14 15
f 4 15 8
f 4 8 16
f 5 8 28
f 5 28 17
f 6 17 28
f 6 28 33
f 6 33 32
f 6 32 31
f 6 31 30
f 6 30 29
f 6 29 10
f 6 10 9
f 7 18 8
f 8 18 19
f 8 19 20
f 8 20 21
f 8 21 22
f 8 22 23
f 8 23 24
f 8 24 25
f 8 25 26
f 8 26 27
f 8 27 16
f 8 15 28
f 11 29 12
f 12 30 31
f 12 31 13
f 12 29 30
f 13 31 14
f 14 32 15
f 14 31 32
f 15 33 28
f 15 32 33

