# https://github.com/mikedh/trimesh
v 0.05983957 0.00232606 0.01499053
v 0.05983957 0.00129413 0.01499053
v 0.05983957 0.00232606 0.00666639
v 0.05916680 0.00244077 0.01499053
v 0.05557994 0.00129413 0.01499053
v 0.05983957 0.00129413 0.00500000
v 0.05983957 0.00232595 0.00500000
v 0.05916680 0.00244077 0.00500000
v 0.05511261 0.00244077 0.01499053
v 0.05557994 0.00129413 0.00500000
v 0.05511261 0.00244077 0.00500000
f 1 2 6
f 1 6 7
f 1 7 3
f 1 3 8
f 1 8 4
f 1 4 9
f 1 9 5
f 1 5 2
f 2 5 10
f 2 10 6
f 3 7 8
f 4 8 11
f 4 11 9
f 5 9 11
f 5 11 10
f 6 10 11
f 6 11 8
f 6 8 7

