# https://github.com/mikedh/trimesh
v 0.00123921 -0.00248172 0.00500000
v 0.00123921 -0.00248172 0.01499951
v 0.00123921 -0.00133815 0.00500000
v 0.00172281 -0.00287438 0.00500000
v 0.00123921 -0.00133815 0.01499951
v 0.00172281 -0.00287438 0.01499951
v 0.00554633 -0.00287438 0.01501127
v 0.00544844 -0.00242547 0.01501127
v 0.00533009 -0.00133815 0.01501127
v 0.01543019 -0.00133815 0.00500000
v 0.01616217 -0.00287438 0.00500000
v 0.01616217 -0.00287438 0.01501127
v 0.01543165 -0.00133815 0.01501127
v 0.01543165 -0.00133815 0.01500343
f 1 2 5
f 1 5 3
f 1 3 10
f 1 10 11
f 1 11 4
f 1 4 6
f 1 6 2
f 2 6 7
f 2 7 8
f 2 8 9
f 2 9 5
f 3 5 9
f 3 9 13
f 3 13 14
f 3 14 10
f 4 11 12
f 4 12 7
f 4 7 6
f 7 12 13
f 7 13 9
f 7 9 8
f 10 14 11
f 11 14 13
f 11 13 12

