# https://github.com/mikedh/trimesh
v 0.02439350 0.00279738 0.00500000
v 0.02489667 0.00185102 0.00500000
v 0.02489521 0.00185102 0.01500441
v 0.02439350 0.00279738 0.01501127
v 0.03878909 0.00279738 0.00500000
v 0.03925009 0.00185102 0.00500000
v 0.02489521 0.00185102 0.01501127
v 0.03497024 0.00279738 0.01501127
v 0.03878909 0.00279738 0.01499951
v 0.03925009 0.00248276 0.00500000
v 0.03925009 0.00185102 0.01499951
v 0.03511421 0.00185102 0.01501127
v 0.03505168 0.00242550 0.01501127
v 0.03925009 0.00248276 0.01499951
f 1 2 3
f 1 3 7
f 1 7 4
f 1 4 8
f 1 8 9
f 1 9 5
f 1 5 10
f 1 10 6
f 1 6 2
f 2 6 11
f 2 11 12
f 2 12 7
f 2 7 3
f 4 7 12
f 4 12 13
f 4 13 8
f 5 9 14
f 5 14 10
f 6 10 14
f 6 14 11
f 8 13 14
f 8 14 9
f 11 14 12
f 12 14 13

