# https://github.com/mikedh/trimesh
v 0.02026595 0.00618771 0.00500000
v 0.02026595 0.00618771 0.01501127
v 0.02026595 0.00839263 0.00500000
v 0.03805243 0.00618771 0.00500000
v 0.02026595 0.00839263 0.01501127
v 0.03388919 0.00618771 0.01501127
v 0.03701640 0.00839263 0.00500000
v 0.03853412 0.00655534 0.00500000
v 0.03805243 0.00618771 0.01499951
v 0.03263142 0.00839263 0.01501127
v 0.03853412 0.00655534 0.01499951
v 0.03900435 0.00691563 0.01499951
v 0.03912095 0.00701601 0.01499951
v 0.03855515 0.00838356 0.01499951
v 0.03350306 0.00702508 0.01501127
v 0.03701640 0.00839263 0.01499951
v 0.03950134 0.00838615 0.00550076
v 0.03855515 0.00838356 0.00500000
v 0.03900435 0.00691563 0.00500000
v 0.03912095 0.00701601 0.00500000
v 0.03979380 0.00768370 0.01449973
v 0.03950134 0.00838615 0.01449973
v 0.03979380 0.00768370 0.00550076
f 1 2 5
f 1 5 3
f 1 3 7
f 1 7 18
f 1 18 20
f 1 20 19
f 1 19 8
f 1 8 4
f 1 4 9
f 1 9 6
f 1 6 2
f 2 6 15
f 2 15 10
f 2 10 5
f 3 5 10
f 3 10 16
f 3 16 7
f 4 8 11
f 4 11 9
f 6 9 11
f 6 11 12
f 6 12 13
f 6 13 14
f 6 14 15
f 7 16 22
f 7 22 17
f 7 17 18
f 8 19 12
f 8 12 11
f 10 15 14
f 10 14 16
f 12 19 20
f 12 20 13
f 13 20 23
f 13 23 21
f 13 21 14
f 14 21 22
f 14 22 16
f 17 22 21
f 17 21 23
f 17 23 18
f 18 23 20

