# https://github.com/mikedh/trimesh
v 0.03979353 -0.00768355 0.01449980
v 0.03957003 -0.00746133 0.01466621
v 0.03912194 -0.00701602 0.01500000
v 0.03950263 -0.00838633 0.01449980
v 0.03979353 -0.00768355 0.00550020
v 0.03957003 -0.00746133 0.00533379
v 0.03900579 -0.00691565 0.01500000
v 0.03855531 -0.00838354 0.01500000
v 0.03912194 -0.00701602 0.00500000
v 0.03950263 -0.00838633 0.00550020
v 0.03853480 -0.00655545 0.01500000
v 0.03900579 -0.00691565 0.00500000
v 0.03707227 -0.00831003 0.01500000
v 0.03855531 -0.00838354 0.00500000
v 0.03805421 -0.00619095 0.01500000
v 0.03853480 -0.00655545 0.00500000
v 0.03707227 -0.00619095 0.01500000
v 0.03707227 -0.00831003 0.00500000
v 0.03805421 -0.00619095 0.00500000
v 0.03707227 -0.00619095 0.00500000
f 1 2 3
f 1 3 4
f 1 4 10
f 1 10 5
f 1 5 6
f 1 6 2
f 2 6 9
f 2 9 3
f 3 7 11
f 3 11 15
f 3 15 17
f 3 17 13
f 3 13 8
f 3 8 4
f 3 9 12
f 3 12 7
f 4 8 14
f 4 14 10
f 5 10 9
f 5 9 6
f 7 12 16
f 7 16 11
f 8 13 18
f 8 18 14
f 9 14 18
f 9 18 20
f 9 20 19
f 9 19 16
f 9 16 12
f 9 10 14
f 11 16 19
f 11 19 15
f 13 17 20
f 13 20 18
f 15 19 20
f 15 20 17

