# https://github.com/mikedh/trimesh
v 0.03835120 0.01064629 0.01449980
v 0.03795376 0.01129467 0.01449980
v 0.03701894 0.01114391 0.01500000
v 0.03779199 0.00988182 0.01500000
v 0.03835120 0.01064629 0.00550020
v 0.03795376 0.01129467 0.00550020
v 0.03701894 0.01114391 0.00500000
v 0.03686936 0.01110878 0.01500000
v 0.03769294 0.00976457 0.01500000
v 0.03779199 0.00988182 0.00500000
v 0.03686936 0.01110878 0.00500000
v 0.03630101 0.01093965 0.01500000
v 0.03728407 0.00933511 0.01500000
v 0.03769294 0.00976457 0.00500000
v 0.03630101 0.01093965 0.00500000
v 0.03575678 0.01076005 0.01500000
v 0.03687292 0.00891821 0.01500000
v 0.03728407 0.00933511 0.00500000
v 0.03575678 0.01076005 0.00500000
v 0.03575678 0.00891821 0.01500000
v 0.03687292 0.00891821 0.00500000
v 0.03575678 0.00891821 0.00500000
f 1 2 3
f 1 3 4
f 1 4 10
f 1 10 5
f 1 5 6
f 1 6 2
f 2 6 7
f 2 7 3
f 3 7 11
f 3 11 8
f 3 8 12
f 3 12 16
f 3 16 20
f 3 20 17
f 3 17 13
f 3 13 9
f 3 9 4
f 4 9 14
f 4 14 10
f 5 10 7
f 5 7 6
f 7 10 14
f 7 14 18
f 7 18 21
f 7 21 22
f 7 22 19
f 7 19 15
f 7 15 11
f 8 11 15
f 8 15 12
f 9 13 18
f 9 18 14
f 12 15 19
f 12 19 16
f 13 17 21
f 13 21 18
f 16 19 22
f 16 22 20
f 17 20 22
f 17 22 21

