# https://github.com/mikedh/trimesh
v 0.01702656 0.01464806 0.01501127
v 0.01546190 0.01421446 0.01501127
v 0.01714079 0.01417807 0.01501127
v 0.01714079 0.01466704 0.01501029
v 0.01714028 0.01803924 0.01499951
v 0.01479190 0.01803924 0.01499951
v 0.01457050 0.01385999 0.01501127
v 0.01714079 0.00391114 0.01501127
v 0.01714079 0.01756134 0.01499951
v 0.01714079 0.01803924 0.01491915
v 0.01479190 0.01803924 0.00500000
v 0.01457050 0.01786834 0.01499951
v 0.01457050 0.00187294 0.01501127
v 0.01561562 0.00187294 0.01501127
v 0.01714079 0.00391114 0.00500000
v 0.01714079 0.01803924 0.00500000
v 0.01457050 0.01786834 0.00500000
v 0.01457050 0.00187294 0.00500000
v 0.01561562 0.00187294 0.00500000
f 1 2 7
f 1 7 13
f 1 13 14
f 1 14 8
f 1 8 3
f 1 3 4
f 1 4 5
f 1 5 6
f 1 6 2
f 2 6 7
f 3 8 15
f 3 15 16
f 3 16 10
f 3 10 9
f 3 9 4
f 4 9 5
f 5 10 16
f 5 16 11
f 5 11 6
f 5 9 10
f 6 11 17
f 6 17 12
f 6 12 7
f 7 12 17
f 7 17 18
f 7 18 13
f 8 14 19
f 8 19 15
f 11 16 15
f 11 15 19
f 11 19 18
f 11 18 17
f 13 18 19
f 13 19 14

