# https://github.com/mikedh/trimesh
v 0.00224868 0.00548328 0.01500000
v 0.00101120 0.00542949 0.01500000
v 0.00224868 0.00300777 0.01500000
v 0.00224868 0.00548328 0.00500000
v 0.00085851 0.00541664 0.01500000
v 0.00101120 0.00542949 0.00500000
v 0.00174305 0.00300777 0.01500000
v 0.00224868 0.00300777 0.00518990
v 0.00224868 0.00300947 0.00500000
v -0.00007750 0.00527125 0.01449980
v -0.00025519 0.00453170 0.01449980
v 0.00051293 0.00397728 0.01500000
v 0.00085851 0.00541664 0.00500000
v 0.00174305 0.00300777 0.00500000
v 0.00213937 0.00300777 0.00500000
v -0.00007750 0.00527125 0.00550020
v -0.00025519 0.00453170 0.00550020
v 0.00051293 0.00397728 0.00500000
f 1 2 5
f 1 5 12
f 1 12 7
f 1 7 3
f 1 3 8
f 1 8 9
f 1 9 4
f 1 4 6
f 1 6 2
f 2 6 13
f 2 13 5
f 3 7 14
f 3 14 15
f 3 15 8
f 4 9 15
f 4 15 14
f 4 14 18
f 4 18 13
f 4 13 6
f 5 10 11
f 5 11 12
f 5 13 16
f 5 16 10
f 7 12 11
f 7 11 17
f 7 17 14
f 8 15 9
f 10 16 17
f 10 17 11
f 13 18 17
f 13 17 16
f 14 17 18

