# https://github.com/mikedh/trimesh
v 0.02282643 -0.01148179 0.00500000
v 0.02282643 -0.01148179 0.01501127
v 0.02282643 -0.00565202 0.00500000
v 0.03529408 -0.01148179 0.00500000
v 0.02282643 -0.00565202 0.01501127
v 0.02986761 -0.01148179 0.01501127
v 0.03570123 -0.00565202 0.00500000
v 0.03570123 -0.01076962 0.00500000
v 0.03529408 -0.01148179 0.01499951
v 0.03109912 -0.00565202 0.01501127
v 0.03056341 -0.01089060 0.01501127
v 0.03570123 -0.00565202 0.01499951
v 0.03570123 -0.01076962 0.01499951
v 0.03350164 -0.00702729 0.01501127
v 0.03266341 -0.00841911 0.01501127
v 0.03168148 -0.00971163 0.01501127
v 0.03413820 -0.00565202 0.01501029
f 1 2 5
f 1 5 3
f 1 3 7
f 1 7 8
f 1 8 4
f 1 4 9
f 1 9 6
f 1 6 2
f 2 6 11
f 2 11 16
f 2 16 15
f 2 15 14
f 2 14 10
f 2 10 5
f 3 5 10
f 3 10 17
f 3 17 12
f 3 12 7
f 4 8 13
f 4 13 9
f 6 9 11
f 7 12 13
f 7 13 8
f 9 13 14
f 9 14 15
f 9 15 16
f 9 16 11
f 10 14 17
f 12 17 13
f 13 17 14

