# https://github.com/mikedh/trimesh
v 0.00947283 -0.01565675 0.00500000
v 0.01160309 -0.01565675 0.00500000
v 0.00947154 -0.01565675 0.00541550
v 0.00895421 -0.01502040 0.00500000
v 0.01160309 -0.01130246 0.00500000
v 0.01160309 -0.01565675 0.01499951
v 0.00947154 -0.01565675 0.01499951
v 0.00895421 -0.01130246 0.00500000
v 0.00895421 -0.01502040 0.01499951
v 0.01160309 -0.01130246 0.01501127
v 0.01160309 -0.01223376 0.01501127
v 0.01117133 -0.01194094 0.01501127
v 0.01042010 -0.01130246 0.01501127
v 0.00895421 -0.01130246 0.01499951
f 1 2 6
f 1 6 7
f 1 7 3
f 1 3 4
f 1 4 8
f 1 8 5
f 1 5 2
f 2 5 10
f 2 10 11
f 2 11 6
f 3 7 9
f 3 9 4
f 4 9 14
f 4 14 8
f 5 8 14
f 5 14 13
f 5 13 10
f 6 11 7
f 7 11 12
f 7 12 13
f 7 13 9
f 9 13 14
f 10 13 12
f 10 12 11

