# https://github.com/mikedh/trimesh
v 0.00328600 0.00821282 0.01500000
v 0.00268524 0.00829393 0.01500000
v 0.00328600 0.00593459 0.01500000
v 0.00328600 0.00821282 0.00500000
v 0.00209736 0.00837217 0.01500000
v 0.00268524 0.00829393 0.00500000
v 0.00246353 0.00593459 0.01500000
v 0.00328600 0.00593459 0.00505090
v 0.00328600 0.00593651 0.00500000
v 0.00194459 0.00838345 0.01500000
v 0.00209736 0.00837217 0.00500000
v 0.00137817 0.00701598 0.01500000
v 0.00092994 0.00746117 0.01466621
v 0.00246353 0.00593459 0.00500000
v 0.00321429 0.00593459 0.00500000
v 0.00194459 0.00838345 0.00500000
v 0.00131277 0.00838537 0.01466621
v 0.00099736 0.00838609 0.01449980
v 0.00070645 0.00768364 0.01449980
v 0.00092994 0.00746117 0.00533379
v 0.00137817 0.00701598 0.00500000
v 0.00099736 0.00838609 0.00550020
v 0.00131277 0.00838537 0.00533379
v 0.00070645 0.00768364 0.00550020
f 1 2 5
f 1 5 10
f 1 10 12
f 1 12 7
f 1 7 3
f 1 3 8
f 1 8 9
f 1 9 4
f 1 4 6
f 1 6 2
f 2 6 11
f 2 11 5
f 3 7 14
f 3 14 15
f 3 15 8
f 4 9 15
f 4 15 14
f 4 14 21
f 4 21 16
f 4 16 11
f 4 11 6
f 5 11 16
f 5 16 10
f 7 12 13
f 7 13 20
f 7 20 14
f 8 15 9
f 10 16 23
f 10 23 17
f 10 17 18
f 10 18 12
f 12 18 19
f 12 19 13
f 13 19 24
f 13 24 20
f 14 20 21
f 16 21 22
f 16 22 23
f 17 23 22
f 17 22 18
f 18 22 24
f 18 24 19
f 20 24 21
f 21 24 22

