# https://github.com/mikedh/trimesh
v 0.00157719 0.00256784 0.01500000
v 0.00098207 0.00246035 0.01500000
v 0.00157719 0.00038482 0.01500000
v 0.00157719 0.00256784 0.00500000
v 0.00039881 0.00235307 0.01500000
v 0.00098207 0.00246035 0.00500000
v 0.00140533 0.00038482 0.01500000
v 0.00157719 0.00038482 0.00500000
v 0.00024981 0.00231652 0.01500000
v 0.00039881 0.00235307 0.00500000
v 0.00083440 0.00058421 0.01500000
v 0.00140533 0.00038482 0.00500000
v 0.00013374 0.00084087 0.01500000
v 0.00024981 0.00231652 0.00500000
v -0.00065184 0.00202631 0.01449980
v -0.00071167 0.00126850 0.01449980
v 0.00027513 0.00078124 0.01500000
v 0.00083440 0.00058421 0.00500000
v -0.00043001 0.00112596 0.01466621
v 0.00013374 0.00084087 0.00500000
v -0.00071167 0.00126850 0.00550020
v -0.00065184 0.00202631 0.00550020
v 0.00027513 0.00078124 0.00500000
v -0.00043001 0.00112596 0.00533379
f 1 2 5
f 1 5 9
f 1 9 13
f 1 13 17
f 1 17 11
f 1 11 7
f 1 7 3
f 1 3 8
f 1 8 4
f 1 4 6
f 1 6 2
f 2 6 10
f 2 10 5
f 3 7 12
f 3 12 8
f 4 8 12
f 4 12 18
f 4 18 23
f 4 23 20
f 4 20 14
f 4 14 10
f 4 10 6
f 5 10 14
f 5 14 9
f 7 11 18
f 7 18 12
f 9 14 22
f 9 22 15
f 9 15 16
f 9 16 13
f 11 17 23
f 11 23 18
f 13 16 19
f 13 19 24
f 13 24 20
f 13 20 23
f 13 23 17
f 14 20 21
f 14 21 22
f 15 22 21
f 15 21 16
f 16 21 24
f 16 24 19
f 20 24 21

