# https://github.com/mikedh/trimesh
v 0.03646290 -0.01334695 0.01449980
v 0.03631877 -0.01306621 0.01466621
v 0.03603030 -0.01250437 0.01500000
v 0.03506908 -0.01362994 0.01500000
v 0.03596897 -0.01392530 0.01449980
v 0.03646290 -0.01334695 0.00550020
v 0.03631877 -0.01306621 0.00533379
v 0.03595062 -0.01237309 0.01500000
v 0.03603030 -0.01250437 0.00500000
v 0.03492697 -0.01357199 0.01500000
v 0.03506908 -0.01362994 0.00500000
v 0.03596897 -0.01392530 0.00550020
v 0.03570019 -0.01200947 0.01500000
v 0.03595062 -0.01237309 0.00500000
v 0.03439208 -0.01331582 0.01500000
v 0.03492697 -0.01357199 0.00500000
v 0.03417657 -0.01200947 0.01500000
v 0.03570019 -0.01200947 0.00500000
v 0.03417657 -0.01318530 0.01500000
v 0.03439208 -0.01331582 0.00500000
v 0.03417657 -0.01200947 0.00500000
v 0.03417657 -0.01318530 0.00500000
f 1 2 3
f 1 3 4
f 1 4 5
f 1 5 12
f 1 12 6
f 1 6 7
f 1 7 2
f 2 7 9
f 2 9 3
f 3 8 13
f 3 13 17
f 3 17 19
f 3 19 15
f 3 15 10
f 3 10 4
f 3 9 14
f 3 14 8
f 4 10 16
f 4 16 11
f 4 11 12
f 4 12 5
f 6 12 11
f 6 11 9
f 6 9 7
f 8 14 18
f 8 18 13
f 9 11 16
f 9 16 20
f 9 20 22
f 9 22 21
f 9 21 18
f 9 18 14
f 10 15 20
f 10 20 16
f 13 18 21
f 13 21 17
f 15 19 22
f 15 22 20
f 17 21 22
f 17 22 19

