# https://github.com/mikedh/trimesh
v 0.03513583 -0.00165957 0.03000000
v 0.03505237 -0.00242678 0.03000000
v 0.03513583 -0.00165957 0.02287243
v 0.02495954 -0.00165957 0.03000000
v 0.03487351 -0.00323533 0.03000000
v 0.03487351 -0.00323533 0.01501127
v 0.03505128 -0.00242801 0.01501127
v 0.03513475 -0.00165957 0.01501127
v 0.02406310 -0.00323533 0.03000000
v 0.02495954 -0.00165957 0.01501127
v 0.02406310 -0.00323533 0.01501127
f 1 2 3
f 1 3 8
f 1 8 10
f 1 10 4
f 1 4 9
f 1 9 5
f 1 5 2
f 2 5 6
f 2 6 7
f 2 7 3
f 3 7 8
f 4 10 11
f 4 11 9
f 5 9 11
f 5 11 6
f 6 11 10
f 6 10 8
f 6 8 7

