# https://github.com/mikedh/trimesh
v 0.01772909 -0.00431445 0.01501127
v 0.02013582 -0.00499396 0.01501127
v 0.01772909 -0.00431445 0.00500000
v 0.01772909 -0.01476298 0.01501127
v 0.02013582 -0.00499396 0.00500000
v 0.02013582 -0.00975870 0.01501127
v 0.01772909 -0.01875206 0.00500000
v 0.01862723 -0.01491126 0.01501127
v 0.01772909 -0.01875206 0.01499951
v 0.01778965 -0.01926699 0.01499951
v 0.01789708 -0.01985036 0.01499951
v 0.01793360 -0.02000028 0.01499951
v 0.02013582 -0.01874880 0.00500000
v 0.02013582 -0.01499274 0.01501029
v 0.01778965 -0.01926699 0.00500000
v 0.01940921 -0.02011597 0.01499951
v 0.01789708 -0.01985036 0.00500000
v 0.01793360 -0.02000028 0.00500000
v 0.01812703 -0.02060157 0.01466632
v 0.01898158 -0.02096170 0.01449973
v 0.01912389 -0.02067979 0.01466632
v 0.02013582 -0.01874880 0.01499951
v 0.01898158 -0.02096170 0.00550076
v 0.01940921 -0.02011597 0.00500000
v 0.01822363 -0.02090141 0.00550076
v 0.01812703 -0.02060157 0.00533417
v 0.01822363 -0.02090141 0.01449973
f 1 2 5
f 1 5 3
f 1 3 7
f 1 7 9
f 1 9 4
f 1 4 8
f 1 8 6
f 1 6 2
f 2 6 14
f 2 14 22
f 2 22 13
f 2 13 5
f 3 5 13
f 3 13 24
f 3 24 18
f 3 18 17
f 3 17 15
f 3 15 7
f 4 9 10
f 4 10 11
f 4 11 12
f 4 12 8
f 6 8 14
f 7 15 10
f 7 10 9
f 8 12 16
f 8 16 14
f 10 15 17
f 10 17 11
f 11 17 18
f 11 18 12
f 12 18 26
f 12 26 19
f 12 19 20
f 12 20 21
f 12 21 16
f 13 22 20
f 13 20 23
f 13 23 24
f 14 16 22
f 16 21 20
f 16 20 22
f 18 24 23
f 18 23 25
f 18 25 26
f 19 26 25
f 19 25 27
f 19 27 20
f 20 27 25
f 20 25 23

