# https://github.com/mikedh/trimesh
v 0.03646290 0.01334680 0.01449980
v 0.03596876 0.01392504 0.01449980
v 0.03506913 0.01363000 0.01500000
v 0.03603022 0.01250440 0.01500000
v 0.03631876 0.01306617 0.01466621
v 0.03646290 0.01334680 0.00550020
v 0.03566906 0.01382695 0.01466621
v 0.03596876 0.01392504 0.00550020
v 0.03506913 0.01363000 0.00500000
v 0.03368460 0.01309938 0.01500000
v 0.03595053 0.01237310 0.01500000
v 0.03603022 0.01250440 0.00500000
v 0.03631876 0.01306617 0.00533379
v 0.03566906 0.01382695 0.00533379
v 0.03368460 0.01309938 0.00500000
v 0.03368460 0.01129513 0.01500000
v 0.03527065 0.01129513 0.01500000
v 0.03595053 0.01237310 0.00500000
v 0.03368460 0.01129513 0.00500000
v 0.03527065 0.01129513 0.00500000
f 1 2 3
f 1 3 4
f 1 4 5
f 1 5 13
f 1 13 6
f 1 6 8
f 1 8 2
f 2 7 3
f 2 8 14
f 2 14 7
f 3 7 14
f 3 14 9
f 3 9 15
f 3 15 10
f 3 10 16
f 3 16 17
f 3 17 11
f 3 11 4
f 4 11 18
f 4 18 12
f 4 12 13
f 4 13 5
f 6 13 12
f 6 12 9
f 6 9 8
f 8 9 14
f 9 12 18
f 9 18 20
f 9 20 19
f 9 19 15
f 10 15 19
f 10 19 16
f 11 17 20
f 11 20 18
f 16 19 20
f 16 20 17

