# https://github.com/mikedh/trimesh
v 0.01153469 0.00300777 0.01501127
v 0.00557651 0.00300777 0.01501127
v 0.01153469 0.00038482 0.01501127
v 0.01153469 0.00300777 0.00500000
v 0.00174408 0.00300777 0.01499951
v 0.00157839 0.00256796 0.01499951
v 0.00544882 0.00242777 0.01501127
v 0.00527241 0.00038482 0.01501127
v 0.01153469 0.00038482 0.00500000
v 0.00174408 0.00300777 0.00500000
v 0.00157839 0.00038482 0.01499951
v 0.00527241 0.00081333 0.01501127
v 0.00157839 0.00256796 0.00500000
v 0.00157839 0.00038482 0.00500000
f 1 2 7
f 1 7 12
f 1 12 8
f 1 8 3
f 1 3 9
f 1 9 4
f 1 4 10
f 1 10 5
f 1 5 2
f 2 5 6
f 2 6 7
f 3 8 11
f 3 11 14
f 3 14 9
f 4 9 14
f 4 14 13
f 4 13 10
f 5 10 13
f 5 13 6
f 6 11 8
f 6 8 12
f 6 12 7
f 6 13 14
f 6 14 11

