# https://github.com/mikedh/trimesh
v 0.01986702 0.01497860 0.01501127
v 0.01986702 0.01884272 0.01499951
v 0.01946866 0.01997404 0.01499951
v 0.01940914 0.02011607 0.01499951
v 0.01862960 0.01491167 0.01501127
v 0.01986702 0.00497956 0.01501127
v 0.01986702 0.01884272 0.00500000
v 0.01946866 0.01997404 0.00500000
v 0.01793365 0.02000016 0.01499951
v 0.01940914 0.02011607 0.00500000
v 0.01898155 0.02096170 0.01449973
v 0.01767194 0.01475495 0.01501029
v 0.01767194 0.01199276 0.01501127
v 0.01767194 0.00428411 0.01501127
v 0.01986702 0.00497956 0.00500000
v 0.01822372 0.02090130 0.01449973
v 0.01793365 0.02000016 0.00500000
v 0.01789690 0.01984997 0.01499951
v 0.01898155 0.02096170 0.00550076
v 0.01767194 0.01865988 0.01499951
v 0.01767194 0.00428411 0.01500539
v 0.01767237 0.00428575 0.00500000
v 0.01822372 0.02090130 0.00550076
v 0.01789690 0.01984997 0.00500000
v 0.01767194 0.01865988 0.00500000
v 0.01767194 0.00428575 0.00500000
f 1 2 3
f 1 3 4
f 1 4 5
f 1 5 13
f 1 13 14
f 1 14 6
f 1 6 15
f 1 15 7
f 1 7 2
f 2 7 8
f 2 8 3
f 3 8 10
f 3 10 4
f 4 9 5
f 4 10 19
f 4 19 11
f 4 11 9
f 5 12 13
f 5 9 12
f 6 14 21
f 6 21 15
f 7 15 22
f 7 22 26
f 7 26 25
f 7 25 24
f 7 24 17
f 7 17 10
f 7 10 8
f 9 11 16
f 9 16 23
f 9 23 17
f 9 17 24
f 9 24 18
f 9 18 12
f 10 17 19
f 11 19 23
f 11 23 16
f 12 18 20
f 12 20 25
f 12 25 26
f 12 26 21
f 12 21 14
f 12 14 13
f 15 21 22
f 17 23 19
f 18 24 25
f 18 25 20
f 21 26 22

