# https://github.com/mikedh/trimesh
v 0.01205445 -0.01714632 0.00500000
v 0.01432492 -0.01714632 0.00500000
v 0.01205392 -0.01714632 0.01454383
v 0.01160335 -0.01663773 0.00500000
v 0.01432545 -0.01714517 0.00500000
v 0.01432545 -0.01714632 0.00502058
v 0.01205392 -0.01714632 0.01499951
v 0.01160335 -0.01663773 0.01499951
v 0.01160335 -0.01130246 0.00500000
v 0.01432545 -0.01130246 0.00500000
v 0.01432545 -0.01714632 0.01499951
v 0.01432545 -0.01376243 0.01501127
v 0.01395055 -0.01361312 0.01501127
v 0.01251596 -0.01285224 0.01501127
v 0.01160335 -0.01223382 0.01501127
v 0.01160335 -0.01130246 0.01501127
v 0.01432545 -0.01130246 0.01501127
f 1 2 6
f 1 6 11
f 1 11 7
f 1 7 3
f 1 3 4
f 1 4 9
f 1 9 10
f 1 10 5
f 1 5 2
f 2 5 6
f 3 7 8
f 3 8 4
f 4 8 15
f 4 15 16
f 4 16 9
f 5 10 17
f 5 17 12
f 5 12 11
f 5 11 6
f 7 11 12
f 7 12 13
f 7 13 14
f 7 14 15
f 7 15 8
f 9 16 17
f 9 17 10
f 12 17 16
f 12 16 15
f 12 15 14
f 12 14 13

