# https://github.com/mikedh/trimesh
v 0.03326716 -0.01346758 0.00500000
v 0.03326716 -0.01200947 0.00500000
v 0.03333304 -0.01346758 0.00500000
v 0.03326716 -0.01346758 0.01500000
v 0.03417657 -0.01200947 0.00500000
v 0.03326716 -0.01200947 0.01500000
v 0.03417657 -0.01318526 0.00500000
v 0.03333304 -0.01346758 0.01500000
v 0.03417657 -0.01200947 0.01500000
v 0.03417657 -0.01318526 0.01500000
f 1 2 5
f 1 5 7
f 1 7 3
f 1 3 8
f 1 8 4
f 1 4 6
f 1 6 2
f 2 6 9
f 2 9 5
f 3 7 10
f 3 10 8
f 4 8 10
f 4 10 9
f 4 9 6
f 5 9 10
f 5 10 7

