# https://github.com/mikedh/trimesh
v 0.03575678 0.01075990 0.01499951
v 0.03168325 0.00970989 0.01501127
v 0.03266613 0.00841699 0.01501127
v 0.03575678 0.00839313 0.01499951
v 0.03575678 0.01075990 0.00500000
v 0.03527027 0.01129513 0.01499951
v 0.03155236 0.00984825 0.01501127
v 0.03263238 0.00839313 0.01501127
v 0.03575678 0.00839313 0.00500000
v 0.03527027 0.01129513 0.00500000
v 0.03155236 0.01129513 0.01499951
v 0.03155236 0.00839313 0.01501127
v 0.03155236 0.00839313 0.00500000
v 0.03155236 0.01129513 0.00500000
f 1 2 3
f 1 3 4
f 1 4 9
f 1 9 5
f 1 5 10
f 1 10 6
f 1 6 2
f 2 6 7
f 2 7 12
f 2 12 8
f 2 8 3
f 3 8 4
f 4 8 12
f 4 12 13
f 4 13 9
f 5 9 13
f 5 13 14
f 5 14 10
f 6 11 7
f 6 10 14
f 6 14 11
f 7 11 14
f 7 14 13
f 7 13 12

