# https://github.com/mikedh/trimesh
v 0.02368454 0.00363334 0.01501127
v 0.02184461 0.00473972 0.01501127
v 0.02368454 0.01459005 0.01501127
v 0.02368454 0.00363334 0.03000000
v 0.02184461 0.00473972 0.03000000
v 0.02184461 0.01491247 0.01501127
v 0.02347562 0.01464857 0.01501127
v 0.02368454 0.01459005 0.03000000
v 0.02184461 0.01491357 0.03000000
v 0.02184461 0.01491357 0.02964494
v 0.02187306 0.01491136 0.01501127
v 0.02347454 0.01464857 0.03000000
v 0.02187180 0.01491136 0.03000000
f 1 2 6
f 1 6 11
f 1 11 7
f 1 7 3
f 1 3 8
f 1 8 4
f 1 4 5
f 1 5 2
f 2 5 9
f 2 9 10
f 2 10 6
f 3 7 8
f 4 8 12
f 4 12 13
f 4 13 9
f 4 9 5
f 6 10 11
f 7 11 12
f 7 12 8
f 9 13 11
f 9 11 10
f 11 13 12

