# https://github.com/mikedh/trimesh
v 0.02437328 -0.00282583 0.00500000
v 0.02437328 -0.00282583 0.01501127
v 0.02508714 -0.00125022 0.00500000
v 0.03878456 -0.00282583 0.00500000
v 0.02508714 -0.00125022 0.01501127
v 0.03496321 -0.00282583 0.01501127
v 0.03925658 -0.00125022 0.00500000
v 0.03925658 -0.00248217 0.00500000
v 0.03878456 -0.00282583 0.01499951
v 0.03518028 -0.00125022 0.01501127
v 0.03925658 -0.00248217 0.01499951
v 0.03505208 -0.00242788 0.01501127
v 0.03925658 -0.00125022 0.01499951
f 1 2 5
f 1 5 3
f 1 3 7
f 1 7 8
f 1 8 4
f 1 4 9
f 1 9 6
f 1 6 2
f 2 6 12
f 2 12 10
f 2 10 5
f 3 5 10
f 3 10 13
f 3 13 7
f 4 8 11
f 4 11 9
f 6 9 11
f 6 11 12
f 7 13 11
f 7 11 8
f 10 12 11
f 10 11 13

