# https://github.com/mikedh/trimesh
v 0.03835120 -0.01064635 0.01449980
v 0.03779195 -0.00988193 0.01500000
v 0.03701881 -0.01114378 0.01500000
v 0.03795374 -0.01129490 0.01449980
v 0.03835120 -0.01064635 0.00550020
v 0.03688787 -0.00864678 0.01500000
v 0.03779195 -0.00988193 0.00500000
v 0.03686921 -0.01110878 0.01500000
v 0.03701881 -0.01114378 0.00500000
v 0.03795374 -0.01129490 0.00550020
v 0.03570249 -0.00864678 0.01500000
v 0.03688787 -0.00864678 0.00500000
v 0.03570249 -0.01076973 0.01500000
v 0.03686921 -0.01110878 0.00500000
v 0.03570249 -0.00864678 0.00500000
v 0.03570249 -0.01076973 0.00500000
f 1 2 3
f 1 3 4
f 1 4 10
f 1 10 5
f 1 5 7
f 1 7 2
f 2 6 11
f 2 11 13
f 2 13 8
f 2 8 3
f 2 7 12
f 2 12 6
f 3 8 14
f 3 14 9
f 3 9 10
f 3 10 4
f 5 10 9
f 5 9 7
f 6 12 15
f 6 15 11
f 7 9 14
f 7 14 16
f 7 16 15
f 7 15 12
f 8 13 16
f 8 16 14
f 11 15 16
f 11 16 13

