# https://github.com/mikedh/trimesh
v 0.02282517 -0.01200947 0.00500000
v 0.02282517 -0.01200947 0.01501127
v 0.02282517 -0.01148179 0.00500000
v 0.03570021 -0.01200947 0.00500000
v 0.02282517 -0.01148179 0.01501127
v 0.02751216 -0.01200947 0.01501127
v 0.03529439 -0.01148179 0.00500000
v 0.03561325 -0.01188468 0.00500000
v 0.03570021 -0.01200947 0.01499951
v 0.02986762 -0.01148179 0.01501127
v 0.02922740 -0.01200947 0.01501029
v 0.02932570 -0.01194206 0.01501127
v 0.03529439 -0.01148179 0.01499951
v 0.03561325 -0.01188468 0.01499951
f 1 2 5
f 1 5 3
f 1 3 7
f 1 7 8
f 1 8 4
f 1 4 9
f 1 9 11
f 1 11 6
f 1 6 2
f 2 6 12
f 2 12 10
f 2 10 5
f 3 5 10
f 3 10 13
f 3 13 7
f 4 8 14
f 4 14 9
f 6 11 12
f 7 13 14
f 7 14 8
f 9 10 12
f 9 12 11
f 9 14 10
f 10 14 13

