# https://github.com/mikedh/trimesh
v 0.01153469 0.00593459 0.01501127
v 0.00649265 0.00593459 0.01501127
v 0.01153469 0.00300777 0.01501127
v 0.01153469 0.00593459 0.00500000
v 0.00631631 0.00555298 0.01501127
v 0.00246410 0.00593459 0.01499951
v 0.00224959 0.00548307 0.01499951
v 0.00557641 0.00300777 0.01501127
v 0.01153469 0.00300777 0.00500000
v 0.00246410 0.00593459 0.00500000
v 0.00579729 0.00401422 0.01501127
v 0.00224959 0.00300777 0.01499951
v 0.00224959 0.00548307 0.00500000
v 0.00226231 0.00300777 0.00500000
v 0.00224959 0.00300777 0.00518913
v 0.00224959 0.00300949 0.00500000
f 1 2 5
f 1 5 11
f 1 11 8
f 1 8 3
f 1 3 9
f 1 9 4
f 1 4 10
f 1 10 6
f 1 6 2
f 2 6 7
f 2 7 5
f 3 8 12
f 3 12 15
f 3 15 14
f 3 14 9
f 4 9 14
f 4 14 16
f 4 16 13
f 4 13 10
f 5 7 11
f 6 10 13
f 6 13 7
f 7 12 8
f 7 8 11
f 7 13 16
f 7 16 15
f 7 15 12
f 14 15 16

