# https://github.com/mikedh/trimesh
v 0.02218318 0.00460398 0.00500000
v 0.02406111 0.00323810 0.00500000
v 0.02218318 0.00460398 0.01501127
v 0.03983532 0.00460398 0.00500000
v 0.02406111 0.00323810 0.01501127
v 0.03875911 0.00323810 0.00500000
v 0.03450332 0.00460398 0.01501127
v 0.04011711 0.00460398 0.00515581
v 0.03998621 0.00397720 0.00500000
v 0.03487236 0.00323810 0.01501127
v 0.03985532 0.00389643 0.00500000
v 0.03875911 0.00323810 0.01499951
v 0.03470330 0.00401171 0.01501127
v 0.03983532 0.00460398 0.01499951
v 0.04070975 0.00460398 0.00548508
v 0.04049887 0.00434709 0.00533417
v 0.03998621 0.00397720 0.01499951
v 0.03985532 0.00389643 0.01499951
v 0.04043706 0.00460398 0.01466632
v 0.04073702 0.00460398 0.00550076
v 0.04075338 0.00453177 0.00550076
v 0.04049887 0.00434709 0.01466632
v 0.04073702 0.00460398 0.01449973
v 0.04075338 0.00453177 0.01449973
f 1 2 5
f 1 5 3
f 1 3 7
f 1 7 14
f 1 14 19
f 1 19 23
f 1 23 20
f 1 20 15
f 1 15 8
f 1 8 4
f 1 4 9
f 1 9 11
f 1 11 6
f 1 6 2
f 2 6 12
f 2 12 10
f 2 10 5
f 3 5 10
f 3 10 13
f 3 13 7
f 4 8 9
f 6 11 18
f 6 18 12
f 7 13 14
f 8 15 9
f 9 15 16
f 9 16 22
f 9 22 17
f 9 17 18
f 9 18 11
f 10 12 18
f 10 18 17
f 10 17 13
f 13 17 14
f 14 17 19
f 15 20 21
f 15 21 16
f 16 21 24
f 16 24 22
f 17 22 19
f 19 22 23
f 20 23 24
f 20 24 21
f 22 24 23

