# https://github.com/mikedh/trimesh
v 0.03417530 0.01571888 0.01449980
v 0.03359676 0.01621290 0.01449980
v 0.03275449 0.01578018 0.01500000
v 0.03387999 0.01481899 0.01500000
v 0.03417530 0.01571888 0.00550020
v 0.03359676 0.01621290 0.00550020
v 0.03275449 0.01578018 0.00500000
v 0.03262301 0.01570075 0.01500000
v 0.03382196 0.01467691 0.01500000
v 0.03387999 0.01481899 0.00500000
v 0.03262301 0.01570075 0.00500000
v 0.03155195 0.01501969 0.01500000
v 0.03356568 0.01414195 0.01500000
v 0.03382196 0.01467691 0.00500000
v 0.03155195 0.01501969 0.00500000
v 0.03155195 0.01392716 0.01500000
v 0.03343549 0.01392716 0.01500000
v 0.03356568 0.01414195 0.00500000
v 0.03155195 0.01392716 0.00500000
v 0.03343549 0.01392716 0.00500000
f 1 2 3
f 1 3 4
f 1 4 10
f 1 10 5
f 1 5 6
f 1 6 2
f 2 6 7
f 2 7 3
f 3 7 11
f 3 11 8
f 3 8 12
f 3 12 16
f 3 16 17
f 3 17 13
f 3 13 9
f 3 9 4
f 4 9 14
f 4 14 10
f 5 10 7
f 5 7 6
f 7 10 14
f 7 14 18
f 7 18 20
f 7 20 19
f 7 19 15
f 7 15 11
f 8 11 15
f 8 15 12
f 9 13 18
f 9 18 14
f 12 15 19
f 12 19 16
f 13 17 20
f 13 20 18
f 16 19 20
f 16 20 17

