# https://github.com/mikedh/trimesh
v 0.02025005 -0.01500000 0.03000000
v 0.02183940 -0.01491363 0.03000000
v 0.01953434 -0.01496083 0.03000000
v 0.01953434 -0.01496083 0.01501127
v 0.02024892 -0.01499900 0.01501127
v 0.02183940 -0.01491363 0.01501127
v 0.02183940 -0.00474024 0.03000000
v 0.01953434 -0.00494210 0.03000000
v 0.01953434 -0.00494210 0.01501127
v 0.02183940 -0.00474024 0.01501127
f 1 2 7
f 1 7 8
f 1 8 3
f 1 3 4
f 1 4 5
f 1 5 6
f 1 6 2
f 2 6 10
f 2 10 7
f 3 8 9
f 3 9 4
f 4 9 10
f 4 10 6
f 4 6 5
f 7 10 9
f 7 9 8

