# https://github.com/mikedh/trimesh
v 0.01571838 -0.02050496 0.00550020
v 0.01497889 -0.02032747 0.00550020
v 0.01627251 -0.01973705 0.00500000
v 0.01590277 -0.02024947 0.00533379
v 0.01571838 -0.02050496 0.01449980
v 0.01493034 -0.02001596 0.00533379
v 0.01483343 -0.01939150 0.00500000
v 0.01497889 -0.02032747 0.01449980
v 0.01635350 -0.01960666 0.00500000
v 0.01627251 -0.01973705 0.01500000
v 0.01590277 -0.02024947 0.01466621
v 0.01493034 -0.02001596 0.01466621
v 0.01483343 -0.01939150 0.01500000
v 0.01482045 -0.01923888 0.00500000
v 0.01663577 -0.01908530 0.00500000
v 0.01635350 -0.01960666 0.01500000
v 0.01482045 -0.01923888 0.01500000
v 0.01480571 -0.01864581 0.00500000
v 0.01678654 -0.01872622 0.00500000
v 0.01663577 -0.01908530 0.01500000
v 0.01480571 -0.01864581 0.01500000
v 0.01479136 -0.01803849 0.00500000
v 0.01479117 -0.01803825 0.01498336
v 0.01679912 -0.01869604 0.00500000
v 0.01678654 -0.01872622 0.01500000
v 0.01479117 -0.01803825 0.01500000
v 0.01479136 -0.01803825 0.00500000
v 0.01679912 -0.01803825 0.00500000
v 0.01679912 -0.01869604 0.01500000
v 0.01679912 -0.01803825 0.01500000
f 1 2 3
f 1 3 4
f 1 4 11
f 1 11 5
f 1 5 8
f 1 8 2
f 2 6 7
f 2 7 3
f 2 8 12
f 2 12 6
f 3 7 14
f 3 14 18
f 3 18 22
f 3 22 27
f 3 27 28
f 3 28 24
f 3 24 19
f 3 19 15
f 3 15 9
f 3 9 16
f 3 16 10
f 3 10 11
f 3 11 4
f 5 11 10
f 5 10 8
f 6 12 13
f 6 13 7
f 7 13 17
f 7 17 14
f 8 10 13
f 8 13 12
f 9 15 20
f 9 20 16
f 10 16 20
f 10 20 25
f 10 25 29
f 10 29 30
f 10 30 26
f 10 26 21
f 10 21 17
f 10 17 13
f 14 17 21
f 14 21 18
f 15 19 25
f 15 25 20
f 18 21 26
f 18 26 23
f 18 23 22
f 19 24 29
f 19 29 25
f 22 23 27
f 23 26 30
f 23 30 28
f 23 28 27
f 24 28 30
f 24 30 29

