# https://github.com/mikedh/trimesh
v 0.01772900 -0.01875275 0.00500000
v 0.01679932 -0.01869586 0.00500000
v 0.01772900 -0.01130246 0.00500000
v 0.01772900 -0.01875275 0.01499951
v 0.01679932 -0.01130246 0.00500000
v 0.01679932 -0.01869586 0.01499951
v 0.01772900 -0.01130246 0.01501127
v 0.01772900 -0.01476468 0.01501127
v 0.01679932 -0.01130246 0.01501127
v 0.01702430 -0.01464944 0.01501127
v 0.01679932 -0.01458671 0.01500931
v 0.01679932 -0.01246213 0.01501127
f 1 2 5
f 1 5 3
f 1 3 7
f 1 7 8
f 1 8 4
f 1 4 6
f 1 6 2
f 2 6 11
f 2 11 12
f 2 12 9
f 2 9 5
f 3 5 9
f 3 9 7
f 4 8 6
f 6 8 10
f 6 10 11
f 7 9 12
f 7 12 10
f 7 10 8
f 10 12 11

