# https://github.com/mikedh/trimesh
v 0.02282517 -0.00428732 0.01501127
v 0.02282517 -0.00428732 0.00500000
v 0.02068255 -0.00497780 0.01501127
v 0.02282517 -0.01475553 0.01501127
v 0.02068255 -0.00497780 0.00500000
v 0.02282517 -0.01866336 0.00500000
v 0.02068255 -0.01497590 0.01501127
v 0.02187047 -0.01491060 0.01501127
v 0.02256636 -0.02000025 0.01499951
v 0.02260306 -0.01985007 0.01499951
v 0.02282517 -0.01866336 0.01499951
v 0.02068255 -0.01889842 0.00500000
v 0.02260306 -0.01985007 0.00500000
v 0.02068255 -0.01889842 0.01499951
v 0.02083419 -0.01941424 0.01499951
v 0.02103133 -0.01997413 0.01499951
v 0.02109090 -0.02011615 0.01499951
v 0.02151833 -0.02096170 0.01449973
v 0.02227630 -0.02090130 0.01449973
v 0.02256636 -0.02000025 0.00500000
v 0.02083419 -0.01941424 0.00500000
v 0.02103133 -0.01997413 0.00500000
v 0.02109090 -0.02011615 0.00500000
v 0.02151833 -0.02096170 0.00550076
v 0.02227630 -0.02090130 0.00550076
f 1 2 5
f 1 5 3
f 1 3 7
f 1 7 8
f 1 8 4
f 1 4 11
f 1 11 6
f 1 6 2
f 2 6 13
f 2 13 20
f 2 20 23
f 2 23 22
f 2 22 21
f 2 21 12
f 2 12 5
f 3 5 12
f 3 12 14
f 3 14 7
f 4 8 9
f 4 9 10
f 4 10 11
f 6 11 10
f 6 10 13
f 7 14 15
f 7 15 16
f 7 16 17
f 7 17 8
f 8 17 9
f 9 17 18
f 9 18 19
f 9 19 25
f 9 25 20
f 9 20 13
f 9 13 10
f 12 21 15
f 12 15 14
f 15 21 22
f 15 22 16
f 16 22 23
f 16 23 17
f 17 23 24
f 17 24 18
f 18 24 25
f 18 25 19
f 20 25 24
f 20 24 23

