# https://github.com/mikedh/trimesh
v 0.02863960 0.00839284 0.00500000
v 0.03155167 0.00839284 0.00500000
v 0.02863960 0.00839284 0.01501127
v 0.02863960 0.01547055 0.00500000
v 0.03155167 0.01501949 0.00500000
v 0.03155167 0.00839284 0.01501127
v 0.02863960 0.01240735 0.01501127
v 0.02863960 0.01547055 0.01499951
v 0.03101515 0.01547055 0.00500000
v 0.03155167 0.01501949 0.01499951
v 0.03155167 0.00984857 0.01501127
v 0.02932863 0.01194036 0.01501127
v 0.03101515 0.01547055 0.01499951
v 0.03056615 0.01088927 0.01501127
f 1 2 6
f 1 6 3
f 1 3 7
f 1 7 8
f 1 8 4
f 1 4 9
f 1 9 5
f 1 5 2
f 2 5 10
f 2 10 11
f 2 11 6
f 3 6 11
f 3 11 14
f 3 14 12
f 3 12 7
f 4 8 13
f 4 13 9
f 5 9 13
f 5 13 10
f 7 12 13
f 7 13 8
f 10 13 12
f 10 12 14
f 10 14 11

