# https://github.com/mikedh/trimesh
v 0.01160309 -0.01565675 0.01500000
v 0.00947150 -0.01565675 0.01500000
v 0.01160309 -0.01663803 0.01500000
v 0.01160309 -0.01565675 0.00500000
v 0.00931052 -0.01605108 0.01500000
v 0.00947150 -0.01565675 0.00541601
v 0.01036815 -0.01754201 0.01500000
v 0.01160309 -0.01663803 0.00500000
v 0.00947280 -0.01565675 0.00500000
v 0.00914125 -0.01661936 0.01500000
v 0.00931052 -0.01605108 0.00500000
v 0.00945776 -0.01569049 0.00500000
v 0.00910626 -0.01676891 0.01500000
v 0.00960371 -0.01810120 0.01449980
v 0.01036815 -0.01754201 0.00500000
v 0.00914125 -0.01661936 0.00500000
v 0.00910626 -0.01676891 0.00500000
v 0.00900542 -0.01739246 0.01466621
v 0.00895513 -0.01770376 0.01449980
v 0.00960371 -0.01810120 0.00550020
v 0.00895513 -0.01770376 0.00550020
v 0.00900542 -0.01739246 0.00533379
f 1 2 5
f 1 5 10
f 1 10 13
f 1 13 7
f 1 7 3
f 1 3 8
f 1 8 4
f 1 4 9
f 1 9 6
f 1 6 2
f 2 6 11
f 2 11 5
f 3 7 15
f 3 15 8
f 4 8 15
f 4 15 17
f 4 17 16
f 4 16 11
f 4 11 12
f 4 12 9
f 5 11 16
f 5 16 10
f 6 9 12
f 6 12 11
f 7 13 14
f 7 14 20
f 7 20 15
f 10 16 17
f 10 17 13
f 13 17 22
f 13 22 18
f 13 18 19
f 13 19 14
f 14 19 21
f 14 21 20
f 15 20 17
f 17 20 21
f 17 21 22
f 18 22 21
f 18 21 19

