# https://github.com/mikedh/trimesh
v 0.02273233 0.01900523 0.01500000
v 0.02271022 0.01926798 0.01500000
v 0.02073344 0.01900523 0.01500000
v 0.02273233 0.01900523 0.00500000
v 0.02260300 0.01985132 0.01500000
v 0.02271022 0.01926798 0.00500000
v 0.02083420 0.01941564 0.01500000
v 0.02073344 0.01900523 0.00500000
v 0.02256641 0.02000013 0.01500000
v 0.02260300 0.01985132 0.00500000
v 0.02103123 0.01997504 0.01500000
v 0.02083420 0.01941564 0.00500000
v 0.02237290 0.02060166 0.01466621
v 0.02227624 0.02090195 0.01449980
v 0.02109072 0.02011637 0.01500000
v 0.02256641 0.02000013 0.00500000
v 0.02103123 0.01997504 0.00500000
v 0.02237290 0.02060166 0.00533379
v 0.02151844 0.02096151 0.01449980
v 0.02227624 0.02090195 0.00550020
v 0.02137599 0.02068018 0.01466621
v 0.02109072 0.02011637 0.00500000
v 0.02151844 0.02096151 0.00550020
v 0.02137599 0.02068018 0.00533379
f 1 2 5
f 1 5 9
f 1 9 15
f 1 15 11
f 1 11 7
f 1 7 3
f 1 3 8
f 1 8 4
f 1 4 6
f 1 6 2
f 2 6 10
f 2 10 5
f 3 7 12
f 3 12 8
f 4 8 12
f 4 12 17
f 4 17 22
f 4 22 16
f 4 16 10
f 4 10 6
f 5 10 16
f 5 16 9
f 7 11 17
f 7 17 12
f 9 13 14
f 9 14 15
f 9 16 18
f 9 18 13
f 11 15 22
f 11 22 17
f 13 18 20
f 13 20 14
f 14 19 15
f 14 20 23
f 14 23 19
f 15 19 21
f 15 21 24
f 15 24 22
f 16 20 18
f 16 22 20
f 19 23 24
f 19 24 21
f 20 22 23
f 22 24 23

