# https://github.com/mikedh/trimesh
v 0.02863965 0.01547124 0.00500000
v 0.02863965 0.01676825 0.00500000
v 0.02918336 0.01547124 0.00500000
v 0.02863965 0.01547124 0.01500000
v 0.02918336 0.01662807 0.00500000
v 0.02863965 0.01676825 0.01500000
v 0.02918336 0.01547124 0.01249608
v 0.02918289 0.01547124 0.01500000
v 0.02918336 0.01662807 0.01500000
v 0.02918336 0.01547137 0.01500000
f 1 2 5
f 1 5 3
f 1 3 7
f 1 7 8
f 1 8 4
f 1 4 6
f 1 6 2
f 2 6 9
f 2 9 5
f 3 5 9
f 3 9 10
f 3 10 7
f 4 8 10
f 4 10 9
f 4 9 6
f 7 10 8

