# https://github.com/mikedh/trimesh
v 0.01714079 0.01417893 0.01501127
v 0.01767194 0.01198993 0.01501127
v 0.01767194 0.01475506 0.01501029
v 0.01714079 0.01466698 0.01501029
v 0.01714079 0.00390970 0.01501127
v 0.01767194 0.00428512 0.01501127
v 0.01767194 0.01866089 0.01499951
v 0.01714079 0.01849195 0.01499951
v 0.01714079 0.00390970 0.00500000
v 0.01767194 0.00428512 0.00500000
v 0.01767194 0.01866089 0.00500000
v 0.01714079 0.01849195 0.00500000
f 1 2 3
f 1 3 4
f 1 4 8
f 1 8 12
f 1 12 9
f 1 9 5
f 1 5 6
f 1 6 2
f 2 6 10
f 2 10 11
f 2 11 7
f 2 7 3
f 3 7 4
f 4 7 8
f 5 9 10
f 5 10 6
f 7 11 12
f 7 12 8
f 9 12 11
f 9 11 10

