# https://github.com/mikedh/trimesh
v 0.01153469 0.01129515 0.01501127
v 0.01041110 0.01129515 0.01501127
v 0.01153469 0.00874921 0.01501127
v 0.01153469 0.01129515 0.00500000
v 0.00993503 0.01089064 0.01501127
v 0.00522953 0.01129515 0.01499951
v 0.00808659 0.00874921 0.01501127
v 0.01153469 0.00874921 0.00500000
v 0.00522953 0.01129515 0.00500000
v 0.00881817 0.00971176 0.01501127
v 0.00466605 0.01076154 0.01499951
v 0.00466605 0.00874921 0.01499951
v 0.00466605 0.00874921 0.00500000
v 0.00466605 0.01076154 0.00500000
f 1 2 5
f 1 5 10
f 1 10 7
f 1 7 3
f 1 3 8
f 1 8 4
f 1 4 9
f 1 9 6
f 1 6 2
f 2 6 5
f 3 7 12
f 3 12 13
f 3 13 8
f 4 8 13
f 4 13 14
f 4 14 9
f 5 6 11
f 5 11 10
f 6 9 14
f 6 14 11
f 7 10 11
f 7 11 12
f 11 14 13
f 11 13 12

