# https://github.com/mikedh/trimesh
v 0.01732973 -0.01469920 0.02715073
v 0.01732973 -0.01469920 0.03000000
v 0.01702408 -0.01464811 0.01501127
v 0.01732973 -0.01469798 0.01501127
v 0.01702528 -0.01464811 0.03000000
v 0.01732973 -0.00405262 0.03000000
v 0.01580001 -0.01430871 0.01501127
v 0.01580001 -0.01430871 0.03000000
v 0.01732973 -0.00405262 0.01501127
v 0.01580001 -0.00227292 0.03000000
v 0.01580001 -0.00227292 0.01501127
f 1 2 3
f 1 3 4
f 1 4 9
f 1 9 6
f 1 6 2
f 2 5 3
f 2 6 10
f 2 10 8
f 2 8 5
f 3 7 11
f 3 11 9
f 3 9 4
f 3 5 8
f 3 8 7
f 6 9 11
f 6 11 10
f 7 8 10
f 7 10 11

