# https://github.com/mikedh/trimesh
v 0.00895403 0.01129515 0.00500000
v 0.00895403 0.01502024 0.00500000
v 0.01153444 0.01129515 0.00500000
v 0.00895403 0.01129515 0.01499951
v 0.00948830 0.01558503 0.00500000
v 0.00895403 0.01502024 0.01499951
v 0.01153444 0.01558503 0.00500000
v 0.01153444 0.01129515 0.01501127
v 0.01041159 0.01129515 0.01501127
v 0.00948830 0.01558503 0.01499951
v 0.01153444 0.01558503 0.01499951
v 0.01153444 0.01218706 0.01501127
v 0.01117321 0.01194225 0.01501127
f 1 2 5
f 1 5 7
f 1 7 3
f 1 3 8
f 1 8 9
f 1 9 4
f 1 4 6
f 1 6 2
f 2 6 10
f 2 10 5
f 3 7 11
f 3 11 12
f 3 12 8
f 4 9 6
f 5 10 11
f 5 11 7
f 6 9 10
f 8 12 13
f 8 13 9
f 9 13 10
f 10 13 12
f 10 12 11

