# https://github.com/mikedh/trimesh
v 0.00895378 0.01502034 0.01500000
v 0.00787692 0.01570074 0.01500000
v 0.00895378 0.01359311 0.01500000
v 0.00895378 0.01502034 0.00500000
v 0.00774566 0.01578024 0.01500000
v 0.00787692 0.01570074 0.00500000
v 0.00719694 0.01359311 0.01500000
v 0.00895378 0.01359311 0.00500000
v 0.00718381 0.01606877 0.01466621
v 0.00690301 0.01621290 0.01449980
v 0.00662016 0.01481901 0.01500000
v 0.00774566 0.01578024 0.00500000
v 0.00693415 0.01414195 0.01500000
v 0.00719694 0.01359311 0.00530442
v 0.00719822 0.01359311 0.00500000
v 0.00718381 0.01606877 0.00533379
v 0.00632469 0.01571895 0.01449980
v 0.00690301 0.01621290 0.00550020
v 0.00662016 0.01481901 0.00500000
v 0.00667807 0.01467693 0.01500000
v 0.00693415 0.01414195 0.00500000
v 0.00719719 0.01359414 0.00500000
v 0.00632469 0.01571895 0.00550020
v 0.00667807 0.01467693 0.00500000
f 1 2 5
f 1 5 11
f 1 11 20
f 1 20 13
f 1 13 7
f 1 7 3
f 1 3 8
f 1 8 4
f 1 4 6
f 1 6 2
f 2 6 12
f 2 12 5
f 3 7 14
f 3 14 15
f 3 15 8
f 4 8 15
f 4 15 22
f 4 22 21
f 4 21 24
f 4 24 19
f 4 19 12
f 4 12 6
f 5 9 10
f 5 10 11
f 5 12 16
f 5 16 9
f 7 13 21
f 7 21 14
f 9 16 18
f 9 18 10
f 10 17 11
f 10 18 23
f 10 23 17
f 11 17 23
f 11 23 19
f 11 19 24
f 11 24 20
f 12 19 18
f 12 18 16
f 13 20 24
f 13 24 21
f 14 21 22
f 14 22 15
f 18 19 23

