# https://github.com/mikedh/trimesh
v 0.02864223 -0.01547515 0.00500000
v 0.02864223 -0.01200981 0.00500000
v 0.03101467 -0.01547515 0.00500000
v 0.02864223 -0.01547515 0.01499907
v 0.03179642 -0.01200981 0.00500000
v 0.02864223 -0.01200981 0.01500984
v 0.03179642 -0.01507993 0.00500000
v 0.03101467 -0.01547515 0.01499907
v 0.02864223 -0.01240638 0.01501082
v 0.03179642 -0.01200981 0.01499907
v 0.02922731 -0.01200981 0.01500984
v 0.03179642 -0.01507993 0.01499907
f 1 2 5
f 1 5 7
f 1 7 3
f 1 3 8
f 1 8 4
f 1 4 9
f 1 9 6
f 1 6 2
f 2 6 11
f 2 11 10
f 2 10 5
f 3 7 12
f 3 12 8
f 4 8 9
f 5 10 12
f 5 12 7
f 6 9 11
f 8 12 9
f 9 12 11
f 10 11 12

