# https://github.com/mikedh/trimesh
v 0.03570249 -0.00864678 0.00500000
v 0.03570249 -0.00565202 0.00500000
v 0.03688764 -0.00864678 0.00500000
v 0.03570249 -0.00864678 0.01500000
v 0.03707227 -0.00565202 0.00500000
v 0.03570249 -0.00565202 0.01500000
v 0.03707227 -0.00830996 0.00500000
v 0.03688764 -0.00864678 0.01500000
v 0.03707227 -0.00565202 0.01500000
v 0.03707227 -0.00830996 0.01500000
f 1 2 5
f 1 5 7
f 1 7 3
f 1 3 8
f 1 8 4
f 1 4 6
f 1 6 2
f 2 6 9
f 2 9 5
f 3 7 10
f 3 10 8
f 4 8 10
f 4 10 9
f 4 9 6
f 5 9 10
f 5 10 7

