# https://github.com/mikedh/trimesh
v 0.03925009 0.00048208 0.01485611
v 0.03925009 0.00048208 0.01500000
v 0.03925009 0.00048227 0.00500000
v 0.03925067 0.00048227 0.00500000
v 0.03966561 0.00058411 0.00500000
v 0.03966561 0.00058411 0.01500000
v 0.03925009 0.00248258 0.01500000
v 0.03925009 0.00248258 0.00500000
v 0.04022494 0.00078132 0.00500000
v 0.04022494 0.00078132 0.01500000
v 0.03951795 0.00246026 0.01500000
v 0.03951795 0.00246026 0.00500000
v 0.04036626 0.00084085 0.00500000
v 0.04036626 0.00084085 0.01500000
v 0.04010129 0.00235313 0.01500000
v 0.04010129 0.00235313 0.00500000
v 0.04025029 0.00231651 0.00500000
v 0.04121170 0.00126837 0.00550020
v 0.04121170 0.00126837 0.01449980
v 0.04025029 0.00231651 0.01500000
v 0.04085167 0.00212302 0.00533379
v 0.04115198 0.00202628 0.00550020
v 0.04115198 0.00202628 0.01449980
v 0.04085167 0.00212302 0.01466621
f 1 2 7
f 1 7 8
f 1 8 3
f 1 3 4
f 1 4 5
f 1 5 6
f 1 6 2
f 2 6 10
f 2 10 14
f 2 14 20
f 2 20 15
f 2 15 11
f 2 11 7
f 3 8 12
f 3 12 16
f 3 16 17
f 3 17 13
f 3 13 9
f 3 9 5
f 3 5 4
f 5 9 10
f 5 10 6
f 7 11 12
f 7 12 8
f 9 13 14
f 9 14 10
f 11 15 16
f 11 16 12
f 13 17 18
f 13 18 19
f 13 19 14
f 14 19 20
f 15 20 17
f 15 17 16
f 17 20 24
f 17 24 21
f 17 21 22
f 17 22 18
f 18 22 23
f 18 23 19
f 19 23 20
f 20 23 24
f 21 24 23
f 21 23 22

