# https://github.com/mikedh/trimesh
v 0.02025119 0.01499964 0.01501127
v 0.01986702 0.01497793 0.01501127
v 0.02026591 0.01431434 0.01501127
v 0.02026591 0.01499829 0.01501029
v 0.02026591 0.01874915 0.01499951
v 0.01986702 0.01884279 0.01499951
v 0.01986702 0.00497924 0.01501127
v 0.02026591 0.00499959 0.01501127
v 0.02026591 0.01874915 0.00500000
v 0.01986702 0.01884279 0.00500000
v 0.01986702 0.00497924 0.00500000
v 0.02026591 0.00499959 0.00500000
f 1 2 7
f 1 7 8
f 1 8 3
f 1 3 4
f 1 4 5
f 1 5 6
f 1 6 2
f 2 6 10
f 2 10 11
f 2 11 7
f 3 8 12
f 3 12 9
f 3 9 5
f 3 5 4
f 5 9 10
f 5 10 6
f 7 11 12
f 7 12 8
f 9 12 11
f 9 11 10

