# https://github.com/mikedh/trimesh
v 0.02589873 0.00839377 0.00500000
v 0.02643999 0.00839377 0.00500000
v 0.02589873 0.00839377 0.01501127
v 0.02589873 0.01787953 0.00500000
v 0.02643999 0.01780245 0.00500000
v 0.02643999 0.00839377 0.01501127
v 0.02589873 0.01387165 0.01501127
v 0.02589873 0.01787953 0.01499951
v 0.02643999 0.01780338 0.01391665
v 0.02643999 0.01365621 0.01501127
v 0.02643999 0.01780338 0.01499951
f 1 2 6
f 1 6 3
f 1 3 7
f 1 7 8
f 1 8 4
f 1 4 5
f 1 5 2
f 2 5 9
f 2 9 11
f 2 11 10
f 2 10 6
f 3 6 10
f 3 10 7
f 4 8 11
f 4 11 9
f 4 9 5
f 7 10 11
f 7 11 8

