# https://github.com/mikedh/trimesh
v 0.01643649 0.00323322 0.03000000
v 0.01555464 0.00170268 0.03000000
v 0.01643649 0.00323322 0.01501127
v 0.00562561 0.00323322 0.03000000
v 0.00536886 0.00170268 0.03000000
v 0.01555464 0.00170268 0.01501127
v 0.00562561 0.00323322 0.01501127
v 0.00544794 0.00242682 0.03000000
v 0.00544794 0.00242802 0.01501127
v 0.00536886 0.00170268 0.02327297
v 0.00536994 0.00170268 0.01501127
f 1 2 6
f 1 6 3
f 1 3 7
f 1 7 4
f 1 4 8
f 1 8 5
f 1 5 2
f 2 5 10
f 2 10 11
f 2 11 6
f 3 6 11
f 3 11 9
f 3 9 7
f 4 7 9
f 4 9 8
f 5 8 9
f 5 9 10
f 9 11 10

