# https://github.com/mikedh/trimesh
v 0.02478176 -0.02050520 0.00550076
v 0.02422745 -0.01973679 0.00500000
v 0.02566663 -0.01939084 0.00500000
v 0.02552125 -0.02032723 0.00550076
v 0.02478176 -0.02050520 0.01449973
v 0.02414652 -0.01960623 0.00500000
v 0.02422745 -0.01973679 0.01499951
v 0.02567947 -0.01923866 0.00500000
v 0.02566663 -0.01939084 0.01499951
v 0.02552125 -0.02032723 0.01449973
v 0.02556964 -0.02001538 0.01466632
v 0.02459720 -0.02024906 0.01466632
v 0.02357360 -0.01854925 0.00500000
v 0.02414652 -0.01960623 0.01499951
v 0.02357360 -0.01462239 0.01501127
v 0.02576062 -0.01796879 0.00500000
v 0.02567947 -0.01923866 0.01499951
v 0.02576062 -0.01392799 0.01501127
v 0.02503825 -0.01421573 0.01501127
v 0.02357360 -0.01200947 0.00500000
v 0.02357360 -0.01854925 0.01499951
v 0.02357360 -0.01200947 0.01501127
v 0.02576062 -0.01200947 0.00500000
v 0.02576062 -0.01796879 0.01499951
v 0.02576062 -0.01200947 0.01501127
f 1 2 3
f 1 3 4
f 1 4 10
f 1 10 5
f 1 5 7
f 1 7 2
f 2 6 13
f 2 13 20
f 2 20 23
f 2 23 16
f 2 16 8
f 2 8 3
f 2 7 14
f 2 14 6
f 3 8 17
f 3 17 9
f 3 9 10
f 3 10 4
f 5 10 11
f 5 11 12
f 5 12 7
f 6 14 21
f 6 21 13
f 7 12 11
f 7 11 9
f 7 9 15
f 7 15 14
f 8 16 24
f 8 24 17
f 9 17 18
f 9 18 19
f 9 19 15
f 9 11 10
f 13 21 15
f 13 15 22
f 13 22 20
f 14 15 21
f 15 19 18
f 15 18 25
f 15 25 22
f 16 23 25
f 16 25 18
f 16 18 24
f 17 24 18
f 20 22 25
f 20 25 23

