# https://github.com/mikedh/trimesh
v 0.02187300 0.01491132 0.01501127
v 0.02026626 0.01499858 0.01501029
v 0.02026626 0.01431401 0.01501127
v 0.02347253 0.01464850 0.01501127
v 0.02273209 0.01900523 0.01499951
v 0.02073362 0.01900523 0.01499951
v 0.02026626 0.01874865 0.01499951
v 0.02026626 0.00839284 0.01501127
v 0.02347253 0.01850349 0.01499951
v 0.02347253 0.00839284 0.01501127
v 0.02273209 0.01900523 0.00500000
v 0.02073362 0.01900523 0.00500000
v 0.02026626 0.01874865 0.00500000
v 0.02026626 0.00839284 0.00500000
v 0.02347253 0.01850349 0.00500000
v 0.02347253 0.00839284 0.00500000
f 1 2 3
f 1 3 8
f 1 8 10
f 1 10 4
f 1 4 5
f 1 5 6
f 1 6 2
f 2 6 7
f 2 7 13
f 2 13 14
f 2 14 8
f 2 8 3
f 4 9 5
f 4 10 16
f 4 16 15
f 4 15 9
f 5 11 12
f 5 12 6
f 5 9 15
f 5 15 11
f 6 12 13
f 6 13 7
f 8 14 16
f 8 16 10
f 11 15 16
f 11 16 14
f 11 14 13
f 11 13 12

