# https://github.com/mikedh/trimesh
v 0.03487439 -0.00323533 0.03000000
v 0.03470214 -0.00401382 0.03000000
v 0.03470214 -0.00401497 0.01501127
v 0.03487439 -0.00323533 0.02264648
v 0.02406209 -0.00323533 0.03000000
v 0.03418410 -0.00555252 0.03000000
v 0.03418410 -0.00555366 0.01501127
v 0.03487311 -0.00323533 0.01501127
v 0.02183940 -0.00474087 0.03000000
v 0.02406209 -0.00323533 0.01501127
v 0.03350148 -0.00702719 0.03000000
v 0.03350148 -0.00702719 0.01501127
v 0.02183940 -0.01491271 0.03000000
v 0.02183940 -0.00474087 0.01501127
v 0.03266446 -0.00841842 0.03000000
v 0.03266446 -0.00841956 0.01501127
v 0.02187258 -0.01491157 0.03000000
v 0.02183940 -0.01491271 0.01501127
v 0.03168199 -0.00971019 0.03000000
v 0.03168071 -0.00971133 0.01501127
v 0.02347515 -0.01464864 0.03000000
v 0.02187130 -0.01491157 0.01501127
v 0.03056427 -0.01088879 0.03000000
v 0.03056427 -0.01088993 0.01501127
v 0.02504073 -0.01421424 0.03000000
v 0.02347388 -0.01464864 0.01501127
v 0.02932661 -0.01194050 0.03000000
v 0.02932533 -0.01194164 0.01501127
v 0.02654889 -0.01361294 0.03000000
v 0.02503946 -0.01421424 0.01501127
v 0.02798432 -0.01285274 0.03000000
v 0.02798304 -0.01285274 0.01501127
v 0.02654761 -0.01361294 0.01501127
f 1 2 3
f 1 3 4
f 1 4 8
f 1 8 10
f 1 10 5
f 1 5 9
f 1 9 13
f 1 13 17
f 1 17 21
f 1 21 25
f 1 25 29
f 1 29 31
f 1 31 27
f 1 27 23
f 1 23 19
f 1 19 15
f 1 15 11
f 1 11 6
f 1 6 2
f 2 6 7
f 2 7 3
f 3 7 12
f 3 12 16
f 3 16 20
f 3 20 24
f 3 24 28
f 3 28 32
f 3 32 33
f 3 33 30
f 3 30 26
f 3 26 22
f 3 22 18
f 3 18 14
f 3 14 10
f 3 10 8
f 3 8 4
f 5 10 14
f 5 14 9
f 6 11 7
f 7 11 12
f 9 14 18
f 9 18 13
f 11 15 16
f 11 16 12
f 13 18 17
f 15 19 16
f 16 19 20
f 17 18 22
f 17 22 26
f 17 26 21
f 19 23 24
f 19 24 20
f 21 26 30
f 21 30 25
f 23 27 24
f 24 27 28
f 25 30 33
f 25 33 29
f 27 31 28
f 28 31 32
f 29 33 32
f 29 32 31

