# https://github.com/mikedh/trimesh
v 0.01479136 -0.01803825 0.00500000
v 0.01432569 -0.01778902 0.00500000
v 0.01679932 -0.01803825 0.00500000
v 0.01479136 -0.01803825 0.01499951
v 0.01432569 -0.01130246 0.00500000
v 0.01432569 -0.01778902 0.01499951
v 0.01679932 -0.01130246 0.00500000
v 0.01679932 -0.01803825 0.01499951
v 0.01545947 -0.01421475 0.01501127
v 0.01432569 -0.01376245 0.01501127
v 0.01432569 -0.01130246 0.01501127
v 0.01679932 -0.01130246 0.01501127
v 0.01679932 -0.01458662 0.01500931
v 0.01679932 -0.01246224 0.01501127
f 1 2 5
f 1 5 7
f 1 7 3
f 1 3 8
f 1 8 4
f 1 4 6
f 1 6 2
f 2 6 10
f 2 10 11
f 2 11 5
f 3 7 12
f 3 12 14
f 3 14 13
f 3 13 8
f 4 8 9
f 4 9 10
f 4 10 6
f 5 11 12
f 5 12 7
f 8 13 9
f 9 13 14
f 9 14 12
f 9 12 11
f 9 11 10

