# https://github.com/mikedh/trimesh
v 0.00099741 -0.00838633 0.00550020
v 0.00070620 -0.00768372 0.00550020
v 0.00194447 -0.00838346 0.00500000
v 0.00099741 -0.00838633 0.01449980
v 0.00093001 -0.00746116 0.00533379
v 0.00137809 -0.00701605 0.00500000
v 0.00070620 -0.00768372 0.01449980
v 0.00209739 -0.00837221 0.00500000
v 0.00194447 -0.00838346 0.01500000
v 0.00093001 -0.00746116 0.01466621
v 0.00246529 -0.00594179 0.00500000
v 0.00137809 -0.00701605 0.01500000
v 0.00268538 -0.00829396 0.00500000
v 0.00209739 -0.00837221 0.01500000
v 0.00308024 -0.00594179 0.00500000
v 0.00246529 -0.00594179 0.01500000
v 0.00306444 -0.00820493 0.00500000
v 0.00268538 -0.00829396 0.01500000
v 0.00308024 -0.00820110 0.00500000
v 0.00308024 -0.00594179 0.01500000
v 0.00306444 -0.00820493 0.01500000
v 0.00308024 -0.00820110 0.01500000
f 1 2 3
f 1 3 9
f 1 9 4
f 1 4 7
f 1 7 2
f 2 5 6
f 2 6 3
f 2 7 10
f 2 10 5
f 3 6 11
f 3 11 15
f 3 15 19
f 3 19 17
f 3 17 13
f 3 13 8
f 3 8 14
f 3 14 9
f 4 9 7
f 5 10 12
f 5 12 6
f 6 12 16
f 6 16 11
f 7 9 12
f 7 12 10
f 8 13 18
f 8 18 14
f 9 14 18
f 9 18 21
f 9 21 22
f 9 22 20
f 9 20 16
f 9 16 12
f 11 16 20
f 11 20 15
f 13 17 21
f 13 21 18
f 15 20 22
f 15 22 19
f 17 19 22
f 17 22 21

