# https://github.com/mikedh/trimesh
v 0.02508698 -0.00124994 0.00500000
v 0.02508698 -0.00124994 0.01501127
v 0.02524371 -0.00000214 0.00500000
v 0.03925520 -0.00124994 0.00500000
v 0.02524371 -0.00000214 0.01501127
v 0.03518019 -0.00124994 0.01501127
v 0.03899860 -0.00000214 0.00500000
v 0.03925520 -0.00048379 0.00500000
v 0.03925520 -0.00124994 0.01499951
v 0.03522734 -0.00000214 0.01501127
v 0.03522734 -0.00081324 0.01501127
v 0.03899860 -0.00000214 0.01499951
v 0.03925520 -0.00048379 0.01499951
f 1 2 5
f 1 5 3
f 1 3 7
f 1 7 8
f 1 8 4
f 1 4 9
f 1 9 6
f 1 6 2
f 2 6 11
f 2 11 10
f 2 10 5
f 3 5 10
f 3 10 12
f 3 12 7
f 4 8 13
f 4 13 9
f 6 9 11
f 7 12 13
f 7 13 8
f 9 13 10
f 9 10 11
f 10 13 12

