# https://github.com/mikedh/trimesh
v 0.00522926 0.01129515 0.00500000
v 0.00454917 0.01237311 0.00500000
v 0.00632312 0.01129515 0.00500000
v 0.00522926 0.01129515 0.01500000
v 0.00446973 0.01250441 0.00500000
v 0.00454917 0.01237311 0.01500000
v 0.00632312 0.01318538 0.00500000
v 0.00632312 0.01129515 0.01500000
v 0.00403715 0.01334680 0.00550020
v 0.00453105 0.01392530 0.00550020
v 0.00543089 0.01362974 0.00500000
v 0.00446973 0.01250441 0.01500000
v 0.00610806 0.01331565 0.00500000
v 0.00632312 0.01318538 0.01500000
v 0.00403715 0.01334680 0.01449980
v 0.00483092 0.01382695 0.00533379
v 0.00453105 0.01392530 0.01449980
v 0.00543089 0.01362974 0.01500000
v 0.00557299 0.01357182 0.00500000
v 0.00610806 0.01331565 0.01500000
v 0.00483092 0.01382695 0.01466621
v 0.00557299 0.01357182 0.01500000
f 1 2 5
f 1 5 11
f 1 11 19
f 1 19 13
f 1 13 7
f 1 7 3
f 1 3 8
f 1 8 4
f 1 4 6
f 1 6 2
f 2 6 12
f 2 12 5
f 3 7 14
f 3 14 8
f 4 8 14
f 4 14 20
f 4 20 22
f 4 22 18
f 4 18 12
f 4 12 6
f 5 9 10
f 5 10 11
f 5 12 15
f 5 15 9
f 7 13 20
f 7 20 14
f 9 15 17
f 9 17 10
f 10 16 11
f 10 17 21
f 10 21 16
f 11 16 21
f 11 21 18
f 11 18 22
f 11 22 19
f 12 18 17
f 12 17 15
f 13 19 22
f 13 22 20
f 17 18 21

