# https://github.com/mikedh/trimesh
v 0.01479167 0.01803949 0.00500000
v 0.01480593 0.01864584 0.00500000
v 0.01714079 0.01803949 0.00500000
v 0.01479167 0.01803949 0.01500000
v 0.01482041 0.01923891 0.00500000
v 0.01480593 0.01864584 0.01500000
v 0.01714079 0.01849256 0.00500000
v 0.01714079 0.01803949 0.01491973
v 0.01714033 0.01803949 0.01500000
v 0.01483352 0.01939146 0.00500000
v 0.01482041 0.01923891 0.01500000
v 0.01627251 0.01973712 0.00500000
v 0.01714079 0.01849256 0.01500000
v 0.01483352 0.01939146 0.01500000
v 0.01493033 0.02001592 0.00533379
v 0.01497885 0.02032754 0.00550020
v 0.01571835 0.02050520 0.00550020
v 0.01590299 0.02024933 0.00533379
v 0.01627251 0.01973712 0.01500000
v 0.01571835 0.02050520 0.01449980
v 0.01497885 0.02032754 0.01449980
v 0.01493033 0.02001592 0.01466621
v 0.01590299 0.02024933 0.01466621
f 1 2 5
f 1 5 10
f 1 10 12
f 1 12 7
f 1 7 3
f 1 3 8
f 1 8 9
f 1 9 4
f 1 4 6
f 1 6 2
f 2 6 11
f 2 11 5
f 3 7 13
f 3 13 8
f 4 9 13
f 4 13 19
f 4 19 14
f 4 14 11
f 4 11 6
f 5 11 14
f 5 14 10
f 7 12 19
f 7 19 13
f 8 13 9
f 10 14 22
f 10 22 15
f 10 15 16
f 10 16 17
f 10 17 12
f 12 18 23
f 12 23 19
f 12 17 18
f 14 19 20
f 14 20 21
f 14 21 22
f 15 22 21
f 15 21 16
f 16 21 20
f 16 20 17
f 17 20 23
f 17 23 18
f 19 23 20

