# https://github.com/mikedh/trimesh
v 0.01555424 0.00170268 0.03000000
v 0.01525730 0.00000170 0.03000000
v 0.01555424 0.00170268 0.01501127
v 0.00536964 0.00170268 0.03000000
v 0.00527200 0.00000170 0.03000000
v 0.01525730 0.00000170 0.01501127
v 0.00536964 0.00170268 0.01501127
v 0.00527200 0.00081214 0.03000000
v 0.00527200 0.00000170 0.02251297
v 0.00527301 0.00000170 0.01501127
v 0.00527301 0.00081331 0.01501127
f 1 2 6
f 1 6 3
f 1 3 7
f 1 7 4
f 1 4 8
f 1 8 5
f 1 5 2
f 2 5 9
f 2 9 10
f 2 10 6
f 3 6 10
f 3 10 11
f 3 11 7
f 4 7 8
f 5 8 9
f 7 11 8
f 8 11 9
f 9 11 10

