# https://github.com/mikedh/trimesh
v 0.02071818 0.01497359 0.03000000
v 0.02071818 0.00497464 0.03000000
v 0.02071818 0.01497359 0.01501127
v 0.02024997 0.01500000 0.03000000
v 0.01836129 0.00462214 0.03000000
v 0.02071818 0.00497464 0.01501127
v 0.02024997 0.01499898 0.01501127
v 0.01862925 0.01491162 0.01501127
v 0.01862781 0.01491162 0.03000000
v 0.00600202 0.00462214 0.03000000
v 0.01836129 0.00462214 0.01501127
v 0.01702581 0.01464852 0.01501127
v 0.01702437 0.01464852 0.03000000
v 0.00631608 0.00555265 0.03000000
v 0.00631608 0.00555367 0.01501127
v 0.00600202 0.00462214 0.02093722
v 0.00600346 0.00462214 0.01501127
v 0.01546128 0.01421475 0.01501127
v 0.01545984 0.01421475 0.03000000
v 0.00699750 0.00702664 0.03000000
v 0.00699894 0.00702766 0.01501127
v 0.01395148 0.01361337 0.01501127
v 0.01395148 0.01361337 0.03000000
v 0.00783596 0.00841835 0.03000000
v 0.00783596 0.00841937 0.01501127
v 0.01251804 0.01285251 0.01501127
v 0.01251804 0.01285251 0.03000000
v 0.00881847 0.00971152 0.03000000
v 0.00881847 0.00971253 0.01501127
v 0.01117392 0.01194130 0.01501127
v 0.01117248 0.01194130 0.03000000
v 0.00993497 0.01088990 0.03000000
v 0.00993641 0.01088990 0.01501127
f 1 2 6
f 1 6 3
f 1 3 4
f 1 4 9
f 1 9 13
f 1 13 19
f 1 19 23
f 1 23 27
f 1 27 31
f 1 31 32
f 1 32 28
f 1 28 24
f 1 24 20
f 1 20 14
f 1 14 10
f 1 10 5
f 1 5 2
f 2 5 11
f 2 11 6
f 3 6 11
f 3 11 17
f 3 17 15
f 3 15 21
f 3 21 25
f 3 25 29
f 3 29 33
f 3 33 30
f 3 30 26
f 3 26 22
f 3 22 18
f 3 18 12
f 3 12 8
f 3 8 7
f 3 7 4
f 4 7 8
f 4 8 9
f 5 10 16
f 5 16 17
f 5 17 11
f 8 12 13
f 8 13 9
f 10 14 15
f 10 15 16
f 12 18 19
f 12 19 13
f 14 20 15
f 15 17 16
f 15 20 21
f 18 22 19
f 19 22 23
f 20 24 25
f 20 25 21
f 22 26 27
f 22 27 23
f 24 28 29
f 24 29 25
f 26 30 31
f 26 31 27
f 28 32 29
f 29 32 33
f 30 33 32
f 30 32 31

