# https://github.com/mikedh/trimesh
v 0.01836207 0.00462214 0.03000000
v 0.01643582 0.00323337 0.03000000
v 0.01836207 0.00462214 0.01501127
v 0.00600292 0.00462214 0.03000000
v 0.00562516 0.00323337 0.03000000
v 0.01643582 0.00323337 0.01501127
v 0.00600292 0.00462214 0.01501127
v 0.00579721 0.00401286 0.03000000
v 0.00579721 0.00401408 0.01501127
v 0.00562516 0.00323337 0.02262741
v 0.00562640 0.00323337 0.01501127
f 1 2 6
f 1 6 3
f 1 3 7
f 1 7 4
f 1 4 8
f 1 8 5
f 1 5 2
f 2 5 10
f 2 10 11
f 2 11 6
f 3 6 11
f 3 11 9
f 3 9 7
f 4 7 9
f 4 9 8
f 5 8 9
f 5 9 10
f 9 11 10

