# https://github.com/mikedh/trimesh
v 0.00123914 -0.00133800 0.00500000
v 0.00123914 -0.00133800 0.01499951
v 0.00123914 -0.00048517 0.00500000
v 0.01543103 -0.00133800 0.00500000
v 0.00123914 -0.00048517 0.01499951
v 0.00532970 -0.00133800 0.01501127
v 0.00527273 -0.00081077 0.01501127
v 0.00150175 -0.00000214 0.00500000
v 0.01543103 -0.00133761 0.00500000
v 0.01543242 -0.00133800 0.01500343
v 0.00527273 -0.00000214 0.01501127
v 0.00150175 -0.00000214 0.01499951
v 0.01543242 -0.00133800 0.01501127
v 0.01525596 -0.00000214 0.00500000
v 0.01525596 -0.00000214 0.01501127
f 1 2 5
f 1 5 3
f 1 3 8
f 1 8 14
f 1 14 9
f 1 9 4
f 1 4 10
f 1 10 13
f 1 13 6
f 1 6 2
f 2 6 7
f 2 7 11
f 2 11 5
f 3 5 12
f 3 12 8
f 4 9 10
f 5 11 12
f 6 13 15
f 6 15 11
f 6 11 7
f 8 12 11
f 8 11 15
f 8 15 14
f 9 14 10
f 10 14 15
f 10 15 13

