# https://github.com/mikedh/trimesh
v 0.00123775 -0.00248176 0.00500000
v 0.00098205 -0.00246026 0.00500000
v 0.00123775 -0.00048513 0.00500000
v 0.00123775 -0.00248176 0.01500000
v 0.00039871 -0.00235297 0.00500000
v 0.00098205 -0.00246026 0.01500000
v 0.00083436 -0.00058422 0.00500000
v 0.00123775 -0.00048513 0.01500000
v 0.00024987 -0.00231642 0.00500000
v 0.00039871 -0.00235297 0.01500000
v 0.00027506 -0.00078142 0.00500000
v 0.00083436 -0.00058422 0.01500000
v 0.00024987 -0.00231642 0.01500000
v -0.00065194 -0.00202638 0.00550020
v 0.00013366 -0.00084084 0.00500000
v 0.00027506 -0.00078142 0.01500000
v 0.00013366 -0.00084084 0.01500000
v -0.00065194 -0.00202638 0.01449980
v -0.00071148 -0.00126846 0.00550020
v -0.00043021 -0.00112599 0.00533379
v -0.00043021 -0.00112599 0.01466621
v -0.00071148 -0.00126846 0.01449980
f 1 2 5
f 1 5 9
f 1 9 15
f 1 15 11
f 1 11 7
f 1 7 3
f 1 3 8
f 1 8 4
f 1 4 6
f 1 6 2
f 2 6 10
f 2 10 5
f 3 7 12
f 3 12 8
f 4 8 12
f 4 12 16
f 4 16 17
f 4 17 13
f 4 13 10
f 4 10 6
f 5 10 13
f 5 13 9
f 7 11 16
f 7 16 12
f 9 13 18
f 9 18 14
f 9 14 15
f 11 15 17
f 11 17 16
f 13 17 18
f 14 18 22
f 14 22 19
f 14 19 15
f 15 19 20
f 15 20 21
f 15 21 17
f 17 21 22
f 17 22 18
f 19 22 21
f 19 21 20

