# https://github.com/mikedh/trimesh
v 0.02282524 -0.01866414 0.00500000
v 0.02282524 -0.01201012 0.00500000
v 0.02357338 -0.01854885 0.00500000
v 0.02282524 -0.01866414 0.01499951
v 0.02357338 -0.01201012 0.00500000
v 0.02282524 -0.01201012 0.01501127
v 0.02357338 -0.01854885 0.01499951
v 0.02282524 -0.01475576 0.01501127
v 0.02357338 -0.01201012 0.01501127
v 0.02357338 -0.01462222 0.01501127
v 0.02347334 -0.01464958 0.01501127
f 1 2 5
f 1 5 3
f 1 3 7
f 1 7 4
f 1 4 8
f 1 8 6
f 1 6 2
f 2 6 9
f 2 9 5
f 3 5 9
f 3 9 10
f 3 10 7
f 4 7 8
f 6 8 11
f 6 11 10
f 6 10 9
f 7 10 11
f 7 11 8

