# https://github.com/mikedh/trimesh
v 0.03522699 0.00000153 0.03000000
v 0.03522699 -0.00081211 0.03000000
v 0.03522699 0.00000153 0.01501127
v 0.02524273 0.00000153 0.03000000
v 0.03513553 -0.00165957 0.03000000
v 0.03522699 -0.00081341 0.01501127
v 0.02524273 0.00000153 0.01501127
v 0.02495927 -0.00165957 0.03000000
v 0.03513553 -0.00165957 0.01501127
v 0.02495927 -0.00165957 0.01501127
f 1 2 6
f 1 6 3
f 1 3 7
f 1 7 4
f 1 4 8
f 1 8 5
f 1 5 2
f 2 5 6
f 3 6 9
f 3 9 10
f 3 10 7
f 4 7 10
f 4 10 8
f 5 8 10
f 5 10 9
f 5 9 6

