# https://github.com/mikedh/trimesh
v 0.02405310 -0.00324506 0.00500000
v 0.02405310 -0.00324506 0.01501127
v 0.02437469 -0.00282587 0.00500000
v 0.03876113 -0.00324506 0.00500000
v 0.02437469 -0.00282587 0.01501127
v 0.03487177 -0.00324506 0.01501127
v 0.03878564 -0.00282587 0.00500000
v 0.03876113 -0.00324506 0.01499951
v 0.03496406 -0.00282587 0.01501127
v 0.03878564 -0.00282587 0.01499951
f 1 2 5
f 1 5 3
f 1 3 7
f 1 7 4
f 1 4 8
f 1 8 6
f 1 6 2
f 2 6 9
f 2 9 5
f 3 5 9
f 3 9 10
f 3 10 7
f 4 7 10
f 4 10 8
f 6 8 9
f 8 10 9

