# https://github.com/mikedh/trimesh
v 0.00308047 -0.00820120 0.00500000
v 0.00308047 -0.00594181 0.00500000
v 0.00361101 -0.00864151 0.00500000
v 0.00308047 -0.00820120 0.01499951
v 0.00308047 -0.00594181 0.01499951
v 0.01772766 -0.00594181 0.00500000
v 0.00361101 -0.00864151 0.01499951
v 0.01772909 -0.00864151 0.00500000
v 0.00800589 -0.00864151 0.01501127
v 0.00783525 -0.00841660 0.01501127
v 0.00699786 -0.00702513 0.01501127
v 0.00649600 -0.00594181 0.01501127
v 0.01772909 -0.00594181 0.00506468
v 0.01772909 -0.00595344 0.00500000
v 0.01772909 -0.00864151 0.01501127
v 0.01772909 -0.00594181 0.01501127
f 1 2 6
f 1 6 14
f 1 14 8
f 1 8 3
f 1 3 7
f 1 7 4
f 1 4 5
f 1 5 2
f 2 5 12
f 2 12 16
f 2 16 13
f 2 13 6
f 3 8 15
f 3 15 9
f 3 9 7
f 4 7 9
f 4 9 10
f 4 10 11
f 4 11 12
f 4 12 5
f 6 13 14
f 8 14 13
f 8 13 16
f 8 16 15
f 9 15 16
f 9 16 12
f 9 12 11
f 9 11 10

