# https://github.com/mikedh/trimesh
v 0.03089641 -0.01810120 0.00550020
v 0.03013175 -0.01754211 0.00500000
v 0.03139377 -0.01676890 0.00500000
v 0.03154490 -0.01770380 0.00550020
v 0.03089641 -0.01810120 0.01449980
v 0.03001464 -0.01744289 0.00500000
v 0.03013175 -0.01754211 0.01500000
v 0.03135882 -0.01661929 0.00500000
v 0.03139377 -0.01676890 0.01500000
v 0.03154490 -0.01770380 0.01449980
v 0.02958510 -0.01703417 0.00500000
v 0.03001464 -0.01744289 0.01500000
v 0.03118965 -0.01605095 0.00500000
v 0.03135882 -0.01661929 0.01500000
v 0.02918101 -0.01662700 0.00500000
v 0.02958510 -0.01703417 0.01500000
v 0.02918055 -0.01662700 0.01487275
v 0.03101468 -0.01547515 0.00500000
v 0.03118965 -0.01605095 0.01500000
v 0.02918055 -0.01662623 0.00500000
v 0.02918055 -0.01662700 0.01500000
v 0.02918055 -0.01547515 0.00500000
v 0.03101468 -0.01547515 0.01500000
v 0.02918055 -0.01547515 0.01500000
f 1 2 3
f 1 3 4
f 1 4 10
f 1 10 5
f 1 5 7
f 1 7 2
f 2 6 11
f 2 11 15
f 2 15 20
f 2 20 22
f 2 22 18
f 2 18 13
f 2 13 8
f 2 8 3
f 2 7 12
f 2 12 6
f 3 8 14
f 3 14 9
f 3 9 10
f 3 10 4
f 5 10 9
f 5 9 7
f 6 12 16
f 6 16 11
f 7 9 14
f 7 14 19
f 7 19 23
f 7 23 24
f 7 24 21
f 7 21 16
f 7 16 12
f 8 13 19
f 8 19 14
f 11 16 21
f 11 21 17
f 11 17 15
f 13 18 23
f 13 23 19
f 15 17 20
f 17 21 24
f 17 24 22
f 17 22 20
f 18 22 24
f 18 24 23

