# https://github.com/mikedh/trimesh
v 0.01153388 0.00874897 0.01501127
v 0.00808616 0.00874897 0.01501127
v 0.01153388 0.00593459 0.01501127
v 0.01153388 0.00874897 0.00500000
v 0.00783505 0.00841866 0.01501127
v 0.00364450 0.00874897 0.01499951
v 0.00649311 0.00593459 0.01501127
v 0.01153388 0.00593459 0.00500000
v 0.00364450 0.00874897 0.00500000
v 0.00699856 0.00702744 0.01501127
v 0.00328600 0.00821259 0.01499951
v 0.00328600 0.00593459 0.01499951
v 0.00329166 0.00593459 0.00500000
v 0.00328600 0.00821259 0.00500000
v 0.00328600 0.00593459 0.00505096
v 0.00328600 0.00593651 0.00500000
f 1 2 5
f 1 5 10
f 1 10 7
f 1 7 3
f 1 3 8
f 1 8 4
f 1 4 9
f 1 9 6
f 1 6 2
f 2 6 5
f 3 7 12
f 3 12 15
f 3 15 13
f 3 13 8
f 4 8 13
f 4 13 16
f 4 16 14
f 4 14 9
f 5 6 11
f 5 11 10
f 6 9 14
f 6 14 11
f 7 10 11
f 7 11 12
f 11 14 16
f 11 16 15
f 11 15 12
f 13 15 16

