# https://github.com/mikedh/trimesh
v 0.02405982 0.00323797 0.00500000
v 0.02439434 0.00279752 0.00500000
v 0.02405982 0.00323797 0.01501127
v 0.03875842 0.00323797 0.00500000
v 0.02439434 0.00279752 0.01501127
v 0.03879014 0.00279752 0.00500000
v 0.03487253 0.00323797 0.01501127
v 0.03875842 0.00323797 0.01499951
v 0.03497058 0.00279752 0.01501127
v 0.03879014 0.00279752 0.01499951
f 1 2 5
f 1 5 3
f 1 3 7
f 1 7 8
f 1 8 4
f 1 4 6
f 1 6 2
f 2 6 10
f 2 10 9
f 2 9 5
f 3 5 9
f 3 9 7
f 4 8 10
f 4 10 6
f 7 9 8
f 8 9 10

