# https://github.com/mikedh/trimesh
v 0.00220574 -0.00332497 0.01500000
v 0.00169963 -0.00332497 0.01500000
v 0.00220574 -0.00545583 0.01500000
v 0.00220574 -0.00332497 0.00500000
v 0.00116462 -0.00361427 0.01500000
v 0.00169963 -0.00332497 0.00500000
v 0.00160400 -0.00544415 0.01500000
v 0.00220574 -0.00545583 0.00500000
v 0.00064333 -0.00389648 0.01500000
v 0.00116462 -0.00361427 0.00500000
v 0.00101117 -0.00542955 0.01500000
v 0.00160400 -0.00544415 0.00500000
v 0.00051301 -0.00397741 0.01500000
v 0.00064333 -0.00389648 0.00500000
v 0.00085845 -0.00541662 0.01500000
v 0.00101117 -0.00542955 0.00500000
v 0.00051301 -0.00397741 0.00500000
v -0.00025519 -0.00453161 0.01449980
v -0.00007765 -0.00527124 0.01449980
v 0.00085845 -0.00541662 0.00500000
v -0.00025519 -0.00453161 0.00550020
v -0.00007765 -0.00527124 0.00550020
f 1 2 5
f 1 5 9
f 1 9 13
f 1 13 15
f 1 15 11
f 1 11 7
f 1 7 3
f 1 3 8
f 1 8 4
f 1 4 6
f 1 6 2
f 2 6 10
f 2 10 5
f 3 7 12
f 3 12 8
f 4 8 12
f 4 12 16
f 4 16 20
f 4 20 17
f 4 17 14
f 4 14 10
f 4 10 6
f 5 10 14
f 5 14 9
f 7 11 16
f 7 16 12
f 9 14 17
f 9 17 13
f 11 15 20
f 11 20 16
f 13 17 21
f 13 21 18
f 13 18 15
f 15 18 19
f 15 19 22
f 15 22 20
f 17 20 21
f 18 21 22
f 18 22 19
f 20 22 21

