# https://github.com/mikedh/trimesh
v 0.02793349 -0.01954380 0.00550076
v 0.02863609 -0.01925249 0.00550076
v 0.02793349 -0.01954380 0.01449973
v 0.02726595 -0.01887194 0.00500000
v 0.02863609 -0.01925249 0.01449973
v 0.02863347 -0.01830479 0.00500000
v 0.02864223 -0.01676636 0.00500000
v 0.02863522 -0.01893684 0.01466632
v 0.02726595 -0.01887194 0.01499951
v 0.02716561 -0.01875541 0.00500000
v 0.02864223 -0.01676636 0.01499951
v 0.02864223 -0.01200947 0.00500000
v 0.02863347 -0.01830479 0.01499951
v 0.02654736 -0.01361427 0.01501127
v 0.02716561 -0.01875541 0.01499951
v 0.02640408 -0.01778854 0.00500000
v 0.02864223 -0.01240624 0.01501029
v 0.02864223 -0.01200947 0.01501029
v 0.02640408 -0.01200947 0.00500000
v 0.02798213 -0.01285391 0.01501127
v 0.02640408 -0.01332149 0.01501127
v 0.02640408 -0.01778854 0.01499951
v 0.02751110 -0.01200947 0.01501127
v 0.02640408 -0.01200947 0.01501127
f 1 2 5
f 1 5 3
f 1 3 9
f 1 9 4
f 1 4 2
f 2 4 6
f 2 6 7
f 2 7 11
f 2 11 5
f 3 5 8
f 3 8 9
f 4 10 16
f 4 16 19
f 4 19 12
f 4 12 7
f 4 7 6
f 4 9 15
f 4 15 10
f 5 11 8
f 7 12 18
f 7 18 17
f 7 17 11
f 8 13 9
f 8 11 13
f 9 13 14
f 9 14 15
f 10 15 22
f 10 22 16
f 11 17 13
f 12 19 24
f 12 24 23
f 12 23 18
f 13 17 20
f 13 20 14
f 14 20 23
f 14 23 24
f 14 24 21
f 14 21 22
f 14 22 15
f 16 22 21
f 16 21 24
f 16 24 19
f 17 18 20
f 18 23 20

