# https://github.com/mikedh/trimesh
v 0.01579986 -0.01430762 0.01501127
v 0.01545876 -0.01421377 0.01501127
v 0.01579986 -0.00227196 0.01501127
v 0.01579986 -0.01430762 0.03000000
v 0.01395007 -0.01361283 0.01501127
v 0.01545979 -0.01421377 0.03000000
v 0.01525678 0.00000013 0.01501127
v 0.01579986 -0.00227196 0.03000000
v 0.01395110 -0.01361283 0.03000000
v 0.01251557 -0.01285220 0.01501127
v 0.00527303 0.00000013 0.01501127
v 0.01525678 0.00000013 0.03000000
v 0.01251660 -0.01285220 0.03000000
v 0.01117074 -0.01194028 0.01501127
v 0.00527200 -0.00081093 0.01501127
v 0.00527200 0.00000013 0.02251297
v 0.00527200 0.00000013 0.03000000
v 0.01117177 -0.01194028 0.03000000
v 0.00993410 -0.01088828 0.01501127
v 0.00993513 -0.01088968 0.03000000
v 0.00544822 -0.00242605 0.01501127
v 0.00527200 -0.00081233 0.03000000
v 0.00881701 -0.00970880 0.01501127
v 0.00881804 -0.00971020 0.03000000
v 0.00579654 -0.00401176 0.01501127
v 0.00544822 -0.00242745 0.03000000
v 0.00783492 -0.00841727 0.03000000
v 0.00783492 -0.00841587 0.01501127
v 0.00631592 -0.00555123 0.01501127
v 0.00631592 -0.00555263 0.03000000
v 0.00579757 -0.00401316 0.03000000
v 0.00699813 -0.00702627 0.03000000
v 0.00699710 -0.00702627 0.01501127
f 1 2 5
f 1 5 10
f 1 10 14
f 1 14 19
f 1 19 23
f 1 23 28
f 1 28 33
f 1 33 29
f 1 29 25
f 1 25 21
f 1 21 15
f 1 15 11
f 1 11 7
f 1 7 3
f 1 3 8
f 1 8 4
f 1 4 2
f 2 4 6
f 2 6 9
f 2 9 5
f 3 7 12
f 3 12 8
f 4 8 12
f 4 12 17
f 4 17 22
f 4 22 26
f 4 26 31
f 4 31 30
f 4 30 32
f 4 32 27
f 4 27 24
f 4 24 20
f 4 20 18
f 4 18 13
f 4 13 9
f 4 9 6
f 5 9 13
f 5 13 10
f 7 11 16
f 7 16 17
f 7 17 12
f 10 13 18
f 10 18 14
f 11 15 16
f 14 18 20
f 14 20 19
f 15 21 26
f 15 26 22
f 15 22 17
f 15 17 16
f 19 20 24
f 19 24 23
f 21 25 26
f 23 24 27
f 23 27 28
f 25 29 30
f 25 30 31
f 25 31 26
f 27 32 33
f 27 33 28
f 29 33 30
f 30 33 32

