# https://github.com/mikedh/trimesh
v 0.00254635 -0.01129464 0.00550020
v 0.00214882 -0.01064636 0.00550020
v 0.00348120 -0.01114400 0.00500000
v 0.00285762 -0.01124451 0.00533379
v 0.00254635 -0.01129464 0.01449980
v 0.00360968 -0.00864177 0.00500000
v 0.00233497 -0.01039156 0.00533379
v 0.00270803 -0.00988197 0.00500000
v 0.00214882 -0.01064636 0.01449980
v 0.00363053 -0.01110867 0.00500000
v 0.00348120 -0.01114400 0.01500000
v 0.00285762 -0.01124451 0.01466621
v 0.00477909 -0.00864177 0.00500000
v 0.00360968 -0.00864177 0.01500000
v 0.00270803 -0.00988197 0.01500000
v 0.00233497 -0.01039156 0.01466621
v 0.00419902 -0.01093959 0.00500000
v 0.00363053 -0.01110867 0.01500000
v 0.00477909 -0.01076531 0.00500000
v 0.00477909 -0.00864177 0.01500000
v 0.00419902 -0.01093959 0.01500000
v 0.00477909 -0.01076531 0.01500000
f 1 2 3
f 1 3 4
f 1 4 12
f 1 12 5
f 1 5 9
f 1 9 2
f 2 6 7
f 2 7 8
f 2 8 3
f 2 9 14
f 2 14 6
f 3 10 18
f 3 18 11
f 3 11 12
f 3 12 4
f 3 8 6
f 3 6 13
f 3 13 19
f 3 19 17
f 3 17 10
f 5 12 11
f 5 11 9
f 6 8 7
f 6 14 20
f 6 20 13
f 9 11 15
f 9 15 16
f 9 16 14
f 10 17 21
f 10 21 18
f 11 18 21
f 11 21 22
f 11 22 20
f 11 20 14
f 11 14 15
f 13 20 22
f 13 22 19
f 14 16 15
f 17 19 22
f 17 22 21

