# https://github.com/mikedh/trimesh
v 0.02489615 0.00185065 0.00500000
v 0.02489475 0.00185102 0.01500441
v 0.02489615 0.00185102 0.00500000
v 0.02524323 -0.00000214 0.00500000
v 0.02489475 0.00185102 0.01501127
v 0.03925009 0.00185102 0.00500000
v 0.02524323 -0.00000214 0.01501127
v 0.03899856 -0.00000214 0.00500000
v 0.03511464 0.00185102 0.01501127
v 0.03925009 0.00185102 0.01499951
v 0.03925009 0.00048237 0.00500000
v 0.03522705 -0.00000214 0.01501127
v 0.03925009 0.00048219 0.01485643
v 0.03899856 -0.00000214 0.01499951
v 0.03522705 0.00081088 0.01501127
v 0.03925009 0.00048219 0.01499951
f 1 2 3
f 1 3 6
f 1 6 11
f 1 11 8
f 1 8 4
f 1 4 2
f 2 5 9
f 2 9 10
f 2 10 6
f 2 6 3
f 2 4 7
f 2 7 5
f 4 8 14
f 4 14 12
f 4 12 7
f 5 7 12
f 5 12 15
f 5 15 9
f 6 10 16
f 6 16 13
f 6 13 11
f 8 11 13
f 8 13 16
f 8 16 14
f 9 15 10
f 10 15 12
f 10 12 16
f 12 14 16

