# https://github.com/mikedh/trimesh
v 0.02026595 0.00499920 0.00500000
v 0.02026595 0.00499920 0.01501127
v 0.02026595 0.00565031 0.00500000
v 0.02218368 0.00460411 0.00500000
v 0.02026595 0.00565031 0.01501127
v 0.02218368 0.00460411 0.01501127
v 0.03812876 0.00565031 0.00500000
v 0.03983609 0.00460411 0.00500000
v 0.03413899 0.00565031 0.01501127
v 0.03450370 0.00460411 0.01501127
v 0.03812876 0.00565031 0.01499951
v 0.03963971 0.00541672 0.00500000
v 0.04057753 0.00527120 0.00550076
v 0.04070979 0.00460411 0.00548508
v 0.03418508 0.00555087 0.01501127
v 0.03963971 0.00541672 0.01499951
v 0.03983609 0.00460411 0.01499951
v 0.04057753 0.00527120 0.01449973
v 0.04073785 0.00460411 0.00550076
v 0.04073785 0.00460411 0.01449973
f 1 2 5
f 1 5 3
f 1 3 7
f 1 7 12
f 1 12 8
f 1 8 4
f 1 4 6
f 1 6 2
f 2 6 10
f 2 10 15
f 2 15 9
f 2 9 5
f 3 5 9
f 3 9 11
f 3 11 7
f 4 8 14
f 4 14 19
f 4 19 20
f 4 20 17
f 4 17 10
f 4 10 6
f 7 11 16
f 7 16 12
f 8 12 13
f 8 13 14
f 9 15 16
f 9 16 11
f 10 17 16
f 10 16 15
f 12 16 18
f 12 18 13
f 13 18 20
f 13 20 19
f 13 19 14
f 16 17 18
f 17 20 18

