# https://github.com/mikedh/trimesh
v 0.01203504 0.01695824 0.00500000
v 0.01187784 0.01815257 0.00500000
v 0.01401935 0.01695824 0.00500000
v 0.01203504 0.01695824 0.01500000
v 0.01186644 0.01830544 0.00500000
v 0.01187784 0.01815257 0.01500000
v 0.01401935 0.01782659 0.00500000
v 0.01401935 0.01695824 0.01500000
v 0.01186370 0.01925275 0.00550020
v 0.01323398 0.01887185 0.00500000
v 0.01186644 0.01830544 0.01500000
v 0.01369461 0.01828468 0.00500000
v 0.01401935 0.01782659 0.01500000
v 0.01256635 0.01954355 0.00550020
v 0.01186370 0.01925275 0.01449980
v 0.01333421 0.01875568 0.00500000
v 0.01278876 0.01932007 0.00533379
v 0.01323398 0.01887185 0.01500000
v 0.01369461 0.01828468 0.01500000
v 0.01256635 0.01954355 0.01449980
v 0.01333421 0.01875568 0.01500000
v 0.01278876 0.01932007 0.01466621
f 1 2 5
f 1 5 10
f 1 10 16
f 1 16 12
f 1 12 7
f 1 7 3
f 1 3 8
f 1 8 4
f 1 4 6
f 1 6 2
f 2 6 11
f 2 11 5
f 3 7 13
f 3 13 8
f 4 8 13
f 4 13 19
f 4 19 21
f 4 21 18
f 4 18 11
f 4 11 6
f 5 9 10
f 5 11 15
f 5 15 9
f 7 12 19
f 7 19 13
f 9 14 10
f 9 15 20
f 9 20 14
f 10 14 17
f 10 17 22
f 10 22 18
f 10 18 21
f 10 21 16
f 11 18 15
f 12 16 21
f 12 21 19
f 14 20 22
f 14 22 17
f 15 18 20
f 18 22 20

