# https://github.com/mikedh/trimesh
v 0.01953434 -0.01496121 0.02161946
v 0.01953434 -0.01496121 0.03000000
v 0.01862819 -0.01491209 0.03000000
v 0.01862690 -0.01491102 0.01501127
v 0.01953434 -0.01496014 0.01501127
v 0.01953434 -0.00494267 0.03000000
v 0.01732994 -0.01469852 0.03000000
v 0.01732994 -0.01469852 0.01501127
v 0.01953434 -0.00494267 0.01501127
v 0.01732994 -0.00405209 0.03000000
v 0.01732994 -0.00405209 0.01501127
f 1 2 3
f 1 3 4
f 1 4 5
f 1 5 9
f 1 9 6
f 1 6 2
f 2 6 10
f 2 10 7
f 2 7 3
f 3 7 8
f 3 8 4
f 4 8 11
f 4 11 9
f 4 9 5
f 6 9 11
f 6 11 10
f 7 10 11
f 7 11 8

