# https://github.com/mikedh/trimesh
v 0.02644004 0.01365724 0.01501127
v 0.02654941 0.01361358 0.01501127
v 0.02726595 0.01887143 0.01499951
v 0.02716562 0.01875572 0.01499951
v 0.02680541 0.01828419 0.01499951
v 0.02644004 0.01780283 0.01499951
v 0.02644004 0.00839284 0.01501127
v 0.02798421 0.01285279 0.01501127
v 0.02863357 0.01830493 0.01499951
v 0.02771120 0.01932004 0.01466632
v 0.02726595 0.01887143 0.00500000
v 0.02716562 0.01875572 0.00500000
v 0.02680541 0.01828419 0.00500000
v 0.02644004 0.01780283 0.01391665
v 0.02644004 0.00839284 0.00500000
v 0.02863938 0.00839284 0.01501127
v 0.02863938 0.01240854 0.01501127
v 0.02863529 0.01893692 0.01466632
v 0.02863938 0.01676807 0.01499951
v 0.02793361 0.01954380 0.01449973
v 0.02771120 0.01932004 0.00533417
v 0.02793361 0.01954380 0.00550076
v 0.02863357 0.01830493 0.00500000
v 0.02644004 0.01780174 0.00500000
v 0.02863938 0.00839284 0.00500000
v 0.02863615 0.01925237 0.01449973
v 0.02863938 0.01676807 0.00500000
v 0.02863615 0.01925237 0.00550076
f 1 2 3
f 1 3 4
f 1 4 5
f 1 5 6
f 1 6 14
f 1 14 24
f 1 24 15
f 1 15 7
f 1 7 16
f 1 16 17
f 1 17 8
f 1 8 2
f 2 8 9
f 2 9 3
f 3 10 21
f 3 21 11
f 3 11 12
f 3 12 4
f 3 9 10
f 4 12 13
f 4 13 5
f 5 13 14
f 5 14 6
f 7 15 25
f 7 25 16
f 8 17 9
f 9 18 10
f 9 17 19
f 9 19 18
f 10 20 22
f 10 22 21
f 10 18 20
f 11 21 22
f 11 22 23
f 11 23 27
f 11 27 25
f 11 25 15
f 11 15 24
f 11 24 13
f 11 13 12
f 13 24 14
f 16 25 27
f 16 27 19
f 16 19 17
f 18 26 20
f 18 19 26
f 19 27 28
f 19 28 26
f 20 26 28
f 20 28 22
f 22 28 23
f 23 28 27

