# https://github.com/mikedh/trimesh
v 0.03359688 -0.01621290 0.00550020
v 0.03275440 -0.01578018 0.00500000
v 0.03387980 -0.01481903 0.00500000
v 0.03417530 -0.01571884 0.00550020
v 0.03359688 -0.01621290 0.01449980
v 0.03262307 -0.01570070 0.00500000
v 0.03275440 -0.01578018 0.01500000
v 0.03382182 -0.01467702 0.00500000
v 0.03387980 -0.01481903 0.01500000
v 0.03417530 -0.01571884 0.01449980
v 0.03213477 -0.01536417 0.00500000
v 0.03262307 -0.01570070 0.01500000
v 0.03356568 -0.01414191 0.00500000
v 0.03382182 -0.01467702 0.01500000
v 0.03179642 -0.01508014 0.00500000
v 0.03213477 -0.01536417 0.01500000
v 0.03334353 -0.01377459 0.00500000
v 0.03356568 -0.01414191 0.01500000
v 0.03179642 -0.01377459 0.00500000
v 0.03179642 -0.01508014 0.01500000
v 0.03334353 -0.01377459 0.01500000
v 0.03179642 -0.01377459 0.01500000
f 1 2 3
f 1 3 4
f 1 4 10
f 1 10 5
f 1 5 7
f 1 7 2
f 2 6 11
f 2 11 15
f 2 15 19
f 2 19 17
f 2 17 13
f 2 13 8
f 2 8 3
f 2 7 12
f 2 12 6
f 3 8 14
f 3 14 9
f 3 9 10
f 3 10 4
f 5 10 9
f 5 9 7
f 6 12 16
f 6 16 11
f 7 9 14
f 7 14 18
f 7 18 21
f 7 21 22
f 7 22 20
f 7 20 16
f 7 16 12
f 8 13 18
f 8 18 14
f 11 16 20
f 11 20 15
f 13 17 21
f 13 21 18
f 15 20 22
f 15 22 19
f 17 19 22
f 17 22 21

