# https://github.com/mikedh/trimesh
v 0.03925677 -0.00248224 0.00500000
v 0.03925677 -0.00048393 0.00500000
v 0.03951800 -0.00246033 0.00500000
v 0.03925677 -0.00248224 0.01500000
v 0.03928739 -0.00049136 0.00500000
v 0.03925677 -0.00048393 0.01500000
v 0.04010132 -0.00235312 0.00500000
v 0.03951800 -0.00246033 0.01500000
v 0.03966575 -0.00058409 0.00500000
v 0.03928739 -0.00049136 0.01500000
v 0.04025022 -0.00231635 0.00500000
v 0.04010132 -0.00235312 0.01500000
v 0.04022495 -0.00078128 0.00500000
v 0.03966575 -0.00058409 0.01500000
v 0.04036638 -0.00084075 0.00500000
v 0.04121170 -0.00126839 0.00550020
v 0.04115199 -0.00202624 0.00550020
v 0.04025022 -0.00231635 0.01500000
v 0.04022495 -0.00078128 0.01500000
v 0.04036638 -0.00084075 0.01500000
v 0.04121170 -0.00126839 0.01449980
v 0.04115199 -0.00202624 0.01449980
f 1 2 5
f 1 5 9
f 1 9 13
f 1 13 15
f 1 15 11
f 1 11 7
f 1 7 3
f 1 3 8
f 1 8 4
f 1 4 6
f 1 6 2
f 2 6 10
f 2 10 5
f 3 7 12
f 3 12 8
f 4 8 12
f 4 12 18
f 4 18 20
f 4 20 19
f 4 19 14
f 4 14 10
f 4 10 6
f 5 10 14
f 5 14 9
f 7 11 18
f 7 18 12
f 9 14 19
f 9 19 13
f 11 15 16
f 11 16 17
f 11 17 22
f 11 22 18
f 13 19 20
f 13 20 15
f 15 20 21
f 15 21 16
f 16 21 22
f 16 22 17
f 18 22 21
f 18 21 20

