# https://github.com/mikedh/trimesh
v 0.00477909 -0.01076537 0.00500000
v 0.00477909 -0.00864151 0.00500000
v 0.00523163 -0.01130246 0.00500000
v 0.00477909 -0.01076537 0.01499951
v 0.00477909 -0.00864151 0.01499951
v 0.01772909 -0.00864151 0.00500000
v 0.00523163 -0.01130246 0.01499951
v 0.01772909 -0.01130246 0.00500000
v 0.00881772 -0.00970995 0.01501127
v 0.00800518 -0.00864151 0.01501127
v 0.01772909 -0.00864151 0.01501127
v 0.01042126 -0.01130246 0.01501127
v 0.00993450 -0.01088884 0.01501127
v 0.01772909 -0.01130246 0.01501127
f 1 2 6
f 1 6 8
f 1 8 3
f 1 3 7
f 1 7 4
f 1 4 5
f 1 5 2
f 2 5 10
f 2 10 11
f 2 11 6
f 3 8 14
f 3 14 12
f 3 12 7
f 4 7 9
f 4 9 10
f 4 10 5
f 6 11 14
f 6 14 8
f 7 12 13
f 7 13 9
f 9 13 12
f 9 12 14
f 9 14 11
f 9 11 10

