# https://github.com/mikedh/trimesh
v 0.02524324 0.00000153 0.01501127
v 0.03522698 0.00000153 0.01501127
v 0.02524324 0.00000153 0.03000000
v 0.02483954 0.00197089 0.01501127
v 0.03522800 0.00081162 0.01501127
v 0.03522800 0.00000153 0.02248656
v 0.03522800 0.00000153 0.03000000
v 0.02483954 0.00197089 0.03000000
v 0.02483954 0.01426893 0.01501127
v 0.03505208 0.00242622 0.01501127
v 0.03522800 0.00081302 0.03000000
v 0.02483954 0.01427032 0.03000000
v 0.02483954 0.01427032 0.02808239
v 0.02504088 0.01421306 0.01501127
v 0.03470329 0.00401288 0.01501127
v 0.03505208 0.00242762 0.03000000
v 0.02503986 0.01421445 0.03000000
v 0.02654993 0.01361247 0.01501127
v 0.03418468 0.00555206 0.01501127
v 0.03418468 0.00555345 0.03000000
v 0.03470227 0.00401428 0.03000000
v 0.02654891 0.01361247 0.03000000
v 0.02798475 0.01285126 0.01501127
v 0.02798373 0.01285266 0.03000000
v 0.03350235 0.00702559 0.01501127
v 0.03350235 0.00702698 0.03000000
v 0.02932907 0.01194061 0.01501127
v 0.02932805 0.01194061 0.03000000
v 0.03266546 0.00841671 0.01501127
v 0.03266444 0.00841671 0.03000000
v 0.03056560 0.01088889 0.01501127
v 0.03056458 0.01088889 0.03000000
v 0.03168213 0.00970867 0.01501127
v 0.03168213 0.00971006 0.03000000
f 1 2 6
f 1 6 7
f 1 7 3
f 1 3 8
f 1 8 4
f 1 4 9
f 1 9 14
f 1 14 18
f 1 18 23
f 1 23 27
f 1 27 31
f 1 31 33
f 1 33 29
f 1 29 25
f 1 25 19
f 1 19 15
f 1 15 10
f 1 10 5
f 1 5 2
f 2 5 6
f 3 7 11
f 3 11 16
f 3 16 21
f 3 21 20
f 3 20 26
f 3 26 30
f 3 30 34
f 3 34 32
f 3 32 28
f 3 28 24
f 3 24 22
f 3 22 17
f 3 17 12
f 3 12 8
f 4 8 12
f 4 12 13
f 4 13 9
f 5 10 16
f 5 16 11
f 5 11 7
f 5 7 6
f 9 13 14
f 10 15 16
f 12 17 13
f 13 17 14
f 14 17 18
f 15 19 20
f 15 20 21
f 15 21 16
f 17 22 18
f 18 22 24
f 18 24 23
f 19 25 26
f 19 26 20
f 23 24 27
f 24 28 27
f 25 29 26
f 26 29 30
f 27 28 32
f 27 32 31
f 29 33 34
f 29 34 30
f 31 32 34
f 31 34 33

