# https://github.com/mikedh/trimesh
v 0.02576068 -0.01796854 0.00500000
v 0.02576068 -0.01201005 0.00500000
v 0.02640408 -0.01778887 0.00500000
v 0.02576068 -0.01796854 0.01499951
v 0.02640408 -0.01201005 0.00500000
v 0.02576068 -0.01201005 0.01501127
v 0.02640408 -0.01778887 0.01499951
v 0.02576068 -0.01392757 0.01501127
v 0.02640408 -0.01201005 0.01501127
v 0.02640408 -0.01332146 0.01501127
f 1 2 5
f 1 5 3
f 1 3 7
f 1 7 4
f 1 4 8
f 1 8 6
f 1 6 2
f 2 6 9
f 2 9 5
f 3 5 9
f 3 9 10
f 3 10 7
f 4 7 8
f 6 8 10
f 6 10 9
f 7 10 8

