# https://github.com/mikedh/trimesh
v 0.00220574 -0.00545568 0.00500000
v 0.00220574 -0.00332497 0.00500000
v 0.00246558 -0.00594155 0.00500000
v 0.00220574 -0.00545568 0.01499951
v 0.00220574 -0.00332497 0.01499951
v 0.01652108 -0.00332497 0.00500000
v 0.00246558 -0.00594155 0.01499951
v 0.01772758 -0.00594155 0.00500000
v 0.00649685 -0.00594155 0.01501127
v 0.00631603 -0.00555070 0.01501127
v 0.00579787 -0.00401190 0.01501127
v 0.00564592 -0.00332497 0.01501127
v 0.01652108 -0.00332497 0.01501127
v 0.01772909 -0.00431464 0.00500000
v 0.01772909 -0.00594001 0.00500000
v 0.01772909 -0.00594155 0.00506468
v 0.01772909 -0.00594155 0.01501127
v 0.01772909 -0.00431464 0.01501127
f 1 2 6
f 1 6 14
f 1 14 15
f 1 15 8
f 1 8 3
f 1 3 7
f 1 7 4
f 1 4 5
f 1 5 2
f 2 5 12
f 2 12 13
f 2 13 6
f 3 8 16
f 3 16 17
f 3 17 9
f 3 9 7
f 4 7 9
f 4 9 10
f 4 10 11
f 4 11 12
f 4 12 5
f 6 13 18
f 6 18 14
f 8 15 16
f 9 17 18
f 9 18 13
f 9 13 12
f 9 12 11
f 9 11 10
f 14 18 17
f 14 17 16
f 14 16 15

