# https://github.com/mikedh/trimesh
v 0.02918336 0.01547150 0.00500000
v 0.02918336 0.01662816 0.00500000
v 0.03101531 0.01547150 0.00500000
v 0.02918336 0.01547150 0.01500000
v 0.02958512 0.01703413 0.00500000
v 0.02918336 0.01662816 0.01500000
v 0.03118961 0.01605099 0.00500000
v 0.03101531 0.01547150 0.01500000
v 0.03001462 0.01744294 0.00500000
v 0.02958512 0.01703413 0.01500000
v 0.03135882 0.01661940 0.00500000
v 0.03118961 0.01605099 0.01500000
v 0.03013182 0.01754205 0.00500000
v 0.03001462 0.01744294 0.01500000
v 0.03139395 0.01676872 0.00500000
v 0.03135882 0.01661940 0.01500000
v 0.03089649 0.01810120 0.00550020
v 0.03013182 0.01754205 0.01500000
v 0.03154490 0.01770372 0.00550020
v 0.03139395 0.01676872 0.01500000
v 0.03089649 0.01810120 0.01449980
v 0.03154490 0.01770372 0.01449980
f 1 2 5
f 1 5 9
f 1 9 13
f 1 13 15
f 1 15 11
f 1 11 7
f 1 7 3
f 1 3 8
f 1 8 4
f 1 4 6
f 1 6 2
f 2 6 10
f 2 10 5
f 3 7 12
f 3 12 8
f 4 8 12
f 4 12 16
f 4 16 20
f 4 20 18
f 4 18 14
f 4 14 10
f 4 10 6
f 5 10 14
f 5 14 9
f 7 11 16
f 7 16 12
f 9 14 18
f 9 18 13
f 11 15 20
f 11 20 16
f 13 17 15
f 13 18 21
f 13 21 17
f 15 17 19
f 15 19 22
f 15 22 20
f 17 21 22
f 17 22 19
f 18 20 21
f 20 22 21

