# https://github.com/mikedh/trimesh
v 0.02347276 0.01464939 0.01501127
v 0.02504044 0.01421545 0.01501127
v 0.02566646 0.01939071 0.01499951
v 0.02422751 0.01973691 0.01499951
v 0.02414652 0.01960649 0.01499951
v 0.02347276 0.01850386 0.01499951
v 0.02347276 0.00839284 0.01501127
v 0.02589873 0.01387281 0.01501127
v 0.02566646 0.01939071 0.00500000
v 0.02556957 0.02001554 0.01466632
v 0.02589873 0.01787904 0.01499951
v 0.02459728 0.02024911 0.01466632
v 0.02478157 0.02050520 0.01449973
v 0.02422751 0.01973691 0.00500000
v 0.02414652 0.01960649 0.00500000
v 0.02347276 0.01850386 0.00500000
v 0.02347276 0.00839284 0.00500000
v 0.02589873 0.00839284 0.01501127
v 0.02552112 0.02032736 0.00550076
v 0.02556957 0.02001554 0.00533417
v 0.02589873 0.01787904 0.00500000
v 0.02552112 0.02032736 0.01449973
v 0.02478157 0.02050520 0.00550076
v 0.02589873 0.00839284 0.00500000
f 1 2 3
f 1 3 4
f 1 4 5
f 1 5 6
f 1 6 16
f 1 16 17
f 1 17 7
f 1 7 18
f 1 18 8
f 1 8 2
f 2 8 3
f 3 9 20
f 3 20 10
f 3 10 4
f 3 8 11
f 3 11 21
f 3 21 9
f 4 10 12
f 4 12 13
f 4 13 23
f 4 23 14
f 4 14 15
f 4 15 5
f 5 15 16
f 5 16 6
f 7 17 24
f 7 24 18
f 8 18 24
f 8 24 21
f 8 21 11
f 9 14 19
f 9 19 20
f 9 21 24
f 9 24 17
f 9 17 16
f 9 16 15
f 9 15 14
f 10 20 19
f 10 19 22
f 10 22 13
f 10 13 12
f 13 22 19
f 13 19 23
f 14 23 19

