# https://github.com/mikedh/trimesh
v 0.01457050 0.01385869 0.01501127
v 0.01457050 0.01695658 0.01499951
v 0.01203511 0.01695658 0.01499951
v 0.01395270 0.01361298 0.01501127
v 0.01457050 -0.00000214 0.01501127
v 0.01457050 0.01695658 0.00500000
v 0.01203511 0.01695658 0.00500000
v 0.01153469 0.01661293 0.01499951
v 0.01153469 0.01218689 0.01501127
v 0.01251800 0.01285262 0.01501127
v 0.01153469 -0.00000214 0.01501127
v 0.01457050 -0.00000214 0.00500000
v 0.01153469 0.01661293 0.00500000
v 0.01153469 -0.00000214 0.00500000
f 1 2 3
f 1 3 4
f 1 4 10
f 1 10 9
f 1 9 11
f 1 11 5
f 1 5 12
f 1 12 6
f 1 6 2
f 2 6 7
f 2 7 3
f 3 7 13
f 3 13 8
f 3 8 9
f 3 9 10
f 3 10 4
f 5 11 14
f 5 14 12
f 6 12 14
f 6 14 13
f 6 13 7
f 8 13 14
f 8 14 11
f 8 11 9

