# https://github.com/mikedh/trimesh
v 0.00169976 -0.00332497 0.00500143
v 0.00169976 -0.00332497 0.01499898
v 0.00172297 -0.00287438 0.00500143
v 0.01652259 -0.00332497 0.00500143
v 0.00564777 -0.00332497 0.01501073
v 0.00554766 -0.00287438 0.01501073
v 0.00172297 -0.00287438 0.01499898
v 0.01616276 -0.00287438 0.00500143
v 0.01652259 -0.00332497 0.01501073
v 0.01616276 -0.00287438 0.01501073
f 1 2 7
f 1 7 3
f 1 3 8
f 1 8 4
f 1 4 9
f 1 9 5
f 1 5 2
f 2 5 6
f 2 6 7
f 3 7 6
f 3 6 10
f 3 10 8
f 4 8 10
f 4 10 9
f 5 9 10
f 5 10 6

