# https://github.com/mikedh/trimesh
v 0.00453121 -0.01392530 0.00550020
v 0.00403715 -0.01334687 0.00550020
v 0.00446967 -0.01250451 0.00500000
v 0.00543086 -0.01362979 0.00500000
v 0.00483092 -0.01382697 0.00533379
v 0.00453121 -0.01392530 0.01449980
v 0.00403715 -0.01334687 0.01449980
v 0.00454941 -0.01237306 0.00500000
v 0.00446967 -0.01250451 0.01500000
v 0.00557316 -0.01357177 0.00500000
v 0.00543086 -0.01362979 0.01500000
v 0.00483092 -0.01382697 0.01466621
v 0.00523062 -0.01130272 0.00500000
v 0.00454941 -0.01237306 0.01500000
v 0.00610798 -0.01331580 0.00500000
v 0.00557316 -0.01357177 0.01500000
v 0.00665639 -0.01130272 0.00500000
v 0.00523062 -0.01130272 0.01500000
v 0.00665639 -0.01305290 0.00500000
v 0.00610798 -0.01331580 0.01500000
v 0.00665639 -0.01130272 0.01500000
v 0.00665639 -0.01305290 0.01500000
f 1 2 3
f 1 3 4
f 1 4 5
f 1 5 12
f 1 12 6
f 1 6 7
f 1 7 2
f 2 7 9
f 2 9 3
f 3 8 13
f 3 13 17
f 3 17 19
f 3 19 15
f 3 15 10
f 3 10 4
f 3 9 14
f 3 14 8
f 4 10 16
f 4 16 11
f 4 11 12
f 4 12 5
f 6 12 11
f 6 11 9
f 6 9 7
f 8 14 18
f 8 18 13
f 9 11 16
f 9 16 20
f 9 20 22
f 9 22 21
f 9 21 18
f 9 18 14
f 10 15 20
f 10 20 16
f 13 18 21
f 13 21 17
f 15 19 22
f 15 22 20
f 17 21 22
f 17 22 19

