# https://github.com/mikedh/trimesh
v 0.01153469 0.01661307 0.01500000
v 0.01036813 0.01754211 0.01500000
v 0.01153469 0.01558528 0.01500000
v 0.01153469 0.01661307 0.00500000
v 0.01036813 0.01754211 0.00500000
v 0.00985833 0.01791500 0.01466621
v 0.00960356 0.01810120 0.01449980
v 0.00910613 0.01676873 0.01500000
v 0.00948841 0.01558528 0.01500000
v 0.01153469 0.01558528 0.00500000
v 0.00910613 0.01676873 0.00500000
v 0.00960356 0.01810120 0.00550020
v 0.00985833 0.01791500 0.00533379
v 0.00895538 0.01770368 0.01449980
v 0.00914122 0.01661923 0.01500000
v 0.00900538 0.01739236 0.01466621
v 0.00931040 0.01605102 0.01500000
v 0.00948841 0.01558528 0.00500000
v 0.00914122 0.01661923 0.00500000
v 0.00900538 0.01739236 0.00533379
v 0.00895538 0.01770368 0.00550020
v 0.00931040 0.01605102 0.00500000
f 1 2 8
f 1 8 15
f 1 15 17
f 1 17 9
f 1 9 3
f 1 3 10
f 1 10 4
f 1 4 5
f 1 5 2
f 2 5 13
f 2 13 6
f 2 6 7
f 2 7 8
f 3 9 18
f 3 18 10
f 4 10 18
f 4 18 22
f 4 22 19
f 4 19 11
f 4 11 5
f 5 11 12
f 5 12 13
f 6 13 12
f 6 12 7
f 7 14 8
f 7 12 21
f 7 21 14
f 8 14 16
f 8 16 20
f 8 20 11
f 8 11 19
f 8 19 15
f 9 17 22
f 9 22 18
f 11 20 21
f 11 21 12
f 14 21 20
f 14 20 16
f 15 19 22
f 15 22 17

