# https://github.com/mikedh/trimesh
v 0.02068255 -0.00497791 0.01501127
v 0.02068255 -0.00497791 0.00500000
v 0.02013606 -0.00499426 0.01501127
v 0.02068255 -0.01497553 0.01501127
v 0.02013606 -0.00499426 0.00500000
v 0.02068255 -0.01889908 0.00500000
v 0.02013606 -0.00975731 0.01501127
v 0.02024882 -0.01499870 0.01501127
v 0.02068255 -0.01889908 0.01499951
v 0.02013606 -0.01874917 0.00500000
v 0.02013606 -0.01499325 0.01501029
v 0.02013606 -0.01874917 0.01499951
f 1 2 5
f 1 5 3
f 1 3 7
f 1 7 8
f 1 8 4
f 1 4 9
f 1 9 6
f 1 6 2
f 2 6 10
f 2 10 5
f 3 5 10
f 3 10 12
f 3 12 11
f 3 11 7
f 4 8 9
f 6 9 12
f 6 12 10
f 7 11 8
f 8 11 12
f 8 12 9

