# https://github.com/mikedh/trimesh
v 0.00364383 0.00874921 0.00500000
v 0.00270800 0.00988188 0.00500000
v 0.00466513 0.00874921 0.00500000
v 0.00364383 0.00874921 0.01500000
v 0.00233505 0.01039176 0.00533379
v 0.00214882 0.01064645 0.00550020
v 0.00348125 0.01114388 0.00500000
v 0.00270800 0.00988188 0.01500000
v 0.00466513 0.01076159 0.00500000
v 0.00466513 0.00874921 0.01500000
v 0.00233505 0.01039176 0.01466621
v 0.00254640 0.01129490 0.00550020
v 0.00214882 0.01064645 0.01449980
v 0.00363053 0.01110874 0.00500000
v 0.00348125 0.01114388 0.01500000
v 0.00419907 0.01093953 0.00500000
v 0.00466513 0.01076159 0.01500000
v 0.00254640 0.01129490 0.01449980
v 0.00363053 0.01110874 0.01500000
v 0.00419907 0.01093953 0.01500000
f 1 2 7
f 1 7 14
f 1 14 16
f 1 16 9
f 1 9 3
f 1 3 10
f 1 10 4
f 1 4 8
f 1 8 2
f 2 5 6
f 2 6 7
f 2 8 11
f 2 11 5
f 3 9 17
f 3 17 10
f 4 10 17
f 4 17 20
f 4 20 19
f 4 19 15
f 4 15 8
f 5 11 13
f 5 13 6
f 6 12 7
f 6 13 18
f 6 18 12
f 7 12 18
f 7 18 15
f 7 15 19
f 7 19 14
f 8 15 13
f 8 13 11
f 9 16 20
f 9 20 17
f 13 15 18
f 14 19 20
f 14 20 16

