# https://github.com/mikedh/trimesh
v 0.00140634 0.00038482 0.00500000
v 0.00150054 -0.00000214 0.00500000
v 0.00140634 0.00038482 0.01499951
v 0.01153469 0.00038482 0.00500000
v 0.00150054 -0.00000214 0.01499951
v 0.01153469 -0.00000214 0.00500000
v 0.00527227 -0.00000214 0.01501127
v 0.00527227 0.00038482 0.01501127
v 0.01153469 0.00038482 0.01501127
v 0.01153469 -0.00000214 0.01501127
f 1 2 5
f 1 5 3
f 1 3 8
f 1 8 9
f 1 9 4
f 1 4 6
f 1 6 2
f 2 6 10
f 2 10 7
f 2 7 5
f 3 5 7
f 3 7 8
f 4 9 10
f 4 10 6
f 7 10 9
f 7 9 8

