# https://github.com/mikedh/trimesh
v 0.00895421 -0.01392693 0.01500000
v 0.00706469 -0.01392693 0.01500000
v 0.00895421 -0.01502057 0.01500000
v 0.00895421 -0.01392693 0.00500000
v 0.00693419 -0.01414199 0.01500000
v 0.00706469 -0.01392693 0.00500000
v 0.00787676 -0.01570065 0.01500000
v 0.00895421 -0.01502057 0.00500000
v 0.00667809 -0.01467684 0.01500000
v 0.00693419 -0.01414199 0.00500000
v 0.00774549 -0.01578032 0.01500000
v 0.00787676 -0.01570065 0.00500000
v 0.00662018 -0.01481894 0.01500000
v 0.00667809 -0.01467684 0.00500000
v 0.00690305 -0.01621290 0.01449980
v 0.00774549 -0.01578032 0.00500000
v 0.00632469 -0.01571878 0.01449980
v 0.00662018 -0.01481894 0.00500000
v 0.00690305 -0.01621290 0.00550020
v 0.00632469 -0.01571878 0.00550020
f 1 2 5
f 1 5 9
f 1 9 13
f 1 13 11
f 1 11 7
f 1 7 3
f 1 3 8
f 1 8 4
f 1 4 6
f 1 6 2
f 2 6 10
f 2 10 5
f 3 7 12
f 3 12 8
f 4 8 12
f 4 12 16
f 4 16 18
f 4 18 14
f 4 14 10
f 4 10 6
f 5 10 14
f 5 14 9
f 7 11 16
f 7 16 12
f 9 14 18
f 9 18 13
f 11 13 15
f 11 15 19
f 11 19 16
f 13 17 15
f 13 18 20
f 13 20 17
f 15 17 20
f 15 20 19
f 16 19 18
f 18 19 20

