# https://github.com/mikedh/trimesh
v 0.01432521 -0.01714689 0.01500000
v 0.01205383 -0.01714689 0.01500000
v 0.01432521 -0.01778952 0.01500000
v 0.01432521 -0.01714689 0.00502056
v 0.01205383 -0.01714689 0.01454385
v 0.01195599 -0.01756475 0.01500000
v 0.01323410 -0.01887207 0.01500000
v 0.01256637 -0.01954380 0.01449980
v 0.01432521 -0.01778952 0.00500000
v 0.01432521 -0.01715111 0.00500000
v 0.01432497 -0.01714689 0.00500000
v 0.01205455 -0.01714689 0.00500000
v 0.01205383 -0.01714877 0.00500000
v 0.01204515 -0.01718560 0.00500000
v 0.01195599 -0.01756475 0.00500000
v 0.01187792 -0.01815248 0.01500000
v 0.01186659 -0.01830569 0.01500000
v 0.01186370 -0.01925263 0.01449980
v 0.01256637 -0.01954380 0.00550020
v 0.01323410 -0.01887207 0.00500000
v 0.01187792 -0.01815248 0.00500000
v 0.01186659 -0.01830569 0.00500000
v 0.01186370 -0.01925263 0.00550020
f 1 2 6
f 1 6 16
f 1 16 17
f 1 17 7
f 1 7 3
f 1 3 9
f 1 9 10
f 1 10 4
f 1 4 11
f 1 11 12
f 1 12 5
f 1 5 2
f 2 5 15
f 2 15 6
f 3 7 8
f 3 8 19
f 3 19 9
f 4 10 11
f 5 12 13
f 5 13 14
f 5 14 15
f 6 15 21
f 6 21 16
f 7 17 8
f 8 17 18
f 8 18 23
f 8 23 19
f 9 19 20
f 9 20 22
f 9 22 21
f 9 21 15
f 9 15 14
f 9 14 13
f 9 13 12
f 9 12 11
f 9 11 10
f 16 21 22
f 16 22 17
f 17 22 23
f 17 23 18
f 19 23 22
f 19 22 20

