# https://github.com/mikedh/trimesh
v 0.02282693 -0.00565179 0.00500000
v 0.02282693 -0.00565179 0.01501127
v 0.02282693 -0.00428574 0.00500000
v 0.03812782 -0.00565179 0.00500000
v 0.02282693 -0.00428574 0.01501127
v 0.03110043 -0.00565179 0.01501127
v 0.02405374 -0.00324506 0.00500000
v 0.03964072 -0.00541665 0.00500000
v 0.04026553 -0.00531958 0.00533417
v 0.03812782 -0.00565179 0.01499951
v 0.02405374 -0.00324506 0.01501127
v 0.03413674 -0.00565179 0.01501029
v 0.03418413 -0.00555307 0.01501127
v 0.03876141 -0.00324506 0.00500000
v 0.03998647 -0.00397733 0.00500000
v 0.04075520 -0.00453171 0.00550076
v 0.04057618 -0.00527105 0.00550076
v 0.04026553 -0.00531958 0.01466632
v 0.03964072 -0.00541665 0.01499951
v 0.03487213 -0.00324506 0.01501127
v 0.03470188 -0.00401432 0.01501127
v 0.03876141 -0.00324506 0.01499951
v 0.03985659 -0.00389652 0.00500000
v 0.03998647 -0.00397733 0.01499951
v 0.04075520 -0.00453171 0.01449973
v 0.04057618 -0.00527105 0.01449973
v 0.04049896 -0.00434723 0.01466632
v 0.03985659 -0.00389652 0.01499951
f 1 2 5
f 1 5 3
f 1 3 7
f 1 7 14
f 1 14 23
f 1 23 15
f 1 15 8
f 1 8 4
f 1 4 10
f 1 10 12
f 1 12 6
f 1 6 2
f 2 6 13
f 2 13 21
f 2 21 20
f 2 20 11
f 2 11 5
f 3 5 11
f 3 11 7
f 4 8 9
f 4 9 18
f 4 18 10
f 6 12 13
f 7 11 20
f 7 20 22
f 7 22 14
f 8 15 16
f 8 16 9
f 9 16 17
f 9 17 26
f 9 26 18
f 10 18 19
f 10 19 12
f 12 19 13
f 13 19 21
f 14 22 28
f 14 28 23
f 15 24 25
f 15 25 16
f 15 23 28
f 15 28 24
f 16 25 26
f 16 26 17
f 18 26 25
f 18 25 27
f 18 27 24
f 18 24 19
f 19 24 21
f 20 21 24
f 20 24 28
f 20 28 22
f 24 27 25

