# https://github.com/mikedh/trimesh
v -0.00205304 -0.00573376 0.00500000
v -0.00061183 -0.00544230 0.00500000
v -0.00034962 -0.00539146 0.00514389
v -0.00205304 -0.00573376 0.01500000
v -0.00205304 -0.00316499 0.00500000
v -0.00042974 -0.00433687 0.00500000
v 0.00010610 -0.00528776 0.00539252
v -0.00034962 -0.00539146 0.01485611
v -0.00061183 -0.00544230 0.01500000
v -0.00205304 -0.00316272 0.01500000
v -0.00194257 -0.00316272 0.00500000
v -0.00205304 -0.00316272 0.00988939
v -0.00038045 -0.00398274 0.00500000
v -0.00014689 -0.00411211 0.00514389
v 0.00025444 -0.00435172 0.00539252
v 0.00042707 -0.00446120 0.00550020
v 0.00030446 -0.00523667 0.00550020
v 0.00010610 -0.00528776 0.01460748
v -0.00054919 -0.00509044 0.01500000
v -0.00167307 -0.00316272 0.01500000
v -0.00167307 -0.00316272 0.00500000
v 0.00025444 -0.00435172 0.01460748
v 0.00042707 -0.00446120 0.01449980
v 0.00030446 -0.00523667 0.01449980
v -0.00038045 -0.00398274 0.01500000
v -0.00014689 -0.00411211 0.01485611
f 1 2 3
f 1 3 8
f 1 8 4
f 1 4 10
f 1 10 12
f 1 12 5
f 1 5 11
f 1 11 21
f 1 21 13
f 1 13 6
f 1 6 2
f 2 6 7
f 2 7 3
f 3 7 18
f 3 18 8
f 4 8 9
f 4 9 19
f 4 19 25
f 4 25 20
f 4 20 10
f 5 12 11
f 6 13 14
f 6 14 15
f 6 15 16
f 6 16 17
f 6 17 7
f 7 17 24
f 7 24 18
f 8 18 19
f 8 19 9
f 10 20 21
f 10 21 11
f 10 11 12
f 13 21 14
f 14 21 15
f 15 22 23
f 15 23 16
f 15 21 20
f 15 20 22
f 16 23 24
f 16 24 17
f 18 24 19
f 19 24 23
f 19 23 22
f 19 22 25
f 20 25 26
f 20 26 22
f 22 26 25

