# https://github.com/mikedh/trimesh
v -0.02750721 -0.00417935 0.01501127
v -0.02750721 -0.00417935 0.00500000
v -0.03025317 -0.00500034 0.01501127
v -0.02750721 -0.01854273 0.01501127
v -0.03025317 -0.00500034 0.00500000
v -0.02750721 -0.02864640 0.00500000
v -0.03025317 -0.01834338 0.01501127
v -0.02780342 -0.01858732 0.01501127
v -0.02793566 -0.03004445 0.01499951
v -0.02750721 -0.02864640 0.01499951
v -0.03025317 -0.02874870 0.00500000
v -0.02801361 -0.03029888 0.00514405
v -0.02793566 -0.03004445 0.00500000
v -0.03025317 -0.02874870 0.01499951
v -0.03025049 -0.01874994 0.01501127
v -0.02861651 -0.01867650 0.01501127
v -0.02905410 -0.03011002 0.01499951
v -0.02816441 -0.03074216 0.01460752
v -0.02801361 -0.03029888 0.01485545
v -0.02943256 -0.01873158 0.01501127
v -0.02941132 -0.03012051 0.00500000
v -0.02930703 -0.03036707 0.00514405
v -0.02911082 -0.03079199 0.00539296
v -0.02901970 -0.03097298 0.00550076
v -0.02816441 -0.03074216 0.00539296
v -0.02829208 -0.03006805 0.00500000
v -0.02901970 -0.03097298 0.01449973
v -0.02911082 -0.03079199 0.01460752
v -0.02930703 -0.03036707 0.01485545
v -0.02941132 -0.03012051 0.01499951
v -0.02823563 -0.03093363 0.01449973
v -0.02823563 -0.03093363 0.00550076
f 1 2 5
f 1 5 3
f 1 3 7
f 1 7 15
f 1 15 20
f 1 20 16
f 1 16 8
f 1 8 4
f 1 4 10
f 1 10 6
f 1 6 2
f 2 6 13
f 2 13 26
f 2 26 21
f 2 21 11
f 2 11 5
f 3 5 11
f 3 11 14
f 3 14 7
f 4 8 9
f 4 9 10
f 6 10 19
f 6 19 12
f 6 12 13
f 7 14 15
f 8 16 9
f 9 17 18
f 9 18 19
f 9 19 10
f 9 16 20
f 9 20 17
f 11 21 22
f 11 22 23
f 11 23 24
f 11 24 27
f 11 27 14
f 12 19 18
f 12 18 25
f 12 25 13
f 13 25 26
f 14 27 28
f 14 28 29
f 14 29 30
f 14 30 15
f 15 30 20
f 17 30 28
f 17 28 31
f 17 31 18
f 17 20 30
f 18 31 32
f 18 32 25
f 21 26 22
f 22 26 23
f 23 26 32
f 23 32 24
f 24 32 31
f 24 31 27
f 25 32 26
f 27 31 28
f 28 30 29

