# https://github.com/mikedh/trimesh
v -0.03369497 0.01842562 0.01501127
v -0.03369497 0.02871277 0.01499951
v -0.03385035 0.02907421 0.01499951
v -0.03398395 0.02937540 0.01499951
v -0.03415997 0.02973136 0.01499951
v -0.03423258 0.02986826 0.01499951
v -0.03458116 0.02981898 0.01499951
v -0.03430754 0.01830514 0.01501127
v -0.03369497 0.00362329 0.01501127
v -0.03369497 0.02871277 0.00500000
v -0.03385035 0.02907421 0.00500000
v -0.03398395 0.02937540 0.00500000
v -0.03415997 0.02973136 0.00500000
v -0.03458116 0.02982445 0.01499657
v -0.03423258 0.02986826 0.00500000
v -0.03436193 0.03010100 0.01485545
v -0.03458116 0.03047065 0.01462810
v -0.03458116 0.01823669 0.01501127
v -0.03458116 0.00249792 0.01501127
v -0.03369497 0.00362329 0.00500000
v -0.03458116 0.03047065 0.00537140
v -0.03436193 0.03010100 0.00514405
v -0.03458116 0.02981624 0.00500000
v -0.03458116 0.00249792 0.01490151
v -0.03458003 0.00250065 0.00500000
v -0.03458116 0.00250339 0.00500000
f 1 2 3
f 1 3 4
f 1 4 5
f 1 5 6
f 1 6 7
f 1 7 8
f 1 8 18
f 1 18 19
f 1 19 9
f 1 9 20
f 1 20 10
f 1 10 2
f 2 10 11
f 2 11 3
f 3 11 12
f 3 12 4
f 4 12 13
f 4 13 5
f 5 13 15
f 5 15 6
f 6 14 7
f 6 15 22
f 6 22 16
f 6 16 17
f 6 17 14
f 7 14 17
f 7 17 21
f 7 21 23
f 7 23 26
f 7 26 24
f 7 24 19
f 7 19 18
f 7 18 8
f 9 19 24
f 9 24 20
f 10 20 25
f 10 25 26
f 10 26 23
f 10 23 15
f 10 15 13
f 10 13 12
f 10 12 11
f 15 21 22
f 15 23 21
f 16 22 21
f 16 21 17
f 20 24 25
f 24 26 25

