# https://github.com/mikedh/trimesh
v -0.04495427 -0.01155864 0.01501127
v -0.04500975 -0.01155864 0.01501127
v -0.04495427 -0.01162878 0.01501127
v -0.04495427 -0.01155864 0.00500000
v -0.04747311 -0.01155864 0.01499951
v -0.04747311 -0.02311760 0.01499951
v -0.04692076 -0.02350103 0.01499951
v -0.04495427 -0.02350103 0.01499951
v -0.04747311 -0.01155864 0.00500000
v -0.04495427 -0.02350103 0.00500000
v -0.04747311 -0.02311760 0.00500000
v -0.04692076 -0.02350103 0.00500000
f 1 2 3
f 1 3 8
f 1 8 10
f 1 10 4
f 1 4 9
f 1 9 5
f 1 5 2
f 2 5 6
f 2 6 3
f 3 6 7
f 3 7 8
f 4 10 12
f 4 12 11
f 4 11 9
f 5 9 11
f 5 11 6
f 6 11 12
f 6 12 7
f 7 12 10
f 7 10 8

