# https://github.com/mikedh/trimesh
v -0.04945216 -0.02433644 0.00550020
v -0.04945216 -0.02433644 0.01449980
v -0.05006250 -0.02384226 0.00550020
v -0.04891557 -0.02365654 0.00500000
v -0.04927068 -0.02424177 0.00539252
v -0.05006250 -0.02384226 0.01449980
v -0.04927068 -0.02424177 0.01460748
v -0.04950893 -0.02317614 0.01500000
v -0.05000750 -0.02364536 0.00539252
v -0.04863398 -0.02387633 0.00500000
v -0.04978242 -0.02294647 0.00500000
v -0.04886260 -0.02401392 0.00514389
v -0.05000750 -0.02364536 0.01460748
v -0.04886260 -0.02401392 0.01485611
v -0.04863398 -0.02387633 0.01500000
v -0.04978242 -0.02294647 0.01500000
v -0.04986936 -0.02319877 0.00514389
v -0.04850243 -0.02379362 0.00500000
v -0.04972894 -0.02280056 0.00500000
v -0.04986936 -0.02319877 0.01485611
v -0.04850243 -0.02379362 0.01500000
v -0.04972894 -0.02280056 0.01500000
v -0.04747336 -0.02311762 0.00500000
v -0.04958168 -0.02243096 0.00500000
v -0.04747336 -0.02311762 0.01500000
v -0.04958168 -0.02243096 0.01500000
v -0.04747336 -0.02167954 0.00500000
v -0.04927853 -0.02167954 0.00500000
v -0.04747336 -0.02167954 0.01500000
v -0.04927853 -0.02167954 0.01500000
f 1 2 6
f 1 6 3
f 1 3 4
f 1 4 5
f 1 5 7
f 1 7 2
f 2 7 8
f 2 8 6
f 3 6 13
f 3 13 9
f 3 9 4
f 4 10 5
f 4 9 11
f 4 11 19
f 4 19 24
f 4 24 28
f 4 28 27
f 4 27 23
f 4 23 18
f 4 18 10
f 5 10 12
f 5 12 14
f 5 14 7
f 6 8 13
f 7 14 15
f 7 15 8
f 8 15 21
f 8 21 25
f 8 25 29
f 8 29 30
f 8 30 26
f 8 26 22
f 8 22 16
f 8 16 13
f 9 17 11
f 9 13 20
f 9 20 17
f 10 18 21
f 10 21 15
f 10 15 14
f 10 14 12
f 11 17 20
f 11 20 16
f 11 16 22
f 11 22 19
f 13 16 20
f 18 23 25
f 18 25 21
f 19 22 26
f 19 26 24
f 23 27 29
f 23 29 25
f 24 26 30
f 24 30 28
f 27 28 30
f 27 30 29

