# https://github.com/mikedh/trimesh
v -0.03025317 0.00629706 0.00500000
v -0.03025317 0.00629706 0.01501127
v -0.03025317 0.00858189 0.00500000
v -0.00214231 0.00629706 0.00500000
v -0.03025317 0.00858189 0.01501127
v -0.01294196 0.00629706 0.01501127
v -0.00273347 0.00858189 0.00500000
v -0.00108941 0.00699642 0.00500000
v -0.00214231 0.00629706 0.01499951
v -0.01376253 0.00858189 0.01501127
v -0.01263315 0.00641247 0.01501127
v -0.00273347 0.00858189 0.01499951
v -0.00149821 0.00852106 0.00500000
v -0.00096294 0.00708320 0.00500000
v -0.00108941 0.00699642 0.01499951
v -0.01325666 0.00792346 0.01501127
v -0.00134528 0.00851055 0.01499951
v -0.00149821 0.00852106 0.01499951
v -0.01292726 0.00717490 0.01501127
v -0.00096294 0.00708320 0.01499951
v -0.00104823 0.00743008 0.01499951
v -0.00134528 0.00851055 0.00500000
v -0.00074236 0.00723618 0.00514405
v -0.00124528 0.00816724 0.00500000
v -0.00107764 0.00848751 0.01485545
v -0.00074236 0.00723618 0.01485545
v -0.00020708 0.00764345 0.01449973
v -0.00061295 0.00843182 0.01460752
v -0.00107764 0.00848751 0.00514405
v -0.00020708 0.00764345 0.00550076
v -0.00036884 0.00751619 0.00539296
v -0.00061295 0.00843182 0.00539296
v -0.00036884 0.00751619 0.01460752
v -0.00041296 0.00840185 0.01449973
v -0.00041296 0.00840185 0.00550076
f 1 2 5
f 1 5 3
f 1 3 7
f 1 7 13
f 1 13 22
f 1 22 24
f 1 24 14
f 1 14 8
f 1 8 4
f 1 4 9
f 1 9 6
f 1 6 2
f 2 6 11
f 2 11 19
f 2 19 16
f 2 16 10
f 2 10 5
f 3 5 10
f 3 10 12
f 3 12 7
f 4 8 15
f 4 15 9
f 6 9 11
f 7 12 18
f 7 18 13
f 8 14 20
f 8 20 15
f 9 15 11
f 10 16 17
f 10 17 18
f 10 18 12
f 11 15 20
f 11 20 21
f 11 21 17
f 11 17 19
f 13 18 17
f 13 17 22
f 14 23 26
f 14 26 20
f 14 24 23
f 16 19 17
f 17 21 25
f 17 25 29
f 17 29 22
f 20 26 21
f 21 26 27
f 21 27 28
f 21 28 25
f 22 29 24
f 23 30 31
f 23 31 33
f 23 33 26
f 23 24 30
f 24 29 32
f 24 32 30
f 25 28 32
f 25 32 29
f 26 33 27
f 27 30 35
f 27 35 34
f 27 34 28
f 27 33 31
f 27 31 30
f 28 34 35
f 28 35 32
f 30 32 35

