# https://github.com/mikedh/trimesh
v -0.01574056 -0.00316249 0.00500000
v -0.01574056 -0.00316249 0.01501127
v -0.01574056 -0.00000316 0.00500000
v -0.00181003 -0.00316249 0.00500000
v -0.01574056 -0.00000316 0.01501127
v -0.01177031 -0.00316249 0.01501127
v -0.00150053 -0.00000316 0.00500000
v -0.00167462 -0.00316218 0.00500000
v -0.00167462 -0.00316249 0.01499951
v -0.01190410 -0.00000316 0.01501127
v -0.00020613 -0.00231452 0.01499951
v -0.01165909 -0.00244780 0.01501127
v -0.00150053 -0.00000316 0.01499951
v 0.00072558 -0.00123028 0.00550076
v 0.00054182 -0.00113936 0.00539296
v 0.00011787 -0.00094298 0.00514405
v -0.00012876 -0.00083876 0.00500000
v -0.00020613 -0.00231452 0.00500000
v 0.00005017 -0.00223658 0.00514405
v 0.00049185 -0.00208567 0.00539296
v 0.00068367 -0.00201423 0.00550076
v 0.00068367 -0.00201423 0.01449973
v 0.00049185 -0.00208567 0.01460752
v 0.00005017 -0.00223658 0.01485545
v -0.01151723 -0.00081866 0.01501127
v -0.00012876 -0.00083876 0.01499951
v -0.00018034 -0.00195795 0.01499951
v -0.01157043 -0.00163478 0.01501127
v 0.00011787 -0.00094298 0.01485545
v 0.00054182 -0.00113936 0.01460752
v 0.00072558 -0.00123028 0.01449973
v -0.00014004 -0.00119595 0.00500000
f 1 2 5
f 1 5 3
f 1 3 7
f 1 7 17
f 1 17 32
f 1 32 18
f 1 18 8
f 1 8 4
f 1 4 9
f 1 9 6
f 1 6 2
f 2 6 12
f 2 12 28
f 2 28 25
f 2 25 10
f 2 10 5
f 3 5 10
f 3 10 13
f 3 13 7
f 4 8 9
f 6 9 11
f 6 11 12
f 7 13 31
f 7 31 14
f 7 14 15
f 7 15 16
f 7 16 17
f 8 18 19
f 8 19 20
f 8 20 21
f 8 21 9
f 9 21 22
f 9 22 23
f 9 23 24
f 9 24 11
f 10 25 26
f 10 26 13
f 11 24 27
f 11 27 28
f 11 28 12
f 13 26 29
f 13 29 30
f 13 30 31
f 14 31 22
f 14 22 21
f 14 21 32
f 14 32 16
f 14 16 15
f 16 32 17
f 18 32 19
f 19 32 21
f 19 21 20
f 22 31 27
f 22 27 23
f 23 27 24
f 25 28 27
f 25 27 26
f 26 27 30
f 26 30 29
f 27 31 30

