# https://github.com/mikedh/trimesh
v -0.03446065 -0.00269600 0.03000000
v -0.03525052 -0.00000191 0.03000000
v -0.04880071 -0.00269600 0.03000000
v -0.03446065 -0.00269600 0.01501127
v -0.04899996 -0.00000191 0.03000000
v -0.03525052 -0.00000191 0.01501127
v -0.04883914 -0.00244732 0.03000000
v -0.04880071 -0.00269600 0.01501127
v -0.04899996 -0.00000191 0.02996479
v -0.04898146 -0.00081810 0.03000000
v -0.04899853 -0.00000191 0.01501127
v -0.04892738 -0.00163403 0.03000000
v -0.04892738 -0.00163350 0.01501127
v -0.04883914 -0.00244653 0.01501127
v -0.04898146 -0.00081731 0.01501127
f 1 2 5
f 1 5 10
f 1 10 12
f 1 12 7
f 1 7 3
f 1 3 8
f 1 8 4
f 1 4 6
f 1 6 2
f 2 6 11
f 2 11 9
f 2 9 5
f 3 7 8
f 4 8 14
f 4 14 13
f 4 13 15
f 4 15 11
f 4 11 6
f 5 9 10
f 7 12 13
f 7 13 14
f 7 14 8
f 9 11 15
f 9 15 10
f 10 15 13
f 10 13 12

