# https://github.com/mikedh/trimesh
v -0.06036950 -0.00083849 0.00500000
v -0.06090554 -0.00129334 0.00531849
v -0.06122560 -0.00122988 0.00550076
v -0.06104085 -0.00113928 0.00539296
v -0.06061410 -0.00094277 0.00514405
v -0.05899818 0.00002354 0.00500000
v -0.06034869 -0.00129334 0.00500000
v -0.06031746 -0.00195791 0.00500000
v -0.06118137 -0.00201429 0.00550076
v -0.06122560 -0.00122988 0.01449973
v -0.05899818 0.00002354 0.01499951
v -0.03525381 0.00002354 0.00500000
v -0.06029144 -0.00231438 0.00500000
v -0.06054645 -0.00223653 0.00514405
v -0.06098881 -0.00208554 0.00539296
v -0.06118137 -0.00201429 0.01449973
v -0.06042675 -0.00129334 0.01495639
v -0.06035649 -0.00119567 0.01499951
v -0.06036950 -0.00083849 0.01499951
v -0.06104085 -0.00113928 0.01460752
v -0.04899822 0.00000042 0.01501127
v -0.04899562 0.00002354 0.01501029
v -0.06061410 -0.00094277 0.01485545
v -0.03525381 0.00002354 0.01501127
v -0.03464491 -0.00238657 0.00500000
v -0.06014312 -0.00235684 0.00500000
v -0.06029144 -0.00231438 0.01499951
v -0.06054645 -0.00223653 0.01485545
v -0.06098881 -0.00208554 0.01460752
v -0.06035129 -0.00129334 0.01499951
v -0.04898001 -0.00081726 0.01501127
v -0.04536566 0.00002354 0.01501127
v -0.03464491 -0.00238657 0.01501127
v -0.06002602 -0.00238657 0.00500000
v -0.06014312 -0.00235684 0.01499951
v -0.04840234 -0.00238657 0.01501127
v -0.04892537 -0.00163353 0.01501127
v -0.04894878 -0.00129334 0.01501127
v -0.06002602 -0.00238657 0.01499951
f 1 2 3
f 1 3 4
f 1 4 5
f 1 5 6
f 1 6 12
f 1 12 25
f 1 25 34
f 1 34 26
f 1 26 13
f 1 13 8
f 1 8 7
f 1 7 2
f 2 7 8
f 2 8 3
f 3 9 16
f 3 16 10
f 3 10 11
f 3 11 6
f 3 6 4
f 3 8 9
f 4 6 5
f 6 11 22
f 6 22 32
f 6 32 24
f 6 24 12
f 8 13 9
f 9 14 15
f 9 15 29
f 9 29 16
f 9 13 14
f 10 16 17
f 10 17 18
f 10 18 19
f 10 19 20
f 10 20 11
f 11 21 22
f 11 20 23
f 11 23 19
f 11 19 21
f 12 24 33
f 12 33 25
f 13 26 35
f 13 35 27
f 13 27 28
f 13 28 14
f 14 28 29
f 14 29 15
f 16 29 27
f 16 27 17
f 17 30 18
f 17 27 30
f 18 30 31
f 18 31 19
f 19 23 20
f 19 31 21
f 21 31 38
f 21 38 37
f 21 37 36
f 21 36 33
f 21 33 24
f 21 24 32
f 21 32 22
f 25 33 36
f 25 36 39
f 25 39 34
f 26 34 39
f 26 39 35
f 27 35 36
f 27 36 37
f 27 37 38
f 27 38 31
f 27 31 30
f 27 29 28
f 35 39 36

