# https://github.com/mikedh/trimesh
v -0.01302811 0.02167992 0.00500000
v -0.01122166 0.02167992 0.00500000
v -0.01302811 0.02167992 0.01500000
v -0.01302811 0.02311754 0.00500000
v -0.01091834 0.02243098 0.00500000
v -0.01122166 0.02167992 0.01473767
v -0.01122191 0.02167992 0.01500000
v -0.01302811 0.02311754 0.01500000
v -0.01199770 0.02379369 0.00500000
v -0.01077125 0.02280052 0.00500000
v -0.01091834 0.02243098 0.01500000
v -0.01122166 0.02168044 0.01500000
v -0.01199770 0.02379369 0.01500000
v -0.01186608 0.02387639 0.00500000
v -0.01071748 0.02294642 0.00500000
v -0.01077125 0.02280052 0.01500000
v -0.01186608 0.02387639 0.01500000
v -0.01163732 0.02401397 0.00514389
v -0.01122926 0.02424178 0.00539252
v -0.01158432 0.02365664 0.00500000
v -0.01049253 0.02364520 0.00539252
v -0.01063075 0.02319868 0.00514389
v -0.01071748 0.02294642 0.01500000
v -0.01099113 0.02317631 0.01500000
v -0.01104793 0.02433670 0.01449980
v -0.01122926 0.02424178 0.01460748
v -0.01163732 0.02401397 0.01485611
v -0.01104793 0.02433670 0.00550020
v -0.01043775 0.02384233 0.00550020
v -0.01049253 0.02364520 0.01460748
v -0.01063075 0.02319868 0.01485611
v -0.01043775 0.02384233 0.01449980
f 1 2 6
f 1 6 7
f 1 7 3
f 1 3 8
f 1 8 4
f 1 4 9
f 1 9 14
f 1 14 20
f 1 20 15
f 1 15 10
f 1 10 5
f 1 5 2
f 2 5 11
f 2 11 6
f 3 7 12
f 3 12 11
f 3 11 16
f 3 16 23
f 3 23 24
f 3 24 17
f 3 17 13
f 3 13 8
f 4 8 13
f 4 13 9
f 5 10 16
f 5 16 11
f 6 11 12
f 6 12 7
f 9 13 17
f 9 17 14
f 10 15 23
f 10 23 16
f 14 17 27
f 14 27 18
f 14 18 19
f 14 19 20
f 15 20 21
f 15 21 22
f 15 22 31
f 15 31 23
f 17 24 25
f 17 25 26
f 17 26 27
f 18 27 26
f 18 26 19
f 19 26 25
f 19 25 28
f 19 28 20
f 20 28 29
f 20 29 21
f 21 29 32
f 21 32 30
f 21 30 31
f 21 31 22
f 23 31 30
f 23 30 24
f 24 30 32
f 24 32 25
f 25 32 29
f 25 29 28

