# https://github.com/mikedh/trimesh
v -0.01574217 -0.00000588 0.01501127
v -0.01574217 -0.00000588 0.00500000
v -0.01867317 -0.00000588 0.01501127
v -0.01574217 -0.01187331 0.01501127
v -0.01867317 -0.00000588 0.00500000
v -0.01574217 -0.02482082 0.00500000
v -0.01867317 -0.01474358 0.01501127
v -0.01588735 -0.01205287 0.01501127
v -0.01591517 -0.02650490 0.01499951
v -0.01574217 -0.02482082 0.01499951
v -0.01867317 -0.02631445 0.00500000
v -0.01582767 -0.02743808 0.00550076
v -0.01584058 -0.02723403 0.00539296
v -0.01588275 -0.02676880 0.00514405
v -0.01591517 -0.02650490 0.00500000
v -0.01867317 -0.02631445 0.01499951
v -0.01723206 -0.02717689 0.01499951
v -0.01691073 -0.02701910 0.01499951
v -0.01819806 -0.01436269 0.01501127
v -0.01642643 -0.01267045 0.01501127
v -0.01584058 -0.02723403 0.01460752
v -0.01588275 -0.02676880 0.01485545
v -0.01699221 -0.01326083 0.01501127
v -0.01758294 -0.01382672 0.01501127
v -0.01582767 -0.02743808 0.01449973
v -0.01723206 -0.02717689 0.00500000
v -0.01703696 -0.02735646 0.00514405
v -0.01668522 -0.02766661 0.00539296
v -0.01652742 -0.02779720 0.00550076
v -0.01623077 -0.02667358 0.00500000
v -0.01652742 -0.02779720 0.01449973
v -0.01668522 -0.02766661 0.01460752
v -0.01703696 -0.02735646 0.01485545
f 1 2 5
f 1 5 3
f 1 3 7
f 1 7 19
f 1 19 24
f 1 24 23
f 1 23 20
f 1 20 8
f 1 8 4
f 1 4 10
f 1 10 6
f 1 6 2
f 2 6 15
f 2 15 30
f 2 30 26
f 2 26 11
f 2 11 5
f 3 5 11
f 3 11 16
f 3 16 7
f 4 8 9
f 4 9 10
f 6 10 25
f 6 25 12
f 6 12 13
f 6 13 14
f 6 14 15
f 7 16 17
f 7 17 18
f 7 18 9
f 7 9 19
f 8 20 9
f 9 18 21
f 9 21 22
f 9 22 10
f 9 20 23
f 9 23 24
f 9 24 19
f 10 22 21
f 10 21 25
f 11 26 27
f 11 27 28
f 11 28 29
f 11 29 31
f 11 31 16
f 12 29 30
f 12 30 15
f 12 15 13
f 12 25 31
f 12 31 29
f 13 15 14
f 16 31 32
f 16 32 33
f 16 33 17
f 17 33 32
f 17 32 18
f 18 32 31
f 18 31 25
f 18 25 21
f 26 30 29
f 26 29 28
f 26 28 27

