# https://github.com/mikedh/trimesh
v -0.03287725 0.01856084 0.01501127
v -0.03287725 0.02875609 0.01499951
v -0.03369497 0.02871426 0.01499951
v -0.03350527 0.01846489 0.01501127
v -0.03287725 0.00425452 0.01501127
v -0.03287725 0.02875609 0.00500000
v -0.03369497 0.02871426 0.00500000
v -0.03369497 0.01842552 0.01501127
v -0.03369497 0.00362470 0.01501127
v -0.03287725 0.00425452 0.00500000
v -0.03369497 0.00362470 0.00500000
f 1 2 3
f 1 3 4
f 1 4 8
f 1 8 9
f 1 9 5
f 1 5 10
f 1 10 6
f 1 6 2
f 2 6 7
f 2 7 3
f 3 7 11
f 3 11 9
f 3 9 8
f 3 8 4
f 5 9 11
f 5 11 10
f 6 10 11
f 6 11 7

