# https://github.com/mikedh/trimesh
v -0.03458845 0.00248711 0.03000000
v -0.03525013 -0.00000167 0.03000000
v -0.03458845 0.00248711 0.01501127
v -0.04883211 0.00248711 0.03000000
v -0.04899859 -0.00000167 0.03000000
v -0.03525013 -0.00000167 0.01501127
v -0.04883211 0.00248711 0.01501127
v -0.04883917 0.00244715 0.03000000
v -0.04883917 0.00244788 0.01501127
v -0.04900000 0.00000003 0.03000000
v -0.04899859 -0.00000167 0.01501127
v -0.04892805 0.00163405 0.03000000
v -0.04892805 0.00163478 0.01501127
v -0.04898166 0.00081801 0.03000000
v -0.04898166 0.00081850 0.01501127
v -0.04899859 0.00000077 0.01501127
f 1 2 6
f 1 6 3
f 1 3 7
f 1 7 4
f 1 4 8
f 1 8 12
f 1 12 14
f 1 14 10
f 1 10 5
f 1 5 2
f 2 5 11
f 2 11 6
f 3 6 11
f 3 11 16
f 3 16 15
f 3 15 13
f 3 13 9
f 3 9 7
f 4 7 9
f 4 9 8
f 5 10 11
f 8 9 13
f 8 13 12
f 10 14 15
f 10 15 16
f 10 16 11
f 12 13 14
f 13 15 14

