# https://github.com/mikedh/trimesh
v -0.03025317 0.01156822 0.00500000
v -0.03025317 0.01156822 0.01501127
v -0.03025317 0.01449156 0.00500000
v -0.00393039 0.01156822 0.00500000
v -0.03025317 0.01449156 0.01501127
v -0.01549848 0.01156822 0.01501127
v -0.00542165 0.01449156 0.00500000
v -0.00307320 0.01301816 0.00500000
v -0.00289087 0.01321303 0.00514405
v -0.00258337 0.01356500 0.00539296
v -0.00245275 0.01372267 0.00550076
v -0.00393039 0.01156822 0.01499951
v -0.01835581 0.01449156 0.01501127
v -0.00307320 0.01301816 0.01499951
v -0.00323103 0.01333922 0.01499951
v -0.00374535 0.01433475 0.01499951
v -0.01588763 0.01205210 0.01501127
v -0.00542165 0.01449156 0.01499951
v -0.00281196 0.01442231 0.00550076
v -0.00301605 0.01440944 0.00539296
v -0.00348139 0.01436737 0.00514405
v -0.00374535 0.01433475 0.00500000
v -0.00357663 0.01401941 0.00500000
v -0.00245275 0.01372267 0.01449973
v -0.00258337 0.01356500 0.01460752
v -0.00289087 0.01321303 0.01485545
v -0.01819526 0.01436279 0.01501127
v -0.00281196 0.01442231 0.01449973
v -0.00301605 0.01440944 0.01460752
v -0.00348139 0.01436737 0.01485545
v -0.01758025 0.01382339 0.01501127
v -0.01698974 0.01325767 0.01501127
v -0.01642371 0.01266705 0.01501127
f 1 2 5
f 1 5 3
f 1 3 7
f 1 7 22
f 1 22 23
f 1 23 8
f 1 8 4
f 1 4 12
f 1 12 6
f 1 6 2
f 2 6 17
f 2 17 33
f 2 33 32
f 2 32 31
f 2 31 27
f 2 27 13
f 2 13 5
f 3 5 13
f 3 13 18
f 3 18 7
f 4 8 9
f 4 9 10
f 4 10 11
f 4 11 24
f 4 24 12
f 6 12 14
f 6 14 15
f 6 15 16
f 6 16 17
f 7 18 28
f 7 28 19
f 7 19 20
f 7 20 21
f 7 21 22
f 8 11 9
f 8 23 11
f 9 11 10
f 11 19 28
f 11 28 24
f 11 23 19
f 12 24 25
f 12 25 26
f 12 26 14
f 13 27 16
f 13 16 18
f 14 26 25
f 14 25 15
f 15 25 24
f 15 24 28
f 15 28 29
f 15 29 16
f 16 29 30
f 16 30 18
f 16 27 31
f 16 31 32
f 16 32 33
f 16 33 17
f 18 30 29
f 18 29 28
f 19 23 20
f 20 23 22
f 20 22 21

