# https://github.com/mikedh/trimesh
v -0.03922758 0.01645421 0.01501127
v -0.03922758 0.02731034 0.01499951
v -0.04035598 0.02838827 0.01499951
v -0.04069188 0.02826597 0.01499951
v -0.04173568 0.02785642 0.01499951
v -0.03962466 0.01623805 0.01501127
v -0.03922758 0.00002354 0.01501127
v -0.03922758 0.02731034 0.00500000
v -0.04099168 0.02907940 0.01449973
v -0.04084867 0.02893150 0.01460752
v -0.04053123 0.02859020 0.01485545
v -0.04172493 0.02879783 0.01449973
v -0.04173375 0.02859305 0.01460752
v -0.04174036 0.02812377 0.01485545
v -0.04204265 0.02621818 0.01499951
v -0.04204265 0.01457138 0.01501127
v -0.04166376 0.01487570 0.01501127
v -0.04100408 0.01535921 0.01501127
v -0.04032402 0.01581143 0.01501127
v -0.04204265 0.00002354 0.01501127
v -0.03922758 0.00002354 0.00500000
v -0.04035598 0.02838827 0.00500000
v -0.04053123 0.02859020 0.00514405
v -0.04084867 0.02893150 0.00539296
v -0.04099168 0.02907940 0.00550076
v -0.04172493 0.02879783 0.00550076
v -0.04204265 0.02621818 0.00500000
v -0.04204265 0.00002354 0.00500000
v -0.04140446 0.02799293 0.00500000
v -0.04173375 0.02859305 0.00539296
v -0.04174036 0.02812377 0.00514405
v -0.04173568 0.02785642 0.00500000
f 1 2 3
f 1 3 4
f 1 4 5
f 1 5 6
f 1 6 19
f 1 19 18
f 1 18 17
f 1 17 16
f 1 16 20
f 1 20 7
f 1 7 21
f 1 21 8
f 1 8 2
f 2 8 25
f 2 25 9
f 2 9 10
f 2 10 11
f 2 11 3
f 3 11 9
f 3 9 4
f 4 9 12
f 4 12 13
f 4 13 5
f 5 13 14
f 5 14 15
f 5 15 16
f 5 16 17
f 5 17 18
f 5 18 19
f 5 19 6
f 7 20 28
f 7 28 21
f 8 22 23
f 8 23 24
f 8 24 25
f 8 21 28
f 8 28 27
f 8 27 32
f 8 32 29
f 8 29 22
f 9 25 26
f 9 26 12
f 9 11 10
f 12 26 27
f 12 27 15
f 12 15 13
f 13 15 14
f 15 27 28
f 15 28 20
f 15 20 16
f 22 29 23
f 23 29 25
f 23 25 24
f 25 29 26
f 26 30 27
f 26 29 30
f 27 30 31
f 27 31 32
f 29 32 30
f 30 32 31

