# https://github.com/mikedh/trimesh
v -0.03598052 0.01784903 0.01501127
v -0.03598052 0.02819886 0.01499951
v -0.03672331 0.02825690 0.01499951
v -0.03878674 0.02825690 0.01499951
v -0.03666261 0.01761688 0.01501127
v -0.03598052 0.00002354 0.01501127
v -0.03598052 0.02819886 0.00500000
v -0.03672109 0.02825690 0.01051815
v -0.03878674 0.02825690 0.00500000
v -0.03922727 0.02731173 0.01499951
v -0.03922727 0.01645339 0.01501127
v -0.03890720 0.01663026 0.01501127
v -0.03817330 0.01699230 0.01501127
v -0.03742479 0.01732117 0.01501127
v -0.03922727 0.00002354 0.01501127
v -0.03598052 0.00002354 0.00500000
v -0.03672109 0.02825690 0.00500000
v -0.03922727 0.02731173 0.00500000
v -0.03922727 0.00002354 0.00500000
f 1 2 3
f 1 3 4
f 1 4 5
f 1 5 14
f 1 14 13
f 1 13 12
f 1 12 11
f 1 11 15
f 1 15 6
f 1 6 16
f 1 16 7
f 1 7 2
f 2 7 17
f 2 17 8
f 2 8 3
f 3 8 17
f 3 17 9
f 3 9 4
f 4 9 18
f 4 18 10
f 4 10 11
f 4 11 12
f 4 12 13
f 4 13 14
f 4 14 5
f 6 15 19
f 6 19 16
f 7 16 19
f 7 19 18
f 7 18 9
f 7 9 17
f 10 18 19
f 10 19 15
f 10 15 11

