# https://github.com/mikedh/trimesh
v -0.05863747 0.01010599 0.00500000
v -0.05883905 0.01028099 0.00514405
v -0.05918215 0.01059850 0.00539296
v -0.05851596 0.01044183 0.00500000
v -0.05766106 0.00869654 0.00500000
v -0.05932797 0.01074183 0.00550076
v -0.05904777 0.01147489 0.00550076
v -0.05884334 0.01148378 0.00539296
v -0.05837586 0.01149044 0.00514405
v -0.05810852 0.01148572 0.00500000
v -0.05766106 0.00869654 0.01499951
v -0.04472459 0.00869654 0.00500000
v -0.05932797 0.01074183 0.01449973
v -0.05904777 0.01147489 0.01449973
v -0.05884334 0.01148378 0.01460752
v -0.05658743 0.01153406 0.00500000
v -0.05863747 0.01010599 0.01499951
v -0.05883905 0.01028099 0.01485545
v -0.05918215 0.01059850 0.01460752
v -0.04686042 0.00869654 0.01501029
v -0.04648872 0.00937571 0.01501127
v -0.04472459 0.01153406 0.00500000
v -0.04472459 0.00869654 0.01501127
v -0.05824290 0.01115433 0.01499951
v -0.05810852 0.01148572 0.01499951
v -0.05837586 0.01149044 0.01485545
v -0.05658743 0.01153406 0.01499951
v -0.04533789 0.00869654 0.01501127
v -0.04606413 0.01007516 0.01501127
v -0.04472459 0.01153406 0.01501127
v -0.04560952 0.01075489 0.01501127
v -0.04512631 0.01141461 0.01501127
f 1 2 3
f 1 3 4
f 1 4 10
f 1 10 16
f 1 16 22
f 1 22 12
f 1 12 5
f 1 5 2
f 2 5 3
f 3 6 4
f 3 5 6
f 4 6 7
f 4 7 8
f 4 8 9
f 4 9 10
f 5 11 13
f 5 13 6
f 5 12 23
f 5 23 28
f 5 28 20
f 5 20 11
f 6 13 14
f 6 14 7
f 7 14 15
f 7 15 8
f 8 15 27
f 8 27 16
f 8 16 9
f 9 16 10
f 11 17 18
f 11 18 19
f 11 19 13
f 11 20 21
f 11 21 17
f 12 22 30
f 12 30 23
f 13 19 24
f 13 24 14
f 14 24 15
f 15 24 25
f 15 25 26
f 15 26 27
f 16 27 30
f 16 30 22
f 17 24 19
f 17 19 18
f 17 21 24
f 20 28 21
f 21 28 23
f 21 23 30
f 21 30 32
f 21 32 31
f 21 31 29
f 21 29 25
f 21 25 24
f 25 29 31
f 25 31 32
f 25 32 30
f 25 30 27
f 25 27 26

