# https://github.com/mikedh/trimesh
v -0.02687308 -0.00368734 0.01501127
v -0.02687308 -0.00368734 0.00500000
v -0.02750721 -0.00418089 0.01501127
v -0.02687308 -0.01844021 0.01501127
v -0.02750721 -0.00418089 0.00500000
v -0.02687308 -0.02864603 0.00500000
v -0.02750721 -0.01854283 0.01501127
v -0.02699474 -0.01846464 0.01501127
v -0.02687308 -0.02864603 0.01499951
v -0.02750721 -0.02864847 0.00500000
v -0.02750721 -0.02864847 0.01499951
f 1 2 5
f 1 5 3
f 1 3 7
f 1 7 8
f 1 8 4
f 1 4 9
f 1 9 6
f 1 6 2
f 2 6 10
f 2 10 5
f 3 5 10
f 3 10 11
f 3 11 7
f 4 8 9
f 6 9 11
f 6 11 10
f 7 11 9
f 7 9 8

