# https://github.com/mikedh/trimesh
v -0.03025317 0.00500014 0.00500000
v -0.03025317 0.00629706 0.00500000
v -0.02873896 0.00476693 0.00500000
v -0.03025317 0.00500014 0.01501127
v -0.03025317 0.00629706 0.01501127
v -0.00214277 0.00629706 0.00500000
v -0.02873896 0.00476693 0.01501127
v -0.00181711 0.00476693 0.00500000
v -0.01294269 0.00629706 0.01501127
v -0.00214277 0.00629706 0.01499951
v -0.00181711 0.00558307 0.00500000
v -0.01245280 0.00476693 0.01501127
v -0.00181711 0.00476693 0.01499951
v -0.01236929 0.00563759 0.01501127
v -0.00181711 0.00558127 0.01499951
v -0.00181711 0.00558307 0.00810451
v -0.01214105 0.00485230 0.01501127
f 1 2 6
f 1 6 11
f 1 11 8
f 1 8 3
f 1 3 7
f 1 7 4
f 1 4 5
f 1 5 2
f 2 5 9
f 2 9 10
f 2 10 6
f 3 8 13
f 3 13 12
f 3 12 7
f 4 7 12
f 4 12 17
f 4 17 14
f 4 14 9
f 4 9 5
f 6 10 16
f 6 16 11
f 8 11 16
f 8 16 15
f 8 15 13
f 9 14 10
f 10 15 16
f 10 14 15
f 12 13 17
f 13 15 17
f 14 17 15

