# https://github.com/mikedh/trimesh
v -0.05511743 0.01442771 0.00500000
v -0.05646060 0.01655284 0.00550020
v -0.05634737 0.01638251 0.00539252
v -0.05607800 0.01600044 0.00514389
v -0.05591738 0.01578760 0.00500000
v -0.05377058 0.01442771 0.00500000
v -0.05511743 0.01442771 0.01500000
v -0.05603272 0.01721153 0.00550020
v -0.05572806 0.01609064 0.00500000
v -0.05646060 0.01655284 0.01449980
v -0.05377058 0.01666485 0.00500000
v -0.05377058 0.01442771 0.01500000
v -0.05591738 0.01578760 0.01500000
v -0.05607800 0.01600044 0.01485611
v -0.05634737 0.01638251 0.01460748
v -0.05583102 0.01717746 0.00539252
v -0.05603272 0.01721153 0.01449980
v -0.05511243 0.01702676 0.00500000
v -0.05531255 0.01673080 0.01500000
v -0.05496182 0.01698888 0.00500000
v -0.05377058 0.01666485 0.01383614
v -0.05377058 0.01666321 0.01500000
v -0.05537232 0.01708699 0.00514389
v -0.05583102 0.01717746 0.01460748
v -0.05511243 0.01702676 0.01500000
v -0.05496182 0.01698888 0.01500000
v -0.05377242 0.01666430 0.01500000
v -0.05537232 0.01708699 0.01485611
f 1 2 3
f 1 3 4
f 1 4 5
f 1 5 9
f 1 9 18
f 1 18 20
f 1 20 11
f 1 11 6
f 1 6 12
f 1 12 7
f 1 7 10
f 1 10 2
f 2 8 9
f 2 9 3
f 2 10 17
f 2 17 8
f 3 9 5
f 3 5 4
f 6 11 21
f 6 21 22
f 6 22 12
f 7 12 22
f 7 22 27
f 7 27 26
f 7 26 25
f 7 25 19
f 7 19 13
f 7 13 14
f 7 14 15
f 7 15 10
f 8 16 9
f 8 17 24
f 8 24 16
f 9 16 18
f 10 15 19
f 10 19 17
f 11 20 26
f 11 26 21
f 13 19 15
f 13 15 14
f 16 23 18
f 16 24 28
f 16 28 23
f 17 19 24
f 18 23 28
f 18 28 25
f 18 25 26
f 18 26 20
f 19 25 24
f 21 26 27
f 21 27 22
f 24 25 28

