# https://github.com/mikedh/trimesh
v -0.02395039 -0.00000593 0.01501127
v -0.02395039 -0.00000593 0.00500000
v -0.02459311 -0.00000593 0.01501127
v -0.02395039 -0.01731340 0.01501127
v -0.02459311 -0.00000593 0.00500000
v -0.02395039 -0.02810843 0.00500000
v -0.02459311 -0.01558154 0.01501127
v -0.02459311 -0.01787500 0.01501029
v -0.02459311 -0.02826612 0.01499951
v -0.02395039 -0.02810843 0.01499951
v -0.02459311 -0.02826612 0.00500000
f 1 2 5
f 1 5 3
f 1 3 7
f 1 7 4
f 1 4 10
f 1 10 6
f 1 6 2
f 2 6 11
f 2 11 5
f 3 5 11
f 3 11 9
f 3 9 8
f 3 8 7
f 4 7 8
f 4 8 9
f 4 9 10
f 6 10 9
f 6 9 11

