# https://github.com/mikedh/trimesh
v -0.05208980 0.01778827 0.00500000
v -0.05208980 0.01905505 0.00500000
v -0.05006660 0.01778827 0.00500000
v -0.05208980 0.01778827 0.01500000
v -0.05208980 0.01905505 0.00748238
v -0.05153741 0.01981491 0.00500000
v -0.05006660 0.01981491 0.00500000
v -0.05006660 0.01778827 0.01500000
v -0.05208980 0.01905485 0.01500000
v -0.05153741 0.01981491 0.01500000
v -0.05006660 0.01981491 0.01500000
f 1 2 6
f 1 6 7
f 1 7 3
f 1 3 8
f 1 8 4
f 1 4 9
f 1 9 5
f 1 5 2
f 2 5 10
f 2 10 6
f 3 7 11
f 3 11 8
f 4 8 11
f 4 11 10
f 4 10 9
f 5 9 10
f 6 10 11
f 6 11 7

