# https://github.com/mikedh/trimesh
v -0.05742617 -0.01301809 0.00500000
v -0.05791678 -0.01356491 0.00539252
v -0.05760834 -0.01321316 0.00514389
v -0.05657432 -0.01155864 0.00500000
v -0.05692313 -0.01401922 0.00500000
v -0.05804720 -0.01372246 0.00550020
v -0.05657432 -0.01155864 0.01500000
v -0.04747414 -0.01155864 0.00500000
v -0.05675545 -0.01433488 0.00500000
v -0.05748620 -0.01440965 0.00539252
v -0.05769011 -0.01442225 0.00550020
v -0.05804720 -0.01372246 0.01449980
v -0.05791678 -0.01356491 0.01460748
v -0.05760834 -0.01321316 0.01485611
v -0.05742617 -0.01301809 0.01500000
v -0.04747414 -0.01155864 0.01500000
v -0.04747414 -0.01448498 0.00500000
v -0.05702043 -0.01436725 0.00514389
v -0.05508385 -0.01448498 0.00500000
v -0.05769011 -0.01442225 0.01449980
v -0.05726988 -0.01333919 0.01500000
v -0.04747414 -0.01448498 0.01500000
v -0.05508385 -0.01448498 0.01500000
v -0.05748620 -0.01440965 0.01460748
v -0.05675545 -0.01433488 0.01500000
v -0.05702043 -0.01436725 0.01485611
f 1 2 3
f 1 3 4
f 1 4 8
f 1 8 17
f 1 17 19
f 1 19 9
f 1 9 5
f 1 5 2
f 2 5 6
f 2 6 4
f 2 4 3
f 4 6 12
f 4 12 7
f 4 7 16
f 4 16 8
f 5 9 10
f 5 10 11
f 5 11 6
f 6 11 20
f 6 20 12
f 7 12 13
f 7 13 14
f 7 14 15
f 7 15 21
f 7 21 25
f 7 25 23
f 7 23 22
f 7 22 16
f 8 16 22
f 8 22 17
f 9 18 10
f 9 19 18
f 10 18 19
f 10 19 11
f 11 19 23
f 11 23 20
f 12 20 21
f 12 21 13
f 13 21 15
f 13 15 14
f 17 22 23
f 17 23 19
f 20 23 24
f 20 24 21
f 21 24 25
f 23 25 26
f 23 26 24
f 24 26 25

