# https://github.com/mikedh/trimesh
v -0.00805403 0.02164084 0.01449980
v -0.00860927 0.02219598 0.01449980
v -0.00867399 0.02103641 0.01500000
v -0.00812923 0.02145059 0.01460748
v -0.00805403 0.02164084 0.00550020
v -0.00879947 0.02212081 0.01460748
v -0.00860927 0.02219598 0.00550020
v -0.00947088 0.02182395 0.01500000
v -0.00842605 0.02077903 0.01500000
v -0.00831314 0.02102102 0.01485611
v -0.00812923 0.02145059 0.00539252
v -0.00921386 0.02157594 0.00500000
v -0.00922923 0.02193681 0.01485611
v -0.00879947 0.02212081 0.00539252
v -0.00961056 0.02175548 0.01500000
v -0.00947088 0.02182395 0.00500000
v -0.00849450 0.02063941 0.01500000
v -0.00842605 0.02077903 0.00500000
v -0.00831314 0.02102102 0.00514389
v -0.00922923 0.02193681 0.00514389
v -0.00996256 0.02157036 0.01500000
v -0.00961056 0.02175548 0.00500000
v -0.00867958 0.02028746 0.01500000
v -0.00849450 0.02063941 0.00500000
v -0.01024728 0.02140598 0.01500000
v -0.00996256 0.02157036 0.00500000
v -0.00884394 0.02000264 0.01500000
v -0.00867958 0.02028746 0.00500000
v -0.01043213 0.02128934 0.01500000
v -0.01024728 0.02140598 0.00500000
v -0.00889771 0.01991767 0.01500000
v -0.00884394 0.02000264 0.00500000
v -0.01043213 0.01991767 0.01500000
v -0.01043213 0.02128934 0.00500000
v -0.00889771 0.01991767 0.00500000
v -0.01043213 0.01991767 0.00500000
f 1 2 3
f 1 3 4
f 1 4 11
f 1 11 5
f 1 5 7
f 1 7 2
f 2 6 3
f 2 7 14
f 2 14 6
f 3 8 15
f 3 15 21
f 3 21 25
f 3 25 29
f 3 29 33
f 3 33 31
f 3 31 27
f 3 27 23
f 3 23 17
f 3 17 9
f 3 9 10
f 3 10 4
f 3 6 8
f 4 10 19
f 4 19 11
f 5 11 12
f 5 12 7
f 6 13 8
f 6 14 20
f 6 20 13
f 7 12 14
f 8 13 20
f 8 20 16
f 8 16 22
f 8 22 15
f 9 17 24
f 9 24 18
f 9 18 19
f 9 19 10
f 11 19 18
f 11 18 12
f 12 18 24
f 12 24 28
f 12 28 32
f 12 32 35
f 12 35 36
f 12 36 34
f 12 34 30
f 12 30 26
f 12 26 22
f 12 22 16
f 12 16 14
f 14 16 20
f 15 22 26
f 15 26 21
f 17 23 28
f 17 28 24
f 21 26 30
f 21 30 25
f 23 27 32
f 23 32 28
f 25 30 34
f 25 34 29
f 27 31 35
f 27 35 32
f 29 34 36
f 29 36 33
f 31 33 36
f 31 36 35

