# https://github.com/mikedh/trimesh
v -0.04680294 -0.02621060 0.00550020
v -0.04746180 -0.02578279 0.00550020
v -0.04634047 -0.02547804 0.00500000
v -0.04663258 -0.02609735 0.00539252
v -0.04680294 -0.02621060 0.01449980
v -0.04742768 -0.02558095 0.00539252
v -0.04746180 -0.02578279 0.01449980
v -0.04603755 -0.02566715 0.00500000
v -0.04727696 -0.02486218 0.00500000
v -0.04625038 -0.02582787 0.00514389
v -0.04663258 -0.02609735 0.01460748
v -0.04698067 -0.02506243 0.01500000
v -0.04733710 -0.02512237 0.00514389
v -0.04742768 -0.02558095 0.01460748
v -0.04591530 -0.02557140 0.00500000
v -0.04603755 -0.02566715 0.01500000
v -0.04723891 -0.02471180 0.00500000
v -0.04727696 -0.02486218 0.01500000
v -0.04625038 -0.02582787 0.01485611
v -0.04733710 -0.02512237 0.01485611
v -0.04495427 -0.02479030 0.00500000
v -0.04591530 -0.02557140 0.01500000
v -0.04692077 -0.02350130 0.00500000
v -0.04723891 -0.02471180 0.01500000
v -0.04495427 -0.02350130 0.00500000
v -0.04495427 -0.02479030 0.01500000
v -0.04692077 -0.02350130 0.01500000
v -0.04495427 -0.02350130 0.01500000
f 1 2 3
f 1 3 4
f 1 4 11
f 1 11 5
f 1 5 7
f 1 7 2
f 2 6 3
f 2 7 14
f 2 14 6
f 3 8 4
f 3 6 9
f 3 9 17
f 3 17 23
f 3 23 25
f 3 25 21
f 3 21 15
f 3 15 8
f 4 8 10
f 4 10 19
f 4 19 11
f 5 11 12
f 5 12 7
f 6 13 9
f 6 14 20
f 6 20 13
f 7 12 14
f 8 15 22
f 8 22 16
f 8 16 19
f 8 19 10
f 9 13 20
f 9 20 18
f 9 18 24
f 9 24 17
f 11 19 16
f 11 16 12
f 12 18 20
f 12 20 14
f 12 16 22
f 12 22 26
f 12 26 28
f 12 28 27
f 12 27 24
f 12 24 18
f 15 21 26
f 15 26 22
f 17 24 27
f 17 27 23
f 21 25 28
f 21 28 26
f 23 27 28
f 23 28 25

