# https://github.com/mikedh/trimesh
v -0.03025317 0.00858189 0.00500000
v -0.03025317 0.00858189 0.01501127
v -0.03025317 0.00923642 0.00500000
v -0.00273214 0.00858189 0.00500000
v -0.03025317 0.00923642 0.01501127
v -0.01376103 0.00858189 0.01501127
v -0.00294227 0.00923642 0.00500000
v -0.00273214 0.00858189 0.01499951
v -0.01424863 0.00923642 0.01501127
v -0.01361825 0.00865730 0.01501127
v -0.00294227 0.00923642 0.01499951
f 1 2 5
f 1 5 3
f 1 3 7
f 1 7 4
f 1 4 8
f 1 8 6
f 1 6 2
f 2 6 10
f 2 10 9
f 2 9 5
f 3 5 9
f 3 9 11
f 3 11 7
f 4 7 11
f 4 11 8
f 6 8 10
f 8 11 10
f 9 10 11

