# https://github.com/mikedh/trimesh
v -0.01574099 -0.01200986 0.00500000
v -0.01574099 -0.01200986 0.01499951
v -0.01574099 -0.00906180 0.00500000
v -0.00406374 -0.01200986 0.00500000
v -0.01574099 -0.01187192 0.01501127
v -0.00406492 -0.01200986 0.01499951
v -0.01574099 -0.00906180 0.01501127
v -0.00369433 -0.00906180 0.00500000
v -0.00368489 -0.01137789 0.00500000
v -0.00406374 -0.01200986 0.00530771
v -0.01537394 -0.01141453 0.01501127
v -0.00368489 -0.01137789 0.01229972
v -0.00368489 -0.01137529 0.01499951
v -0.01401195 -0.00937577 0.01501127
v -0.01443565 -0.01007498 0.01501127
v -0.01489122 -0.01075486 0.01501127
v -0.01383963 -0.00906180 0.01501127
v -0.00368489 -0.00906180 0.00501372
v -0.00368489 -0.00906469 0.00500000
v -0.00368489 -0.00906180 0.01499951
f 1 2 5
f 1 5 7
f 1 7 3
f 1 3 8
f 1 8 19
f 1 19 9
f 1 9 4
f 1 4 10
f 1 10 6
f 1 6 2
f 2 6 5
f 3 7 17
f 3 17 20
f 3 20 18
f 3 18 8
f 4 9 12
f 4 12 10
f 5 11 16
f 5 16 15
f 5 15 14
f 5 14 17
f 5 17 7
f 5 6 11
f 6 10 12
f 6 12 13
f 6 13 14
f 6 14 15
f 6 15 16
f 6 16 11
f 8 18 19
f 9 19 18
f 9 18 20
f 9 20 13
f 9 13 12
f 13 20 17
f 13 17 14

