# https://github.com/mikedh/trimesh
v -0.04099177 -0.02907913 0.00550020
v -0.04172499 -0.02879792 0.00550020
v -0.04069179 -0.02826688 0.00500000
v -0.04084867 -0.02893307 0.00539252
v -0.04099177 -0.02907913 0.01449980
v -0.04173376 -0.02859333 0.00539252
v -0.04172499 -0.02879792 0.01449980
v -0.04035610 -0.02838873 0.00500000
v -0.04053115 -0.02859040 0.00514389
v -0.04173564 -0.02785902 0.00500000
v -0.04084867 -0.02893307 0.01460748
v -0.04140433 -0.02799338 0.01500000
v -0.04174044 -0.02812587 0.00514389
v -0.04173376 -0.02859333 0.01460748
v -0.04025625 -0.02826927 0.00500000
v -0.04035610 -0.02838873 0.01500000
v -0.04053115 -0.02859040 0.01485611
v -0.04175131 -0.02636142 0.00500000
v -0.04173564 -0.02785902 0.01500000
v -0.04174044 -0.02812587 0.01485611
v -0.04000996 -0.02795720 0.00500000
v -0.04025625 -0.02826927 0.01500000
v -0.03961745 -0.02636142 0.00500000
v -0.04175131 -0.02636142 0.01490701
v -0.04175110 -0.02636169 0.01500000
v -0.03981673 -0.02769141 0.00500000
v -0.04000996 -0.02795720 0.01500000
v -0.03961745 -0.02739875 0.00500000
v -0.03961745 -0.02636142 0.01500000
v -0.04175110 -0.02636142 0.01500000
v -0.03981673 -0.02769141 0.01500000
v -0.03961745 -0.02739875 0.01500000
f 1 2 3
f 1 3 4
f 1 4 11
f 1 11 5
f 1 5 7
f 1 7 2
f 2 6 3
f 2 7 14
f 2 14 6
f 3 8 9
f 3 9 4
f 3 6 10
f 3 10 18
f 3 18 23
f 3 23 28
f 3 28 26
f 3 26 21
f 3 21 15
f 3 15 8
f 4 9 17
f 4 17 11
f 5 11 12
f 5 12 7
f 6 13 10
f 6 14 20
f 6 20 13
f 7 12 14
f 8 15 22
f 8 22 16
f 8 16 17
f 8 17 9
f 10 13 18
f 11 17 12
f 12 16 22
f 12 22 27
f 12 27 31
f 12 31 32
f 12 32 29
f 12 29 30
f 12 30 25
f 12 25 19
f 12 19 14
f 12 17 16
f 13 20 24
f 13 24 18
f 14 19 20
f 15 21 27
f 15 27 22
f 18 24 30
f 18 30 29
f 18 29 23
f 19 25 20
f 20 25 24
f 21 26 31
f 21 31 27
f 23 29 32
f 23 32 28
f 24 25 30
f 26 28 32
f 26 32 31

