# https://github.com/mikedh/trimesh
v -0.01104789 -0.02433670 0.00550020
v -0.01122915 -0.02424186 0.00539252
v -0.01099119 -0.02317627 0.00500000
v -0.01043750 -0.02384249 0.00550020
v -0.01104789 -0.02433670 0.01449980
v -0.01163743 -0.02401398 0.00514389
v -0.01186597 -0.02387627 0.00500000
v -0.01122915 -0.02424186 0.01460748
v -0.01071765 -0.02294658 0.00500000
v -0.01049241 -0.02364528 0.00539252
v -0.01043750 -0.02384249 0.01449980
v -0.01158430 -0.02365671 0.01500000
v -0.01163743 -0.02401398 0.01485611
v -0.01199766 -0.02379364 0.00500000
v -0.01186597 -0.02387627 0.01500000
v -0.01063071 -0.02319862 0.00514389
v -0.01077104 -0.02280055 0.00500000
v -0.01071765 -0.02294658 0.01500000
v -0.01049241 -0.02364528 0.01460748
v -0.01303463 -0.02311729 0.00500000
v -0.01199766 -0.02379364 0.01500000
v -0.01063071 -0.02319862 0.01485611
v -0.01091823 -0.02243081 0.00500000
v -0.01077104 -0.02280055 0.01500000
v -0.01303463 -0.02168222 0.00500000
v -0.01303463 -0.02311729 0.01500000
v -0.01122177 -0.02168222 0.00500000
v -0.01091823 -0.02243081 0.01500000
v -0.01303463 -0.02168222 0.01500000
v -0.01122177 -0.02168222 0.01500000
f 1 2 3
f 1 3 4
f 1 4 11
f 1 11 5
f 1 5 8
f 1 8 2
f 2 6 7
f 2 7 3
f 2 8 13
f 2 13 6
f 3 7 14
f 3 14 20
f 3 20 25
f 3 25 27
f 3 27 23
f 3 23 17
f 3 17 9
f 3 9 10
f 3 10 4
f 4 10 19
f 4 19 11
f 5 11 12
f 5 12 8
f 6 13 15
f 6 15 7
f 7 15 21
f 7 21 14
f 8 12 15
f 8 15 13
f 9 16 10
f 9 17 24
f 9 24 18
f 9 18 22
f 9 22 16
f 10 16 22
f 10 22 19
f 11 19 12
f 12 19 18
f 12 18 24
f 12 24 28
f 12 28 30
f 12 30 29
f 12 29 26
f 12 26 21
f 12 21 15
f 14 21 26
f 14 26 20
f 17 23 28
f 17 28 24
f 18 19 22
f 20 26 29
f 20 29 25
f 23 27 30
f 23 30 28
f 25 29 30
f 25 30 27

