# https://github.com/mikedh/trimesh
v -0.03025317 0.00923642 0.00500000
v -0.03025317 0.00923642 0.01501127
v -0.03025317 0.01156799 0.00500000
v -0.00294415 0.00923642 0.00500000
v -0.03025317 0.01156799 0.01501127
v -0.01424865 0.00923642 0.01501127
v -0.00393197 0.01156799 0.00500000
v -0.00198194 0.01000631 0.00500000
v -0.00294415 0.00923642 0.01499951
v -0.01549838 0.01156799 0.01501127
v -0.01401237 0.00937451 0.01501127
v -0.00393197 0.01156799 0.01499951
v -0.00165741 0.01148377 0.00539296
v -0.00212428 0.01149039 0.00514405
v -0.00239187 0.01148559 0.00500000
v -0.00186237 0.01010605 0.00500000
v -0.00198194 0.01000631 0.01499951
v -0.01537597 0.01141369 0.01501127
v -0.00239187 0.01148559 0.01499951
v -0.01443654 0.01007410 0.01501127
v -0.00186237 0.01010605 0.01499951
v -0.00198479 0.01044181 0.01499951
v -0.00212428 0.01149039 0.01485545
v -0.00165741 0.01148377 0.01460752
v -0.00145244 0.01147509 0.00550076
v -0.00225807 0.01115440 0.00500000
v -0.00166025 0.01028112 0.00514405
v -0.01489202 0.01075405 0.01501127
v -0.00166025 0.01028112 0.01485545
v -0.00117061 0.01074173 0.01449973
v -0.00145244 0.01147509 0.01449973
v -0.00117061 0.01074173 0.00550076
v -0.00131864 0.01059862 0.00539296
v -0.00131864 0.01059862 0.01460752
f 1 2 5
f 1 5 3
f 1 3 7
f 1 7 15
f 1 15 26
f 1 26 16
f 1 16 8
f 1 8 4
f 1 4 9
f 1 9 6
f 1 6 2
f 2 6 11
f 2 11 20
f 2 20 28
f 2 28 18
f 2 18 10
f 2 10 5
f 3 5 10
f 3 10 12
f 3 12 7
f 4 8 17
f 4 17 9
f 6 9 11
f 7 12 24
f 7 24 13
f 7 13 14
f 7 14 15
f 8 16 21
f 8 21 17
f 9 17 11
f 10 18 19
f 10 19 12
f 11 17 21
f 11 21 22
f 11 22 19
f 11 19 20
f 12 19 23
f 12 23 24
f 13 24 31
f 13 31 25
f 13 25 14
f 14 25 26
f 14 26 15
f 16 26 27
f 16 27 29
f 16 29 21
f 18 28 19
f 19 22 24
f 19 24 23
f 19 28 20
f 21 29 30
f 21 30 22
f 22 30 31
f 22 31 24
f 25 31 30
f 25 30 32
f 25 32 26
f 26 32 27
f 27 32 33
f 27 33 34
f 27 34 29
f 29 34 30
f 30 34 33
f 30 33 32

