# https://github.com/mikedh/trimesh
v -0.05209024 0.01905492 0.01500000
v -0.05238082 0.01919800 0.01500000
v -0.05209024 0.01778827 0.01500000
v -0.05209024 0.01905492 0.00500000
v -0.05268094 0.01933176 0.01500000
v -0.05238082 0.01919800 0.00500000
v -0.05372595 0.01778827 0.01500000
v -0.05209024 0.01778827 0.00500000
v -0.05305046 0.01947899 0.01500000
v -0.05268094 0.01933176 0.00500000
v -0.05382273 0.01792143 0.01500000
v -0.05372595 0.01778827 0.00500000
v -0.05319660 0.01953250 0.01500000
v -0.05305046 0.01947899 0.00500000
v -0.05404366 0.01825237 0.01500000
v -0.05382273 0.01792143 0.00500000
v -0.05319660 0.01953250 0.00500000
v -0.05344857 0.01961949 0.01485611
v -0.05389532 0.01975741 0.01460748
v -0.05342633 0.01925883 0.01500000
v -0.05412627 0.01838395 0.01500000
v -0.05404366 0.01825237 0.00500000
v -0.05390656 0.01866593 0.00500000
v -0.05389532 0.01975741 0.00539252
v -0.05344857 0.01961949 0.00514389
v -0.05409230 0.01981230 0.01449980
v -0.05458670 0.01920216 0.01449980
v -0.05449187 0.01902084 0.01460748
v -0.05426386 0.01861282 0.01485611
v -0.05412627 0.01838395 0.00500000
v -0.05449187 0.01902084 0.00539252
v -0.05458670 0.01920216 0.00550020
v -0.05409230 0.01981230 0.00550020
v -0.05426386 0.01861282 0.00514389
f 1 2 5
f 1 5 9
f 1 9 13
f 1 13 20
f 1 20 21
f 1 21 15
f 1 15 11
f 1 11 7
f 1 7 3
f 1 3 8
f 1 8 4
f 1 4 6
f 1 6 2
f 2 6 10
f 2 10 5
f 3 7 12
f 3 12 8
f 4 8 12
f 4 12 16
f 4 16 22
f 4 22 30
f 4 30 23
f 4 23 17
f 4 17 14
f 4 14 10
f 4 10 6
f 5 10 14
f 5 14 9
f 7 11 16
f 7 16 12
f 9 14 17
f 9 17 13
f 11 15 22
f 11 22 16
f 13 17 25
f 13 25 18
f 13 18 19
f 13 19 20
f 15 21 30
f 15 30 22
f 17 23 24
f 17 24 25
f 18 25 24
f 18 24 19
f 19 26 20
f 19 24 33
f 19 33 26
f 20 26 27
f 20 27 28
f 20 28 21
f 21 28 29
f 21 29 34
f 21 34 30
f 23 30 31
f 23 31 32
f 23 32 33
f 23 33 24
f 26 33 32
f 26 32 27
f 27 32 31
f 27 31 28
f 28 31 34
f 28 34 29
f 30 34 31

