# https://github.com/mikedh/trimesh
v -0.04843646 -0.00453705 0.01501127
v -0.04836090 -0.00485287 0.01501127
v -0.04843840 -0.00453705 0.02096216
v -0.03235085 -0.00453705 0.01501127
v -0.04813227 -0.00563892 0.01501127
v -0.04836090 -0.00485287 0.03000000
v -0.04843840 -0.00453705 0.03000000
v -0.03235085 -0.00453705 0.03000000
v -0.02864430 -0.00473461 0.01501127
v -0.04786876 -0.00641245 0.01501127
v -0.04786876 -0.00641384 0.03000000
v -0.04813033 -0.00563892 0.03000000
v -0.02864430 -0.00473461 0.03000000
v -0.02864430 -0.01868044 0.01501127
v -0.04757231 -0.00717485 0.01501127
v -0.04757231 -0.00717624 0.03000000
v -0.02864430 -0.01868044 0.03000000
v -0.02943289 -0.01873191 0.01501127
v -0.04724293 -0.00792473 0.01501127
v -0.04724293 -0.00792473 0.03000000
v -0.02943289 -0.01873191 0.03000000
v -0.03025054 -0.01875000 0.03000000
v -0.03025247 -0.01874861 0.01501127
v -0.04688060 -0.00865792 0.01501127
v -0.04688060 -0.00865792 0.03000000
v -0.03106819 -0.01873191 0.03000000
v -0.03107012 -0.01873191 0.01501127
v -0.04648728 -0.00937580 0.01501127
v -0.04648728 -0.00937580 0.03000000
v -0.03188584 -0.01867765 0.03000000
v -0.03188584 -0.01867765 0.01501127
v -0.04606295 -0.01007420 0.01501127
v -0.04606295 -0.01007559 0.03000000
v -0.03269767 -0.01858862 0.03000000
v -0.03269961 -0.01858862 0.01501127
v -0.04560763 -0.01075452 0.01501127
v -0.04560763 -0.01075591 0.03000000
v -0.03350757 -0.01846479 0.03000000
v -0.03350757 -0.01846479 0.01501127
v -0.04512517 -0.01141397 0.01501127
v -0.04512517 -0.01141536 0.03000000
v -0.03430972 -0.01830480 0.03000000
v -0.03430972 -0.01830480 0.01501127
v -0.04461366 -0.01205116 0.01501127
v -0.04461172 -0.01205116 0.03000000
v -0.03510412 -0.01811003 0.03000000
v -0.03510412 -0.01811003 0.01501127
v -0.04407308 -0.01266609 0.01501127
v -0.04407308 -0.01266609 0.03000000
v -0.03588883 -0.01788186 0.03000000
v -0.03588883 -0.01788186 0.01501127
v -0.04350731 -0.01325737 0.01501127
v -0.04350731 -0.01325737 0.03000000
v -0.03666385 -0.01761892 0.03000000
v -0.03666385 -0.01761892 0.01501127
v -0.04291636 -0.01382221 0.01501127
v -0.04291636 -0.01382361 0.03000000
v -0.03742532 -0.01732258 0.03000000
v -0.03742725 -0.01732119 0.01501127
v -0.04230215 -0.01436202 0.01501127
v -0.04230215 -0.01436202 0.03000000
v -0.03817515 -0.01699286 0.03000000
v -0.03817515 -0.01699286 0.01501127
v -0.04166469 -0.01487400 0.01501127
v -0.04166276 -0.01487539 0.03000000
v -0.03890755 -0.01663114 0.03000000
v -0.03890755 -0.01663114 0.01501127
v -0.04100399 -0.01535815 0.01501127
v -0.04100399 -0.01535815 0.03000000
v -0.03962444 -0.01623741 0.03000000
v -0.03962444 -0.01623741 0.01501127
v -0.04032390 -0.01581308 0.01501127
v -0.04032390 -0.01581308 0.03000000
f 1 2 3
f 1 3 7
f 1 7 8
f 1 8 4
f 1 4 9
f 1 9 14
f 1 14 18
f 1 18 23
f 1 23 27
f 1 27 31
f 1 31 35
f 1 35 39
f 1 39 43
f 1 43 47
f 1 47 51
f 1 51 55
f 1 55 59
f 1 59 63
f 1 63 67
f 1 67 71
f 1 71 72
f 1 72 68
f 1 68 64
f 1 64 60
f 1 60 56
f 1 56 52
f 1 52 48
f 1 48 44
f 1 44 40
f 1 40 36
f 1 36 32
f 1 32 28
f 1 28 24
f 1 24 19
f 1 19 15
f 1 15 10
f 1 10 5
f 1 5 2
f 2 5 6
f 2 6 7
f 2 7 3
f 4 8 13
f 4 13 9
f 5 10 11
f 5 11 12
f 5 12 6
f 6 12 11
f 6 11 16
f 6 16 20
f 6 20 25
f 6 25 29
f 6 29 33
f 6 33 37
f 6 37 41
f 6 41 45
f 6 45 49
f 6 49 53
f 6 53 57
f 6 57 61
f 6 61 65
f 6 65 69
f 6 69 73
f 6 73 70
f 6 70 66
f 6 66 62
f 6 62 58
f 6 58 54
f 6 54 50
f 6 50 46
f 6 46 42
f 6 42 38
f 6 38 34
f 6 34 30
f 6 30 26
f 6 26 22
f 6 22 21
f 6 21 17
f 6 17 13
f 6 13 8
f 6 8 7
f 9 13 17
f 9 17 14
f 10 15 16
f 10 16 11
f 14 17 21
f 14 21 18
f 15 19 16
f 16 19 20
f 18 21 22
f 18 22 23
f 19 24 25
f 19 25 20
f 22 26 27
f 22 27 23
f 24 28 29
f 24 29 25
f 26 30 27
f 27 30 31
f 28 32 33
f 28 33 29
f 30 34 35
f 30 35 31
f 32 36 37
f 32 37 33
f 34 38 35
f 35 38 39
f 36 40 41
f 36 41 37
f 38 42 43
f 38 43 39
f 40 44 41
f 41 44 45
f 42 46 47
f 42 47 43
f 44 48 49
f 44 49 45
f 46 50 51
f 46 51 47
f 48 52 53
f 48 53 49
f 50 54 55
f 50 55 51
f 52 56 57
f 52 57 53
f 54 58 55
f 55 58 59
f 56 60 57
f 57 60 61
f 58 62 63
f 58 63 59
f 60 64 61
f 61 64 65
f 62 66 67
f 62 67 63
f 64 68 69
f 64 69 65
f 66 70 71
f 66 71 67
f 68 72 73
f 68 73 69
f 70 73 72
f 70 72 71

