# https://github.com/mikedh/trimesh
v -0.02407833 0.01770199 0.01501127
v -0.02407833 0.01449308 0.01501127
v -0.02383629 0.01761979 0.01501127
v -0.02173927 0.02890578 0.01499951
v -0.02208280 0.02900472 0.01499951
v -0.02316678 0.02928939 0.01499951
v -0.02407833 0.02808680 0.01499951
v -0.02407833 0.01449308 0.00500000
v -0.02136413 0.01449308 0.01501127
v -0.02307405 0.01732295 0.01501127
v -0.02176265 0.02917217 0.01485545
v -0.02181818 0.02963646 0.01460752
v -0.02232536 0.01699415 0.01501127
v -0.02159182 0.01663185 0.01501127
v -0.02136413 0.01650703 0.01501127
v -0.02136413 0.02734090 0.01499951
v -0.02184820 0.02983892 0.01449973
v -0.02260672 0.03004138 0.01449973
v -0.02273345 0.02988154 0.01460752
v -0.02301374 0.02950707 0.01485545
v -0.02407833 0.02808680 0.00500000
v -0.02136413 0.01449308 0.00500000
v -0.02136413 0.02734090 0.00500000
v -0.02184820 0.02983892 0.00550076
v -0.02260672 0.03004138 0.00550076
v -0.02273345 0.02988154 0.00539296
v -0.02301374 0.02950707 0.00514405
v -0.02316678 0.02928939 0.00500000
v -0.02173927 0.02890578 0.00500000
v -0.02176265 0.02917217 0.00514405
v -0.02181818 0.02963646 0.00539296
v -0.02282006 0.02920262 0.00500000
f 1 2 9
f 1 9 15
f 1 15 14
f 1 14 13
f 1 13 10
f 1 10 3
f 1 3 4
f 1 4 5
f 1 5 6
f 1 6 7
f 1 7 21
f 1 21 8
f 1 8 2
f 2 8 22
f 2 22 9
f 3 10 4
f 4 11 12
f 4 12 5
f 4 10 13
f 4 13 14
f 4 14 15
f 4 15 16
f 4 16 11
f 5 12 17
f 5 17 18
f 5 18 19
f 5 19 6
f 6 19 20
f 6 20 7
f 7 20 19
f 7 19 26
f 7 26 21
f 8 21 28
f 8 28 32
f 8 32 29
f 8 29 23
f 8 23 22
f 9 22 23
f 9 23 16
f 9 16 15
f 11 16 12
f 12 16 17
f 16 23 24
f 16 24 17
f 17 24 25
f 17 25 18
f 18 25 26
f 18 26 19
f 21 26 27
f 21 27 28
f 23 29 30
f 23 30 31
f 23 31 24
f 24 31 32
f 24 32 25
f 25 32 26
f 26 32 28
f 26 28 27
f 29 32 30
f 30 32 31

