# https://github.com/mikedh/trimesh
v -0.01150004 -0.00000191 0.03000000
v -0.01151854 -0.00081810 0.03000000
v -0.01151854 -0.00081863 0.01501127
v -0.01150004 -0.00000191 0.01501127
v -0.02524948 -0.00000191 0.03000000
v -0.01157262 -0.00163403 0.03000000
v -0.01157262 -0.00163456 0.01501127
v -0.02524948 -0.00000191 0.01501127
v -0.02603935 -0.00269600 0.03000000
v -0.01166086 -0.00244732 0.03000000
v -0.01166086 -0.00244785 0.01501127
v -0.02603935 -0.00269600 0.01501127
v -0.01169929 -0.00269600 0.03000000
v -0.01169929 -0.00269600 0.01501127
f 1 2 3
f 1 3 4
f 1 4 8
f 1 8 5
f 1 5 9
f 1 9 13
f 1 13 10
f 1 10 6
f 1 6 2
f 2 6 7
f 2 7 3
f 3 7 11
f 3 11 14
f 3 14 12
f 3 12 8
f 3 8 4
f 5 8 12
f 5 12 9
f 6 10 11
f 6 11 7
f 9 12 14
f 9 14 13
f 10 13 11
f 11 13 14

