# https://github.com/mikedh/trimesh
v -0.01303820 -0.02578262 0.01449980
v -0.01307234 -0.02558101 0.01460748
v -0.01415939 -0.02547823 0.01500000
v -0.01369699 -0.02621034 0.01449980
v -0.01303820 -0.02578262 0.00550020
v -0.01316313 -0.02512246 0.01485611
v -0.01322321 -0.02486261 0.01500000
v -0.01307234 -0.02558101 0.00539252
v -0.01446244 -0.02566719 0.01500000
v -0.01386744 -0.02609728 0.01460748
v -0.01369699 -0.02621034 0.00550020
v -0.01351912 -0.02506237 0.00500000
v -0.01316313 -0.02512246 0.00514389
v -0.01326106 -0.02471160 0.01500000
v -0.01322321 -0.02486261 0.00500000
v -0.01574217 -0.02482229 0.01500000
v -0.01424964 -0.02582795 0.01485611
v -0.01386744 -0.02609728 0.00539252
v -0.01446244 -0.02566719 0.00500000
v -0.01358450 -0.02351831 0.01500000
v -0.01326106 -0.02471160 0.00500000
v -0.01574217 -0.02351831 0.01500000
v -0.01574217 -0.02482229 0.00500000
v -0.01424964 -0.02582795 0.00514389
v -0.01358450 -0.02351831 0.00500000
v -0.01574217 -0.02351831 0.00500000
f 1 2 3
f 1 3 4
f 1 4 11
f 1 11 5
f 1 5 8
f 1 8 2
f 2 6 7
f 2 7 3
f 2 8 13
f 2 13 6
f 3 9 10
f 3 10 4
f 3 7 14
f 3 14 20
f 3 20 22
f 3 22 16
f 3 16 9
f 4 10 18
f 4 18 11
f 5 11 12
f 5 12 8
f 6 13 15
f 6 15 7
f 7 15 21
f 7 21 14
f 8 12 15
f 8 15 13
f 9 16 17
f 9 17 10
f 10 17 16
f 10 16 23
f 10 23 18
f 11 18 12
f 12 18 19
f 12 19 23
f 12 23 26
f 12 26 25
f 12 25 21
f 12 21 15
f 14 21 25
f 14 25 20
f 16 22 26
f 16 26 23
f 18 24 19
f 18 23 24
f 19 24 23
f 20 25 26
f 20 26 22

