# https://github.com/mikedh/trimesh
v -0.05153823 -0.01981569 0.00500000
v -0.05191409 -0.01902991 0.00500000
v -0.05008473 -0.01981569 0.00500000
v -0.05153823 -0.01981569 0.01239820
v -0.05191409 -0.01902991 0.00625783
v -0.05191409 -0.01721832 0.00500000
v -0.05008473 -0.01721832 0.00500000
v -0.05008473 -0.01981569 0.01500000
v -0.05153626 -0.01981569 0.01500000
v -0.05191409 -0.01902839 0.01500000
v -0.05191409 -0.01721832 0.01500000
v -0.05008473 -0.01721832 0.01500000
f 1 2 6
f 1 6 7
f 1 7 3
f 1 3 8
f 1 8 9
f 1 9 4
f 1 4 5
f 1 5 2
f 2 5 10
f 2 10 11
f 2 11 6
f 3 7 12
f 3 12 8
f 4 9 10
f 4 10 5
f 6 11 12
f 6 12 7
f 8 12 11
f 8 11 10
f 8 10 9

