# https://github.com/mikedh/trimesh
v -0.00591357 -0.01920208 0.01449980
v -0.00600813 -0.01902065 0.01460748
v -0.00707379 -0.01925884 0.01500000
v -0.00640775 -0.01981225 0.01449980
v -0.00591357 -0.01920208 0.00550020
v -0.00623590 -0.01861269 0.01485611
v -0.00637349 -0.01838413 0.01500000
v -0.00600813 -0.01902065 0.00539252
v -0.00730375 -0.01953250 0.01500000
v -0.00660482 -0.01975751 0.01460748
v -0.00640775 -0.01981225 0.00550020
v -0.00659331 -0.01866564 0.00500000
v -0.00623590 -0.01861269 0.00514389
v -0.00645627 -0.01825236 0.01500000
v -0.00637349 -0.01838413 0.00500000
v -0.00871339 -0.01907234 0.01500000
v -0.00705131 -0.01961942 0.01485611
v -0.00660482 -0.01975751 0.00539252
v -0.00730375 -0.01953250 0.00500000
v -0.00713245 -0.01722384 0.01500000
v -0.00645627 -0.01825236 0.00500000
v -0.00871339 -0.01722384 0.01500000
v -0.00871339 -0.01907234 0.00500000
v -0.00705131 -0.01961942 0.00514389
v -0.00713245 -0.01722384 0.00500000
v -0.00871339 -0.01722384 0.00500000
f 1 2 3
f 1 3 4
f 1 4 11
f 1 11 5
f 1 5 8
f 1 8 2
f 2 6 7
f 2 7 3
f 2 8 13
f 2 13 6
f 3 7 14
f 3 14 20
f 3 20 22
f 3 22 16
f 3 16 9
f 3 9 10
f 3 10 4
f 4 10 18
f 4 18 11
f 5 11 12
f 5 12 8
f 6 13 15
f 6 15 7
f 7 15 21
f 7 21 14
f 8 12 15
f 8 15 13
f 9 16 17
f 9 17 10
f 10 17 24
f 10 24 18
f 11 18 12
f 12 18 19
f 12 19 23
f 12 23 26
f 12 26 25
f 12 25 21
f 12 21 15
f 14 21 25
f 14 25 20
f 16 22 26
f 16 26 23
f 16 23 24
f 16 24 17
f 18 24 19
f 19 24 23
f 20 25 26
f 20 26 22

