# https://github.com/mikedh/trimesh
v -0.04397251 -0.02779694 0.00550020
v -0.04467240 -0.02744055 0.00550020
v -0.04358925 -0.02702068 0.00500000
v -0.04381489 -0.02766682 0.00539252
v -0.04397251 -0.02779694 0.01449980
v -0.04467240 -0.02744055 0.01449980
v -0.04465950 -0.02723649 0.00539252
v -0.04326792 -0.02717692 0.00500000
v -0.04346330 -0.02735903 0.00514389
v -0.04458468 -0.02650596 0.00500000
v -0.04381489 -0.02766682 0.01460748
v -0.04426944 -0.02667396 0.01500000
v -0.04465950 -0.02723649 0.01460748
v -0.04461728 -0.02677090 0.00514389
v -0.04315651 -0.02706849 0.00500000
v -0.04326792 -0.02717692 0.01500000
v -0.04346330 -0.02735903 0.01485611
v -0.04458468 -0.02650596 0.01500000
v -0.04456287 -0.02635232 0.00500000
v -0.04461728 -0.02677090 0.01485611
v -0.04227625 -0.02619007 0.00500000
v -0.04315651 -0.02706849 0.01500000
v -0.04456287 -0.02635232 0.01500000
v -0.04436725 -0.02512797 0.00500000
v -0.04227625 -0.02512797 0.00500000
v -0.04227625 -0.02619007 0.01500000
v -0.04436725 -0.02512797 0.01500000
v -0.04227625 -0.02512797 0.01500000
f 1 2 3
f 1 3 4
f 1 4 11
f 1 11 5
f 1 5 6
f 1 6 2
f 2 6 13
f 2 13 7
f 2 7 3
f 3 8 9
f 3 9 4
f 3 7 10
f 3 10 19
f 3 19 24
f 3 24 25
f 3 25 21
f 3 21 15
f 3 15 8
f 4 9 17
f 4 17 11
f 5 11 12
f 5 12 6
f 6 12 13
f 7 13 20
f 7 20 14
f 7 14 10
f 8 15 22
f 8 22 16
f 8 16 17
f 8 17 9
f 10 14 20
f 10 20 18
f 10 18 23
f 10 23 19
f 11 17 16
f 11 16 12
f 12 18 13
f 12 16 22
f 12 22 26
f 12 26 28
f 12 28 27
f 12 27 23
f 12 23 18
f 13 18 20
f 15 21 26
f 15 26 22
f 19 23 27
f 19 27 24
f 21 25 28
f 21 28 26
f 24 27 28
f 24 28 25

