# https://github.com/mikedh/trimesh
v -0.01043238 0.02128938 0.01500000
v -0.01122147 0.02167992 0.01473767
v -0.01122198 0.02167992 0.01500000
v -0.01043238 0.01991767 0.01500000
v -0.01043238 0.02128938 0.00500000
v -0.01122147 0.02167992 0.00500000
v -0.01302836 0.02167992 0.01500000
v -0.01302836 0.01991767 0.01500000
v -0.01043238 0.01991767 0.00500000
v -0.01302836 0.02167992 0.00500000
v -0.01302836 0.01991767 0.00500000
f 1 2 3
f 1 3 7
f 1 7 8
f 1 8 4
f 1 4 9
f 1 9 5
f 1 5 6
f 1 6 2
f 2 6 10
f 2 10 7
f 2 7 3
f 4 8 11
f 4 11 9
f 5 9 11
f 5 11 10
f 5 10 6
f 7 10 11
f 7 11 8

