# https://github.com/mikedh/trimesh
v -0.00864073 0.01700029 0.00500000
v -0.00864100 0.01904138 0.00500000
v -0.00706488 0.01700029 0.00500000
v -0.00864073 0.01700029 0.01500000
v -0.00730358 0.01953252 0.00500000
v -0.00864100 0.01904138 0.01500000
v -0.00637361 0.01838396 0.00500000
v -0.00623611 0.01861246 0.00514389
v -0.00600808 0.01902073 0.00539252
v -0.00706488 0.01700029 0.01500000
v -0.00730358 0.01953252 0.01500000
v -0.00705126 0.01961924 0.00514389
v -0.00660484 0.01975744 0.00539252
v -0.00640752 0.01981250 0.00550020
v -0.00707369 0.01925887 0.00500000
v -0.00591357 0.01920215 0.00550020
v -0.00600808 0.01902073 0.01460748
v -0.00623611 0.01861246 0.01485611
v -0.00637361 0.01838396 0.01500000
v -0.00659336 0.01866559 0.01500000
v -0.00640752 0.01981250 0.01449980
v -0.00660484 0.01975744 0.01460748
v -0.00705126 0.01961924 0.01485611
v -0.00591357 0.01920215 0.01449980
f 1 2 5
f 1 5 15
f 1 15 7
f 1 7 3
f 1 3 10
f 1 10 4
f 1 4 6
f 1 6 2
f 2 6 11
f 2 11 5
f 3 7 8
f 3 8 9
f 3 9 17
f 3 17 10
f 4 10 19
f 4 19 20
f 4 20 11
f 4 11 6
f 5 11 23
f 5 23 12
f 5 12 13
f 5 13 14
f 5 14 15
f 7 15 9
f 7 9 8
f 9 15 16
f 9 16 24
f 9 24 17
f 10 17 18
f 10 18 19
f 11 20 21
f 11 21 22
f 11 22 23
f 12 23 22
f 12 22 13
f 13 22 21
f 13 21 14
f 14 16 15
f 14 21 24
f 14 24 16
f 17 20 19
f 17 19 18
f 17 24 20
f 20 24 21

