# https://github.com/mikedh/trimesh
v -0.05953856 0.00708309 0.00500000
v -0.05975801 0.00723625 0.00514405
v -0.05945322 0.00742980 0.00500000
v -0.05838496 0.00590727 0.00500000
v -0.06013137 0.00751607 0.00539296
v -0.06029290 0.00764329 0.00550076
v -0.06008869 0.00840197 0.00550076
v -0.05942275 0.00848742 0.00514405
v -0.05915606 0.00851062 0.00500000
v -0.05838496 0.00590727 0.01499951
v -0.04472459 0.00590727 0.00500000
v -0.06029290 0.00764329 0.01449973
v -0.06008869 0.00840197 0.01449973
v -0.05988601 0.00843200 0.00539296
v -0.05942275 0.00848742 0.01485545
v -0.05766110 0.00869627 0.00500000
v -0.05953856 0.00708309 0.01499951
v -0.05975801 0.00723625 0.01485545
v -0.06013137 0.00751607 0.01460752
v -0.04804215 0.00590727 0.01501127
v -0.04472459 0.00869627 0.00500000
v -0.04472459 0.00590727 0.01501127
v -0.05925511 0.00816719 0.01499951
v -0.05988601 0.00843200 0.01460752
v -0.05915606 0.00851062 0.01499951
v -0.05766110 0.00869627 0.01499951
v -0.04786995 0.00641369 0.01501127
v -0.04472459 0.00869627 0.01501127
v -0.04757279 0.00717591 0.01501127
v -0.04724362 0.00792449 0.01501127
v -0.04688245 0.00865832 0.01501127
v -0.04686112 0.00869627 0.01501029
v -0.04533720 0.00869627 0.01501127
f 1 2 3
f 1 3 9
f 1 9 16
f 1 16 21
f 1 21 11
f 1 11 4
f 1 4 2
f 2 5 6
f 2 6 3
f 2 4 5
f 3 6 7
f 3 7 8
f 3 8 9
f 4 10 12
f 4 12 6
f 4 6 5
f 4 11 22
f 4 22 20
f 4 20 10
f 6 12 13
f 6 13 7
f 7 13 24
f 7 24 14
f 7 14 8
f 8 14 24
f 8 24 15
f 8 15 26
f 8 26 16
f 8 16 9
f 10 17 18
f 10 18 19
f 10 19 12
f 10 20 17
f 11 21 28
f 11 28 22
f 12 19 18
f 12 18 17
f 12 17 23
f 12 23 13
f 13 23 24
f 15 23 25
f 15 25 26
f 15 24 23
f 16 26 32
f 16 32 33
f 16 33 28
f 16 28 21
f 17 20 23
f 20 22 28
f 20 28 33
f 20 33 31
f 20 31 30
f 20 30 29
f 20 29 27
f 20 27 25
f 20 25 23
f 25 27 29
f 25 29 30
f 25 30 31
f 25 31 26
f 26 31 32
f 31 33 32

