# https://github.com/mikedh/trimesh
v -0.02814943 -0.00453687 0.01501127
v -0.02814943 -0.00453687 0.03000000
v -0.02603834 -0.00269600 0.01501127
v -0.01206261 -0.00453687 0.01501127
v -0.02603834 -0.00269600 0.03000000
v -0.01206261 -0.00453687 0.03000000
v -0.01170029 -0.00269600 0.01501127
v -0.01194506 -0.00405877 0.01501127
v -0.01169868 -0.00269600 0.03000000
v -0.01194506 -0.00405823 0.03000000
v -0.01169868 -0.00269600 0.01961382
v -0.01178564 -0.00325664 0.01501127
v -0.01178564 -0.00325592 0.03000000
f 1 2 5
f 1 5 3
f 1 3 7
f 1 7 12
f 1 12 8
f 1 8 4
f 1 4 6
f 1 6 2
f 2 6 10
f 2 10 13
f 2 13 9
f 2 9 5
f 3 5 9
f 3 9 11
f 3 11 7
f 4 8 6
f 6 8 10
f 7 11 12
f 8 12 10
f 9 13 12
f 9 12 11
f 10 12 13

