# https://github.com/mikedh/trimesh
v -0.01574083 -0.00626523 0.00500000
v -0.01574083 -0.00626523 0.01501127
v -0.01574083 -0.00316279 0.00500000
v -0.00215220 -0.00626523 0.00500000
v -0.01257984 -0.00626523 0.01501127
v -0.01574083 -0.00316279 0.01501127
v -0.00207448 -0.00316279 0.00500000
v -0.00205304 -0.00573373 0.00500000
v -0.00215220 -0.00626523 0.01499951
v -0.01236679 -0.00563867 0.01501127
v -0.01177050 -0.00316279 0.01501127
v -0.00205304 -0.00316279 0.00988902
v -0.00205304 -0.00316492 0.00500000
v -0.00205304 -0.00573373 0.01499951
v -0.01178390 -0.00325664 0.01501127
v -0.01194336 -0.00405905 0.01501127
v -0.01213899 -0.00485326 0.01501127
v -0.00205304 -0.00316279 0.01499951
f 1 2 6
f 1 6 3
f 1 3 7
f 1 7 13
f 1 13 8
f 1 8 4
f 1 4 9
f 1 9 5
f 1 5 2
f 2 5 10
f 2 10 17
f 2 17 16
f 2 16 15
f 2 15 11
f 2 11 6
f 3 6 11
f 3 11 18
f 3 18 12
f 3 12 7
f 4 8 14
f 4 14 9
f 5 9 10
f 7 12 13
f 8 13 12
f 8 12 18
f 8 18 14
f 9 14 15
f 9 15 16
f 9 16 17
f 9 17 10
f 11 15 14
f 11 14 18

