# https://github.com/mikedh/trimesh
v -0.01303820 0.02578274 0.01449980
v -0.01307237 0.02558096 0.01460748
v -0.01303820 0.02578274 0.00550020
v -0.01369707 0.02621060 0.01449980
v -0.01351927 0.02506242 0.01500000
v -0.01316314 0.02512247 0.01485611
v -0.01307237 0.02558096 0.00539252
v -0.01322321 0.02486259 0.01500000
v -0.01369707 0.02621060 0.00550020
v -0.01415946 0.02547813 0.00500000
v -0.01386740 0.02609731 0.01460748
v -0.01576553 0.02483488 0.01500000
v -0.01446247 0.02566726 0.01500000
v -0.01316314 0.02512247 0.00514389
v -0.01322321 0.02486259 0.00500000
v -0.01326112 0.02471163 0.01500000
v -0.01386740 0.02609731 0.00539252
v -0.01576553 0.02483488 0.00500000
v -0.01446247 0.02566726 0.00500000
v -0.01424943 0.02582795 0.01485611
v -0.01576553 0.02372730 0.01500000
v -0.01326112 0.02471163 0.00500000
v -0.01336897 0.02432874 0.01500000
v -0.01424943 0.02582795 0.00514389
v -0.01576553 0.02372730 0.00500000
v -0.01357747 0.02372730 0.01500000
v -0.01336897 0.02432874 0.00500000
v -0.01347069 0.02401611 0.01500000
v -0.01357747 0.02372730 0.00500000
v -0.01357400 0.02373630 0.01500000
v -0.01347069 0.02401611 0.00500000
v -0.01357400 0.02373630 0.00500000
f 1 2 7
f 1 7 3
f 1 3 9
f 1 9 4
f 1 4 5
f 1 5 2
f 2 6 14
f 2 14 7
f 2 5 8
f 2 8 6
f 3 7 10
f 3 10 9
f 4 11 5
f 4 9 18
f 4 18 12
f 4 12 11
f 5 11 13
f 5 13 12
f 5 12 21
f 5 21 26
f 5 26 30
f 5 30 28
f 5 28 23
f 5 23 16
f 5 16 8
f 6 8 15
f 6 15 14
f 7 14 15
f 7 15 10
f 8 16 22
f 8 22 15
f 9 10 17
f 9 17 18
f 10 19 17
f 10 15 22
f 10 22 27
f 10 27 31
f 10 31 32
f 10 32 29
f 10 29 25
f 10 25 18
f 10 18 19
f 11 12 20
f 11 20 13
f 12 13 20
f 12 18 25
f 12 25 21
f 16 23 27
f 16 27 22
f 17 19 24
f 17 24 18
f 18 24 19
f 21 25 29
f 21 29 26
f 23 28 31
f 23 31 27
f 26 29 32
f 26 32 30
f 28 30 32
f 28 32 31

