# https://github.com/mikedh/trimesh
v -0.00403970 -0.01655289 0.01449980
v -0.00415277 -0.01638258 0.01460748
v -0.00518755 -0.01673081 0.01500000
v -0.00446721 -0.01721180 0.01449980
v -0.00403970 -0.01655289 0.00550020
v -0.00442188 -0.01600049 0.01485611
v -0.00458263 -0.01578747 0.01500000
v -0.00415277 -0.01638258 0.00539252
v -0.00538737 -0.01702677 0.01500000
v -0.00466912 -0.01717769 0.01460748
v -0.00446721 -0.01721180 0.00550020
v -0.00477176 -0.01609055 0.00500000
v -0.00442188 -0.01600049 0.00514389
v -0.00467876 -0.01566526 0.01500000
v -0.00458263 -0.01578747 0.00500000
v -0.00553822 -0.01698897 0.01500000
v -0.00538737 -0.01702677 0.00500000
v -0.00512763 -0.01708689 0.01485611
v -0.00466912 -0.01717769 0.00539252
v -0.00545954 -0.01470475 0.01500000
v -0.00467876 -0.01566526 0.00500000
v -0.00592118 -0.01688100 0.01500000
v -0.00553822 -0.01698897 0.00500000
v -0.00512763 -0.01708689 0.00514389
v -0.00670092 -0.01470475 0.01500000
v -0.00545954 -0.01470475 0.00500000
v -0.00670092 -0.01665817 0.01500000
v -0.00592118 -0.01688100 0.00500000
v -0.00670092 -0.01470475 0.00500000
v -0.00670092 -0.01665817 0.00500000
f 1 2 3
f 1 3 4
f 1 4 11
f 1 11 5
f 1 5 8
f 1 8 2
f 2 6 7
f 2 7 3
f 2 8 13
f 2 13 6
f 3 7 14
f 3 14 20
f 3 20 25
f 3 25 27
f 3 27 22
f 3 22 16
f 3 16 9
f 3 9 10
f 3 10 4
f 4 10 19
f 4 19 11
f 5 11 12
f 5 12 8
f 6 13 15
f 6 15 7
f 7 15 21
f 7 21 14
f 8 12 15
f 8 15 13
f 9 16 23
f 9 23 17
f 9 17 24
f 9 24 18
f 9 18 10
f 10 18 24
f 10 24 19
f 11 19 17
f 11 17 12
f 12 17 23
f 12 23 28
f 12 28 30
f 12 30 29
f 12 29 26
f 12 26 21
f 12 21 15
f 14 21 26
f 14 26 20
f 16 22 28
f 16 28 23
f 17 19 24
f 20 26 29
f 20 29 25
f 22 27 30
f 22 30 28
f 25 29 30
f 25 30 27

