# https://github.com/mikedh/trimesh
v -0.01835750 0.01449286 0.01501127
v -0.01873680 0.01449286 0.01501127
v -0.01576553 0.01449286 0.01499951
v -0.01576553 0.02483417 0.01499951
v -0.01591533 0.02650519 0.01499951
v -0.01623064 0.02667320 0.01499951
v -0.01723211 0.02717594 0.01499951
v -0.01873680 0.01449286 0.00500000
v -0.01873680 0.02635150 0.01499951
v -0.01576553 0.01449286 0.00500000
v -0.01576553 0.02483417 0.00500000
v -0.01582778 0.02744033 0.01449973
v -0.01584058 0.02723585 0.01460752
v -0.01588275 0.02677088 0.01485545
v -0.01652733 0.02779720 0.01449973
v -0.01668527 0.02766565 0.01460752
v -0.01703694 0.02735828 0.01485545
v -0.01873680 0.02635150 0.00500000
v -0.01591533 0.02650519 0.00500000
v -0.01588275 0.02677088 0.00514405
v -0.01584058 0.02723585 0.00539296
v -0.01582778 0.02744033 0.00550076
v -0.01652733 0.02779720 0.00550076
v -0.01668527 0.02766565 0.00539296
v -0.01703694 0.02735828 0.00514405
v -0.01723211 0.02717594 0.00500000
v -0.01691070 0.02701965 0.00500000
f 1 2 8
f 1 8 10
f 1 10 3
f 1 3 4
f 1 4 5
f 1 5 6
f 1 6 7
f 1 7 2
f 2 7 9
f 2 9 18
f 2 18 8
f 3 10 11
f 3 11 4
f 4 11 22
f 4 22 12
f 4 12 13
f 4 13 14
f 4 14 5
f 5 14 13
f 5 13 6
f 6 13 12
f 6 12 15
f 6 15 7
f 7 15 16
f 7 16 17
f 7 17 9
f 8 18 26
f 8 26 27
f 8 27 19
f 8 19 11
f 8 11 10
f 9 17 16
f 9 16 15
f 9 15 23
f 9 23 18
f 11 19 20
f 11 20 21
f 11 21 22
f 12 22 23
f 12 23 15
f 18 23 24
f 18 24 25
f 18 25 26
f 19 27 20
f 20 27 22
f 20 22 21
f 22 27 23
f 23 27 26
f 23 26 25
f 23 25 24

