# https://github.com/mikedh/trimesh
v -0.05863779 -0.01010597 0.00500000
v -0.05824217 -0.01115430 0.00500000
v -0.05883986 -0.01028078 0.00514405
v -0.05758187 -0.00890928 0.00500000
v -0.05810840 -0.01148576 0.00500000
v -0.05837594 -0.01149043 0.00514405
v -0.05904763 -0.01147487 0.00550076
v -0.05932940 -0.01074166 0.00550076
v -0.05918140 -0.01059849 0.00539296
v -0.05758187 -0.00890928 0.01499951
v -0.03025602 -0.00890928 0.00500000
v -0.05657433 -0.01155864 0.00500000
v -0.05884271 -0.01148368 0.00539296
v -0.05904763 -0.01147487 0.01449973
v -0.05932940 -0.01074166 0.01449973
v -0.05918140 -0.01059849 0.01460752
v -0.05883986 -0.01028078 0.01485545
v -0.05863779 -0.01010597 0.01499951
v -0.04674090 -0.00890928 0.01501127
v -0.03025602 -0.00890928 0.01501127
v -0.03025602 -0.01155864 0.00500000
v -0.05657433 -0.01155864 0.01499951
v -0.05884271 -0.01148368 0.01460752
v -0.05851540 -0.01044184 0.01499951
v -0.05810840 -0.01148576 0.01499951
v -0.04648759 -0.00937458 0.01501127
v -0.03025602 -0.01155864 0.01501127
v -0.05837594 -0.01149043 0.01485545
v -0.04500759 -0.01155864 0.01501127
v -0.04512429 -0.01141366 0.01501127
v -0.04560813 -0.01075385 0.01501127
v -0.04606351 -0.01007407 0.01501127
f 1 2 3
f 1 3 4
f 1 4 11
f 1 11 21
f 1 21 12
f 1 12 5
f 1 5 2
f 2 5 6
f 2 6 7
f 2 7 8
f 2 8 3
f 3 8 9
f 3 9 4
f 4 9 8
f 4 8 15
f 4 15 10
f 4 10 19
f 4 19 20
f 4 20 11
f 5 12 6
f 6 13 7
f 6 12 13
f 7 14 15
f 7 15 8
f 7 13 23
f 7 23 14
f 10 15 16
f 10 16 17
f 10 17 18
f 10 18 19
f 11 20 27
f 11 27 21
f 12 22 23
f 12 23 13
f 12 21 27
f 12 27 29
f 12 29 22
f 14 23 24
f 14 24 15
f 15 24 18
f 15 18 17
f 15 17 16
f 18 24 19
f 19 24 25
f 19 25 26
f 19 26 32
f 19 32 31
f 19 31 30
f 19 30 29
f 19 29 27
f 19 27 20
f 22 25 28
f 22 28 23
f 22 29 25
f 23 28 25
f 23 25 24
f 25 29 30
f 25 30 31
f 25 31 32
f 25 32 26

