# https://github.com/mikedh/trimesh
v -0.03024890 0.00500031 0.01501127
v -0.03024890 0.00500031 0.03000000
v -0.03024890 0.01874861 0.01501127
v -0.02814255 0.00453415 0.01501127
v -0.03024890 0.01875000 0.03000000
v -0.02814255 0.00453415 0.03000000
v -0.02942986 0.01873191 0.01501127
v -0.01206267 0.00453415 0.01501127
v -0.02943164 0.01873191 0.03000000
v -0.01206089 0.00453415 0.03000000
v -0.02861438 0.01867764 0.03000000
v -0.02861438 0.01867764 0.01501127
v -0.01213923 0.00485281 0.01501127
v -0.01206089 0.00453415 0.02101644
v -0.01213923 0.00485420 0.03000000
v -0.02780247 0.01858858 0.03000000
v -0.02780069 0.01858858 0.01501127
v -0.01236892 0.00563902 0.01501127
v -0.01236892 0.00563902 0.03000000
v -0.02699233 0.01846474 0.03000000
v -0.02699233 0.01846474 0.01501127
v -0.01263066 0.00641271 0.01501127
v -0.01263244 0.00641410 0.03000000
v -0.02619110 0.01830471 0.03000000
v -0.02619110 0.01830471 0.01501127
v -0.01292800 0.00717527 0.01501127
v -0.01292800 0.00717666 0.03000000
v -0.02539698 0.01810990 0.03000000
v -0.02539520 0.01810990 0.01501127
v -0.01325740 0.00792391 0.01501127
v -0.01325740 0.00792530 0.03000000
v -0.02461177 0.01788169 0.03000000
v -0.02460999 0.01788169 0.01501127
v -0.01361884 0.00865725 0.01501127
v -0.01361884 0.00865864 0.03000000
v -0.02383547 0.01761869 0.03000000
v -0.02383547 0.01761869 0.01501127
v -0.01401234 0.00937528 0.01501127
v -0.01401234 0.00937528 0.03000000
v -0.02307341 0.01732229 0.03000000
v -0.02307341 0.01732229 0.01501127
v -0.01443610 0.01007521 0.01501127
v -0.01443788 0.01007521 0.03000000
v -0.02232559 0.01699250 0.03000000
v -0.02232381 0.01699250 0.01501127
v -0.01489192 0.01075428 0.01501127
v -0.01489192 0.01075567 0.03000000
v -0.02159201 0.01663070 0.03000000
v -0.02159023 0.01663070 0.01501127
v -0.01537444 0.01141386 0.01501127
v -0.01537622 0.01141526 0.03000000
v -0.02087624 0.01623690 0.03000000
v -0.02087624 0.01623690 0.01501127
v -0.01588723 0.01205118 0.01501127
v -0.01588723 0.01205118 0.03000000
v -0.02017650 0.01581248 0.03000000
v -0.02017650 0.01581248 0.01501127
v -0.01642672 0.01266624 0.01501127
v -0.01642672 0.01266624 0.03000000
v -0.01949634 0.01535885 0.03000000
v -0.01949634 0.01535745 0.01501127
v -0.01699293 0.01325764 0.01501127
v -0.01699293 0.01325764 0.03000000
v -0.01883577 0.01487459 0.03000000
v -0.01883577 0.01487459 0.01501127
v -0.01758228 0.01382260 0.01501127
v -0.01758406 0.01382399 0.03000000
v -0.01819834 0.01436251 0.03000000
v -0.01819834 0.01436251 0.01501127
f 1 2 5
f 1 5 3
f 1 3 7
f 1 7 12
f 1 12 17
f 1 17 21
f 1 21 25
f 1 25 29
f 1 29 33
f 1 33 37
f 1 37 41
f 1 41 45
f 1 45 49
f 1 49 53
f 1 53 57
f 1 57 61
f 1 61 65
f 1 65 69
f 1 69 66
f 1 66 62
f 1 62 58
f 1 58 54
f 1 54 50
f 1 50 46
f 1 46 42
f 1 42 38
f 1 38 34
f 1 34 30
f 1 30 26
f 1 26 22
f 1 22 18
f 1 18 13
f 1 13 8
f 1 8 4
f 1 4 6
f 1 6 2
f 2 6 10
f 2 10 15
f 2 15 19
f 2 19 23
f 2 23 27
f 2 27 31
f 2 31 35
f 2 35 39
f 2 39 43
f 2 43 47
f 2 47 51
f 2 51 55
f 2 55 59
f 2 59 63
f 2 63 67
f 2 67 68
f 2 68 64
f 2 64 60
f 2 60 56
f 2 56 52
f 2 52 48
f 2 48 44
f 2 44 40
f 2 40 36
f 2 36 32
f 2 32 28
f 2 28 24
f 2 24 20
f 2 20 16
f 2 16 11
f 2 11 9
f 2 9 5
f 3 5 7
f 4 8 14
f 4 14 10
f 4 10 6
f 5 9 7
f 7 9 11
f 7 11 12
f 8 13 14
f 10 14 15
f 11 16 17
f 11 17 12
f 13 18 15
f 13 15 14
f 15 18 19
f 16 20 17
f 17 20 21
f 18 22 19
f 19 22 23
f 20 24 25
f 20 25 21
f 22 26 27
f 22 27 23
f 24 28 29
f 24 29 25
f 26 30 31
f 26 31 27
f 28 32 33
f 28 33 29
f 30 34 35
f 30 35 31
f 32 36 33
f 33 36 37
f 34 38 35
f 35 38 39
f 36 40 41
f 36 41 37
f 38 42 39
f 39 42 43
f 40 44 45
f 40 45 41
f 42 46 47
f 42 47 43
f 44 48 49
f 44 49 45
f 46 50 47
f 47 50 51
f 48 52 49
f 49 52 53
f 50 54 55
f 50 55 51
f 52 56 57
f 52 57 53
f 54 58 59
f 54 59 55
f 56 60 57
f 57 60 61
f 58 62 63
f 58 63 59
f 60 64 65
f 60 65 61
f 62 66 63
f 63 66 67
f 64 68 69
f 64 69 65
f 66 69 68
f 66 68 67

