# https://github.com/mikedh/trimesh
v -0.05860465 -0.00853699 0.00500000
v -0.05900206 -0.00852120 0.00500000
v -0.05850359 -0.00853679 0.00500000
v -0.05860465 -0.00853699 0.01500000
v -0.05915724 -0.00851067 0.00500000
v -0.05900206 -0.00852120 0.01500000
v -0.05850359 -0.00646910 0.00500000
v -0.05850359 -0.00853679 0.01500000
v -0.05915724 -0.00851067 0.01500000
v -0.05942294 -0.00848739 0.00514389
v -0.05988726 -0.00843193 0.00539252
v -0.05925620 -0.00816714 0.00500000
v -0.05878961 -0.00661992 0.00500000
v -0.05850359 -0.00646910 0.01500000
v -0.05945359 -0.00743007 0.01500000
v -0.05988726 -0.00843193 0.01460748
v -0.05942294 -0.00848739 0.01485611
v -0.06008955 -0.00840196 0.00550020
v -0.06029290 -0.00764344 0.00550020
v -0.06013264 -0.00751631 0.00539252
v -0.05953959 -0.00708309 0.00500000
v -0.05907422 -0.00678409 0.00500000
v -0.05878961 -0.00661992 0.01500000
v -0.05953959 -0.00708309 0.01500000
v -0.06013264 -0.00751631 0.01460748
v -0.06029290 -0.00764344 0.01449980
v -0.06008955 -0.00840196 0.01449980
v -0.05975835 -0.00723634 0.00514389
v -0.05941051 -0.00699645 0.00500000
v -0.05907422 -0.00678409 0.01500000
v -0.05941051 -0.00699645 0.01500000
v -0.05975835 -0.00723634 0.01485611
f 1 2 5
f 1 5 12
f 1 12 21
f 1 21 29
f 1 29 22
f 1 22 13
f 1 13 7
f 1 7 3
f 1 3 8
f 1 8 4
f 1 4 6
f 1 6 2
f 2 6 9
f 2 9 5
f 3 7 14
f 3 14 8
f 4 8 14
f 4 14 23
f 4 23 30
f 4 30 31
f 4 31 24
f 4 24 15
f 4 15 9
f 4 9 6
f 5 9 17
f 5 17 10
f 5 10 11
f 5 11 12
f 7 13 23
f 7 23 14
f 9 15 16
f 9 16 17
f 10 17 16
f 10 16 11
f 11 18 12
f 11 16 27
f 11 27 18
f 12 18 19
f 12 19 20
f 12 20 21
f 13 22 30
f 13 30 23
f 15 24 25
f 15 25 26
f 15 26 27
f 15 27 16
f 18 27 26
f 18 26 19
f 19 26 25
f 19 25 20
f 20 28 21
f 20 25 32
f 20 32 28
f 21 28 32
f 21 32 24
f 21 24 31
f 21 31 29
f 22 29 31
f 22 31 30
f 24 32 25

