# https://github.com/mikedh/trimesh
v -0.02656159 0.00337790 0.00500000
v -0.02656403 0.00337834 0.01498187
v -0.02656159 0.00337834 0.00500000
v -0.02606798 0.00274030 0.00500000
v -0.02656403 0.00337834 0.01501127
v -0.00160505 0.00337834 0.00500000
v -0.02606798 0.00274030 0.01501127
v -0.00160016 0.00274030 0.00500000
v -0.01180955 0.00337834 0.01501127
v -0.00160505 0.00337834 0.01499951
v -0.01170691 0.00274030 0.01501127
v -0.00160016 0.00274030 0.01499951
v -0.01178511 0.00325528 0.01501127
f 1 2 3
f 1 3 6
f 1 6 8
f 1 8 4
f 1 4 2
f 2 5 9
f 2 9 10
f 2 10 6
f 2 6 3
f 2 4 7
f 2 7 5
f 4 8 12
f 4 12 11
f 4 11 7
f 5 7 11
f 5 11 13
f 5 13 9
f 6 10 12
f 6 12 8
f 9 13 10
f 10 13 11
f 10 11 12

