# https://github.com/mikedh/trimesh
v -0.05904539 0.00348959 0.00500000
v -0.05904539 0.00555713 0.00500000
v -0.05895567 0.00266721 0.00500000
v -0.05904539 0.00348959 0.00582121
v -0.05904539 0.00555713 0.01499951
v -0.05838508 0.00590695 0.00500000
v -0.05895567 0.00266721 0.01499951
v -0.04472459 0.00266721 0.00500000
v -0.05904539 0.00348991 0.01499951
v -0.04871591 0.00325680 0.01501127
v -0.04855609 0.00405889 0.01501127
v -0.04836122 0.00485336 0.01501127
v -0.04813270 0.00563864 0.01501127
v -0.04804158 0.00590695 0.01501127
v -0.05838508 0.00590695 0.01499951
v -0.04472459 0.00590695 0.00500000
v -0.04693965 0.00266721 0.01501127
v -0.04472459 0.00266721 0.01501127
v -0.04472459 0.00590695 0.01501127
f 1 2 6
f 1 6 16
f 1 16 8
f 1 8 3
f 1 3 7
f 1 7 4
f 1 4 9
f 1 9 5
f 1 5 2
f 2 5 15
f 2 15 6
f 3 8 18
f 3 18 17
f 3 17 7
f 4 7 9
f 5 9 10
f 5 10 11
f 5 11 12
f 5 12 13
f 5 13 14
f 5 14 15
f 6 15 14
f 6 14 19
f 6 19 16
f 7 17 10
f 7 10 9
f 8 16 19
f 8 19 18
f 10 17 18
f 10 18 19
f 10 19 14
f 10 14 13
f 10 13 12
f 10 12 11

