# https://github.com/mikedh/trimesh
v -0.06011753 -0.00398262 0.00500000
v -0.06011753 -0.00398262 0.01499951
v -0.05998184 -0.00390995 0.00500000
v -0.06005107 -0.00442354 0.00500000
v -0.06035289 -0.00411197 0.00514405
v -0.06035289 -0.00411197 0.01485545
v -0.06006768 -0.00433662 0.01499951
v -0.04870365 -0.00331216 0.01501127
v -0.05998184 -0.00390995 0.01499951
v -0.05885486 -0.00331216 0.00500000
v -0.06086793 -0.00442354 0.00546352
v -0.03257968 -0.00442354 0.00500000
v -0.06075440 -0.00435153 0.00539296
v -0.06075440 -0.00435153 0.01460752
v -0.06007599 -0.00442354 0.01498775
v -0.06005384 -0.00442354 0.01499951
v -0.05885486 -0.00331216 0.01499951
v -0.04855412 -0.00405758 0.01501127
v -0.03399465 -0.00331216 0.01501127
v -0.03399465 -0.00331216 0.00500000
v -0.06086793 -0.00442354 0.01453697
v -0.03257968 -0.00442354 0.01501127
v -0.04846551 -0.00442354 0.01501127
f 1 2 9
f 1 9 3
f 1 3 10
f 1 10 20
f 1 20 12
f 1 12 4
f 1 4 5
f 1 5 6
f 1 6 2
f 2 6 7
f 2 7 8
f 2 8 9
f 3 9 17
f 3 17 10
f 4 11 5
f 4 12 22
f 4 22 23
f 4 23 16
f 4 16 15
f 4 15 21
f 4 21 11
f 5 11 13
f 5 13 14
f 5 14 6
f 6 14 15
f 6 15 7
f 7 15 16
f 7 16 8
f 8 17 9
f 8 16 18
f 8 18 23
f 8 23 22
f 8 22 19
f 8 19 20
f 8 20 10
f 8 10 17
f 11 21 14
f 11 14 13
f 12 20 19
f 12 19 22
f 14 21 15
f 16 23 18

