# https://github.com/mikedh/trimesh
v -0.01574217 -0.01470475 0.00500000
v -0.01574217 -0.01470475 0.01500000
v -0.01574217 -0.01201012 0.00500000
v -0.00546054 -0.01470475 0.00500000
v -0.01574217 -0.01201012 0.01500000
v -0.00546054 -0.01470475 0.01500000
v -0.00509036 -0.01201012 0.00500000
v -0.00509036 -0.01410568 0.00500000
v -0.00509036 -0.01201012 0.01500000
v -0.00509036 -0.01410568 0.01347592
v -0.00509036 -0.01410357 0.01500000
f 1 2 5
f 1 5 3
f 1 3 7
f 1 7 8
f 1 8 4
f 1 4 6
f 1 6 2
f 2 6 11
f 2 11 9
f 2 9 5
f 3 5 9
f 3 9 7
f 4 8 10
f 4 10 6
f 6 10 11
f 7 9 11
f 7 11 10
f 7 10 8

