# https://github.com/mikedh/trimesh
v -0.05603258 -0.01721153 0.00550020
v -0.05583106 -0.01717764 0.00539252
v -0.05603258 -0.01721153 0.01449980
v -0.05646034 -0.01655305 0.00550020
v -0.05531239 -0.01673082 0.00500000
v -0.05583106 -0.01717764 0.01460748
v -0.05511244 -0.01702683 0.00500000
v -0.05537230 -0.01708688 0.00514389
v -0.05572806 -0.01609048 0.01500000
v -0.05646034 -0.01655305 0.01449980
v -0.05634736 -0.01638249 0.00539252
v -0.05591724 -0.01578753 0.00500000
v -0.05537230 -0.01708688 0.01485611
v -0.05511244 -0.01702683 0.01500000
v -0.05496162 -0.01698893 0.00500000
v -0.05591724 -0.01578753 0.01500000
v -0.05634736 -0.01638249 0.01460748
v -0.05508459 -0.01448498 0.00500000
v -0.05607804 -0.01600053 0.00514389
v -0.05496162 -0.01698893 0.01500000
v -0.05377663 -0.01666329 0.00500000
v -0.05607804 -0.01600053 0.01485611
v -0.05508459 -0.01448498 0.01500000
v -0.05377663 -0.01448498 0.00500000
v -0.05377663 -0.01666329 0.01500000
v -0.05377663 -0.01448498 0.01500000
f 1 2 6
f 1 6 3
f 1 3 10
f 1 10 4
f 1 4 5
f 1 5 2
f 2 5 7
f 2 7 8
f 2 8 13
f 2 13 6
f 3 6 9
f 3 9 10
f 4 10 17
f 4 17 11
f 4 11 5
f 5 12 18
f 5 18 24
f 5 24 21
f 5 21 15
f 5 15 7
f 5 11 12
f 6 13 14
f 6 14 9
f 7 15 20
f 7 20 14
f 7 14 13
f 7 13 8
f 9 16 17
f 9 17 10
f 9 14 20
f 9 20 25
f 9 25 26
f 9 26 23
f 9 23 16
f 11 17 23
f 11 23 18
f 11 18 19
f 11 19 12
f 12 19 18
f 15 21 25
f 15 25 20
f 16 22 17
f 16 23 22
f 17 22 23
f 18 23 26
f 18 26 24
f 21 24 26
f 21 26 25

