# https://github.com/mikedh/trimesh
v -0.00403944 0.01655284 0.01449980
v -0.00446732 0.01721180 0.01449980
v -0.00477224 0.01609036 0.01500000
v -0.00458307 0.01578764 0.01500000
v -0.00415294 0.01638244 0.01460748
v -0.00403944 0.01655284 0.00550020
v -0.00864071 0.01699987 0.01500000
v -0.00466910 0.01717719 0.01460748
v -0.00512760 0.01708666 0.01485611
v -0.00446732 0.01721180 0.00550020
v -0.00538793 0.01702649 0.01500000
v -0.00541946 0.01449207 0.01500000
v -0.00442228 0.01600037 0.01485611
v -0.00415294 0.01638244 0.00539350
v -0.00442228 0.01600037 0.00514389
v -0.00458307 0.01578764 0.00500000
v -0.00518751 0.01673042 0.00500000
v -0.00864071 0.01699987 0.00500000
v -0.00864071 0.01449207 0.01500000
v -0.00512760 0.01708666 0.00514389
v -0.00466910 0.01717719 0.00539350
v -0.00541946 0.01449207 0.00500000
v -0.00538793 0.01702649 0.00500000
v -0.00864071 0.01449207 0.00500000
f 1 2 3
f 1 3 4
f 1 4 5
f 1 5 14
f 1 14 6
f 1 6 10
f 1 10 2
f 2 7 8
f 2 8 9
f 2 9 3
f 2 10 18
f 2 18 7
f 3 9 11
f 3 11 7
f 3 7 19
f 3 19 12
f 3 12 4
f 4 12 13
f 4 13 5
f 5 13 12
f 5 12 22
f 5 22 14
f 6 14 15
f 6 15 16
f 6 16 17
f 6 17 10
f 7 11 9
f 7 9 8
f 7 18 24
f 7 24 19
f 10 17 20
f 10 20 21
f 10 21 18
f 12 19 24
f 12 24 22
f 14 22 15
f 15 22 16
f 16 22 24
f 16 24 18
f 16 18 23
f 16 23 17
f 17 23 20
f 18 21 20
f 18 20 23

