# https://github.com/mikedh/trimesh
v -0.05006635 0.01778807 0.00500000
v -0.05006635 0.02128861 0.00500000
v -0.04746624 0.01778807 0.00500000
v -0.05006635 0.01778807 0.01500000
v -0.04927881 0.02167566 0.00500000
v -0.05006635 0.02128861 0.01237177
v -0.04746624 0.02167566 0.00500000
v -0.04746624 0.01778807 0.01500000
v -0.05006635 0.02128671 0.01500000
v -0.04927881 0.02167566 0.01500000
v -0.04746624 0.02167566 0.01500000
f 1 2 5
f 1 5 7
f 1 7 3
f 1 3 8
f 1 8 4
f 1 4 9
f 1 9 6
f 1 6 2
f 2 6 10
f 2 10 5
f 3 7 11
f 3 11 8
f 4 8 11
f 4 11 10
f 4 10 9
f 5 10 11
f 5 11 7
f 6 9 10

