# https://github.com/mikedh/trimesh
v -0.02864430 -0.01867918 0.01501127
v -0.02864430 -0.00473503 0.01501127
v -0.02861508 -0.01867780 0.01501127
v -0.02864430 -0.01868057 0.01552478
v -0.02864430 -0.00473503 0.03000000
v -0.02814922 -0.00453705 0.01501127
v -0.02861508 -0.01867780 0.03000000
v -0.02780185 -0.01858920 0.01501127
v -0.02864430 -0.01868057 0.03000000
v -0.02814922 -0.00453705 0.03000000
v -0.01206322 -0.00453705 0.01501127
v -0.02780185 -0.01858920 0.03000000
v -0.02699350 -0.01846459 0.01501127
v -0.01206160 -0.00453705 0.03000000
v -0.01206160 -0.00453705 0.02403737
v -0.01213951 -0.00485409 0.01501127
v -0.02699350 -0.01846459 0.03000000
v -0.02619163 -0.01830538 0.01501127
v -0.01213951 -0.00485409 0.03000000
v -0.01236839 -0.00563907 0.01501127
v -0.02619163 -0.01830538 0.03000000
v -0.02539626 -0.01811018 0.01501127
v -0.01236839 -0.00563907 0.03000000
v -0.01263135 -0.00641436 0.01501127
v -0.02539626 -0.01811018 0.03000000
v -0.02461225 -0.01788174 0.01501127
v -0.02461063 -0.01788174 0.03000000
v -0.01263135 -0.00641298 0.03000000
v -0.01292839 -0.00717719 0.01501127
v -0.02383636 -0.01761870 0.01501127
v -0.02383636 -0.01761870 0.03000000
v -0.01292839 -0.00717581 0.03000000
v -0.01325790 -0.00792480 0.03000000
v -0.01325790 -0.00792480 0.01501127
v -0.02307507 -0.01732242 0.01501127
v -0.02307345 -0.01732242 0.03000000
v -0.01361988 -0.00865855 0.03000000
v -0.01361988 -0.00865855 0.01501127
v -0.02232515 -0.01699293 0.01501127
v -0.02232515 -0.01699293 0.03000000
v -0.01401270 -0.00937570 0.03000000
v -0.01401270 -0.00937570 0.01501127
v -0.02159146 -0.01663159 0.01501127
v -0.02159146 -0.01663020 0.03000000
v -0.01443798 -0.01007484 0.03000000
v -0.01443798 -0.01007623 0.01501127
v -0.02087400 -0.01623702 0.01501127
v -0.02087400 -0.01623702 0.03000000
v -0.01489248 -0.01075461 0.03000000
v -0.01489248 -0.01075599 0.01501127
v -0.02017764 -0.01581338 0.01501127
v -0.02017602 -0.01581338 0.03000000
v -0.01537619 -0.01141499 0.03000000
v -0.01537619 -0.01141499 0.01501127
v -0.01949752 -0.01535928 0.01501127
v -0.01949590 -0.01535790 0.03000000
v -0.01588750 -0.01205183 0.03000000
v -0.01588750 -0.01205183 0.01501127
v -0.01883687 -0.01487472 0.01501127
v -0.01883687 -0.01487472 0.03000000
v -0.01642641 -0.01266653 0.03000000
v -0.01642803 -0.01266653 0.01501127
v -0.01819895 -0.01436248 0.01501127
v -0.01819895 -0.01436248 0.03000000
v -0.01699291 -0.01325769 0.03000000
v -0.01699291 -0.01325769 0.01501127
v -0.01758376 -0.01382393 0.01501127
v -0.01758376 -0.01382393 0.03000000
f 1 2 6
f 1 6 11
f 1 11 16
f 1 16 20
f 1 20 24
f 1 24 29
f 1 29 34
f 1 34 38
f 1 38 42
f 1 42 46
f 1 46 50
f 1 50 54
f 1 54 58
f 1 58 62
f 1 62 66
f 1 66 67
f 1 67 63
f 1 63 59
f 1 59 55
f 1 55 51
f 1 51 47
f 1 47 43
f 1 43 39
f 1 39 35
f 1 35 30
f 1 30 26
f 1 26 22
f 1 22 18
f 1 18 13
f 1 13 8
f 1 8 3
f 1 3 4
f 1 4 9
f 1 9 5
f 1 5 2
f 2 5 10
f 2 10 6
f 3 7 9
f 3 9 4
f 3 8 12
f 3 12 7
f 5 9 7
f 5 7 12
f 5 12 17
f 5 17 21
f 5 21 25
f 5 25 27
f 5 27 31
f 5 31 36
f 5 36 40
f 5 40 44
f 5 44 48
f 5 48 52
f 5 52 56
f 5 56 60
f 5 60 64
f 5 64 68
f 5 68 65
f 5 65 61
f 5 61 57
f 5 57 53
f 5 53 49
f 5 49 45
f 5 45 41
f 5 41 37
f 5 37 33
f 5 33 32
f 5 32 28
f 5 28 23
f 5 23 19
f 5 19 14
f 5 14 10
f 6 10 14
f 6 14 15
f 6 15 11
f 8 13 17
f 8 17 12
f 11 15 16
f 13 18 21
f 13 21 17
f 14 19 16
f 14 16 15
f 16 19 23
f 16 23 20
f 18 22 25
f 18 25 21
f 20 23 24
f 22 26 27
f 22 27 25
f 23 28 24
f 24 28 32
f 24 32 29
f 26 30 27
f 27 30 31
f 29 32 33
f 29 33 34
f 30 35 36
f 30 36 31
f 33 37 38
f 33 38 34
f 35 39 36
f 36 39 40
f 37 41 42
f 37 42 38
f 39 43 40
f 40 43 44
f 41 45 46
f 41 46 42
f 43 47 48
f 43 48 44
f 45 49 50
f 45 50 46
f 47 51 52
f 47 52 48
f 49 53 50
f 50 53 54
f 51 55 52
f 52 55 56
f 53 57 58
f 53 58 54
f 55 59 60
f 55 60 56
f 57 61 58
f 58 61 62
f 59 63 64
f 59 64 60
f 61 65 66
f 61 66 62
f 63 67 68
f 63 68 64
f 65 68 67
f 65 67 66

