# https://github.com/mikedh/trimesh
v -0.02606891 0.00274024 0.00500000
v -0.02524797 -0.00000316 0.00500000
v -0.02606891 0.00274024 0.01501127
v -0.00160084 0.00274024 0.00500000
v -0.02524797 -0.00000316 0.01501127
v -0.00150117 -0.00000316 0.00500000
v -0.01170648 0.00274024 0.01501127
v -0.00160084 0.00274024 0.01499951
v -0.00020551 0.00231460 0.00500000
v -0.01190581 -0.00000316 0.01501127
v -0.00012945 0.00083871 0.00500000
v 0.00011709 0.00094290 0.00514405
v 0.00054198 0.00113920 0.00539296
v 0.00072558 0.00123024 0.00550076
v -0.00150117 -0.00000316 0.01499951
v -0.01166189 0.00244672 0.01501127
v -0.00020551 0.00231460 0.01499951
v 0.00004890 0.00223646 0.00514405
v 0.00049215 0.00208581 0.00539296
v -0.00018191 0.00195798 0.00500000
v -0.01150190 -0.00000048 0.01501127
v 0.00068362 0.00201438 0.00550076
v 0.00072558 0.00123024 0.01449973
v 0.00054198 0.00113920 0.01460752
v 0.00011709 0.00094290 0.01485545
v -0.00012945 0.00083871 0.01499951
v -0.01157271 0.00163332 0.01501127
v -0.00013994 0.00119587 0.01499951
v 0.00049215 0.00208581 0.01460752
v 0.00004890 0.00223646 0.01485545
v -0.01152026 0.00081749 0.01501127
v 0.00068362 0.00201438 0.01449973
f 1 2 5
f 1 5 3
f 1 3 7
f 1 7 8
f 1 8 4
f 1 4 9
f 1 9 20
f 1 20 11
f 1 11 6
f 1 6 2
f 2 6 15
f 2 15 10
f 2 10 5
f 3 5 10
f 3 10 21
f 3 21 31
f 3 31 27
f 3 27 16
f 3 16 7
f 4 8 17
f 4 17 9
f 6 11 12
f 6 12 13
f 6 13 14
f 6 14 23
f 6 23 15
f 7 16 17
f 7 17 8
f 9 17 30
f 9 30 18
f 9 18 19
f 9 19 20
f 10 15 21
f 11 20 12
f 12 20 13
f 13 20 14
f 14 22 32
f 14 32 23
f 14 20 22
f 15 23 24
f 15 24 25
f 15 25 26
f 15 26 21
f 16 27 17
f 17 28 29
f 17 29 30
f 17 27 31
f 17 31 28
f 18 30 29
f 18 29 19
f 19 29 32
f 19 32 22
f 19 22 20
f 21 26 31
f 23 32 28
f 23 28 24
f 24 28 26
f 24 26 25
f 26 28 31
f 28 32 29

