# https://github.com/mikedh/trimesh
v -0.04879971 -0.00269600 0.01501127
v -0.04871436 -0.00325538 0.01501127
v -0.04880132 -0.00269600 0.02538718
v -0.03446166 -0.00269600 0.01501127
v -0.04871436 -0.00325592 0.03000000
v -0.04855494 -0.00405751 0.01501127
v -0.04855494 -0.00405823 0.03000000
v -0.04880132 -0.00269600 0.03000000
v -0.03446166 -0.00269600 0.03000000
v -0.03235057 -0.00453687 0.01501127
v -0.04843739 -0.00453687 0.01501127
v -0.04843739 -0.00453687 0.03000000
v -0.03235057 -0.00453687 0.03000000
f 1 2 3
f 1 3 8
f 1 8 9
f 1 9 4
f 1 4 10
f 1 10 11
f 1 11 6
f 1 6 2
f 2 5 3
f 2 6 7
f 2 7 5
f 3 5 8
f 4 9 13
f 4 13 10
f 5 7 12
f 5 12 13
f 5 13 9
f 5 9 8
f 6 11 7
f 7 11 12
f 10 13 12
f 10 12 11

