# https://github.com/mikedh/trimesh
v -0.04472459 0.02484065 0.01500000
v -0.04680295 0.02621060 0.01449980
v -0.04663255 0.02609729 0.01460748
v -0.04625047 0.02582788 0.01485611
v -0.04603746 0.02566721 0.01500000
v -0.04472459 0.02360923 0.01500000
v -0.04472459 0.02484065 0.00500000
v -0.04680295 0.02621060 0.00550020
v -0.04746180 0.02578256 0.01449980
v -0.04634050 0.02547826 0.01500000
v -0.04690235 0.02360923 0.01500000
v -0.04472459 0.02360923 0.00500000
v -0.04603746 0.02566721 0.00500000
v -0.04625047 0.02582788 0.00514389
v -0.04663255 0.02609729 0.00539252
v -0.04746180 0.02578256 0.00550020
v -0.04698086 0.02506244 0.00500000
v -0.04742750 0.02558088 0.01460748
v -0.04727693 0.02486255 0.01500000
v -0.04713117 0.02432883 0.01500000
v -0.04690235 0.02360923 0.00500000
v -0.04742750 0.02558088 0.00539252
v -0.04727693 0.02486255 0.00500000
v -0.04733694 0.02512228 0.01485611
v -0.04723888 0.02471181 0.01500000
v -0.04713117 0.02432883 0.00500000
v -0.04733694 0.02512228 0.00514389
v -0.04723888 0.02471181 0.00500000
f 1 2 3
f 1 3 4
f 1 4 5
f 1 5 10
f 1 10 19
f 1 19 25
f 1 25 20
f 1 20 11
f 1 11 6
f 1 6 12
f 1 12 7
f 1 7 8
f 1 8 2
f 2 8 16
f 2 16 9
f 2 9 10
f 2 10 3
f 3 10 5
f 3 5 4
f 6 11 21
f 6 21 12
f 7 12 21
f 7 21 26
f 7 26 28
f 7 28 23
f 7 23 17
f 7 17 13
f 7 13 14
f 7 14 15
f 7 15 8
f 8 15 17
f 8 17 16
f 9 18 19
f 9 19 10
f 9 16 22
f 9 22 18
f 11 20 26
f 11 26 21
f 13 17 15
f 13 15 14
f 16 17 22
f 17 23 22
f 18 24 19
f 18 22 27
f 18 27 24
f 19 24 27
f 19 27 23
f 19 23 28
f 19 28 25
f 20 25 28
f 20 28 26
f 22 23 27

