# https://github.com/mikedh/trimesh
v -0.02459322 -0.00000616 0.01501127
v -0.02459322 -0.00000616 0.00500000
v -0.02525000 -0.00000616 0.01501127
v -0.02459322 -0.01558248 0.01501127
v -0.02525000 -0.00000616 0.00500000
v -0.02459322 -0.02826562 0.00500000
v -0.02570215 -0.00207700 0.01501127
v -0.02461243 -0.01788141 0.01501127
v -0.02459322 -0.01787541 0.01501029
v -0.02570215 -0.00207700 0.00500000
v -0.02459322 -0.02826562 0.01499951
v -0.02478092 -0.02948412 0.00500000
v -0.02570215 -0.01818453 0.01501127
v -0.02539764 -0.01810951 0.01501127
v -0.02480751 -0.02963718 0.01499951
v -0.02478092 -0.02948412 0.01499951
v -0.02570215 -0.02978124 0.00500000
v -0.02480751 -0.02963718 0.00500000
v -0.02570215 -0.02978424 0.01499951
v -0.02570215 -0.02983526 0.01497109
v -0.02496210 -0.03035447 0.01460752
v -0.02485843 -0.02989829 0.01485545
v -0.02515935 -0.02970021 0.00500000
v -0.02570215 -0.03066360 0.00550076
v -0.02485843 -0.02989829 0.00514405
v -0.02496210 -0.03035447 0.00539296
v -0.02570215 -0.03066360 0.01449973
v -0.02501312 -0.03055255 0.01449973
v -0.02501312 -0.03055255 0.00550076
f 1 2 5
f 1 5 3
f 1 3 7
f 1 7 13
f 1 13 14
f 1 14 8
f 1 8 4
f 1 4 9
f 1 9 11
f 1 11 6
f 1 6 2
f 2 6 12
f 2 12 18
f 2 18 23
f 2 23 17
f 2 17 10
f 2 10 5
f 3 5 10
f 3 10 7
f 4 8 9
f 6 11 16
f 6 16 12
f 7 10 17
f 7 17 24
f 7 24 27
f 7 27 20
f 7 20 19
f 7 19 13
f 8 14 15
f 8 15 16
f 8 16 11
f 8 11 9
f 12 16 15
f 12 15 18
f 13 19 15
f 13 15 14
f 15 19 20
f 15 20 21
f 15 21 22
f 15 22 25
f 15 25 18
f 17 23 24
f 18 25 26
f 18 26 23
f 20 27 28
f 20 28 21
f 21 28 29
f 21 29 26
f 21 26 25
f 21 25 22
f 23 26 29
f 23 29 24
f 24 29 28
f 24 28 27

