# https://github.com/mikedh/trimesh
v -0.02471052 0.02896487 0.00888117
v -0.02471052 0.02896487 0.00500000
v -0.02472372 0.02909160 0.01500000
v -0.02471285 0.02896487 0.01500000
v -0.02472372 0.02909160 0.00500000
v -0.02669371 0.02896487 0.00500000
v -0.02478100 0.02948522 0.01500000
v -0.02669371 0.02896487 0.01500000
v -0.02478100 0.02948522 0.00500000
v -0.02664964 0.02907518 0.00500000
v -0.02480759 0.02963844 0.01500000
v -0.02664964 0.02907518 0.01500000
v -0.02480759 0.02963844 0.00500000
v -0.02651607 0.02937559 0.00500000
v -0.02485846 0.02990046 0.01485611
v -0.02496213 0.03035627 0.01460748
v -0.02515958 0.02970097 0.01500000
v -0.02651607 0.02937559 0.01500000
v -0.02591325 0.02982033 0.00500000
v -0.02496213 0.03035627 0.00539252
v -0.02485846 0.02990046 0.00514389
v -0.02633998 0.02973232 0.00500000
v -0.02501319 0.03055442 0.01449980
v -0.02578861 0.03067730 0.01449980
v -0.02589849 0.03050446 0.01460748
v -0.02613787 0.03010314 0.01485611
v -0.02626737 0.02986945 0.01500000
v -0.02633998 0.02973232 0.01500000
v -0.02626737 0.02986945 0.00500000
v -0.02613787 0.03010314 0.00514389
v -0.02589849 0.03050446 0.00539252
v -0.02578861 0.03067730 0.00550020
v -0.02501319 0.03055442 0.00550020
f 1 2 5
f 1 5 3
f 1 3 4
f 1 4 8
f 1 8 6
f 1 6 2
f 2 6 10
f 2 10 14
f 2 14 22
f 2 22 29
f 2 29 19
f 2 19 13
f 2 13 9
f 2 9 5
f 3 7 11
f 3 11 17
f 3 17 27
f 3 27 28
f 3 28 18
f 3 18 12
f 3 12 8
f 3 8 4
f 3 5 9
f 3 9 7
f 6 8 12
f 6 12 10
f 7 9 13
f 7 13 11
f 10 12 18
f 10 18 14
f 11 13 21
f 11 21 15
f 11 15 16
f 11 16 17
f 13 19 20
f 13 20 21
f 14 18 28
f 14 28 22
f 15 21 20
f 15 20 16
f 16 23 17
f 16 20 33
f 16 33 23
f 17 23 24
f 17 24 25
f 17 25 26
f 17 26 27
f 19 29 30
f 19 30 31
f 19 31 32
f 19 32 33
f 19 33 20
f 22 28 27
f 22 27 29
f 23 33 32
f 23 32 24
f 24 32 31
f 24 31 25
f 25 31 30
f 25 30 26
f 26 30 29
f 26 29 27

