# https://github.com/mikedh/trimesh
v -0.03789347 -0.03004290 0.00550020
v -0.03865193 -0.02983965 0.00550020
v -0.03767972 -0.02920325 0.00500000
v -0.03776608 -0.02988254 0.00539252
v -0.03789347 -0.03004290 0.01449980
v -0.03868192 -0.02963713 0.00539252
v -0.03865193 -0.02983965 0.01449980
v -0.03733318 -0.02928938 0.00500000
v -0.03748627 -0.02950848 0.00514389
v -0.03876061 -0.02890703 0.00500000
v -0.03776608 -0.02988254 0.01460748
v -0.03841722 -0.02900577 0.01500000
v -0.03873738 -0.02917298 0.00514389
v -0.03868192 -0.02963713 0.01460748
v -0.03651497 -0.02809910 0.00500000
v -0.03733318 -0.02928938 0.01500000
v -0.03748627 -0.02950848 0.01485611
v -0.03876061 -0.02890703 0.01500000
v -0.03877098 -0.02875171 0.00500000
v -0.03873738 -0.02917298 0.01485611
v -0.03651497 -0.02636178 0.00500000
v -0.03651497 -0.02809910 0.01500000
v -0.03877098 -0.02875171 0.01500000
v -0.03878699 -0.02835423 0.00500000
v -0.03881833 -0.02636178 0.00500000
v -0.03651497 -0.02636178 0.01500000
v -0.03878699 -0.02835423 0.01500000
v -0.03881833 -0.02754017 0.00500000
v -0.03881833 -0.02636178 0.01500000
v -0.03881833 -0.02754017 0.01500000
f 1 2 3
f 1 3 4
f 1 4 11
f 1 11 5
f 1 5 7
f 1 7 2
f 2 6 3
f 2 7 14
f 2 14 6
f 3 8 9
f 3 9 4
f 3 6 10
f 3 10 19
f 3 19 24
f 3 24 28
f 3 28 25
f 3 25 21
f 3 21 15
f 3 15 8
f 4 9 17
f 4 17 11
f 5 11 12
f 5 12 7
f 6 13 10
f 6 14 20
f 6 20 13
f 7 12 14
f 8 15 22
f 8 22 16
f 8 16 17
f 8 17 9
f 10 13 20
f 10 20 18
f 10 18 23
f 10 23 19
f 11 17 12
f 12 16 22
f 12 22 26
f 12 26 29
f 12 29 30
f 12 30 27
f 12 27 23
f 12 23 18
f 12 18 14
f 12 17 16
f 14 18 20
f 15 21 26
f 15 26 22
f 19 23 27
f 19 27 24
f 21 25 29
f 21 29 26
f 24 27 30
f 24 30 28
f 25 28 30
f 25 30 29

