# https://github.com/mikedh/trimesh
v -0.01150000 0.00000004 0.03000000
v -0.01150141 -0.00000191 0.03000000
v -0.01150141 -0.00000191 0.01501127
v -0.01150141 -0.00000045 0.01501127
v -0.01151834 0.00081743 0.01501127
v -0.01151834 0.00081791 0.03000000
v -0.02524883 -0.00000191 0.03000000
v -0.02524883 -0.00000191 0.01501127
v -0.01157196 0.00163335 0.01501127
v -0.01157196 0.00163408 0.03000000
v -0.02591341 0.00249076 0.03000000
v -0.02591341 0.00249076 0.01501127
v -0.01166086 0.00244659 0.01501127
v -0.01166086 0.00244732 0.03000000
v -0.01166791 0.00249076 0.03000000
v -0.01166791 0.00249076 0.01501127
f 1 2 3
f 1 3 4
f 1 4 5
f 1 5 6
f 1 6 10
f 1 10 14
f 1 14 15
f 1 15 11
f 1 11 7
f 1 7 2
f 2 7 8
f 2 8 3
f 3 8 12
f 3 12 16
f 3 16 13
f 3 13 9
f 3 9 5
f 3 5 4
f 5 9 10
f 5 10 6
f 7 11 12
f 7 12 8
f 9 13 14
f 9 14 10
f 11 15 16
f 11 16 12
f 13 16 14
f 14 16 15

