# https://github.com/mikedh/trimesh
v -0.03024894 0.01875020 0.01501127
v -0.03025317 0.01875020 0.01501127
v -0.02943115 0.01873320 0.01501127
v -0.02471298 0.02896470 0.01499951
v -0.03025317 0.01449156 0.01501127
v -0.02980227 0.02896470 0.01499951
v -0.03025317 0.02874936 0.01499951
v -0.02861517 0.01867937 0.01501127
v -0.02471056 0.02896470 0.00888162
v -0.02780161 0.01859011 0.01501127
v -0.02699409 0.01846544 0.01501127
v -0.02619141 0.01830677 0.01501127
v -0.02539659 0.01811126 0.01501127
v -0.02461143 0.01788317 0.01501127
v -0.02407833 0.01770184 0.01501127
v -0.02407833 0.02808634 0.01499951
v -0.02407833 0.01449156 0.01501127
v -0.03025317 0.01449156 0.00500000
v -0.02980227 0.02896470 0.00500000
v -0.03025317 0.02874936 0.00500000
v -0.02471056 0.02896470 0.00500000
v -0.02407833 0.02808634 0.00500000
v -0.02407833 0.01449156 0.00500000
f 1 2 5
f 1 5 17
f 1 17 15
f 1 15 14
f 1 14 13
f 1 13 12
f 1 12 11
f 1 11 10
f 1 10 8
f 1 8 3
f 1 3 4
f 1 4 6
f 1 6 2
f 2 6 7
f 2 7 20
f 2 20 18
f 2 18 5
f 3 8 4
f 4 9 21
f 4 21 19
f 4 19 6
f 4 8 10
f 4 10 11
f 4 11 12
f 4 12 13
f 4 13 14
f 4 14 15
f 4 15 16
f 4 16 9
f 5 18 23
f 5 23 17
f 6 19 20
f 6 20 7
f 9 16 22
f 9 22 21
f 15 17 23
f 15 23 22
f 15 22 16
f 18 20 19
f 18 19 21
f 18 21 22
f 18 22 23

