# https://github.com/mikedh/trimesh
v -0.03458138 0.01823696 0.01501127
v -0.03458138 0.02981914 0.01499951
v -0.03458672 0.02981914 0.01499951
v -0.03569247 0.02963611 0.01499951
v -0.03510241 0.01811094 0.01501127
v -0.03458138 0.00249901 0.01501127
v -0.03458138 0.02982514 0.01499657
v -0.03471136 0.03067730 0.01449973
v -0.03548688 0.03055428 0.01449973
v -0.03553783 0.03035624 0.01460752
v -0.03564152 0.02990015 0.01485545
v -0.03598052 0.02819884 0.01499951
v -0.03598052 0.01784989 0.01501127
v -0.03588752 0.01787990 0.01501127
v -0.03524951 0.00002354 0.01501127
v -0.03458138 0.00249901 0.01490151
v -0.03458138 0.03047026 0.01462810
v -0.03460152 0.03050327 0.01460752
v -0.03471136 0.03067730 0.00550076
v -0.03548688 0.03055428 0.00550076
v -0.03553783 0.03035624 0.00539296
v -0.03564152 0.02990015 0.00514405
v -0.03598052 0.02819884 0.00500000
v -0.03598052 0.00002354 0.01501127
v -0.03524951 0.00002354 0.00500000
v -0.03458138 0.00250201 0.00500000
v -0.03458138 0.03047026 0.00537140
v -0.03460152 0.03050327 0.00539296
v -0.03534060 0.02969912 0.00500000
v -0.03569247 0.02963611 0.00500000
v -0.03598052 0.00002354 0.00500000
v -0.03458138 0.02981614 0.00500000
f 1 2 3
f 1 3 4
f 1 4 5
f 1 5 14
f 1 14 13
f 1 13 24
f 1 24 15
f 1 15 6
f 1 6 16
f 1 16 26
f 1 26 32
f 1 32 27
f 1 27 17
f 1 17 7
f 1 7 2
f 2 7 3
f 3 7 8
f 3 8 9
f 3 9 10
f 3 10 11
f 3 11 4
f 4 11 12
f 4 12 13
f 4 13 14
f 4 14 5
f 6 15 25
f 6 25 16
f 7 17 8
f 8 17 18
f 8 18 28
f 8 28 19
f 8 19 20
f 8 20 9
f 9 20 21
f 9 21 10
f 10 21 22
f 10 22 11
f 11 22 23
f 11 23 12
f 12 23 31
f 12 31 24
f 12 24 13
f 15 24 31
f 15 31 25
f 16 25 26
f 17 27 28
f 17 28 18
f 19 28 27
f 19 27 29
f 19 29 20
f 20 29 21
f 21 29 22
f 22 29 30
f 22 30 23
f 23 30 29
f 23 29 32
f 23 32 26
f 23 26 25
f 23 25 31
f 27 32 29

