# https://github.com/mikedh/trimesh
v -0.03341790 -0.01155864 0.01501127
v -0.03341790 -0.01155864 0.00500000
v -0.03651497 -0.01155864 0.01501127
v -0.03341790 -0.01847959 0.01501127
v -0.03651497 -0.01155864 0.00500000
v -0.03341790 -0.02822316 0.00500000
v -0.03651497 -0.01767103 0.01501127
v -0.03350674 -0.01846652 0.01501127
v -0.03592436 -0.02824603 0.01499951
v -0.03341790 -0.02824603 0.01499951
v -0.03651497 -0.02809738 0.00500000
v -0.03341790 -0.02824603 0.00541746
v -0.03342033 -0.02824603 0.00500000
v -0.03588858 -0.01788338 0.01501127
v -0.03651497 -0.02809738 0.01499951
v -0.03430897 -0.01830645 0.01501127
v -0.03510332 -0.01811206 0.01501127
v -0.03592436 -0.02824603 0.00500000
f 1 2 5
f 1 5 3
f 1 3 7
f 1 7 14
f 1 14 17
f 1 17 16
f 1 16 8
f 1 8 4
f 1 4 10
f 1 10 12
f 1 12 6
f 1 6 2
f 2 6 13
f 2 13 18
f 2 18 11
f 2 11 5
f 3 5 11
f 3 11 15
f 3 15 7
f 4 8 9
f 4 9 10
f 6 12 13
f 7 15 14
f 8 16 9
f 9 16 17
f 9 17 15
f 9 15 11
f 9 11 18
f 9 18 13
f 9 13 12
f 9 12 10
f 14 15 17

