# https://github.com/mikedh/trimesh
v -0.04843733 0.00453415 0.01501127
v -0.04843911 0.00453415 0.02398309
v -0.04836077 0.00485420 0.01501127
v -0.03235866 0.00453415 0.01501127
v -0.04843911 0.00453415 0.03000000
v -0.04813110 0.00563902 0.01501127
v -0.04836077 0.00485420 0.03000000
v -0.03025068 0.00500031 0.01501127
v -0.03235866 0.00453415 0.03000000
v -0.04813110 0.00563902 0.03000000
v -0.04786761 0.00641410 0.01501127
v -0.03025068 0.01874859 0.01501127
v -0.03025068 0.00500031 0.03000000
v -0.04786761 0.00641410 0.03000000
v -0.04757206 0.00717666 0.01501127
v -0.03025068 0.01874999 0.02998680
v -0.03106788 0.01873190 0.01501127
v -0.03025068 0.01874999 0.03000000
v -0.04757206 0.00717666 0.03000000
v -0.04724269 0.00792530 0.01501127
v -0.03106966 0.01873190 0.03000000
v -0.03188508 0.01867763 0.01501127
v -0.04724269 0.00792530 0.03000000
v -0.04688127 0.00865863 0.03000000
v -0.04687949 0.00865863 0.01501127
v -0.03188508 0.01867763 0.03000000
v -0.03269693 0.01858857 0.01501127
v -0.03269871 0.01858857 0.03000000
v -0.04648781 0.00937527 0.03000000
v -0.04648603 0.00937666 0.01501127
v -0.03350701 0.01846472 0.01501127
v -0.03350701 0.01846472 0.03000000
v -0.04606230 0.01007521 0.03000000
v -0.04606230 0.01007521 0.01501127
v -0.03430818 0.01830470 0.01501127
v -0.03430996 0.01830470 0.03000000
v -0.04560830 0.01075566 0.03000000
v -0.04560830 0.01075566 0.01501127
v -0.03510402 0.01810988 0.01501127
v -0.03510402 0.01810988 0.03000000
v -0.04512403 0.01141525 0.03000000
v -0.04512403 0.01141525 0.01501127
v -0.03588917 0.01788167 0.01501127
v -0.03588917 0.01788167 0.03000000
v -0.04461306 0.01205118 0.03000000
v -0.04461128 0.01205257 0.01501127
v -0.03666363 0.01761867 0.01501127
v -0.03666363 0.01761867 0.03000000
v -0.04407360 0.01266623 0.03000000
v -0.04407182 0.01266762 0.01501127
v -0.03742564 0.01732228 0.01501127
v -0.03742564 0.01732228 0.03000000
v -0.04350744 0.01325763 0.01501127
v -0.04350744 0.01325763 0.03000000
v -0.03817518 0.01699249 0.01501127
v -0.03817518 0.01699249 0.03000000
v -0.04291635 0.01382398 0.01501127
v -0.04291635 0.01382398 0.03000000
v -0.03890870 0.01663069 0.01501127
v -0.03890870 0.01663069 0.03000000
v -0.04230212 0.01436250 0.03000000
v -0.04230034 0.01436250 0.01501127
v -0.03962442 0.01623828 0.01501127
v -0.03962442 0.01623689 0.03000000
v -0.04166296 0.01487458 0.03000000
v -0.04166296 0.01487458 0.01501127
v -0.04032233 0.01581386 0.01501127
v -0.04032411 0.01581247 0.03000000
v -0.04100422 0.01535883 0.03000000
v -0.04100244 0.01535883 0.01501127
f 1 2 3
f 1 3 6
f 1 6 11
f 1 11 15
f 1 15 20
f 1 20 25
f 1 25 30
f 1 30 34
f 1 34 38
f 1 38 42
f 1 42 46
f 1 46 50
f 1 50 53
f 1 53 57
f 1 57 62
f 1 62 66
f 1 66 70
f 1 70 67
f 1 67 63
f 1 63 59
f 1 59 55
f 1 55 51
f 1 51 47
f 1 47 43
f 1 43 39
f 1 39 35
f 1 35 31
f 1 31 27
f 1 27 22
f 1 22 17
f 1 17 12
f 1 12 8
f 1 8 4
f 1 4 9
f 1 9 5
f 1 5 2
f 2 5 7
f 2 7 3
f 3 7 10
f 3 10 6
f 4 8 13
f 4 13 9
f 5 9 13
f 5 13 18
f 5 18 21
f 5 21 26
f 5 26 28
f 5 28 32
f 5 32 36
f 5 36 40
f 5 40 44
f 5 44 48
f 5 48 52
f 5 52 56
f 5 56 60
f 5 60 64
f 5 64 68
f 5 68 69
f 5 69 65
f 5 65 61
f 5 61 58
f 5 58 54
f 5 54 49
f 5 49 45
f 5 45 41
f 5 41 37
f 5 37 33
f 5 33 29
f 5 29 24
f 5 24 23
f 5 23 19
f 5 19 14
f 5 14 10
f 5 10 7
f 6 10 14
f 6 14 11
f 8 12 16
f 8 16 18
f 8 18 13
f 11 14 19
f 11 19 15
f 12 17 16
f 15 19 23
f 15 23 20
f 16 17 21
f 16 21 18
f 17 22 21
f 20 23 24
f 20 24 25
f 21 22 26
f 22 27 28
f 22 28 26
f 24 29 30
f 24 30 25
f 27 31 28
f 28 31 32
f 29 33 34
f 29 34 30
f 31 35 36
f 31 36 32
f 33 37 38
f 33 38 34
f 35 39 36
f 36 39 40
f 37 41 42
f 37 42 38
f 39 43 44
f 39 44 40
f 41 45 42
f 42 45 46
f 43 47 48
f 43 48 44
f 45 49 50
f 45 50 46
f 47 51 52
f 47 52 48
f 49 53 50
f 49 54 53
f 51 55 56
f 51 56 52
f 53 54 58
f 53 58 57
f 55 59 60
f 55 60 56
f 57 58 61
f 57 61 62
f 59 63 60
f 60 63 64
f 61 65 66
f 61 66 62
f 63 67 68
f 63 68 64
f 65 69 66
f 66 69 70
f 67 70 69
f 67 69 68

