# https://github.com/mikedh/trimesh
v -0.02814122 0.00453395 0.01501127
v -0.02591403 0.00249076 0.01501127
v -0.02814122 0.00453395 0.03000000
v -0.01206220 0.00453395 0.01501127
v -0.02591403 0.00249076 0.03000000
v -0.01166869 0.00249076 0.01501127
v -0.01206220 0.00453395 0.03000000
v -0.01194447 0.00405810 0.03000000
v -0.01194447 0.00405750 0.01501127
v -0.01166708 0.00249076 0.03000000
v -0.01178481 0.00325543 0.01501127
v -0.01166708 0.00249076 0.02919452
v -0.01178642 0.00325603 0.03000000
f 1 2 5
f 1 5 3
f 1 3 7
f 1 7 4
f 1 4 9
f 1 9 11
f 1 11 6
f 1 6 2
f 2 6 12
f 2 12 10
f 2 10 5
f 3 5 10
f 3 10 13
f 3 13 8
f 3 8 7
f 4 7 8
f 4 8 9
f 6 11 12
f 8 13 11
f 8 11 9
f 10 12 11
f 10 11 13

