# https://github.com/mikedh/trimesh
v -0.00245301 -0.01372268 0.01449980
v -0.00258308 -0.01356493 0.01460748
v -0.00357592 -0.01401929 0.01500000
v -0.00280942 -0.01442240 0.01449980
v -0.00245301 -0.01372268 0.00550020
v -0.00258308 -0.01356493 0.00539252
v -0.00289097 -0.01321329 0.01485611
v -0.00307318 -0.01301800 0.01500000
v -0.00374419 -0.01433479 0.01500000
v -0.00301356 -0.01440965 0.01460748
v -0.00280942 -0.01442240 0.00550020
v -0.00322932 -0.01333916 0.00500000
v -0.00289097 -0.01321329 0.00514389
v -0.00318132 -0.01290653 0.01500000
v -0.00307318 -0.01301800 0.00500000
v -0.00347914 -0.01436738 0.01485611
v -0.00389775 -0.01431282 0.01500000
v -0.00374419 -0.01433479 0.00500000
v -0.00301356 -0.01440965 0.00539252
v -0.00406318 -0.01201009 0.00530736
v -0.00406318 -0.01201033 0.01500000
v -0.00318132 -0.01290653 0.00500000
v -0.00347914 -0.01436738 0.00514389
v -0.00428978 -0.01424552 0.01500000
v -0.00389775 -0.01431282 0.00500000
v -0.00406422 -0.01201009 0.01500000
v -0.00406318 -0.01201009 0.00500000
v -0.00508700 -0.01410501 0.01500000
v -0.00508932 -0.01410572 0.01347592
v -0.00428978 -0.01424552 0.00500000
v -0.00508932 -0.01201009 0.01500000
v -0.00508932 -0.01201009 0.00500000
v -0.00508932 -0.01410359 0.01500000
v -0.00508932 -0.01410572 0.00500000
f 1 2 3
f 1 3 4
f 1 4 11
f 1 11 5
f 1 5 6
f 1 6 2
f 2 6 13
f 2 13 7
f 2 7 8
f 2 8 3
f 3 8 14
f 3 14 21
f 3 21 26
f 3 26 31
f 3 31 33
f 3 33 28
f 3 28 24
f 3 24 17
f 3 17 9
f 3 9 10
f 3 10 4
f 4 10 19
f 4 19 11
f 5 11 12
f 5 12 6
f 6 12 13
f 7 13 15
f 7 15 8
f 8 15 22
f 8 22 14
f 9 16 10
f 9 17 25
f 9 25 18
f 9 18 23
f 9 23 16
f 10 16 23
f 10 23 19
f 11 19 12
f 12 18 25
f 12 25 30
f 12 30 34
f 12 34 32
f 12 32 27
f 12 27 22
f 12 22 15
f 12 15 13
f 12 19 18
f 14 20 21
f 14 22 27
f 14 27 20
f 17 24 30
f 17 30 25
f 18 19 23
f 20 26 21
f 20 27 32
f 20 32 31
f 20 31 26
f 24 28 29
f 24 29 34
f 24 34 30
f 28 33 29
f 29 33 31
f 29 31 32
f 29 32 34

