# https://github.com/mikedh/trimesh
v -0.04227625 -0.01155864 0.01501127
v -0.04227625 -0.01155864 0.00500000
v -0.04495402 -0.01155864 0.01501127
v -0.04227625 -0.01438514 0.01501127
v -0.04495402 -0.01155864 0.00500000
v -0.04227625 -0.02512664 0.00500000
v -0.04495402 -0.01162904 0.01501127
v -0.04230298 -0.01436389 0.01501127
v -0.04495402 -0.02478927 0.01499951
v -0.04436741 -0.02512664 0.01499951
v -0.04227625 -0.02512664 0.01499951
v -0.04495402 -0.02478927 0.00500000
v -0.04436741 -0.02512664 0.00500000
v -0.04461353 -0.01205275 0.01501127
v -0.04291791 -0.01382462 0.01501127
v -0.04350898 -0.01325879 0.01501127
v -0.04407436 -0.01266772 0.01501127
f 1 2 5
f 1 5 3
f 1 3 7
f 1 7 14
f 1 14 17
f 1 17 16
f 1 16 15
f 1 15 8
f 1 8 4
f 1 4 11
f 1 11 6
f 1 6 2
f 2 6 13
f 2 13 12
f 2 12 5
f 3 5 12
f 3 12 9
f 3 9 7
f 4 8 9
f 4 9 10
f 4 10 11
f 6 11 10
f 6 10 13
f 7 9 14
f 8 15 9
f 9 12 13
f 9 13 10
f 9 15 16
f 9 16 17
f 9 17 14

