# https://github.com/mikedh/trimesh
v -0.03651497 -0.01156009 0.01501127
v -0.03651497 -0.01156009 0.00500000
v -0.04227625 -0.01156009 0.01501127
v -0.03651497 -0.01767044 0.01501127
v -0.04227625 -0.01156009 0.00500000
v -0.03651497 -0.02636142 0.00500000
v -0.04227625 -0.01438560 0.01501127
v -0.03666385 -0.01761972 0.01501127
v -0.04227625 -0.02618899 0.01499951
v -0.04175065 -0.02636142 0.01499951
v -0.03651497 -0.02636142 0.01499951
v -0.04227625 -0.02618899 0.00500000
v -0.04175121 -0.02636142 0.00500000
v -0.04166437 -0.01487535 0.01501127
v -0.03742631 -0.01732268 0.01501127
v -0.04175121 -0.02636142 0.01490739
v -0.03817466 -0.01699376 0.01501127
v -0.03890836 -0.01663152 0.01501127
v -0.03962513 -0.01623884 0.01501127
v -0.04032443 -0.01581429 0.01501127
v -0.04100455 -0.01535931 0.01501127
f 1 2 5
f 1 5 3
f 1 3 7
f 1 7 14
f 1 14 21
f 1 21 20
f 1 20 19
f 1 19 18
f 1 18 17
f 1 17 15
f 1 15 8
f 1 8 4
f 1 4 11
f 1 11 6
f 1 6 2
f 2 6 13
f 2 13 12
f 2 12 5
f 3 5 12
f 3 12 9
f 3 9 7
f 4 8 9
f 4 9 10
f 4 10 11
f 6 11 10
f 6 10 16
f 6 16 13
f 7 9 14
f 8 15 9
f 9 12 13
f 9 13 16
f 9 16 10
f 9 15 17
f 9 17 18
f 9 18 19
f 9 19 20
f 9 20 21
f 9 21 14

