# https://github.com/mikedh/trimesh
v -0.01302836 0.01449156 0.00500000
v -0.01302836 0.01991714 0.00500000
v -0.00864098 0.01449156 0.00500000
v -0.01302836 0.01449156 0.01500000
v -0.00889780 0.01991714 0.00500000
v -0.01302836 0.01991714 0.01500000
v -0.00864098 0.01902482 0.00500000
v -0.00864098 0.01449156 0.01500000
v -0.00864141 0.01904129 0.00500000
v -0.00889780 0.01991714 0.01500000
v -0.00864141 0.01904129 0.01500000
v -0.00864098 0.01902376 0.01500000
f 1 2 5
f 1 5 9
f 1 9 7
f 1 7 3
f 1 3 8
f 1 8 4
f 1 4 6
f 1 6 2
f 2 6 10
f 2 10 5
f 3 7 12
f 3 12 8
f 4 8 12
f 4 12 11
f 4 11 10
f 4 10 6
f 5 10 11
f 5 11 9
f 7 9 11
f 7 11 12

