# https://github.com/mikedh/trimesh
v -0.01574217 -0.00906153 0.00500000
v -0.01574217 -0.00906153 0.01501127
v -0.01574217 -0.00626550 0.00500000
v -0.00296100 -0.00906153 0.00500000
v -0.01574217 -0.00626550 0.01501127
v -0.01383982 -0.00906153 0.01501127
v -0.00215201 -0.00626550 0.00500000
v -0.00134302 -0.00851076 0.00500000
v -0.00107690 -0.00848749 0.00514405
v -0.00061310 -0.00843192 0.00539296
v -0.00041085 -0.00840181 0.00550076
v -0.00296100 -0.00906153 0.01499951
v -0.01257919 -0.00626550 0.01501127
v -0.01361781 -0.00865830 0.01501127
v -0.00134302 -0.00851076 0.01499951
v -0.00215201 -0.00626550 0.01499951
v -0.00096133 -0.00708318 0.00500000
v -0.00104648 -0.00743001 0.00500000
v -0.00020860 -0.00764353 0.00550076
v -0.00041085 -0.00840181 0.01449973
v -0.00061310 -0.00843192 0.01460752
v -0.00107690 -0.00848749 0.01485545
v -0.01263090 -0.00641360 0.01501127
v -0.00124417 -0.00816721 0.01499951
v -0.00096133 -0.00708318 0.01499951
v -0.01325589 -0.00792440 0.01501127
v -0.01292742 -0.00717598 0.01501127
v -0.00074235 -0.00723620 0.00514405
v -0.00036827 -0.00751651 0.00539296
v -0.00020860 -0.00764353 0.01449973
v -0.00036827 -0.00751651 0.01460752
v -0.00074235 -0.00723620 0.01485545
f 1 2 5
f 1 5 3
f 1 3 7
f 1 7 17
f 1 17 18
f 1 18 8
f 1 8 4
f 1 4 12
f 1 12 6
f 1 6 2
f 2 6 14
f 2 14 26
f 2 26 27
f 2 27 23
f 2 23 13
f 2 13 5
f 3 5 13
f 3 13 16
f 3 16 7
f 4 8 9
f 4 9 10
f 4 10 11
f 4 11 20
f 4 20 12
f 6 12 15
f 6 15 14
f 7 16 25
f 7 25 17
f 8 18 9
f 9 18 10
f 10 18 11
f 11 19 30
f 11 30 20
f 11 18 19
f 12 20 21
f 12 21 22
f 12 22 15
f 13 23 15
f 13 15 24
f 13 24 25
f 13 25 16
f 14 15 26
f 15 22 21
f 15 21 24
f 15 23 27
f 15 27 26
f 17 25 32
f 17 32 28
f 17 28 18
f 18 28 29
f 18 29 19
f 19 29 31
f 19 31 30
f 20 30 24
f 20 24 21
f 24 30 31
f 24 31 25
f 25 31 32
f 28 32 31
f 28 31 29

