# https://github.com/mikedh/trimesh
v -0.06002926 -0.00238677 0.00500000
v -0.05885696 -0.00331216 0.00500000
v -0.06002926 -0.00238677 0.01499951
v -0.03464394 -0.00238677 0.00500000
v -0.05885696 -0.00331216 0.01499951
v -0.03399408 -0.00331216 0.00500000
v -0.04870386 -0.00331216 0.01501127
v -0.04871405 -0.00325527 0.01501127
v -0.04883892 -0.00244683 0.01501127
v -0.04840314 -0.00238677 0.01501127
v -0.03464394 -0.00238677 0.01501127
v -0.03399408 -0.00331216 0.01501127
f 1 2 5
f 1 5 3
f 1 3 10
f 1 10 11
f 1 11 4
f 1 4 6
f 1 6 2
f 2 6 12
f 2 12 7
f 2 7 5
f 3 5 7
f 3 7 8
f 3 8 9
f 3 9 10
f 4 11 12
f 4 12 6
f 7 12 11
f 7 11 10
f 7 10 9
f 7 9 8

