# https://github.com/mikedh/trimesh
v -0.02101327 -0.00000586 0.01501127
v -0.02101327 -0.00000586 0.00500000
v -0.02166856 -0.00000586 0.01501127
v -0.02101327 -0.01600170 0.01501127
v -0.02166856 -0.00000586 0.00500000
v -0.02101327 -0.02730841 0.00500000
v -0.02166856 -0.01648650 0.01501127
v -0.02159274 -0.01662925 0.01501127
v -0.02101327 -0.02730841 0.01499951
v -0.02166856 -0.02751849 0.00500000
v -0.02166856 -0.02751849 0.01499951
f 1 2 5
f 1 5 3
f 1 3 7
f 1 7 8
f 1 8 4
f 1 4 9
f 1 9 6
f 1 6 2
f 2 6 10
f 2 10 5
f 3 5 10
f 3 10 11
f 3 11 7
f 4 8 9
f 6 9 11
f 6 11 10
f 7 11 8
f 8 11 9

