# https://github.com/mikedh/trimesh
v -0.02136413 0.01650639 0.01501127
v -0.02136413 0.01449299 0.01501127
v -0.02087426 0.01623793 0.01501127
v -0.01876434 0.02785851 0.01499951
v -0.01909555 0.02799274 0.01499951
v -0.02014395 0.02838828 0.01499951
v -0.02136413 0.02734160 0.01499951
v -0.02136413 0.01449299 0.00500000
v -0.01873709 0.01449299 0.01501127
v -0.02017507 0.01581384 0.01501127
v -0.01875972 0.02812553 0.01485545
v -0.01876640 0.02859247 0.01460752
v -0.01949491 0.01535975 0.01501127
v -0.01883532 0.01487568 0.01501127
v -0.01873709 0.02635203 0.01499951
v -0.01877514 0.02879667 0.01449973
v -0.01950828 0.02907940 0.01449973
v -0.01965151 0.02893232 0.01460752
v -0.01996909 0.02858962 0.01485545
v -0.02136413 0.02734160 0.00500000
v -0.01873709 0.01449299 0.00500000
v -0.01875972 0.02812553 0.00514405
v -0.01876640 0.02859247 0.00539296
v -0.01873709 0.02635203 0.00500000
v -0.01877514 0.02879667 0.00550076
v -0.01950828 0.02907940 0.00550076
v -0.01965151 0.02893232 0.00539296
v -0.01996909 0.02858962 0.00514405
v -0.02014395 0.02838828 0.00500000
v -0.01876434 0.02785851 0.00500000
v -0.01980811 0.02826690 0.00500000
f 1 2 9
f 1 9 14
f 1 14 13
f 1 13 10
f 1 10 3
f 1 3 4
f 1 4 5
f 1 5 6
f 1 6 7
f 1 7 20
f 1 20 8
f 1 8 2
f 2 8 21
f 2 21 9
f 3 10 4
f 4 11 12
f 4 12 5
f 4 10 13
f 4 13 14
f 4 14 9
f 4 9 15
f 4 15 11
f 5 12 16
f 5 16 17
f 5 17 6
f 6 17 18
f 6 18 19
f 6 19 7
f 7 19 18
f 7 18 17
f 7 17 26
f 7 26 20
f 8 20 29
f 8 29 31
f 8 31 30
f 8 30 24
f 8 24 21
f 9 21 24
f 9 24 15
f 11 15 24
f 11 24 22
f 11 22 23
f 11 23 12
f 12 23 25
f 12 25 16
f 16 25 26
f 16 26 17
f 20 26 27
f 20 27 28
f 20 28 29
f 22 30 31
f 22 31 23
f 22 24 30
f 23 31 25
f 25 31 26
f 26 31 29
f 26 29 28
f 26 28 27

