# https://github.com/mikedh/trimesh
v -0.05153755 0.01981491 0.00500000
v -0.05165587 0.02000279 0.00500000
v -0.05006660 0.01981491 0.00500000
v -0.05153755 0.01981491 0.01500000
v -0.05182032 0.02028739 0.00500000
v -0.05165587 0.02000279 0.01500000
v -0.05006660 0.02128853 0.00500000
v -0.05006660 0.01981491 0.01500000
v -0.05200550 0.02063960 0.00500000
v -0.05182032 0.02028739 0.01500000
v -0.05025271 0.02140601 0.00500000
v -0.05006660 0.02128853 0.01237177
v -0.05006660 0.02128667 0.01500000
v -0.05207398 0.02077922 0.00500000
v -0.05200550 0.02063960 0.01500000
v -0.05053735 0.02157034 0.00500000
v -0.05025271 0.02140601 0.01500000
v -0.05218695 0.02102071 0.00514389
v -0.05237096 0.02145053 0.00539252
v -0.05182591 0.02103609 0.00500000
v -0.05207398 0.02077922 0.01500000
v -0.05088954 0.02175542 0.00500000
v -0.05053735 0.02157034 0.01500000
v -0.05218695 0.02102071 0.01485611
v -0.05244620 0.02164074 0.00550020
v -0.05237096 0.02145053 0.01460748
v -0.05189090 0.02219620 0.00550020
v -0.05170060 0.02212091 0.00539252
v -0.05102906 0.02182395 0.00500000
v -0.05128622 0.02157594 0.01500000
v -0.05088954 0.02175542 0.01500000
v -0.05244620 0.02164074 0.01449980
v -0.05189090 0.02219620 0.01449980
v -0.05127084 0.02193700 0.00514389
v -0.05170060 0.02212091 0.01460748
v -0.05102906 0.02182395 0.01500000
v -0.05127084 0.02193700 0.01485611
f 1 2 5
f 1 5 9
f 1 9 14
f 1 14 20
f 1 20 29
f 1 29 22
f 1 22 16
f 1 16 11
f 1 11 7
f 1 7 3
f 1 3 8
f 1 8 4
f 1 4 6
f 1 6 2
f 2 6 10
f 2 10 5
f 3 7 12
f 3 12 13
f 3 13 8
f 4 8 13
f 4 13 17
f 4 17 23
f 4 23 31
f 4 31 36
f 4 36 30
f 4 30 21
f 4 21 15
f 4 15 10
f 4 10 6
f 5 10 15
f 5 15 9
f 7 11 17
f 7 17 12
f 9 15 21
f 9 21 14
f 11 16 23
f 11 23 17
f 12 17 13
f 14 18 19
f 14 19 20
f 14 21 24
f 14 24 18
f 16 22 31
f 16 31 23
f 18 24 26
f 18 26 19
f 19 25 20
f 19 26 32
f 19 32 25
f 20 25 27
f 20 27 28
f 20 28 29
f 21 30 26
f 21 26 24
f 22 29 36
f 22 36 31
f 25 32 33
f 25 33 27
f 26 30 32
f 27 33 35
f 27 35 28
f 28 34 29
f 28 35 37
f 28 37 34
f 29 34 37
f 29 37 36
f 30 36 35
f 30 35 33
f 30 33 32
f 35 36 37

