# https://github.com/mikedh/trimesh
v -0.03341785 -0.02824603 0.01500000
v -0.03592457 -0.02824603 0.01500000
v -0.03341785 -0.02857683 0.01500000
v -0.03341785 -0.02824603 0.00541797
v -0.03571893 -0.02948499 0.01500000
v -0.03592457 -0.02824603 0.00500000
v -0.03423281 -0.02986957 0.01500000
v -0.03436213 -0.03010304 0.01485611
v -0.03460164 -0.03050452 0.01460748
v -0.03341785 -0.02857683 0.00500000
v -0.03341785 -0.02835502 0.00500000
v -0.03342030 -0.02824603 0.00500000
v -0.03569242 -0.02963825 0.01500000
v -0.03571893 -0.02948499 0.00500000
v -0.03534053 -0.02970084 0.01500000
v -0.03471108 -0.03067730 0.01449980
v -0.03460164 -0.03050452 0.00539252
v -0.03436213 -0.03010304 0.00514389
v -0.03423281 -0.02986957 0.00500000
v -0.03569242 -0.02963825 0.00500000
v -0.03564138 -0.02990027 0.01485611
v -0.03553782 -0.03035626 0.01460748
v -0.03548678 -0.03055450 0.01449980
v -0.03471108 -0.03067730 0.00550020
v -0.03458667 -0.02982007 0.00500000
v -0.03553782 -0.03035626 0.00539252
v -0.03564138 -0.02990027 0.00514389
v -0.03548678 -0.03055450 0.00550020
f 1 2 5
f 1 5 13
f 1 13 15
f 1 15 7
f 1 7 3
f 1 3 10
f 1 10 11
f 1 11 4
f 1 4 12
f 1 12 6
f 1 6 2
f 2 6 14
f 2 14 5
f 3 7 8
f 3 8 9
f 3 9 17
f 3 17 10
f 4 11 12
f 5 14 20
f 5 20 13
f 6 12 11
f 6 11 10
f 6 10 19
f 6 19 25
f 6 25 20
f 6 20 14
f 7 15 9
f 7 9 8
f 9 15 16
f 9 16 24
f 9 24 17
f 10 17 18
f 10 18 19
f 13 20 27
f 13 27 21
f 13 21 22
f 13 22 15
f 15 22 23
f 15 23 16
f 16 23 28
f 16 28 24
f 17 24 25
f 17 25 19
f 17 19 18
f 20 25 26
f 20 26 27
f 21 27 26
f 21 26 22
f 22 26 28
f 22 28 23
f 24 28 25
f 25 28 26

