# https://github.com/mikedh/trimesh
v -0.02570215 -0.00207594 0.01501127
v -0.02570215 -0.00207594 0.00500000
v -0.02687308 -0.00368855 0.01501127
v -0.02570215 -0.01818521 0.01501127
v -0.02687308 -0.00368855 0.00500000
v -0.02570215 -0.02978141 0.00500000
v -0.02687308 -0.01843997 0.01501127
v -0.02619248 -0.01830559 0.01501127
v -0.02570215 -0.02978421 0.01499951
v -0.02687308 -0.02864474 0.00500000
v -0.02570215 -0.03029095 0.00528811
v -0.02626744 -0.02986820 0.00500000
v -0.02687308 -0.02864474 0.01499951
v -0.02651605 -0.02937546 0.01499951
v -0.02633999 -0.02973101 0.01499951
v -0.02626744 -0.02986820 0.01499951
v -0.02591350 -0.02981780 0.01499951
v -0.02570215 -0.02983460 0.01497109
v -0.02651605 -0.02937546 0.00500000
v -0.02570215 -0.03066330 0.00550076
v -0.02578880 -0.03067730 0.00550076
v -0.02633999 -0.02973101 0.00500000
v -0.02589860 -0.03050372 0.00539296
v -0.02613804 -0.03010057 0.00514405
v -0.02613804 -0.03010057 0.01485545
v -0.02589860 -0.03050372 0.01460752
v -0.02578880 -0.03067730 0.01449973
v -0.02570215 -0.02993819 0.01491229
v -0.02570215 -0.03066330 0.01449973
f 1 2 5
f 1 5 3
f 1 3 7
f 1 7 8
f 1 8 4
f 1 4 9
f 1 9 18
f 1 18 28
f 1 28 29
f 1 29 20
f 1 20 11
f 1 11 6
f 1 6 2
f 2 6 12
f 2 12 22
f 2 22 19
f 2 19 10
f 2 10 5
f 3 5 10
f 3 10 13
f 3 13 7
f 4 8 9
f 6 11 12
f 7 13 14
f 7 14 15
f 7 15 16
f 7 16 17
f 7 17 9
f 7 9 8
f 9 17 18
f 10 19 14
f 10 14 13
f 11 20 21
f 11 21 12
f 12 16 15
f 12 15 22
f 12 21 23
f 12 23 24
f 12 24 25
f 12 25 16
f 14 19 22
f 14 22 15
f 16 25 26
f 16 26 27
f 16 27 17
f 17 27 28
f 17 28 18
f 20 29 27
f 20 27 21
f 21 27 26
f 21 26 23
f 23 26 25
f 23 25 24
f 27 29 28

