# https://github.com/mikedh/trimesh
v -0.05904698 0.00348935 0.00500000
v -0.05932511 0.00360027 0.00500000
v -0.05904698 0.00555706 0.00500000
v -0.05904698 0.00348935 0.00582126
v -0.05962552 0.00373407 0.00500000
v -0.05932511 0.00360027 0.01500000
v -0.05934168 0.00552630 0.00500000
v -0.05904698 0.00555706 0.01500000
v -0.05904698 0.00348975 0.01500000
v -0.05904808 0.00348996 0.01500000
v -0.05998226 0.00391018 0.00500000
v -0.05962552 0.00373407 0.01500000
v -0.05973523 0.00546901 0.00500000
v -0.05934168 0.00552630 0.01500000
v -0.06011958 0.00398265 0.00500000
v -0.05998226 0.00391018 0.01500000
v -0.05988857 0.00544249 0.00500000
v -0.05973523 0.00546901 0.01500000
v -0.06011958 0.00398265 0.01500000
v -0.06035317 0.00411219 0.00514389
v -0.06007025 0.00433668 0.00500000
v -0.06060627 0.00528785 0.00539252
v -0.06015032 0.00539148 0.00514389
v -0.05988857 0.00544249 0.01500000
v -0.05995097 0.00509049 0.01500000
v -0.06075445 0.00435166 0.01460748
v -0.06035317 0.00411219 0.01485611
v -0.06075445 0.00435166 0.00539252
v -0.06092730 0.00446137 0.00550020
v -0.06080434 0.00523684 0.00550020
v -0.06060627 0.00528785 0.01460748
v -0.06015032 0.00539148 0.01485611
v -0.06080434 0.00523684 0.01449980
v -0.06092730 0.00446137 0.01449980
f 1 2 5
f 1 5 11
f 1 11 15
f 1 15 21
f 1 21 17
f 1 17 13
f 1 13 7
f 1 7 3
f 1 3 8
f 1 8 9
f 1 9 4
f 1 4 6
f 1 6 2
f 2 6 12
f 2 12 5
f 3 7 14
f 3 14 8
f 4 9 10
f 4 10 6
f 5 12 16
f 5 16 11
f 6 10 9
f 6 9 8
f 6 8 14
f 6 14 18
f 6 18 24
f 6 24 25
f 6 25 19
f 6 19 16
f 6 16 12
f 7 13 18
f 7 18 14
f 11 16 19
f 11 19 15
f 13 17 24
f 13 24 18
f 15 19 27
f 15 27 20
f 15 20 21
f 17 21 22
f 17 22 23
f 17 23 32
f 17 32 24
f 19 25 26
f 19 26 27
f 20 28 21
f 20 27 26
f 20 26 28
f 21 28 29
f 21 29 30
f 21 30 22
f 22 30 33
f 22 33 31
f 22 31 32
f 22 32 23
f 24 32 31
f 24 31 25
f 25 31 33
f 25 33 34
f 25 34 26
f 26 34 29
f 26 29 28
f 29 34 33
f 29 33 30

