# https://github.com/mikedh/trimesh
v -0.04472459 0.01778807 0.01500000
v -0.04472459 0.01442803 0.01500000
v -0.04472459 0.01778807 0.00500000
v -0.05372542 0.01778807 0.01500000
v -0.05377058 0.01442803 0.01500000
v -0.04472459 0.01442803 0.00500000
v -0.05372542 0.01778807 0.00500000
v -0.05377058 0.01666477 0.01383614
v -0.05377058 0.01666312 0.01500000
v -0.05377058 0.01442803 0.00500000
v -0.05377058 0.01666477 0.00500000
f 1 2 6
f 1 6 3
f 1 3 7
f 1 7 4
f 1 4 9
f 1 9 5
f 1 5 2
f 2 5 10
f 2 10 6
f 3 6 10
f 3 10 11
f 3 11 7
f 4 8 9
f 4 7 11
f 4 11 8
f 5 9 8
f 5 8 11
f 5 11 10

