# https://github.com/mikedh/trimesh
v -0.02166878 -0.00000610 0.01501127
v -0.02166878 -0.00000610 0.00500000
v -0.02395039 -0.00000610 0.01501127
v -0.02166878 -0.01648738 0.01501127
v -0.02395039 -0.00000610 0.00500000
v -0.02166878 -0.02751705 0.00500000
v -0.02395039 -0.01731365 0.01501127
v -0.02232657 -0.01699314 0.01501127
v -0.02173936 -0.02890494 0.01499951
v -0.02172886 -0.02874910 0.01499951
v -0.02166878 -0.02751705 0.01499951
v -0.02395039 -0.02810808 0.00500000
v -0.02172886 -0.02874910 0.00500000
v -0.02395039 -0.02810808 0.01499951
v -0.02383759 -0.01761652 0.01501127
v -0.02307527 -0.01732247 0.01501127
v -0.02173936 -0.02890494 0.00500000
v -0.02281997 -0.02920193 0.01499951
v -0.02176259 -0.02917252 0.01485545
v -0.02325351 -0.02915782 0.00500000
v -0.02325351 -0.02915782 0.01499951
v -0.02316685 -0.02928720 0.01499951
v -0.02176259 -0.02917252 0.00514405
v -0.02208289 -0.02900492 0.00500000
v -0.02301385 -0.02950774 0.01485545
v -0.02260666 -0.03004290 0.01449973
v -0.02181821 -0.02963712 0.01460752
v -0.02316685 -0.02928720 0.00500000
v -0.02181821 -0.02963712 0.00539296
v -0.02260666 -0.03004290 0.00550076
v -0.02301385 -0.02950774 0.00514405
v -0.02273376 -0.02988117 0.01460752
v -0.02184814 -0.02983707 0.01449973
v -0.02184814 -0.02983707 0.00550076
v -0.02273376 -0.02988117 0.00539296
f 1 2 5
f 1 5 3
f 1 3 7
f 1 7 15
f 1 15 16
f 1 16 8
f 1 8 4
f 1 4 11
f 1 11 6
f 1 6 2
f 2 6 13
f 2 13 17
f 2 17 24
f 2 24 28
f 2 28 20
f 2 20 12
f 2 12 5
f 3 5 12
f 3 12 14
f 3 14 7
f 4 8 9
f 4 9 10
f 4 10 11
f 6 11 10
f 6 10 13
f 7 14 15
f 8 16 9
f 9 17 13
f 9 13 10
f 9 16 15
f 9 15 18
f 9 18 19
f 9 19 23
f 9 23 17
f 12 20 21
f 12 21 14
f 14 21 15
f 15 21 22
f 15 22 18
f 17 23 24
f 18 22 25
f 18 25 26
f 18 26 27
f 18 27 19
f 19 27 29
f 19 29 23
f 20 28 22
f 20 22 21
f 22 28 31
f 22 31 25
f 23 29 24
f 24 29 30
f 24 30 31
f 24 31 28
f 25 31 35
f 25 35 32
f 25 32 26
f 26 30 34
f 26 34 33
f 26 33 27
f 26 32 35
f 26 35 30
f 27 33 34
f 27 34 29
f 29 34 30
f 30 35 31

