# https://github.com/mikedh/trimesh
v -0.04883183 0.00248756 0.01501127
v -0.04883344 0.00248756 0.01574192
v -0.04871410 0.00325651 0.01501127
v -0.03458766 0.00248756 0.01501127
v -0.04883344 0.00248756 0.03000000
v -0.04871410 0.00325591 0.03000000
v -0.04855443 0.00405872 0.01501127
v -0.03235878 0.00453395 0.01501127
v -0.03458766 0.00248756 0.03000000
v -0.04855443 0.00405811 0.03000000
v -0.04843831 0.00453395 0.03000000
v -0.04843831 0.00453395 0.01501127
v -0.03235878 0.00453395 0.03000000
f 1 2 3
f 1 3 7
f 1 7 12
f 1 12 8
f 1 8 4
f 1 4 9
f 1 9 5
f 1 5 2
f 2 5 3
f 3 6 10
f 3 10 7
f 3 5 6
f 4 8 13
f 4 13 9
f 5 9 13
f 5 13 11
f 5 11 10
f 5 10 6
f 7 10 11
f 7 11 12
f 8 12 11
f 8 11 13

