# https://github.com/mikedh/trimesh
v -0.00860918 -0.02219620 0.00550020
v -0.00879940 -0.02212094 0.00539252
v -0.00867406 -0.02103613 0.00500000
v -0.00805402 -0.02164074 0.00550020
v -0.00860918 -0.02219620 0.01449980
v -0.00922900 -0.02193688 0.00514389
v -0.00947104 -0.02182388 0.00500000
v -0.00879940 -0.02212094 0.01460748
v -0.00842605 -0.02077914 0.00500000
v -0.00812909 -0.02145039 0.00539252
v -0.00805402 -0.02164074 0.01449980
v -0.00921350 -0.02157597 0.01500000
v -0.00922900 -0.02193688 0.01485611
v -0.00961055 -0.02175538 0.00500000
v -0.00947104 -0.02182388 0.01500000
v -0.00849447 -0.02063957 0.00500000
v -0.00842605 -0.02077914 0.01500000
v -0.00831311 -0.02102075 0.00514389
v -0.00812909 -0.02145039 0.01460748
v -0.00996265 -0.02157038 0.00500000
v -0.00961055 -0.02175538 0.01500000
v -0.00867960 -0.02028752 0.00500000
v -0.00849447 -0.02063957 0.01500000
v -0.00831311 -0.02102075 0.01485611
v -0.01024720 -0.02140589 0.00500000
v -0.00996265 -0.02157038 0.01500000
v -0.00884413 -0.02000280 0.00500000
v -0.00867960 -0.02028752 0.01500000
v -0.01031607 -0.02136255 0.00500000
v -0.01024720 -0.02140589 0.01500000
v -0.00896194 -0.01981594 0.00500000
v -0.00884413 -0.02000280 0.01500000
v -0.01031607 -0.01981594 0.00500000
v -0.01031607 -0.02136255 0.01500000
v -0.00896194 -0.01981594 0.01500000
v -0.01031607 -0.01981594 0.01500000
f 1 2 3
f 1 3 4
f 1 4 11
f 1 11 5
f 1 5 8
f 1 8 2
f 2 6 7
f 2 7 3
f 2 8 13
f 2 13 6
f 3 9 10
f 3 10 4
f 3 7 14
f 3 14 20
f 3 20 25
f 3 25 29
f 3 29 33
f 3 33 31
f 3 31 27
f 3 27 22
f 3 22 16
f 3 16 9
f 4 10 19
f 4 19 11
f 5 11 12
f 5 12 8
f 6 13 15
f 6 15 7
f 7 15 21
f 7 21 14
f 8 12 13
f 9 16 23
f 9 23 17
f 9 17 24
f 9 24 18
f 9 18 10
f 10 18 24
f 10 24 19
f 11 19 12
f 12 15 13
f 12 19 17
f 12 17 23
f 12 23 28
f 12 28 32
f 12 32 35
f 12 35 36
f 12 36 34
f 12 34 30
f 12 30 26
f 12 26 21
f 12 21 15
f 14 21 26
f 14 26 20
f 16 22 28
f 16 28 23
f 17 19 24
f 20 26 30
f 20 30 25
f 22 27 32
f 22 32 28
f 25 30 34
f 25 34 29
f 27 31 35
f 27 35 32
f 29 34 36
f 29 36 33
f 31 33 36
f 31 36 35

