# https://github.com/mikedh/trimesh
v -0.02768818 0.02896470 0.01500000
v -0.02772668 0.02918831 0.01500000
v -0.02980248 0.02896470 0.01500000
v -0.02768818 0.02896470 0.00500000
v -0.02779498 0.02950994 0.01500000
v -0.02772668 0.02918831 0.00500000
v -0.02970851 0.02929224 0.01500000
v -0.02980248 0.02896470 0.00500000
v -0.02789309 0.02989555 0.01500000
v -0.02779498 0.02950994 0.00500000
v -0.02960709 0.02960482 0.01500000
v -0.02970851 0.02929224 0.00500000
v -0.02793552 0.03004475 0.01500000
v -0.02789309 0.02989555 0.00500000
v -0.02946924 0.02997783 0.01500000
v -0.02960709 0.02960482 0.00500000
v -0.02829194 0.03007014 0.01500000
v -0.02793552 0.03004475 0.00500000
v -0.02801355 0.03030025 0.01485611
v -0.02941129 0.03012211 0.01500000
v -0.02946924 0.02997783 0.00500000
v -0.02816424 0.03074274 0.01460748
v -0.02823564 0.03093446 0.01449980
v -0.02901968 0.03097560 0.01449980
v -0.02911075 0.03079234 0.01460748
v -0.02905404 0.03011010 0.00500000
v -0.02816424 0.03074274 0.00539252
v -0.02801355 0.03030025 0.00514389
v -0.02930697 0.03036796 0.01485611
v -0.02941129 0.03012211 0.00500000
v -0.02823564 0.03093446 0.00550020
v -0.02901968 0.03097560 0.00550020
v -0.02911075 0.03079234 0.00539252
v -0.02930697 0.03036796 0.00514389
f 1 2 5
f 1 5 9
f 1 9 13
f 1 13 17
f 1 17 20
f 1 20 15
f 1 15 11
f 1 11 7
f 1 7 3
f 1 3 8
f 1 8 4
f 1 4 6
f 1 6 2
f 2 6 10
f 2 10 5
f 3 7 12
f 3 12 8
f 4 8 12
f 4 12 16
f 4 16 21
f 4 21 30
f 4 30 26
f 4 26 18
f 4 18 14
f 4 14 10
f 4 10 6
f 5 10 14
f 5 14 9
f 7 11 16
f 7 16 12
f 9 14 18
f 9 18 13
f 11 15 21
f 11 21 16
f 13 18 28
f 13 28 19
f 13 19 17
f 15 20 30
f 15 30 21
f 17 19 22
f 17 22 23
f 17 23 24
f 17 24 25
f 17 25 20
f 18 26 27
f 18 27 28
f 19 28 27
f 19 27 22
f 20 25 29
f 20 29 34
f 20 34 30
f 22 27 31
f 22 31 23
f 23 31 32
f 23 32 24
f 24 32 33
f 24 33 25
f 25 33 34
f 25 34 29
f 26 30 33
f 26 33 32
f 26 32 31
f 26 31 27
f 30 34 33

