# https://github.com/mikedh/trimesh
v -0.06037115 0.00083869 0.00500000
v -0.06061667 0.00094298 0.00514405
v -0.06104147 0.00113913 0.00539296
v -0.06122560 0.00123022 0.00550076
v -0.06035985 0.00119580 0.00500000
v -0.05899822 0.00002354 0.00500000
v -0.06122560 0.00123022 0.01449973
v -0.06118361 0.00201432 0.00550076
v -0.06029362 0.00231450 0.00500000
v -0.05899822 0.00002354 0.01499951
v -0.04472459 0.00002354 0.00500000
v -0.06118361 0.00201432 0.01449973
v -0.06104147 0.00113913 0.01460752
v -0.06037115 0.00083869 0.01499951
v -0.06031947 0.00195790 0.01499951
v -0.06099140 0.00208574 0.00539296
v -0.06029362 0.00231450 0.01499951
v -0.06014502 0.00235694 0.00500000
v -0.06054883 0.00223661 0.00514405
v -0.06061667 0.00094298 0.01485545
v -0.04900006 0.00002354 0.01501029
v -0.04472459 0.00266721 0.00500000
v -0.04472459 0.00002354 0.01501127
v -0.06099140 0.00208574 0.01460752
v -0.04898229 0.00081851 0.01501127
v -0.04892899 0.00163469 0.01501127
v -0.06014502 0.00235694 0.01499951
v -0.06054883 0.00223661 0.01485545
v -0.04884015 0.00244777 0.01501127
v -0.05895623 0.00266721 0.00500000
v -0.04536583 0.00002354 0.01501127
v -0.04472459 0.00266721 0.01501127
v -0.05895623 0.00266721 0.01499951
v -0.04693905 0.00266721 0.01501127
f 1 2 3
f 1 3 4
f 1 4 5
f 1 5 9
f 1 9 18
f 1 18 30
f 1 30 22
f 1 22 11
f 1 11 6
f 1 6 2
f 2 6 3
f 3 6 4
f 4 6 10
f 4 10 7
f 4 7 12
f 4 12 8
f 4 8 5
f 5 8 9
f 6 11 23
f 6 23 31
f 6 31 21
f 6 21 10
f 7 10 13
f 7 13 14
f 7 14 15
f 7 15 12
f 8 12 24
f 8 24 16
f 8 16 9
f 9 17 27
f 9 27 18
f 9 16 19
f 9 19 28
f 9 28 17
f 10 14 20
f 10 20 13
f 10 21 14
f 11 22 32
f 11 32 23
f 12 15 24
f 13 20 14
f 14 21 25
f 14 25 15
f 15 25 26
f 15 26 17
f 15 17 24
f 16 24 28
f 16 28 19
f 17 28 24
f 17 26 29
f 17 29 27
f 18 27 33
f 18 33 30
f 21 31 25
f 22 30 33
f 22 33 34
f 22 34 32
f 23 32 34
f 23 34 29
f 23 29 26
f 23 26 25
f 23 25 31
f 27 29 33
f 29 34 33

