# https://github.com/mikedh/trimesh
v -0.05189074 -0.02219620 0.00550020
v -0.05244620 -0.02164074 0.00550020
v -0.05128627 -0.02157597 0.00500000
v -0.05170050 -0.02212094 0.00539252
v -0.05189074 -0.02219620 0.01449980
v -0.05237084 -0.02145039 0.00539252
v -0.05207404 -0.02077914 0.00500000
v -0.05244620 -0.02164074 0.01449980
v -0.05102922 -0.02182388 0.00500000
v -0.05127078 -0.02193688 0.00514389
v -0.05170050 -0.02212094 0.01460748
v -0.05182601 -0.02103613 0.01500000
v -0.05218684 -0.02102075 0.00514389
v -0.05237084 -0.02145039 0.01460748
v -0.05207404 -0.02077914 0.01500000
v -0.05200539 -0.02063957 0.00500000
v -0.05088961 -0.02175538 0.00500000
v -0.05102922 -0.02182388 0.01500000
v -0.05127078 -0.02193688 0.01485611
v -0.05218684 -0.02102075 0.01485611
v -0.05200539 -0.02063957 0.01500000
v -0.05182046 -0.02028752 0.00500000
v -0.05053733 -0.02157038 0.00500000
v -0.05088961 -0.02175538 0.01500000
v -0.05182046 -0.02028752 0.01500000
v -0.05165588 -0.02000280 0.00500000
v -0.05025278 -0.02140589 0.00500000
v -0.05053733 -0.02157038 0.01500000
v -0.05165588 -0.02000280 0.01500000
v -0.05153823 -0.01981594 0.00500000
v -0.05008496 -0.02130011 0.00500000
v -0.05025278 -0.02140589 0.01500000
v -0.05153615 -0.01981594 0.01500000
v -0.05153823 -0.01981594 0.01239820
v -0.05008496 -0.01981594 0.00500000
v -0.05008496 -0.02130011 0.01500000
v -0.05008496 -0.01981594 0.01500000
f 1 2 3
f 1 3 4
f 1 4 11
f 1 11 5
f 1 5 8
f 1 8 2
f 2 6 7
f 2 7 3
f 2 8 14
f 2 14 6
f 3 9 4
f 3 7 16
f 3 16 22
f 3 22 26
f 3 26 30
f 3 30 35
f 3 35 31
f 3 31 27
f 3 27 23
f 3 23 17
f 3 17 9
f 4 9 10
f 4 10 19
f 4 19 11
f 5 11 12
f 5 12 8
f 6 13 7
f 6 14 20
f 6 20 13
f 7 13 20
f 7 20 15
f 7 15 21
f 7 21 16
f 8 12 14
f 9 17 24
f 9 24 18
f 9 18 19
f 9 19 10
f 11 19 18
f 11 18 12
f 12 15 14
f 12 18 24
f 12 24 28
f 12 28 32
f 12 32 36
f 12 36 37
f 12 37 33
f 12 33 29
f 12 29 25
f 12 25 21
f 12 21 15
f 14 15 20
f 16 21 25
f 16 25 22
f 17 23 28
f 17 28 24
f 22 25 29
f 22 29 26
f 23 27 32
f 23 32 28
f 26 29 34
f 26 34 30
f 27 31 36
f 27 36 32
f 29 33 34
f 30 34 33
f 30 33 37
f 30 37 35
f 31 35 37
f 31 37 36

