# https://github.com/mikedh/trimesh
v -0.02874164 0.00476674 0.00500000
v -0.02656025 0.00337840 0.00500000
v -0.02874164 0.00476674 0.01501127
v -0.00050349 0.00476674 0.00500000
v -0.00160561 0.00337840 0.00500000
v -0.02656025 0.00337840 0.01501127
v -0.01245260 0.00476674 0.01501127
v -0.00041784 0.00476674 0.00504802
v -0.00038357 0.00398280 0.00500000
v -0.00087752 0.00373408 0.00500000
v -0.00160561 0.00337840 0.01499951
v -0.01181303 0.00337840 0.01501127
v -0.01194722 0.00405783 0.01501127
v -0.00050349 0.00476674 0.01499951
v -0.00019798 0.00476674 0.00517247
v -0.00052062 0.00391022 0.00500000
v 0.00042731 0.00446121 0.00550076
v -0.00014944 0.00411192 0.00514405
v -0.00038357 0.00398280 0.01499951
v -0.00087752 0.00373408 0.01499951
v -0.00052062 0.00391022 0.01499951
v -0.00043211 0.00433658 0.01499951
v -0.00039785 0.00476674 0.01494071
v 0.00037592 0.00476674 0.00550076
v 0.00042731 0.00446121 0.01449973
v 0.00025029 0.00435140 0.00539296
v -0.00014944 0.00411192 0.01485545
v 0.00037592 0.00476674 0.01449973
v 0.00025029 0.00435140 0.01460752
f 1 2 6
f 1 6 3
f 1 3 7
f 1 7 14
f 1 14 23
f 1 23 28
f 1 28 24
f 1 24 15
f 1 15 8
f 1 8 4
f 1 4 9
f 1 9 16
f 1 16 10
f 1 10 5
f 1 5 2
f 2 5 11
f 2 11 12
f 2 12 6
f 3 6 12
f 3 12 13
f 3 13 7
f 4 8 9
f 5 10 20
f 5 20 11
f 7 13 14
f 8 15 9
f 9 15 17
f 9 17 18
f 9 18 27
f 9 27 19
f 9 19 21
f 9 21 16
f 10 16 21
f 10 21 20
f 11 20 12
f 12 20 21
f 12 21 19
f 12 19 22
f 12 22 14
f 12 14 13
f 14 22 23
f 15 24 17
f 17 24 28
f 17 28 25
f 17 25 29
f 17 29 26
f 17 26 18
f 18 26 29
f 18 29 27
f 19 27 25
f 19 25 22
f 22 25 23
f 23 25 28
f 25 27 29

