# https://github.com/mikedh/trimesh
v -0.01303463 -0.02168222 0.00500000
v -0.01303463 -0.01722427 0.00500000
v -0.01122164 -0.02168222 0.00500000
v -0.01303463 -0.02168222 0.01500000
v -0.01031634 -0.01722427 0.00500000
v -0.01303463 -0.01722427 0.01500000
v -0.01031634 -0.02136233 0.00500000
v -0.01122164 -0.02168222 0.01500000
v -0.01031634 -0.01722427 0.01500000
v -0.01031634 -0.02136233 0.01500000
f 1 2 5
f 1 5 7
f 1 7 3
f 1 3 8
f 1 8 4
f 1 4 6
f 1 6 2
f 2 6 9
f 2 9 5
f 3 7 10
f 3 10 8
f 4 8 10
f 4 10 9
f 4 9 6
f 5 9 10
f 5 10 7

