# https://github.com/mikedh/trimesh
v -0.05191409 -0.01721806 0.01500000
v -0.05336734 -0.01721806 0.01500000
v -0.05191409 -0.01902828 0.01500000
v -0.05191409 -0.01721806 0.00500000
v -0.05404360 -0.01825244 0.01500000
v -0.05336734 -0.01721806 0.00500000
v -0.05191592 -0.01902980 0.01500000
v -0.05191409 -0.01903006 0.00625783
v -0.05191409 -0.01903006 0.00500000
v -0.05412627 -0.01838399 0.01500000
v -0.05404360 -0.01825244 0.00500000
v -0.05305053 -0.01947880 0.01500000
v -0.05305053 -0.01947880 0.00500000
v -0.05412627 -0.01838399 0.00500000
v -0.05426387 -0.01861255 0.01485611
v -0.05449200 -0.01902066 0.01460748
v -0.05390678 -0.01866563 0.01500000
v -0.05319650 -0.01953239 0.01500000
v -0.05319650 -0.01953239 0.00500000
v -0.05342620 -0.01925887 0.00500000
v -0.05449200 -0.01902066 0.00539252
v -0.05426387 -0.01861255 0.00514389
v -0.05458644 -0.01920199 0.01449980
v -0.05409226 -0.01981225 0.01449980
v -0.05389526 -0.01975739 0.01460748
v -0.05344870 -0.01961949 0.01485611
v -0.05344870 -0.01961949 0.00514389
v -0.05389526 -0.01975739 0.00539252
v -0.05409226 -0.01981225 0.00550020
v -0.05458644 -0.01920199 0.00550020
f 1 2 5
f 1 5 10
f 1 10 17
f 1 17 18
f 1 18 12
f 1 12 7
f 1 7 3
f 1 3 8
f 1 8 9
f 1 9 4
f 1 4 6
f 1 6 2
f 2 6 11
f 2 11 5
f 3 7 8
f 4 9 13
f 4 13 19
f 4 19 20
f 4 20 14
f 4 14 11
f 4 11 6
f 5 11 14
f 5 14 10
f 7 12 8
f 8 12 13
f 8 13 9
f 10 14 22
f 10 22 15
f 10 15 16
f 10 16 17
f 12 18 19
f 12 19 13
f 14 20 21
f 14 21 22
f 15 22 21
f 15 21 16
f 16 21 30
f 16 30 23
f 16 23 17
f 17 23 24
f 17 24 25
f 17 25 18
f 18 25 26
f 18 26 27
f 18 27 19
f 19 27 28
f 19 28 20
f 20 28 29
f 20 29 30
f 20 30 21
f 23 30 29
f 23 29 24
f 24 29 28
f 24 28 25
f 25 28 27
f 25 27 26

