# https://github.com/mikedh/trimesh
v -0.06005055 -0.00442368 0.00500000
v -0.05994846 -0.00509060 0.00500000
v -0.06022470 -0.00442368 0.00509800
v -0.03258015 -0.00442368 0.00500000
v -0.05988541 -0.00544241 0.00500000
v -0.06014964 -0.00539162 0.00514405
v -0.06060602 -0.00528778 0.00539296
v -0.06080419 -0.00523686 0.00550076
v -0.06092730 -0.00446130 0.00550076
v -0.06086725 -0.00442368 0.00546352
v -0.03258015 -0.00442368 0.01501127
v -0.03025618 -0.00500006 0.00500000
v -0.05842016 -0.00578186 0.00500000
v -0.06014964 -0.00539162 0.01485545
v -0.06060602 -0.00528778 0.01460752
v -0.06080419 -0.00523686 0.01449973
v -0.06092730 -0.00446130 0.01449973
v -0.06086725 -0.00442368 0.01453697
v -0.03025618 -0.00500006 0.01501127
v -0.04846368 -0.00442368 0.01501127
v -0.03025618 -0.00578186 0.00500000
v -0.05842016 -0.00578186 0.01499951
v -0.05988541 -0.00544241 0.01499951
v -0.06007457 -0.00442368 0.01498775
v -0.03025618 -0.00578186 0.01501127
v -0.06005356 -0.00442368 0.01499951
v -0.04835859 -0.00485234 0.01501127
v -0.04808236 -0.00578186 0.01501127
v -0.04813040 -0.00563760 0.01501127
f 1 2 3
f 1 3 10
f 1 10 18
f 1 18 24
f 1 24 26
f 1 26 20
f 1 20 11
f 1 11 4
f 1 4 12
f 1 12 21
f 1 21 13
f 1 13 5
f 1 5 2
f 2 5 6
f 2 6 7
f 2 7 8
f 2 8 9
f 2 9 3
f 3 9 10
f 4 11 19
f 4 19 12
f 5 13 6
f 6 13 22
f 6 22 14
f 6 14 15
f 6 15 7
f 7 15 16
f 7 16 8
f 8 16 17
f 8 17 9
f 9 17 18
f 9 18 10
f 11 20 27
f 11 27 29
f 11 29 28
f 11 28 25
f 11 25 19
f 12 19 25
f 12 25 21
f 13 21 25
f 13 25 28
f 13 28 22
f 14 22 23
f 14 23 24
f 14 24 15
f 15 24 16
f 16 24 17
f 17 24 18
f 20 26 23
f 20 23 27
f 22 28 23
f 23 26 24
f 23 28 29
f 23 29 27

