# https://github.com/mikedh/trimesh
v -0.03672083 0.02825690 0.01051781
v -0.03686989 0.02853959 0.01500000
v -0.03673094 0.02827543 0.01500000
v -0.03672427 0.02826267 0.01500000
v -0.03672326 0.02825690 0.01500000
v -0.03672083 0.02825690 0.00500000
v -0.03686989 0.02853959 0.00500000
v -0.03703411 0.02882420 0.01500000
v -0.03878680 0.02825690 0.01500000
v -0.03878680 0.02825690 0.00500000
v -0.03703411 0.02882420 0.00500000
v -0.03724647 0.02916056 0.01500000
v -0.03878680 0.02835463 0.01500000
v -0.03878680 0.02835463 0.00500000
v -0.03724647 0.02916056 0.00500000
v -0.03733304 0.02928958 0.01500000
v -0.03877102 0.02875218 0.01500000
v -0.03877102 0.02875218 0.00500000
v -0.03733304 0.02928958 0.00500000
v -0.03748614 0.02950846 0.01485611
v -0.03768009 0.02920357 0.01500000
v -0.03876071 0.02890724 0.01500000
v -0.03876071 0.02890724 0.00500000
v -0.03841729 0.02900619 0.00500000
v -0.03748614 0.02950846 0.00514389
v -0.03776625 0.02988259 0.01460748
v -0.03789347 0.03004273 0.01449980
v -0.03865190 0.02983958 0.01449980
v -0.03868183 0.02963713 0.01460748
v -0.03873745 0.02917298 0.01485611
v -0.03873745 0.02917298 0.00514389
v -0.03868183 0.02963713 0.00539252
v -0.03865190 0.02983958 0.00550020
v -0.03789347 0.03004273 0.00550020
v -0.03776625 0.02988259 0.00539252
f 1 2 3
f 1 3 4
f 1 4 5
f 1 5 9
f 1 9 10
f 1 10 6
f 1 6 7
f 1 7 2
f 2 7 11
f 2 11 8
f 2 8 12
f 2 12 16
f 2 16 21
f 2 21 22
f 2 22 17
f 2 17 13
f 2 13 9
f 2 9 5
f 2 5 4
f 2 4 3
f 6 10 14
f 6 14 18
f 6 18 23
f 6 23 24
f 6 24 19
f 6 19 15
f 6 15 11
f 6 11 7
f 8 11 15
f 8 15 12
f 9 13 14
f 9 14 10
f 12 15 19
f 12 19 16
f 13 17 18
f 13 18 14
f 16 20 21
f 16 19 25
f 16 25 20
f 17 22 23
f 17 23 18
f 19 24 25
f 20 26 21
f 20 25 35
f 20 35 26
f 21 26 27
f 21 27 28
f 21 28 29
f 21 29 22
f 22 29 30
f 22 30 31
f 22 31 23
f 23 31 32
f 23 32 24
f 24 32 33
f 24 33 34
f 24 34 35
f 24 35 25
f 26 35 34
f 26 34 27
f 27 34 33
f 27 33 28
f 28 33 32
f 28 32 29
f 29 32 31
f 29 31 30

