# https://github.com/mikedh/trimesh
v -0.05850359 -0.00853680 0.00500000
v -0.05850359 -0.00853680 0.01499951
v -0.05850359 -0.00646906 0.00500000
v -0.05758274 -0.00890903 0.00500000
v -0.05850359 -0.00646906 0.01499951
v -0.05758274 -0.00890903 0.01499951
v -0.04674272 -0.00890903 0.01501127
v -0.04688099 -0.00865710 0.01501127
v -0.04724048 -0.00792337 0.01501127
v -0.04756955 -0.00717494 0.01501127
v -0.04786544 -0.00641274 0.01501127
v -0.04794840 -0.00617428 0.01501127
v -0.04808113 -0.00578186 0.01501127
v -0.05842063 -0.00578186 0.00500000
v -0.03025317 -0.00890903 0.00500000
v -0.05842063 -0.00578186 0.01499951
v -0.03025317 -0.00890903 0.01501127
v -0.03025594 -0.00578186 0.01501127
v -0.03025594 -0.00578186 0.00500000
v -0.03025317 -0.00617428 0.00500000
v -0.03025317 -0.00617428 0.01501127
f 1 2 5
f 1 5 3
f 1 3 14
f 1 14 19
f 1 19 20
f 1 20 15
f 1 15 4
f 1 4 6
f 1 6 2
f 2 6 7
f 2 7 8
f 2 8 9
f 2 9 10
f 2 10 11
f 2 11 12
f 2 12 13
f 2 13 5
f 3 5 16
f 3 16 14
f 4 15 17
f 4 17 7
f 4 7 6
f 5 13 16
f 7 17 21
f 7 21 18
f 7 18 13
f 7 13 12
f 7 12 11
f 7 11 10
f 7 10 9
f 7 9 8
f 13 18 19
f 13 19 14
f 13 14 16
f 15 20 21
f 15 21 17
f 18 21 20
f 18 20 19

