# https://github.com/mikedh/trimesh
v -0.01867317 -0.00000601 0.01501127
v -0.01867317 -0.00000601 0.00500000
v -0.02101327 -0.00000601 0.01501127
v -0.01867317 -0.01474336 0.01501127
v -0.02101327 -0.00000601 0.00500000
v -0.01867317 -0.02631579 0.00500000
v -0.02101327 -0.01600135 0.01501127
v -0.01883626 -0.01487428 0.01501127
v -0.01876433 -0.02785840 0.01499951
v -0.01867317 -0.02631579 0.01499951
v -0.02101327 -0.02730625 0.00500000
v -0.01876639 -0.02859271 0.00539296
v -0.01875952 -0.02812594 0.00514405
v -0.01876433 -0.02785840 0.00500000
v -0.02101327 -0.02730625 0.01499951
v -0.02087538 -0.01623759 0.01501127
v -0.01949596 -0.01535812 0.01501127
v -0.01980817 -0.02826540 0.01499951
v -0.01876639 -0.02859271 0.01460752
v -0.01875952 -0.02812594 0.01485545
v -0.02017605 -0.01581351 0.01501127
v -0.02024362 -0.02826825 0.00500000
v -0.01877510 -0.02879763 0.00550076
v -0.01909556 -0.02799217 0.00500000
v -0.02024362 -0.02826825 0.01499951
v -0.02014398 -0.02838779 0.01499951
v -0.01996897 -0.02858986 0.01485545
v -0.01965149 -0.02893140 0.01460752
v -0.01950810 -0.02907655 0.01449973
v -0.01877510 -0.02879763 0.01449973
v -0.02014398 -0.02838779 0.00500000
v -0.01950810 -0.02907655 0.00550076
v -0.01965149 -0.02893140 0.00539296
v -0.01996897 -0.02858986 0.00514405
f 1 2 5
f 1 5 3
f 1 3 7
f 1 7 16
f 1 16 21
f 1 21 17
f 1 17 8
f 1 8 4
f 1 4 10
f 1 10 6
f 1 6 2
f 2 6 14
f 2 14 24
f 2 24 31
f 2 31 22
f 2 22 11
f 2 11 5
f 3 5 11
f 3 11 15
f 3 15 7
f 4 8 9
f 4 9 10
f 6 10 19
f 6 19 12
f 6 12 13
f 6 13 14
f 7 15 16
f 8 17 9
f 9 18 19
f 9 19 20
f 9 20 10
f 9 17 21
f 9 21 16
f 9 16 18
f 10 20 19
f 11 22 25
f 11 25 15
f 12 19 30
f 12 30 23
f 12 23 13
f 13 23 24
f 13 24 14
f 15 25 16
f 16 25 26
f 16 26 18
f 18 26 27
f 18 27 28
f 18 28 29
f 18 29 30
f 18 30 19
f 22 31 26
f 22 26 25
f 23 30 29
f 23 29 32
f 23 32 24
f 24 32 33
f 24 33 34
f 24 34 31
f 26 31 34
f 26 34 27
f 27 34 33
f 27 33 28
f 28 33 32
f 28 32 29

