# https://github.com/mikedh/trimesh
v -0.04927874 0.02167630 0.00500000
v -0.04958167 0.02243105 0.00500000
v -0.04746649 0.02167630 0.00500000
v -0.04927874 0.02167630 0.01500000
v -0.04972882 0.02280062 0.00500000
v -0.04958167 0.02243105 0.01500000
v -0.04746649 0.02311731 0.00500000
v -0.04746649 0.02167630 0.01500000
v -0.04978244 0.02294647 0.00500000
v -0.04972882 0.02280062 0.01500000
v -0.04850236 0.02379368 0.00500000
v -0.04746649 0.02311731 0.01500000
v -0.04986936 0.02319857 0.00514389
v -0.05000735 0.02364523 0.00539252
v -0.04950899 0.02317617 0.00500000
v -0.04978244 0.02294647 0.01500000
v -0.04863400 0.02387624 0.00500000
v -0.04850236 0.02379368 0.01500000
v -0.04986936 0.02319857 0.01485611
v -0.05006250 0.02384238 0.00550020
v -0.05000735 0.02364523 0.01460748
v -0.04945206 0.02433670 0.00550020
v -0.04927086 0.02424190 0.00539252
v -0.04891558 0.02365669 0.01500000
v -0.05006250 0.02384238 0.01449980
v -0.04886247 0.02401401 0.00514389
v -0.04863400 0.02387624 0.01500000
v -0.04945206 0.02433670 0.01449980
v -0.04927086 0.02424190 0.01460748
v -0.04886247 0.02401401 0.01485611
f 1 2 5
f 1 5 9
f 1 9 15
f 1 15 17
f 1 17 11
f 1 11 7
f 1 7 3
f 1 3 8
f 1 8 4
f 1 4 6
f 1 6 2
f 2 6 10
f 2 10 5
f 3 7 12
f 3 12 8
f 4 8 12
f 4 12 18
f 4 18 27
f 4 27 24
f 4 24 16
f 4 16 10
f 4 10 6
f 5 10 16
f 5 16 9
f 7 11 18
f 7 18 12
f 9 13 14
f 9 14 15
f 9 16 19
f 9 19 13
f 11 17 27
f 11 27 18
f 13 19 21
f 13 21 14
f 14 20 15
f 14 21 25
f 14 25 20
f 15 20 22
f 15 22 23
f 15 23 17
f 16 24 25
f 16 25 21
f 16 21 19
f 17 23 26
f 17 26 30
f 17 30 27
f 20 25 28
f 20 28 22
f 22 28 29
f 22 29 23
f 23 29 30
f 23 30 26
f 24 27 29
f 24 29 28
f 24 28 25
f 27 30 29

