# https://github.com/mikedh/trimesh
v 0.00037890 0.00476701 0.01449980
v 0.00030432 0.00523686 0.01449980
v -0.00039712 0.00476701 0.01494127
v 0.00037890 0.00476701 0.00550020
v 0.00010618 0.00528784 0.01460748
v -0.00050048 0.00476701 0.01500000
v 0.00030432 0.00523686 0.00550020
v -0.00049984 0.00476701 0.00500000
v -0.00054927 0.00509063 0.00500000
v -0.00034962 0.00539156 0.01485611
v -0.00061180 0.00544246 0.01500000
v 0.00010618 0.00528784 0.00539252
v -0.00181655 0.00476701 0.01500000
v -0.00181655 0.00476701 0.00500000
v -0.00061180 0.00544246 0.00500000
v -0.00034962 0.00539156 0.00514389
v -0.00076460 0.00546907 0.01500000
v -0.00181655 0.00558150 0.01500000
v -0.00181655 0.00558318 0.00500000
v -0.00076460 0.00546907 0.00500000
v -0.00115830 0.00552636 0.01500000
v -0.00181203 0.00558254 0.01500000
v -0.00181655 0.00558318 0.00810395
v -0.00148538 0.00556056 0.00500000
v -0.00115830 0.00552636 0.00500000
v -0.00148538 0.00556056 0.01500000
f 1 2 3
f 1 3 6
f 1 6 13
f 1 13 14
f 1 14 8
f 1 8 4
f 1 4 7
f 1 7 2
f 2 5 6
f 2 6 3
f 2 7 12
f 2 12 5
f 4 8 9
f 4 9 7
f 5 10 11
f 5 11 6
f 5 12 16
f 5 16 10
f 6 11 17
f 6 17 21
f 6 21 26
f 6 26 22
f 6 22 18
f 6 18 13
f 7 9 12
f 8 14 19
f 8 19 24
f 8 24 25
f 8 25 20
f 8 20 15
f 8 15 9
f 9 15 16
f 9 16 12
f 10 16 15
f 10 15 11
f 11 15 20
f 11 20 17
f 13 18 23
f 13 23 19
f 13 19 14
f 17 20 25
f 17 25 21
f 18 22 23
f 19 23 26
f 19 26 24
f 21 25 24
f 21 24 26
f 22 26 23

