# https://github.com/mikedh/trimesh
v -0.05742645 0.01301770 0.00500000
v -0.05760902 0.01321314 0.00514405
v -0.05726996 0.01333919 0.00500000
v -0.05658792 0.01153434 0.00500000
v -0.05791679 0.01356494 0.00539296
v -0.05804720 0.01372242 0.00550076
v -0.05768988 0.01442232 0.00550076
v -0.05748644 0.01440958 0.00539296
v -0.05702088 0.01436737 0.00514405
v -0.05675484 0.01433480 0.00500000
v -0.05658792 0.01153434 0.01499951
v -0.04472589 0.01153434 0.00500000
v -0.05804720 0.01372242 0.01449973
v -0.05768988 0.01442232 0.01449973
v -0.05511690 0.01442770 0.00500000
v -0.05742645 0.01301770 0.01499951
v -0.05760902 0.01321314 0.01485545
v -0.05791679 0.01356494 0.01460752
v -0.04472589 0.01153434 0.01501127
v -0.04472589 0.01442770 0.00500000
v -0.05692307 0.01401926 0.01499951
v -0.05748644 0.01440958 0.01460752
v -0.05511690 0.01442770 0.01499951
v -0.04472589 0.01191389 0.01501127
v -0.04472589 0.01442770 0.01499951
v -0.05675484 0.01433480 0.01499951
v -0.05702088 0.01436737 0.01485545
f 1 2 3
f 1 3 10
f 1 10 15
f 1 15 20
f 1 20 12
f 1 12 4
f 1 4 2
f 2 5 3
f 2 4 5
f 3 5 6
f 3 6 7
f 3 7 8
f 3 8 9
f 3 9 10
f 4 11 13
f 4 13 6
f 4 6 5
f 4 12 19
f 4 19 11
f 6 13 14
f 6 14 7
f 7 14 23
f 7 23 15
f 7 15 8
f 8 15 9
f 9 15 10
f 11 16 17
f 11 17 18
f 11 18 13
f 11 19 16
f 12 20 25
f 12 25 24
f 12 24 19
f 13 18 21
f 13 21 14
f 14 21 22
f 14 22 23
f 15 23 25
f 15 25 20
f 16 18 17
f 16 19 24
f 16 24 21
f 16 21 18
f 21 26 22
f 21 24 26
f 22 26 27
f 22 27 23
f 23 27 26
f 23 26 24
f 23 24 25

