# https://github.com/mikedh/trimesh
v -0.03025317 -0.01156054 0.01501127
v -0.03025317 -0.01156054 0.00500000
v -0.03341760 -0.01156054 0.01501127
v -0.03025317 -0.01834583 0.01501127
v -0.03341760 -0.01156054 0.00500000
v -0.03025317 -0.02874805 0.00500000
v -0.03341760 -0.01847888 0.01501127
v -0.03106875 -0.01873356 0.01501127
v -0.03108888 -0.03012221 0.01499951
v -0.03025317 -0.02874805 0.01499951
v -0.03341760 -0.02857509 0.00500000
v -0.03148041 -0.03097560 0.00550076
v -0.03138934 -0.03079124 0.00539296
v -0.03119296 -0.03036739 0.00514405
v -0.03108888 -0.03012221 0.00500000
v -0.03341760 -0.02857509 0.01499951
v -0.03256454 -0.03004428 0.01499951
v -0.03269774 -0.01859101 0.01501127
v -0.03188464 -0.01868034 0.01501127
v -0.03220802 -0.03006899 0.01499951
v -0.03148041 -0.03097560 0.01449973
v -0.03138934 -0.03079124 0.01460752
v -0.03119296 -0.03036739 0.01485545
v -0.03256454 -0.03004428 0.00500000
v -0.03248649 -0.03029897 0.00514405
v -0.03233564 -0.03074182 0.00539296
v -0.03226439 -0.03093379 0.00550076
v -0.03144603 -0.03010891 0.00500000
v -0.03226439 -0.03093379 0.01449973
v -0.03233564 -0.03074182 0.01460752
v -0.03248649 -0.03029897 0.01485545
f 1 2 5
f 1 5 3
f 1 3 7
f 1 7 18
f 1 18 19
f 1 19 8
f 1 8 4
f 1 4 10
f 1 10 6
f 1 6 2
f 2 6 15
f 2 15 28
f 2 28 24
f 2 24 11
f 2 11 5
f 3 5 11
f 3 11 16
f 3 16 7
f 4 8 9
f 4 9 10
f 6 10 21
f 6 21 12
f 6 12 13
f 6 13 14
f 6 14 15
f 7 16 17
f 7 17 18
f 8 19 20
f 8 20 9
f 9 20 21
f 9 21 22
f 9 22 23
f 9 23 10
f 10 23 22
f 10 22 21
f 11 24 25
f 11 25 26
f 11 26 27
f 11 27 29
f 11 29 16
f 12 15 14
f 12 14 13
f 12 21 29
f 12 29 27
f 12 27 28
f 12 28 15
f 16 29 30
f 16 30 31
f 16 31 17
f 17 31 30
f 17 30 20
f 17 20 19
f 17 19 18
f 20 30 29
f 20 29 21
f 24 28 27
f 24 27 26
f 24 26 25

