# https://github.com/mikedh/trimesh
v -0.03025317 0.01874950 0.01501127
v -0.03025317 0.02874958 0.01499951
v -0.03108874 0.03012024 0.01499951
v -0.03106742 0.01873119 0.01501127
v -0.03025317 0.00500103 0.01501127
v -0.03025317 0.02874958 0.00500000
v -0.03148045 0.03097560 0.01449973
v -0.03138926 0.03078988 0.01460752
v -0.03119302 0.03036613 0.01485545
v -0.03144603 0.03010978 0.01499951
v -0.03188346 0.01867626 0.01501127
v -0.03256439 0.03004439 0.01499951
v -0.03287725 0.00425292 0.01501127
v -0.03025317 0.00500103 0.00500000
v -0.03108874 0.03012024 0.00500000
v -0.03119302 0.03036613 0.00514405
v -0.03138926 0.03078988 0.00539296
v -0.03148045 0.03097560 0.00550076
v -0.03226438 0.03093375 0.01449973
v -0.03233579 0.03074280 0.01460752
v -0.03269667 0.01858732 0.01501127
v -0.03256439 0.03004439 0.00500000
v -0.03260703 0.02989529 0.01499951
v -0.03287725 0.01856117 0.01501127
v -0.03248656 0.03029812 0.01485545
v -0.03287725 0.00425292 0.00500000
v -0.03220787 0.03006793 0.00500000
v -0.03226438 0.03093375 0.00550076
v -0.03233579 0.03074280 0.00539296
v -0.03248656 0.03029812 0.00514405
v -0.03260703 0.02989529 0.00500000
v -0.03270515 0.02950815 0.01499951
v -0.03287725 0.02875481 0.01499951
v -0.03287725 0.02875481 0.00500000
v -0.03270515 0.02950815 0.00500000
f 1 2 3
f 1 3 4
f 1 4 11
f 1 11 21
f 1 21 24
f 1 24 13
f 1 13 5
f 1 5 14
f 1 14 6
f 1 6 2
f 2 6 18
f 2 18 7
f 2 7 8
f 2 8 9
f 2 9 3
f 3 9 7
f 3 7 10
f 3 10 4
f 4 10 12
f 4 12 11
f 5 13 26
f 5 26 14
f 6 15 16
f 6 16 17
f 6 17 18
f 6 14 26
f 6 26 34
f 6 34 35
f 6 35 31
f 6 31 22
f 6 22 27
f 6 27 15
f 7 19 20
f 7 20 10
f 7 9 8
f 7 18 28
f 7 28 19
f 10 20 12
f 11 12 21
f 12 22 31
f 12 31 23
f 12 23 24
f 12 24 21
f 12 20 25
f 12 25 30
f 12 30 22
f 13 24 33
f 13 33 34
f 13 34 26
f 15 27 18
f 15 18 16
f 16 18 17
f 18 27 28
f 19 28 29
f 19 29 20
f 20 29 30
f 20 30 25
f 22 30 29
f 22 29 27
f 23 31 35
f 23 35 32
f 23 32 24
f 24 32 33
f 27 29 28
f 32 35 34
f 32 34 33

