# https://github.com/mikedh/trimesh
v -0.00117061 -0.01074187 0.01449980
v -0.00131680 -0.01059852 0.01460748
v -0.00225670 -0.01115434 0.01500000
v -0.00145216 -0.01147505 0.01449980
v -0.00117061 -0.01074187 0.00550020
v -0.00131680 -0.01059852 0.00539252
v -0.00296034 -0.00906181 0.01500000
v -0.00165964 -0.01028091 0.01485611
v -0.00186120 -0.01010593 0.01500000
v -0.00239083 -0.01148575 0.01500000
v -0.00165668 -0.01148361 0.01460748
v -0.00145216 -0.01147505 0.00550020
v -0.00198303 -0.01044185 0.00500000
v -0.00186120 -0.01010593 0.00500000
v -0.00165964 -0.01028091 0.00514389
v -0.00296034 -0.00906181 0.00500000
v -0.00368489 -0.00906181 0.01500000
v -0.00254613 -0.01147980 0.01500000
v -0.00239083 -0.01148575 0.00500000
v -0.00212405 -0.01149026 0.01485611
v -0.00165668 -0.01148361 0.00539252
v -0.00367012 -0.00906181 0.00500000
v -0.00368489 -0.01137544 0.01500000
v -0.00368489 -0.00906181 0.00501370
v -0.00294311 -0.01145389 0.01500000
v -0.00254613 -0.01147980 0.00500000
v -0.00212405 -0.01149026 0.00514389
v -0.00368489 -0.00906490 0.00500000
v -0.00368095 -0.01137710 0.01500000
v -0.00368489 -0.01137805 0.01230031
v -0.00294311 -0.01145389 0.00500000
v -0.00368489 -0.01137805 0.00500000
f 1 2 3
f 1 3 4
f 1 4 12
f 1 12 5
f 1 5 6
f 1 6 2
f 2 6 16
f 2 16 7
f 2 7 8
f 2 8 9
f 2 9 3
f 3 9 7
f 3 7 17
f 3 17 23
f 3 23 29
f 3 29 25
f 3 25 18
f 3 18 10
f 3 10 11
f 3 11 4
f 4 11 21
f 4 21 12
f 5 12 13
f 5 13 6
f 6 13 14
f 6 14 15
f 6 15 16
f 7 9 8
f 7 16 22
f 7 22 24
f 7 24 17
f 10 18 26
f 10 26 19
f 10 19 27
f 10 27 20
f 10 20 11
f 11 20 27
f 11 27 21
f 12 21 19
f 12 19 13
f 13 19 26
f 13 26 31
f 13 31 32
f 13 32 28
f 13 28 22
f 13 22 16
f 13 16 14
f 14 16 15
f 17 24 28
f 17 28 32
f 17 32 30
f 17 30 23
f 18 25 31
f 18 31 26
f 19 21 27
f 22 28 24
f 23 30 29
f 25 29 30
f 25 30 32
f 25 32 31

