# https://github.com/mikedh/trimesh
v -0.04204265 0.01457100 0.01501127
v -0.04204265 0.02621767 0.01499951
v -0.04326811 0.02717463 0.01499951
v -0.04358917 0.02701967 0.01499951
v -0.04458467 0.02650584 0.01499951
v -0.04230202 0.01436167 0.01501127
v -0.04204265 0.00002354 0.01501127
v -0.04204265 0.02621767 0.00500000
v -0.04397246 0.02779720 0.01449973
v -0.04381495 0.02766671 0.01460752
v -0.04346316 0.02735678 0.01485545
v -0.04467235 0.02743834 0.01449973
v -0.04465948 0.02723444 0.01460752
v -0.04461748 0.02676955 0.01485545
v -0.04472459 0.02483932 0.01499951
v -0.04472459 0.01191489 0.01501127
v -0.04461275 0.01205354 0.01501127
v -0.04407353 0.01266795 0.01501127
v -0.04350779 0.01326062 0.01501127
v -0.04291685 0.01382609 0.01501127
v -0.04472459 0.00002354 0.01501127
v -0.04204265 0.00002354 0.00500000
v -0.04326811 0.02717463 0.00500000
v -0.04346316 0.02735678 0.00514405
v -0.04381495 0.02766671 0.00539296
v -0.04397246 0.02779720 0.00550076
v -0.04467235 0.02743834 0.00550076
v -0.04472459 0.02483932 0.00500000
v -0.04472459 0.00002354 0.00500000
v -0.04426937 0.02667168 0.00500000
v -0.04458467 0.02650584 0.00500000
v -0.04465948 0.02723444 0.00539296
v -0.04461748 0.02676955 0.00514405
f 1 2 3
f 1 3 4
f 1 4 5
f 1 5 6
f 1 6 20
f 1 20 19
f 1 19 18
f 1 18 17
f 1 17 16
f 1 16 21
f 1 21 7
f 1 7 22
f 1 22 8
f 1 8 2
f 2 8 26
f 2 26 9
f 2 9 10
f 2 10 11
f 2 11 3
f 3 11 10
f 3 10 4
f 4 10 9
f 4 9 12
f 4 12 13
f 4 13 5
f 5 13 14
f 5 14 15
f 5 15 16
f 5 16 17
f 5 17 18
f 5 18 19
f 5 19 20
f 5 20 6
f 7 21 29
f 7 29 22
f 8 23 24
f 8 24 25
f 8 25 26
f 8 22 29
f 8 29 28
f 8 28 31
f 8 31 30
f 8 30 23
f 9 26 27
f 9 27 12
f 12 27 28
f 12 28 15
f 12 15 13
f 13 15 14
f 15 28 29
f 15 29 21
f 15 21 16
f 23 30 25
f 23 25 24
f 25 30 26
f 26 30 27
f 27 30 31
f 27 31 32
f 27 32 28
f 28 32 33
f 28 33 31
f 31 33 32

