# https://github.com/mikedh/trimesh
v 0.01506033 0.00059325 0.01474296
v 0.01505931 0.00074281 0.01474296
v 0.01505525 0.00074281 0.01489257
v 0.01506033 0.00014411 0.01474296
v 0.01506033 0.00059325 0.00022579
v 0.01505119 0.00089237 0.01474296
v 0.01504815 0.00089237 0.01489257
v 0.01505931 0.00074281 0.00022579
v 0.01505525 0.00014411 0.01489257
v 0.01499335 0.00104240 0.01500812
v 0.01499843 0.00089237 0.01500960
v 0.01500147 0.00074281 0.01500960
v 0.01500553 -0.00000545 0.01489257
v 0.01500756 -0.00000545 0.01474296
v 0.01506033 0.00014411 0.00022579
v 0.01505525 0.00074281 0.00007618
v 0.01503496 0.00104240 0.01474296
v 0.01501872 0.00119195 0.01489257
v 0.01503394 0.00104240 0.01489257
v 0.01505119 0.00089237 0.00022579
v 0.01495581 0.00174640 0.01497257
v 0.01496900 0.00149154 0.01499183
v 0.01497712 0.00134151 0.01499923
v 0.01498523 0.00119195 0.01500516
v 0.01504815 0.00089237 0.00007618
v 0.01497813 -0.00000545 0.01498886
v 0.01500147 0.00014411 0.01500960
v 0.01487767 0.00134151 0.01504071
v 0.01487767 0.00119195 0.01504663
v 0.01487767 0.00104240 0.01504960
v 0.01495378 -0.00008093 0.01496960
v 0.01495378 -0.00008140 0.01489257
v 0.01500756 -0.00000545 0.00022579
v 0.01500553 -0.00000545 0.00007618
v 0.01505525 0.00014411 0.00007618
v 0.01500147 0.00074281 -0.00004085
v 0.01499843 0.00089237 -0.00004085
v 0.01499335 0.00104240 -0.00003937
v 0.01498625 0.00149154 0.01489257
v 0.01503496 0.00104240 0.00022579
v 0.01503394 0.00104240 0.00007618
v 0.01501872 0.00119195 0.00007618
v 0.01481577 0.00268848 0.01498590
v 0.01483200 0.00253845 0.01500071
v 0.01484418 0.00238889 0.01500812
v 0.01496088 0.00164110 0.01498146
v 0.01497001 0.00164110 0.01489257
v 0.01495682 0.00176130 0.01489257
v 0.01488579 0.00238889 0.01489257
v 0.01498523 0.00119195 -0.00003641
v 0.01497712 0.00134151 -0.00003048
v 0.01496900 0.00149154 -0.00002308
v 0.01495581 0.00174640 -0.00000382
v 0.01487767 0.00014411 0.01504960
v 0.01487767 -0.00000545 0.01501108
v 0.01472748 0.00238889 0.01504960
v 0.01487767 -0.00008140 0.01496960
v 0.01487767 -0.00008233 0.01489257
v 0.01495378 -0.00008140 0.00007618
v 0.01495378 -0.00008093 -0.00000085
v 0.01497813 -0.00000545 -0.00002011
v 0.01500147 0.00014411 -0.00004085
v 0.01487767 0.00104240 -0.00008085
v 0.01487767 0.00119195 -0.00007788
v 0.01487767 0.00134151 -0.00007196
v 0.01492130 0.00209024 0.01474296
v 0.01498625 0.00149154 0.00007618
v 0.01480562 0.00277793 0.01497257
v 0.01466152 0.00340366 0.01498146
v 0.01467471 0.00328718 0.01499479
v 0.01453366 0.00388588 0.01500219
v 0.01468993 0.00313762 0.01500516
v 0.01472748 0.00253845 0.01504219
v 0.01490507 0.00223980 0.01474296
v 0.01486143 0.00253845 0.01489257
v 0.01488782 0.00238889 0.01474296
v 0.01484418 0.00238889 -0.00003937
v 0.01496088 0.00164110 -0.00001271
v 0.01483200 0.00253845 -0.00003196
v 0.01481577 0.00268848 -0.00001715
v 0.01488579 0.00238889 0.00007618
v 0.01495682 0.00176130 0.00007618
v 0.01497001 0.00164110 0.00007618
v 0.00514901 0.00014411 0.01504960
v 0.00514901 -0.00000545 0.01501108
v 0.01457831 0.00313762 0.01504663
v 0.01442812 0.00373633 0.01504960
v 0.00514901 -0.00008140 0.01496960
v 0.00514901 -0.00008233 0.01489257
v 0.01487767 -0.00008233 0.00007618
v 0.01487767 -0.00008140 -0.00000085
v 0.01487767 -0.00000545 -0.00004233
v 0.01487767 0.00014411 -0.00008085
v 0.01472748 0.00238889 -0.00008085
v 0.01492130 0.00209024 0.00022579
v 0.01450423 0.00411372 0.01496960
v 0.01482896 0.00268848 0.01489257
v 0.01456512 0.00388588 0.01489257
v 0.01451539 0.00403544 0.01498294
v 0.01439058 0.00433503 0.01500368
v 0.01442812 0.00388588 0.01504367
v 0.01457831 0.00328718 0.01503627
v 0.01490507 0.00223980 0.00022579
v 0.01486143 0.00253845 0.00007618
v 0.01488782 0.00238889 0.00022579
v 0.01472748 0.00253845 -0.00007344
v 0.01468993 0.00313762 -0.00003641
v 0.01453366 0.00388588 -0.00003344
v 0.01467471 0.00328718 -0.00002604
v 0.01466152 0.00340366 -0.00001271
v 0.01480562 0.00277793 -0.00000382
v 0.00499883 0.00089237 0.01504960
v 0.00484965 0.00149154 0.01504663
v 0.00499883 0.00074281 0.01504515
v 0.00499883 0.00059325 0.01503923
v 0.00499883 0.00014411 0.01501997
v 0.00501202 -0.00000126 0.01498886
v 0.00507087 -0.00008093 0.01496960
v 0.01427895 0.00433503 0.01504515
v 0.01427895 0.00418500 0.01504960
v 0.00506884 -0.00008140 0.01489257
v 0.00514901 -0.00008233 0.00007618
v 0.00514901 -0.00008140 -0.00000085
v 0.00514901 -0.00000545 -0.00004233
v 0.00514901 0.00014411 -0.00008085
v 0.01457831 0.00313762 -0.00007788
v 0.01442812 0.00373633 -0.00008085
v 0.01435404 0.00456100 0.01496960
v 0.01436724 0.00448459 0.01498442
v 0.01452757 0.00403544 0.01489257
v 0.01450525 0.00411558 0.01489257
v 0.01465036 0.00349917 0.01474296
v 0.01482896 0.00268848 0.00007618
v 0.01456512 0.00388588 0.00007618
v 0.01427895 0.00448459 0.01502590
v 0.01442812 0.00388588 -0.00007492
v 0.01457831 0.00328718 -0.00006752
v 0.01439058 0.00433503 -0.00003493
v 0.01451539 0.00403544 -0.00001419
v 0.01450423 0.00411372 -0.00000085
v 0.00499883 0.00149154 0.01504960
v 0.00529818 0.00164110 0.01504812
v 0.00514901 0.00164110 0.01503478
v 0.00484965 0.00161221 0.01500664
v 0.00474412 0.00159031 0.01499331
v 0.00473397 0.00149154 0.01500516
v 0.00491967 0.00005139 0.01497553
v 0.00499375 -0.00003247 0.01489257
v 0.01412876 0.00448459 0.01504960
v 0.00506884 -0.00008140 0.00007618
v 0.00507087 -0.00008093 -0.00000085
v 0.00501202 -0.00000126 -0.00002011
v 0.00499883 0.00089237 -0.00008085
v 0.00499883 0.00014411 -0.00005122
v 0.00499883 0.00059325 -0.00007048
v 0.00499883 0.00074281 -0.00007640
v 0.00484965 0.00149154 -0.00007788
v 0.01427895 0.00418500 -0.00008085
v 0.01427895 0.00433503 -0.00007640
v 0.01427895 0.00459501 0.01498886
v 0.01438043 0.00448459 0.01489257
v 0.01435404 0.00456193 0.01489257
v 0.01427895 0.00463182 0.01489257
v 0.01452757 0.00403544 0.00007618
v 0.01443117 0.00433503 0.01474296
v 0.01450525 0.00411558 0.00007618
v 0.01465036 0.00349917 0.00022579
v 0.01412876 0.00461644 0.01500960
v 0.01436724 0.00448459 -0.00001567
v 0.01427895 0.00448459 -0.00005715
v 0.01435404 0.00456100 -0.00000085
v 0.00679498 0.00209024 0.01504960
v 0.00664581 0.00209024 0.01504663
v 0.01038627 0.00328718 0.01504960
v 0.00754388 0.00238889 0.01504515
v 0.00889049 0.00283804 0.01504219
v 0.00978857 0.00313762 0.01503923
v 0.00844196 0.00279564 0.01500219
v 0.00574773 0.00190807 0.01500664
v 0.00514901 0.00173754 0.01499331
v 0.00505362 0.00172217 0.01497701
v 0.00484965 0.00166020 0.01489257
v 0.00472890 0.00160196 0.01489257
v 0.00469439 0.00149154 0.01489257
v 0.00491764 0.00004254 0.01489257
v 0.00499375 -0.00003247 0.00007618
v 0.01397959 0.00448459 0.01504367
v 0.01353005 0.00433503 0.01504515
v 0.01263197 0.00403544 0.01504663
v 0.00491967 0.00005139 -0.00000678
v 0.00499883 0.00149154 -0.00008085
v 0.00473397 0.00149154 -0.00003641
v 0.00474412 0.00159031 -0.00002456
v 0.00484965 0.00161221 -0.00003789
v 0.00514901 0.00164110 -0.00006603
v 0.00529818 0.00164110 -0.00007937
v 0.01412876 0.00448459 -0.00008085
v 0.01412876 0.00467561 0.01489257
v 0.01438043 0.00448459 0.00007618
v 0.01427895 0.00463322 0.01474296
v 0.01435404 0.00456193 0.00007618
v 0.01412876 0.00467748 0.01474296
v 0.01443117 0.00433503 0.00022579
v 0.01397959 0.00459315 0.01500219
v 0.01412876 0.00461644 -0.00004085
v 0.01427895 0.00459501 -0.00002011
v 0.01427895 0.00463182 0.00007618
v 0.01068563 0.00343674 0.01503627
v 0.01353005 0.00444545 0.01500368
v 0.00889049 0.00294380 0.01500071
v 0.00559754 0.00188570 0.01499183
v 0.00877684 0.00292563 0.01498442
v 0.01104080 0.00366784 0.01497701
v 0.00641241 0.00216758 0.01497257
v 0.00504449 0.00172543 0.01489257
v 0.00484965 0.00166206 0.01474296
v 0.00469338 0.00149154 0.01474296
v 0.00472890 0.00160196 0.00007618
v 0.00491764 0.00004254 0.00007618
v 0.00469439 0.00149154 0.00007618
v 0.00679498 0.00209024 -0.00008085
v 0.00484965 0.00166020 0.00007618
v 0.00505362 0.00172217 -0.00000826
v 0.00514901 0.00173754 -0.00002456
v 0.00574773 0.00190807 -0.00003789
v 0.00978857 0.00313762 -0.00007048
v 0.00889049 0.00283804 -0.00007344
v 0.00754388 0.00238889 -0.00007640
v 0.00664581 0.00209024 -0.00007788
v 0.00844196 0.00279564 -0.00003344
v 0.01038627 0.00328718 -0.00008085
v 0.01263197 0.00403544 -0.00007788
v 0.01353005 0.00433503 -0.00007640
v 0.01397959 0.00448459 -0.00007492
v 0.01397959 0.00462809 0.01489257
v 0.01285218 0.00426141 0.01496960
v 0.01385883 0.00457451 0.01498590
v 0.01427895 0.00463322 0.00022579
v 0.01186581 0.00394226 0.01474296
v 0.01068563 0.00355881 0.01489257
v 0.01383549 0.00458196 0.01489257
v 0.01412876 0.00467748 0.00022579
v 0.01340523 0.00442588 0.01498738
v 0.01158371 0.00383091 0.01499183
v 0.01397959 0.00459315 -0.00003344
v 0.01412876 0.00467561 0.00007618
v 0.00978857 0.00323966 0.01499775
v 0.01194700 0.00396462 0.01497405
v 0.01239959 0.00411279 0.01497257
v 0.00731860 0.00246391 0.01496812
v 0.00514901 0.00175944 0.01489257
v 0.00529818 0.00180836 0.01474296
v 0.00496940 0.00170120 0.01474296
v 0.00484965 0.00166206 0.00022579
v 0.00469338 0.00149154 0.00022579
v 0.00504449 0.00172543 0.00007618
v 0.00641241 0.00216758 -0.00000382
v 0.01104080 0.00366784 -0.00000826
v 0.00877684 0.00292563 -0.00001567
v 0.00559754 0.00188570 -0.00002308
v 0.01353005 0.00444545 -0.00003493
v 0.01068563 0.00343674 -0.00006752
v 0.00889049 0.00294380 -0.00003196
v 0.01186581 0.00394226 0.00022579
v 0.00649562 0.00219740 0.01489257
v 0.01068563 0.00355881 0.00007618
v 0.01397959 0.00462809 0.00007618
v 0.01383549 0.00458196 0.00007618
v 0.01158371 0.00383091 -0.00002308
v 0.01340523 0.00442588 -0.00001863
v 0.01385883 0.00457451 -0.00001715
v 0.01285218 0.00426141 -0.00000085
v 0.00595373 0.00202129 0.01489257
v 0.00529818 0.00180836 0.00022579
v 0.00496940 0.00170120 0.00022579
v 0.00514901 0.00175944 0.00007618
v 0.00731860 0.00246391 0.00000063
v 0.01239959 0.00411279 -0.00000382
v 0.01194700 0.00396462 -0.00000530
v 0.00978857 0.00323966 -0.00002900
v 0.00649562 0.00219740 0.00007618
v 0.00595373 0.00202129 0.00007618
f 1 2 3
f 1 3 9
f 1 9 4
f 1 4 15
f 1 15 5
f 1 5 8
f 1 8 2
f 2 6 7
f 2 7 3
f 2 8 20
f 2 20 6
f 3 7 10
f 3 10 11
f 3 11 12
f 3 12 27
f 3 27 9
f 4 9 13
f 4 13 14
f 4 14 33
f 4 33 15
f 5 15 35
f 5 35 16
f 5 16 8
f 6 17 18
f 6 18 19
f 6 19 7
f 6 20 40
f 6 40 17
f 7 19 21
f 7 21 22
f 7 22 23
f 7 23 24
f 7 24 10
f 8 16 25
f 8 25 20
f 9 26 13
f 9 27 26
f 10 28 29
f 10 29 11
f 10 24 28
f 11 29 30
f 11 30 12
f 12 30 54
f 12 54 27
f 13 26 31
f 13 31 14
f 14 31 32
f 14 32 59
f 14 59 33
f 15 33 34
f 15 34 35
f 16 35 62
f 16 62 36
f 16 36 37
f 16 37 38
f 16 38 25
f 17 39 18
f 17 40 67
f 17 67 39
f 18 39 21
f 18 21 19
f 20 25 41
f 20 41 42
f 20 42 40
f 21 43 44
f 21 44 45
f 21 45 46
f 21 46 22
f 21 39 47
f 21 47 48
f 21 48 49
f 21 49 43
f 22 46 45
f 22 45 23
f 23 45 24
f 24 45 28
f 25 38 50
f 25 50 51
f 25 51 52
f 25 52 53
f 25 53 41
f 26 27 54
f 26 54 55
f 26 55 31
f 28 45 56
f 28 56 29
f 29 56 30
f 30 56 87
f 30 87 120
f 30 120 149
f 30 149 174
f 30 174 172
f 30 172 141
f 30 141 112
f 30 112 84
f 30 84 54
f 31 57 58
f 31 58 32
f 31 55 57
f 32 58 90
f 32 90 59
f 33 59 60
f 33 60 34
f 34 60 61
f 34 61 35
f 35 61 62
f 36 62 93
f 36 93 63
f 36 63 37
f 37 63 64
f 37 64 38
f 38 64 65
f 38 65 50
f 39 66 74
f 39 74 47
f 39 67 95
f 39 95 66
f 40 42 67
f 41 53 42
f 42 53 67
f 43 49 68
f 43 68 69
f 43 69 70
f 43 70 44
f 44 70 71
f 44 71 72
f 44 72 73
f 44 73 45
f 45 73 56
f 47 74 48
f 48 74 49
f 49 75 68
f 49 74 76
f 49 76 75
f 50 65 77
f 50 77 51
f 51 77 52
f 52 78 53
f 52 77 78
f 53 78 77
f 53 77 79
f 53 79 80
f 53 80 81
f 53 81 82
f 53 82 83
f 53 83 67
f 54 84 85
f 54 85 55
f 55 85 88
f 55 88 57
f 56 73 86
f 56 86 87
f 57 88 89
f 57 89 58
f 58 89 122
f 58 122 90
f 59 90 60
f 60 91 92
f 60 92 61
f 60 90 91
f 61 92 93
f 61 93 62
f 63 93 125
f 63 125 153
f 63 153 191
f 63 191 221
f 63 221 231
f 63 231 197
f 63 197 158
f 63 158 127
f 63 127 94
f 63 94 64
f 64 94 65
f 65 94 77
f 66 95 103
f 66 103 74
f 67 83 103
f 67 103 95
f 68 96 69
f 68 75 97
f 68 97 98
f 68 98 96
f 69 96 99
f 69 99 71
f 69 71 70
f 71 100 101
f 71 101 102
f 71 102 73
f 71 73 72
f 71 99 100
f 73 102 101
f 73 101 86
f 74 103 105
f 74 105 76
f 75 76 105
f 75 105 104
f 75 104 133
f 75 133 97
f 77 94 106
f 77 106 79
f 79 107 108
f 79 108 109
f 79 109 80
f 79 106 107
f 80 109 110
f 80 110 111
f 80 111 81
f 81 111 104
f 81 104 105
f 81 105 103
f 81 103 82
f 82 103 83
f 84 112 113
f 84 113 114
f 84 114 115
f 84 115 116
f 84 116 117
f 84 117 85
f 85 117 118
f 85 118 88
f 86 101 87
f 87 101 119
f 87 119 120
f 88 118 89
f 89 118 121
f 89 121 150
f 89 150 122
f 90 122 123
f 90 123 91
f 91 123 124
f 91 124 92
f 92 124 125
f 92 125 93
f 94 126 106
f 94 127 126
f 96 128 129
f 96 129 99
f 96 98 130
f 96 130 131
f 96 131 128
f 97 132 98
f 97 133 167
f 97 167 132
f 98 132 167
f 98 167 134
f 98 134 164
f 98 164 130
f 99 129 100
f 100 129 135
f 100 135 119
f 100 119 101
f 104 111 133
f 106 126 136
f 106 136 137
f 106 137 108
f 106 108 107
f 108 137 136
f 108 136 138
f 108 138 139
f 108 139 110
f 108 110 109
f 110 139 140
f 110 140 111
f 111 140 134
f 111 134 133
f 112 141 113
f 113 116 115
f 113 115 114
f 113 141 142
f 113 142 143
f 113 143 144
f 113 144 145
f 113 145 146
f 113 146 116
f 116 146 147
f 116 147 117
f 117 147 118
f 118 147 148
f 118 148 121
f 119 135 149
f 119 149 120
f 121 148 186
f 121 186 150
f 122 150 151
f 122 151 123
f 123 151 124
f 124 151 152
f 124 152 125
f 125 152 154
f 125 154 155
f 125 155 156
f 125 156 157
f 125 157 153
f 126 127 136
f 127 158 159
f 127 159 136
f 128 160 135
f 128 135 129
f 128 131 161
f 128 161 162
f 128 162 163
f 128 163 160
f 130 164 166
f 130 166 131
f 131 165 161
f 131 166 203
f 131 203 165
f 133 134 167
f 134 140 164
f 135 168 149
f 135 160 168
f 136 159 138
f 138 169 139
f 138 159 170
f 138 170 169
f 139 169 140
f 140 169 171
f 140 171 166
f 140 166 164
f 141 172 142
f 142 173 143
f 142 172 174
f 142 174 173
f 143 173 175
f 143 175 176
f 143 176 177
f 143 177 178
f 143 178 179
f 143 179 144
f 144 179 180
f 144 180 145
f 145 180 181
f 145 181 182
f 145 182 183
f 145 183 184
f 145 184 146
f 146 184 147
f 147 184 185
f 147 185 148
f 148 185 219
f 148 219 186
f 149 168 187
f 149 187 188
f 149 188 189
f 149 189 174
f 150 186 151
f 151 186 190
f 151 190 152
f 152 190 154
f 153 157 191
f 154 157 155
f 154 190 192
f 154 192 157
f 155 157 156
f 157 192 193
f 157 193 194
f 157 194 195
f 157 195 196
f 157 196 191
f 158 197 159
f 159 197 170
f 160 163 198
f 160 198 168
f 161 165 203
f 161 203 199
f 161 199 201
f 161 201 162
f 162 200 163
f 162 201 238
f 162 238 200
f 163 200 202
f 163 202 198
f 166 171 199
f 166 199 203
f 168 198 204
f 168 204 187
f 169 170 171
f 170 197 205
f 170 205 206
f 170 206 171
f 171 206 207
f 171 207 201
f 171 201 199
f 173 174 189
f 173 189 188
f 173 188 175
f 175 188 176
f 176 188 177
f 177 208 209
f 177 209 178
f 177 188 208
f 178 209 210
f 178 210 211
f 178 211 180
f 178 180 179
f 180 211 181
f 181 211 212
f 181 212 213
f 181 213 214
f 181 214 215
f 181 215 182
f 182 215 216
f 182 216 183
f 183 217 184
f 183 216 254
f 183 254 218
f 183 218 255
f 183 255 217
f 184 217 185
f 185 217 255
f 185 255 219
f 186 219 190
f 187 204 209
f 187 209 188
f 188 209 208
f 190 219 220
f 190 220 192
f 191 196 221
f 192 220 193
f 193 220 218
f 193 218 222
f 193 222 223
f 193 223 224
f 193 224 194
f 194 224 225
f 194 225 195
f 195 226 227
f 195 227 228
f 195 228 229
f 195 229 196
f 195 225 230
f 195 230 226
f 196 229 231
f 196 231 221
f 197 232 233
f 197 233 234
f 197 234 205
f 197 231 232
f 198 202 235
f 198 235 236
f 198 236 237
f 198 237 204
f 200 238 242
f 200 242 202
f 201 207 238
f 202 239 240
f 202 240 241
f 202 241 235
f 202 242 264
f 202 264 239
f 204 237 243
f 204 243 244
f 204 244 209
f 205 234 245
f 205 245 246
f 205 246 206
f 206 246 207
f 207 246 242
f 207 242 238
f 209 244 247
f 209 247 210
f 210 247 211
f 211 244 212
f 211 247 244
f 212 244 213
f 213 244 248
f 213 248 214
f 214 248 249
f 214 249 236
f 214 236 250
f 214 250 215
f 215 251 252
f 215 252 253
f 215 253 216
f 215 250 251
f 216 253 275
f 216 275 254
f 218 254 222
f 218 220 255
f 219 255 220
f 222 254 256
f 222 256 223
f 223 257 258
f 223 258 259
f 223 259 260
f 223 260 224
f 223 256 257
f 224 260 263
f 224 263 230
f 224 230 225
f 226 230 261
f 226 261 262
f 226 262 233
f 226 233 227
f 227 233 228
f 228 233 229
f 229 233 232
f 229 232 231
f 230 263 261
f 233 262 261
f 233 261 234
f 234 261 245
f 235 241 236
f 236 249 237
f 236 241 240
f 236 240 250
f 237 249 248
f 237 248 244
f 237 244 243
f 239 264 266
f 239 266 240
f 240 252 265
f 240 265 250
f 240 266 274
f 240 274 252
f 242 246 267
f 242 267 268
f 242 268 266
f 242 266 264
f 245 261 269
f 245 269 270
f 245 270 271
f 245 271 246
f 246 271 272
f 246 272 267
f 250 265 273
f 250 273 251
f 251 273 252
f 252 273 265
f 252 274 275
f 252 275 253
f 254 275 256
f 256 276 277
f 256 277 257
f 256 275 274
f 256 274 276
f 257 278 279
f 257 279 258
f 257 277 272
f 257 272 278
f 258 279 269
f 258 269 259
f 259 269 260
f 260 269 280
f 260 280 263
f 261 263 280
f 261 280 269
f 266 268 272
f 266 272 277
f 266 277 281
f 266 281 274
f 267 272 268
f 269 279 271
f 269 271 270
f 271 279 278
f 271 278 272
f 274 281 282
f 274 282 276
f 276 282 277
f 277 282 281

