# https://github.com/mikedh/trimesh
v 0.00493704 0.00078207 -0.01003125
v 0.00499350 -0.00000000 -0.01003125
v 0.00493704 0.00078207 0.00000000
v 0.00783735 0.00124144 0.00000000
v 0.01851784 0.00293307 -0.01003125
v 0.00499350 -0.00000000 0.00000000
v 0.01874843 -0.00000000 -0.01003125
v 0.01375091 0.00217798 0.00000000
v 0.01851784 0.00293307 -0.00003142
v 0.02090053 0.00202639 -0.00953047
v 0.02060092 0.00212286 -0.00969740
v 0.02000016 0.00231636 -0.01003125
v 0.01497755 -0.00000000 0.00000000
v 0.02011623 0.00084093 -0.01003125
v 0.02096170 0.00126843 -0.00953047
v 0.01874843 -0.00000000 -0.00003142
v 0.01480971 0.00234565 0.00000000
v 0.02000016 0.00231636 -0.00003142
v 0.02060092 0.00212286 -0.00036527
v 0.02090053 0.00202639 -0.00053220
v 0.01497755 0.00081222 0.00000000
v 0.02011623 0.00084093 -0.00003142
v 0.02096170 0.00126843 -0.00053220
f 1 2 6
f 1 6 3
f 1 3 4
f 1 4 5
f 1 5 12
f 1 12 14
f 1 14 7
f 1 7 2
f 2 7 16
f 2 16 13
f 2 13 6
f 3 6 13
f 3 13 21
f 3 21 17
f 3 17 8
f 3 8 4
f 4 8 9
f 4 9 5
f 5 9 20
f 5 20 10
f 5 10 11
f 5 11 12
f 7 14 15
f 7 15 23
f 7 23 16
f 8 17 9
f 9 17 18
f 9 18 19
f 9 19 20
f 10 20 23
f 10 23 15
f 10 15 11
f 11 15 12
f 12 15 14
f 13 16 22
f 13 22 21
f 16 23 22
f 17 21 18
f 18 22 23
f 18 23 19
f 18 21 22
f 19 23 20

